G04*
G04 #@! TF.GenerationSoftware,Altium Limited,Altium Designer,20.1.12 (249)*
G04*
G04 Layer_Color=32896*
%FSLAX44Y44*%
%MOMM*%
G71*
G04*
G04 #@! TF.SameCoordinates,2AA84F29-7605-4DC1-95F6-89BBEAF3FCC8*
G04*
G04*
G04 #@! TF.FilePolarity,Positive*
G04*
G01*
G75*
%ADD10C,0.2000*%
D10*
X393000Y338000D02*
X385003D01*
Y334001D01*
X386335Y332668D01*
X389001D01*
X390334Y334001D01*
Y338000D01*
X393000Y328670D02*
Y326004D01*
X391667Y324671D01*
X389001D01*
X387668Y326004D01*
Y328670D01*
X389001Y330003D01*
X391667D01*
X393000Y328670D01*
X387668Y322005D02*
X391667D01*
X393000Y320672D01*
Y316674D01*
X387668D01*
X386335Y312675D02*
X387668D01*
Y314008D01*
Y311342D01*
Y312675D01*
X391667D01*
X393000Y311342D01*
X83000Y338000D02*
X75003D01*
Y334001D01*
X76336Y332668D01*
X79001D01*
X80334Y334001D01*
Y338000D01*
X83000Y330003D02*
Y327337D01*
Y328670D01*
X77668D01*
Y330003D01*
X83000Y323338D02*
X77668D01*
Y319339D01*
X79001Y318006D01*
X83000D01*
X476335Y292668D02*
X475003Y294001D01*
Y296667D01*
X476335Y298000D01*
X481667D01*
X483000Y296667D01*
Y294001D01*
X481667Y292668D01*
X479001D01*
Y295334D01*
X483000Y290003D02*
X475003D01*
X483000Y284671D01*
X475003D01*
Y282005D02*
X483000D01*
Y278006D01*
X481667Y276674D01*
X476335D01*
X475003Y278006D01*
Y282005D01*
X161336Y292668D02*
X160003Y294001D01*
Y296667D01*
X161336Y298000D01*
X166667D01*
X168000Y296667D01*
Y294001D01*
X166667Y292668D01*
X164001D01*
Y295334D01*
X168000Y290003D02*
X160003D01*
X168000Y284671D01*
X160003D01*
Y282005D02*
X168000D01*
Y278006D01*
X166667Y276674D01*
X161336D01*
X160003Y278006D01*
Y282005D01*
M02*
