M48
;Layer_Color=9474304
;FILE_FORMAT=4:4
METRIC,LZ
;TYPE=PLATED
T1F00S00C0.3000
T2F00S00C0.8000
T3F00S00C1.1000
T4F00S00C2.0000
%
T01
X0006Y0008
Y00145
X0014Y00185
X0012Y0003
X0026Y0008
X0025Y0013
Y0017
X00365Y0016
Y0023
X0044Y0016
X00445Y00115
X00435Y00025
X00455Y00345
T02
X0015Y0012
X001754
X00280285Y00066258
Y00040858
T03
X0034952Y000403
Y000657
T04
X00039Y003265
X00164Y002515
X00356Y003285
X00481Y002535
M30
