G04*
G04 #@! TF.GenerationSoftware,Altium Limited,Altium Designer,20.1.12 (249)*
G04*
G04 Layer_Color=8421504*
%FSLAX44Y44*%
%MOMM*%
G71*
G04*
G04 #@! TF.SameCoordinates,85B36F8B-E135-4E31-A215-2F58F684B550*
G04*
G04*
G04 #@! TF.FilePolarity,Positive*
G04*
G01*
G75*
%ADD15R,1.5000X1.5000*%
%ADD16R,1.5000X1.5000*%
%ADD17R,0.7500X0.5000*%
%ADD18R,0.7500X0.4000*%
%ADD19R,1.2000X1.6000*%
%ADD20R,1.2000X8.7000*%
%ADD21R,1.2500X0.7500*%
%ADD22R,0.9500X1.4500*%
%ADD23R,1.5562X0.9562*%
%ADD24R,1.3900X0.9600*%
%ADD25R,0.9562X1.5562*%
%ADD26R,8.5400X5.3500*%
%ADD27R,3.0600X0.8900*%
%ADD28R,2.8200X1.4300*%
%ADD29R,1.2000X1.1000*%
%ADD30R,1.4500X0.9500*%
%ADD31R,1.5500X1.3500*%
%ADD32R,1.7000X1.0000*%
%ADD33R,0.9600X1.3900*%
%ADD34R,3.3000X1.8000*%
%ADD35R,1.1000X0.6000*%
%ADD36R,1.7800X0.7100*%
%ADD37R,1.3000X3.4000*%
%ADD38R,0.6500X1.5250*%
%ADD39R,7.0000X7.0000*%
%ADD40R,2.5000X1.5000*%
%ADD41R,1.3500X1.5500*%
%ADD42R,0.7500X1.2500*%
%ADD43R,1.3561X1.8582*%
%ADD44R,1.5250X0.6500*%
%ADD45R,1.3000X0.9000*%
%ADD46R,0.7500X1.4500*%
%ADD47R,1.2500X3.5200*%
%ADD48R,0.9000X1.3000*%
%ADD49R,1.5000X0.6000*%
D15*
X661000Y301500D02*
D03*
X678000D02*
D03*
X661000Y578500D02*
D03*
X678000D02*
D03*
X661000Y371500D02*
D03*
X678000D02*
D03*
X661000Y631500D02*
D03*
X678000D02*
D03*
D16*
X661000Y318500D02*
D03*
X678000D02*
D03*
X661000Y561500D02*
D03*
X678000D02*
D03*
X661000Y388500D02*
D03*
X678000D02*
D03*
X661000Y648500D02*
D03*
X678000D02*
D03*
D17*
X692050Y290949D02*
D03*
Y303649D02*
D03*
Y316349D02*
D03*
Y329049D02*
D03*
X692050Y550947D02*
D03*
Y563647D02*
D03*
Y576348D02*
D03*
Y589048D02*
D03*
X692050Y360951D02*
D03*
Y373651D02*
D03*
Y386351D02*
D03*
Y399051D02*
D03*
X692050Y620951D02*
D03*
Y633651D02*
D03*
Y646351D02*
D03*
Y659051D02*
D03*
D18*
X633950Y290945D02*
D03*
Y303645D02*
D03*
Y316345D02*
D03*
Y329045D02*
D03*
X633950Y550948D02*
D03*
Y563648D02*
D03*
Y576348D02*
D03*
Y589048D02*
D03*
X633950Y360945D02*
D03*
Y373645D02*
D03*
Y386345D02*
D03*
Y399045D02*
D03*
X633950Y620957D02*
D03*
Y633657D02*
D03*
Y646357D02*
D03*
Y659057D02*
D03*
D19*
X478000Y251250D02*
D03*
X522000D02*
D03*
D20*
Y188750D02*
D03*
X478000D02*
D03*
D21*
X505166Y636676D02*
D03*
X538166D02*
D03*
X513500Y386000D02*
D03*
X546500D02*
D03*
D22*
X444750Y729542D02*
D03*
X425250D02*
D03*
X274568Y500000D02*
D03*
X255068D02*
D03*
X307568Y381000D02*
D03*
X288067D02*
D03*
X435250Y383500D02*
D03*
X454750D02*
D03*
X435250Y365500D02*
D03*
X454750D02*
D03*
X307568Y422000D02*
D03*
X288067D02*
D03*
X307568Y440000D02*
D03*
X288067D02*
D03*
X562750Y730000D02*
D03*
X582250D02*
D03*
D23*
X94926Y758876D02*
D03*
Y735377D02*
D03*
X474616Y706969D02*
D03*
Y683469D02*
D03*
X145073Y758876D02*
D03*
Y735377D02*
D03*
X601666Y608427D02*
D03*
Y584926D02*
D03*
X610000Y357750D02*
D03*
Y334250D02*
D03*
D24*
X120000Y763100D02*
D03*
Y746900D02*
D03*
X392000Y419400D02*
D03*
Y435600D02*
D03*
X420000Y382600D02*
D03*
Y366400D02*
D03*
X501666Y604776D02*
D03*
Y588576D02*
D03*
X505000Y360100D02*
D03*
Y343900D02*
D03*
D25*
X240750Y744340D02*
D03*
X264250D02*
D03*
X446750Y597500D02*
D03*
X423250D02*
D03*
X584587Y694000D02*
D03*
X561087D02*
D03*
D26*
X184767Y393000D02*
D03*
D27*
X257817Y431100D02*
D03*
Y418400D02*
D03*
Y405700D02*
D03*
Y393000D02*
D03*
Y380300D02*
D03*
Y367600D02*
D03*
Y354900D02*
D03*
D28*
X150000Y455100D02*
D03*
Y480900D02*
D03*
X182000Y455100D02*
D03*
Y480900D02*
D03*
X213500Y455100D02*
D03*
Y480900D02*
D03*
X147000Y303100D02*
D03*
Y328900D02*
D03*
X178818Y303100D02*
D03*
Y328900D02*
D03*
X252817D02*
D03*
Y303100D02*
D03*
X284100Y328900D02*
D03*
Y303100D02*
D03*
X245000Y455100D02*
D03*
Y480900D02*
D03*
D29*
X290818Y473500D02*
D03*
Y494500D02*
D03*
D30*
X385000Y510250D02*
D03*
Y490750D02*
D03*
X289818Y364750D02*
D03*
Y345250D02*
D03*
X307817Y364750D02*
D03*
Y345250D02*
D03*
X370000Y472250D02*
D03*
Y452750D02*
D03*
X374000Y438250D02*
D03*
Y418750D02*
D03*
X410000Y438250D02*
D03*
Y418750D02*
D03*
D31*
X440443Y449707D02*
D03*
Y469207D02*
D03*
X445042Y639207D02*
D03*
Y658708D02*
D03*
Y685250D02*
D03*
Y704750D02*
D03*
X504190Y685250D02*
D03*
Y704750D02*
D03*
D32*
X306766Y612993D02*
D03*
Y647992D02*
D03*
D33*
X302656Y667992D02*
D03*
X318856D02*
D03*
X418100Y509500D02*
D03*
X401900D02*
D03*
Y492500D02*
D03*
X418100D02*
D03*
X435100Y400500D02*
D03*
X418900D02*
D03*
X403100Y329500D02*
D03*
X386900D02*
D03*
X435100Y347500D02*
D03*
X418900D02*
D03*
X448100Y492500D02*
D03*
X431900D02*
D03*
X305917Y405000D02*
D03*
X289718D02*
D03*
X305917Y456500D02*
D03*
X289718D02*
D03*
X406500Y668207D02*
D03*
X422700D02*
D03*
D34*
X271814Y620691D02*
D03*
X227814D02*
D03*
D35*
X415000Y472000D02*
D03*
Y453000D02*
D03*
X391000D02*
D03*
Y462500D02*
D03*
Y472000D02*
D03*
D36*
X271817Y482400D02*
D03*
Y451600D02*
D03*
D37*
X205317Y315000D02*
D03*
X226318D02*
D03*
D38*
X404050Y402120D02*
D03*
X391350D02*
D03*
X378650D02*
D03*
X365950D02*
D03*
Y347880D02*
D03*
X378650D02*
D03*
X391350D02*
D03*
X404050D02*
D03*
D39*
X210000Y692000D02*
D03*
D40*
X272500Y715000D02*
D03*
Y669000D02*
D03*
D41*
X562750Y712390D02*
D03*
X582250D02*
D03*
X516916Y563676D02*
D03*
X536416D02*
D03*
X516916Y543676D02*
D03*
X536416D02*
D03*
X525250Y296000D02*
D03*
X544750D02*
D03*
X525250Y315000D02*
D03*
X544750D02*
D03*
D42*
X556666Y668176D02*
D03*
Y635177D02*
D03*
Y535177D02*
D03*
Y568176D02*
D03*
X565000Y283500D02*
D03*
Y316500D02*
D03*
Y417500D02*
D03*
Y384500D02*
D03*
D43*
X576405Y658677D02*
D03*
X606927D02*
D03*
X576405Y636676D02*
D03*
X606927D02*
D03*
X576405Y563676D02*
D03*
X606927D02*
D03*
X576405Y541676D02*
D03*
X606927D02*
D03*
X615261Y412000D02*
D03*
X584739D02*
D03*
X615261Y385000D02*
D03*
X584739D02*
D03*
Y312500D02*
D03*
X615261D02*
D03*
X584739Y290000D02*
D03*
X615261D02*
D03*
D44*
X522546Y620726D02*
D03*
Y608026D02*
D03*
Y595326D02*
D03*
Y582626D02*
D03*
X576786D02*
D03*
Y595326D02*
D03*
Y608026D02*
D03*
Y620726D02*
D03*
X530880Y369050D02*
D03*
Y356350D02*
D03*
Y343650D02*
D03*
Y330950D02*
D03*
X585120D02*
D03*
Y343650D02*
D03*
Y356350D02*
D03*
Y369050D02*
D03*
D45*
X725000Y728000D02*
D03*
Y747000D02*
D03*
D46*
X654000Y676243D02*
D03*
X676000D02*
D03*
D47*
X732700Y682500D02*
D03*
X772300D02*
D03*
X732700Y642500D02*
D03*
X772300D02*
D03*
X732700Y602500D02*
D03*
X772300D02*
D03*
X732700Y562500D02*
D03*
X772300D02*
D03*
D48*
X745500Y320000D02*
D03*
X764500D02*
D03*
D49*
X398000Y700000D02*
D03*
X417000Y709500D02*
D03*
Y690500D02*
D03*
M02*
