G04*
G04 #@! TF.GenerationSoftware,Altium Limited,Altium Designer,20.1.12 (249)*
G04*
G04 Layer_Color=32896*
%FSLAX44Y44*%
%MOMM*%
G71*
G04*
G04 #@! TF.SameCoordinates,85B36F8B-E135-4E31-A215-2F58F684B550*
G04*
G04*
G04 #@! TF.FilePolarity,Positive*
G04*
G01*
G75*
%ADD12C,0.2000*%
%ADD13C,0.1000*%
D12*
X60000Y770000D02*
G03*
X60000Y770000I-30000J0D01*
G01*
Y30000D02*
G03*
X60000Y30000I-30000J0D01*
G01*
X815000Y770000D02*
G03*
X815000Y770000I-30000J0D01*
G01*
Y30000D02*
G03*
X815000Y30000I-30000J0D01*
G01*
X175500Y7000D02*
Y12332D01*
X172834Y14997D01*
X170168Y12332D01*
Y7000D01*
Y10999D01*
X175500D01*
X162171Y14997D02*
X167503D01*
Y7000D01*
X162171D01*
X167503Y10999D02*
X164837D01*
X230500Y32497D02*
Y24500D01*
X227834Y27166D01*
X225168Y24500D01*
Y32497D01*
X222503Y24500D02*
Y32497D01*
X218504D01*
X217171Y31165D01*
Y28499D01*
X218504Y27166D01*
X222503D01*
X214505Y32497D02*
X209174D01*
X211839D01*
Y24500D01*
X198510D02*
Y32497D01*
X194512D01*
X193179Y31165D01*
Y28499D01*
X194512Y27166D01*
X198510D01*
X195844D02*
X193179Y24500D01*
X189180D02*
X186514D01*
X185181Y25833D01*
Y28499D01*
X186514Y29832D01*
X189180D01*
X190513Y28499D01*
Y25833D01*
X189180Y24500D01*
X182516Y29832D02*
Y25833D01*
X181183Y24500D01*
X177184D01*
Y29832D01*
X174518Y24500D02*
Y29832D01*
X170519D01*
X169186Y28499D01*
Y24500D01*
X161189Y32497D02*
Y24500D01*
X165188D01*
X166521Y25833D01*
Y28499D01*
X165188Y29832D01*
X161189D01*
X145194Y24500D02*
X150526D01*
X145194Y29832D01*
Y31165D01*
X146527Y32497D01*
X149193D01*
X150526Y31165D01*
X134531Y32497D02*
X129199D01*
X131865D01*
Y24500D01*
X126534Y32497D02*
X121202Y24500D01*
Y32497D02*
X126534Y24500D01*
X73499Y344500D02*
Y349832D01*
X76164Y347166D02*
X70833D01*
X74832Y352497D02*
X69500Y355163D01*
X74832Y357829D01*
X69500Y364493D02*
Y361828D01*
X70833Y360495D01*
X73499D01*
X74832Y361828D01*
Y364493D01*
X73499Y365826D01*
X72166D01*
Y360495D01*
X76164Y399832D02*
X77497Y398499D01*
Y395833D01*
X76164Y394500D01*
X70833D01*
X69500Y395833D01*
Y398499D01*
X70833Y399832D01*
X73499D01*
Y397166D01*
X69500Y402497D02*
X77497D01*
X69500Y407829D01*
X77497D01*
Y410495D02*
X69500D01*
Y414494D01*
X70833Y415826D01*
X76164D01*
X77497Y414494D01*
Y410495D01*
X37663Y289500D02*
Y292166D01*
Y290833D01*
X29666D01*
Y289500D01*
Y292166D01*
Y296164D02*
X34997D01*
Y300163D01*
X33665Y301496D01*
X29666D01*
X27000Y304162D02*
X34997D01*
Y308161D01*
X33665Y309494D01*
X30999D01*
X29666Y308161D01*
Y304162D01*
X34997Y312159D02*
X30999D01*
X29666Y313492D01*
Y317491D01*
X34997D01*
X36330Y321490D02*
X34997D01*
Y320157D01*
Y322823D01*
Y321490D01*
X30999D01*
X29666Y322823D01*
Y336152D02*
X36330D01*
X33665D01*
Y334819D01*
Y337485D01*
Y336152D01*
X36330D01*
X37663Y337485D01*
X34997Y341483D02*
X29666D01*
X32332D01*
X33665Y342816D01*
X34997Y344149D01*
Y345482D01*
X29666Y350814D02*
Y353479D01*
X30999Y354812D01*
X33665D01*
X34997Y353479D01*
Y350814D01*
X33665Y349481D01*
X30999D01*
X29666Y350814D01*
Y357478D02*
X34997D01*
Y358811D01*
X33665Y360144D01*
X29666D01*
X33665D01*
X34997Y361477D01*
X33665Y362810D01*
X29666D01*
Y373473D02*
X37663D01*
Y377472D01*
X36330Y378805D01*
X33665D01*
X32332Y377472D01*
Y373473D01*
X29666Y382803D02*
Y385469D01*
X30999Y386802D01*
X33665D01*
X34997Y385469D01*
Y382803D01*
X33665Y381470D01*
X30999D01*
X29666Y382803D01*
X34997Y389468D02*
X30999D01*
X29666Y390801D01*
X30999Y392134D01*
X29666Y393466D01*
X30999Y394799D01*
X34997D01*
X29666Y401464D02*
Y398798D01*
X30999Y397465D01*
X33665D01*
X34997Y398798D01*
Y401464D01*
X33665Y402797D01*
X32332D01*
Y397465D01*
X34997Y405463D02*
X29666D01*
X32332D01*
X33665Y406796D01*
X34997Y408128D01*
Y409461D01*
X36330Y426789D02*
X37663Y425456D01*
Y422790D01*
X36330Y421457D01*
X34997D01*
X33665Y422790D01*
Y425456D01*
X32332Y426789D01*
X30999D01*
X29666Y425456D01*
Y422790D01*
X30999Y421457D01*
X29666Y430788D02*
Y433454D01*
X30999Y434786D01*
X33665D01*
X34997Y433454D01*
Y430788D01*
X33665Y429455D01*
X30999D01*
X29666Y430788D01*
X34997Y437452D02*
X30999D01*
X29666Y438785D01*
Y442784D01*
X34997D01*
Y445450D02*
X29666D01*
X32332D01*
X33665Y446783D01*
X34997Y448116D01*
Y449448D01*
Y458779D02*
Y454780D01*
X33665Y453447D01*
X30999D01*
X29666Y454780D01*
Y458779D01*
Y465443D02*
Y462777D01*
X30999Y461445D01*
X33665D01*
X34997Y462777D01*
Y465443D01*
X33665Y466776D01*
X32332D01*
Y461445D01*
X774997Y429500D02*
Y434832D01*
Y432166D01*
X767000D01*
Y438830D02*
Y441496D01*
X768333Y442829D01*
X770999D01*
X772332Y441496D01*
Y438830D01*
X770999Y437497D01*
X768333D01*
X767000Y438830D01*
X774997Y453492D02*
X767000D01*
X769666Y456158D01*
X767000Y458824D01*
X774997D01*
X767000Y461490D02*
X774997D01*
Y465488D01*
X773664Y466821D01*
X770999D01*
X769666Y465488D01*
Y461490D01*
X774997Y469487D02*
Y474819D01*
Y472153D01*
X767000D01*
X773664Y490813D02*
X774997Y489481D01*
Y486815D01*
X773664Y485482D01*
X768333D01*
X767000Y486815D01*
Y489481D01*
X768333Y490813D01*
X767000Y494812D02*
Y497478D01*
X768333Y498811D01*
X770999D01*
X772332Y497478D01*
Y494812D01*
X770999Y493479D01*
X768333D01*
X767000Y494812D01*
Y501477D02*
Y504143D01*
Y502810D01*
X772332D01*
Y501477D01*
X767000Y508141D02*
Y510807D01*
Y509474D01*
X774997D01*
Y508141D01*
D13*
X407055Y698526D02*
X405056D01*
X406055D01*
Y695527D01*
X404056D02*
Y698526D01*
X402557D01*
X402057Y698026D01*
Y697026D01*
X402557Y696526D01*
X404056D01*
X401057Y695527D02*
X400057D01*
X400557D01*
Y698526D01*
X401057Y698026D01*
X396558Y698526D02*
X398558D01*
Y697026D01*
X397558Y697526D01*
X397058D01*
X396558Y697026D01*
Y696027D01*
X397058Y695527D01*
X398058D01*
X398558Y696027D01*
X294924Y747593D02*
X292925D01*
X293924D01*
Y744594D01*
X291925D02*
Y747593D01*
X290425D01*
X289926Y747093D01*
Y746094D01*
X290425Y745594D01*
X291925D01*
X288926Y744594D02*
X287926D01*
X288426D01*
Y747593D01*
X288926Y747093D01*
X284927Y744594D02*
Y747593D01*
X286427Y746094D01*
X284427D01*
X497616Y737687D02*
X495617D01*
X496616D01*
Y734688D01*
X494617D02*
Y737687D01*
X493117D01*
X492618Y737187D01*
Y736188D01*
X493117Y735688D01*
X494617D01*
X491618Y734688D02*
X490618D01*
X491118D01*
Y737687D01*
X491618Y737187D01*
X489119D02*
X488619Y737687D01*
X487619D01*
X487119Y737187D01*
Y736687D01*
X487619Y736188D01*
X488119D01*
X487619D01*
X487119Y735688D01*
Y735188D01*
X487619Y734688D01*
X488619D01*
X489119Y735188D01*
X355122Y512643D02*
X353123D01*
X354122D01*
Y509644D01*
X352123D02*
Y512643D01*
X350624D01*
X350124Y512143D01*
Y511143D01*
X350624Y510644D01*
X352123D01*
X349124Y509644D02*
X348124D01*
X348624D01*
Y512643D01*
X349124Y512143D01*
X344625Y509644D02*
X346625D01*
X344625Y511643D01*
Y512143D01*
X345125Y512643D01*
X346125D01*
X346625Y512143D01*
X245140Y655137D02*
X243141D01*
X244140D01*
Y652138D01*
X242141D02*
Y655137D01*
X240641D01*
X240142Y654637D01*
Y653637D01*
X240641Y653138D01*
X242141D01*
X239142Y652138D02*
X238142D01*
X238642D01*
Y655137D01*
X239142Y654637D01*
X236643Y652138D02*
X235643D01*
X236143D01*
Y655137D01*
X236643Y654637D01*
X482176Y410816D02*
X480176D01*
X481176D01*
Y407817D01*
X479176D02*
Y410816D01*
X477677D01*
X477177Y410316D01*
Y409316D01*
X477677Y408816D01*
X479176D01*
X476177Y407817D02*
X475178D01*
X475678D01*
Y410816D01*
X476177Y410316D01*
X473678D02*
X473178Y410816D01*
X472179D01*
X471679Y410316D01*
Y408317D01*
X472179Y407817D01*
X473178D01*
X473678Y408317D01*
Y410316D01*
X471102Y372555D02*
X469103D01*
X470102D01*
Y369556D01*
X468103D02*
Y372555D01*
X466604D01*
X466104Y372055D01*
Y371055D01*
X466604Y370556D01*
X468103D01*
X465104Y370056D02*
X464604Y369556D01*
X463605D01*
X463105Y370056D01*
Y372055D01*
X463605Y372555D01*
X464604D01*
X465104Y372055D01*
Y371555D01*
X464604Y371055D01*
X463105D01*
X549940Y665043D02*
X547941D01*
X548940D01*
Y662044D01*
X546941D02*
Y665043D01*
X545442D01*
X544942Y664543D01*
Y663543D01*
X545442Y663044D01*
X546941D01*
X543942Y664543D02*
X543442Y665043D01*
X542442D01*
X541943Y664543D01*
Y664043D01*
X542442Y663543D01*
X541943Y663044D01*
Y662544D01*
X542442Y662044D01*
X543442D01*
X543942Y662544D01*
Y663044D01*
X543442Y663543D01*
X543942Y664043D01*
Y664543D01*
X543442Y663543D02*
X542442D01*
X607598Y345003D02*
X605599D01*
X606598D01*
Y342004D01*
X604599D02*
Y345003D01*
X603100D01*
X602600Y344503D01*
Y343503D01*
X603100Y343004D01*
X604599D01*
X601600Y345003D02*
X599601D01*
Y344503D01*
X601600Y342504D01*
Y342004D01*
X620124Y610139D02*
X618125D01*
X619124D01*
Y607140D01*
X617125D02*
Y610139D01*
X615625D01*
X615126Y609639D01*
Y608639D01*
X615625Y608140D01*
X617125D01*
X612127Y610139D02*
X613126Y609639D01*
X614126Y608639D01*
Y607640D01*
X613626Y607140D01*
X612626D01*
X612127Y607640D01*
Y608140D01*
X612626Y608639D01*
X614126D01*
X627410Y362529D02*
X625411D01*
X626410D01*
Y359530D01*
X624411D02*
Y362529D01*
X622911D01*
X622412Y362029D01*
Y361030D01*
X622911Y360530D01*
X624411D01*
X619413Y362529D02*
X621412D01*
Y361030D01*
X620412Y361529D01*
X619912D01*
X619413Y361030D01*
Y360030D01*
X619912Y359530D01*
X620912D01*
X621412Y360030D01*
X547400Y625165D02*
X545401D01*
X546400D01*
Y622166D01*
X544401D02*
Y625165D01*
X542901D01*
X542402Y624665D01*
Y623666D01*
X542901Y623166D01*
X544401D01*
X539902Y622166D02*
Y625165D01*
X541402Y623666D01*
X539403D01*
X557560Y372689D02*
X555561D01*
X556560D01*
Y369690D01*
X554561D02*
Y372689D01*
X553061D01*
X552562Y372189D01*
Y371189D01*
X553061Y370690D01*
X554561D01*
X551562Y372189D02*
X551062Y372689D01*
X550062D01*
X549563Y372189D01*
Y371689D01*
X550062Y371189D01*
X550562D01*
X550062D01*
X549563Y370690D01*
Y370190D01*
X550062Y369690D01*
X551062D01*
X551562Y370190D01*
X571499Y356499D02*
X569499D01*
X570499D01*
Y353501D01*
X568500D02*
Y356499D01*
X567000D01*
X566500Y356000D01*
Y355000D01*
X567000Y354500D01*
X568500D01*
X563501Y353501D02*
X565501D01*
X563501Y355500D01*
Y356000D01*
X564001Y356499D01*
X565001D01*
X565501Y356000D01*
X558499Y608999D02*
X556499D01*
X557499D01*
Y606001D01*
X555500D02*
Y608999D01*
X554000D01*
X553501Y608500D01*
Y607500D01*
X554000Y607000D01*
X555500D01*
X552501Y606001D02*
X551501D01*
X552001D01*
Y608999D01*
X552501Y608500D01*
M02*
