G04*
G04 #@! TF.GenerationSoftware,Altium Limited,Altium Designer,20.1.12 (249)*
G04*
G04 Layer_Color=16711935*
%FSLAX44Y44*%
%MOMM*%
G71*
G04*
G04 #@! TF.SameCoordinates,85B36F8B-E135-4E31-A215-2F58F684B550*
G04*
G04*
G04 #@! TF.FilePolarity,Positive*
G04*
G01*
G75*
%ADD12C,0.2000*%
%ADD13C,0.1000*%
%ADD127C,0.0500*%
D12*
X419500Y721292D02*
X450500D01*
X419500D02*
Y737793D01*
X450500D01*
Y721292D02*
Y737793D01*
X82145Y725595D02*
X107708D01*
Y768658D01*
X82145D02*
X107708D01*
X82145Y725595D02*
Y768658D01*
X274031Y731559D02*
Y757121D01*
X230969D02*
X274031D01*
X230969Y731559D02*
Y757121D01*
Y731559D02*
X274031D01*
X249317Y491750D02*
X280317D01*
X249317D02*
Y508250D01*
X280317D01*
Y491750D02*
Y508250D01*
X393250Y485000D02*
Y516000D01*
X376750Y485000D02*
X393250D01*
X376750D02*
Y516000D01*
X393250D01*
X282318Y372750D02*
X313318D01*
X282318D02*
Y389250D01*
X313318D01*
Y372750D02*
Y389250D01*
X298067Y339500D02*
Y370500D01*
X281567Y339500D02*
X298067D01*
X281567D02*
Y370500D01*
X298067D01*
X316068Y339500D02*
Y370500D01*
X299568Y339500D02*
X316068D01*
X299568D02*
Y370500D01*
X316068D01*
X378250Y447000D02*
Y478000D01*
X361750Y447000D02*
X378250D01*
X361750D02*
Y478000D01*
X378250D01*
X382250Y413000D02*
Y444000D01*
X365750Y413000D02*
X382250D01*
X365750D02*
Y444000D01*
X382250D01*
X418250Y413000D02*
Y444000D01*
X401750Y413000D02*
X418250D01*
X401750D02*
Y444000D01*
X418250D01*
X429500Y391750D02*
X460500D01*
Y375250D02*
Y391750D01*
X429500Y375250D02*
X460500D01*
X429500D02*
Y391750D01*
Y373750D02*
X460500D01*
Y357250D02*
Y373750D01*
X429500Y357250D02*
X460500D01*
X429500D02*
Y373750D01*
X282318Y413750D02*
X313318D01*
X282318D02*
Y430250D01*
X313318D01*
Y413750D02*
Y430250D01*
X282318Y431750D02*
X313318D01*
X282318D02*
Y448250D01*
X313318D01*
Y431750D02*
Y448250D01*
X413469Y584719D02*
Y610281D01*
Y584719D02*
X456531D01*
Y610281D01*
X413469D02*
X456531D01*
X461835Y673688D02*
X487397D01*
Y716750D01*
X461835D02*
X487397D01*
X461835Y673688D02*
Y716750D01*
X132292Y725595D02*
X157854D01*
Y768658D01*
X132292D02*
X157854D01*
X132292Y725595D02*
Y768658D01*
X557000Y738250D02*
X588000D01*
Y721750D02*
Y738250D01*
X557000Y721750D02*
X588000D01*
X557000D02*
Y738250D01*
X551306Y681219D02*
Y706781D01*
Y681219D02*
X594368D01*
Y706781D01*
X551306D02*
X594368D01*
X588885Y575145D02*
X614447D01*
Y618208D01*
X588885D02*
X614447D01*
X588885Y575145D02*
Y618208D01*
X597219Y324469D02*
X622781D01*
Y367531D01*
X597219D02*
X622781D01*
X597219Y324469D02*
Y367531D01*
X628750Y339950D02*
X697250D01*
X628750Y280050D02*
Y339950D01*
Y280050D02*
X697250D01*
Y339950D01*
X628750Y599950D02*
X697250D01*
X628750Y540050D02*
Y599950D01*
Y540050D02*
X697250D01*
Y599950D01*
X628750Y409950D02*
X697250D01*
X628750Y350050D02*
Y409950D01*
Y350050D02*
X697250D01*
Y409950D01*
X628750Y669950D02*
X697250D01*
X628750Y610050D02*
Y669950D01*
Y610050D02*
X697250D01*
Y669950D01*
D13*
X434000Y728543D02*
Y725544D01*
X432501D01*
X432001Y726043D01*
Y727043D01*
X432501Y727543D01*
X434000D01*
X433000D02*
X432001Y728543D01*
X429002D02*
X431001D01*
X429002Y726543D01*
Y726043D01*
X429502Y725544D01*
X430501D01*
X431001Y726043D01*
X428002D02*
X427502Y725544D01*
X426503D01*
X426003Y726043D01*
Y728043D01*
X426503Y728543D01*
X427502D01*
X428002Y728043D01*
Y726043D01*
X91427Y750126D02*
X90927Y749626D01*
Y748626D01*
X91427Y748126D01*
X93427D01*
X93926Y748626D01*
Y749626D01*
X93427Y750126D01*
X93926Y752625D02*
X90927D01*
X92427Y751125D01*
Y753125D01*
X90927Y754124D02*
Y756124D01*
X91427D01*
X93427Y754124D01*
X93926D01*
X249501Y740840D02*
X250001Y740341D01*
X251000D01*
X251500Y740840D01*
Y742840D01*
X251000Y743340D01*
X250001D01*
X249501Y742840D01*
X247002Y743340D02*
Y740341D01*
X248501Y741840D01*
X246502D01*
X245502Y740840D02*
X245002Y740341D01*
X244003D01*
X243503Y740840D01*
Y742840D01*
X244003Y743340D01*
X245002D01*
X245502Y742840D01*
Y740840D01*
X263818Y499000D02*
Y496001D01*
X262318D01*
X261818Y496501D01*
Y497501D01*
X262318Y498000D01*
X263818D01*
X262818D02*
X261818Y499000D01*
X258819D02*
X260819D01*
X258819Y497001D01*
Y496501D01*
X259319Y496001D01*
X260319D01*
X260819Y496501D01*
X255820Y496001D02*
X256820Y496501D01*
X257820Y497501D01*
Y498500D01*
X257320Y499000D01*
X256320D01*
X255820Y498500D01*
Y498000D01*
X256320Y497501D01*
X257820D01*
X386000Y499500D02*
X388999D01*
Y498001D01*
X388499Y497501D01*
X387499D01*
X387000Y498001D01*
Y499500D01*
Y498501D02*
X386000Y497501D01*
Y496501D02*
Y495501D01*
Y496001D01*
X388999D01*
X388499Y496501D01*
Y494002D02*
X388999Y493502D01*
Y492502D01*
X388499Y492003D01*
X387999D01*
X387499Y492502D01*
X387000Y492003D01*
X386500D01*
X386000Y492502D01*
Y493502D01*
X386500Y494002D01*
X387000D01*
X387499Y493502D01*
X387999Y494002D01*
X388499D01*
X387499Y493502D02*
Y492502D01*
X296818Y380000D02*
Y377001D01*
X295318D01*
X294818Y377501D01*
Y378501D01*
X295318Y379000D01*
X296818D01*
X295818D02*
X294818Y380000D01*
X291819D02*
X293819D01*
X291819Y378001D01*
Y377501D01*
X292319Y377001D01*
X293319D01*
X293819Y377501D01*
X290820D02*
X290320Y377001D01*
X289320D01*
X288820Y377501D01*
Y378001D01*
X289320Y378501D01*
X288820Y379000D01*
Y379500D01*
X289320Y380000D01*
X290320D01*
X290820Y379500D01*
Y379000D01*
X290320Y378501D01*
X290820Y378001D01*
Y377501D01*
X290320Y378501D02*
X289320D01*
X290817Y354000D02*
X293817D01*
Y352501D01*
X293317Y352001D01*
X292317D01*
X291817Y352501D01*
Y354000D01*
Y353000D02*
X290817Y352001D01*
Y349002D02*
Y351001D01*
X292817Y349002D01*
X293317D01*
X293817Y349502D01*
Y350501D01*
X293317Y351001D01*
X290817Y348002D02*
Y347002D01*
Y347502D01*
X293817D01*
X293317Y348002D01*
X308817Y354000D02*
X311816D01*
Y352501D01*
X311317Y352001D01*
X310317D01*
X309817Y352501D01*
Y354000D01*
Y353000D02*
X308817Y352001D01*
Y349002D02*
Y351001D01*
X310817Y349002D01*
X311317D01*
X311816Y349502D01*
Y350501D01*
X311317Y351001D01*
Y348002D02*
X311816Y347502D01*
Y346502D01*
X311317Y346003D01*
X310817D01*
X310317Y346502D01*
Y347002D01*
Y346502D01*
X309817Y346003D01*
X309317D01*
X308817Y346502D01*
Y347502D01*
X309317Y348002D01*
X371000Y461500D02*
X373999D01*
Y460001D01*
X373499Y459501D01*
X372499D01*
X372000Y460001D01*
Y461500D01*
Y460500D02*
X371000Y459501D01*
Y458501D02*
Y457501D01*
Y458001D01*
X373999D01*
X373499Y458501D01*
X373999Y456002D02*
Y454002D01*
X373499D01*
X371500Y456002D01*
X371000D01*
X375000Y427500D02*
X377999D01*
Y426001D01*
X377499Y425501D01*
X376499D01*
X376000Y426001D01*
Y427500D01*
Y426500D02*
X375000Y425501D01*
Y424501D02*
Y423501D01*
Y424001D01*
X377999D01*
X377499Y424501D01*
X377999Y420003D02*
X377499Y421002D01*
X376499Y422002D01*
X375500D01*
X375000Y421502D01*
Y420502D01*
X375500Y420003D01*
X376000D01*
X376499Y420502D01*
Y422002D01*
X411000Y427500D02*
X413999D01*
Y426001D01*
X413499Y425501D01*
X412499D01*
X412000Y426001D01*
Y427500D01*
Y426501D02*
X411000Y425501D01*
Y424501D02*
Y423501D01*
Y424001D01*
X413999D01*
X413499Y424501D01*
X411500Y422002D02*
X411000Y421502D01*
Y420502D01*
X411500Y420003D01*
X413499D01*
X413999Y420502D01*
Y421502D01*
X413499Y422002D01*
X412999D01*
X412499Y421502D01*
Y420003D01*
X446000Y384500D02*
Y387499D01*
X447499D01*
X447999Y386999D01*
Y385999D01*
X447499Y385499D01*
X446000D01*
X447000D02*
X447999Y384500D01*
X448999D02*
X449999D01*
X449499D01*
Y387499D01*
X448999Y386999D01*
X453497Y387499D02*
X451498D01*
Y385999D01*
X452498Y386499D01*
X452998D01*
X453497Y385999D01*
Y385000D01*
X452998Y384500D01*
X451998D01*
X451498Y385000D01*
X446000Y366500D02*
Y369499D01*
X447499D01*
X447999Y368999D01*
Y367999D01*
X447499Y367500D01*
X446000D01*
X447000D02*
X447999Y366500D01*
X448999D02*
X449999D01*
X449499D01*
Y369499D01*
X448999Y368999D01*
X452998Y366500D02*
Y369499D01*
X451498Y367999D01*
X453497D01*
X296818Y421000D02*
Y418001D01*
X295318D01*
X294818Y418501D01*
Y419501D01*
X295318Y420000D01*
X296818D01*
X295818D02*
X294818Y421000D01*
X291819D02*
X293819D01*
X291819Y419001D01*
Y418501D01*
X292319Y418001D01*
X293319D01*
X293819Y418501D01*
X290820Y418001D02*
X288820D01*
Y418501D01*
X290820Y420500D01*
Y421000D01*
X296818Y439000D02*
Y436001D01*
X295318D01*
X294818Y436501D01*
Y437501D01*
X295318Y438000D01*
X296818D01*
X295818D02*
X294818Y439000D01*
X291819D02*
X293819D01*
X291819Y437001D01*
Y436501D01*
X292319Y436001D01*
X293319D01*
X293819Y436501D01*
X288820Y439000D02*
X290820D01*
X288820Y437001D01*
Y436501D01*
X289320Y436001D01*
X290320D01*
X290820Y436501D01*
X437999Y600999D02*
X437499Y601499D01*
X436500D01*
X436000Y600999D01*
Y599000D01*
X436500Y598500D01*
X437499D01*
X437999Y599000D01*
X440998Y598500D02*
X438999D01*
X440998Y600499D01*
Y600999D01*
X440498Y601499D01*
X439499D01*
X438999Y600999D01*
X443497Y598500D02*
Y601499D01*
X441998Y599999D01*
X443997D01*
X471117Y698218D02*
X470617Y697718D01*
Y696719D01*
X471117Y696219D01*
X473116D01*
X473616Y696719D01*
Y697718D01*
X473116Y698218D01*
X473616Y700717D02*
X470617D01*
X472117Y699218D01*
Y701217D01*
X473616Y704216D02*
Y702217D01*
X471617Y704216D01*
X471117D01*
X470617Y703716D01*
Y702717D01*
X471117Y702217D01*
X141574Y750126D02*
X141075Y749626D01*
Y748626D01*
X141574Y748126D01*
X143574D01*
X144074Y748626D01*
Y749626D01*
X143574Y750126D01*
X144074Y752625D02*
X141075D01*
X142574Y751125D01*
Y753125D01*
X144074Y755624D02*
X141075D01*
X142574Y754124D01*
Y756124D01*
X573500Y731000D02*
Y733999D01*
X574999D01*
X575499Y733499D01*
Y732499D01*
X574999Y732000D01*
X573500D01*
X574500D02*
X575499Y731000D01*
X576499Y733499D02*
X576999Y733999D01*
X577998D01*
X578498Y733499D01*
Y732999D01*
X577998Y732499D01*
X577499D01*
X577998D01*
X578498Y732000D01*
Y731500D01*
X577998Y731000D01*
X576999D01*
X576499Y731500D01*
X579498Y731000D02*
X580498D01*
X579998D01*
Y733999D01*
X579498Y733499D01*
X575836Y697499D02*
X575337Y697999D01*
X574337D01*
X573837Y697499D01*
Y695500D01*
X574337Y695000D01*
X575337D01*
X575836Y695500D01*
X578336Y695000D02*
Y697999D01*
X576836Y696499D01*
X578835D01*
X581834Y697999D02*
X579835D01*
Y696499D01*
X580835Y696999D01*
X581335D01*
X581834Y696499D01*
Y695500D01*
X581335Y695000D01*
X580335D01*
X579835Y695500D01*
X590666Y657677D02*
Y654678D01*
X589167D01*
X588667Y655177D01*
Y656177D01*
X589167Y656677D01*
X590666D01*
X589667D02*
X588667Y657677D01*
X587667D02*
X586668D01*
X587168D01*
Y654678D01*
X587667Y655177D01*
X585168Y657677D02*
X584169D01*
X584668D01*
Y654678D01*
X585168Y655177D01*
X590666Y635677D02*
Y632677D01*
X589167D01*
X588667Y633177D01*
Y634177D01*
X589167Y634677D01*
X590666D01*
X589667D02*
X588667Y635677D01*
X587667D02*
X586668D01*
X587168D01*
Y632677D01*
X587667Y633177D01*
X585168D02*
X584668Y632677D01*
X583669D01*
X583169Y633177D01*
Y633677D01*
X583669Y634177D01*
X584169D01*
X583669D01*
X583169Y634677D01*
Y635177D01*
X583669Y635677D01*
X584668D01*
X585168Y635177D01*
X598167Y599676D02*
X597667Y599176D01*
Y598176D01*
X598167Y597676D01*
X600167D01*
X600666Y598176D01*
Y599176D01*
X600167Y599676D01*
X600666Y600675D02*
Y601675D01*
Y601175D01*
X597667D01*
X598167Y600675D01*
X600666Y605174D02*
Y603175D01*
X598667Y605174D01*
X598167D01*
X597667Y604674D01*
Y603674D01*
X598167Y603175D01*
X590666Y562677D02*
Y559678D01*
X589167D01*
X588667Y560177D01*
Y561177D01*
X589167Y561677D01*
X590666D01*
X589667D02*
X588667Y562677D01*
X585668Y559678D02*
X587667D01*
Y561177D01*
X586668Y560677D01*
X586168D01*
X585668Y561177D01*
Y562177D01*
X586168Y562677D01*
X587168D01*
X587667Y562177D01*
X590666Y540676D02*
Y537677D01*
X589167D01*
X588667Y538177D01*
Y539177D01*
X589167Y539677D01*
X590666D01*
X589667D02*
X588667Y540676D01*
X587667Y538177D02*
X587168Y537677D01*
X586168D01*
X585668Y538177D01*
Y538677D01*
X586168Y539177D01*
X586668D01*
X586168D01*
X585668Y539677D01*
Y540177D01*
X586168Y540676D01*
X587168D01*
X587667Y540177D01*
X601000Y413000D02*
Y415999D01*
X602499D01*
X602999Y415499D01*
Y414499D01*
X602499Y414000D01*
X601000D01*
X602000D02*
X602999Y413000D01*
X603999D02*
X604999D01*
X604499D01*
Y415999D01*
X603999Y415499D01*
X608498Y413000D02*
X606498D01*
X608498Y414999D01*
Y415499D01*
X607998Y415999D01*
X606998D01*
X606498Y415499D01*
X601000Y386000D02*
Y388999D01*
X602499D01*
X602999Y388499D01*
Y387499D01*
X602499Y387000D01*
X601000D01*
X602000D02*
X602999Y386000D01*
X603999D02*
X604999D01*
X604499D01*
Y388999D01*
X603999Y388499D01*
X606498D02*
X606998Y388999D01*
X607998D01*
X608498Y388499D01*
Y386500D01*
X607998Y386000D01*
X606998D01*
X606498Y386500D01*
Y388499D01*
X606501Y348999D02*
X606001Y348499D01*
Y347500D01*
X606501Y347000D01*
X608500D01*
X609000Y347500D01*
Y348499D01*
X608500Y348999D01*
X609000Y351998D02*
Y349999D01*
X607001Y351998D01*
X606501D01*
X606001Y351498D01*
Y350499D01*
X606501Y349999D01*
X599000Y311500D02*
Y308501D01*
X597501D01*
X597001Y309001D01*
Y310001D01*
X597501Y310500D01*
X599000D01*
X598000D02*
X597001Y311500D01*
X594502D02*
Y308501D01*
X596001Y310001D01*
X594002D01*
X599000Y289000D02*
Y286001D01*
X597501D01*
X597001Y286501D01*
Y287500D01*
X597501Y288000D01*
X599000D01*
X598000D02*
X597001Y289000D01*
X594002D02*
X596001D01*
X594002Y287001D01*
Y286501D01*
X594502Y286001D01*
X595501D01*
X596001Y286501D01*
X664000Y309000D02*
X666999D01*
X665999Y308000D01*
X666999Y307001D01*
X664000D01*
Y304002D02*
Y306001D01*
X665999Y304002D01*
X666499D01*
X666999Y304501D01*
Y305501D01*
X666499Y306001D01*
X664000Y569000D02*
X666999D01*
X665999Y568000D01*
X666999Y567001D01*
X664000D01*
Y566001D02*
Y565001D01*
Y565501D01*
X666999D01*
X666499Y566001D01*
X664000Y379000D02*
X666999D01*
X665999Y378000D01*
X666999Y377001D01*
X664000D01*
Y374502D02*
X666999D01*
X665499Y376001D01*
Y374002D01*
X664000Y639000D02*
X666999D01*
X665999Y638000D01*
X666999Y637001D01*
X664000D01*
X666499Y636001D02*
X666999Y635501D01*
Y634502D01*
X666499Y634002D01*
X665999D01*
X665499Y634502D01*
Y635001D01*
Y634502D01*
X665000Y634002D01*
X664500D01*
X664000Y634502D01*
Y635501D01*
X664500Y636001D01*
D127*
X567666Y669677D02*
X615666D01*
Y647676D02*
Y669677D01*
X567666Y647676D02*
Y669677D01*
Y647676D02*
X615666D01*
X567666D02*
X615666D01*
Y625676D02*
Y647676D01*
X567666Y625676D02*
Y647676D01*
Y625676D02*
X615666D01*
X567666Y574676D02*
X615666D01*
Y552676D02*
Y574676D01*
X567666Y552676D02*
Y574676D01*
Y552676D02*
X615666D01*
X567666Y552677D02*
X615666D01*
Y530676D02*
Y552677D01*
X567666Y530676D02*
Y552677D01*
Y530676D02*
X615666D01*
X576000Y401000D02*
X624000D01*
X576000D02*
Y423000D01*
X624000Y401000D02*
Y423000D01*
X576000D02*
X624000D01*
X576000Y374000D02*
X624000D01*
X576000D02*
Y396000D01*
X624000Y374000D02*
Y396000D01*
X576000D02*
X624000D01*
X576000Y323500D02*
X624000D01*
Y301500D02*
Y323500D01*
X576000Y301500D02*
Y323500D01*
Y301500D02*
X624000D01*
X576000Y301000D02*
X624000D01*
Y279000D02*
Y301000D01*
X576000Y279000D02*
Y301000D01*
Y279000D02*
X624000D01*
M02*
