G04*
G04 #@! TF.GenerationSoftware,Altium Limited,Altium Designer,20.1.12 (249)*
G04*
G04 Layer_Color=8388736*
%FSLAX44Y44*%
%MOMM*%
G71*
G04*
G04 #@! TF.SameCoordinates,85B36F8B-E135-4E31-A215-2F58F684B550*
G04*
G04*
G04 #@! TF.FilePolarity,Negative*
G04*
G01*
G75*
%ADD22R,0.9500X1.4500*%
%ADD23R,1.5562X0.9562*%
%ADD25R,0.9562X1.5562*%
%ADD30R,1.4500X0.9500*%
%ADD43R,1.3561X1.8582*%
%ADD50R,1.4032X1.8032*%
%ADD51R,1.4032X8.9032*%
%ADD52R,1.4532X0.9532*%
%ADD53R,1.5932X1.1632*%
%ADD54R,8.7432X5.5532*%
%ADD55R,3.2632X1.0932*%
%ADD56R,3.0232X1.6332*%
%ADD57R,1.4032X1.3032*%
%ADD58R,1.7532X1.5532*%
%ADD59R,1.9032X1.2032*%
%ADD60R,1.1632X1.5932*%
%ADD61R,3.5032X2.0032*%
%ADD62R,1.3032X0.8032*%
%ADD63R,1.9832X0.9132*%
%ADD64R,1.5032X3.6032*%
%ADD65R,0.8532X1.7282*%
%ADD66R,7.2032X7.2032*%
%ADD67R,2.7032X1.7032*%
%ADD68R,1.5532X1.7532*%
%ADD69R,0.9532X1.4532*%
%ADD70R,1.7282X0.8532*%
%ADD71R,0.8500X0.5000*%
%ADD72R,1.5032X1.1032*%
%ADD73R,0.9532X1.6532*%
%ADD74R,1.4532X3.7232*%
%ADD75R,1.1032X1.5032*%
%ADD76R,1.7032X0.8032*%
%ADD77C,2.0782*%
%ADD78R,2.0782X2.0782*%
%ADD79R,2.6032X2.6032*%
%ADD80C,2.6032*%
%ADD81C,0.2000*%
%ADD82R,1.4032X1.4032*%
%ADD83C,1.4032*%
G04:AMPARAMS|DCode=84|XSize=1.6032mm|YSize=1.6032mm|CornerRadius=0.4516mm|HoleSize=0mm|Usage=FLASHONLY|Rotation=0.000|XOffset=0mm|YOffset=0mm|HoleType=Round|Shape=RoundedRectangle|*
%AMROUNDEDRECTD84*
21,1,1.6032,0.7000,0,0,0.0*
21,1,0.7000,1.6032,0,0,0.0*
1,1,0.9032,0.3500,-0.3500*
1,1,0.9032,-0.3500,-0.3500*
1,1,0.9032,-0.3500,0.3500*
1,1,0.9032,0.3500,0.3500*
%
%ADD84ROUNDEDRECTD84*%
%ADD85C,1.6032*%
%ADD86R,2.1532X2.1532*%
%ADD87C,2.1532*%
%ADD88C,1.8532*%
%ADD89R,1.4032X1.4032*%
%ADD90C,0.7016*%
%ADD91C,1.1016*%
%ADD92C,0.7000*%
%ADD93C,0.8032*%
G36*
X696250Y332050D02*
X650750D01*
Y287950D01*
X696250D01*
Y293950D01*
X688250D01*
Y300650D01*
X696250D01*
Y306650D01*
X688250D01*
Y313350D01*
X696250D01*
Y319350D01*
X688250D01*
Y326050D01*
X696250D01*
Y332050D01*
D02*
G37*
G36*
Y402050D02*
X650750D01*
Y357950D01*
X696250D01*
Y363950D01*
X688250D01*
Y370650D01*
X696250D01*
Y376650D01*
X688250D01*
Y383350D01*
X696250D01*
Y389350D01*
X688250D01*
Y396050D01*
X696250D01*
Y402050D01*
D02*
G37*
G36*
Y592050D02*
X650750D01*
Y547950D01*
X696250D01*
Y553950D01*
X688250D01*
Y560650D01*
X696250D01*
Y566650D01*
X688250D01*
Y573350D01*
X696250D01*
Y579350D01*
X688250D01*
Y586050D01*
X696250D01*
Y592050D01*
D02*
G37*
G36*
Y662050D02*
X650750D01*
Y617950D01*
X696250D01*
Y623950D01*
X688250D01*
Y630650D01*
X696250D01*
Y636650D01*
X688250D01*
Y643350D01*
X696250D01*
Y649350D01*
X688250D01*
Y656050D01*
X696250D01*
Y662050D01*
D02*
G37*
D22*
X444750Y729542D02*
D03*
X425250D02*
D03*
X274568Y500000D02*
D03*
X255068D02*
D03*
X307568Y381000D02*
D03*
X288067D02*
D03*
X435250Y383500D02*
D03*
X454750D02*
D03*
X435250Y365500D02*
D03*
X454750D02*
D03*
X307568Y422000D02*
D03*
X288067D02*
D03*
X307568Y440000D02*
D03*
X288067D02*
D03*
X562750Y730000D02*
D03*
X582250D02*
D03*
D23*
X94926Y758876D02*
D03*
Y735377D02*
D03*
X474616Y706969D02*
D03*
Y683469D02*
D03*
X145073Y758876D02*
D03*
Y735377D02*
D03*
X601666Y608427D02*
D03*
Y584926D02*
D03*
X610000Y357750D02*
D03*
Y334250D02*
D03*
D25*
X240750Y744340D02*
D03*
X264250D02*
D03*
X446750Y597500D02*
D03*
X423250D02*
D03*
X584587Y694000D02*
D03*
X561087D02*
D03*
D30*
X385000Y510250D02*
D03*
Y490750D02*
D03*
X289818Y364750D02*
D03*
Y345250D02*
D03*
X307817Y364750D02*
D03*
Y345250D02*
D03*
X370000Y472250D02*
D03*
Y452750D02*
D03*
X374000Y438250D02*
D03*
Y418750D02*
D03*
X410000Y438250D02*
D03*
Y418750D02*
D03*
D43*
X576405Y658677D02*
D03*
X606927D02*
D03*
X576405Y636676D02*
D03*
X606927D02*
D03*
X576405Y563676D02*
D03*
X606927D02*
D03*
X576405Y541676D02*
D03*
X606927D02*
D03*
X615261Y412000D02*
D03*
X584739D02*
D03*
X615261Y385000D02*
D03*
X584739D02*
D03*
Y312500D02*
D03*
X615261D02*
D03*
X584739Y290000D02*
D03*
X615261D02*
D03*
D50*
X478000Y251250D02*
D03*
X522000D02*
D03*
D51*
Y188750D02*
D03*
X478000D02*
D03*
D52*
X505166Y636676D02*
D03*
X538166D02*
D03*
X513500Y386000D02*
D03*
X546500D02*
D03*
D53*
X120000Y763100D02*
D03*
Y746900D02*
D03*
X392000Y419400D02*
D03*
Y435600D02*
D03*
X420000Y382600D02*
D03*
Y366400D02*
D03*
X501666Y604776D02*
D03*
Y588576D02*
D03*
X505000Y360100D02*
D03*
Y343900D02*
D03*
D54*
X184767Y393000D02*
D03*
D55*
X257817Y431100D02*
D03*
Y418400D02*
D03*
Y405700D02*
D03*
Y393000D02*
D03*
Y380300D02*
D03*
Y367600D02*
D03*
Y354900D02*
D03*
D56*
X150000Y455100D02*
D03*
Y480900D02*
D03*
X182000Y455100D02*
D03*
Y480900D02*
D03*
X213500Y455100D02*
D03*
Y480900D02*
D03*
X147000Y303100D02*
D03*
Y328900D02*
D03*
X178818Y303100D02*
D03*
Y328900D02*
D03*
X252817D02*
D03*
Y303100D02*
D03*
X284100Y328900D02*
D03*
Y303100D02*
D03*
X245000Y455100D02*
D03*
Y480900D02*
D03*
D57*
X290818Y473500D02*
D03*
Y494500D02*
D03*
D58*
X440443Y449707D02*
D03*
Y469207D02*
D03*
X445042Y639207D02*
D03*
Y658708D02*
D03*
Y685250D02*
D03*
Y704750D02*
D03*
X504190Y685250D02*
D03*
Y704750D02*
D03*
D59*
X306766Y612993D02*
D03*
Y647992D02*
D03*
D60*
X302656Y667992D02*
D03*
X318856D02*
D03*
X418100Y509500D02*
D03*
X401900D02*
D03*
Y492500D02*
D03*
X418100D02*
D03*
X435100Y400500D02*
D03*
X418900D02*
D03*
X403100Y329500D02*
D03*
X386900D02*
D03*
X435100Y347500D02*
D03*
X418900D02*
D03*
X448100Y492500D02*
D03*
X431900D02*
D03*
X305917Y405000D02*
D03*
X289718D02*
D03*
X305917Y456500D02*
D03*
X289718D02*
D03*
X406500Y668207D02*
D03*
X422700D02*
D03*
D61*
X271814Y620691D02*
D03*
X227814D02*
D03*
D62*
X415000Y472000D02*
D03*
Y453000D02*
D03*
X391000D02*
D03*
Y462500D02*
D03*
Y472000D02*
D03*
D63*
X271817Y482400D02*
D03*
Y451600D02*
D03*
D64*
X205317Y315000D02*
D03*
X226318D02*
D03*
D65*
X404050Y402120D02*
D03*
X391350D02*
D03*
X378650D02*
D03*
X365950D02*
D03*
Y347880D02*
D03*
X378650D02*
D03*
X391350D02*
D03*
X404050D02*
D03*
D66*
X210000Y692000D02*
D03*
D67*
X272500Y715000D02*
D03*
Y669000D02*
D03*
D68*
X562750Y712390D02*
D03*
X582250D02*
D03*
X516916Y563676D02*
D03*
X536416D02*
D03*
X516916Y543676D02*
D03*
X536416D02*
D03*
X525250Y296000D02*
D03*
X544750D02*
D03*
X525250Y315000D02*
D03*
X544750D02*
D03*
D69*
X556666Y668176D02*
D03*
Y635177D02*
D03*
Y535177D02*
D03*
Y568176D02*
D03*
X565000Y283500D02*
D03*
Y316500D02*
D03*
Y417500D02*
D03*
Y384500D02*
D03*
D70*
X522546Y620726D02*
D03*
Y608026D02*
D03*
Y595326D02*
D03*
Y582626D02*
D03*
X576786D02*
D03*
Y595326D02*
D03*
Y608026D02*
D03*
Y620726D02*
D03*
X530880Y369050D02*
D03*
Y356350D02*
D03*
Y343650D02*
D03*
Y330950D02*
D03*
X585120D02*
D03*
Y343650D02*
D03*
Y356350D02*
D03*
Y369050D02*
D03*
D71*
X634000Y290950D02*
D03*
Y303650D02*
D03*
Y316350D02*
D03*
Y329050D02*
D03*
Y550950D02*
D03*
Y563650D02*
D03*
Y576350D02*
D03*
Y589050D02*
D03*
Y360950D02*
D03*
Y373650D02*
D03*
Y386350D02*
D03*
Y399050D02*
D03*
Y620950D02*
D03*
Y633650D02*
D03*
Y646350D02*
D03*
Y659050D02*
D03*
D72*
X725000Y728000D02*
D03*
Y747000D02*
D03*
D73*
X654000Y676243D02*
D03*
X676000D02*
D03*
D74*
X732700Y682500D02*
D03*
X772300D02*
D03*
X732700Y642500D02*
D03*
X772300D02*
D03*
X732700Y602500D02*
D03*
X772300D02*
D03*
X732700Y562500D02*
D03*
X772300D02*
D03*
D75*
X745500Y320000D02*
D03*
X764500D02*
D03*
D76*
X398000Y700000D02*
D03*
X417000Y709500D02*
D03*
Y690500D02*
D03*
D77*
X76600Y788000D02*
D03*
X102000D02*
D03*
X127400D02*
D03*
X152800D02*
D03*
X178200D02*
D03*
X203600D02*
D03*
X229000D02*
D03*
X254400D02*
D03*
X279800D02*
D03*
X305200D02*
D03*
X330600D02*
D03*
X356000D02*
D03*
X381400D02*
D03*
X406800D02*
D03*
X432200D02*
D03*
X457600D02*
D03*
X76600Y560000D02*
D03*
X102000D02*
D03*
X127400D02*
D03*
X152800D02*
D03*
X178200D02*
D03*
X203600D02*
D03*
X229000D02*
D03*
X254400D02*
D03*
X279800D02*
D03*
X305200D02*
D03*
X330600D02*
D03*
X356000D02*
D03*
X381400D02*
D03*
X406800D02*
D03*
X432200D02*
D03*
X457600D02*
D03*
D78*
X483000Y788000D02*
D03*
Y560000D02*
D03*
D79*
X723043Y444600D02*
D03*
X102500Y405400D02*
D03*
D80*
X723043Y495400D02*
D03*
X102500Y354600D02*
D03*
D81*
X30000Y770000D02*
D03*
Y30000D02*
D03*
X785000Y770000D02*
D03*
Y30000D02*
D03*
D82*
X635000Y200000D02*
D03*
D83*
X585000D02*
D03*
X680000Y45000D02*
D03*
X540000D02*
D03*
X418000Y30000D02*
D03*
X750000Y220000D02*
D03*
D84*
X677661Y743785D02*
D03*
D85*
X627661D02*
D03*
D86*
X116000Y190000D02*
D03*
D87*
Y90000D02*
D03*
X236000D02*
D03*
Y190000D02*
D03*
D88*
X40000Y239042D02*
D03*
Y89043D02*
D03*
X320000Y170000D02*
D03*
Y20000D02*
D03*
D89*
X680000Y95000D02*
D03*
X540000D02*
D03*
X418000Y80000D02*
D03*
X750000Y170000D02*
D03*
D90*
X810000Y357500D02*
D03*
X812500Y732500D02*
D03*
X17500Y657500D02*
D03*
X337500Y602500D02*
D03*
Y632500D02*
D03*
Y700000D02*
D03*
X507499Y617499D02*
D03*
X545000Y592500D02*
D03*
Y650000D02*
D03*
X466012Y357500D02*
D03*
X615000Y595000D02*
D03*
X622500Y347500D02*
D03*
X555000Y337500D02*
D03*
X425000Y462500D02*
D03*
Y330000D02*
D03*
X640000Y427500D02*
D03*
X630000D02*
D03*
X545000Y697500D02*
D03*
Y715000D02*
D03*
X395000Y667500D02*
D03*
X765000Y302500D02*
D03*
X480000Y385000D02*
D03*
X725000Y770000D02*
D03*
X562500Y587500D02*
D03*
X502500Y537500D02*
D03*
X227500Y640000D02*
D03*
X215000D02*
D03*
X172500Y752500D02*
D03*
X347500Y757500D02*
D03*
X395000D02*
D03*
X470000Y540000D02*
D03*
X477500Y587500D02*
D03*
X305000Y743700D02*
D03*
X322500Y749970D02*
D03*
X505000Y722500D02*
D03*
X95000D02*
D03*
X129581Y739278D02*
D03*
X222500Y677500D02*
D03*
X200000D02*
D03*
X222500Y705000D02*
D03*
X200000D02*
D03*
X232500Y667500D02*
D03*
X210000D02*
D03*
X190000D02*
D03*
X232500Y690000D02*
D03*
X210000D02*
D03*
X190000D02*
D03*
X232500Y717500D02*
D03*
X210000D02*
D03*
X190000D02*
D03*
X260000Y647500D02*
D03*
X307500Y277500D02*
D03*
X295000D02*
D03*
X280000D02*
D03*
X265000D02*
D03*
X250000D02*
D03*
X307500Y295000D02*
D03*
Y310000D02*
D03*
X602500Y427500D02*
D03*
X562500Y370000D02*
D03*
X570000Y342500D02*
D03*
X502500Y301063D02*
D03*
X495000Y330000D02*
D03*
Y315000D02*
D03*
X427230Y415270D02*
D03*
X430000Y517500D02*
D03*
X437500Y507500D02*
D03*
X372750Y329750D02*
D03*
X502515Y367197D02*
D03*
X517500Y367500D02*
D03*
X390000Y385000D02*
D03*
X430000Y625000D02*
D03*
X475000Y665000D02*
D03*
X377500Y700000D02*
D03*
X480000Y600000D02*
D03*
X495000Y620000D02*
D03*
X305000Y757500D02*
D03*
Y732500D02*
D03*
X330000Y667500D02*
D03*
X292500Y760000D02*
D03*
X277500D02*
D03*
X260000D02*
D03*
X305000Y700000D02*
D03*
Y710000D02*
D03*
Y720000D02*
D03*
X245000Y505000D02*
D03*
X230000D02*
D03*
X212500D02*
D03*
X195000D02*
D03*
X177500D02*
D03*
X160000D02*
D03*
X145000D02*
D03*
X402500Y465000D02*
D03*
X527500Y690000D02*
D03*
X595000Y715000D02*
D03*
X640000Y669433D02*
D03*
X627500Y372500D02*
D03*
X640000Y412500D02*
D03*
X630000D02*
D03*
X622500Y637500D02*
D03*
Y652500D02*
D03*
X627500Y675000D02*
D03*
X742500Y332500D02*
D03*
X732500D02*
D03*
X720000D02*
D03*
X707500D02*
D03*
X742500Y282500D02*
D03*
X732500D02*
D03*
X720000D02*
D03*
X710000D02*
D03*
X692500Y755000D02*
D03*
X660000D02*
D03*
X692500Y722500D02*
D03*
X675000D02*
D03*
X660000D02*
D03*
X672500Y222500D02*
D03*
Y235000D02*
D03*
Y247500D02*
D03*
X702500Y585000D02*
D03*
Y570000D02*
D03*
Y555000D02*
D03*
X655000Y537500D02*
D03*
X670000D02*
D03*
X685000D02*
D03*
X700000Y540000D02*
D03*
X697500Y600000D02*
D03*
X655000Y310000D02*
D03*
Y292000D02*
D03*
X664000D02*
D03*
X673000D02*
D03*
X682000D02*
D03*
Y301000D02*
D03*
X673000D02*
D03*
X664000D02*
D03*
Y310000D02*
D03*
X673000D02*
D03*
X682000D02*
D03*
Y319000D02*
D03*
X673000D02*
D03*
X664000D02*
D03*
Y328000D02*
D03*
X673000D02*
D03*
X682000D02*
D03*
X655000Y301000D02*
D03*
Y570000D02*
D03*
Y552000D02*
D03*
X664000D02*
D03*
X673000D02*
D03*
X682000D02*
D03*
Y561000D02*
D03*
X673000D02*
D03*
X664000D02*
D03*
Y570000D02*
D03*
X673000D02*
D03*
X682000D02*
D03*
Y579000D02*
D03*
X673000D02*
D03*
X664000D02*
D03*
Y588000D02*
D03*
X673000D02*
D03*
X682000D02*
D03*
X655000Y561000D02*
D03*
Y380000D02*
D03*
Y362000D02*
D03*
X664000D02*
D03*
X673000D02*
D03*
X682000D02*
D03*
Y371000D02*
D03*
X673000D02*
D03*
X664000D02*
D03*
Y380000D02*
D03*
X673000D02*
D03*
X682000D02*
D03*
Y389000D02*
D03*
X673000D02*
D03*
X664000D02*
D03*
Y398000D02*
D03*
X673000D02*
D03*
X682000D02*
D03*
X655000Y371000D02*
D03*
Y640000D02*
D03*
Y622000D02*
D03*
X664000D02*
D03*
X673000D02*
D03*
X682000D02*
D03*
Y631000D02*
D03*
X673000D02*
D03*
X664000D02*
D03*
Y640000D02*
D03*
X673000D02*
D03*
X682000D02*
D03*
Y649000D02*
D03*
X673000D02*
D03*
X664000D02*
D03*
Y658000D02*
D03*
X673000D02*
D03*
X682000D02*
D03*
X655000Y631000D02*
D03*
D91*
X334598Y502098D02*
D03*
X305000Y595000D02*
D03*
X167500Y592500D02*
D03*
X500000Y520000D02*
D03*
D92*
X655000Y328000D02*
D03*
Y588000D02*
D03*
Y398000D02*
D03*
Y658000D02*
D03*
D93*
Y319000D02*
D03*
Y579000D02*
D03*
Y389000D02*
D03*
Y649000D02*
D03*
M02*
