G04*
G04 #@! TF.GenerationSoftware,Altium Limited,Altium Designer,20.1.12 (249)*
G04*
G04 Layer_Color=65535*
%FSLAX44Y44*%
%MOMM*%
G71*
G04*
G04 #@! TF.SameCoordinates,85B36F8B-E135-4E31-A215-2F58F684B550*
G04*
G04*
G04 #@! TF.FilePolarity,Positive*
G04*
G01*
G75*
%ADD10C,0.6000*%
%ADD11C,0.2500*%
%ADD12C,0.2000*%
%ADD13C,0.1000*%
%ADD14C,0.3000*%
D10*
X234792Y350500D02*
G03*
X234792Y350500I-3000J0D01*
G01*
D11*
X283792Y355500D02*
G03*
X283792Y355500I-1250J0D01*
G01*
X392250Y480500D02*
G03*
X392250Y480500I-1250J0D01*
G01*
X625000Y329050D02*
G03*
X625000Y329050I-1250J0D01*
G01*
Y589050D02*
G03*
X625000Y589050I-1250J0D01*
G01*
Y399050D02*
G03*
X625000Y399050I-1250J0D01*
G01*
Y659050D02*
G03*
X625000Y659050I-1250J0D01*
G01*
X418250Y682000D02*
G03*
X418250Y682000I-1250J0D01*
G01*
D12*
X305766Y602492D02*
G03*
X307766Y602492I1000J0D01*
G01*
D02*
G03*
X305766Y602492I-1000J0D01*
G01*
X290340Y669120D02*
G03*
X290340Y669120I-890J0D01*
G01*
X58000Y770000D02*
G03*
X58000Y770000I-28000J0D01*
G01*
X675000Y200000D02*
G03*
X675000Y200000I-65000J0D01*
G01*
X705161Y743785D02*
G03*
X705161Y743785I-52500J0D01*
G01*
X58000Y30000D02*
G03*
X58000Y30000I-28000J0D01*
G01*
X745000Y70000D02*
G03*
X745000Y70000I-65000J0D01*
G01*
X605000D02*
G03*
X605000Y70000I-65000J0D01*
G01*
X468000Y55000D02*
G03*
X468000Y55000I-50000J0D01*
G01*
X815000Y195000D02*
G03*
X815000Y195000I-65000J0D01*
G01*
X813000Y770000D02*
G03*
X813000Y770000I-28000J0D01*
G01*
Y30000D02*
G03*
X813000Y30000I-28000J0D01*
G01*
X495700Y774950D02*
Y788000D01*
X63550Y774950D02*
X495700D01*
X63550D02*
Y800700D01*
X483000D01*
X703043Y530800D02*
X823043D01*
Y409200D02*
Y530800D01*
X703043Y409200D02*
X823043D01*
X703043D02*
Y530800D01*
X508166Y644426D02*
X535166D01*
X508166Y628927D02*
X544416D01*
X433750Y722542D02*
X436250D01*
X433750Y736543D02*
X436250D01*
X87145Y743158D02*
Y751095D01*
X102707Y743158D02*
Y751095D01*
X248531Y736559D02*
X256469D01*
X248531Y752121D02*
X256469D01*
X128293Y445050D02*
X258792D01*
X128293Y341000D02*
X258792D01*
Y345500D01*
Y440500D02*
Y445050D01*
X128293Y341000D02*
Y445050D01*
X138500Y468000D02*
X161500D01*
X170500D02*
X193500D01*
X202000D02*
X225000D01*
X263568Y493000D02*
X266068D01*
X263568Y507000D02*
X266068D01*
X285818Y485500D02*
X295818D01*
X285818Y482500D02*
Y485500D01*
X295818Y482500D02*
Y485500D01*
X516500Y393750D02*
X543500D01*
X516500Y378250D02*
X552750D01*
X392000Y499250D02*
Y501750D01*
X378000Y499250D02*
Y501750D01*
X2500Y319200D02*
X122500D01*
X2500D02*
Y440800D01*
X122500D01*
Y319200D02*
Y440800D01*
X223314Y594191D02*
X288314D01*
X223314Y647191D02*
X263064D01*
X296567Y374000D02*
X299068D01*
X296567Y388000D02*
X299068D01*
X296817Y353750D02*
Y356250D01*
X282817Y353750D02*
Y356250D01*
X314818Y353750D02*
Y356250D01*
X300818Y353750D02*
Y356250D01*
X377000Y461250D02*
Y463750D01*
X363000Y461250D02*
Y463750D01*
X405500Y447500D02*
Y477500D01*
X400500Y447500D02*
Y477500D01*
Y447500D02*
X405500D01*
X400500Y477500D02*
X405500D01*
X264818Y467000D02*
X278818D01*
X135500Y316000D02*
X158500D01*
X167318D02*
X190317D01*
X196817Y334000D02*
X234818D01*
X196817Y296000D02*
Y334000D01*
Y296000D02*
X234818D01*
Y334000D01*
X241318Y316000D02*
X264317D01*
X272600D02*
X295600D01*
X381000Y427250D02*
Y429750D01*
X367000Y427250D02*
Y429750D01*
X417000Y427250D02*
Y429750D01*
X403000Y427250D02*
Y429750D01*
X443750Y390500D02*
X446250D01*
X443750Y376500D02*
X446250D01*
X409500Y359000D02*
Y391000D01*
X360500Y359000D02*
X409500D01*
X360500D02*
Y391000D01*
X409500D01*
X410800Y394500D02*
Y409750D01*
X443750Y372500D02*
X446250D01*
X443750Y358500D02*
X446250D01*
X296567Y415000D02*
X299068D01*
X296567Y429000D02*
X299068D01*
X296567Y433000D02*
X299068D01*
X296567Y447000D02*
X299068D01*
X233500Y468000D02*
X256500D01*
X249000Y659500D02*
Y724500D01*
X495700Y546950D02*
Y560000D01*
X63550Y546950D02*
X495700D01*
X63550D02*
Y572700D01*
X483000D01*
X431031Y605281D02*
X438969D01*
X431031Y589719D02*
X438969D01*
X466835Y691250D02*
Y699188D01*
X482397Y691250D02*
Y699188D01*
X137292Y743158D02*
Y751095D01*
X152854Y743158D02*
Y751095D01*
X571250Y737000D02*
X573750D01*
X571250Y723000D02*
X573750D01*
X568868Y701781D02*
X576806D01*
X568868Y686219D02*
X576806D01*
X564416Y638176D02*
Y665176D01*
X548916Y628927D02*
Y665176D01*
X586936Y666676D02*
X596397D01*
X586936Y650676D02*
X596397D01*
X586936Y644677D02*
X596397D01*
X586936Y628676D02*
X596397D01*
X593885Y592707D02*
Y600645D01*
X609447Y592707D02*
Y600645D01*
X586936Y571676D02*
X596397D01*
X586936Y555676D02*
X596397D01*
X586936Y549677D02*
X596397D01*
X586936Y533676D02*
X596397D01*
X548916Y538176D02*
Y565176D01*
X564416Y538176D02*
Y574426D01*
X533666Y626176D02*
X565666D01*
Y577176D02*
Y626176D01*
X533666Y577176D02*
X565666D01*
X533666D02*
Y626176D01*
X514916Y627476D02*
X530166D01*
X557250Y286500D02*
Y313500D01*
X572750Y286500D02*
Y322750D01*
X542000Y374500D02*
X574000D01*
Y325500D02*
Y374500D01*
X542000Y325500D02*
X574000D01*
X542000D02*
Y374500D01*
X523250Y375800D02*
X538500D01*
X572750Y387500D02*
Y414500D01*
X557250Y378250D02*
Y414500D01*
X595269Y404000D02*
X604730D01*
X595269Y420000D02*
X604730D01*
X595269Y377000D02*
X604730D01*
X595269Y393000D02*
X604730D01*
X602219Y342031D02*
Y349969D01*
X617781Y342031D02*
Y349969D01*
X595269Y320500D02*
X604730D01*
X595269Y304500D02*
X604730D01*
X595269Y298000D02*
X604730D01*
X595269Y282000D02*
X604730D01*
X632500Y336750D02*
X693500D01*
X632500Y283250D02*
Y284700D01*
Y297200D02*
Y297400D01*
Y309900D02*
Y310100D01*
Y322600D02*
Y322800D01*
Y335300D02*
Y336750D01*
Y283250D02*
X693500D01*
Y284200D01*
Y335800D02*
Y336750D01*
X632500Y596750D02*
X693500D01*
X632500Y543250D02*
Y544700D01*
Y557200D02*
Y557400D01*
Y569900D02*
Y570100D01*
Y582600D02*
Y582800D01*
Y595300D02*
Y596750D01*
Y543250D02*
X693500D01*
Y544200D01*
Y595800D02*
Y596750D01*
X632500Y406750D02*
X693500D01*
X632500Y353250D02*
Y354700D01*
Y367200D02*
Y367400D01*
Y379900D02*
Y380100D01*
Y392600D02*
Y392800D01*
Y405300D02*
Y406750D01*
Y353250D02*
X693500D01*
Y354200D01*
Y405800D02*
Y406750D01*
X632500Y666750D02*
X693500D01*
X632500Y613250D02*
Y614700D01*
Y627200D02*
Y627400D01*
Y639900D02*
Y640100D01*
Y652600D02*
Y652800D01*
Y665300D02*
Y666750D01*
Y613250D02*
X693500D01*
Y614200D01*
Y665800D02*
Y666750D01*
X665000Y670993D02*
Y681492D01*
X752500Y667500D02*
Y697500D01*
Y627500D02*
Y657500D01*
Y587500D02*
Y617500D01*
Y547500D02*
Y577500D01*
X400500Y707000D02*
Y715000D01*
X405500D01*
X400500Y685000D02*
Y693000D01*
Y685000D02*
X405500D01*
D13*
X487500Y148000D02*
X512500D01*
X488750Y258000D02*
X511250D01*
X298966Y620493D02*
Y640492D01*
X314566Y620493D02*
Y640492D01*
X268500Y0D02*
Y280000D01*
X83500Y0D02*
X268500D01*
X83500D02*
Y280000D01*
X268500D01*
X0Y74043D02*
X80000D01*
Y254042D01*
X0D02*
X80000D01*
X0Y74043D02*
Y254042D01*
X280000Y5000D02*
X360000D01*
Y185000D01*
X280000D02*
X360000D01*
X280000Y5000D02*
Y185000D01*
X708161Y737785D02*
X710160D01*
X709160Y738784D02*
Y736785D01*
X701832Y539108D02*
Y542107D01*
X703332D01*
X703831Y541607D01*
Y540607D01*
X703332Y540108D01*
X701832D01*
X706830Y539108D02*
X704831D01*
X706830Y541107D01*
Y541607D01*
X706330Y542107D01*
X705331D01*
X704831Y541607D01*
X93001Y748500D02*
X92501Y748999D01*
X91501D01*
X91001Y748500D01*
Y746500D01*
X91501Y746001D01*
X92501D01*
X93001Y746500D01*
X95500Y746001D02*
Y748999D01*
X94000Y747500D01*
X96000D01*
X96999Y748999D02*
X98999D01*
Y748500D01*
X96999Y746500D01*
Y746001D01*
X118001Y756000D02*
X117501Y756499D01*
X116501D01*
X116001Y756000D01*
Y754000D01*
X116501Y753501D01*
X117501D01*
X118001Y754000D01*
X120500Y753501D02*
Y756499D01*
X119000Y755000D01*
X121000D01*
X123999Y756499D02*
X122999Y756000D01*
X121999Y755000D01*
Y754000D01*
X122499Y753501D01*
X123499D01*
X123999Y754000D01*
Y754500D01*
X123499Y755000D01*
X121999D01*
X456001Y458501D02*
Y461499D01*
X457501D01*
X458001Y461000D01*
Y460000D01*
X457501Y459500D01*
X456001D01*
X457001D02*
X458001Y458501D01*
X461000D02*
X459000D01*
X461000Y460500D01*
Y461000D01*
X460500Y461499D01*
X459500D01*
X459000Y461000D01*
X461999Y459000D02*
X462499Y458501D01*
X463499D01*
X463999Y459000D01*
Y461000D01*
X463499Y461499D01*
X462499D01*
X461999Y461000D01*
Y460500D01*
X462499Y460000D01*
X463999D01*
X1300Y449192D02*
Y452191D01*
X2799D01*
X3299Y451691D01*
Y450691D01*
X2799Y450192D01*
X1300D01*
X4299Y449192D02*
X5299D01*
X4799D01*
Y452191D01*
X4299Y451691D01*
X682749Y273891D02*
X682250Y274391D01*
X681250D01*
X680750Y273891D01*
Y271892D01*
X681250Y271392D01*
X682250D01*
X682749Y271892D01*
X683749Y274391D02*
X685748D01*
Y273891D01*
X683749Y271892D01*
Y271392D01*
X544500Y263500D02*
X544000Y264000D01*
X543001D01*
X542501Y263500D01*
Y261500D01*
X543001Y261000D01*
X544000D01*
X544500Y261500D01*
X547499Y264000D02*
X546499Y263500D01*
X545500Y262500D01*
Y261500D01*
X546000Y261000D01*
X546999D01*
X547499Y261500D01*
Y262000D01*
X546999Y262500D01*
X545500D01*
X617000Y121000D02*
X616500Y121500D01*
X615501D01*
X615001Y121000D01*
Y119000D01*
X615501Y118500D01*
X616500D01*
X617000Y119000D01*
X619999Y121500D02*
X618000D01*
Y120000D01*
X618999Y120500D01*
X619499D01*
X619999Y120000D01*
Y119000D01*
X619499Y118500D01*
X618500D01*
X618000Y119000D01*
X474500Y123500D02*
X474000Y124000D01*
X473001D01*
X472501Y123500D01*
Y121500D01*
X473001Y121000D01*
X474000D01*
X474500Y121500D01*
X476999Y121000D02*
Y124000D01*
X475500Y122500D01*
X477499D01*
X17501Y723501D02*
Y726499D01*
X18500Y725500D01*
X19500Y726499D01*
Y723501D01*
X22499Y726499D02*
X20500D01*
Y725000D01*
X21500Y725500D01*
X21999D01*
X22499Y725000D01*
Y724000D01*
X21999Y723501D01*
X21000D01*
X20500Y724000D01*
X60001Y56000D02*
Y59000D01*
X61000Y58000D01*
X62000Y59000D01*
Y56000D01*
X63000Y58500D02*
X63500Y59000D01*
X64499D01*
X64999Y58500D01*
Y58000D01*
X64499Y57500D01*
X64999Y57000D01*
Y56500D01*
X64499Y56000D01*
X63500D01*
X63000Y56500D01*
Y57000D01*
X63500Y57500D01*
X63000Y58000D01*
Y58500D01*
X63500Y57500D02*
X64499D01*
X754918Y67176D02*
Y70175D01*
X755918Y69175D01*
X756917Y70175D01*
Y67176D01*
X757917Y70175D02*
X759916D01*
Y69675D01*
X757917Y67676D01*
Y67176D01*
X742501Y788501D02*
Y791499D01*
X743501Y790500D01*
X744500Y791499D01*
Y788501D01*
X747499Y791499D02*
X746499Y791000D01*
X745500Y790000D01*
Y789000D01*
X746000Y788501D01*
X746999D01*
X747499Y789000D01*
Y789500D01*
X746999Y790000D01*
X745500D01*
X388650Y726765D02*
Y724266D01*
X389150Y723766D01*
X390149D01*
X390649Y724266D01*
Y726765D01*
X391649Y723766D02*
X392649D01*
X392149D01*
Y726765D01*
X391649Y726265D01*
X686499Y676501D02*
X683501D01*
Y678001D01*
X684000Y678501D01*
X685000D01*
X685500Y678001D01*
Y676501D01*
Y677501D02*
X686499Y678501D01*
X683501Y679500D02*
Y681500D01*
Y680500D01*
X686499D01*
Y682499D02*
Y683499D01*
Y682999D01*
X683501D01*
X684000Y682499D01*
X573999Y706001D02*
X571001D01*
Y707501D01*
X571500Y708001D01*
X572500D01*
X573000Y707501D01*
Y706001D01*
Y707001D02*
X573999Y708001D01*
X571500Y709000D02*
X571001Y709500D01*
Y710500D01*
X571500Y711000D01*
X572000D01*
X572500Y710500D01*
Y710000D01*
Y710500D01*
X573000Y711000D01*
X573500D01*
X573999Y710500D01*
Y709500D01*
X573500Y709000D01*
X573999Y713999D02*
Y711999D01*
X572000Y713999D01*
X571500D01*
X571001Y713499D01*
Y712499D01*
X571500Y711999D01*
X573999Y726501D02*
X571001D01*
Y728001D01*
X571500Y728501D01*
X572500D01*
X573000Y728001D01*
Y726501D01*
Y727501D02*
X573999Y728501D01*
X571500Y729500D02*
X571001Y730000D01*
Y731000D01*
X571500Y731499D01*
X572000D01*
X572500Y731000D01*
Y730500D01*
Y731000D01*
X573000Y731499D01*
X573500D01*
X573999Y731000D01*
Y730000D01*
X573500Y729500D01*
X573999Y732499D02*
Y733499D01*
Y732999D01*
X571001D01*
X571500Y732499D01*
X456001Y648501D02*
Y651499D01*
X457501D01*
X458001Y651000D01*
Y650000D01*
X457501Y649500D01*
X456001D01*
X457001D02*
X458001Y648501D01*
X459000Y651000D02*
X459500Y651499D01*
X460500D01*
X461000Y651000D01*
Y650500D01*
X460500Y650000D01*
X460000D01*
X460500D01*
X461000Y649500D01*
Y649000D01*
X460500Y648501D01*
X459500D01*
X459000Y649000D01*
X461999Y651000D02*
X462499Y651499D01*
X463499D01*
X463999Y651000D01*
Y649000D01*
X463499Y648501D01*
X462499D01*
X461999Y649000D01*
Y651000D01*
X299000Y376001D02*
X296000D01*
Y377501D01*
X296500Y378001D01*
X297500D01*
X298000Y377501D01*
Y376001D01*
Y377001D02*
X299000Y378001D01*
Y381000D02*
Y379000D01*
X297000Y381000D01*
X296500D01*
X296000Y380500D01*
Y379500D01*
X296500Y379000D01*
Y381999D02*
X296000Y382499D01*
Y383499D01*
X296500Y383999D01*
X297000D01*
X297500Y383499D01*
X298000Y383999D01*
X298500D01*
X299000Y383499D01*
Y382499D01*
X298500Y381999D01*
X298000D01*
X297500Y382499D01*
X297000Y381999D01*
X296500D01*
X297500Y382499D02*
Y383499D01*
X299000Y418501D02*
X296000D01*
Y420001D01*
X296500Y420501D01*
X297500D01*
X298000Y420001D01*
Y418501D01*
Y419501D02*
X299000Y420501D01*
Y423500D02*
Y421500D01*
X297000Y423500D01*
X296500D01*
X296000Y423000D01*
Y422000D01*
X296500Y421500D01*
X296000Y424499D02*
Y426499D01*
X296500D01*
X298500Y424499D01*
X299000D01*
X266500Y496001D02*
X263500D01*
Y497501D01*
X264000Y498001D01*
X265000D01*
X265500Y497501D01*
Y496001D01*
Y497001D02*
X266500Y498001D01*
Y501000D02*
Y499000D01*
X264500Y501000D01*
X264000D01*
X263500Y500500D01*
Y499500D01*
X264000Y499000D01*
X263500Y503999D02*
X264000Y502999D01*
X265000Y501999D01*
X266000D01*
X266500Y502499D01*
Y503499D01*
X266000Y503999D01*
X265500D01*
X265000Y503499D01*
Y501999D01*
X501001Y693501D02*
Y696499D01*
X502501D01*
X503001Y696000D01*
Y695000D01*
X502501Y694500D01*
X501001D01*
X502001D02*
X503001Y693501D01*
X506000D02*
X504000D01*
X506000Y695500D01*
Y696000D01*
X505500Y696499D01*
X504500D01*
X504000Y696000D01*
X508999Y696499D02*
X506999D01*
Y695000D01*
X507999Y695500D01*
X508499D01*
X508999Y695000D01*
Y694000D01*
X508499Y693501D01*
X507499D01*
X506999Y694000D01*
X441001Y693501D02*
Y696499D01*
X442501D01*
X443001Y696000D01*
Y695000D01*
X442501Y694500D01*
X441001D01*
X442001D02*
X443001Y693501D01*
X446000D02*
X444000D01*
X446000Y695500D01*
Y696000D01*
X445500Y696499D01*
X444500D01*
X444000Y696000D01*
X448499Y693501D02*
Y696499D01*
X446999Y695000D01*
X448999D01*
X303501Y353501D02*
Y356499D01*
X305001D01*
X305501Y356000D01*
Y355000D01*
X305001Y354500D01*
X303501D01*
X304501D02*
X305501Y353501D01*
X308500D02*
X306500D01*
X308500Y355500D01*
Y356000D01*
X308000Y356499D01*
X307000D01*
X306500Y356000D01*
X309499D02*
X309999Y356499D01*
X310999D01*
X311499Y356000D01*
Y355500D01*
X310999Y355000D01*
X310499D01*
X310999D01*
X311499Y354500D01*
Y354000D01*
X310999Y353501D01*
X309999D01*
X309499Y354000D01*
X299000Y436001D02*
X296000D01*
Y437501D01*
X296500Y438001D01*
X297500D01*
X298000Y437501D01*
Y436001D01*
Y437001D02*
X299000Y438001D01*
Y441000D02*
Y439000D01*
X297000Y441000D01*
X296500D01*
X296000Y440500D01*
Y439500D01*
X296500Y439000D01*
X299000Y443999D02*
Y441999D01*
X297000Y443999D01*
X296500D01*
X296000Y443499D01*
Y442499D01*
X296500Y441999D01*
X286501Y353501D02*
Y356499D01*
X288001D01*
X288500Y356000D01*
Y355000D01*
X288001Y354500D01*
X286501D01*
X287501D02*
X288500Y353501D01*
X291500D02*
X289500D01*
X291500Y355500D01*
Y356000D01*
X291000Y356499D01*
X290000D01*
X289500Y356000D01*
X292499Y353501D02*
X293499D01*
X292999D01*
Y356499D01*
X292499Y356000D01*
X436499Y726001D02*
X433501D01*
Y727501D01*
X434000Y728001D01*
X435000D01*
X435500Y727501D01*
Y726001D01*
Y727001D02*
X436499Y728001D01*
Y731000D02*
Y729000D01*
X434500Y731000D01*
X434000D01*
X433501Y730500D01*
Y729500D01*
X434000Y729000D01*
Y731999D02*
X433501Y732499D01*
Y733499D01*
X434000Y733999D01*
X436000D01*
X436499Y733499D01*
Y732499D01*
X436000Y731999D01*
X434000D01*
X406251Y426001D02*
Y428999D01*
X407751D01*
X408251Y428500D01*
Y427500D01*
X407751Y427000D01*
X406251D01*
X407251D02*
X408251Y426001D01*
X409250D02*
X410250D01*
X409750D01*
Y428999D01*
X409250Y428500D01*
X411749Y426500D02*
X412249Y426001D01*
X413249D01*
X413749Y426500D01*
Y428500D01*
X413249Y428999D01*
X412249D01*
X411749Y428500D01*
Y428000D01*
X412249Y427500D01*
X413749D01*
X381251Y498501D02*
Y501499D01*
X382751D01*
X383251Y501000D01*
Y500000D01*
X382751Y499500D01*
X381251D01*
X382251D02*
X383251Y498501D01*
X384250D02*
X385250D01*
X384750D01*
Y501499D01*
X384250Y501000D01*
X386749D02*
X387249Y501499D01*
X388249D01*
X388749Y501000D01*
Y500500D01*
X388249Y500000D01*
X388749Y499500D01*
Y499000D01*
X388249Y498501D01*
X387249D01*
X386749Y499000D01*
Y499500D01*
X387249Y500000D01*
X386749Y500500D01*
Y501000D01*
X387249Y500000D02*
X388249D01*
X365751Y461001D02*
Y463999D01*
X367251D01*
X367751Y463500D01*
Y462500D01*
X367251Y462000D01*
X365751D01*
X366751D02*
X367751Y461001D01*
X368750D02*
X369750D01*
X369250D01*
Y463999D01*
X368750Y463500D01*
X371249Y463999D02*
X373249D01*
Y463500D01*
X371249Y461500D01*
Y461001D01*
X371251Y426001D02*
Y428999D01*
X372751D01*
X373251Y428500D01*
Y427500D01*
X372751Y427000D01*
X371251D01*
X372251D02*
X373251Y426001D01*
X374250D02*
X375250D01*
X374750D01*
Y428999D01*
X374250Y428500D01*
X378749Y428999D02*
X377749Y428500D01*
X376749Y427500D01*
Y426500D01*
X377249Y426001D01*
X378249D01*
X378749Y426500D01*
Y427000D01*
X378249Y427500D01*
X376749D01*
X446499Y378751D02*
X443501D01*
Y380251D01*
X444000Y380751D01*
X445000D01*
X445500Y380251D01*
Y378751D01*
Y379751D02*
X446499Y380751D01*
Y381750D02*
Y382750D01*
Y382250D01*
X443501D01*
X444000Y381750D01*
X443501Y386249D02*
Y384249D01*
X445000D01*
X444500Y385249D01*
Y385749D01*
X445000Y386249D01*
X446000D01*
X446499Y385749D01*
Y384749D01*
X446000Y384249D01*
X446499Y361251D02*
X443501D01*
Y362751D01*
X444000Y363251D01*
X445000D01*
X445500Y362751D01*
Y361251D01*
Y362251D02*
X446499Y363251D01*
Y364250D02*
Y365250D01*
Y364750D01*
X443501D01*
X444000Y364250D01*
X446499Y368249D02*
X443501D01*
X445000Y366749D01*
Y368749D01*
X588751Y633501D02*
Y636499D01*
X590251D01*
X590751Y636000D01*
Y635000D01*
X590251Y634500D01*
X588751D01*
X589751D02*
X590751Y633501D01*
X591750D02*
X592750D01*
X592250D01*
Y636499D01*
X591750Y636000D01*
X594249D02*
X594749Y636499D01*
X595749D01*
X596249Y636000D01*
Y635500D01*
X595749Y635000D01*
X595249D01*
X595749D01*
X596249Y634500D01*
Y634000D01*
X595749Y633501D01*
X594749D01*
X594249Y634000D01*
X596251Y411001D02*
Y413999D01*
X597751D01*
X598251Y413500D01*
Y412500D01*
X597751Y412000D01*
X596251D01*
X597251D02*
X598251Y411001D01*
X599250D02*
X600250D01*
X599750D01*
Y413999D01*
X599250Y413500D01*
X603749Y411001D02*
X601749D01*
X603749Y413000D01*
Y413500D01*
X603249Y413999D01*
X602249D01*
X601749Y413500D01*
X589251Y658501D02*
Y661499D01*
X590751D01*
X591250Y661000D01*
Y660000D01*
X590751Y659500D01*
X589251D01*
X590251D02*
X591250Y658501D01*
X592250D02*
X593250D01*
X592750D01*
Y661499D01*
X592250Y661000D01*
X594749Y658501D02*
X595749D01*
X595249D01*
Y661499D01*
X594749Y661000D01*
X596251Y382001D02*
Y385000D01*
X597751D01*
X598251Y384500D01*
Y383500D01*
X597751Y383000D01*
X596251D01*
X597251D02*
X598251Y382001D01*
X599250D02*
X600250D01*
X599750D01*
Y385000D01*
X599250Y384500D01*
X601749D02*
X602249Y385000D01*
X603249D01*
X603749Y384500D01*
Y382500D01*
X603249Y382001D01*
X602249D01*
X601749Y382500D01*
Y384500D01*
X528999Y525001D02*
X526001D01*
Y526500D01*
X526500Y527000D01*
X527500D01*
X528000Y526500D01*
Y525001D01*
Y526001D02*
X528999Y527000D01*
X528500Y528000D02*
X528999Y528500D01*
Y529499D01*
X528500Y529999D01*
X526500D01*
X526001Y529499D01*
Y528500D01*
X526500Y528000D01*
X527000D01*
X527500Y528500D01*
Y529999D01*
X536499Y292501D02*
X533501D01*
Y294000D01*
X534000Y294500D01*
X535000D01*
X535500Y294000D01*
Y292501D01*
Y293500D02*
X536499Y294500D01*
X534000Y295500D02*
X533501Y296000D01*
Y296999D01*
X534000Y297499D01*
X534500D01*
X535000Y296999D01*
X535500Y297499D01*
X536000D01*
X536499Y296999D01*
Y296000D01*
X536000Y295500D01*
X535500D01*
X535000Y296000D01*
X534500Y295500D01*
X534000D01*
X535000Y296000D02*
Y296999D01*
X506499Y570001D02*
X503501D01*
Y571500D01*
X504000Y572000D01*
X505000D01*
X505500Y571500D01*
Y570001D01*
Y571001D02*
X506499Y572000D01*
X503501Y573000D02*
Y574999D01*
X504000D01*
X506000Y573000D01*
X506499D01*
X536499Y312501D02*
X533501D01*
Y314000D01*
X534000Y314500D01*
X535000D01*
X535500Y314000D01*
Y312501D01*
Y313500D02*
X536499Y314500D01*
X533501Y317499D02*
X534000Y316500D01*
X535000Y315500D01*
X536000D01*
X536499Y316000D01*
Y316999D01*
X536000Y317499D01*
X535500D01*
X535000Y316999D01*
Y315500D01*
X590001Y561001D02*
Y563999D01*
X591500D01*
X592000Y563500D01*
Y562500D01*
X591500Y562000D01*
X590001D01*
X591001D02*
X592000Y561001D01*
X594999Y563999D02*
X593000D01*
Y562500D01*
X593999Y563000D01*
X594499D01*
X594999Y562500D01*
Y561500D01*
X594499Y561001D01*
X593500D01*
X593000Y561500D01*
X597501Y311000D02*
Y314000D01*
X599000D01*
X599500Y313500D01*
Y312500D01*
X599000Y312000D01*
X597501D01*
X598501D02*
X599500Y311000D01*
X601999D02*
Y314000D01*
X600500Y312500D01*
X602499D01*
X590001Y541001D02*
Y543999D01*
X591500D01*
X592000Y543500D01*
Y542500D01*
X591500Y542000D01*
X590001D01*
X591001D02*
X592000Y541001D01*
X593000Y543500D02*
X593500Y543999D01*
X594499D01*
X594999Y543500D01*
Y543000D01*
X594499Y542500D01*
X593999D01*
X594499D01*
X594999Y542000D01*
Y541500D01*
X594499Y541001D01*
X593500D01*
X593000Y541500D01*
X597501Y288500D02*
Y291500D01*
X599000D01*
X599500Y291000D01*
Y290000D01*
X599000Y289500D01*
X597501D01*
X598501D02*
X599500Y288500D01*
X602499D02*
X600500D01*
X602499Y290500D01*
Y291000D01*
X601999Y291500D01*
X601000D01*
X600500Y291000D01*
X498001Y268500D02*
Y271500D01*
X499500D01*
X500000Y271000D01*
Y270000D01*
X499500Y269500D01*
X498001D01*
X499000D02*
X500000Y268500D01*
X501000D02*
X501999D01*
X501499D01*
Y271500D01*
X501000Y271000D01*
X685001Y418501D02*
Y421499D01*
X686001Y420500D01*
X687000Y421499D01*
Y418501D01*
X689499D02*
Y421499D01*
X688000Y420000D01*
X689999D01*
X707501Y648501D02*
Y651499D01*
X708501Y650500D01*
X709500Y651499D01*
Y648501D01*
X710500Y651000D02*
X711000Y651499D01*
X711999D01*
X712499Y651000D01*
Y650500D01*
X711999Y650000D01*
X711499D01*
X711999D01*
X712499Y649500D01*
Y649000D01*
X711999Y648501D01*
X711000D01*
X710500Y649000D01*
X707501Y301000D02*
Y304000D01*
X708501Y303000D01*
X709500Y304000D01*
Y301000D01*
X712499D02*
X710500D01*
X712499Y303000D01*
Y303500D01*
X711999Y304000D01*
X711000D01*
X710500Y303500D01*
X708001Y601001D02*
Y603999D01*
X709000Y603000D01*
X710000Y603999D01*
Y601001D01*
X711000D02*
X711999D01*
X711499D01*
Y603999D01*
X711000Y603500D01*
X302502Y500000D02*
Y497001D01*
X304501D01*
X307500Y500000D02*
X305501D01*
Y497001D01*
X307500D01*
X305501Y498500D02*
X306500D01*
X308500Y500000D02*
Y497001D01*
X309999D01*
X310499Y497500D01*
Y499500D01*
X309999Y500000D01*
X308500D01*
X311499Y497001D02*
X312498D01*
X311999D01*
Y500000D01*
X311499Y499500D01*
X223001Y291500D02*
Y288500D01*
X225000D01*
X226000D02*
X226999D01*
X226500D01*
Y291500D01*
X226000Y291000D01*
X474500Y581499D02*
X473501D01*
X474000D01*
Y579000D01*
X473501Y578501D01*
X473001D01*
X472501Y579000D01*
X477499Y578501D02*
X475500D01*
X477499Y580500D01*
Y581000D01*
X476999Y581499D01*
X476000D01*
X475500Y581000D01*
X65000Y766499D02*
X64000D01*
X64500D01*
Y764000D01*
X64000Y763501D01*
X63500D01*
X63001Y764000D01*
X66000Y763501D02*
X66999D01*
X66500D01*
Y766499D01*
X66000Y766000D01*
X266251Y693999D02*
X267251D01*
X266751D01*
Y691001D01*
X266251D01*
X267251D01*
X270750Y693500D02*
X270250Y693999D01*
X269250D01*
X268750Y693500D01*
Y691500D01*
X269250Y691001D01*
X270250D01*
X270750Y691500D01*
X273749Y693999D02*
X272749Y693500D01*
X271749Y692500D01*
Y691500D01*
X272249Y691001D01*
X273249D01*
X273749Y691500D01*
Y692000D01*
X273249Y692500D01*
X271749D01*
X138751Y433999D02*
X139751D01*
X139251D01*
Y431001D01*
X138751D01*
X139751D01*
X143250Y433500D02*
X142750Y433999D01*
X141750D01*
X141250Y433500D01*
Y431500D01*
X141750Y431001D01*
X142750D01*
X143250Y431500D01*
X146249Y433999D02*
X144249D01*
Y432500D01*
X145249Y433000D01*
X145749D01*
X146249Y432500D01*
Y431500D01*
X145749Y431001D01*
X144749D01*
X144249Y431500D01*
X411251Y463999D02*
X412251D01*
X411751D01*
Y461001D01*
X411251D01*
X412251D01*
X415750Y463500D02*
X415250Y463999D01*
X414250D01*
X413750Y463500D01*
Y461500D01*
X414250Y461001D01*
X415250D01*
X415750Y461500D01*
X418249Y461001D02*
Y463999D01*
X416749Y462500D01*
X418749D01*
X381251Y376499D02*
X382251D01*
X381751D01*
Y373501D01*
X381251D01*
X382251D01*
X385750Y376000D02*
X385250Y376499D01*
X384250D01*
X383750Y376000D01*
Y374000D01*
X384250Y373501D01*
X385250D01*
X385750Y374000D01*
X386749Y376000D02*
X387249Y376499D01*
X388249D01*
X388749Y376000D01*
Y375500D01*
X388249Y375000D01*
X387749D01*
X388249D01*
X388749Y374500D01*
Y374000D01*
X388249Y373501D01*
X387249D01*
X386749Y374000D01*
X546251Y601499D02*
X547251D01*
X546751D01*
Y598501D01*
X546251D01*
X547251D01*
X550750Y601000D02*
X550250Y601499D01*
X549250D01*
X548750Y601000D01*
Y599000D01*
X549250Y598501D01*
X550250D01*
X550750Y599000D01*
X553749Y598501D02*
X551749D01*
X553749Y600500D01*
Y601000D01*
X553249Y601499D01*
X552249D01*
X551749Y601000D01*
X551751Y348999D02*
X552751D01*
X552251D01*
Y346001D01*
X551751D01*
X552751D01*
X556250Y348500D02*
X555750Y348999D01*
X554750D01*
X554250Y348500D01*
Y346500D01*
X554750Y346001D01*
X555750D01*
X556250Y346500D01*
X557249Y346001D02*
X558249D01*
X557749D01*
Y348999D01*
X557249Y348500D01*
X63500Y271500D02*
X61501D01*
Y270000D01*
X62501D01*
X61501D01*
Y268500D01*
X64500Y271500D02*
Y268500D01*
X66500D01*
X67499D02*
X68499D01*
X67999D01*
Y271500D01*
X67499Y271000D01*
X302501Y631499D02*
Y628501D01*
X304000D01*
X304500Y629000D01*
Y631000D01*
X304000Y631499D01*
X302501D01*
X305500D02*
X307499D01*
Y631000D01*
X305500Y629000D01*
Y628501D01*
X535001Y658999D02*
Y656001D01*
X536500D01*
X537000Y656500D01*
Y658500D01*
X536500Y658999D01*
X535001D01*
X539999D02*
X538999Y658500D01*
X538000Y657500D01*
Y656500D01*
X538500Y656001D01*
X539499D01*
X539999Y656500D01*
Y657000D01*
X539499Y657500D01*
X538000D01*
X562501Y401499D02*
Y398501D01*
X564000D01*
X564500Y399000D01*
Y401000D01*
X564000Y401499D01*
X562501D01*
X567499D02*
X565500D01*
Y400000D01*
X566499Y400500D01*
X566999D01*
X567499Y400000D01*
Y399000D01*
X566999Y398501D01*
X566000D01*
X565500Y399000D01*
X555001Y551499D02*
Y548501D01*
X556500D01*
X557000Y549000D01*
Y551000D01*
X556500Y551499D01*
X555001D01*
X559499Y548501D02*
Y551499D01*
X558000Y550000D01*
X559999D01*
X562501Y301500D02*
Y298500D01*
X564000D01*
X564500Y299000D01*
Y301000D01*
X564000Y301500D01*
X562501D01*
X565500Y301000D02*
X566000Y301500D01*
X566999D01*
X567499Y301000D01*
Y300500D01*
X566999Y300000D01*
X566499D01*
X566999D01*
X567499Y299500D01*
Y299000D01*
X566999Y298500D01*
X566000D01*
X565500Y299000D01*
X520001Y638999D02*
Y636001D01*
X521500D01*
X522000Y636500D01*
Y638500D01*
X521500Y638999D01*
X520001D01*
X524999Y636001D02*
X523000D01*
X524999Y638000D01*
Y638500D01*
X524499Y638999D01*
X523500D01*
X523000Y638500D01*
X528001Y388999D02*
Y386001D01*
X529500D01*
X530000Y386500D01*
Y388500D01*
X529500Y388999D01*
X528001D01*
X531000Y386001D02*
X531999D01*
X531499D01*
Y388999D01*
X531000Y388500D01*
X570501Y693500D02*
X570001Y693999D01*
X569001D01*
X568501Y693500D01*
Y691500D01*
X569001Y691001D01*
X570001D01*
X570501Y691500D01*
X573000Y691001D02*
Y693999D01*
X571500Y692500D01*
X573500D01*
X576499Y693999D02*
X574499D01*
Y692500D01*
X575499Y693000D01*
X575999D01*
X576499Y692500D01*
Y691500D01*
X575999Y691001D01*
X574999D01*
X574499Y691500D01*
X144000Y745501D02*
X143500Y745001D01*
Y744001D01*
X144000Y743501D01*
X146000D01*
X146500Y744001D01*
Y745001D01*
X146000Y745501D01*
X146500Y748000D02*
X143500D01*
X145000Y746500D01*
Y748500D01*
X146500Y750999D02*
X143500D01*
X145000Y749499D01*
Y751499D01*
X314000Y403001D02*
X313500Y402501D01*
Y401501D01*
X314000Y401001D01*
X316000D01*
X316500Y401501D01*
Y402501D01*
X316000Y403001D01*
X316500Y405500D02*
X313500D01*
X315000Y404000D01*
Y406000D01*
X314000Y406999D02*
X313500Y407499D01*
Y408499D01*
X314000Y408999D01*
X314500D01*
X315000Y408499D01*
Y407999D01*
Y408499D01*
X315500Y408999D01*
X316000D01*
X316500Y408499D01*
Y407499D01*
X316000Y406999D01*
X473001Y696000D02*
X472501Y696499D01*
X471501D01*
X471001Y696000D01*
Y694000D01*
X471501Y693501D01*
X472501D01*
X473001Y694000D01*
X475500Y693501D02*
Y696499D01*
X474000Y695000D01*
X476000D01*
X478999Y693501D02*
X476999D01*
X478999Y695500D01*
Y696000D01*
X478499Y696499D01*
X477499D01*
X476999Y696000D01*
X414000Y651001D02*
X413501Y650501D01*
Y649501D01*
X414000Y649001D01*
X416000D01*
X416499Y649501D01*
Y650501D01*
X416000Y651001D01*
X416499Y653500D02*
X413501D01*
X415000Y652000D01*
Y653999D01*
X416499Y654999D02*
Y655999D01*
Y655499D01*
X413501D01*
X414000Y654999D01*
X250501Y746000D02*
X250001Y746499D01*
X249001D01*
X248501Y746000D01*
Y744000D01*
X249001Y743501D01*
X250001D01*
X250501Y744000D01*
X253000Y743501D02*
Y746499D01*
X251500Y745000D01*
X253500D01*
X254499Y746000D02*
X254999Y746499D01*
X255999D01*
X256499Y746000D01*
Y744000D01*
X255999Y743501D01*
X254999D01*
X254499Y744000D01*
Y746000D01*
X314000Y456001D02*
X313500Y455501D01*
Y454501D01*
X314000Y454001D01*
X316000D01*
X316500Y454501D01*
Y455501D01*
X316000Y456001D01*
X314000Y457000D02*
X313500Y457500D01*
Y458500D01*
X314000Y459000D01*
X314500D01*
X315000Y458500D01*
Y458000D01*
Y458500D01*
X315500Y459000D01*
X316000D01*
X316500Y458500D01*
Y457500D01*
X316000Y457000D01*
Y459999D02*
X316500Y460499D01*
Y461499D01*
X316000Y461999D01*
X314000D01*
X313500Y461499D01*
Y460499D01*
X314000Y459999D01*
X314500D01*
X315000Y460499D01*
Y461999D01*
X270501Y473500D02*
X270001Y473999D01*
X269001D01*
X268501Y473500D01*
Y471500D01*
X269001Y471001D01*
X270001D01*
X270501Y471500D01*
X271500Y473500D02*
X272000Y473999D01*
X273000D01*
X273500Y473500D01*
Y473000D01*
X273000Y472500D01*
X272500D01*
X273000D01*
X273500Y472000D01*
Y471500D01*
X273000Y471001D01*
X272000D01*
X271500Y471500D01*
X274499Y473500D02*
X274999Y473999D01*
X275999D01*
X276499Y473500D01*
Y473000D01*
X275999Y472500D01*
X276499Y472000D01*
Y471500D01*
X275999Y471001D01*
X274999D01*
X274499Y471500D01*
Y472000D01*
X274999Y472500D01*
X274499Y473000D01*
Y473500D01*
X274999Y472500D02*
X275999D01*
X237183Y493500D02*
X236683Y493999D01*
X235684D01*
X235184Y493500D01*
Y491500D01*
X235684Y491001D01*
X236683D01*
X237183Y491500D01*
X238183Y493500D02*
X238683Y493999D01*
X239682D01*
X240182Y493500D01*
Y493000D01*
X239682Y492500D01*
X239182D01*
X239682D01*
X240182Y492000D01*
Y491500D01*
X239682Y491001D01*
X238683D01*
X238183Y491500D01*
X241182Y493999D02*
X243181D01*
Y493500D01*
X241182Y491500D01*
Y491001D01*
X201683Y493500D02*
X201183Y493999D01*
X200184D01*
X199684Y493500D01*
Y491500D01*
X200184Y491001D01*
X201183D01*
X201683Y491500D01*
X202683Y493500D02*
X203183Y493999D01*
X204182D01*
X204682Y493500D01*
Y493000D01*
X204182Y492500D01*
X203682D01*
X204182D01*
X204682Y492000D01*
Y491500D01*
X204182Y491001D01*
X203183D01*
X202683Y491500D01*
X207681Y493999D02*
X206681Y493500D01*
X205682Y492500D01*
Y491500D01*
X206182Y491001D01*
X207181D01*
X207681Y491500D01*
Y492000D01*
X207181Y492500D01*
X205682D01*
X168683Y493500D02*
X168183Y493999D01*
X167184D01*
X166684Y493500D01*
Y491500D01*
X167184Y491001D01*
X168183D01*
X168683Y491500D01*
X169683Y493500D02*
X170183Y493999D01*
X171182D01*
X171682Y493500D01*
Y493000D01*
X171182Y492500D01*
X170683D01*
X171182D01*
X171682Y492000D01*
Y491500D01*
X171182Y491001D01*
X170183D01*
X169683Y491500D01*
X174681Y493999D02*
X172682D01*
Y492500D01*
X173682Y493000D01*
X174181D01*
X174681Y492500D01*
Y491500D01*
X174181Y491001D01*
X173182D01*
X172682Y491500D01*
X137683Y493500D02*
X137183Y493999D01*
X136184D01*
X135684Y493500D01*
Y491500D01*
X136184Y491001D01*
X137183D01*
X137683Y491500D01*
X138683Y493500D02*
X139183Y493999D01*
X140182D01*
X140682Y493500D01*
Y493000D01*
X140182Y492500D01*
X139683D01*
X140182D01*
X140682Y492000D01*
Y491500D01*
X140182Y491001D01*
X139183D01*
X138683Y491500D01*
X143181Y491001D02*
Y493999D01*
X141682Y492500D01*
X143681D01*
X178001Y288500D02*
X177501Y289000D01*
X176501D01*
X176001Y288500D01*
Y286500D01*
X176501Y286000D01*
X177501D01*
X178001Y286500D01*
X179000Y288500D02*
X179500Y289000D01*
X180500D01*
X181000Y288500D01*
Y288000D01*
X180500Y287500D01*
X180000D01*
X180500D01*
X181000Y287000D01*
Y286500D01*
X180500Y286000D01*
X179500D01*
X179000Y286500D01*
X181999Y288500D02*
X182499Y289000D01*
X183499D01*
X183999Y288500D01*
Y288000D01*
X183499Y287500D01*
X182999D01*
X183499D01*
X183999Y287000D01*
Y286500D01*
X183499Y286000D01*
X182499D01*
X181999Y286500D01*
X144683Y288500D02*
X144183Y289000D01*
X143184D01*
X142684Y288500D01*
Y286500D01*
X143184Y286000D01*
X144183D01*
X144683Y286500D01*
X145683Y288500D02*
X146183Y289000D01*
X147182D01*
X147682Y288500D01*
Y288000D01*
X147182Y287500D01*
X146683D01*
X147182D01*
X147682Y287000D01*
Y286500D01*
X147182Y286000D01*
X146183D01*
X145683Y286500D01*
X150681Y286000D02*
X148682D01*
X150681Y288000D01*
Y288500D01*
X150181Y289000D01*
X149182D01*
X148682Y288500D01*
X283783Y291000D02*
X283283Y291500D01*
X282283D01*
X281784Y291000D01*
Y289000D01*
X282283Y288500D01*
X283283D01*
X283783Y289000D01*
X284783Y291000D02*
X285282Y291500D01*
X286282D01*
X286782Y291000D01*
Y290500D01*
X286282Y290000D01*
X285782D01*
X286282D01*
X286782Y289500D01*
Y289000D01*
X286282Y288500D01*
X285282D01*
X284783Y289000D01*
X287782Y288500D02*
X288781D01*
X288281D01*
Y291500D01*
X287782Y291000D01*
X250501D02*
X250001Y291500D01*
X249001D01*
X248501Y291000D01*
Y289000D01*
X249001Y288500D01*
X250001D01*
X250501Y289000D01*
X251500Y291000D02*
X252000Y291500D01*
X253000D01*
X253500Y291000D01*
Y290500D01*
X253000Y290000D01*
X252500D01*
X253000D01*
X253500Y289500D01*
Y289000D01*
X253000Y288500D01*
X252000D01*
X251500Y289000D01*
X254499Y291000D02*
X254999Y291500D01*
X255999D01*
X256499Y291000D01*
Y289000D01*
X255999Y288500D01*
X254999D01*
X254499Y289000D01*
Y291000D01*
X250501Y638500D02*
X250001Y638999D01*
X249001D01*
X248501Y638500D01*
Y636500D01*
X249001Y636001D01*
X250001D01*
X250501Y636500D01*
X253500Y636001D02*
X251500D01*
X253500Y638000D01*
Y638500D01*
X253000Y638999D01*
X252000D01*
X251500Y638500D01*
X254499Y636500D02*
X254999Y636001D01*
X255999D01*
X256499Y636500D01*
Y638500D01*
X255999Y638999D01*
X254999D01*
X254499Y638500D01*
Y638000D01*
X254999Y637500D01*
X256499D01*
X309000Y683001D02*
X308500Y682501D01*
Y681501D01*
X309000Y681001D01*
X311000D01*
X311500Y681501D01*
Y682501D01*
X311000Y683001D01*
X311500Y686000D02*
Y684000D01*
X309500Y686000D01*
X309000D01*
X308500Y685500D01*
Y684500D01*
X309000Y684000D01*
Y686999D02*
X308500Y687499D01*
Y688499D01*
X309000Y688999D01*
X309500D01*
X310000Y688499D01*
X310500Y688999D01*
X311000D01*
X311500Y688499D01*
Y687499D01*
X311000Y686999D01*
X310500D01*
X310000Y687499D01*
X309500Y686999D01*
X309000D01*
X310000Y687499D02*
Y688499D01*
X409000Y490501D02*
X408501Y490001D01*
Y489001D01*
X409000Y488501D01*
X411000D01*
X411499Y489001D01*
Y490001D01*
X411000Y490501D01*
X411499Y493500D02*
Y491500D01*
X409500Y493500D01*
X409000D01*
X408501Y493000D01*
Y492000D01*
X409000Y491500D01*
X408501Y494499D02*
Y496499D01*
X409000D01*
X411000Y494499D01*
X411499D01*
X409000Y508001D02*
X408501Y507501D01*
Y506501D01*
X409000Y506001D01*
X411000D01*
X411499Y506501D01*
Y507501D01*
X411000Y508001D01*
X411499Y511000D02*
Y509000D01*
X409500Y511000D01*
X409000D01*
X408501Y510500D01*
Y509500D01*
X409000Y509000D01*
X408501Y513999D02*
X409000Y512999D01*
X410000Y511999D01*
X411000D01*
X411499Y512499D01*
Y513499D01*
X411000Y513999D01*
X410500D01*
X410000Y513499D01*
Y511999D01*
X390501Y428500D02*
X390001Y428999D01*
X389001D01*
X388501Y428500D01*
Y426500D01*
X389001Y426001D01*
X390001D01*
X390501Y426500D01*
X393500Y426001D02*
X391500D01*
X393500Y428000D01*
Y428500D01*
X393000Y428999D01*
X392000D01*
X391500Y428500D01*
X396499Y428999D02*
X394499D01*
Y427500D01*
X395499Y428000D01*
X395999D01*
X396499Y427500D01*
Y426500D01*
X395999Y426001D01*
X394999D01*
X394499Y426500D01*
X433001Y598500D02*
X432501Y598999D01*
X431501D01*
X431001Y598500D01*
Y596500D01*
X431501Y596001D01*
X432501D01*
X433001Y596500D01*
X436000Y596001D02*
X434000D01*
X436000Y598000D01*
Y598500D01*
X435500Y598999D01*
X434500D01*
X434000Y598500D01*
X438499Y596001D02*
Y598999D01*
X436999Y597500D01*
X438999D01*
X439000Y490501D02*
X438501Y490001D01*
Y489001D01*
X439000Y488501D01*
X441000D01*
X441499Y489001D01*
Y490001D01*
X441000Y490501D01*
X441499Y493500D02*
Y491500D01*
X439500Y493500D01*
X439000D01*
X438501Y493000D01*
Y492000D01*
X439000Y491500D01*
Y494499D02*
X438501Y494999D01*
Y495999D01*
X439000Y496499D01*
X439500D01*
X440000Y495999D01*
Y495499D01*
Y495999D01*
X440500Y496499D01*
X441000D01*
X441499Y495999D01*
Y494999D01*
X441000Y494499D01*
X394000Y328001D02*
X393501Y327501D01*
Y326501D01*
X394000Y326001D01*
X396000D01*
X396499Y326501D01*
Y327501D01*
X396000Y328001D01*
X396499Y331000D02*
Y329000D01*
X394500Y331000D01*
X394000D01*
X393501Y330500D01*
Y329500D01*
X394000Y329000D01*
X396499Y333999D02*
Y331999D01*
X394500Y333999D01*
X394000D01*
X393501Y333499D01*
Y332499D01*
X394000Y331999D01*
X436500Y331001D02*
X436001Y330501D01*
Y329501D01*
X436500Y329001D01*
X438500D01*
X438999Y329501D01*
Y330501D01*
X438500Y331001D01*
X438999Y333999D02*
Y332000D01*
X437000Y333999D01*
X436500D01*
X436001Y333500D01*
Y332500D01*
X436500Y332000D01*
X438999Y334999D02*
Y335999D01*
Y335499D01*
X436001D01*
X436500Y334999D01*
X444000Y400501D02*
X443501Y400001D01*
Y399001D01*
X444000Y398501D01*
X446000D01*
X446499Y399001D01*
Y400001D01*
X446000Y400501D01*
X446499Y403500D02*
Y401500D01*
X444500Y403500D01*
X444000D01*
X443501Y403000D01*
Y402000D01*
X444000Y401500D01*
Y404499D02*
X443501Y404999D01*
Y405999D01*
X444000Y406499D01*
X446000D01*
X446499Y405999D01*
Y404999D01*
X446000Y404499D01*
X444000D01*
X400751Y376000D02*
X400251Y376499D01*
X399251D01*
X398751Y376000D01*
Y374000D01*
X399251Y373501D01*
X400251D01*
X400751Y374000D01*
X401750Y373501D02*
X402750D01*
X402250D01*
Y376499D01*
X401750Y376000D01*
X404249Y374000D02*
X404749Y373501D01*
X405749D01*
X406249Y374000D01*
Y376000D01*
X405749Y376499D01*
X404749D01*
X404249Y376000D01*
Y375500D01*
X404749Y375000D01*
X406249D01*
X798251Y681000D02*
X797751Y681499D01*
X796751D01*
X796251Y681000D01*
Y679000D01*
X796751Y678501D01*
X797751D01*
X798251Y679000D01*
X799250Y678501D02*
X800250D01*
X799750D01*
Y681499D01*
X799250Y681000D01*
X801749D02*
X802249Y681499D01*
X803249D01*
X803749Y681000D01*
Y680500D01*
X803249Y680000D01*
X803749Y679500D01*
Y679000D01*
X803249Y678501D01*
X802249D01*
X801749Y679000D01*
Y679500D01*
X802249Y680000D01*
X801749Y680500D01*
Y681000D01*
X802249Y680000D02*
X803249D01*
X795751Y646000D02*
X795251Y646499D01*
X794251D01*
X793751Y646000D01*
Y644000D01*
X794251Y643501D01*
X795251D01*
X795751Y644000D01*
X796750Y643501D02*
X797750D01*
X797250D01*
Y646499D01*
X796750Y646000D01*
X799249Y646499D02*
X801249D01*
Y646000D01*
X799249Y644000D01*
Y643501D01*
X489000Y603251D02*
X488501Y602751D01*
Y601751D01*
X489000Y601251D01*
X491000D01*
X491499Y601751D01*
Y602751D01*
X491000Y603251D01*
X491499Y604250D02*
Y605250D01*
Y604750D01*
X488501D01*
X489000Y604250D01*
X488501Y608749D02*
X489000Y607749D01*
X490000Y606749D01*
X491000D01*
X491499Y607249D01*
Y608249D01*
X491000Y608749D01*
X490500D01*
X490000Y608249D01*
Y606749D01*
X490751Y353500D02*
X490251Y353999D01*
X489251D01*
X488751Y353500D01*
Y351500D01*
X489251Y351001D01*
X490251D01*
X490751Y351500D01*
X491750Y351001D02*
X492750D01*
X492250D01*
Y353999D01*
X491750Y353500D01*
X496249Y353999D02*
X494249D01*
Y352500D01*
X495249Y353000D01*
X495749D01*
X496249Y352500D01*
Y351500D01*
X495749Y351001D01*
X494749D01*
X494249Y351500D01*
X795751Y611000D02*
X795251Y611499D01*
X794251D01*
X793751Y611000D01*
Y609000D01*
X794251Y608501D01*
X795251D01*
X795751Y609000D01*
X796750Y608501D02*
X797750D01*
X797250D01*
Y611499D01*
X796750Y611000D01*
X800749Y608501D02*
Y611499D01*
X799249Y610000D01*
X801249D01*
X798251Y576000D02*
X797751Y576499D01*
X796751D01*
X796251Y576000D01*
Y574000D01*
X796751Y573501D01*
X797751D01*
X798251Y574000D01*
X799250Y573501D02*
X800250D01*
X799750D01*
Y576499D01*
X799250Y576000D01*
X801749D02*
X802249Y576499D01*
X803249D01*
X803749Y576000D01*
Y575500D01*
X803249Y575000D01*
X802749D01*
X803249D01*
X803749Y574500D01*
Y574000D01*
X803249Y573501D01*
X802249D01*
X801749Y574000D01*
X598251Y598500D02*
X597751Y598999D01*
X596751D01*
X596251Y598500D01*
Y596500D01*
X596751Y596001D01*
X597751D01*
X598251Y596500D01*
X599250Y596001D02*
X600250D01*
X599750D01*
Y598999D01*
X599250Y598500D01*
X603749Y596001D02*
X601749D01*
X603749Y598000D01*
Y598500D01*
X603249Y598999D01*
X602249D01*
X601749Y598500D01*
X272539Y204041D02*
X272040Y204541D01*
X271040D01*
X270540Y204041D01*
Y202042D01*
X271040Y201542D01*
X272040D01*
X272539Y202042D01*
X273539Y201542D02*
X274539D01*
X274039D01*
Y204541D01*
X273539Y204041D01*
X276038Y201542D02*
X277038D01*
X276538D01*
Y204541D01*
X276038Y204041D01*
X723251Y738500D02*
X722751Y738999D01*
X721751D01*
X721251Y738500D01*
Y736500D01*
X721751Y736001D01*
X722751D01*
X723251Y736500D01*
X724250Y736001D02*
X725250D01*
X724750D01*
Y738999D01*
X724250Y738500D01*
X726749D02*
X727249Y738999D01*
X728249D01*
X728749Y738500D01*
Y736500D01*
X728249Y736001D01*
X727249D01*
X726749Y736500D01*
Y738500D01*
X754500Y321000D02*
X754000Y321499D01*
X753001D01*
X752501Y321000D01*
Y319000D01*
X753001Y318500D01*
X754000D01*
X754500Y319000D01*
X755500D02*
X756000Y318500D01*
X756999D01*
X757499Y319000D01*
Y321000D01*
X756999Y321499D01*
X756000D01*
X755500Y321000D01*
Y320500D01*
X756000Y320000D01*
X757499D01*
X365757Y118951D02*
X365257Y119451D01*
X364258D01*
X363758Y118951D01*
Y116952D01*
X364258Y116452D01*
X365257D01*
X365757Y116952D01*
X366757Y118951D02*
X367257Y119451D01*
X368256D01*
X368756Y118951D01*
Y118451D01*
X368256Y117951D01*
X368756Y117452D01*
Y116952D01*
X368256Y116452D01*
X367257D01*
X366757Y116952D01*
Y117452D01*
X367257Y117951D01*
X366757Y118451D01*
Y118951D01*
X367257Y117951D02*
X368256D01*
X697000Y703500D02*
X696500Y703999D01*
X695501D01*
X695001Y703500D01*
Y701500D01*
X695501Y701001D01*
X696500D01*
X697000Y701500D01*
X698000Y703500D02*
X698500Y703999D01*
X699499D01*
X699999Y703500D01*
Y703000D01*
X699499Y702500D01*
X698999D01*
X699499D01*
X699999Y702000D01*
Y701500D01*
X699499Y701001D01*
X698500D01*
X698000Y701500D01*
X609500Y348500D02*
X609000Y348999D01*
X608001D01*
X607501Y348500D01*
Y346500D01*
X608001Y346001D01*
X609000D01*
X609500Y346500D01*
X612499Y346001D02*
X610500D01*
X612499Y348000D01*
Y348500D01*
X611999Y348999D01*
X611000D01*
X610500Y348500D01*
X17500Y273500D02*
X17000Y274000D01*
X16000D01*
X15501Y273500D01*
Y271500D01*
X16000Y271000D01*
X17000D01*
X17500Y271500D01*
X18500Y271000D02*
X19499D01*
X19000D01*
Y274000D01*
X18500Y273500D01*
D14*
X302248Y491620D02*
X307327Y486540D01*
X302248Y476380D02*
Y491620D01*
M02*
