G04*
G04 #@! TF.GenerationSoftware,Altium Limited,Altium Designer,20.1.12 (249)*
G04*
G04 Layer_Color=0*
%FSLAX44Y44*%
%MOMM*%
G71*
G04*
G04 #@! TF.SameCoordinates,85B36F8B-E135-4E31-A215-2F58F684B550*
G04*
G04*
G04 #@! TF.FilePolarity,Positive*
G04*
G01*
G75*
%ADD13C,0.1000*%
D13*
X430000Y729542D02*
X440000D01*
X435000Y724542D02*
Y734542D01*
X89926Y747126D02*
X99926D01*
X94926Y742126D02*
Y752126D01*
X252500Y739340D02*
Y749340D01*
X247500Y744340D02*
X257500D01*
X259818Y500000D02*
X269818D01*
X264818Y495000D02*
Y505000D01*
X385000Y495500D02*
Y505500D01*
X380000Y500500D02*
X390000D01*
X292818Y381000D02*
X302817D01*
X297817Y376000D02*
Y386000D01*
X289818Y350000D02*
Y360000D01*
X284818Y355000D02*
X294818D01*
X307817Y350000D02*
Y360000D01*
X302817Y355000D02*
X312817D01*
X370000Y457500D02*
Y467500D01*
X365000Y462500D02*
X375000D01*
X374000Y423500D02*
Y433500D01*
X369000Y428500D02*
X379000D01*
X410000Y423500D02*
Y433500D01*
X405000Y428500D02*
X415000D01*
X440000Y383500D02*
X450000D01*
X445000Y378500D02*
Y388500D01*
X440000Y365500D02*
X450000D01*
X445000Y360500D02*
Y370500D01*
X292818Y422000D02*
X302817D01*
X297817Y417000D02*
Y427000D01*
X292818Y440000D02*
X302817D01*
X297817Y435000D02*
Y445000D01*
X435000Y592500D02*
Y602500D01*
X430000Y597500D02*
X440000D01*
X469616Y695219D02*
X479616D01*
X474616Y690219D02*
Y700219D01*
X140073Y747126D02*
X150073D01*
X145073Y742126D02*
Y752126D01*
X567500Y730000D02*
X577500D01*
X572500Y725000D02*
Y735000D01*
X572837Y689000D02*
Y699000D01*
X567837Y694000D02*
X577837D01*
X591666Y653677D02*
Y663676D01*
X586666Y658677D02*
X596666D01*
X591666Y631676D02*
Y641676D01*
X586666Y636676D02*
X596666D01*
X596666Y596676D02*
X606666D01*
X601666Y591676D02*
Y601676D01*
X591666Y558676D02*
Y568676D01*
X586666Y563676D02*
X596666D01*
X591666Y536676D02*
Y546676D01*
X586666Y541676D02*
X596666D01*
X600000Y407000D02*
Y417000D01*
X595000Y412000D02*
X605000D01*
X600000Y380000D02*
Y390000D01*
X595000Y385000D02*
X605000D01*
X605000Y346000D02*
X615000D01*
X610000Y341000D02*
Y351000D01*
X600000Y307500D02*
Y317500D01*
X595000Y312500D02*
X605000D01*
X600000Y285000D02*
Y295000D01*
X595000Y290000D02*
X605000D01*
X658000Y310000D02*
X668000D01*
X663000Y305000D02*
Y315000D01*
X658000Y570000D02*
X668000D01*
X663000Y565000D02*
Y575000D01*
X658000Y380000D02*
X668000D01*
X663000Y375000D02*
Y385000D01*
X658000Y640000D02*
X668000D01*
X663000Y635000D02*
Y645000D01*
M02*
