G04*
G04 #@! TF.GenerationSoftware,Altium Limited,Altium Designer,21.6.4 (81)*
G04*
G04 Layer_Color=8388736*
%FSLAX44Y44*%
%MOMM*%
G71*
G04*
G04 #@! TF.SameCoordinates,04AFCEB9-1927-4C3B-B3D4-275DD85C2008*
G04*
G04*
G04 #@! TF.FilePolarity,Negative*
G04*
G01*
G75*
%ADD21R,0.9500X1.4500*%
%ADD24R,1.4500X0.9500*%
%ADD25R,0.9562X1.5562*%
%ADD32R,1.7000X0.9500*%
%ADD40R,1.3561X1.8582*%
%ADD42R,1.5932X1.1632*%
%ADD43R,0.8032X1.3032*%
%ADD44R,1.5532X1.7532*%
%ADD45R,1.1632X1.5932*%
%ADD46R,1.7532X1.5532*%
%ADD47R,1.4032X1.3032*%
%ADD48R,1.4032X8.9032*%
%ADD49R,1.4032X1.8032*%
%ADD50R,8.7132X8.0732*%
%ADD51R,4.0132X1.8232*%
%ADD52R,3.0232X1.6332*%
%ADD53R,3.8132X1.0132*%
%ADD54R,3.7232X1.4532*%
%ADD55R,0.8032X1.4032*%
%ADD56R,1.0032X1.3032*%
%ADD57R,2.2032X1.3032*%
%ADD58R,1.2032X0.5432*%
%ADD59R,1.7282X0.8532*%
%ADD60R,5.6032X3.1032*%
%ADD61R,1.8032X1.8032*%
%ADD62C,1.8032*%
%ADD63C,3.2032*%
%ADD64R,3.2032X3.2032*%
%ADD65C,1.7232*%
%ADD66R,1.7232X1.7232*%
%ADD67C,0.2000*%
%ADD68R,1.4032X1.4032*%
%ADD69C,1.4032*%
%ADD70C,0.7016*%
G36*
X108500Y201000D02*
X96500D01*
Y206500D01*
X101500D01*
Y207500D01*
X96500D01*
Y213000D01*
X101500D01*
Y214000D01*
X96500D01*
Y219500D01*
X108500D01*
Y201000D01*
D02*
G37*
G36*
X137500Y214000D02*
X129500D01*
Y213000D01*
X137500D01*
Y207500D01*
X129500D01*
Y206500D01*
X137500D01*
Y201000D01*
X129500D01*
Y200000D01*
X137500D01*
Y194500D01*
X110500D01*
Y219500D01*
X137500D01*
Y214000D01*
D02*
G37*
G36*
X193500Y201000D02*
X181500D01*
Y206500D01*
X186500D01*
Y207500D01*
X181500D01*
Y213000D01*
X186500D01*
Y214000D01*
X181500D01*
Y219500D01*
X193500D01*
Y201000D01*
D02*
G37*
G36*
X222500Y214000D02*
X214500D01*
Y213000D01*
X222500D01*
Y207500D01*
X214500D01*
Y206500D01*
X222500D01*
Y201000D01*
X214500D01*
Y200000D01*
X222500D01*
Y194500D01*
X195500D01*
Y219500D01*
X222500D01*
Y214000D01*
D02*
G37*
G36*
X119500Y453000D02*
X127500D01*
Y454000D01*
X119500D01*
Y459500D01*
X127500D01*
Y460500D01*
X119500D01*
Y466000D01*
X127500D01*
Y467000D01*
X119500D01*
Y472500D01*
X146500D01*
Y447500D01*
X119500D01*
Y453000D01*
D02*
G37*
G36*
X148500Y466000D02*
X160500D01*
Y460500D01*
X155500D01*
Y459500D01*
X160500D01*
Y454000D01*
X155500D01*
Y453000D01*
X160500D01*
Y447500D01*
X148500D01*
Y466000D01*
D02*
G37*
G36*
X219500Y453000D02*
X227500D01*
Y454000D01*
X219500D01*
Y459500D01*
X227500D01*
Y460500D01*
X219500D01*
Y466000D01*
X227500D01*
Y467000D01*
X219500D01*
Y472500D01*
X246500D01*
Y447500D01*
X219500D01*
Y453000D01*
D02*
G37*
G36*
X248500Y466000D02*
X260500D01*
Y460500D01*
X255500D01*
Y459500D01*
X260500D01*
Y454000D01*
X255500D01*
Y453000D01*
X260500D01*
Y447500D01*
X248500D01*
Y466000D01*
D02*
G37*
D21*
X515293Y277043D02*
D03*
X495793D02*
D03*
X517000Y567500D02*
D03*
X497500D02*
D03*
X479750Y277043D02*
D03*
X460250D02*
D03*
D24*
X585000Y244750D02*
D03*
Y225250D02*
D03*
X640000Y294750D02*
D03*
Y275250D02*
D03*
X149000Y111750D02*
D03*
Y92250D02*
D03*
X110000Y555750D02*
D03*
Y536250D02*
D03*
X249000Y127250D02*
D03*
Y146750D02*
D03*
X656042Y530250D02*
D03*
Y549750D02*
D03*
X635000Y530250D02*
D03*
Y549750D02*
D03*
X205000D02*
D03*
Y530250D02*
D03*
D25*
X618250Y249377D02*
D03*
X641750D02*
D03*
X434250Y215000D02*
D03*
X410750D02*
D03*
D32*
X212000Y306000D02*
D03*
Y278000D02*
D03*
X187085Y306000D02*
D03*
Y278000D02*
D03*
X162543Y306000D02*
D03*
Y278000D02*
D03*
X138000Y306000D02*
D03*
Y278000D02*
D03*
D40*
X155261Y518000D02*
D03*
X124739D02*
D03*
X199739Y142000D02*
D03*
X230261D02*
D03*
X253261Y518000D02*
D03*
X222739D02*
D03*
X119427Y142000D02*
D03*
X88906D02*
D03*
D42*
X536792Y229503D02*
D03*
Y245702D02*
D03*
X475957Y236900D02*
D03*
Y253100D02*
D03*
X132000Y110100D02*
D03*
Y93900D02*
D03*
X172000Y583100D02*
D03*
Y566900D02*
D03*
X110000Y568900D02*
D03*
Y585100D02*
D03*
X247000Y113100D02*
D03*
Y96900D02*
D03*
X182000Y105100D02*
D03*
Y88900D02*
D03*
X595000Y461900D02*
D03*
Y478100D02*
D03*
X618000Y528100D02*
D03*
Y511900D02*
D03*
X673000Y528100D02*
D03*
Y511900D02*
D03*
X205000Y561900D02*
D03*
Y578100D02*
D03*
X270000Y582100D02*
D03*
Y565900D02*
D03*
D43*
X514500Y257000D02*
D03*
X505000D02*
D03*
X495500D02*
D03*
Y233000D02*
D03*
X514500D02*
D03*
D44*
X514750Y211798D02*
D03*
X495250D02*
D03*
X227250Y71000D02*
D03*
X246750D02*
D03*
X259750Y600000D02*
D03*
X240250D02*
D03*
X127250Y72000D02*
D03*
X146750D02*
D03*
X149750Y600000D02*
D03*
X130250D02*
D03*
D45*
X531135Y275000D02*
D03*
X547335D02*
D03*
X603343Y224303D02*
D03*
X619543D02*
D03*
X111100Y73000D02*
D03*
X94900D02*
D03*
X653100Y516000D02*
D03*
X636900D02*
D03*
D46*
X558495Y244750D02*
D03*
Y225250D02*
D03*
X617798Y294750D02*
D03*
Y275250D02*
D03*
X270000Y530250D02*
D03*
Y549750D02*
D03*
X142000Y128250D02*
D03*
Y147750D02*
D03*
X173000Y551750D02*
D03*
Y532250D02*
D03*
X182000Y120250D02*
D03*
Y139750D02*
D03*
D47*
X467500Y568000D02*
D03*
Y547000D02*
D03*
D48*
X666000Y631250D02*
D03*
X622000D02*
D03*
D49*
Y568750D02*
D03*
X666000D02*
D03*
D50*
X552772Y384600D02*
D03*
D51*
X632172Y410000D02*
D03*
Y359200D02*
D03*
D52*
X60000Y497100D02*
D03*
Y522900D02*
D03*
Y447900D02*
D03*
Y422100D02*
D03*
X50196Y192100D02*
D03*
Y217900D02*
D03*
X50000Y162900D02*
D03*
Y137100D02*
D03*
X675115Y392900D02*
D03*
Y367100D02*
D03*
X709358Y392900D02*
D03*
Y367100D02*
D03*
D53*
X265000Y349500D02*
D03*
Y394500D02*
D03*
D54*
X225000Y352200D02*
D03*
Y391800D02*
D03*
X185000Y352200D02*
D03*
Y391800D02*
D03*
X144000Y352200D02*
D03*
Y391800D02*
D03*
D55*
X97500Y89500D02*
D03*
X107000D02*
D03*
X116500D02*
D03*
Y114500D02*
D03*
X97500D02*
D03*
X202500Y89500D02*
D03*
X212000D02*
D03*
X221500D02*
D03*
Y114500D02*
D03*
X202500D02*
D03*
X249500Y577500D02*
D03*
X240000D02*
D03*
X230500D02*
D03*
Y552500D02*
D03*
X249500D02*
D03*
X149500Y577500D02*
D03*
X140000D02*
D03*
X130500D02*
D03*
Y552500D02*
D03*
X149500D02*
D03*
D56*
X195000Y600000D02*
D03*
X207000Y72000D02*
D03*
D57*
X176000Y600000D02*
D03*
X188000Y72000D02*
D03*
D58*
X102500Y197250D02*
D03*
X254500Y469750D02*
D03*
X187500Y197250D02*
D03*
X154500Y469750D02*
D03*
D59*
X672120Y460950D02*
D03*
Y473650D02*
D03*
Y486350D02*
D03*
Y499050D02*
D03*
X617880D02*
D03*
Y486350D02*
D03*
Y473650D02*
D03*
Y460950D02*
D03*
D60*
X785000Y634500D02*
D03*
Y535500D02*
D03*
D61*
X430000Y560200D02*
D03*
Y597300D02*
D03*
D62*
Y534800D02*
D03*
Y622700D02*
D03*
D63*
X94000Y284000D02*
D03*
X750000Y426000D02*
D03*
D64*
X-31000Y359000D02*
D03*
X875000Y351000D02*
D03*
D65*
X461900Y30000D02*
D03*
X563500D02*
D03*
X588900D02*
D03*
X538100D02*
D03*
X512700D02*
D03*
X487300D02*
D03*
X436500D02*
D03*
X411100D02*
D03*
X385700D02*
D03*
X461900Y182400D02*
D03*
X563500D02*
D03*
X588900D02*
D03*
X538100D02*
D03*
X512700D02*
D03*
X487300D02*
D03*
X436500D02*
D03*
X411100D02*
D03*
X385700D02*
D03*
D66*
X614300Y30000D02*
D03*
Y182400D02*
D03*
D67*
X30000Y30000D02*
D03*
X820000D02*
D03*
X30000Y770000D02*
D03*
X820000D02*
D03*
D68*
X716000Y705000D02*
D03*
X572957D02*
D03*
X429915Y704000D02*
D03*
X286872D02*
D03*
D69*
X716000Y755000D02*
D03*
X572957D02*
D03*
X429915Y754000D02*
D03*
X286872D02*
D03*
D70*
X577500Y320000D02*
D03*
X492500Y322500D02*
D03*
X555000Y462500D02*
D03*
X547500Y622500D02*
D03*
X570000Y552500D02*
D03*
X472500Y472500D02*
D03*
X670000Y232500D02*
D03*
X746250D02*
D03*
X822500D02*
D03*
X825000Y100000D02*
D03*
X747500D02*
D03*
X670000D02*
D03*
X447500Y92500D02*
D03*
X332500Y42500D02*
D03*
X345000Y157500D02*
D03*
X332500Y322500D02*
D03*
Y425000D02*
D03*
Y510000D02*
D03*
X271553Y103447D02*
D03*
X399876Y285124D02*
D03*
X632500Y232500D02*
D03*
X462500Y300000D02*
D03*
X530000Y207500D02*
D03*
X463450Y254050D02*
D03*
X560000Y277500D02*
D03*
X602500Y292500D02*
D03*
X532500Y567500D02*
D03*
X294053Y589053D02*
D03*
X922500Y387500D02*
D03*
X870000Y390000D02*
D03*
X922500Y442500D02*
D03*
X870000D02*
D03*
X-70000Y267500D02*
D03*
Y320000D02*
D03*
Y380000D02*
D03*
X830000Y705000D02*
D03*
X160000Y60000D02*
D03*
X277500Y595000D02*
D03*
X157500Y565000D02*
D03*
X7500Y605000D02*
D03*
Y477500D02*
D03*
Y322500D02*
D03*
Y150000D02*
D03*
Y90000D02*
D03*
X187500Y177500D02*
D03*
X107500Y160000D02*
D03*
X138419Y257463D02*
D03*
X155000Y490000D02*
D03*
X270000Y485000D02*
D03*
X690000Y550000D02*
D03*
X605000D02*
D03*
X332500Y650000D02*
D03*
Y577500D02*
D03*
X588410Y453410D02*
D03*
X687500Y475000D02*
D03*
X672500Y540000D02*
D03*
X616444Y536374D02*
D03*
X292500Y560000D02*
D03*
X596950Y498734D02*
D03*
X112997Y63770D02*
D03*
X130000Y127500D02*
D03*
X162500Y599999D02*
D03*
X292500Y637500D02*
D03*
Y612500D02*
D03*
Y542500D02*
D03*
Y520000D02*
D03*
Y502500D02*
D03*
Y487500D02*
D03*
Y470000D02*
D03*
Y450000D02*
D03*
Y432500D02*
D03*
Y417500D02*
D03*
X105000Y462500D02*
D03*
Y472500D02*
D03*
Y482500D02*
D03*
X92500Y462500D02*
D03*
Y472500D02*
D03*
Y482500D02*
D03*
X80000Y472500D02*
D03*
X67500D02*
D03*
X55000D02*
D03*
X42500D02*
D03*
X80000Y462500D02*
D03*
X67500D02*
D03*
X55000D02*
D03*
X42500D02*
D03*
Y482500D02*
D03*
X80000D02*
D03*
X67500D02*
D03*
X55000D02*
D03*
X62500Y177500D02*
D03*
X50000D02*
D03*
X37500D02*
D03*
X262500Y212500D02*
D03*
X250000D02*
D03*
X262500Y222500D02*
D03*
X250000D02*
D03*
X262500Y235000D02*
D03*
X250000D02*
D03*
X237500Y170000D02*
D03*
X225000D02*
D03*
X237500Y182500D02*
D03*
X225000D02*
D03*
X237500Y197500D02*
D03*
X225000D02*
D03*
X237500Y210000D02*
D03*
X225000D02*
D03*
X237500Y222500D02*
D03*
X225000Y225000D02*
D03*
X237500Y235000D02*
D03*
X225000D02*
D03*
X220000Y417500D02*
D03*
Y432500D02*
D03*
Y447500D02*
D03*
X207500D02*
D03*
X190000D02*
D03*
X172500D02*
D03*
X207500Y417500D02*
D03*
Y432500D02*
D03*
X190000Y417500D02*
D03*
Y432500D02*
D03*
X172500Y417500D02*
D03*
Y432500D02*
D03*
X152500Y417500D02*
D03*
Y432500D02*
D03*
X130000Y417500D02*
D03*
Y432500D02*
D03*
X112500Y417500D02*
D03*
X95000D02*
D03*
X112500Y432500D02*
D03*
X95000D02*
D03*
X270000Y330000D02*
D03*
X252500D02*
D03*
X237500D02*
D03*
X222500D02*
D03*
X210000D02*
D03*
X195000D02*
D03*
X180000D02*
D03*
X167500D02*
D03*
X155000D02*
D03*
X142500D02*
D03*
X130000D02*
D03*
X590472Y419600D02*
D03*
Y404600D02*
D03*
Y384600D02*
D03*
Y364600D02*
D03*
Y349600D02*
D03*
X577472Y419600D02*
D03*
Y404600D02*
D03*
Y384600D02*
D03*
Y364600D02*
D03*
Y349600D02*
D03*
X562472Y419600D02*
D03*
Y404600D02*
D03*
Y384600D02*
D03*
Y364600D02*
D03*
Y349600D02*
D03*
X547472Y419600D02*
D03*
Y404600D02*
D03*
Y384600D02*
D03*
Y364600D02*
D03*
Y349600D02*
D03*
X532472Y419600D02*
D03*
Y404600D02*
D03*
Y384600D02*
D03*
Y364600D02*
D03*
Y349600D02*
D03*
X517472Y419600D02*
D03*
Y404600D02*
D03*
Y384600D02*
D03*
Y364600D02*
D03*
Y349600D02*
D03*
X124000Y199250D02*
D03*
X115250D02*
D03*
X123750Y207250D02*
D03*
X115250Y207000D02*
D03*
X123500Y214750D02*
D03*
X115250Y215000D02*
D03*
X233000Y467750D02*
D03*
X241750D02*
D03*
X233250Y459750D02*
D03*
X241750Y460000D02*
D03*
X233500Y452250D02*
D03*
X241750Y452000D02*
D03*
X209000Y199250D02*
D03*
X200250D02*
D03*
X208750Y207250D02*
D03*
X200250Y207000D02*
D03*
X208500Y214750D02*
D03*
X200250Y215000D02*
D03*
X133000Y467750D02*
D03*
X141750D02*
D03*
X133250Y459750D02*
D03*
X141750Y460000D02*
D03*
X133500Y452250D02*
D03*
X141750Y452000D02*
D03*
M02*
