G04*
G04 #@! TF.GenerationSoftware,Altium Limited,Altium Designer,21.6.4 (81)*
G04*
G04 Layer_Color=65535*
%FSLAX44Y44*%
%MOMM*%
G71*
G04*
G04 #@! TF.SameCoordinates,04AFCEB9-1927-4C3B-B3D4-275DD85C2008*
G04*
G04*
G04 #@! TF.FilePolarity,Positive*
G04*
G01*
G75*
%ADD10C,0.2500*%
%ADD11C,0.2000*%
%ADD12C,0.5000*%
%ADD13C,0.3000*%
%ADD14C,0.1000*%
%ADD15C,0.1270*%
%ADD16C,0.1524*%
%ADD17C,0.2032*%
D10*
X524250Y257000D02*
G03*
X524250Y257000I-1250J0D01*
G01*
D11*
X-106500Y318000D02*
G03*
X-114000Y310500I0J-7500D01*
G01*
Y258500D02*
G03*
X-106500Y251000I7500J0D01*
G01*
X-114000Y333500D02*
G03*
X-106500Y326000I7500J0D01*
G01*
Y393000D02*
G03*
X-114000Y385500I0J-7500D01*
G01*
X950500Y392000D02*
G03*
X958000Y399500I0J7500D01*
G01*
Y451500D02*
G03*
X950500Y459000I-7500J0D01*
G01*
X958000Y376500D02*
G03*
X950500Y384000I-7500J0D01*
G01*
Y317000D02*
G03*
X958000Y324500I0J7500D01*
G01*
X58000Y30000D02*
G03*
X58000Y30000I-28000J0D01*
G01*
X160750Y604000D02*
G03*
X160750Y602000I0J-1000D01*
G01*
D02*
G03*
X160750Y604000I0J1000D01*
G01*
X172750Y74000D02*
G03*
X172750Y76000I0J1000D01*
G01*
D02*
G03*
X172750Y74000I0J-1000D01*
G01*
X93000Y220000D02*
G03*
X93000Y220000I-1000J0D01*
G01*
X266000Y447000D02*
G03*
X266000Y447000I-1000J0D01*
G01*
X178000Y220000D02*
G03*
X178000Y220000I-1000J0D01*
G01*
X166000Y447000D02*
G03*
X166000Y447000I-1000J0D01*
G01*
X848000Y30000D02*
G03*
X848000Y30000I-28000J0D01*
G01*
X58000Y770000D02*
G03*
X58000Y770000I-28000J0D01*
G01*
X848000D02*
G03*
X848000Y770000I-28000J0D01*
G01*
X781000Y730000D02*
G03*
X781000Y730000I-65000J0D01*
G01*
X637957D02*
G03*
X637957Y730000I-65000J0D01*
G01*
X494915Y729000D02*
G03*
X494915Y729000I-65000J0D01*
G01*
X351872D02*
G03*
X351872Y729000I-65000J0D01*
G01*
X520000Y242500D02*
Y247500D01*
X490000Y242500D02*
Y247500D01*
X520000D01*
X490000Y242500D02*
X520000D01*
X504292Y270042D02*
X506792D01*
X504292Y284042D02*
X506792D01*
X592000Y233750D02*
Y236250D01*
X578000Y233750D02*
Y236250D01*
X626031Y241595D02*
X633969D01*
X626031Y257157D02*
X633969D01*
X647000Y283750D02*
Y286250D01*
X633000Y283750D02*
Y286250D01*
X416550Y520600D02*
Y574400D01*
X443450D01*
Y520600D02*
Y574400D01*
X416550Y520600D02*
X443450D01*
X506000Y560500D02*
X508500D01*
X506000Y574500D02*
X508500D01*
X472500Y556000D02*
Y559000D01*
X462500Y556000D02*
Y559000D01*
X472500D01*
X114000Y241500D02*
Y403500D01*
X-84000Y241500D02*
Y403500D01*
Y241500D02*
X114000D01*
X-84000Y403500D02*
X114000Y403500D01*
X-106500Y318000D02*
X-84000D01*
X-114000Y258000D02*
Y310500D01*
X-106500Y251000D02*
X-84000D01*
X-106500Y326000D02*
X-84000D01*
X-114000Y333000D02*
Y385500D01*
X-106500Y393000D02*
X-84000D01*
X416550Y636900D02*
X443450D01*
X416550Y583100D02*
Y636900D01*
Y583100D02*
X443450D01*
Y636900D01*
X630750Y16500D02*
Y43500D01*
X369250D02*
X630750D01*
X369250Y16500D02*
Y43500D01*
Y16500D02*
X630750D01*
Y168900D02*
Y195900D01*
X369250D02*
X630750D01*
X369250Y168900D02*
Y195900D01*
Y168900D02*
X630750D01*
X418531Y222781D02*
X426469D01*
X418531Y207219D02*
X426469D01*
X730000Y306500D02*
Y468500D01*
X928000Y306500D02*
Y468500D01*
X730000D02*
X928000D01*
X730000Y306500D02*
X928000Y306500D01*
Y392000D02*
X950500D01*
X958000Y399500D02*
Y452000D01*
X928000Y459000D02*
X950500D01*
X928000Y384000D02*
X950500D01*
X958000Y324500D02*
Y377000D01*
X928000Y317000D02*
X950500D01*
X48500Y510000D02*
X71500D01*
X48500Y435000D02*
X71500D01*
X38696Y205000D02*
X61696D01*
X38500Y150000D02*
X61500D01*
X221000Y286500D02*
Y297500D01*
X203000Y286500D02*
Y297500D01*
X196085Y286500D02*
Y297500D01*
X178085Y286500D02*
Y297500D01*
X250000Y372000D02*
X280000D01*
X171543Y286500D02*
Y297500D01*
X153543Y286500D02*
Y297500D01*
X210000Y372000D02*
X240000D01*
X147000Y286500D02*
Y297500D01*
X129000Y286500D02*
Y297500D01*
X170000Y372000D02*
X200000D01*
X129000D02*
X159000D01*
X663615Y380000D02*
X686615D01*
X697858D02*
X720857D01*
X92500Y99000D02*
Y105000D01*
X121500D01*
Y99000D02*
Y105000D01*
X92500Y99000D02*
X121500D01*
X92000Y83500D02*
Y95500D01*
X197500Y99000D02*
Y105000D01*
X226500D01*
Y99000D02*
Y105000D01*
X197500Y99000D02*
X226500D01*
X197000Y83500D02*
Y95500D01*
X629000Y455500D02*
X661000D01*
X629000D02*
Y504500D01*
X661000D01*
Y455500D02*
Y504500D01*
X664500Y454200D02*
X679750D01*
X254500Y562000D02*
Y568000D01*
X225500Y562000D02*
X254500D01*
X225500D02*
Y568000D01*
X254500D01*
X255000Y571500D02*
Y583500D01*
X156000Y100750D02*
Y103250D01*
X142000Y100750D02*
Y103250D01*
X135269Y510000D02*
X144731D01*
X135269Y526000D02*
X144731D01*
X210270Y150000D02*
X219731D01*
X210270Y134000D02*
X219731D01*
X117000Y544750D02*
Y547250D01*
X103000Y544750D02*
Y547250D01*
X242000Y135750D02*
Y138250D01*
X256000Y135750D02*
Y138250D01*
X649043Y538750D02*
Y541250D01*
X663043Y538750D02*
Y541250D01*
X628000Y538750D02*
Y541250D01*
X642000Y538750D02*
Y541250D01*
X233270Y510000D02*
X242731D01*
X233270Y526000D02*
X242731D01*
X99436Y134000D02*
X108897D01*
X99436Y150000D02*
X108897D01*
X212000Y538750D02*
Y541250D01*
X198000Y538750D02*
Y541250D01*
X847500Y522500D02*
Y647500D01*
X722500Y522500D02*
Y647500D01*
X815000Y522500D02*
X847500D01*
X815000Y647500D02*
X847500D01*
X722500D02*
X755000D01*
X722500Y522500D02*
X755000D01*
X468750Y270042D02*
X471250D01*
X468750Y284042D02*
X471250D01*
X154500Y562000D02*
Y568000D01*
X125500Y562000D02*
X154500D01*
X125500D02*
Y568000D01*
X154500D01*
X155000Y571500D02*
Y583500D01*
D12*
X840000Y637500D02*
G03*
X840000Y637500I-2500J0D01*
G01*
D13*
X478930Y549880D02*
Y565120D01*
X484010Y560040D01*
D14*
X632500Y562000D02*
X655000D01*
X633000Y672000D02*
X655500D01*
X602472Y343950D02*
Y424600D01*
X533937Y55004D02*
X533104Y54171D01*
Y52505D01*
X533937Y51672D01*
X537269D01*
X538102Y52505D01*
Y54171D01*
X537269Y55004D01*
X534770Y56670D02*
X537269D01*
X538102Y57503D01*
Y60002D01*
X534770D01*
Y61669D02*
X538102D01*
X536436D01*
X535603Y62502D01*
X534770Y63335D01*
Y64168D01*
Y66667D02*
X538102D01*
X536436D01*
X535603Y67500D01*
X534770Y68333D01*
Y69166D01*
X538102Y74165D02*
Y72498D01*
X537269Y71665D01*
X535603D01*
X534770Y72498D01*
Y74165D01*
X535603Y74998D01*
X536436D01*
Y71665D01*
X538102Y76664D02*
X534770D01*
Y79163D01*
X535603Y79996D01*
X538102D01*
X533937Y82495D02*
X534770D01*
Y81662D01*
Y83328D01*
Y82495D01*
X537269D01*
X538102Y83328D01*
X546500Y60835D02*
X543168D01*
X541502Y62502D01*
X543168Y64168D01*
X546500D01*
X544001D01*
Y60835D01*
X541502Y65834D02*
X546500D01*
Y68333D01*
X545667Y69166D01*
X542335D01*
X541502Y68333D01*
Y65834D01*
X542335Y74165D02*
X541502Y73331D01*
Y71665D01*
X542335Y70832D01*
X545667D01*
X546500Y71665D01*
Y73331D01*
X545667Y74165D01*
X449835Y591668D02*
X449002Y590835D01*
Y589169D01*
X449835Y588336D01*
X453167D01*
X454000Y589169D01*
Y590835D01*
X453167Y591668D01*
X451501D01*
Y590002D01*
X454000Y593334D02*
X449002D01*
X454000Y596666D01*
X449002D01*
Y598332D02*
X454000D01*
Y600831D01*
X453167Y601665D01*
X449835D01*
X449002Y600831D01*
Y598332D01*
X561502Y51256D02*
X564834D01*
X566500Y52922D01*
X564834Y54588D01*
X561502D01*
X566500Y57087D02*
Y58754D01*
X565667Y59587D01*
X564001D01*
X563168Y58754D01*
Y57087D01*
X564001Y56255D01*
X565667D01*
X566500Y57087D01*
X563168Y61253D02*
X565667D01*
X566500Y62086D01*
Y64585D01*
X563168D01*
X562335Y67084D02*
X563168D01*
Y66251D01*
Y67917D01*
Y67084D01*
X565667D01*
X566500Y67917D01*
Y75415D02*
X563168D01*
X561502Y77081D01*
X563168Y78747D01*
X566500D01*
X564001D01*
Y75415D01*
X561502Y80413D02*
X566500D01*
Y82912D01*
X565667Y83745D01*
X562335D01*
X561502Y82912D01*
Y80413D01*
X562335Y88744D02*
X561502Y87911D01*
Y86245D01*
X562335Y85412D01*
X565667D01*
X566500Y86245D01*
Y87911D01*
X565667Y88744D01*
X365602Y88757D02*
X360604D01*
X362270Y90423D01*
X360604Y92089D01*
X365602D01*
Y93755D02*
Y95421D01*
Y94588D01*
X362270D01*
Y93755D01*
Y101253D02*
Y98754D01*
X363103Y97921D01*
X364769D01*
X365602Y98754D01*
Y101253D01*
X362270Y102919D02*
X365602D01*
X363936D01*
X363103Y103752D01*
X362270Y104585D01*
Y105418D01*
X365602Y108750D02*
Y110417D01*
X364769Y111250D01*
X363103D01*
X362270Y110417D01*
Y108750D01*
X363103Y107917D01*
X364769D01*
X365602Y108750D01*
X363103Y112916D02*
Y116248D01*
X360604Y117914D02*
X364769D01*
X365602Y118747D01*
Y120413D01*
X364769Y121246D01*
X360604D01*
X361437Y126245D02*
X360604Y125412D01*
Y123746D01*
X361437Y122913D01*
X362270D01*
X363103Y123746D01*
Y125412D01*
X363936Y126245D01*
X364769D01*
X365602Y125412D01*
Y123746D01*
X364769Y122913D01*
X360604Y127911D02*
X365602D01*
Y130410D01*
X364769Y131243D01*
X363936D01*
X363103Y130410D01*
Y127911D01*
Y130410D01*
X362270Y131243D01*
X361437D01*
X360604Y130410D01*
Y127911D01*
X369002Y91673D02*
Y88341D01*
X371501D01*
Y90007D01*
Y88341D01*
X374000D01*
X370668Y94172D02*
Y95838D01*
X371501Y96671D01*
X374000D01*
Y94172D01*
X373167Y93339D01*
X372334Y94172D01*
Y96671D01*
X370668Y101670D02*
Y99170D01*
X371501Y98337D01*
X373167D01*
X374000Y99170D01*
Y101670D01*
Y105835D02*
Y104169D01*
X373167Y103336D01*
X371501D01*
X370668Y104169D01*
Y105835D01*
X371501Y106668D01*
X372334D01*
Y103336D01*
X369002Y113332D02*
X374000D01*
X371501D01*
Y116665D01*
X369002D01*
X374000D01*
Y120830D02*
Y119164D01*
X373167Y118331D01*
X371501D01*
X370668Y119164D01*
Y120830D01*
X371501Y121663D01*
X372334D01*
Y118331D01*
X370668Y123329D02*
X374000D01*
X372334D01*
X371501Y124162D01*
X370668Y124995D01*
Y125828D01*
X374000Y130827D02*
Y129160D01*
X373167Y128327D01*
X371501D01*
X370668Y129160D01*
Y130827D01*
X371501Y131660D01*
X372334D01*
Y128327D01*
X434002Y154167D02*
Y150835D01*
X436501D01*
X435668Y152501D01*
Y153334D01*
X436501Y154167D01*
X438167D01*
X439000Y153334D01*
Y151668D01*
X438167Y150835D01*
X434002Y155833D02*
X437334D01*
X439000Y157499D01*
X437334Y159165D01*
X434002D01*
X387336Y89173D02*
Y92505D01*
Y90839D01*
X392334D01*
Y94171D02*
Y95837D01*
Y95004D01*
X389002D01*
Y94171D01*
X392334Y98336D02*
X389002D01*
Y100836D01*
X389835Y101669D01*
X392334D01*
X389002Y103335D02*
X391501D01*
X392334Y104168D01*
Y106667D01*
X393167D01*
X394000Y105834D01*
Y105001D01*
X392334Y106667D02*
X389002D01*
X392334Y108333D02*
X387336D01*
Y110832D01*
X388168Y111665D01*
X389835D01*
X390668Y110832D01*
Y108333D01*
X387336Y113331D02*
Y114998D01*
Y114164D01*
X392334D01*
Y113331D01*
Y114998D01*
X388168Y120829D02*
X387336Y119996D01*
Y118330D01*
X388168Y117497D01*
X391501D01*
X392334Y118330D01*
Y119996D01*
X391501Y120829D01*
X387336Y124994D02*
Y123328D01*
X388168Y122495D01*
X391501D01*
X392334Y123328D01*
Y124994D01*
X391501Y125827D01*
X388168D01*
X387336Y124994D01*
X454167Y538498D02*
X450835D01*
Y535999D01*
X452501Y536832D01*
X453334D01*
X454167Y535999D01*
Y534333D01*
X453334Y533500D01*
X451668D01*
X450835Y534333D01*
X455833Y538498D02*
Y535166D01*
X457499Y533500D01*
X459165Y535166D01*
Y538498D01*
X612335Y54168D02*
X611502Y53335D01*
Y51669D01*
X612335Y50835D01*
X615667D01*
X616500Y51669D01*
Y53335D01*
X615667Y54168D01*
X614001D01*
Y52502D01*
X616500Y55834D02*
X611502D01*
X616500Y59166D01*
X611502D01*
Y60832D02*
X616500D01*
Y63331D01*
X615667Y64165D01*
X612335D01*
X611502Y63331D01*
Y60832D01*
X449835Y556668D02*
X449002Y555835D01*
Y554169D01*
X449835Y553336D01*
X453167D01*
X454000Y554169D01*
Y555835D01*
X453167Y556668D01*
X451501D01*
Y555002D01*
X454000Y558334D02*
X449002D01*
X454000Y561666D01*
X449002D01*
Y563332D02*
X454000D01*
Y565831D01*
X453167Y566665D01*
X449835D01*
X449002Y565831D01*
Y563332D01*
X465834Y631896D02*
Y628564D01*
X467500Y626898D01*
X469166Y628564D01*
Y631896D01*
X470832Y629397D02*
X474165D01*
X472498Y631063D02*
Y627731D01*
X452921Y623498D02*
X449589D01*
Y618500D01*
X452921D01*
X449589Y620999D02*
X451255D01*
X454588Y621832D02*
X457920Y618500D01*
X456254Y620166D01*
X457920Y621832D01*
X454588Y618500D01*
X460419Y622665D02*
Y621832D01*
X459586D01*
X461252D01*
X460419D01*
Y619333D01*
X461252Y618500D01*
X466250D02*
X464584D01*
X463751Y619333D01*
Y620999D01*
X464584Y621832D01*
X466250D01*
X467084Y620999D01*
Y620166D01*
X463751D01*
X468750Y621832D02*
Y618500D01*
Y620166D01*
X469583Y620999D01*
X470416Y621832D01*
X471249D01*
X473748Y618500D02*
Y621832D01*
X476247D01*
X477080Y620999D01*
Y618500D01*
X479579Y621832D02*
X481245D01*
X482079Y620999D01*
Y618500D01*
X479579D01*
X478746Y619333D01*
X479579Y620166D01*
X482079D01*
X483745Y618500D02*
X485411D01*
X484578D01*
Y623498D01*
X483745D01*
X407335Y151668D02*
X406502Y150835D01*
Y149169D01*
X407335Y148336D01*
X410667D01*
X411500Y149169D01*
Y150835D01*
X410667Y151668D01*
X409001D01*
Y150002D01*
X411500Y153334D02*
X406502D01*
X411500Y156666D01*
X406502D01*
Y158332D02*
X411500D01*
Y160831D01*
X410667Y161665D01*
X407335D01*
X406502Y160831D01*
Y158332D01*
X623501Y386001D02*
Y388999D01*
X625001D01*
X625501Y388500D01*
Y387500D01*
X625001Y387000D01*
X623501D01*
X624501D02*
X625501Y386001D01*
X626500Y388500D02*
X627000Y388999D01*
X628000D01*
X628500Y388500D01*
Y388000D01*
X628000Y387500D01*
X627500D01*
X628000D01*
X628500Y387000D01*
Y386500D01*
X628000Y386001D01*
X627000D01*
X626500Y386500D01*
X629499Y388999D02*
X631499D01*
Y388500D01*
X629499Y386500D01*
Y386001D01*
X553501Y233500D02*
Y236500D01*
X555001D01*
X555501Y236000D01*
Y235000D01*
X555001Y234500D01*
X553501D01*
X554501D02*
X555501Y233500D01*
X558500D02*
X556500D01*
X558500Y235500D01*
Y236000D01*
X558000Y236500D01*
X557000D01*
X556500Y236000D01*
X561499Y236500D02*
X560499Y236000D01*
X559499Y235000D01*
Y234000D01*
X559999Y233500D01*
X560999D01*
X561499Y234000D01*
Y234500D01*
X560999Y235000D01*
X559499D01*
X718001Y736000D02*
X717501Y736499D01*
X716501D01*
X716001Y736000D01*
Y734000D01*
X716501Y733501D01*
X717501D01*
X718001Y734000D01*
X719000Y736000D02*
X719500Y736499D01*
X720500D01*
X721000Y736000D01*
Y735500D01*
X720500Y735000D01*
X720000D01*
X720500D01*
X721000Y734500D01*
Y734000D01*
X720500Y733501D01*
X719500D01*
X719000Y734000D01*
X721999Y736499D02*
X723999D01*
Y736000D01*
X721999Y734000D01*
Y733501D01*
X573001Y731000D02*
X572501Y731499D01*
X571501D01*
X571001Y731000D01*
Y729000D01*
X571501Y728501D01*
X572501D01*
X573001Y729000D01*
X574000Y731000D02*
X574500Y731499D01*
X575500D01*
X576000Y731000D01*
Y730500D01*
X575500Y730000D01*
X575000D01*
X575500D01*
X576000Y729500D01*
Y729000D01*
X575500Y728501D01*
X574500D01*
X574000Y729000D01*
X578999Y731499D02*
X577999Y731000D01*
X576999Y730000D01*
Y729000D01*
X577499Y728501D01*
X578499D01*
X578999Y729000D01*
Y729500D01*
X578499Y730000D01*
X576999D01*
X428001Y736000D02*
X427501Y736499D01*
X426501D01*
X426001Y736000D01*
Y734000D01*
X426501Y733501D01*
X427501D01*
X428001Y734000D01*
X429000Y736000D02*
X429500Y736499D01*
X430500D01*
X431000Y736000D01*
Y735500D01*
X430500Y735000D01*
X430000D01*
X430500D01*
X431000Y734500D01*
Y734000D01*
X430500Y733501D01*
X429500D01*
X429000Y734000D01*
X433999Y736499D02*
X431999D01*
Y735000D01*
X432999Y735500D01*
X433499D01*
X433999Y735000D01*
Y734000D01*
X433499Y733501D01*
X432499D01*
X431999Y734000D01*
X283001Y731000D02*
X282501Y731499D01*
X281501D01*
X281001Y731000D01*
Y729000D01*
X281501Y728501D01*
X282501D01*
X283001Y729000D01*
X284000Y731000D02*
X284500Y731499D01*
X285500D01*
X286000Y731000D01*
Y730500D01*
X285500Y730000D01*
X285000D01*
X285500D01*
X286000Y729500D01*
Y729000D01*
X285500Y728501D01*
X284500D01*
X284000Y729000D01*
X288499Y728501D02*
Y731499D01*
X286999Y730000D01*
X288999D01*
X792501Y733501D02*
Y736499D01*
X793501Y735500D01*
X794500Y736499D01*
Y733501D01*
X795500Y736000D02*
X796000Y736499D01*
X796999D01*
X797499Y736000D01*
Y735500D01*
X796999Y735000D01*
X797499Y734500D01*
Y734000D01*
X796999Y733501D01*
X796000D01*
X795500Y734000D01*
Y734500D01*
X796000Y735000D01*
X795500Y735500D01*
Y736000D01*
X796000Y735000D02*
X796999D01*
X789982Y67098D02*
Y70097D01*
X790982Y69097D01*
X791981Y70097D01*
Y67098D01*
X792981Y70097D02*
X794980D01*
Y69597D01*
X792981Y67598D01*
Y67098D01*
X12501Y68500D02*
Y71500D01*
X13500Y70500D01*
X14500Y71500D01*
Y68500D01*
X17499Y71500D02*
X16500Y71000D01*
X15500Y70000D01*
Y69000D01*
X16000Y68500D01*
X16999D01*
X17499Y69000D01*
Y69500D01*
X16999Y70000D01*
X15500D01*
X17501Y723501D02*
Y726499D01*
X18500Y725500D01*
X19500Y726499D01*
Y723501D01*
X22499Y726499D02*
X20500D01*
Y725000D01*
X21500Y725500D01*
X21999D01*
X22499Y725000D01*
Y724000D01*
X21999Y723501D01*
X21000D01*
X20500Y724000D01*
X266001Y538501D02*
Y541499D01*
X267501D01*
X268001Y541000D01*
Y540000D01*
X267501Y539500D01*
X266001D01*
X267001D02*
X268001Y538501D01*
X271000D02*
X269000D01*
X271000Y540500D01*
Y541000D01*
X270500Y541499D01*
X269500D01*
X269000Y541000D01*
X273999Y538501D02*
X271999D01*
X273999Y540500D01*
Y541000D01*
X273499Y541499D01*
X272499D01*
X271999Y541000D01*
X138501Y136501D02*
Y139500D01*
X140001D01*
X140500Y139000D01*
Y138000D01*
X140001Y137500D01*
X138501D01*
X139501D02*
X140500Y136501D01*
X143500D02*
X141500D01*
X143500Y138500D01*
Y139000D01*
X143000Y139500D01*
X142000D01*
X141500Y139000D01*
X144499Y136501D02*
X145499D01*
X144999D01*
Y139500D01*
X144499Y139000D01*
X251500Y596001D02*
X248500D01*
Y597501D01*
X249000Y598001D01*
X250000D01*
X250500Y597501D01*
Y596001D01*
Y597001D02*
X251500Y598001D01*
Y601000D02*
Y599000D01*
X249500Y601000D01*
X249000D01*
X248500Y600500D01*
Y599500D01*
X249000Y599000D01*
Y601999D02*
X248500Y602499D01*
Y603499D01*
X249000Y603999D01*
X251000D01*
X251500Y603499D01*
Y602499D01*
X251000Y601999D01*
X249000D01*
X135500Y73706D02*
X138499D01*
Y72207D01*
X138000Y71707D01*
X137000D01*
X136500Y72207D01*
Y73706D01*
Y72707D02*
X135500Y71707D01*
Y70707D02*
Y69707D01*
Y70207D01*
X138499D01*
X138000Y70707D01*
X136000Y68208D02*
X135500Y67708D01*
Y66708D01*
X136000Y66209D01*
X138000D01*
X138499Y66708D01*
Y67708D01*
X138000Y68208D01*
X137500D01*
X137000Y67708D01*
Y66209D01*
X183751Y541001D02*
Y543999D01*
X185251D01*
X185751Y543500D01*
Y542500D01*
X185251Y542000D01*
X183751D01*
X184751D02*
X185751Y541001D01*
X186750D02*
X187750D01*
X187250D01*
Y543999D01*
X186750Y543500D01*
X189249D02*
X189749Y543999D01*
X190749D01*
X191249Y543500D01*
Y543000D01*
X190749Y542500D01*
X190249D01*
X190749D01*
X191249Y542000D01*
Y541500D01*
X190749Y541001D01*
X189749D01*
X189249Y541500D01*
X193751Y126000D02*
Y129000D01*
X195251D01*
X195751Y128500D01*
Y127500D01*
X195251Y127000D01*
X193751D01*
X194751D02*
X195751Y126000D01*
X196750D02*
X197750D01*
X197250D01*
Y129000D01*
X196750Y128500D01*
X201249Y126000D02*
X199249D01*
X201249Y128000D01*
Y128500D01*
X200749Y129000D01*
X199749D01*
X199249Y128500D01*
X141500Y596251D02*
X138500D01*
Y597751D01*
X139000Y598251D01*
X140000D01*
X140500Y597751D01*
Y596251D01*
Y597251D02*
X141500Y598251D01*
Y599250D02*
Y600250D01*
Y599750D01*
X138500D01*
X139000Y599250D01*
Y601749D02*
X138500Y602249D01*
Y603249D01*
X139000Y603749D01*
X141000D01*
X141500Y603249D01*
Y602249D01*
X141000Y601749D01*
X139000D01*
X238500Y69501D02*
X235501D01*
Y71000D01*
X236000Y71500D01*
X237000D01*
X237500Y71000D01*
Y69501D01*
Y70500D02*
X238500Y71500D01*
X238000Y72500D02*
X238500Y73000D01*
Y73999D01*
X238000Y74499D01*
X236000D01*
X235501Y73999D01*
Y73000D01*
X236000Y72500D01*
X236500D01*
X237000Y73000D01*
Y74499D01*
X721148Y660431D02*
Y657432D01*
X723147D01*
X726146D02*
X724147D01*
X726146Y659431D01*
Y659931D01*
X725647Y660431D01*
X724647D01*
X724147Y659931D01*
X606594Y691214D02*
Y694213D01*
X608093D01*
X608593Y693713D01*
Y692713D01*
X608093Y692214D01*
X606594D01*
X607594D02*
X608593Y691214D01*
X609593Y693713D02*
X610093Y694213D01*
X611093D01*
X611592Y693713D01*
Y693213D01*
X611093Y692713D01*
X610593D01*
X611093D01*
X611592Y692214D01*
Y691714D01*
X611093Y691214D01*
X610093D01*
X609593Y691714D01*
X614591Y694213D02*
X613592Y693713D01*
X612592Y692713D01*
Y691714D01*
X613092Y691214D01*
X614092D01*
X614591Y691714D01*
Y692214D01*
X614092Y692713D01*
X612592D01*
X506499Y208501D02*
X503501D01*
Y210001D01*
X504000Y210501D01*
X505000D01*
X505500Y210001D01*
Y208501D01*
Y209501D02*
X506499Y210501D01*
X504000Y211500D02*
X503501Y212000D01*
Y213000D01*
X504000Y213500D01*
X504500D01*
X505000Y213000D01*
Y212500D01*
Y213000D01*
X505500Y213500D01*
X506000D01*
X506499Y213000D01*
Y212000D01*
X506000Y211500D01*
X503501Y216499D02*
Y214499D01*
X505000D01*
X504500Y215499D01*
Y215999D01*
X505000Y216499D01*
X506000D01*
X506499Y215999D01*
Y214999D01*
X506000Y214499D01*
X581001Y233500D02*
Y236500D01*
X582501D01*
X583001Y236000D01*
Y235000D01*
X582501Y234500D01*
X581001D01*
X582001D02*
X583001Y233500D01*
X584000Y236000D02*
X584500Y236500D01*
X585500D01*
X586000Y236000D01*
Y235500D01*
X585500Y235000D01*
X585000D01*
X585500D01*
X586000Y234500D01*
Y234000D01*
X585500Y233500D01*
X584500D01*
X584000Y234000D01*
X588499Y233500D02*
Y236500D01*
X586999Y235000D01*
X588999D01*
X501001Y288500D02*
Y291500D01*
X502501D01*
X503001Y291000D01*
Y290000D01*
X502501Y289500D01*
X501001D01*
X502001D02*
X503001Y288500D01*
X504000Y291000D02*
X504500Y291500D01*
X505500D01*
X506000Y291000D01*
Y290500D01*
X505500Y290000D01*
X505000D01*
X505500D01*
X506000Y289500D01*
Y289000D01*
X505500Y288500D01*
X504500D01*
X504000Y289000D01*
X506999Y291000D02*
X507499Y291500D01*
X508499D01*
X508999Y291000D01*
Y290500D01*
X508499Y290000D01*
X507999D01*
X508499D01*
X508999Y289500D01*
Y289000D01*
X508499Y288500D01*
X507499D01*
X506999Y289000D01*
X613501Y283500D02*
Y286500D01*
X615001D01*
X615501Y286000D01*
Y285000D01*
X615001Y284500D01*
X613501D01*
X614501D02*
X615501Y283500D01*
X616500Y286000D02*
X617000Y286500D01*
X618000D01*
X618500Y286000D01*
Y285500D01*
X618000Y285000D01*
X617500D01*
X618000D01*
X618500Y284500D01*
Y284000D01*
X618000Y283500D01*
X617000D01*
X616500Y284000D01*
X621499Y283500D02*
X619499D01*
X621499Y285500D01*
Y286000D01*
X620999Y286500D01*
X619999D01*
X619499Y286000D01*
X466501Y276000D02*
Y279000D01*
X468001D01*
X468501Y278500D01*
Y277500D01*
X468001Y277000D01*
X466501D01*
X467501D02*
X468501Y276000D01*
X469500Y278500D02*
X470000Y279000D01*
X471000D01*
X471499Y278500D01*
Y278000D01*
X471000Y277500D01*
X470500D01*
X471000D01*
X471499Y277000D01*
Y276500D01*
X471000Y276000D01*
X470000D01*
X469500Y276500D01*
X472499Y276000D02*
X473499D01*
X472999D01*
Y279000D01*
X472499Y278500D01*
X636001Y283500D02*
Y286500D01*
X637501D01*
X638001Y286000D01*
Y285000D01*
X637501Y284500D01*
X636001D01*
X637001D02*
X638001Y283500D01*
X639000Y286000D02*
X639500Y286500D01*
X640500D01*
X641000Y286000D01*
Y285500D01*
X640500Y285000D01*
X640000D01*
X640500D01*
X641000Y284500D01*
Y284000D01*
X640500Y283500D01*
X639500D01*
X639000Y284000D01*
X641999Y286000D02*
X642499Y286500D01*
X643499D01*
X643999Y286000D01*
Y284000D01*
X643499Y283500D01*
X642499D01*
X641999Y284000D01*
Y286000D01*
X666001Y546001D02*
Y548999D01*
X667501D01*
X668001Y548500D01*
Y547500D01*
X667501Y547000D01*
X666001D01*
X667001D02*
X668001Y546001D01*
X671000D02*
X669000D01*
X671000Y548000D01*
Y548500D01*
X670500Y548999D01*
X669500D01*
X669000Y548500D01*
X671999Y546500D02*
X672499Y546001D01*
X673499D01*
X673999Y546500D01*
Y548500D01*
X673499Y548999D01*
X672499D01*
X671999Y548500D01*
Y548000D01*
X672499Y547500D01*
X673999D01*
X631001Y538501D02*
Y541499D01*
X632501D01*
X633001Y541000D01*
Y540000D01*
X632501Y539500D01*
X631001D01*
X632001D02*
X633001Y538501D01*
X636000D02*
X634000D01*
X636000Y540500D01*
Y541000D01*
X635500Y541499D01*
X634500D01*
X634000Y541000D01*
X636999D02*
X637499Y541499D01*
X638499D01*
X638999Y541000D01*
Y540500D01*
X638499Y540000D01*
X638999Y539500D01*
Y539000D01*
X638499Y538501D01*
X637499D01*
X636999Y539000D01*
Y539500D01*
X637499Y540000D01*
X636999Y540500D01*
Y541000D01*
X637499Y540000D02*
X638499D01*
X233751Y516001D02*
Y518999D01*
X235251D01*
X235751Y518500D01*
Y517500D01*
X235251Y517000D01*
X233751D01*
X234751D02*
X235751Y516001D01*
X236750D02*
X237750D01*
X237250D01*
Y518999D01*
X236750Y518500D01*
X239249D02*
X239749Y518999D01*
X240749D01*
X241249Y518500D01*
Y518000D01*
X240749Y517500D01*
X241249Y517000D01*
Y516500D01*
X240749Y516001D01*
X239749D01*
X239249Y516500D01*
Y517000D01*
X239749Y517500D01*
X239249Y518000D01*
Y518500D01*
X239749Y517500D02*
X240749D01*
X107915Y143499D02*
Y140500D01*
X106416D01*
X105916Y141000D01*
Y142000D01*
X106416Y142500D01*
X107915D01*
X106916D02*
X105916Y143499D01*
X104916D02*
X103916D01*
X104416D01*
Y140500D01*
X104916Y141000D01*
X102417Y140500D02*
X100418D01*
Y141000D01*
X102417Y143000D01*
Y143499D01*
X201251Y538501D02*
Y541499D01*
X202751D01*
X203251Y541000D01*
Y540000D01*
X202751Y539500D01*
X201251D01*
X202251D02*
X203251Y538501D01*
X204250D02*
X205250D01*
X204750D01*
Y541499D01*
X204250Y541000D01*
X208749Y541499D02*
X207749Y541000D01*
X206749Y540000D01*
Y539000D01*
X207249Y538501D01*
X208249D01*
X208749Y539000D01*
Y539500D01*
X208249Y540000D01*
X206749D01*
X145416Y100500D02*
Y103499D01*
X146916D01*
X147416Y103000D01*
Y102000D01*
X146916Y101500D01*
X145416D01*
X146416D02*
X147416Y100500D01*
X148415D02*
X149415D01*
X148915D01*
Y103499D01*
X148415Y103000D01*
X152914Y103499D02*
X150914D01*
Y102000D01*
X151914Y102500D01*
X152414D01*
X152914Y102000D01*
Y101000D01*
X152414Y100500D01*
X151414D01*
X150914Y101000D01*
X137501Y518501D02*
Y521499D01*
X139000D01*
X139500Y521000D01*
Y520000D01*
X139000Y519500D01*
X137501D01*
X138500D02*
X139500Y518501D01*
X142499Y521499D02*
X141500Y521000D01*
X140500Y520000D01*
Y519000D01*
X141000Y518501D01*
X141999D01*
X142499Y519000D01*
Y519500D01*
X141999Y520000D01*
X140500D01*
X212501Y140500D02*
Y143499D01*
X214000D01*
X214500Y143000D01*
Y142000D01*
X214000Y141500D01*
X212501D01*
X213500D02*
X214500Y140500D01*
X217499Y143499D02*
X215500D01*
Y142000D01*
X216500Y142500D01*
X216999D01*
X217499Y142000D01*
Y141000D01*
X216999Y140500D01*
X216000D01*
X215500Y141000D01*
X107501Y546001D02*
Y548999D01*
X109000D01*
X109500Y548500D01*
Y547500D01*
X109000Y547000D01*
X107501D01*
X108500D02*
X109500Y546001D01*
X110500Y548500D02*
X111000Y548999D01*
X111999D01*
X112499Y548500D01*
Y548000D01*
X111999Y547500D01*
X111500D01*
X111999D01*
X112499Y547000D01*
Y546500D01*
X111999Y546001D01*
X111000D01*
X110500Y546500D01*
X246501Y135500D02*
Y138499D01*
X248000D01*
X248500Y138000D01*
Y137000D01*
X248000Y136500D01*
X246501D01*
X247500D02*
X248500Y135500D01*
X251499D02*
X249500D01*
X251499Y137500D01*
Y138000D01*
X250999Y138499D01*
X250000D01*
X249500Y138000D01*
X90974Y232236D02*
Y235235D01*
X91974Y234235D01*
X92973Y235235D01*
Y232236D01*
X95473D02*
Y235235D01*
X93973Y233736D01*
X95972D01*
X218736Y485220D02*
Y488219D01*
X219736Y487219D01*
X220735Y488219D01*
Y485220D01*
X221735Y487719D02*
X222235Y488219D01*
X223235D01*
X223734Y487719D01*
Y487219D01*
X223235Y486720D01*
X222735D01*
X223235D01*
X223734Y486220D01*
Y485720D01*
X223235Y485220D01*
X222235D01*
X221735Y485720D01*
X176064Y232236D02*
Y235235D01*
X177064Y234235D01*
X178063Y235235D01*
Y232236D01*
X181062D02*
X179063D01*
X181062Y234235D01*
Y234735D01*
X180563Y235235D01*
X179563D01*
X179063Y234735D01*
X118660Y485220D02*
Y488219D01*
X119660Y487219D01*
X120659Y488219D01*
Y485220D01*
X121659D02*
X122659D01*
X122159D01*
Y488219D01*
X121659Y487719D01*
X486001Y256251D02*
Y257251D01*
Y256751D01*
X488999D01*
Y256251D01*
Y257251D01*
X486500Y260750D02*
X486001Y260250D01*
Y259250D01*
X486500Y258750D01*
X488500D01*
X488999Y259250D01*
Y260250D01*
X488500Y260750D01*
X486001Y261749D02*
Y263749D01*
X486500D01*
X488500Y261749D01*
X488999D01*
X638751Y483999D02*
X639751D01*
X639251D01*
Y481001D01*
X638751D01*
X639751D01*
X643250Y483500D02*
X642750Y483999D01*
X641750D01*
X641250Y483500D01*
Y481500D01*
X641750Y481001D01*
X642750D01*
X643250Y481500D01*
X646249Y483999D02*
X645249Y483500D01*
X644249Y482500D01*
Y481500D01*
X644749Y481001D01*
X645749D01*
X646249Y481500D01*
Y482000D01*
X645749Y482500D01*
X644249D01*
X238500Y548751D02*
Y549751D01*
Y549251D01*
X241500D01*
Y548751D01*
Y549751D01*
X239000Y553250D02*
X238500Y552750D01*
Y551750D01*
X239000Y551250D01*
X241000D01*
X241500Y551750D01*
Y552750D01*
X241000Y553250D01*
X238500Y556249D02*
Y554249D01*
X240000D01*
X239500Y555249D01*
Y555749D01*
X240000Y556249D01*
X241000D01*
X241500Y555749D01*
Y554749D01*
X241000Y554249D01*
X105500Y111251D02*
Y112251D01*
Y111751D01*
X108499D01*
Y111251D01*
Y112251D01*
X106000Y115750D02*
X105500Y115250D01*
Y114250D01*
X106000Y113750D01*
X108000D01*
X108499Y114250D01*
Y115250D01*
X108000Y115750D01*
X108499Y118249D02*
X105500D01*
X107000Y116749D01*
Y118749D01*
X138500Y546251D02*
Y547251D01*
Y546751D01*
X141500D01*
Y546251D01*
Y547251D01*
X139000Y550750D02*
X138500Y550250D01*
Y549250D01*
X139000Y548750D01*
X141000D01*
X141500Y549250D01*
Y550250D01*
X141000Y550750D01*
X139000Y551749D02*
X138500Y552249D01*
Y553249D01*
X139000Y553749D01*
X139500D01*
X140000Y553249D01*
Y552749D01*
Y553249D01*
X140500Y553749D01*
X141000D01*
X141500Y553249D01*
Y552249D01*
X141000Y551749D01*
X210501Y112251D02*
Y113251D01*
Y112751D01*
X213500D01*
Y112251D01*
Y113251D01*
X211000Y116750D02*
X210501Y116250D01*
Y115250D01*
X211000Y114750D01*
X213000D01*
X213500Y115250D01*
Y116250D01*
X213000Y116750D01*
X213500Y119749D02*
Y117749D01*
X211500Y119749D01*
X211000D01*
X210501Y119249D01*
Y118249D01*
X211000Y117749D01*
X177501Y616499D02*
Y613501D01*
X179000D01*
X179500Y614000D01*
Y616000D01*
X179000Y616499D01*
X177501D01*
X182499Y613501D02*
X180500D01*
X182499Y615500D01*
Y616000D01*
X181999Y616499D01*
X181000D01*
X180500Y616000D01*
X170001Y68499D02*
Y65500D01*
X171500D01*
X172000Y66000D01*
Y68000D01*
X171500Y68499D01*
X170001D01*
X173000Y65500D02*
X173999D01*
X173500D01*
Y68499D01*
X173000Y68000D01*
X536001Y238500D02*
X535501Y239000D01*
X534501D01*
X534001Y238500D01*
Y236500D01*
X534501Y236000D01*
X535501D01*
X536001Y236500D01*
X538999Y239000D02*
X537000D01*
Y237500D01*
X538000Y238000D01*
X538500D01*
X538999Y237500D01*
Y236500D01*
X538500Y236000D01*
X537500D01*
X537000Y236500D01*
X539999Y236000D02*
X540999D01*
X540499D01*
Y239000D01*
X539999Y238500D01*
X611500Y205501D02*
X611001Y205001D01*
Y204001D01*
X611500Y203501D01*
X613500D01*
X613999Y204001D01*
Y205001D01*
X613500Y205501D01*
X611001Y208500D02*
Y206500D01*
X612500D01*
X612000Y207500D01*
Y208000D01*
X612500Y208500D01*
X613500D01*
X613999Y208000D01*
Y207000D01*
X613500Y206500D01*
X611500Y209499D02*
X611001Y209999D01*
Y210999D01*
X611500Y211499D01*
X613500D01*
X613999Y210999D01*
Y209999D01*
X613500Y209499D01*
X611500D01*
X539000Y288001D02*
X538500Y287501D01*
Y286501D01*
X539000Y286001D01*
X541000D01*
X541499Y286501D01*
Y287501D01*
X541000Y288001D01*
X541499Y290500D02*
X538500D01*
X540000Y289000D01*
Y291000D01*
X541000Y291999D02*
X541499Y292499D01*
Y293499D01*
X541000Y293999D01*
X539000D01*
X538500Y293499D01*
Y292499D01*
X539000Y291999D01*
X539500D01*
X540000Y292499D01*
Y293999D01*
X628001Y248500D02*
X627501Y249000D01*
X626501D01*
X626001Y248500D01*
Y246500D01*
X626501Y246000D01*
X627501D01*
X628001Y246500D01*
X630500Y246000D02*
Y249000D01*
X629000Y247500D01*
X631000D01*
X631999Y248500D02*
X632499Y249000D01*
X633499D01*
X633999Y248500D01*
Y248000D01*
X633499Y247500D01*
X633999Y247000D01*
Y246500D01*
X633499Y246000D01*
X632499D01*
X631999Y246500D01*
Y247000D01*
X632499Y247500D01*
X631999Y248000D01*
Y248500D01*
X632499Y247500D02*
X633499D01*
X473001Y246000D02*
X472501Y246500D01*
X471501D01*
X471001Y246000D01*
Y244000D01*
X471501Y243500D01*
X472501D01*
X473001Y244000D01*
X475500Y243500D02*
Y246500D01*
X474000Y245000D01*
X476000D01*
X476999Y246500D02*
X478999D01*
Y246000D01*
X476999Y244000D01*
Y243500D01*
X593001Y471000D02*
X592501Y471499D01*
X591501D01*
X591001Y471000D01*
Y469000D01*
X591501Y468501D01*
X592501D01*
X593001Y469000D01*
X595500Y468501D02*
Y471499D01*
X594000Y470000D01*
X596000D01*
X598999Y471499D02*
X597999Y471000D01*
X596999Y470000D01*
Y469000D01*
X597499Y468501D01*
X598499D01*
X598999Y469000D01*
Y469500D01*
X598499Y470000D01*
X596999D01*
X615501Y521000D02*
X615001Y521499D01*
X614001D01*
X613501Y521000D01*
Y519000D01*
X614001Y518501D01*
X615001D01*
X615501Y519000D01*
X618000Y518501D02*
Y521499D01*
X616500Y520000D01*
X618500D01*
X621499Y521499D02*
X619499D01*
Y520000D01*
X620499Y520500D01*
X620999D01*
X621499Y520000D01*
Y519000D01*
X620999Y518501D01*
X619999D01*
X619499Y519000D01*
X670501Y521000D02*
X670001Y521499D01*
X669001D01*
X668501Y521000D01*
Y519000D01*
X669001Y518501D01*
X670001D01*
X670501Y519000D01*
X673000Y518501D02*
Y521499D01*
X671500Y520000D01*
X673500D01*
X675999Y518501D02*
Y521499D01*
X674499Y520000D01*
X676499D01*
X644000Y513001D02*
X643501Y512501D01*
Y511501D01*
X644000Y511001D01*
X646000D01*
X646499Y511501D01*
Y512501D01*
X646000Y513001D01*
X646499Y515500D02*
X643501D01*
X645000Y514000D01*
Y516000D01*
X644000Y516999D02*
X643501Y517499D01*
Y518499D01*
X644000Y518999D01*
X644500D01*
X645000Y518499D01*
Y517999D01*
Y518499D01*
X645500Y518999D01*
X646000D01*
X646499Y518499D01*
Y517499D01*
X646000Y516999D01*
X662187Y410503D02*
X661687Y411003D01*
X660688D01*
X660188Y410503D01*
Y408504D01*
X660688Y408004D01*
X661687D01*
X662187Y408504D01*
X663187Y410503D02*
X663687Y411003D01*
X664687D01*
X665186Y410503D01*
Y410003D01*
X664687Y409504D01*
X664187D01*
X664687D01*
X665186Y409004D01*
Y408504D01*
X664687Y408004D01*
X663687D01*
X663187Y408504D01*
X666186D02*
X666686Y408004D01*
X667686D01*
X668185Y408504D01*
Y410503D01*
X667686Y411003D01*
X666686D01*
X666186Y410503D01*
Y410003D01*
X666686Y409504D01*
X668185D01*
X696477Y410503D02*
X695977Y411003D01*
X694978D01*
X694478Y410503D01*
Y408504D01*
X694978Y408004D01*
X695977D01*
X696477Y408504D01*
X697477Y410503D02*
X697977Y411003D01*
X698977D01*
X699476Y410503D01*
Y410003D01*
X698977Y409504D01*
X698477D01*
X698977D01*
X699476Y409004D01*
Y408504D01*
X698977Y408004D01*
X697977D01*
X697477Y408504D01*
X700476Y410503D02*
X700976Y411003D01*
X701976D01*
X702475Y410503D01*
Y410003D01*
X701976Y409504D01*
X702475Y409004D01*
Y408504D01*
X701976Y408004D01*
X700976D01*
X700476Y408504D01*
Y409004D01*
X700976Y409504D01*
X700476Y410003D01*
Y410503D01*
X700976Y409504D02*
X701976D01*
X283001Y576000D02*
X282501Y576499D01*
X281501D01*
X281001Y576000D01*
Y574000D01*
X281501Y573501D01*
X282501D01*
X283001Y574000D01*
X284000Y576000D02*
X284500Y576499D01*
X285500D01*
X286000Y576000D01*
Y575500D01*
X285500Y575000D01*
X285000D01*
X285500D01*
X286000Y574500D01*
Y574000D01*
X285500Y573501D01*
X284500D01*
X284000Y574000D01*
X288999Y573501D02*
X286999D01*
X288999Y575500D01*
Y576000D01*
X288499Y576499D01*
X287499D01*
X286999Y576000D01*
X203500Y571000D02*
X203001Y571499D01*
X202001D01*
X201501Y571000D01*
Y569000D01*
X202001Y568501D01*
X203001D01*
X203500Y569000D01*
X204500Y571000D02*
X205000Y571499D01*
X206000D01*
X206500Y571000D01*
Y570500D01*
X206000Y570000D01*
X205500D01*
X206000D01*
X206500Y569500D01*
Y569000D01*
X206000Y568501D01*
X205000D01*
X204500Y569000D01*
X207499Y568501D02*
X208499D01*
X207999D01*
Y571499D01*
X207499Y571000D01*
X130708Y103000D02*
X130208Y103499D01*
X129209D01*
X128709Y103000D01*
Y101000D01*
X129209Y100500D01*
X130208D01*
X130708Y101000D01*
X131708Y103000D02*
X132208Y103499D01*
X133207D01*
X133707Y103000D01*
Y102500D01*
X133207Y102000D01*
X132708D01*
X133207D01*
X133707Y101500D01*
Y101000D01*
X133207Y100500D01*
X132208D01*
X131708Y101000D01*
X134707Y103000D02*
X135207Y103499D01*
X136206D01*
X136706Y103000D01*
Y101000D01*
X136206Y100500D01*
X135207D01*
X134707Y101000D01*
Y103000D01*
X101500Y55501D02*
X101000Y55001D01*
Y54001D01*
X101500Y53501D01*
X103500D01*
X104000Y54001D01*
Y55001D01*
X103500Y55501D01*
X104000Y58500D02*
Y56500D01*
X102000Y58500D01*
X101500D01*
X101000Y58000D01*
Y57000D01*
X101500Y56500D01*
X103500Y59499D02*
X104000Y59999D01*
Y60999D01*
X103500Y61499D01*
X101500D01*
X101000Y60999D01*
Y59999D01*
X101500Y59499D01*
X102000D01*
X102500Y59999D01*
Y61499D01*
X170501Y576000D02*
X170001Y576499D01*
X169001D01*
X168501Y576000D01*
Y574000D01*
X169001Y573501D01*
X170001D01*
X170501Y574000D01*
X173500Y573501D02*
X171500D01*
X173500Y575500D01*
Y576000D01*
X173000Y576499D01*
X172000D01*
X171500Y576000D01*
X174499Y576499D02*
X176499D01*
Y576000D01*
X174499Y574000D01*
Y573501D01*
X93001Y578500D02*
X92501Y578999D01*
X91501D01*
X91001Y578500D01*
Y576500D01*
X91501Y576001D01*
X92501D01*
X93001Y576500D01*
X96000Y576001D02*
X94000D01*
X96000Y578000D01*
Y578500D01*
X95500Y578999D01*
X94500D01*
X94000Y578500D01*
X98999Y578999D02*
X97999Y578500D01*
X96999Y577500D01*
Y576500D01*
X97499Y576001D01*
X98499D01*
X98999Y576500D01*
Y577000D01*
X98499Y577500D01*
X96999D01*
X245001Y106000D02*
X244501Y106500D01*
X243501D01*
X243001Y106000D01*
Y104000D01*
X243501Y103500D01*
X244501D01*
X245001Y104000D01*
X248000Y103500D02*
X246000D01*
X248000Y105500D01*
Y106000D01*
X247500Y106500D01*
X246500D01*
X246000Y106000D01*
X250999Y106500D02*
X248999D01*
Y105000D01*
X249999Y105500D01*
X250499D01*
X250999Y105000D01*
Y104000D01*
X250499Y103500D01*
X249499D01*
X248999Y104000D01*
X180001Y98000D02*
X179501Y98499D01*
X178501D01*
X178001Y98000D01*
Y96000D01*
X178501Y95500D01*
X179501D01*
X180001Y96000D01*
X183000Y95500D02*
X181000D01*
X183000Y97500D01*
Y98000D01*
X182500Y98499D01*
X181500D01*
X181000Y98000D01*
X185499Y95500D02*
Y98499D01*
X183999Y97000D01*
X185999D01*
X47253Y540297D02*
X46754Y540797D01*
X45754D01*
X45254Y540297D01*
Y538298D01*
X45754Y537798D01*
X46754D01*
X47253Y538298D01*
X48253Y537798D02*
X49253D01*
X48753D01*
Y540797D01*
X48253Y540297D01*
X50752D02*
X51252Y540797D01*
X52252D01*
X52752Y540297D01*
Y539797D01*
X52252Y539297D01*
X51752D01*
X52252D01*
X52752Y538798D01*
Y538298D01*
X52252Y537798D01*
X51252D01*
X50752Y538298D01*
X47253Y465367D02*
X46754Y465867D01*
X45754D01*
X45254Y465367D01*
Y463368D01*
X45754Y462868D01*
X46754D01*
X47253Y463368D01*
X48253Y462868D02*
X49253D01*
X48753D01*
Y465867D01*
X48253Y465367D01*
X52752Y462868D02*
X50752D01*
X52752Y464867D01*
Y465367D01*
X52252Y465867D01*
X51252D01*
X50752Y465367D01*
X37347Y235497D02*
X36848Y235997D01*
X35848D01*
X35348Y235497D01*
Y233498D01*
X35848Y232998D01*
X36848D01*
X37347Y233498D01*
X38347Y232998D02*
X39347D01*
X38847D01*
Y235997D01*
X38347Y235497D01*
X40846Y232998D02*
X41846D01*
X41346D01*
Y235997D01*
X40846Y235497D01*
X37093Y180379D02*
X36593Y180879D01*
X35594D01*
X35094Y180379D01*
Y178380D01*
X35594Y177880D01*
X36593D01*
X37093Y178380D01*
X38093Y177880D02*
X39093D01*
X38593D01*
Y180879D01*
X38093Y180379D01*
X40592D02*
X41092Y180879D01*
X42092D01*
X42592Y180379D01*
Y178380D01*
X42092Y177880D01*
X41092D01*
X40592Y178380D01*
Y180379D01*
X210500Y293000D02*
X210000Y293500D01*
X209001D01*
X208501Y293000D01*
Y291000D01*
X209001Y290501D01*
X210000D01*
X210500Y291000D01*
X211500D02*
X212000Y290501D01*
X212999D01*
X213499Y291000D01*
Y293000D01*
X212999Y293500D01*
X212000D01*
X211500Y293000D01*
Y292500D01*
X212000Y292000D01*
X213499D01*
X185500Y293000D02*
X185000Y293500D01*
X184001D01*
X183501Y293000D01*
Y291000D01*
X184001Y290501D01*
X185000D01*
X185500Y291000D01*
X186500Y293500D02*
X188499D01*
Y293000D01*
X186500Y291000D01*
Y290501D01*
X262500Y381000D02*
X262000Y381499D01*
X261001D01*
X260501Y381000D01*
Y379000D01*
X261001Y378501D01*
X262000D01*
X262500Y379000D01*
X265499Y381499D02*
X264499Y381000D01*
X263500Y380000D01*
Y379000D01*
X264000Y378501D01*
X264999D01*
X265499Y379000D01*
Y379500D01*
X264999Y380000D01*
X263500D01*
X161500Y292000D02*
X161000Y292500D01*
X160001D01*
X159501Y292000D01*
Y290000D01*
X160001Y289501D01*
X161000D01*
X161500Y290000D01*
X164499Y292500D02*
X162500D01*
Y291000D01*
X163500Y291500D01*
X163999D01*
X164499Y291000D01*
Y290000D01*
X163999Y289501D01*
X163000D01*
X162500Y290000D01*
X221500Y381000D02*
X221000Y381499D01*
X220001D01*
X219501Y381000D01*
Y379000D01*
X220001Y378501D01*
X221000D01*
X221500Y379000D01*
X223999Y378501D02*
Y381499D01*
X222500Y380000D01*
X224499D01*
X136500Y292000D02*
X136000Y292500D01*
X135001D01*
X134501Y292000D01*
Y290000D01*
X135001Y289501D01*
X136000D01*
X136500Y290000D01*
X137500Y292000D02*
X138000Y292500D01*
X138999D01*
X139499Y292000D01*
Y291500D01*
X138999Y291000D01*
X138499D01*
X138999D01*
X139499Y290500D01*
Y290000D01*
X138999Y289501D01*
X138000D01*
X137500Y290000D01*
X183500Y381000D02*
X183000Y381499D01*
X182001D01*
X181501Y381000D01*
Y379000D01*
X182001Y378501D01*
X183000D01*
X183500Y379000D01*
X186499Y378501D02*
X184500D01*
X186499Y380500D01*
Y381000D01*
X185999Y381499D01*
X185000D01*
X184500Y381000D01*
X144000Y380000D02*
X143500Y380499D01*
X142500D01*
X142001Y380000D01*
Y378000D01*
X142500Y377500D01*
X143500D01*
X144000Y378000D01*
X145000Y377500D02*
X145999D01*
X145499D01*
Y380499D01*
X145000Y380000D01*
D15*
X100500Y223500D02*
X133500D01*
X100500Y190500D02*
X133500D01*
X223500Y443500D02*
X256500D01*
X223500Y476500D02*
X256500D01*
X185500Y223500D02*
X218500D01*
X185500Y190500D02*
X218500D01*
X123500Y443500D02*
X156500D01*
X123500Y476500D02*
X156500D01*
D16*
X616200Y13000D02*
X612814D01*
X614507D01*
Y2843D01*
X616200Y4536D01*
X392500Y13000D02*
X389114D01*
X390807D01*
Y2843D01*
X392500Y4536D01*
X384036D02*
X382343Y2843D01*
X378958D01*
X377265Y4536D01*
Y11307D01*
X378958Y13000D01*
X382343D01*
X384036Y11307D01*
Y4536D01*
X616200Y165400D02*
X612814D01*
X614507D01*
Y155243D01*
X616200Y156936D01*
X392500Y165400D02*
X389114D01*
X390807D01*
Y155243D01*
X392500Y156936D01*
X384036D02*
X382343Y155243D01*
X378958D01*
X377265Y156936D01*
Y163707D01*
X378958Y165400D01*
X382343D01*
X384036Y163707D01*
Y156936D01*
D17*
X492802Y583772D02*
Y591390D01*
X496611D01*
X497880Y590120D01*
Y587581D01*
X496611Y586311D01*
X492802D01*
X495341D02*
X497880Y583772D01*
X500420D02*
X502959D01*
X501689D01*
Y591390D01*
X500420Y590120D01*
X729784Y477854D02*
Y485471D01*
X733593D01*
X734862Y484202D01*
Y481663D01*
X733593Y480393D01*
X729784D01*
X741210Y477854D02*
Y485471D01*
X737402Y481663D01*
X742480D01*
X416348Y646256D02*
Y653874D01*
X420157D01*
X421426Y652604D01*
Y650065D01*
X420157Y648795D01*
X416348D01*
X423965Y652604D02*
X425235Y653874D01*
X427774D01*
X429044Y652604D01*
Y651334D01*
X427774Y650065D01*
X426505D01*
X427774D01*
X429044Y648795D01*
Y647526D01*
X427774Y646256D01*
X425235D01*
X423965Y647526D01*
X398652Y566191D02*
Y573809D01*
X402461D01*
X403730Y572539D01*
Y570000D01*
X402461Y568730D01*
X398652D01*
X411348Y566191D02*
X406270D01*
X411348Y571270D01*
Y572539D01*
X410078Y573809D01*
X407539D01*
X406270Y572539D01*
X-114258Y412830D02*
Y420448D01*
X-110449D01*
X-109180Y419178D01*
Y416639D01*
X-110449Y415369D01*
X-114258D01*
X-106641Y412830D02*
X-104101D01*
X-105371D01*
Y420448D01*
X-106641Y419178D01*
X460544Y589865D02*
Y582248D01*
X465622D01*
X473240Y589865D02*
X468162D01*
Y582248D01*
X473240D01*
X468162Y586057D02*
X470701D01*
X475779Y589865D02*
Y582248D01*
X479588D01*
X480857Y583518D01*
Y588596D01*
X479588Y589865D01*
X475779D01*
X483397Y582248D02*
X485936D01*
X484666D01*
Y589865D01*
X483397Y588596D01*
X374182Y60529D02*
X371643D01*
X372913D01*
Y54182D01*
X371643Y52912D01*
X370374D01*
X369104Y54182D01*
X381800Y52912D02*
X376721D01*
X381800Y57990D01*
Y59260D01*
X380530Y60529D01*
X377991D01*
X376721Y59260D01*
X374182Y212929D02*
X371643D01*
X372913D01*
Y206582D01*
X371643Y205312D01*
X370374D01*
X369104Y206582D01*
X376721Y205312D02*
X379261D01*
X377991D01*
Y212929D01*
X376721Y211660D01*
X407202Y242140D02*
X405933Y243410D01*
X403394D01*
X402124Y242140D01*
Y237062D01*
X403394Y235792D01*
X405933D01*
X407202Y237062D01*
X409742Y242140D02*
X411011Y243410D01*
X413550D01*
X414820Y242140D01*
Y240870D01*
X413550Y239601D01*
X412281D01*
X413550D01*
X414820Y238331D01*
Y237062D01*
X413550Y235792D01*
X411011D01*
X409742Y237062D01*
X417359Y242140D02*
X418629Y243410D01*
X421168D01*
X422437Y242140D01*
Y240870D01*
X421168Y239601D01*
X419898D01*
X421168D01*
X422437Y238331D01*
Y237062D01*
X421168Y235792D01*
X418629D01*
X417359Y237062D01*
M02*
