G04*
G04 #@! TF.GenerationSoftware,Altium Limited,Altium Designer,21.6.4 (81)*
G04*
G04 Layer_Color=16711935*
%FSLAX44Y44*%
%MOMM*%
G71*
G04*
G04 #@! TF.SameCoordinates,04AFCEB9-1927-4C3B-B3D4-275DD85C2008*
G04*
G04*
G04 #@! TF.FilePolarity,Negative*
G04*
G01*
G75*
%ADD61R,1.8032X1.8032*%
%ADD62C,1.8032*%
%ADD63C,3.2032*%
%ADD64R,3.2032X3.2032*%
%ADD65C,1.7232*%
%ADD66R,1.7232X1.7232*%
%ADD67C,0.2000*%
%ADD68R,1.4032X1.4032*%
%ADD69C,1.4032*%
%ADD70C,0.7016*%
%ADD95R,1.2032X1.2032*%
%ADD96R,1.2032X1.2032*%
D61*
X430000Y560200D02*
D03*
Y597300D02*
D03*
D62*
Y534800D02*
D03*
Y622700D02*
D03*
D63*
X94000Y284000D02*
D03*
X750000Y426000D02*
D03*
D64*
X-31000Y359000D02*
D03*
X875000Y351000D02*
D03*
D65*
X461900Y30000D02*
D03*
X563500D02*
D03*
X588900D02*
D03*
X538100D02*
D03*
X512700D02*
D03*
X487300D02*
D03*
X436500D02*
D03*
X411100D02*
D03*
X385700D02*
D03*
X461900Y182400D02*
D03*
X563500D02*
D03*
X588900D02*
D03*
X538100D02*
D03*
X512700D02*
D03*
X487300D02*
D03*
X436500D02*
D03*
X411100D02*
D03*
X385700D02*
D03*
D66*
X614300Y30000D02*
D03*
Y182400D02*
D03*
D67*
X30000Y30000D02*
D03*
X820000D02*
D03*
X30000Y770000D02*
D03*
X820000D02*
D03*
D68*
X716000Y705000D02*
D03*
X572957D02*
D03*
X429915Y704000D02*
D03*
X286872D02*
D03*
D69*
X716000Y755000D02*
D03*
X572957D02*
D03*
X429915Y754000D02*
D03*
X286872D02*
D03*
D70*
X577500Y320000D02*
D03*
X492500Y322500D02*
D03*
X555000Y462500D02*
D03*
X547500Y622500D02*
D03*
X570000Y552500D02*
D03*
X472500Y472500D02*
D03*
X670000Y232500D02*
D03*
X746250D02*
D03*
X822500D02*
D03*
X825000Y100000D02*
D03*
X747500D02*
D03*
X670000D02*
D03*
X447500Y92500D02*
D03*
X332500Y42500D02*
D03*
X345000Y157500D02*
D03*
X332500Y322500D02*
D03*
Y425000D02*
D03*
Y510000D02*
D03*
X271553Y103447D02*
D03*
X399876Y285124D02*
D03*
X632500Y232500D02*
D03*
X462500Y300000D02*
D03*
X530000Y207500D02*
D03*
X463450Y254050D02*
D03*
X560000Y277500D02*
D03*
X602500Y292500D02*
D03*
X532500Y567500D02*
D03*
X294053Y589053D02*
D03*
X922500Y387500D02*
D03*
X870000Y390000D02*
D03*
X922500Y442500D02*
D03*
X870000D02*
D03*
X-70000Y267500D02*
D03*
Y320000D02*
D03*
Y380000D02*
D03*
X830000Y705000D02*
D03*
X160000Y60000D02*
D03*
X277500Y595000D02*
D03*
X157500Y565000D02*
D03*
X7500Y605000D02*
D03*
Y477500D02*
D03*
Y322500D02*
D03*
Y150000D02*
D03*
Y90000D02*
D03*
X187500Y177500D02*
D03*
X107500Y160000D02*
D03*
X138419Y257463D02*
D03*
X155000Y490000D02*
D03*
X270000Y485000D02*
D03*
X690000Y550000D02*
D03*
X605000D02*
D03*
X332500Y650000D02*
D03*
Y577500D02*
D03*
X588410Y453410D02*
D03*
X687500Y475000D02*
D03*
X672500Y540000D02*
D03*
X616444Y536374D02*
D03*
X292500Y560000D02*
D03*
X596950Y498734D02*
D03*
X112997Y63770D02*
D03*
X130000Y127500D02*
D03*
X162500Y599999D02*
D03*
X292500Y637500D02*
D03*
Y612500D02*
D03*
Y542500D02*
D03*
Y520000D02*
D03*
Y502500D02*
D03*
Y487500D02*
D03*
Y470000D02*
D03*
Y450000D02*
D03*
Y432500D02*
D03*
Y417500D02*
D03*
X105000Y462500D02*
D03*
Y472500D02*
D03*
Y482500D02*
D03*
X92500Y462500D02*
D03*
Y472500D02*
D03*
Y482500D02*
D03*
X80000Y472500D02*
D03*
X67500D02*
D03*
X55000D02*
D03*
X42500D02*
D03*
X80000Y462500D02*
D03*
X67500D02*
D03*
X55000D02*
D03*
X42500D02*
D03*
Y482500D02*
D03*
X80000D02*
D03*
X67500D02*
D03*
X55000D02*
D03*
X62500Y177500D02*
D03*
X50000D02*
D03*
X37500D02*
D03*
X262500Y212500D02*
D03*
X250000D02*
D03*
X262500Y222500D02*
D03*
X250000D02*
D03*
X262500Y235000D02*
D03*
X250000D02*
D03*
X237500Y170000D02*
D03*
X225000D02*
D03*
X237500Y182500D02*
D03*
X225000D02*
D03*
X237500Y197500D02*
D03*
X225000D02*
D03*
X237500Y210000D02*
D03*
X225000D02*
D03*
X237500Y222500D02*
D03*
X225000Y225000D02*
D03*
X237500Y235000D02*
D03*
X225000D02*
D03*
X220000Y417500D02*
D03*
Y432500D02*
D03*
Y447500D02*
D03*
X207500D02*
D03*
X190000D02*
D03*
X172500D02*
D03*
X207500Y417500D02*
D03*
Y432500D02*
D03*
X190000Y417500D02*
D03*
Y432500D02*
D03*
X172500Y417500D02*
D03*
Y432500D02*
D03*
X152500Y417500D02*
D03*
Y432500D02*
D03*
X130000Y417500D02*
D03*
Y432500D02*
D03*
X112500Y417500D02*
D03*
X95000D02*
D03*
X112500Y432500D02*
D03*
X95000D02*
D03*
X270000Y330000D02*
D03*
X252500D02*
D03*
X237500D02*
D03*
X222500D02*
D03*
X210000D02*
D03*
X195000D02*
D03*
X180000D02*
D03*
X167500D02*
D03*
X155000D02*
D03*
X142500D02*
D03*
X130000D02*
D03*
X590472Y419600D02*
D03*
Y404600D02*
D03*
Y384600D02*
D03*
Y364600D02*
D03*
Y349600D02*
D03*
X577472Y419600D02*
D03*
Y404600D02*
D03*
Y384600D02*
D03*
Y364600D02*
D03*
Y349600D02*
D03*
X562472Y419600D02*
D03*
Y404600D02*
D03*
Y384600D02*
D03*
Y364600D02*
D03*
Y349600D02*
D03*
X547472Y419600D02*
D03*
Y404600D02*
D03*
Y384600D02*
D03*
Y364600D02*
D03*
Y349600D02*
D03*
X532472Y419600D02*
D03*
Y404600D02*
D03*
Y384600D02*
D03*
Y364600D02*
D03*
Y349600D02*
D03*
X517472Y419600D02*
D03*
Y404600D02*
D03*
Y384600D02*
D03*
Y364600D02*
D03*
Y349600D02*
D03*
X124000Y199250D02*
D03*
X115250D02*
D03*
X123750Y207250D02*
D03*
X115250Y207000D02*
D03*
X123500Y214750D02*
D03*
X115250Y215000D02*
D03*
X233000Y467750D02*
D03*
X241750D02*
D03*
X233250Y459750D02*
D03*
X241750Y460000D02*
D03*
X233500Y452250D02*
D03*
X241750Y452000D02*
D03*
X209000Y199250D02*
D03*
X200250D02*
D03*
X208750Y207250D02*
D03*
X200250Y207000D02*
D03*
X208500Y214750D02*
D03*
X200250Y215000D02*
D03*
X133000Y467750D02*
D03*
X141750D02*
D03*
X133250Y459750D02*
D03*
X141750Y460000D02*
D03*
X133500Y452250D02*
D03*
X141750Y452000D02*
D03*
D95*
X270000Y105000D02*
D03*
X272500Y520000D02*
D03*
X107500Y160000D02*
D03*
X235000Y432500D02*
D03*
X155000Y490000D02*
D03*
X187500Y177500D02*
D03*
X270000Y485000D02*
D03*
X138419Y257463D02*
D03*
D96*
X690000Y550000D02*
D03*
X605000D02*
D03*
M02*
