G04*
G04 #@! TF.GenerationSoftware,Altium Limited,Altium Designer,21.6.4 (81)*
G04*
G04 Layer_Color=32768*
%FSLAX44Y44*%
%MOMM*%
G71*
G04*
G04 #@! TF.SameCoordinates,04AFCEB9-1927-4C3B-B3D4-275DD85C2008*
G04*
G04*
G04 #@! TF.FilePolarity,Positive*
G04*
G01*
G75*
%ADD11C,0.2000*%
%ADD14C,0.1000*%
%ADD97C,0.0500*%
%ADD98C,0.0762*%
D11*
X490042Y268792D02*
Y285292D01*
Y268792D02*
X521043D01*
Y285292D01*
X490042D02*
X521043D01*
X576750Y219500D02*
X593250D01*
Y250500D01*
X576750D02*
X593250D01*
X576750Y219500D02*
Y250500D01*
X608469Y262157D02*
X651531D01*
Y236595D02*
Y262157D01*
X608469Y236595D02*
X651531D01*
X608469D02*
Y262157D01*
X631750Y269500D02*
X648250D01*
Y300500D01*
X631750D02*
X648250D01*
X631750Y269500D02*
Y300500D01*
X491750Y559250D02*
Y575750D01*
Y559250D02*
X522750D01*
Y575750D01*
X491750D02*
X522750D01*
X400969Y202219D02*
Y227781D01*
Y202219D02*
X444031D01*
Y227781D01*
X400969D02*
X444031D01*
X202000Y272000D02*
X222000D01*
Y312000D01*
X202000D02*
X222000D01*
X202000Y272000D02*
Y312000D01*
X177085Y272000D02*
X197085D01*
Y312000D01*
X177085D02*
X197085D01*
X177085Y272000D02*
Y312000D01*
X152543Y272000D02*
X172543D01*
Y312000D01*
X152543D02*
X172543D01*
X152543Y272000D02*
Y312000D01*
X128000Y272000D02*
X148000D01*
Y312000D01*
X128000D02*
X148000D01*
X128000Y272000D02*
Y312000D01*
X157250Y86500D02*
Y117500D01*
X140750Y86500D02*
X157250D01*
X140750D02*
Y117500D01*
X157250D01*
X118250Y530500D02*
Y561500D01*
X101750Y530500D02*
X118250D01*
X101750D02*
Y561500D01*
X118250D01*
X240750Y121500D02*
Y152500D01*
X257250D01*
Y121500D02*
Y152500D01*
X240750Y121500D02*
X257250D01*
X647793Y524500D02*
Y555500D01*
X664293D01*
Y524500D02*
Y555500D01*
X647793Y524500D02*
X664293D01*
X626750D02*
Y555500D01*
X643250D01*
Y524500D02*
Y555500D01*
X626750Y524500D02*
X643250D01*
X213250D02*
Y555500D01*
X196750Y524500D02*
X213250D01*
X196750D02*
Y555500D01*
X213250D01*
X454500Y268792D02*
X485500D01*
X454500D02*
Y285292D01*
X485500D01*
Y268792D02*
Y285292D01*
D14*
X505000Y240000D02*
Y250000D01*
X500000Y245000D02*
X510000D01*
X505000Y206798D02*
Y216798D01*
X500000Y211798D02*
X510000D01*
X553495Y235000D02*
X563495D01*
X558495Y230000D02*
Y240000D01*
X617798Y280000D02*
Y290000D01*
X612798Y285000D02*
X622798D01*
X459000Y574750D02*
X476000D01*
X459000Y540250D02*
X476000D01*
Y574750D01*
X459000Y540250D02*
Y574750D01*
X467500Y552500D02*
Y562500D01*
X462500Y557500D02*
X472500D01*
X606000Y550750D02*
X682000D01*
X606000D02*
Y684750D01*
X682000D01*
Y550750D02*
Y684750D01*
X505223Y338950D02*
X656223D01*
Y430250D01*
X505223D02*
X656223D01*
X505223Y338950D02*
Y430250D01*
X237000Y66000D02*
Y76000D01*
X232000Y71000D02*
X242000D01*
X270000Y535000D02*
Y545000D01*
X265000Y540000D02*
X275000D01*
X137000Y138000D02*
X147000D01*
X142000Y133000D02*
Y143000D01*
X245000Y600000D02*
X255000D01*
X250000Y595000D02*
Y605000D01*
X137000Y67000D02*
Y77000D01*
X132000Y72000D02*
X142000D01*
X173000Y537000D02*
Y547000D01*
X168000Y542000D02*
X178000D01*
X177000Y130000D02*
X187000D01*
X182000Y125000D02*
Y135000D01*
X135000Y600000D02*
X145000D01*
X140000Y595000D02*
Y605000D01*
D97*
X786000Y730000D02*
G03*
X786000Y730000I-70000J0D01*
G01*
X642957D02*
G03*
X642957Y730000I-70000J0D01*
G01*
X499915Y729000D02*
G03*
X499915Y729000I-70000J0D01*
G01*
X356872D02*
G03*
X356872Y729000I-70000J0D01*
G01*
X528293Y223202D02*
Y252003D01*
X545293D01*
Y223202D02*
Y252003D01*
X528293Y223202D02*
X545293D01*
X487500Y265000D02*
X522500D01*
X487500Y225000D02*
X522500D01*
Y265000D01*
X487500Y225000D02*
Y265000D01*
X485950Y201637D02*
X524050D01*
X485950Y221957D02*
X524050D01*
Y201637D02*
Y221957D01*
X485950Y201637D02*
Y221957D01*
X467458Y259400D02*
X484458D01*
X467458Y230600D02*
Y259400D01*
Y230600D02*
X484458D01*
Y259400D01*
X553635Y266500D02*
Y283500D01*
X524835D02*
X553635D01*
X524835Y266500D02*
Y283500D01*
Y266500D02*
X553635D01*
X568655Y215950D02*
Y254050D01*
X548335Y215950D02*
Y254050D01*
X568655D01*
X548335Y215950D02*
X568655D01*
X607637Y304050D02*
X627957D01*
X607637Y265950D02*
X627957D01*
Y304050D01*
X607637Y265950D02*
Y304050D01*
X625843Y215803D02*
Y232803D01*
X597043D02*
X625843D01*
X597043Y215803D02*
Y232803D01*
Y215803D02*
X625843D01*
X430000Y542500D02*
Y552500D01*
X425000Y547500D02*
X435000D01*
X414550Y576400D02*
X445450D01*
X414550Y518600D02*
Y576400D01*
Y518600D02*
X445450D01*
Y576400D01*
X116000Y239500D02*
Y405500D01*
X-116000Y239500D02*
X116000D01*
X-116000D02*
Y405500D01*
X116000D01*
X0Y317500D02*
Y327500D01*
X-5000Y322500D02*
X5000D01*
X414550Y581100D02*
Y638900D01*
X445450D01*
Y581100D02*
Y638900D01*
X414550Y581100D02*
X445450D01*
X425000Y610000D02*
X435000D01*
X430000Y605000D02*
Y615000D01*
X632750Y14500D02*
Y45500D01*
X367250D02*
X632750D01*
X367250Y14500D02*
Y45500D01*
Y14500D02*
X632750D01*
X495000Y30000D02*
X505000D01*
X500000Y25000D02*
Y35000D01*
X632750Y166900D02*
Y197900D01*
X367250D02*
X632750D01*
X367250Y166900D02*
Y197900D01*
Y166900D02*
X632750D01*
X495000Y182400D02*
X505000D01*
X500000Y177400D02*
Y187400D01*
X728000Y304500D02*
Y470500D01*
X960000D01*
Y304500D02*
Y470500D01*
X728000Y304500D02*
X960000D01*
X844000Y382500D02*
Y392500D01*
X839000Y387500D02*
X849000D01*
X123500Y87600D02*
X140500D01*
Y116400D01*
X123500D02*
X140500D01*
X123500Y87600D02*
Y116400D01*
X88600Y64500D02*
X117400D01*
X88600D02*
Y81500D01*
X117400D01*
Y64500D02*
Y81500D01*
X180500Y560600D02*
Y589400D01*
X163500Y560600D02*
X180500D01*
X163500D02*
Y589400D01*
X180500D01*
X101500Y591400D02*
X118500D01*
X101500Y562600D02*
Y591400D01*
Y562600D02*
X118500D01*
Y591400D01*
X238500Y90600D02*
X255500D01*
Y119400D01*
X238500D02*
X255500D01*
X238500Y90600D02*
Y119400D01*
X190500Y82600D02*
Y111400D01*
X173500Y82600D02*
X190500D01*
X173500D02*
Y111400D01*
X190500D01*
X44400Y531550D02*
X75600D01*
X44400Y488450D02*
Y531550D01*
Y488450D02*
X75600D01*
Y531550D01*
X44400Y413450D02*
X75600D01*
Y456550D01*
X44400D02*
X75600D01*
X44400Y413450D02*
Y456550D01*
X34596Y226550D02*
X65796D01*
X34596Y183450D02*
Y226550D01*
Y183450D02*
X65796D01*
Y226550D01*
X34400Y128450D02*
X65600D01*
Y171550D01*
X34400D02*
X65600D01*
X34400Y128450D02*
Y171550D01*
X245400Y400050D02*
X284600D01*
X245400Y343950D02*
Y400050D01*
Y343950D02*
X284600D01*
Y400050D01*
X205900Y399550D02*
X244100D01*
X205900Y344450D02*
Y399550D01*
Y344450D02*
X244100D01*
Y399550D01*
X165900D02*
X204100D01*
X165900Y344450D02*
Y399550D01*
Y344450D02*
X204100D01*
Y399550D01*
X124900D02*
X163100D01*
X124900Y344450D02*
Y399550D01*
Y344450D02*
X163100D01*
Y399550D01*
X586500Y455600D02*
Y484400D01*
X603500D01*
Y455600D02*
Y484400D01*
X586500Y455600D02*
X603500D01*
X626500Y505600D02*
Y534400D01*
X609500Y505600D02*
X626500D01*
X609500D02*
Y534400D01*
X626500D01*
X681500Y505600D02*
Y534400D01*
X664500Y505600D02*
X681500D01*
X664500D02*
Y534400D01*
X681500D01*
X630600Y507500D02*
X659400D01*
X630600D02*
Y524500D01*
X659400D01*
Y507500D02*
Y524500D01*
X659515Y358450D02*
X690715D01*
Y401550D01*
X659515D02*
X690715D01*
X659515Y358450D02*
Y401550D01*
X693757Y358450D02*
X724958D01*
Y401550D01*
X693757D02*
X724958D01*
X693757Y358450D02*
Y401550D01*
X196500Y584400D02*
X213500D01*
X196500Y555600D02*
Y584400D01*
Y555600D02*
X213500D01*
Y584400D01*
X89250Y81000D02*
Y123000D01*
X124750D01*
Y81000D02*
Y123000D01*
X89250Y81000D02*
X124750D01*
X194250D02*
Y123000D01*
X229750D01*
Y81000D02*
Y123000D01*
X194250Y81000D02*
X229750D01*
X95000Y188000D02*
Y226000D01*
Y188000D02*
X139000D01*
Y226000D01*
X95000D02*
X139000D01*
X262000Y441000D02*
Y479000D01*
X218000D02*
X262000D01*
X218000Y441000D02*
Y479000D01*
Y441000D02*
X262000D01*
X180000Y188000D02*
Y226000D01*
Y188000D02*
X224000D01*
Y226000D01*
X180000D02*
X224000D01*
X162000Y441000D02*
Y479000D01*
X118000D02*
X162000D01*
X118000Y441000D02*
Y479000D01*
Y441000D02*
X162000D01*
X607750Y452500D02*
X682250D01*
X607750D02*
Y507500D01*
X682250D01*
Y452500D02*
Y507500D01*
X257750Y544000D02*
Y586000D01*
X222250Y544000D02*
X257750D01*
X222250D02*
Y586000D01*
X257750D01*
X116000Y507000D02*
X164000D01*
Y529000D01*
X116000D02*
X164000D01*
X116000Y507000D02*
Y529000D01*
X191000Y153000D02*
X239000D01*
X191000Y131000D02*
Y153000D01*
Y131000D02*
X239000D01*
Y153000D01*
X214000Y507000D02*
X262000D01*
Y529000D01*
X214000D02*
X262000D01*
X214000Y507000D02*
Y529000D01*
X80166Y131000D02*
X128166D01*
Y153000D01*
X80166D02*
X128166D01*
X80166Y131000D02*
Y153000D01*
X217950Y81160D02*
X256050D01*
X217950Y60840D02*
X256050D01*
X217950D02*
Y81160D01*
X256050Y60840D02*
Y81160D01*
X720500Y519000D02*
X849500D01*
X720500D02*
Y651000D01*
X849500D01*
Y519000D02*
Y651000D01*
X785000Y580000D02*
Y590000D01*
X780000Y585000D02*
X790000D01*
X157750Y544000D02*
Y586000D01*
X122250Y544000D02*
X157750D01*
X122250D02*
Y586000D01*
X157750D01*
X259840Y520950D02*
X280160D01*
X259840Y559050D02*
X280160D01*
X259840Y520950D02*
Y559050D01*
X280160Y520950D02*
Y559050D01*
X131840Y118950D02*
Y157050D01*
X152160Y118950D02*
Y157050D01*
X131840Y118950D02*
X152160D01*
X131840Y157050D02*
X152160D01*
X269050Y589840D02*
Y610160D01*
X230950Y589840D02*
Y610160D01*
Y589840D02*
X269050D01*
X230950Y610160D02*
X269050D01*
X117950Y82160D02*
X156050D01*
X117950Y61840D02*
X156050D01*
X117950D02*
Y82160D01*
X156050Y61840D02*
Y82160D01*
X162840Y561050D02*
X183160D01*
X162840Y522950D02*
X183160D01*
Y561050D01*
X162840Y522950D02*
Y561050D01*
X171840Y110950D02*
Y149050D01*
X192160Y110950D02*
Y149050D01*
X171840Y110950D02*
X192160D01*
X171840Y149050D02*
X192160D01*
X159050Y589840D02*
Y610160D01*
X120950Y589840D02*
Y610160D01*
Y589840D02*
X159050D01*
X120950Y610160D02*
X159050D01*
X261500Y559600D02*
X278500D01*
Y588400D01*
X261500D02*
X278500D01*
X261500Y559600D02*
Y588400D01*
D98*
X158000Y590000D02*
X201000Y589840D01*
Y590000D02*
Y610000D01*
X158000D02*
X201000D01*
X158000D02*
X158220Y589840D01*
X170000Y82000D02*
X170220Y61840D01*
X170000Y82000D02*
X213000D01*
Y62000D02*
Y82000D01*
X170000Y62000D02*
X213000Y61840D01*
M02*
