G04*
G04 #@! TF.GenerationSoftware,Altium Limited,Altium Designer,21.6.4 (81)*
G04*
G04 Layer_Physical_Order=3*
G04 Layer_Color=128*
%FSLAX44Y44*%
%MOMM*%
G71*
G04*
G04 #@! TF.SameCoordinates,04AFCEB9-1927-4C3B-B3D4-275DD85C2008*
G04*
G04*
G04 #@! TF.FilePolarity,Negative*
G04*
G01*
G75*
%ADD11C,0.2000*%
%ADD86C,1.0160*%
%ADD87C,2.1160*%
%ADD88C,3.0160*%
%ADD89C,2.0360*%
%ADD90C,4.2160*%
%ADD91C,1.8160*%
%ADD92C,1.3160*%
D11*
X610000Y312500D02*
X850000D01*
X610000D02*
Y437500D01*
X700000D01*
Y585000D01*
X697500Y587500D02*
X700000Y585000D01*
X587500Y587500D02*
X697500D01*
X587500D02*
Y667500D01*
X287306Y194D02*
Y154806D01*
X287775Y287775D02*
X299611Y299611D01*
Y300000D01*
X287500Y155000D02*
Y287500D01*
X287111Y154612D02*
X287500Y155000D01*
X155000Y154612D02*
X287111D01*
X77500Y442500D02*
X87500D01*
X77500Y297500D02*
Y442500D01*
X75000Y295000D02*
X77500Y297500D01*
X75000Y295000D02*
X287500D01*
Y372500D01*
X210000D02*
X287500D01*
X157500D02*
X210000D01*
X155000Y375000D02*
X157500Y372500D01*
X155000Y375000D02*
Y435000D01*
X147500Y442500D02*
X155000Y435000D01*
X87500Y442500D02*
X147500D01*
X632500Y667500D02*
Y725000D01*
X300000Y667500D02*
X632500D01*
X300000Y300000D02*
Y667500D01*
X27500Y155000D02*
X155000D01*
X27500D02*
Y725000D01*
X632500D01*
D86*
X0Y800000D02*
X0Y405000D01*
X0Y800000D02*
X850000D01*
Y470000D02*
Y800000D01*
Y470000D02*
X957500D01*
Y305000D02*
Y470000D01*
X850000Y305000D02*
X957500D01*
X850000Y-0D02*
Y305000D01*
X0Y0D02*
X850000Y-0D01*
X0Y240000D02*
X0Y0D01*
X-115000Y240000D02*
X0D01*
X-115000D02*
Y405000D01*
X0D01*
D87*
X430000Y534800D02*
D03*
Y622700D02*
D03*
D88*
X94000Y284000D02*
D03*
X-31000Y359000D02*
D03*
X750000Y426000D02*
D03*
D89*
X461900Y30000D02*
D03*
X563500D02*
D03*
X588900D02*
D03*
X538100D02*
D03*
X512700D02*
D03*
X487300D02*
D03*
X436500D02*
D03*
X411100D02*
D03*
X385700D02*
D03*
X461900Y182400D02*
D03*
X563500D02*
D03*
X614300D02*
D03*
X588900D02*
D03*
X538100D02*
D03*
X512700D02*
D03*
X487300D02*
D03*
X436500D02*
D03*
X385700D02*
D03*
D90*
X30000Y30000D02*
D03*
X820000D02*
D03*
X30000Y770000D02*
D03*
X820000D02*
D03*
D91*
X716000Y705000D02*
D03*
D92*
X462500Y300000D02*
D03*
X294053Y589053D02*
D03*
X277500Y595000D02*
D03*
X157500Y565000D02*
D03*
X187500Y177500D02*
D03*
X107500Y160000D02*
D03*
X138419Y257463D02*
D03*
X155000Y490000D02*
D03*
X270000Y485000D02*
D03*
X690000Y550000D02*
D03*
X605000D02*
D03*
X292500Y560000D02*
D03*
X596950Y498734D02*
D03*
X162500Y599999D02*
D03*
X292500Y637500D02*
D03*
Y612500D02*
D03*
Y542500D02*
D03*
Y520000D02*
D03*
Y502500D02*
D03*
Y487500D02*
D03*
Y470000D02*
D03*
Y450000D02*
D03*
Y432500D02*
D03*
Y417500D02*
D03*
X220000D02*
D03*
Y432500D02*
D03*
Y447500D02*
D03*
X207500D02*
D03*
X190000D02*
D03*
X172500D02*
D03*
X207500Y417500D02*
D03*
Y432500D02*
D03*
X190000Y417500D02*
D03*
Y432500D02*
D03*
X172500Y417500D02*
D03*
Y432500D02*
D03*
X152500Y417500D02*
D03*
Y432500D02*
D03*
X590472Y419600D02*
D03*
Y404600D02*
D03*
Y384600D02*
D03*
Y364600D02*
D03*
Y349600D02*
D03*
X577472Y419600D02*
D03*
Y404600D02*
D03*
Y384600D02*
D03*
Y364600D02*
D03*
Y349600D02*
D03*
X562472Y419600D02*
D03*
Y404600D02*
D03*
Y384600D02*
D03*
Y364600D02*
D03*
Y349600D02*
D03*
X547472Y419600D02*
D03*
Y404600D02*
D03*
Y384600D02*
D03*
Y364600D02*
D03*
Y349600D02*
D03*
X532472Y419600D02*
D03*
Y404600D02*
D03*
Y384600D02*
D03*
Y364600D02*
D03*
Y349600D02*
D03*
X517472Y419600D02*
D03*
Y404600D02*
D03*
Y384600D02*
D03*
Y364600D02*
D03*
Y349600D02*
D03*
X124000Y199250D02*
D03*
X115250D02*
D03*
X123750Y207250D02*
D03*
X115250Y207000D02*
D03*
X123500Y214750D02*
D03*
X115250Y215000D02*
D03*
X233000Y467750D02*
D03*
X241750D02*
D03*
X233250Y459750D02*
D03*
X241750Y460000D02*
D03*
X233500Y452250D02*
D03*
X241750Y452000D02*
D03*
M02*
