G04*
G04 #@! TF.GenerationSoftware,Altium Limited,Altium Designer,20.1.12 (249)*
G04*
G04 Layer_Physical_Order=2*
G04 Layer_Color=32768*
%FSLAX44Y44*%
%MOMM*%
G71*
G04*
G04 #@! TF.SameCoordinates,BAD2E13A-ADEF-41FB-B1CA-1C4B7F66A015*
G04*
G04*
G04 #@! TF.FilePolarity,Negative*
G04*
G01*
G75*
%ADD67C,0.3000*%
%ADD68C,1.0160*%
%ADD69C,2.1160*%
%ADD70C,1.8160*%
%ADD71C,4.2160*%
%ADD72C,3.0160*%
%ADD73C,2.6160*%
%ADD74C,1.3160*%
D67*
X381310Y3810D02*
Y61743D01*
X282500Y62500D02*
X380000D01*
X282500Y112500D02*
X380000D01*
Y287500D01*
X460000D01*
Y647500D01*
X550000D01*
Y750000D01*
D68*
X-0Y0D02*
Y750000D01*
Y0D02*
X750000D01*
Y750000D01*
X-0Y750000D02*
X750000Y750000D01*
D69*
X377900Y448300D02*
D03*
Y422900D02*
D03*
Y397500D02*
D03*
X385200Y510000D02*
D03*
D70*
X474085Y213293D02*
D03*
X474085Y70250D02*
D03*
X567128D02*
D03*
X627500Y699043D02*
D03*
X567128Y213293D02*
D03*
X321043Y140000D02*
D03*
D71*
X30000Y30000D02*
D03*
Y720000D02*
D03*
X720000D02*
D03*
Y30000D02*
D03*
D72*
X218500Y210250D02*
D03*
D73*
X665000Y471730D02*
D03*
Y420930D02*
D03*
D74*
X452500Y442500D02*
D03*
X525000Y340000D02*
D03*
X510000Y350000D02*
D03*
X532500Y505000D02*
D03*
X436016Y296484D02*
D03*
X440000Y340000D02*
D03*
X427500Y375000D02*
D03*
X435000Y545000D02*
D03*
X505000Y405000D02*
D03*
X510000Y520000D02*
D03*
X505000Y570000D02*
D03*
X640000Y497500D02*
D03*
Y507500D02*
D03*
Y517500D02*
D03*
Y527500D02*
D03*
X592000Y608000D02*
D03*
Y590000D02*
D03*
Y572000D02*
D03*
X601000D02*
D03*
X610000D02*
D03*
X619000D02*
D03*
Y581000D02*
D03*
X610000D02*
D03*
X601000D02*
D03*
Y590000D02*
D03*
X610000D02*
D03*
X619000D02*
D03*
Y599000D02*
D03*
X610000D02*
D03*
X601000D02*
D03*
Y608000D02*
D03*
X610000D02*
D03*
X619000D02*
D03*
X592000Y599000D02*
D03*
Y581000D02*
D03*
X592000Y501000D02*
D03*
Y519000D02*
D03*
X619000Y528000D02*
D03*
X610000D02*
D03*
X601000D02*
D03*
Y519000D02*
D03*
X610000D02*
D03*
X619000D02*
D03*
Y510000D02*
D03*
X610000D02*
D03*
X601000D02*
D03*
Y501000D02*
D03*
X610000D02*
D03*
X619000D02*
D03*
Y492000D02*
D03*
X610000D02*
D03*
X601000D02*
D03*
X592000D02*
D03*
Y510000D02*
D03*
Y528000D02*
D03*
Y453000D02*
D03*
Y435000D02*
D03*
Y417000D02*
D03*
X601000D02*
D03*
X610000D02*
D03*
X619000D02*
D03*
Y426000D02*
D03*
X610000D02*
D03*
X601000D02*
D03*
Y435000D02*
D03*
X610000D02*
D03*
X619000D02*
D03*
Y444000D02*
D03*
X610000D02*
D03*
X601000D02*
D03*
Y453000D02*
D03*
X610000D02*
D03*
X619000D02*
D03*
X592000Y444000D02*
D03*
Y426000D02*
D03*
Y341000D02*
D03*
Y359000D02*
D03*
X619000Y368000D02*
D03*
X610000D02*
D03*
X601000D02*
D03*
Y359000D02*
D03*
X610000D02*
D03*
X619000D02*
D03*
Y350000D02*
D03*
X610000D02*
D03*
X601000D02*
D03*
Y341000D02*
D03*
X610000D02*
D03*
X619000D02*
D03*
Y332000D02*
D03*
X610000D02*
D03*
X601000D02*
D03*
X592000D02*
D03*
Y350000D02*
D03*
Y368000D02*
D03*
M02*
