G04*
G04 #@! TF.GenerationSoftware,Altium Limited,Altium Designer,20.1.12 (249)*
G04*
G04 Layer_Physical_Order=4*
G04 Layer_Color=16711680*
%FSLAX44Y44*%
%MOMM*%
G71*
G04*
G04 #@! TF.SameCoordinates,BAD2E13A-ADEF-41FB-B1CA-1C4B7F66A015*
G04*
G04*
G04 #@! TF.FilePolarity,Positive*
G04*
G01*
G75*
%ADD52C,0.2540*%
%ADD55R,1.6500X1.6500*%
%ADD56C,1.6500*%
%ADD57C,1.2000*%
%ADD58R,1.2000X1.2000*%
%ADD59C,3.0000*%
%ADD60R,3.0000X3.0000*%
%ADD61R,1.2000X1.2000*%
%ADD62C,2.4000*%
%ADD63R,2.4000X2.4000*%
%ADD64C,1.6000*%
%ADD65R,1.6000X1.6000*%
%ADD66C,0.6000*%
%ADD75R,1.0000X1.0000*%
G36*
X708249Y748730D02*
X705865Y747742D01*
X701699Y745190D01*
X697983Y742017D01*
X694810Y738301D01*
X692258Y734135D01*
X691360Y731968D01*
X690090Y732220D01*
Y735000D01*
X689893Y735991D01*
X689331Y736831D01*
X688491Y737393D01*
X687500Y737590D01*
X605000D01*
X604009Y737393D01*
X603169Y736831D01*
X602607Y735991D01*
X602410Y735000D01*
Y635040D01*
X599960D01*
Y625454D01*
X598253Y623747D01*
X597411Y622486D01*
X597115Y621000D01*
Y612602D01*
X596491Y612264D01*
X595845Y612094D01*
X594161Y613218D01*
X592000Y613648D01*
X589838Y613218D01*
X588006Y611994D01*
X586781Y610162D01*
X586351Y608000D01*
X586781Y605838D01*
X588006Y604006D01*
Y602994D01*
X586781Y601162D01*
X586351Y599000D01*
X586781Y596838D01*
X588006Y595006D01*
Y593994D01*
X586781Y592162D01*
X586351Y590000D01*
X586781Y587838D01*
X588006Y586006D01*
Y584994D01*
X586781Y583162D01*
X586351Y581000D01*
X586781Y578838D01*
X588006Y577006D01*
Y575994D01*
X586781Y574162D01*
X586351Y572000D01*
X586781Y569838D01*
X588006Y568006D01*
X589838Y566781D01*
X592000Y566352D01*
X594161Y566781D01*
X595638Y567768D01*
X596500Y567918D01*
X597362Y567768D01*
X598838Y566781D01*
X601000Y566352D01*
X601428Y566437D01*
X602410Y565631D01*
Y542590D01*
X584159D01*
X583168Y542393D01*
X582328Y541831D01*
X581767Y540991D01*
X581767Y540991D01*
X581281Y539818D01*
X581281Y539818D01*
X581084Y538827D01*
X581281Y537836D01*
X581842Y536996D01*
X582410Y536427D01*
Y480040D01*
X567460D01*
Y464960D01*
X577046D01*
X586807Y455200D01*
X586781Y455162D01*
X586352Y453000D01*
X586781Y450838D01*
X588006Y449006D01*
Y447994D01*
X586781Y446162D01*
X586352Y444000D01*
X586781Y441838D01*
X588006Y440006D01*
Y438994D01*
X586781Y437162D01*
X586352Y435000D01*
X586781Y432838D01*
X588006Y431006D01*
Y429994D01*
X586781Y428162D01*
X586471Y426602D01*
X585452D01*
X585202Y426552D01*
X584947D01*
X584711Y426454D01*
X584461Y426405D01*
X584249Y426263D01*
X584013Y426165D01*
X583833Y425985D01*
X583621Y425843D01*
X583479Y425631D01*
X583299Y425451D01*
X583201Y425215D01*
X583059Y425003D01*
X583010Y424753D01*
X582912Y424517D01*
X582755Y423730D01*
X582749Y423714D01*
X582607Y423502D01*
X582558Y423252D01*
X582460Y423017D01*
Y422761D01*
X582410Y422511D01*
Y325000D01*
X582607Y324009D01*
X583169Y323169D01*
X584009Y322607D01*
X585000Y322410D01*
X687500D01*
X688491Y322607D01*
X689331Y323169D01*
X689893Y324009D01*
X690090Y325000D01*
Y332500D01*
Y707780D01*
X691360Y708032D01*
X692258Y705865D01*
X694810Y701699D01*
X697983Y697983D01*
X701699Y694810D01*
X705865Y692258D01*
X710378Y690388D01*
X715129Y689247D01*
X720000Y688864D01*
X724871Y689247D01*
X729622Y690388D01*
X734135Y692258D01*
X738301Y694810D01*
X742017Y697983D01*
X745190Y701699D01*
X747742Y705865D01*
X748730Y708249D01*
X750000Y707996D01*
Y42004D01*
X748730Y41751D01*
X747742Y44135D01*
X745190Y48301D01*
X742017Y52017D01*
X738301Y55189D01*
X734135Y57742D01*
X729622Y59612D01*
X724871Y60753D01*
X720000Y61136D01*
X715129Y60753D01*
X710378Y59612D01*
X705865Y57742D01*
X701699Y55189D01*
X697983Y52017D01*
X694810Y48301D01*
X692258Y44135D01*
X690388Y39622D01*
X689247Y34871D01*
X688864Y30000D01*
X689247Y25129D01*
X690388Y20378D01*
X692258Y15865D01*
X694810Y11699D01*
X697983Y7983D01*
X701699Y4811D01*
X705865Y2258D01*
X708249Y1270D01*
X707996Y0D01*
X384119D01*
Y283381D01*
X461706D01*
X465000Y286675D01*
Y647500D01*
Y750000D01*
X707996Y750000D01*
X708249Y748730D01*
D02*
G37*
G36*
X460000D02*
Y647500D01*
Y287500D01*
X380000D01*
Y0D01*
X42004D01*
X41751Y1270D01*
X44135Y2258D01*
X48301Y4811D01*
X52017Y7983D01*
X55189Y11699D01*
X57742Y15865D01*
X59612Y20378D01*
X60753Y25129D01*
X61136Y30000D01*
X60753Y34871D01*
X59612Y39622D01*
X57742Y44135D01*
X55189Y48301D01*
X52017Y52017D01*
X48301Y55189D01*
X44135Y57742D01*
X39622Y59612D01*
X34871Y60753D01*
X30000Y61136D01*
X25129Y60753D01*
X20378Y59612D01*
X15865Y57742D01*
X11699Y55189D01*
X7983Y52017D01*
X4811Y48301D01*
X2258Y44135D01*
X1270Y41751D01*
X0Y42004D01*
Y707996D01*
X1270Y708249D01*
X2258Y705865D01*
X4811Y701699D01*
X7983Y697983D01*
X11699Y694810D01*
X15865Y692258D01*
X20378Y690388D01*
X25129Y689247D01*
X30000Y688864D01*
X34871Y689247D01*
X39622Y690388D01*
X44135Y692258D01*
X48301Y694810D01*
X52017Y697983D01*
X55189Y701699D01*
X57742Y705865D01*
X59612Y710378D01*
X60753Y715129D01*
X61136Y720000D01*
X60753Y724871D01*
X59612Y729622D01*
X57742Y734135D01*
X55189Y738301D01*
X52017Y742017D01*
X48301Y745190D01*
X44135Y747742D01*
X41751Y748730D01*
X42004Y750000D01*
X458730Y750000D01*
X460000Y748730D01*
D02*
G37*
G36*
X687500Y332500D02*
Y325000D01*
X585000D01*
Y422511D01*
X585219Y422838D01*
X585452Y424012D01*
X586747D01*
X586781Y423838D01*
X588006Y422006D01*
Y420994D01*
X586781Y419162D01*
X586352Y417000D01*
X586781Y414838D01*
X588006Y413006D01*
X589838Y411781D01*
X592000Y411352D01*
X594162Y411781D01*
X595638Y412768D01*
X596500Y412918D01*
X597362Y412768D01*
X598838Y411781D01*
X601000Y411352D01*
X603162Y411781D01*
X604638Y412768D01*
X605500Y412918D01*
X606362Y412768D01*
X607838Y411781D01*
X610000Y411352D01*
X612162Y411781D01*
X613638Y412768D01*
X614500Y412918D01*
X615362Y412768D01*
X616838Y411781D01*
X619000Y411352D01*
X621162Y411781D01*
X622994Y413006D01*
X624218Y414838D01*
X624649Y417000D01*
X624218Y419162D01*
X622994Y420994D01*
Y422006D01*
X624218Y423838D01*
X624649Y426000D01*
X624218Y428162D01*
X622994Y429994D01*
Y431006D01*
X624218Y432838D01*
X624649Y435000D01*
X624218Y437162D01*
X622994Y438994D01*
Y440006D01*
X624218Y441838D01*
X624649Y444000D01*
X624218Y446162D01*
X622994Y447994D01*
Y449006D01*
X624218Y450838D01*
X624649Y453000D01*
X624218Y455162D01*
X622994Y456994D01*
X621162Y458218D01*
X619000Y458648D01*
X616838Y458218D01*
X615006Y456994D01*
X613994D01*
X612162Y458218D01*
X610000Y458648D01*
X607838Y458218D01*
X606006Y456994D01*
X604994D01*
X603162Y458218D01*
X601000Y458648D01*
X598838Y458218D01*
X597006Y456994D01*
X595638Y457232D01*
X594856Y457754D01*
X594085Y458909D01*
X585000Y467994D01*
Y537500D01*
X583673Y538827D01*
X584159Y540000D01*
X605000D01*
Y567267D01*
X605335Y567513D01*
X606270Y567829D01*
X607838Y566781D01*
X610000Y566352D01*
X612162Y566781D01*
X613994Y568006D01*
X615006D01*
X616838Y566781D01*
X619000Y566352D01*
X621161Y566781D01*
X622994Y568006D01*
X624218Y569838D01*
X624649Y572000D01*
X624218Y574162D01*
X622994Y575994D01*
Y577006D01*
X624218Y578838D01*
X624649Y581000D01*
X624218Y583162D01*
X622994Y584994D01*
Y586006D01*
X624218Y587838D01*
X624649Y590000D01*
X624218Y592162D01*
X622994Y593994D01*
Y595006D01*
X624218Y596838D01*
X624649Y599000D01*
X624218Y601162D01*
X622994Y602994D01*
Y604006D01*
X624218Y605838D01*
X624649Y608000D01*
X624218Y610162D01*
X622994Y611994D01*
X621161Y613218D01*
X619000Y613648D01*
X616838Y613218D01*
X615006Y611994D01*
X613994D01*
X612162Y613218D01*
X610000Y613648D01*
X607838Y613218D01*
X606270Y612171D01*
X605335Y612487D01*
X605000Y612733D01*
Y619506D01*
X605454Y619960D01*
X615040D01*
Y635040D01*
X605000D01*
Y735000D01*
X687500D01*
Y332500D01*
D02*
G37*
%LPC*%
G36*
X505000Y575648D02*
X502838Y575219D01*
X501006Y573994D01*
X499781Y572162D01*
X499352Y570000D01*
X499781Y567838D01*
X501006Y566006D01*
X502838Y564781D01*
X505000Y564352D01*
X505129Y564377D01*
X506115Y563391D01*
Y540040D01*
X492460D01*
Y524960D01*
X502046D01*
X504807Y522200D01*
X504781Y522162D01*
X504352Y520000D01*
X504781Y517838D01*
X506006Y516006D01*
X507838Y514781D01*
X510000Y514352D01*
X512162Y514781D01*
X513994Y516006D01*
X515219Y517838D01*
X515648Y520000D01*
X515219Y522162D01*
X513994Y523994D01*
X513885Y524067D01*
Y565000D01*
X513589Y566487D01*
X512747Y567747D01*
X510623Y569871D01*
X510648Y570000D01*
X510219Y572162D01*
X508994Y573994D01*
X507162Y575219D01*
X505000Y575648D01*
D02*
G37*
G36*
X554497Y522574D02*
X539417D01*
Y512988D01*
X535976Y509547D01*
X535667D01*
X534662Y510219D01*
X532500Y510648D01*
X530338Y510219D01*
X528506Y508994D01*
X527281Y507162D01*
X526852Y505000D01*
X527281Y502838D01*
X528506Y501006D01*
X530338Y499781D01*
X532500Y499352D01*
X534662Y499781D01*
X536494Y501006D01*
X537010Y501777D01*
X537585D01*
X539072Y502073D01*
X540332Y502915D01*
X544911Y507494D01*
X554497D01*
Y522574D01*
D02*
G37*
G36*
X505000Y410648D02*
X502838Y410219D01*
X501006Y408994D01*
X499781Y407162D01*
X499352Y405000D01*
X499781Y402838D01*
X501006Y401006D01*
X502838Y399781D01*
X505000Y399352D01*
X505129Y399377D01*
X508615Y395891D01*
Y378010D01*
X507540Y377540D01*
Y377540D01*
X492460D01*
Y362460D01*
X502046D01*
X507055Y357451D01*
X506411Y356487D01*
X506115Y355000D01*
Y354067D01*
X506006Y353994D01*
X504781Y352162D01*
X504352Y350000D01*
X504781Y347838D01*
X506006Y346006D01*
X507838Y344781D01*
X510000Y344352D01*
X512162Y344781D01*
X513994Y346006D01*
X515219Y347838D01*
X515648Y350000D01*
X515219Y352162D01*
X514192Y353698D01*
X515247Y354753D01*
X516089Y356013D01*
X516385Y357500D01*
Y397500D01*
X516089Y398987D01*
X515247Y400247D01*
X510623Y404871D01*
X510648Y405000D01*
X510219Y407162D01*
X508994Y408994D01*
X507162Y410219D01*
X505000Y410648D01*
D02*
G37*
G36*
X545040Y347540D02*
X529960D01*
Y344760D01*
X529728Y344576D01*
X528690Y344197D01*
X527162Y345219D01*
X525000Y345648D01*
X522838Y345219D01*
X521006Y343994D01*
X519781Y342162D01*
X519352Y340000D01*
X519781Y337838D01*
X521006Y336006D01*
X522838Y334781D01*
X525000Y334352D01*
X527162Y334781D01*
X528690Y335803D01*
X529728Y335424D01*
X529960Y335240D01*
Y332460D01*
X545040D01*
Y347540D01*
D02*
G37*
G36*
X575668Y221833D02*
X558588D01*
Y204753D01*
X575668D01*
Y221833D01*
D02*
G37*
G36*
X482625D02*
X465545D01*
Y204753D01*
X482625D01*
Y221833D01*
D02*
G37*
G36*
X575668Y78790D02*
X558588D01*
Y61710D01*
X575668D01*
Y78790D01*
D02*
G37*
G36*
X482625D02*
X465545D01*
Y61710D01*
X482625D01*
Y78790D01*
D02*
G37*
G36*
X435000Y550648D02*
X432838Y550219D01*
X431006Y548994D01*
X430933Y548885D01*
X420200D01*
X418713Y548589D01*
X417453Y547747D01*
X389382Y519676D01*
X387952Y520269D01*
X385200Y520631D01*
X382449Y520269D01*
X379884Y519207D01*
X377683Y517517D01*
X375993Y515316D01*
X374931Y512752D01*
X374569Y510000D01*
X374931Y507248D01*
X375993Y504684D01*
X377683Y502483D01*
X379884Y500793D01*
X382449Y499731D01*
X385200Y499369D01*
X387952Y499731D01*
X389382Y500324D01*
X423615Y466091D01*
Y379067D01*
X423506Y378994D01*
X422281Y377162D01*
X421852Y375000D01*
X422281Y372838D01*
X423506Y371006D01*
X425338Y369781D01*
X427500Y369352D01*
X429662Y369781D01*
X431494Y371006D01*
X432719Y372838D01*
X433148Y375000D01*
X432719Y377162D01*
X431494Y378994D01*
X431385Y379067D01*
Y467700D01*
X431089Y469187D01*
X430247Y470447D01*
X394876Y505818D01*
X395469Y507248D01*
X395831Y510000D01*
X395469Y512752D01*
X394876Y514182D01*
X421809Y541115D01*
X430933D01*
X431006Y541006D01*
X432838Y539781D01*
X435000Y539352D01*
X437162Y539781D01*
X438994Y541006D01*
X440219Y542838D01*
X440648Y545000D01*
X440219Y547162D01*
X438994Y548994D01*
X437162Y550219D01*
X435000Y550648D01*
D02*
G37*
G36*
X377900Y459183D02*
X375083Y458812D01*
X372458Y457725D01*
X370205Y455995D01*
X368475Y453741D01*
X367388Y451117D01*
X367017Y448300D01*
X367388Y445483D01*
X368475Y442858D01*
X370205Y440605D01*
X372458Y438875D01*
X375083Y437788D01*
X377900Y437417D01*
X380717Y437788D01*
X383341Y438875D01*
X385596Y440605D01*
X387325Y442858D01*
X388412Y445483D01*
X388783Y448300D01*
X388412Y451117D01*
X387325Y453741D01*
X385596Y455995D01*
X383341Y457725D01*
X380717Y458812D01*
X377900Y459183D01*
D02*
G37*
G36*
X457540Y462540D02*
X442460D01*
Y447460D01*
X447740D01*
X447924Y447228D01*
X448303Y446190D01*
X447281Y444662D01*
X446852Y442500D01*
X447281Y440338D01*
X448506Y438506D01*
X450338Y437281D01*
X452500Y436852D01*
X454662Y437281D01*
X456494Y438506D01*
X457719Y440338D01*
X458148Y442500D01*
X457719Y444662D01*
X456697Y446190D01*
X457076Y447228D01*
X457260Y447460D01*
X457540D01*
Y462540D01*
D02*
G37*
G36*
X377900Y433783D02*
X375083Y433412D01*
X372458Y432325D01*
X370205Y430596D01*
X368475Y428341D01*
X367388Y425717D01*
X367017Y422900D01*
X367388Y420083D01*
X368475Y417458D01*
X370205Y415205D01*
X372458Y413475D01*
X375083Y412388D01*
X377900Y412017D01*
X380717Y412388D01*
X383341Y413475D01*
X385596Y415205D01*
X387325Y417458D01*
X388412Y420083D01*
X388783Y422900D01*
X388412Y425717D01*
X387325Y428341D01*
X385596Y430596D01*
X383341Y432325D01*
X380717Y433412D01*
X377900Y433783D01*
D02*
G37*
G36*
Y408383D02*
X375083Y408012D01*
X372458Y406925D01*
X370205Y405196D01*
X368475Y402942D01*
X367388Y400317D01*
X367017Y397500D01*
X367388Y394683D01*
X368475Y392058D01*
X370205Y389804D01*
X372458Y388075D01*
X375083Y386988D01*
X377900Y386617D01*
X380717Y386988D01*
X383341Y388075D01*
X385596Y389804D01*
X387325Y392058D01*
X388412Y394683D01*
X388783Y397500D01*
X388412Y400317D01*
X387325Y402942D01*
X385596Y405196D01*
X383341Y406925D01*
X380717Y408012D01*
X377900Y408383D01*
D02*
G37*
G36*
X440000Y345648D02*
X437838Y345219D01*
X436006Y343994D01*
X434781Y342162D01*
X434352Y340000D01*
X434377Y339871D01*
X432046Y337540D01*
X422460D01*
Y322460D01*
X437540D01*
Y332046D01*
X439871Y334377D01*
X440000Y334352D01*
X442162Y334781D01*
X443994Y336006D01*
X445219Y337838D01*
X445648Y340000D01*
X445219Y342162D01*
X443994Y343994D01*
X442162Y345219D01*
X440000Y345648D01*
D02*
G37*
G36*
X437540Y310040D02*
X422460D01*
Y294960D01*
X430670D01*
X430797Y294323D01*
X432021Y292490D01*
X433854Y291266D01*
X436016Y290836D01*
X438177Y291266D01*
X440010Y292490D01*
X441234Y294323D01*
X441664Y296484D01*
X441234Y298646D01*
X440010Y300478D01*
X438177Y301703D01*
X437540Y301830D01*
Y310040D01*
D02*
G37*
G36*
X218500Y227875D02*
X215061Y227536D01*
X211755Y226533D01*
X208708Y224904D01*
X206037Y222713D01*
X203845Y220042D01*
X202216Y216995D01*
X201213Y213688D01*
X200875Y210250D01*
X201213Y206812D01*
X202216Y203505D01*
X203845Y200458D01*
X206037Y197787D01*
X208708Y195595D01*
X211755Y193967D01*
X215061Y192964D01*
X218500Y192625D01*
X221938Y192964D01*
X225245Y193967D01*
X228292Y195595D01*
X230962Y197787D01*
X233154Y200458D01*
X234783Y203505D01*
X235786Y206812D01*
X236125Y210250D01*
X235786Y213688D01*
X234783Y216995D01*
X233154Y220042D01*
X230962Y222713D01*
X228292Y224904D01*
X225245Y226533D01*
X221938Y227536D01*
X218500Y227875D01*
D02*
G37*
G36*
X329583Y148540D02*
X312503D01*
Y131460D01*
X329583D01*
Y148540D01*
D02*
G37*
G36*
X665000Y486395D02*
X661205Y485896D01*
X657667Y484431D01*
X654630Y482100D01*
X652299Y479063D01*
X650835Y475526D01*
X650335Y471730D01*
X650835Y467934D01*
X652299Y464397D01*
X654630Y461360D01*
X657667Y459029D01*
X661205Y457564D01*
X665000Y457064D01*
X668796Y457564D01*
X672333Y459029D01*
X675370Y461360D01*
X677701Y464397D01*
X679166Y467934D01*
X679666Y471730D01*
X679166Y475526D01*
X677701Y479063D01*
X675370Y482100D01*
X672333Y484431D01*
X668796Y485896D01*
X665000Y486395D01*
D02*
G37*
G36*
X679540Y435470D02*
X650460D01*
Y406390D01*
X679540D01*
Y435470D01*
D02*
G37*
%LPD*%
D52*
X450000Y455000D02*
X452500Y452500D01*
Y442500D02*
Y452500D01*
X575000Y472500D02*
X591338Y456162D01*
Y453662D02*
Y456162D01*
Y453662D02*
X592000Y453000D01*
X525000Y340000D02*
X537500D01*
X510000Y350000D02*
Y355000D01*
X512500Y357500D01*
X537585Y505662D02*
X546957Y515034D01*
X533162Y505662D02*
X537585D01*
X532500Y505000D02*
X533162Y505662D01*
X430000Y302500D02*
X436016Y296484D01*
X601000Y621000D02*
X607500Y627500D01*
X601000Y608000D02*
Y621000D01*
X430000Y330000D02*
X440000Y340000D01*
X500000Y532500D02*
X509338Y523162D01*
Y520662D02*
Y523162D01*
Y520662D02*
X510000Y520000D01*
X512500Y357500D02*
Y397500D01*
X500000Y370000D02*
X512500Y357500D01*
X427500Y375000D02*
Y467700D01*
X385200Y510000D02*
X427500Y467700D01*
X385200Y510000D02*
X420200Y545000D01*
X435000D01*
X505000Y405000D02*
X512500Y397500D01*
X510000Y520000D02*
Y565000D01*
X505000Y570000D02*
X510000Y565000D01*
D55*
X352500Y448300D02*
D03*
D56*
X377900D02*
D03*
X352500Y422900D02*
D03*
Y397500D02*
D03*
X377900Y422900D02*
D03*
Y397500D02*
D03*
D57*
X424085Y213293D02*
D03*
X424085Y70250D02*
D03*
X617128D02*
D03*
X577500Y699043D02*
D03*
X617128Y213293D02*
D03*
X321043Y90000D02*
D03*
D58*
X474085Y213293D02*
D03*
X474085Y70250D02*
D03*
X567128D02*
D03*
X627500Y699043D02*
D03*
X567128Y213293D02*
D03*
D59*
X218500Y210250D02*
D03*
D60*
X143500Y85250D02*
D03*
D61*
X321043Y140000D02*
D03*
D62*
X665000Y471730D02*
D03*
D63*
Y420930D02*
D03*
D64*
X385200Y510000D02*
D03*
D65*
X359800D02*
D03*
D66*
X452500Y442500D02*
D03*
X580000Y435000D02*
D03*
Y445000D02*
D03*
Y455000D02*
D03*
X525000Y340000D02*
D03*
X437500Y485000D02*
D03*
X510000Y350000D02*
D03*
X532500Y505000D02*
D03*
X436016Y296484D02*
D03*
X440000Y340000D02*
D03*
X440188Y317312D02*
D03*
X432500Y352500D02*
D03*
X437661Y520000D02*
D03*
X580000Y425000D02*
D03*
Y580000D02*
D03*
Y590000D02*
D03*
Y600000D02*
D03*
Y610000D02*
D03*
X427500Y375000D02*
D03*
X435000Y545000D02*
D03*
X505000Y405000D02*
D03*
X510000Y520000D02*
D03*
X505000Y570000D02*
D03*
X640000Y497500D02*
D03*
Y507500D02*
D03*
Y517500D02*
D03*
Y527500D02*
D03*
X592000Y608000D02*
D03*
Y590000D02*
D03*
Y572000D02*
D03*
X601000D02*
D03*
X610000D02*
D03*
X619000D02*
D03*
Y581000D02*
D03*
X610000D02*
D03*
X601000D02*
D03*
Y590000D02*
D03*
X610000D02*
D03*
X619000D02*
D03*
Y599000D02*
D03*
X610000D02*
D03*
X601000D02*
D03*
Y608000D02*
D03*
X610000D02*
D03*
X619000D02*
D03*
X592000Y599000D02*
D03*
Y581000D02*
D03*
X592000Y501000D02*
D03*
Y519000D02*
D03*
X619000Y528000D02*
D03*
X610000D02*
D03*
X601000D02*
D03*
Y519000D02*
D03*
X610000D02*
D03*
X619000D02*
D03*
Y510000D02*
D03*
X610000D02*
D03*
X601000D02*
D03*
Y501000D02*
D03*
X610000D02*
D03*
X619000D02*
D03*
Y492000D02*
D03*
X610000D02*
D03*
X601000D02*
D03*
X592000D02*
D03*
Y510000D02*
D03*
Y528000D02*
D03*
Y453000D02*
D03*
Y435000D02*
D03*
Y417000D02*
D03*
X601000D02*
D03*
X610000D02*
D03*
X619000D02*
D03*
Y426000D02*
D03*
X610000D02*
D03*
X601000D02*
D03*
Y435000D02*
D03*
X610000D02*
D03*
X619000D02*
D03*
Y444000D02*
D03*
X610000D02*
D03*
X601000D02*
D03*
Y453000D02*
D03*
X610000D02*
D03*
X619000D02*
D03*
X592000Y444000D02*
D03*
Y426000D02*
D03*
Y341000D02*
D03*
Y359000D02*
D03*
X619000Y368000D02*
D03*
X610000D02*
D03*
X601000D02*
D03*
Y359000D02*
D03*
X610000D02*
D03*
X619000D02*
D03*
Y350000D02*
D03*
X610000D02*
D03*
X601000D02*
D03*
Y341000D02*
D03*
X610000D02*
D03*
X619000D02*
D03*
Y332000D02*
D03*
X610000D02*
D03*
X601000D02*
D03*
X592000D02*
D03*
Y350000D02*
D03*
Y368000D02*
D03*
D75*
X430000Y302500D02*
D03*
X537500Y340000D02*
D03*
X607500Y627500D02*
D03*
X546957Y515034D02*
D03*
X450000Y455000D02*
D03*
X575000Y472500D02*
D03*
X430000Y330000D02*
D03*
X500000Y532500D02*
D03*
Y370000D02*
D03*
M02*
