M48
;Layer_Color=9474304
;FILE_FORMAT=4:4
METRIC,LZ
;TYPE=PLATED
T1F00S00C0.3000
T2F00S00C1.3000
%
T01
X0018375Y0003925
X002425Y0003775
X0030025Y000405
X00441Y0006175
X004425Y00137
X00004Y0014
X0000475Y001795
X0000325Y0007825
X00051Y00237
X0002875Y00302
X000765Y00277
X0008625Y0023925
X0012375Y0024
X00152
X00206Y0023605
Y0022405
Y0021205
X00218
X0023
Y0022405
X00218
Y0023605
X0023
Y0024805
X00218
X00206
Y0026005
Y0027205
Y0028405
X00218
X0023
Y0027205
X00218
Y0026005
X0023
X00242
Y0024805
Y0023605
Y0022405
Y0021205
Y0027205
Y0028405
X00295Y0023375
X003125Y002345
X0033175Y0023275
X0037875Y002905
X0040375Y00308
X004115Y0027575
X0043775Y0025
X0010525Y003045
T02
X000941Y000375
Y000875
X003543
Y000375
X004051
Y000875
X000433
Y000375
M30
