M48
;Layer_Color=9474304
;FILE_FORMAT=4:4
METRIC,LZ
;TYPE=PLATED
T1F00S00C0.3000
T2F00S00C0.5000
T4F00S00C0.8000
T5F00S00C1.0000
T6F00S00C1.0200
T7F00S00C1.1000
T8F00S00C2.7000
;TYPE=NON_PLATED
T9F00S00C3.2000
%
T01
X00079Y00012
X0008Y00059
X00079Y00104
X00025Y00103
X00024Y00147
X00023Y00186
X00059Y00181
Y00164
X00076
X00052Y0021
X00093Y00164
X00131Y00156
X0015238Y0017075
X00164837
X00177293
X0018975
Y00189
X00177293
X00164837
X0015238
Y0020805
X00164837
X00177293
X0018975
X00208Y00191
X0025101Y00189
X00263467
X00275923
X0028838
Y0017075
X00275923
X00263467
X0025101
X0023Y00157
X0021Y0011
X0018Y00066
Y00012
X00241Y00013
X00303Y00014
X0041Y00091
X0045Y00112
X00447Y00176
X00389Y00191
X00413Y0023
X00332Y002
X0028838Y0020805
X00275923
X00263467
X0025101
X00372Y00136
X00118Y00116
X00117Y00012
X00542Y00186
X00612Y00188
X00713Y00248
X00725
X00859Y00229
X00824Y00187
X00725Y00261
X00713
Y00274
X00725
Y00286
Y00298
X00713
Y00286
Y00311
X00725
Y00325
X00713
X00676458Y0032
Y00305
X00661458
Y0032
Y00335
X00676458
Y0035
X00661458
Y00365
Y00378
X00676458
Y00365
X00641458
Y00378
X00621457
Y00365
Y0035
X00606457
Y00365
Y00378
X00576Y00376
Y00359
Y00341
X00553
Y00359
Y00376
Y00395
X00553Y00412
X00576
X00576Y00395
X0053
X0053Y00412
X00507
X00507Y00394
Y00376
Y00359
Y00341
X0053
Y00359
X00530322Y00376
X00521287Y00458
X00617Y00455
X00631Y0042
X00641458Y0035
Y00335
Y0032
Y00305
X00621457
X00606457
Y0032
X00621457
Y00335
X00606457
X00612Y00258
X00672Y00288
X00674Y00474
X00683057Y00514493
Y00527493
Y00542493
Y00557493
Y00572493
Y00587493
X00663057
X00648057
Y00572493
X00663057
Y00557493
X00648057
Y00542493
X00663057
Y00527493
Y00514493
X00648057
Y00527493
X00703057
Y00514493
X00718057
Y00527493
Y00542493
X00703057
Y00557493
Y00572493
Y00587493
X00718057
Y00572493
Y00557493
X0063Y0062
X00595
X00461Y00626
X004Y00625
X00416Y00571
X00341Y00548
X0030025Y0053475
X00295Y0058577
X00282Y00626
X00211Y00627
X00215Y00574
X0023Y0056
X00221Y00471
Y0046
Y00449
Y00438
Y00425
Y00413
Y004
Y00388
X00207
Y004
Y00413
Y00425
Y00438
Y00449
Y0046
Y00471
X00184Y00453
X00157Y00456
X0014
X00123
X00106
Y00438
Y00422
Y00405
X0012525Y0040095
X00137707
X00150163
X0016262
Y0042
X00150163
X00137707
X0012525
Y0043825
X00137707
X00150163
X0016262
X00089Y00438
X0024025Y0043825
X00252707
X00265163
X0027762
Y0042
X00265163
X00252707
X0024025
Y0040095
X00252707
X00265163
X0027762
X00315Y00396
Y00384
Y00408
Y0042
Y00433
Y00445
Y00456
Y00467
Y00479
Y0049
X00299Y00455
X00251Y00305
Y0029
X00235
Y00305
X0022
Y0029
X00205
Y00305
X00189
Y0029
X00174
Y00305
X00158
Y0029
X00143
Y00305
X0036Y00312
X00484Y00341
Y00359
Y00376
Y00394
Y00412
X00483Y0051
X0008Y00508
X0002Y00509
Y00455
X00057Y00438
X00073
X00021Y00397
X00051Y00328
X00052Y00261
X00079Y00573
X0008Y00631
X00022
X00021Y0057
X00024Y00691
X0008Y00694
X00211Y00673
X00281Y00674
X00399
X00461
X00593Y00675
X00629
T02
X00536Y00279
X00636Y00477
T04
X0058Y0054
Y0059
T05
X0015Y00668
Y00743
X00342
Y00668
X00532
Y00743
X00722
Y00668
T06
X005657Y00015
X005911
X006165
X006419
X006673
X006927
X007181
X007435
X007689
X007943
Y001674
X007689
X007435
X007181
X006927
X006673
X006419
X006165
X005911
X005657
T07
X007703Y00202
X007957
X007327Y004
X007073
Y0043
X007327
T08
X0078Y00314
Y00386
X001Y00336
Y00264
T09
X0003Y0003
X0085
X0003Y0077
X0085
M30
