M48
;Layer_Color=9474304
;FILE_FORMAT=4:4
METRIC,LZ
;TYPE=PLATED
T1F00S00C0.3000
T2F00S00C1.3000
%
T01
X00166Y0001
X00165Y00047
X00163Y00095
X00007Y00144
Y0018
X00044Y00253
X00077Y00294
X00118Y00318
X001789Y0031655
X001909
X002029
X002149
Y0030455
Y0029255
Y0028055
Y0026855
Y0025655
Y0024455
X002029
X001909
Y0025655
X002029
Y0026855
X001909
Y0028055
X002029
Y0029255
X001909
Y0030455
X002029
X001789
Y0029255
Y0028055
Y0026855
Y0025655
Y0024455
X00262Y00257
X00279Y00259
X00362Y00298
X00351Y0033
X00383Y00239
T02
X0031Y000475
Y000975
X003608
Y000475
X00089008
Y000975
X00038207
Y000475
M30
