G04*
G04 #@! TF.GenerationSoftware,Altium Limited,Altium Designer,21.6.4 (81)*
G04*
G04 Layer_Color=16711935*
%FSLAX44Y44*%
%MOMM*%
G71*
G04*
G04 #@! TF.SameCoordinates,04AFCEB9-1927-4C3B-B3D4-275DD85C2008*
G04*
G04*
G04 #@! TF.FilePolarity,Positive*
G04*
G01*
G75*
%ADD11C,0.2000*%
%ADD12C,0.5000*%
%ADD14C,0.1000*%
%ADD15C,0.1270*%
D11*
X93000Y220000D02*
G03*
X93000Y220000I-1000J0D01*
G01*
X266000Y447000D02*
G03*
X266000Y447000I-1000J0D01*
G01*
X178000Y220000D02*
G03*
X178000Y220000I-1000J0D01*
G01*
X166000Y447000D02*
G03*
X166000Y447000I-1000J0D01*
G01*
X494543Y270042D02*
Y284042D01*
Y270042D02*
X516543D01*
Y284042D01*
X494543D02*
X516543D01*
X578000Y224000D02*
X592000D01*
Y246000D01*
X578000D02*
X592000D01*
X578000Y224000D02*
Y246000D01*
X620000Y255627D02*
X640000D01*
Y243127D02*
Y255627D01*
X620000Y243127D02*
X640000D01*
X620000D02*
Y255627D01*
X633000Y274000D02*
X647000D01*
Y296000D01*
X633000D02*
X647000D01*
X633000Y274000D02*
Y296000D01*
X496250Y560500D02*
Y574500D01*
Y560500D02*
X518250D01*
Y574500D01*
X496250D02*
X518250D01*
X412500Y208750D02*
Y221250D01*
Y208750D02*
X432500D01*
Y221250D01*
X412500D02*
X432500D01*
X619000Y562000D02*
X669000D01*
X619000D02*
Y672000D01*
X669000D01*
Y562000D02*
Y672000D01*
X530072Y343950D02*
X602472D01*
Y425250D01*
X530072D02*
X602472D01*
X530072Y343950D02*
Y425250D01*
X203000Y275000D02*
X221000D01*
Y309000D01*
X203000D02*
X221000D01*
X203000Y275000D02*
Y309000D01*
X178085Y275000D02*
X196085D01*
Y309000D01*
X178085D02*
X196085D01*
X178085Y275000D02*
Y309000D01*
X153543Y275000D02*
X171543D01*
Y309000D01*
X153543D02*
X171543D01*
X153543Y275000D02*
Y309000D01*
X129000Y275000D02*
X147000D01*
Y309000D01*
X129000D02*
X147000D01*
X129000Y275000D02*
Y309000D01*
X174500Y607000D02*
X194500D01*
X174500Y593000D02*
Y607000D01*
Y593000D02*
X194500D01*
Y607000D01*
X206500Y65000D02*
Y79000D01*
X186500Y65000D02*
X206500D01*
X186500D02*
Y79000D01*
X206500D01*
X156000Y91000D02*
Y113000D01*
X142000Y91000D02*
X156000D01*
X142000D02*
Y113000D01*
X156000D01*
X124000Y510000D02*
Y526000D01*
Y510000D02*
X156000D01*
Y526000D01*
X124000D02*
X156000D01*
X231000Y134000D02*
Y150000D01*
X199000D02*
X231000D01*
X199000Y134000D02*
Y150000D01*
Y134000D02*
X231000D01*
X117000Y535000D02*
Y557000D01*
X103000Y535000D02*
X117000D01*
X103000D02*
Y557000D01*
X117000D01*
X242000Y126000D02*
Y148000D01*
X256000D01*
Y126000D02*
Y148000D01*
X242000Y126000D02*
X256000D01*
X649043Y529000D02*
Y551000D01*
X663043D01*
Y529000D02*
Y551000D01*
X649043Y529000D02*
X663043D01*
X628000D02*
Y551000D01*
X642000D01*
Y529000D02*
Y551000D01*
X628000Y529000D02*
X642000D01*
X222000Y510000D02*
Y526000D01*
Y510000D02*
X254000D01*
Y526000D01*
X222000D02*
X254000D01*
X88166Y134000D02*
Y150000D01*
Y134000D02*
X120166D01*
Y150000D01*
X88166D02*
X120166D01*
X212000Y529000D02*
Y551000D01*
X198000Y529000D02*
X212000D01*
X198000D02*
Y551000D01*
X212000D01*
X459000Y270042D02*
X481000D01*
X459000D02*
Y284042D01*
X481000D01*
Y270042D02*
Y284042D01*
D12*
X837498Y634999D02*
G03*
X837498Y634999I-2500J0D01*
G01*
D14*
X-106500Y393000D02*
G03*
X-114000Y385500I0J-7500D01*
G01*
Y333500D02*
G03*
X-106500Y326000I7500J0D01*
G01*
X-114000Y258500D02*
G03*
X-106500Y251000I7500J0D01*
G01*
Y318000D02*
G03*
X-114000Y310500I0J-7500D01*
G01*
X950500Y317000D02*
G03*
X958000Y324500I0J7500D01*
G01*
Y376500D02*
G03*
X950500Y384000I-7500J0D01*
G01*
X958000Y451500D02*
G03*
X950500Y459000I-7500J0D01*
G01*
Y392000D02*
G03*
X958000Y399500I0J7500D01*
G01*
X781000Y730000D02*
G03*
X781000Y730000I-65000J0D01*
G01*
X637957D02*
G03*
X637957Y730000I-65000J0D01*
G01*
X494915Y729000D02*
G03*
X494915Y729000I-65000J0D01*
G01*
X351872D02*
G03*
X351872Y729000I-65000J0D01*
G01*
X530542Y227603D02*
Y247603D01*
X543042D01*
Y227603D02*
Y247603D01*
X530542Y227603D02*
X543042D01*
X490000Y253500D02*
X520000D01*
X490000Y236500D02*
X520000D01*
Y253500D01*
X490000Y236500D02*
Y253500D01*
X494000Y204548D02*
X516000D01*
X494000Y219048D02*
X516000D01*
Y204548D02*
Y219048D01*
X494000Y204548D02*
Y219048D01*
X469707Y255000D02*
X482207D01*
X469707Y235000D02*
Y255000D01*
Y235000D02*
X482207D01*
Y255000D01*
X549235Y268750D02*
Y281250D01*
X529235D02*
X549235D01*
X529235Y268750D02*
Y281250D01*
Y268750D02*
X549235D01*
X565745Y224000D02*
Y246000D01*
X551245Y224000D02*
Y246000D01*
X565745D01*
X551245Y224000D02*
X565745D01*
X610547Y296000D02*
X625047D01*
X610547Y274000D02*
X625047D01*
Y296000D01*
X610547Y274000D02*
Y296000D01*
X621442Y218053D02*
Y230553D01*
X601442D02*
X621442D01*
X601442Y218053D02*
Y230553D01*
Y218053D02*
X621442D01*
X417300Y572900D02*
X442700D01*
X417300Y522100D02*
Y572900D01*
Y522100D02*
X442700D01*
Y572900D01*
X460750Y568000D02*
X474250D01*
X460750Y547000D02*
X474250D01*
Y568000D01*
X460750Y547000D02*
Y568000D01*
X-106500Y393000D02*
X-84000D01*
X-114000Y333000D02*
Y385500D01*
X-106500Y326000D02*
X-84000D01*
X-106500Y251000D02*
X-84000D01*
X-114000Y258000D02*
Y310500D01*
X-106500Y318000D02*
X-84000D01*
Y403500D02*
X114000Y403500D01*
X-84000Y241500D02*
X114000D01*
X-84000D02*
Y403500D01*
X114000Y241500D02*
Y403500D01*
X417300Y584600D02*
Y635400D01*
X442700D01*
Y584600D02*
Y635400D01*
X417300Y584600D02*
X442700D01*
X629500Y17500D02*
Y42500D01*
X370500D02*
X629500D01*
X370500Y17500D02*
Y42500D01*
Y17500D02*
X629500D01*
Y169900D02*
Y194900D01*
X370500D02*
X629500D01*
X370500Y169900D02*
Y194900D01*
Y169900D02*
X629500D01*
X928000Y317000D02*
X950500D01*
X958000Y324500D02*
Y377000D01*
X928000Y384000D02*
X950500D01*
X928000Y459000D02*
X950500D01*
X958000Y399500D02*
Y452000D01*
X928000Y392000D02*
X950500D01*
X730000Y306500D02*
X928000Y306500D01*
X730000Y468500D02*
X928000D01*
Y306500D02*
Y468500D01*
X730000Y306500D02*
Y468500D01*
X125750Y92000D02*
X138250D01*
Y112000D01*
X125750D02*
X138250D01*
X125750Y92000D02*
Y112000D01*
X93000Y66750D02*
X113000D01*
X93000D02*
Y79250D01*
X113000D01*
Y66750D02*
Y79250D01*
X178250Y565000D02*
Y585000D01*
X165750Y565000D02*
X178250D01*
X165750D02*
Y585000D01*
X178250D01*
X103750Y587000D02*
X116250D01*
X103750Y567000D02*
Y587000D01*
Y567000D02*
X116250D01*
Y587000D01*
X240750Y95000D02*
X253250D01*
Y115000D01*
X240750D02*
X253250D01*
X240750Y95000D02*
Y115000D01*
X188250Y87000D02*
Y107000D01*
X175750Y87000D02*
X188250D01*
X175750D02*
Y107000D01*
X188250D01*
X47500Y526000D02*
X72500D01*
X47500Y494000D02*
Y526000D01*
Y494000D02*
X72500D01*
Y526000D01*
X47500Y419000D02*
X72500D01*
Y451000D01*
X47500D02*
X72500D01*
X47500Y419000D02*
Y451000D01*
X37696Y221000D02*
X62696D01*
X37696Y189000D02*
Y221000D01*
Y189000D02*
X62696D01*
Y221000D01*
X37500Y134000D02*
X62500D01*
Y166000D01*
X37500D02*
X62500D01*
X37500Y134000D02*
Y166000D01*
X249000Y394500D02*
X281000D01*
X249000Y349500D02*
Y394500D01*
Y349500D02*
X281000D01*
Y394500D01*
X209000D02*
X241000D01*
X209000Y349500D02*
Y394500D01*
Y349500D02*
X241000D01*
Y394500D01*
X169000D02*
X201000D01*
X169000Y349500D02*
Y394500D01*
Y349500D02*
X201000D01*
Y394500D01*
X128000D02*
X160000D01*
X128000Y349500D02*
Y394500D01*
Y349500D02*
X160000D01*
Y394500D01*
X588750Y460000D02*
Y480000D01*
X601250D01*
Y460000D02*
Y480000D01*
X588750Y460000D02*
X601250D01*
X624250Y510000D02*
Y530000D01*
X611750Y510000D02*
X624250D01*
X611750D02*
Y530000D01*
X624250D01*
X679250Y510000D02*
Y530000D01*
X666750Y510000D02*
X679250D01*
X666750D02*
Y530000D01*
X679250D01*
X635000Y509750D02*
X655000D01*
X635000D02*
Y522250D01*
X655000D01*
Y509750D02*
Y522250D01*
X662615Y364000D02*
X687615D01*
Y396000D01*
X662615D02*
X687615D01*
X662615Y364000D02*
Y396000D01*
X696858Y364000D02*
X721858D01*
Y396000D01*
X696858D02*
X721858D01*
X696858Y364000D02*
Y396000D01*
X198750Y580000D02*
X211250D01*
X198750Y560000D02*
Y580000D01*
Y560000D02*
X211250D01*
Y580000D01*
X92500Y94000D02*
Y110000D01*
X121500D01*
Y94000D02*
Y110000D01*
X92500Y94000D02*
X121500D01*
X92500Y103500D02*
X102000Y94000D01*
X197500D02*
Y110000D01*
X226500D01*
Y94000D02*
Y110000D01*
X197500Y94000D02*
X226500D01*
X197500Y103500D02*
X207000Y94000D01*
X625500Y455500D02*
X664500D01*
X625500D02*
Y504500D01*
X664500D01*
Y455500D02*
Y504500D01*
X651800Y455500D02*
X664500Y468200D01*
X254500Y557000D02*
Y573000D01*
X225500Y557000D02*
X254500D01*
X225500D02*
Y573000D01*
X254500D01*
X245000D02*
X254500Y563500D01*
X226000Y78250D02*
X248000D01*
X226000Y63750D02*
X248000D01*
X226000D02*
Y78250D01*
X248000Y63750D02*
Y78250D01*
X725000Y525000D02*
X845000D01*
X725000D02*
Y645000D01*
X845000D01*
Y525000D02*
Y645000D01*
X154500Y557000D02*
Y573000D01*
X125500Y557000D02*
X154500D01*
X125500D02*
Y573000D01*
X154500D01*
X145000D02*
X154500Y563500D01*
X262750Y529000D02*
X277250D01*
X262750Y551000D02*
X277250D01*
X262750Y529000D02*
Y551000D01*
X277250Y529000D02*
Y551000D01*
X134750Y127000D02*
Y149000D01*
X149250Y127000D02*
Y149000D01*
X134750Y127000D02*
X149250D01*
X134750Y149000D02*
X149250D01*
X261000Y592750D02*
Y607250D01*
X239000Y592750D02*
Y607250D01*
Y592750D02*
X261000D01*
X239000Y607250D02*
X261000D01*
X126000Y79250D02*
X148000D01*
X126000Y64750D02*
X148000D01*
X126000D02*
Y79250D01*
X148000Y64750D02*
Y79250D01*
X165750Y553000D02*
X180250D01*
X165750Y531000D02*
X180250D01*
Y553000D01*
X165750Y531000D02*
Y553000D01*
X174750Y119000D02*
Y141000D01*
X189250Y119000D02*
Y141000D01*
X174750Y119000D02*
X189250D01*
X174750Y141000D02*
X189250D01*
X151000Y592750D02*
Y607250D01*
X129000Y592750D02*
Y607250D01*
Y592750D02*
X151000D01*
X129000Y607250D02*
X151000D01*
X263750Y564000D02*
X276250D01*
Y584000D01*
X263750D02*
X276250D01*
X263750Y564000D02*
Y584000D01*
D15*
X100500Y223500D02*
X133500D01*
Y190500D02*
Y223500D01*
X100500Y190500D02*
X133500D01*
X100500D02*
Y223500D01*
X223500Y443500D02*
X256500D01*
X223500D02*
Y476500D01*
X256500D01*
Y443500D02*
Y476500D01*
X185500Y223500D02*
X218500D01*
Y190500D02*
Y223500D01*
X185500Y190500D02*
X218500D01*
X185500D02*
Y223500D01*
X123500Y443500D02*
X156500D01*
X123500D02*
Y476500D01*
X156500D01*
Y443500D02*
Y476500D01*
M02*
