G04*
G04 #@! TF.GenerationSoftware,Altium Limited,Altium Designer,21.6.4 (81)*
G04*
G04 Layer_Color=255*
%FSLAX44Y44*%
%MOMM*%
G71*
G04*
G04 #@! TF.SameCoordinates,04AFCEB9-1927-4C3B-B3D4-275DD85C2008*
G04*
G04*
G04 #@! TF.FilePolarity,Positive*
G04*
G01*
G75*
%ADD18R,1.3900X0.9600*%
%ADD19R,0.6000X1.1000*%
%ADD20R,1.3500X1.5500*%
%ADD21R,0.9500X1.4500*%
%ADD22R,0.9600X1.3900*%
%ADD23R,1.5500X1.3500*%
%ADD24R,1.4500X0.9500*%
%ADD25R,0.9562X1.5562*%
%ADD26R,1.2000X1.1000*%
%ADD27R,1.2000X8.7000*%
%ADD28R,1.2000X1.6000*%
%ADD29R,8.5100X7.8700*%
%ADD30R,3.8100X1.6200*%
%ADD31R,2.8200X1.4300*%
%ADD32R,1.7000X0.9500*%
%ADD33R,3.6100X0.8100*%
%ADD34R,3.5200X1.2500*%
%ADD35R,0.6000X1.2000*%
%ADD36R,0.8000X1.1000*%
%ADD37R,2.0000X1.1000*%
%ADD38R,1.0000X0.3400*%
%ADD39R,1.5250X0.6500*%
%ADD40R,1.3561X1.8582*%
%ADD41R,5.4000X2.9000*%
%ADD71R,0.3400X2.2900*%
%ADD72R,0.3400X1.6400*%
%ADD77R,1.6000X1.6000*%
%ADD78C,1.6000*%
%ADD79C,3.0000*%
%ADD80R,3.0000X3.0000*%
%ADD81C,1.5200*%
%ADD82R,1.5200X1.5200*%
%ADD83R,1.2000X1.2000*%
%ADD84C,1.2000*%
D18*
X536792Y229503D02*
D03*
Y245702D02*
D03*
X475957Y236900D02*
D03*
Y253100D02*
D03*
X132000Y110100D02*
D03*
Y93900D02*
D03*
X172000Y583100D02*
D03*
Y566900D02*
D03*
X110000Y568900D02*
D03*
Y585100D02*
D03*
X247000Y113100D02*
D03*
Y96900D02*
D03*
X182000Y105100D02*
D03*
Y88900D02*
D03*
X595000Y461900D02*
D03*
Y478100D02*
D03*
X618000Y528100D02*
D03*
Y511900D02*
D03*
X673000Y528100D02*
D03*
Y511900D02*
D03*
X205000Y561900D02*
D03*
Y578100D02*
D03*
X270000Y582100D02*
D03*
Y565900D02*
D03*
D19*
X514500Y257000D02*
D03*
X505000D02*
D03*
X495500D02*
D03*
Y233000D02*
D03*
X514500D02*
D03*
D20*
X514750Y211798D02*
D03*
X495250D02*
D03*
X227250Y71000D02*
D03*
X246750D02*
D03*
X259750Y600000D02*
D03*
X240250D02*
D03*
X127250Y72000D02*
D03*
X146750D02*
D03*
X149750Y600000D02*
D03*
X130250D02*
D03*
D21*
X515293Y277043D02*
D03*
X495793D02*
D03*
X517000Y567500D02*
D03*
X497500D02*
D03*
X479750Y277043D02*
D03*
X460250D02*
D03*
D22*
X531135Y275000D02*
D03*
X547335D02*
D03*
X603343Y224303D02*
D03*
X619543D02*
D03*
X111100Y73000D02*
D03*
X94900D02*
D03*
X653100Y516000D02*
D03*
X636900D02*
D03*
D23*
X558495Y244750D02*
D03*
Y225250D02*
D03*
X617798Y294750D02*
D03*
Y275250D02*
D03*
X270000Y530250D02*
D03*
Y549750D02*
D03*
X142000Y128250D02*
D03*
Y147750D02*
D03*
X173000Y551750D02*
D03*
Y532250D02*
D03*
X182000Y120250D02*
D03*
Y139750D02*
D03*
D24*
X585000Y244750D02*
D03*
Y225250D02*
D03*
X640000Y294750D02*
D03*
Y275250D02*
D03*
X149000Y111750D02*
D03*
Y92250D02*
D03*
X110000Y555750D02*
D03*
Y536250D02*
D03*
X249000Y127250D02*
D03*
Y146750D02*
D03*
X656042Y530250D02*
D03*
Y549750D02*
D03*
X635000Y530250D02*
D03*
Y549750D02*
D03*
X205000D02*
D03*
Y530250D02*
D03*
D25*
X618250Y249377D02*
D03*
X641750D02*
D03*
X434250Y215000D02*
D03*
X410750D02*
D03*
D26*
X467500Y568000D02*
D03*
Y547000D02*
D03*
D27*
X666000Y631250D02*
D03*
X622000D02*
D03*
D28*
Y568750D02*
D03*
X666000D02*
D03*
D29*
X552772Y384600D02*
D03*
D30*
X632172Y410000D02*
D03*
Y359200D02*
D03*
D31*
X60000Y497100D02*
D03*
Y522900D02*
D03*
Y447900D02*
D03*
Y422100D02*
D03*
X50196Y192100D02*
D03*
Y217900D02*
D03*
X50000Y162900D02*
D03*
Y137100D02*
D03*
X675115Y392900D02*
D03*
Y367100D02*
D03*
X709358Y392900D02*
D03*
Y367100D02*
D03*
D32*
X212000Y306000D02*
D03*
Y278000D02*
D03*
X187085Y306000D02*
D03*
Y278000D02*
D03*
X162543Y306000D02*
D03*
Y278000D02*
D03*
X138000Y306000D02*
D03*
Y278000D02*
D03*
D33*
X265000Y349500D02*
D03*
Y394500D02*
D03*
D34*
X225000Y352200D02*
D03*
Y391800D02*
D03*
X185000Y352200D02*
D03*
Y391800D02*
D03*
X144000Y352200D02*
D03*
Y391800D02*
D03*
D35*
X97500Y89500D02*
D03*
X107000D02*
D03*
X116500D02*
D03*
Y114500D02*
D03*
X97500D02*
D03*
X202500Y89500D02*
D03*
X212000D02*
D03*
X221500D02*
D03*
Y114500D02*
D03*
X202500D02*
D03*
X249500Y577500D02*
D03*
X240000D02*
D03*
X230500D02*
D03*
Y552500D02*
D03*
X249500D02*
D03*
X149500Y577500D02*
D03*
X140000D02*
D03*
X130500D02*
D03*
Y552500D02*
D03*
X149500D02*
D03*
D36*
X195000Y600000D02*
D03*
X207000Y72000D02*
D03*
D37*
X176000Y600000D02*
D03*
X188000Y72000D02*
D03*
D38*
X102500Y197250D02*
D03*
X254500Y469750D02*
D03*
X187500Y197250D02*
D03*
X154500Y469750D02*
D03*
D39*
X672120Y460950D02*
D03*
Y473650D02*
D03*
Y486350D02*
D03*
Y499050D02*
D03*
X617880D02*
D03*
Y486350D02*
D03*
Y473650D02*
D03*
Y460950D02*
D03*
D40*
X155261Y518000D02*
D03*
X124739D02*
D03*
X199739Y142000D02*
D03*
X230261D02*
D03*
X253261Y518000D02*
D03*
X222739D02*
D03*
X119427Y142000D02*
D03*
X88906D02*
D03*
D41*
X785000Y634500D02*
D03*
Y535500D02*
D03*
D71*
X113100Y207000D02*
D03*
X243900Y460000D02*
D03*
X198100Y207000D02*
D03*
X143900Y460000D02*
D03*
D72*
X105500Y210250D02*
D03*
X251500Y456750D02*
D03*
X190500Y210250D02*
D03*
X151500Y456750D02*
D03*
D77*
X430000Y560200D02*
D03*
Y597300D02*
D03*
D78*
Y534800D02*
D03*
Y622700D02*
D03*
D79*
X94000Y284000D02*
D03*
X750000Y426000D02*
D03*
D80*
X-31000Y359000D02*
D03*
X875000Y351000D02*
D03*
D81*
X461900Y30000D02*
D03*
X563500D02*
D03*
X588900D02*
D03*
X538100D02*
D03*
X512700D02*
D03*
X487300D02*
D03*
X436500D02*
D03*
X411100D02*
D03*
X385700D02*
D03*
X461900Y182400D02*
D03*
X563500D02*
D03*
X588900D02*
D03*
X538100D02*
D03*
X512700D02*
D03*
X487300D02*
D03*
X436500D02*
D03*
X411100D02*
D03*
X385700D02*
D03*
D82*
X614300Y30000D02*
D03*
Y182400D02*
D03*
D83*
X716000Y705000D02*
D03*
X572957D02*
D03*
X429915Y704000D02*
D03*
X286872D02*
D03*
D84*
X716000Y755000D02*
D03*
X572957D02*
D03*
X429915Y754000D02*
D03*
X286872D02*
D03*
M02*
