G04*
G04 #@! TF.GenerationSoftware,Altium Limited,Altium Designer,21.6.4 (81)*
G04*
G04 Layer_Color=0*
%FSLAX44Y44*%
%MOMM*%
G71*
G04*
G04 #@! TF.SameCoordinates,04AFCEB9-1927-4C3B-B3D4-275DD85C2008*
G04*
G04*
G04 #@! TF.FilePolarity,Positive*
G04*
G01*
G75*
%ADD14C,0.1000*%
D14*
X505542Y272043D02*
Y282043D01*
X500542Y277043D02*
X510542D01*
X580000Y235000D02*
X590000D01*
X585000Y230000D02*
Y240000D01*
X625000Y249377D02*
X635000D01*
X630000Y244377D02*
Y254377D01*
X635000Y285000D02*
X645000D01*
X640000Y280000D02*
Y290000D01*
X507250Y562500D02*
Y572500D01*
X502250Y567500D02*
X512250D01*
X422500Y210000D02*
Y220000D01*
X417500Y215000D02*
X427500D01*
X207000Y292000D02*
X217000D01*
X212000Y287000D02*
Y297000D01*
X182085Y292000D02*
X192085D01*
X187085Y287000D02*
Y297000D01*
X157543Y292000D02*
X167543D01*
X162543Y287000D02*
Y297000D01*
X133000Y292000D02*
X143000D01*
X138000Y287000D02*
Y297000D01*
X149000Y97000D02*
Y107000D01*
X144000Y102000D02*
X154000D01*
X140000Y513000D02*
Y523000D01*
X135000Y518000D02*
X145000D01*
X215000Y137000D02*
Y147000D01*
X210000Y142000D02*
X220000D01*
X110000Y541000D02*
Y551000D01*
X105000Y546000D02*
X115000D01*
X249000Y132000D02*
Y142000D01*
X244000Y137000D02*
X254000D01*
X656042Y535000D02*
Y545000D01*
X651042Y540000D02*
X661042D01*
X635000Y535000D02*
Y545000D01*
X630000Y540000D02*
X640000D01*
X238000Y513000D02*
Y523000D01*
X233000Y518000D02*
X243000D01*
X104166Y137000D02*
Y147000D01*
X99166Y142000D02*
X109166D01*
X205000Y535000D02*
Y545000D01*
X200000Y540000D02*
X210000D01*
X465000Y277043D02*
X475000D01*
X470000Y272043D02*
Y282043D01*
M02*
