G04*
G04 #@! TF.GenerationSoftware,Altium Limited,Altium Designer,21.6.4 (81)*
G04*
G04 Layer_Color=12632256*
%FSLAX44Y44*%
%MOMM*%
G71*
G04*
G04 #@! TF.SameCoordinates,04AFCEB9-1927-4C3B-B3D4-275DD85C2008*
G04*
G04*
G04 #@! TF.FilePolarity,Positive*
G04*
G01*
G75*
%ADD77R,1.6000X1.6000*%
%ADD78C,1.6000*%
%ADD79C,3.0000*%
%ADD80R,3.0000X3.0000*%
%ADD81C,1.5200*%
%ADD82R,1.5200X1.5200*%
%ADD83R,1.2000X1.2000*%
%ADD84C,1.2000*%
D77*
X430000Y560200D02*
D03*
Y597300D02*
D03*
D78*
Y534800D02*
D03*
Y622700D02*
D03*
D79*
X94000Y284000D02*
D03*
X750000Y426000D02*
D03*
D80*
X-31000Y359000D02*
D03*
X875000Y351000D02*
D03*
D81*
X461900Y30000D02*
D03*
X563500D02*
D03*
X588900D02*
D03*
X538100D02*
D03*
X512700D02*
D03*
X487300D02*
D03*
X436500D02*
D03*
X411100D02*
D03*
X385700D02*
D03*
X461900Y182400D02*
D03*
X563500D02*
D03*
X588900D02*
D03*
X538100D02*
D03*
X512700D02*
D03*
X487300D02*
D03*
X436500D02*
D03*
X411100D02*
D03*
X385700D02*
D03*
D82*
X614300Y30000D02*
D03*
Y182400D02*
D03*
D83*
X716000Y705000D02*
D03*
X572957D02*
D03*
X429915Y704000D02*
D03*
X286872D02*
D03*
D84*
X716000Y755000D02*
D03*
X572957D02*
D03*
X429915Y754000D02*
D03*
X286872D02*
D03*
M02*
