M48
;Layer_Color=9474304
;FILE_FORMAT=4:4
METRIC,LZ
;TYPE=PLATED
T1F00S00C0.3000
T2F00S00C0.5000
T4F00S00C0.8000
T5F00S00C1.0200
T6F00S00C1.1000
T7F00S00C2.7000
;TYPE=NON_PLATED
T8F00S00C3.2000
%
T01
X00272Y00013
Y00029
Y00045
Y00061
Y00075
X00294
Y00061
Y00045
Y00029
Y00013
X00227Y00084
X00145Y00074
Y00058
Y00044
Y00029
Y00014
X00127
Y00029
Y00044
Y00059
Y00074
X00147Y00288
X00164
X00177
X00191
X00205
X00199Y00306
X00185
X00171
X00155
X00147Y00325
X00163
X00177
X00191
X00205
X00198Y00342
X00184
X0017
X00155
X00147Y0036
X00163
X00177
X00191
X00205
X00193Y00465
X0006Y00504
X00039
X00018
X00027Y00519
X00009Y0052
X00048Y00519
X00069
X002515Y004985
X0028Y00477
X0037Y00456
X0039025Y00445
X00386Y00404
X00408Y00409
X00455Y00397
X0045Y00365
X00409Y00341
X00342Y00402
X00234Y0036
X00219
X00212565Y00342
X00227
X00234Y00325
X00219
X00213Y00306
X00228
X00234Y00288
X00219
X00227Y00209
X00566Y0032
X0057Y003625
X00546Y00387
X00525Y0041
X00514Y00373
X00471Y00426
Y0044
X00534Y00495
X0057Y00465
X00614Y00497
X00653Y00504
X00669
X00682Y00476
Y00467
Y00458
X00691
Y00449
Y0044
X00682
Y00449
X007
Y0044
X00709
Y00449
Y00458
X007
Y00467
X00709
Y00476
X007
X00691
Y00467
Y00399
Y0039
Y00381
X00682
Y0039
Y00399
X007
Y0039
X00709
Y00399
Y00381
X007
Y00372
Y00363
X00709
Y00372
X00691
Y00363
X00682
Y00372
X0073Y0037
Y00388
Y00403
X0075
Y00388
X00768
Y00403
Y0037
X0075
X00815Y00382
X00833Y00354
X00639Y00321
X00682Y00532
Y00541
Y0055
X00691
Y00541
Y00532
X007
X00709
Y00541
X007
Y0055
X00709
Y00559
X007
Y00568
X00709
X00691
Y00559
X00682
Y00568
Y00609
Y00618
Y00627
X00691
Y00618
Y00609
X007
X00709
Y00618
X007
Y00627
X00709
Y00636
X007
Y00645
X00709
X00691
Y00636
X00682
Y00645
X0068Y00679
X00667Y00673
X00649
X00707Y00771
X00746Y00774
X00547Y00721
X00488Y00746
X004675Y007825
X00435Y007275
X0039175Y007695
X00371Y0067
X00394Y0065
X00383Y0063166
X0047Y00614
X004666Y005994
X00454Y00572
X00423Y00528
X00514Y00546
X00546Y0056
X00567Y00541
X005275Y00585
X0057Y00634
X00269Y00714
X00254Y00551
X00182Y00538
X00059
X00038
X00018Y00539
X0001Y00554
X00027
X00048
X00068
X00036904Y00595166
X00108Y00591
X00182Y00661
X00188Y00688
X00176Y00745
X00072Y00719
T02
X00303Y00399
X0031Y00495
X00355Y00464
X00653Y00492
X00669
X00668Y00658
X00651
X00322Y00576
X00018Y00684
T04
X00385Y0003
Y0008
X0033Y0034
X0028
X00615708Y00745
X00665707
T05
X002173Y006326
X002427
X002681
X002935
X003189
X003443
Y00785
X003189
X002935
X002681
X002427
X002173
X001919
X001665
X001411
X001157
Y006326
X001411
X001665
X001919
T06
X006575Y0008
X007325
X00523Y001175
Y000425
X000425Y0008
Y0023
X0038Y0028
Y0013
X005625Y00232
X006375
X0077Y001945
Y002695
X004752Y00673508
X004498
T07
X001Y00364
Y00436
X0075Y00464
Y00536
T08
X0082Y0003
X0003
X0082Y0077
X0003
M30
