G04*
G04 #@! TF.GenerationSoftware,Altium Limited,Altium Designer,21.6.4 (81)*
G04*
G04 Layer_Color=65535*
%FSLAX44Y44*%
%MOMM*%
G71*
G04*
G04 #@! TF.SameCoordinates,D26747ED-23D3-466A-99B4-63F3962E0784*
G04*
G04*
G04 #@! TF.FilePolarity,Positive*
G04*
G01*
G75*
%ADD10C,0.2000*%
%ADD11C,0.2500*%
%ADD12C,0.3000*%
%ADD13C,0.1000*%
%ADD14C,0.2032*%
D10*
X8500Y371793D02*
G03*
X1000Y364293I0J-7500D01*
G01*
Y312293D02*
G03*
X8500Y304793I7500J0D01*
G01*
X1000Y387293D02*
G03*
X8500Y379793I7500J0D01*
G01*
Y446793D02*
G03*
X1000Y439293I0J-7500D01*
G01*
X923542Y461857D02*
G03*
X931042Y469357I0J7500D01*
G01*
Y521357D02*
G03*
X923542Y528857I-7500J0D01*
G01*
X931042Y446357D02*
G03*
X923542Y453857I-7500J0D01*
G01*
Y386857D02*
G03*
X931042Y394357I0J7500D01*
G01*
X256057Y543264D02*
G03*
X256057Y543264I-890J0D01*
G01*
X58000Y770000D02*
G03*
X58000Y770000I-28000J0D01*
G01*
X675000Y200000D02*
G03*
X675000Y200000I-65000J0D01*
G01*
X705161Y743785D02*
G03*
X705161Y743785I-52500J0D01*
G01*
X58000Y30000D02*
G03*
X58000Y30000I-28000J0D01*
G01*
X745000Y70000D02*
G03*
X745000Y70000I-65000J0D01*
G01*
X605000D02*
G03*
X605000Y70000I-65000J0D01*
G01*
X468000Y55000D02*
G03*
X468000Y55000I-50000J0D01*
G01*
X815000Y195000D02*
G03*
X815000Y195000I-65000J0D01*
G01*
X813000Y770000D02*
G03*
X813000Y770000I-28000J0D01*
G01*
Y30000D02*
G03*
X813000Y30000I-28000J0D01*
G01*
X317000Y363500D02*
X327000D01*
X317000Y360500D02*
Y363500D01*
X327000Y360500D02*
Y363500D01*
X329000Y408750D02*
Y411250D01*
X315000Y408750D02*
Y411250D01*
X283792Y283943D02*
X310693D01*
Y337743D01*
X283792D02*
X310693D01*
X283792Y283943D02*
Y337743D01*
X284050Y276900D02*
X310950D01*
X284050Y223100D02*
Y276900D01*
Y223100D02*
X310950D01*
Y276900D01*
X229000Y295293D02*
Y457293D01*
X31000Y295293D02*
Y457293D01*
Y295293D02*
X229000D01*
X31000Y457293D02*
X229000Y457293D01*
X8500Y371793D02*
X31000D01*
X1000Y311793D02*
Y364293D01*
X8500Y304793D02*
X31000D01*
X8500Y379793D02*
X31000D01*
X1000Y386793D02*
Y439293D01*
X8500Y446793D02*
X31000D01*
X703043Y376357D02*
Y538357D01*
X901042Y376357D02*
Y538357D01*
X703043D02*
X901042D01*
X703043Y376357D02*
X901042Y376357D01*
Y461857D02*
X923542D01*
X931042Y469357D02*
Y521857D01*
X901042Y528857D02*
X923542D01*
X901042Y453857D02*
X923542D01*
X931042Y394357D02*
Y446857D01*
X901042Y386857D02*
X923542D01*
X159250Y771500D02*
Y798500D01*
Y771500D02*
X420750D01*
Y798500D01*
X159250D02*
X420750D01*
X159250Y619100D02*
Y646100D01*
Y619100D02*
X420750D01*
Y646100D01*
X159250D02*
X420750D01*
X508166Y644426D02*
X535166D01*
X508166Y628927D02*
X544416D01*
X218219Y740031D02*
Y747969D01*
X233781Y740031D02*
Y747969D01*
X273031Y597031D02*
X280969D01*
X273031Y581469D02*
X280969D01*
X516500Y393750D02*
X543500D01*
X516500Y378250D02*
X552750D01*
X392000Y499250D02*
Y501750D01*
X378000Y499250D02*
Y501750D01*
X219250Y468335D02*
X284250D01*
X219250Y521335D02*
X259000D01*
X377000Y461250D02*
Y463750D01*
X363000Y461250D02*
Y463750D01*
X405500Y447500D02*
Y477500D01*
X400500Y447500D02*
Y477500D01*
Y447500D02*
X405500D01*
X400500Y477500D02*
X405500D01*
X381000Y427250D02*
Y429750D01*
X367000Y427250D02*
Y429750D01*
X417000Y427250D02*
Y429750D01*
X403000Y427250D02*
Y429750D01*
X443750Y390500D02*
X446250D01*
X443750Y376500D02*
X446250D01*
X409500Y359000D02*
Y391000D01*
X360500Y359000D02*
X409500D01*
X360500D02*
Y391000D01*
X409500D01*
X410800Y394500D02*
Y409750D01*
X443750Y372500D02*
X446250D01*
X443750Y358500D02*
X446250D01*
X214718Y533644D02*
Y598644D01*
X341219Y587808D02*
Y595746D01*
X356781Y587808D02*
Y595746D01*
X571250Y737000D02*
X573750D01*
X571250Y723000D02*
X573750D01*
X568868Y701781D02*
X576806D01*
X568868Y686219D02*
X576806D01*
X564416Y638176D02*
Y665176D01*
X548916Y628927D02*
Y665176D01*
X586936Y666676D02*
X596397D01*
X586936Y650676D02*
X596397D01*
X586936Y644677D02*
X596397D01*
X586936Y628676D02*
X596397D01*
X593885Y592707D02*
Y600645D01*
X609447Y592707D02*
Y600645D01*
X586936Y571676D02*
X596397D01*
X586936Y555676D02*
X596397D01*
X586936Y549677D02*
X596397D01*
X586936Y533676D02*
X596397D01*
X548916Y538176D02*
Y565176D01*
X564416Y538176D02*
Y574426D01*
X533666Y626176D02*
X565666D01*
Y577176D02*
Y626176D01*
X533666Y577176D02*
X565666D01*
X533666D02*
Y626176D01*
X514916Y627476D02*
X530166D01*
X557250Y286500D02*
Y313500D01*
X572750Y286500D02*
Y322750D01*
X542000Y374500D02*
X574000D01*
Y325500D02*
Y374500D01*
X542000Y325500D02*
X574000D01*
X542000D02*
Y374500D01*
X523250Y375800D02*
X538500D01*
X572750Y387500D02*
Y414500D01*
X557250Y378250D02*
Y414500D01*
X595269Y404000D02*
X604730D01*
X595269Y420000D02*
X604730D01*
X595269Y377000D02*
X604730D01*
X595269Y393000D02*
X604730D01*
X602219Y342031D02*
Y349969D01*
X617781Y342031D02*
Y349969D01*
X595269Y320500D02*
X604730D01*
X595269Y304500D02*
X604730D01*
X595269Y298000D02*
X604730D01*
X595269Y282000D02*
X604730D01*
X632500Y336750D02*
X693500D01*
X632500Y283250D02*
Y284700D01*
Y297200D02*
Y297400D01*
Y309900D02*
Y310100D01*
Y322600D02*
Y322800D01*
Y335300D02*
Y336750D01*
Y283250D02*
X693500D01*
Y284200D01*
Y335800D02*
Y336750D01*
X632500Y596750D02*
X693500D01*
X632500Y543250D02*
Y544700D01*
Y557200D02*
Y557400D01*
Y569900D02*
Y570100D01*
Y582600D02*
Y582800D01*
Y595300D02*
Y596750D01*
Y543250D02*
X693500D01*
Y544200D01*
Y595800D02*
Y596750D01*
X632500Y406750D02*
X693500D01*
X632500Y353250D02*
Y354700D01*
Y367200D02*
Y367400D01*
Y379900D02*
Y380100D01*
Y392600D02*
Y392800D01*
Y405300D02*
Y406750D01*
Y353250D02*
X693500D01*
Y354200D01*
Y405800D02*
Y406750D01*
X632500Y666750D02*
X693500D01*
X632500Y613250D02*
Y614700D01*
Y627200D02*
Y627400D01*
Y639900D02*
Y640100D01*
Y652600D02*
Y652800D01*
Y665300D02*
Y666750D01*
Y613250D02*
X693500D01*
Y614200D01*
Y665800D02*
Y666750D01*
X752500Y667500D02*
Y697500D01*
Y627500D02*
Y657500D01*
Y587500D02*
Y617500D01*
Y547500D02*
Y577500D01*
D11*
X392250Y480500D02*
G03*
X392250Y480500I-1250J0D01*
G01*
X625000Y329050D02*
G03*
X625000Y329050I-1250J0D01*
G01*
Y589050D02*
G03*
X625000Y589050I-1250J0D01*
G01*
Y399050D02*
G03*
X625000Y399050I-1250J0D01*
G01*
Y659050D02*
G03*
X625000Y659050I-1250J0D01*
G01*
D12*
X333430Y369620D02*
X338510Y364540D01*
X333430Y354380D02*
Y369620D01*
D13*
X487500Y148000D02*
X512500D01*
X488750Y258000D02*
X511250D01*
X268500Y0D02*
Y280000D01*
X83500Y0D02*
X268500D01*
X83500D02*
Y280000D01*
X268500D01*
X0Y74043D02*
X80000D01*
Y254042D01*
X0D02*
X80000D01*
X0Y74043D02*
Y254042D01*
X280000Y5000D02*
X360000D01*
Y185000D01*
X280000D02*
X360000D01*
X280000Y5000D02*
Y185000D01*
X216251Y767999D02*
Y766000D01*
X217251Y765000D01*
X218251Y766000D01*
Y767999D01*
X219250Y765000D02*
X220250D01*
X219750D01*
Y766999D01*
X219250D01*
X221749Y765000D02*
Y766999D01*
X223249D01*
X223749Y766499D01*
Y765000D01*
X355167Y734838D02*
X350169D01*
Y737337D01*
X351002Y738170D01*
X352668D01*
X353501Y737337D01*
Y734838D01*
X350169Y739836D02*
X355167D01*
X353501Y741503D01*
X355167Y743169D01*
X350169D01*
X355167Y744835D02*
X350169D01*
X351835Y746501D01*
X350169Y748167D01*
X355167D01*
X356000Y749833D02*
Y753165D01*
X350169Y758164D02*
Y754831D01*
X355167D01*
Y758164D01*
X352668Y754831D02*
Y756498D01*
X355167Y759830D02*
X350169D01*
X355167Y763162D01*
X350169D01*
X144001Y784499D02*
X143501Y784999D01*
X142501D01*
X142001Y784499D01*
Y782500D01*
X142501Y782000D01*
X143501D01*
X144001Y782500D01*
Y783500D01*
X143001D01*
X145000Y782000D02*
Y784999D01*
X147000Y782000D01*
Y784999D01*
X147999D02*
Y782000D01*
X149499D01*
X149999Y782500D01*
Y784499D01*
X149499Y784999D01*
X147999D01*
X353167Y656998D02*
X349835D01*
Y654499D01*
X351501Y655332D01*
X352334D01*
X353167Y654499D01*
Y652833D01*
X352334Y652000D01*
X350668D01*
X349835Y652833D01*
X354833Y656998D02*
Y653666D01*
X356499Y652000D01*
X358165Y653666D01*
Y656998D01*
X407000Y734337D02*
X402002D01*
Y736836D01*
X402835Y737669D01*
X404501D01*
X405334Y736836D01*
Y734337D01*
X402002Y739335D02*
X407000D01*
X405334Y741002D01*
X407000Y742668D01*
X402002D01*
X407000Y744334D02*
X402002D01*
X403668Y746000D01*
X402002Y747666D01*
X407000D01*
Y754331D02*
X403668D01*
X402002Y755997D01*
X403668Y757663D01*
X407000D01*
X404501D01*
Y754331D01*
X381000Y740337D02*
X376002D01*
Y742836D01*
X376835Y743670D01*
X378501D01*
X379334Y742836D01*
Y740337D01*
X376002Y745336D02*
X381000D01*
X379334Y747002D01*
X381000Y748668D01*
X376002D01*
X381000Y750334D02*
X376002D01*
X377668Y752000D01*
X376002Y753666D01*
X381000D01*
X376002Y760331D02*
X381000D01*
Y762830D01*
X380167Y763663D01*
X379334D01*
X378501Y762830D01*
Y760331D01*
Y762830D01*
X377668Y763663D01*
X376835D01*
X376002Y762830D01*
Y760331D01*
X419602Y680757D02*
X414604D01*
X416270Y682423D01*
X414604Y684089D01*
X419602D01*
Y685755D02*
Y687421D01*
Y686588D01*
X416270D01*
Y685755D01*
Y693253D02*
Y690754D01*
X417103Y689921D01*
X418769D01*
X419602Y690754D01*
Y693253D01*
X416270Y694919D02*
X419602D01*
X417936D01*
X417103Y695752D01*
X416270Y696585D01*
Y697418D01*
X419602Y700751D02*
Y702417D01*
X418769Y703250D01*
X417103D01*
X416270Y702417D01*
Y700751D01*
X417103Y699917D01*
X418769D01*
X419602Y700751D01*
X417103Y704916D02*
Y708248D01*
X414604Y709914D02*
X418769D01*
X419602Y710747D01*
Y712413D01*
X418769Y713246D01*
X414604D01*
X415437Y718245D02*
X414604Y717412D01*
Y715746D01*
X415437Y714912D01*
X416270D01*
X417103Y715746D01*
Y717412D01*
X417936Y718245D01*
X418769D01*
X419602Y717412D01*
Y715746D01*
X418769Y714912D01*
X414604Y719911D02*
X419602D01*
Y722410D01*
X418769Y723243D01*
X417936D01*
X417103Y722410D01*
Y719911D01*
Y722410D01*
X416270Y723243D01*
X415437D01*
X414604Y722410D01*
Y719911D01*
X423002Y683673D02*
Y680340D01*
X425501D01*
Y682007D01*
Y680340D01*
X428000D01*
X424668Y686172D02*
Y687838D01*
X425501Y688671D01*
X428000D01*
Y686172D01*
X427167Y685339D01*
X426334Y686172D01*
Y688671D01*
X424668Y693670D02*
Y691170D01*
X425501Y690337D01*
X427167D01*
X428000Y691170D01*
Y693670D01*
Y697835D02*
Y696169D01*
X427167Y695336D01*
X425501D01*
X424668Y696169D01*
Y697835D01*
X425501Y698668D01*
X426334D01*
Y695336D01*
X423002Y705332D02*
X428000D01*
X425501D01*
Y708664D01*
X423002D01*
X428000D01*
Y712830D02*
Y711164D01*
X427167Y710331D01*
X425501D01*
X424668Y711164D01*
Y712830D01*
X425501Y713663D01*
X426334D01*
Y710331D01*
X424668Y715329D02*
X428000D01*
X426334D01*
X425501Y716162D01*
X424668Y716995D01*
Y717828D01*
X428000Y722827D02*
Y721161D01*
X427167Y720327D01*
X425501D01*
X424668Y721161D01*
Y722827D01*
X425501Y723660D01*
X426334D01*
Y720327D01*
X375668Y655165D02*
X374835Y655998D01*
X373169D01*
X372336Y655165D01*
Y651833D01*
X373169Y651000D01*
X374835D01*
X375668Y651833D01*
Y653499D01*
X374002D01*
X377334Y651000D02*
Y655998D01*
X380666Y651000D01*
Y655998D01*
X382332D02*
Y651000D01*
X384831D01*
X385664Y651833D01*
Y655165D01*
X384831Y655998D01*
X382332D01*
X400336Y681673D02*
Y685005D01*
Y683339D01*
X405334D01*
Y686671D02*
Y688337D01*
Y687504D01*
X402002D01*
Y686671D01*
X405334Y690836D02*
X402002D01*
Y693335D01*
X402835Y694169D01*
X405334D01*
X402002Y695835D02*
X404501D01*
X405334Y696668D01*
Y699167D01*
X406167D01*
X407000Y698334D01*
Y697501D01*
X405334Y699167D02*
X402002D01*
X405334Y700833D02*
X400336D01*
Y703332D01*
X401169Y704165D01*
X402835D01*
X403668Y703332D01*
Y700833D01*
X400336Y705832D02*
Y707498D01*
Y706665D01*
X405334D01*
Y705832D01*
Y707498D01*
X401169Y713329D02*
X400336Y712496D01*
Y710830D01*
X401169Y709997D01*
X404501D01*
X405334Y710830D01*
Y712496D01*
X404501Y713329D01*
X400336Y717494D02*
Y715828D01*
X401169Y714995D01*
X404501D01*
X405334Y715828D01*
Y717494D01*
X404501Y718327D01*
X401169D01*
X400336Y717494D01*
X263502Y767499D02*
X263003Y767999D01*
X262003D01*
X261503Y767499D01*
Y765500D01*
X262003Y765000D01*
X263003D01*
X263502Y765500D01*
X264502Y766999D02*
Y765500D01*
X265002Y765000D01*
X266502D01*
Y766999D01*
X267501D02*
Y765000D01*
Y766000D01*
X268001Y766499D01*
X268501Y766999D01*
X269001D01*
X270500D02*
Y765000D01*
Y766000D01*
X271000Y766499D01*
X271500Y766999D01*
X272000D01*
X274999Y765000D02*
X273999D01*
X273499Y765500D01*
Y766499D01*
X273999Y766999D01*
X274999D01*
X275499Y766499D01*
Y766000D01*
X273499D01*
X276498Y765000D02*
Y766999D01*
X277998D01*
X278498Y766499D01*
Y765000D01*
X279997Y767499D02*
Y766999D01*
X279497D01*
X280497D01*
X279997D01*
Y765500D01*
X280497Y765000D01*
X175000Y760000D02*
X176000D01*
X175500D01*
Y762999D01*
X175000Y762499D01*
X402000Y764000D02*
X403000D01*
X402500D01*
Y766999D01*
X402000Y766499D01*
X404499D02*
X404999Y766999D01*
X405999D01*
X406499Y766499D01*
Y764500D01*
X405999Y764000D01*
X404999D01*
X404499Y764500D01*
Y766499D01*
X173800Y649600D02*
X174800D01*
X174300D01*
Y652599D01*
X173800Y652099D01*
X401000Y650000D02*
X402000D01*
X401500D01*
Y652999D01*
X401000Y652499D01*
X403499D02*
X403999Y652999D01*
X404999D01*
X405499Y652499D01*
Y650500D01*
X404999Y650000D01*
X403999D01*
X403499Y650500D01*
Y652499D01*
X708161Y737785D02*
X710160D01*
X709160Y738784D02*
Y736785D01*
X320001Y263500D02*
Y266500D01*
X321500D01*
X322000Y266000D01*
Y265000D01*
X321500Y264500D01*
X320001D01*
X324499Y263500D02*
Y266500D01*
X323000Y265000D01*
X324999D01*
X320001Y288500D02*
Y291500D01*
X321500D01*
X322000Y291000D01*
Y290000D01*
X321500Y289500D01*
X320001D01*
X323000Y291000D02*
X323500Y291500D01*
X324499D01*
X324999Y291000D01*
Y290500D01*
X324499Y290000D01*
X323999D01*
X324499D01*
X324999Y289500D01*
Y289000D01*
X324499Y288500D01*
X323500D01*
X323000Y289000D01*
X701832Y546728D02*
Y549727D01*
X703332D01*
X703831Y549227D01*
Y548228D01*
X703332Y547728D01*
X701832D01*
X706830Y546728D02*
X704831D01*
X706830Y548727D01*
Y549227D01*
X706330Y549727D01*
X705331D01*
X704831Y549227D01*
X-224Y465702D02*
Y468701D01*
X1276D01*
X1775Y468201D01*
Y467201D01*
X1276Y466702D01*
X-224D01*
X2775Y465702D02*
X3775D01*
X3275D01*
Y468701D01*
X2775Y468201D01*
X224074Y745373D02*
X223574Y745873D01*
X222575D01*
X222075Y745373D01*
Y743374D01*
X222575Y742874D01*
X223574D01*
X224074Y743374D01*
X226573Y742874D02*
Y745873D01*
X225074Y744373D01*
X227073D01*
X228073Y745873D02*
X230072D01*
Y745373D01*
X228073Y743374D01*
Y742874D01*
X250001Y753000D02*
X249501Y753500D01*
X248501D01*
X248001Y753000D01*
Y751000D01*
X248501Y750500D01*
X249501D01*
X250001Y751000D01*
X252500Y750500D02*
Y753500D01*
X251000Y752000D01*
X253000D01*
X255999Y753500D02*
X254999Y753000D01*
X253999Y752000D01*
Y751000D01*
X254499Y750500D01*
X255499D01*
X255999Y751000D01*
Y751500D01*
X255499Y752000D01*
X253999D01*
X456001Y458501D02*
Y461499D01*
X457501D01*
X458001Y461000D01*
Y460000D01*
X457501Y459500D01*
X456001D01*
X457001D02*
X458001Y458501D01*
X461000D02*
X459000D01*
X461000Y460500D01*
Y461000D01*
X460500Y461499D01*
X459500D01*
X459000Y461000D01*
X461999Y459000D02*
X462499Y458501D01*
X463499D01*
X463999Y459000D01*
Y461000D01*
X463499Y461499D01*
X462499D01*
X461999Y461000D01*
Y460500D01*
X462499Y460000D01*
X463999D01*
X682749Y273891D02*
X682250Y274391D01*
X681250D01*
X680750Y273891D01*
Y271892D01*
X681250Y271392D01*
X682250D01*
X682749Y271892D01*
X683749Y274391D02*
X685748D01*
Y273891D01*
X683749Y271892D01*
Y271392D01*
X544500Y263500D02*
X544000Y264000D01*
X543001D01*
X542501Y263500D01*
Y261500D01*
X543001Y261000D01*
X544000D01*
X544500Y261500D01*
X547499Y264000D02*
X546499Y263500D01*
X545500Y262500D01*
Y261500D01*
X546000Y261000D01*
X546999D01*
X547499Y261500D01*
Y262000D01*
X546999Y262500D01*
X545500D01*
X617000Y121000D02*
X616500Y121500D01*
X615501D01*
X615001Y121000D01*
Y119000D01*
X615501Y118500D01*
X616500D01*
X617000Y119000D01*
X619999Y121500D02*
X618000D01*
Y120000D01*
X618999Y120500D01*
X619499D01*
X619999Y120000D01*
Y119000D01*
X619499Y118500D01*
X618500D01*
X618000Y119000D01*
X474500Y123500D02*
X474000Y124000D01*
X473001D01*
X472501Y123500D01*
Y121500D01*
X473001Y121000D01*
X474000D01*
X474500Y121500D01*
X476999Y121000D02*
Y124000D01*
X475500Y122500D01*
X477499D01*
X17501Y723501D02*
Y726499D01*
X18500Y725500D01*
X19500Y726499D01*
Y723501D01*
X22499Y726499D02*
X20500D01*
Y725000D01*
X21500Y725500D01*
X21999D01*
X22499Y725000D01*
Y724000D01*
X21999Y723501D01*
X21000D01*
X20500Y724000D01*
X60001Y56000D02*
Y59000D01*
X61000Y58000D01*
X62000Y59000D01*
Y56000D01*
X63000Y58500D02*
X63500Y59000D01*
X64499D01*
X64999Y58500D01*
Y58000D01*
X64499Y57500D01*
X64999Y57000D01*
Y56500D01*
X64499Y56000D01*
X63500D01*
X63000Y56500D01*
Y57000D01*
X63500Y57500D01*
X63000Y58000D01*
Y58500D01*
X63500Y57500D02*
X64499D01*
X754918Y67176D02*
Y70175D01*
X755918Y69175D01*
X756917Y70175D01*
Y67176D01*
X757917Y70175D02*
X759916D01*
Y69675D01*
X757917Y67676D01*
Y67176D01*
X742501Y788501D02*
Y791499D01*
X743501Y790500D01*
X744500Y791499D01*
Y788501D01*
X747499Y791499D02*
X746499Y791000D01*
X745500Y790000D01*
Y789000D01*
X746000Y788501D01*
X746999D01*
X747499Y789000D01*
Y789500D01*
X746999Y790000D01*
X745500D01*
X573999Y706001D02*
X571001D01*
Y707501D01*
X571500Y708001D01*
X572500D01*
X573000Y707501D01*
Y706001D01*
Y707001D02*
X573999Y708001D01*
X571500Y709000D02*
X571001Y709500D01*
Y710500D01*
X571500Y711000D01*
X572000D01*
X572500Y710500D01*
Y710000D01*
Y710500D01*
X573000Y711000D01*
X573500D01*
X573999Y710500D01*
Y709500D01*
X573500Y709000D01*
X573999Y713999D02*
Y711999D01*
X572000Y713999D01*
X571500D01*
X571001Y713499D01*
Y712499D01*
X571500Y711999D01*
X573999Y726501D02*
X571001D01*
Y728001D01*
X571500Y728501D01*
X572500D01*
X573000Y728001D01*
Y726501D01*
Y727501D02*
X573999Y728501D01*
X571500Y729500D02*
X571001Y730000D01*
Y731000D01*
X571500Y731499D01*
X572000D01*
X572500Y731000D01*
Y730500D01*
Y731000D01*
X573000Y731499D01*
X573500D01*
X573999Y731000D01*
Y730000D01*
X573500Y729500D01*
X573999Y732499D02*
Y733499D01*
Y732999D01*
X571001D01*
X571500Y732499D01*
X406251Y426001D02*
Y428999D01*
X407751D01*
X408251Y428500D01*
Y427500D01*
X407751Y427000D01*
X406251D01*
X407251D02*
X408251Y426001D01*
X409250D02*
X410250D01*
X409750D01*
Y428999D01*
X409250Y428500D01*
X411749Y426500D02*
X412249Y426001D01*
X413249D01*
X413749Y426500D01*
Y428500D01*
X413249Y428999D01*
X412249D01*
X411749Y428500D01*
Y428000D01*
X412249Y427500D01*
X413749D01*
X381251Y498501D02*
Y501499D01*
X382751D01*
X383251Y501000D01*
Y500000D01*
X382751Y499500D01*
X381251D01*
X382251D02*
X383251Y498501D01*
X384250D02*
X385250D01*
X384750D01*
Y501499D01*
X384250Y501000D01*
X386749D02*
X387249Y501499D01*
X388249D01*
X388749Y501000D01*
Y500500D01*
X388249Y500000D01*
X388749Y499500D01*
Y499000D01*
X388249Y498501D01*
X387249D01*
X386749Y499000D01*
Y499500D01*
X387249Y500000D01*
X386749Y500500D01*
Y501000D01*
X387249Y500000D02*
X388249D01*
X365751Y461001D02*
Y463999D01*
X367251D01*
X367751Y463500D01*
Y462500D01*
X367251Y462000D01*
X365751D01*
X366751D02*
X367751Y461001D01*
X368750D02*
X369750D01*
X369250D01*
Y463999D01*
X368750Y463500D01*
X371249Y463999D02*
X373249D01*
Y463500D01*
X371249Y461500D01*
Y461001D01*
X371251Y426001D02*
Y428999D01*
X372751D01*
X373251Y428500D01*
Y427500D01*
X372751Y427000D01*
X371251D01*
X372251D02*
X373251Y426001D01*
X374250D02*
X375250D01*
X374750D01*
Y428999D01*
X374250Y428500D01*
X378749Y428999D02*
X377749Y428500D01*
X376749Y427500D01*
Y426500D01*
X377249Y426001D01*
X378249D01*
X378749Y426500D01*
Y427000D01*
X378249Y427500D01*
X376749D01*
X446499Y378751D02*
X443501D01*
Y380251D01*
X444000Y380751D01*
X445000D01*
X445500Y380251D01*
Y378751D01*
Y379751D02*
X446499Y380751D01*
Y381750D02*
Y382750D01*
Y382250D01*
X443501D01*
X444000Y381750D01*
X443501Y386249D02*
Y384249D01*
X445000D01*
X444500Y385249D01*
Y385749D01*
X445000Y386249D01*
X446000D01*
X446499Y385749D01*
Y384749D01*
X446000Y384249D01*
X446499Y361251D02*
X443501D01*
Y362751D01*
X444000Y363251D01*
X445000D01*
X445500Y362751D01*
Y361251D01*
Y362251D02*
X446499Y363251D01*
Y364250D02*
Y365250D01*
Y364750D01*
X443501D01*
X444000Y364250D01*
X446499Y368249D02*
X443501D01*
X445000Y366749D01*
Y368749D01*
X588751Y633501D02*
Y636499D01*
X590251D01*
X590751Y636000D01*
Y635000D01*
X590251Y634500D01*
X588751D01*
X589751D02*
X590751Y633501D01*
X591750D02*
X592750D01*
X592250D01*
Y636499D01*
X591750Y636000D01*
X594249D02*
X594749Y636499D01*
X595749D01*
X596249Y636000D01*
Y635500D01*
X595749Y635000D01*
X595249D01*
X595749D01*
X596249Y634500D01*
Y634000D01*
X595749Y633501D01*
X594749D01*
X594249Y634000D01*
X596251Y411001D02*
Y413999D01*
X597751D01*
X598251Y413500D01*
Y412500D01*
X597751Y412000D01*
X596251D01*
X597251D02*
X598251Y411001D01*
X599250D02*
X600250D01*
X599750D01*
Y413999D01*
X599250Y413500D01*
X603749Y411001D02*
X601749D01*
X603749Y413000D01*
Y413500D01*
X603249Y413999D01*
X602249D01*
X601749Y413500D01*
X589251Y658501D02*
Y661499D01*
X590751D01*
X591250Y661000D01*
Y660000D01*
X590751Y659500D01*
X589251D01*
X590251D02*
X591250Y658501D01*
X592250D02*
X593250D01*
X592750D01*
Y661499D01*
X592250Y661000D01*
X594749Y658501D02*
X595749D01*
X595249D01*
Y661499D01*
X594749Y661000D01*
X596251Y382001D02*
Y385000D01*
X597751D01*
X598251Y384500D01*
Y383500D01*
X597751Y383000D01*
X596251D01*
X597251D02*
X598251Y382001D01*
X599250D02*
X600250D01*
X599750D01*
Y385000D01*
X599250Y384500D01*
X601749D02*
X602249Y385000D01*
X603249D01*
X603749Y384500D01*
Y382500D01*
X603249Y382001D01*
X602249D01*
X601749Y382500D01*
Y384500D01*
X528999Y525001D02*
X526001D01*
Y526500D01*
X526500Y527000D01*
X527500D01*
X528000Y526500D01*
Y525001D01*
Y526001D02*
X528999Y527000D01*
X528500Y528000D02*
X528999Y528500D01*
Y529499D01*
X528500Y529999D01*
X526500D01*
X526001Y529499D01*
Y528500D01*
X526500Y528000D01*
X527000D01*
X527500Y528500D01*
Y529999D01*
X536499Y292501D02*
X533501D01*
Y294000D01*
X534000Y294500D01*
X535000D01*
X535500Y294000D01*
Y292501D01*
Y293500D02*
X536499Y294500D01*
X534000Y295500D02*
X533501Y296000D01*
Y296999D01*
X534000Y297499D01*
X534500D01*
X535000Y296999D01*
X535500Y297499D01*
X536000D01*
X536499Y296999D01*
Y296000D01*
X536000Y295500D01*
X535500D01*
X535000Y296000D01*
X534500Y295500D01*
X534000D01*
X535000Y296000D02*
Y296999D01*
X506499Y570001D02*
X503501D01*
Y571500D01*
X504000Y572000D01*
X505000D01*
X505500Y571500D01*
Y570001D01*
Y571001D02*
X506499Y572000D01*
X503501Y573000D02*
Y574999D01*
X504000D01*
X506000Y573000D01*
X506499D01*
X536499Y312501D02*
X533501D01*
Y314000D01*
X534000Y314500D01*
X535000D01*
X535500Y314000D01*
Y312501D01*
Y313500D02*
X536499Y314500D01*
X533501Y317499D02*
X534000Y316500D01*
X535000Y315500D01*
X536000D01*
X536499Y316000D01*
Y316999D01*
X536000Y317499D01*
X535500D01*
X535000Y316999D01*
Y315500D01*
X590001Y561001D02*
Y563999D01*
X591500D01*
X592000Y563500D01*
Y562500D01*
X591500Y562000D01*
X590001D01*
X591001D02*
X592000Y561001D01*
X594999Y563999D02*
X593000D01*
Y562500D01*
X593999Y563000D01*
X594499D01*
X594999Y562500D01*
Y561500D01*
X594499Y561001D01*
X593500D01*
X593000Y561500D01*
X597501Y311000D02*
Y314000D01*
X599000D01*
X599500Y313500D01*
Y312500D01*
X599000Y312000D01*
X597501D01*
X598501D02*
X599500Y311000D01*
X601999D02*
Y314000D01*
X600500Y312500D01*
X602499D01*
X590001Y541001D02*
Y543999D01*
X591500D01*
X592000Y543500D01*
Y542500D01*
X591500Y542000D01*
X590001D01*
X591001D02*
X592000Y541001D01*
X593000Y543500D02*
X593500Y543999D01*
X594499D01*
X594999Y543500D01*
Y543000D01*
X594499Y542500D01*
X593999D01*
X594499D01*
X594999Y542000D01*
Y541500D01*
X594499Y541001D01*
X593500D01*
X593000Y541500D01*
X597501Y288500D02*
Y291500D01*
X599000D01*
X599500Y291000D01*
Y290000D01*
X599000Y289500D01*
X597501D01*
X598501D02*
X599500Y288500D01*
X602499D02*
X600500D01*
X602499Y290500D01*
Y291000D01*
X601999Y291500D01*
X601000D01*
X600500Y291000D01*
X498001Y268500D02*
Y271500D01*
X499500D01*
X500000Y271000D01*
Y270000D01*
X499500Y269500D01*
X498001D01*
X499000D02*
X500000Y268500D01*
X501000D02*
X501999D01*
X501499D01*
Y271500D01*
X501000Y271000D01*
X685001Y418501D02*
Y421499D01*
X686001Y420500D01*
X687000Y421499D01*
Y418501D01*
X689499D02*
Y421499D01*
X688000Y420000D01*
X689999D01*
X707501Y648501D02*
Y651499D01*
X708501Y650500D01*
X709500Y651499D01*
Y648501D01*
X710500Y651000D02*
X711000Y651499D01*
X711999D01*
X712499Y651000D01*
Y650500D01*
X711999Y650000D01*
X711499D01*
X711999D01*
X712499Y649500D01*
Y649000D01*
X711999Y648501D01*
X711000D01*
X710500Y649000D01*
X707501Y301000D02*
Y304000D01*
X708501Y303000D01*
X709500Y304000D01*
Y301000D01*
X712499D02*
X710500D01*
X712499Y303000D01*
Y303500D01*
X711999Y304000D01*
X711000D01*
X710500Y303500D01*
X708001Y601001D02*
Y603999D01*
X709000Y603000D01*
X710000Y603999D01*
Y601001D01*
X711000D02*
X711999D01*
X711499D01*
Y603999D01*
X711000Y603500D01*
X297500Y766499D02*
X296500D01*
X297000D01*
Y764000D01*
X296500Y763501D01*
X296001D01*
X295501Y764000D01*
X300499Y763501D02*
X298500D01*
X300499Y765500D01*
Y766000D01*
X299999Y766499D01*
X299000D01*
X298500Y766000D01*
X708000Y654100D02*
X709000D01*
X708500D01*
Y656600D01*
X709000Y657100D01*
X709500D01*
X709999Y656600D01*
X707000Y657100D02*
X706001D01*
X706500D01*
Y654100D01*
X707000Y654600D01*
X231969Y568143D02*
X232968D01*
X232468D01*
Y565144D01*
X231969D01*
X232968D01*
X236467Y567643D02*
X235967Y568143D01*
X234968D01*
X234468Y567643D01*
Y565644D01*
X234968Y565144D01*
X235967D01*
X236467Y565644D01*
X239466Y568143D02*
X238467Y567643D01*
X237467Y566644D01*
Y565644D01*
X237967Y565144D01*
X238966D01*
X239466Y565644D01*
Y566144D01*
X238966Y566644D01*
X237467D01*
X411251Y463999D02*
X412251D01*
X411751D01*
Y461001D01*
X411251D01*
X412251D01*
X415750Y463500D02*
X415250Y463999D01*
X414250D01*
X413750Y463500D01*
Y461500D01*
X414250Y461001D01*
X415250D01*
X415750Y461500D01*
X418249Y461001D02*
Y463999D01*
X416749Y462500D01*
X418749D01*
X381251Y376499D02*
X382251D01*
X381751D01*
Y373501D01*
X381251D01*
X382251D01*
X385750Y376000D02*
X385250Y376499D01*
X384250D01*
X383750Y376000D01*
Y374000D01*
X384250Y373501D01*
X385250D01*
X385750Y374000D01*
X386749Y376000D02*
X387249Y376499D01*
X388249D01*
X388749Y376000D01*
Y375500D01*
X388249Y375000D01*
X387749D01*
X388249D01*
X388749Y374500D01*
Y374000D01*
X388249Y373501D01*
X387249D01*
X386749Y374000D01*
X546251Y601499D02*
X547251D01*
X546751D01*
Y598501D01*
X546251D01*
X547251D01*
X550750Y601000D02*
X550250Y601499D01*
X549250D01*
X548750Y601000D01*
Y599000D01*
X549250Y598501D01*
X550250D01*
X550750Y599000D01*
X553749Y598501D02*
X551749D01*
X553749Y600500D01*
Y601000D01*
X553249Y601499D01*
X552249D01*
X551749Y601000D01*
X551751Y348999D02*
X552751D01*
X552251D01*
Y346001D01*
X551751D01*
X552751D01*
X556250Y348500D02*
X555750Y348999D01*
X554750D01*
X554250Y348500D01*
Y346500D01*
X554750Y346001D01*
X555750D01*
X556250Y346500D01*
X557249Y346001D02*
X558249D01*
X557749D01*
Y348999D01*
X557249Y348500D01*
X63500Y271500D02*
X61501D01*
Y270000D01*
X62501D01*
X61501D01*
Y268500D01*
X64500Y271500D02*
Y268500D01*
X66500D01*
X67499D02*
X68499D01*
X67999D01*
Y271500D01*
X67499Y271000D01*
X535001Y658999D02*
Y656001D01*
X536500D01*
X537000Y656500D01*
Y658500D01*
X536500Y658999D01*
X535001D01*
X539999D02*
X538999Y658500D01*
X538000Y657500D01*
Y656500D01*
X538500Y656001D01*
X539499D01*
X539999Y656500D01*
Y657000D01*
X539499Y657500D01*
X538000D01*
X562501Y401499D02*
Y398501D01*
X564000D01*
X564500Y399000D01*
Y401000D01*
X564000Y401499D01*
X562501D01*
X567499D02*
X565500D01*
Y400000D01*
X566499Y400500D01*
X566999D01*
X567499Y400000D01*
Y399000D01*
X566999Y398501D01*
X566000D01*
X565500Y399000D01*
X555001Y551499D02*
Y548501D01*
X556500D01*
X557000Y549000D01*
Y551000D01*
X556500Y551499D01*
X555001D01*
X559499Y548501D02*
Y551499D01*
X558000Y550000D01*
X559999D01*
X562501Y301500D02*
Y298500D01*
X564000D01*
X564500Y299000D01*
Y301000D01*
X564000Y301500D01*
X562501D01*
X565500Y301000D02*
X566000Y301500D01*
X566999D01*
X567499Y301000D01*
Y300500D01*
X566999Y300000D01*
X566499D01*
X566999D01*
X567499Y299500D01*
Y299000D01*
X566999Y298500D01*
X566000D01*
X565500Y299000D01*
X520001Y638999D02*
Y636001D01*
X521500D01*
X522000Y636500D01*
Y638500D01*
X521500Y638999D01*
X520001D01*
X524999Y636001D02*
X523000D01*
X524999Y638000D01*
Y638500D01*
X524499Y638999D01*
X523500D01*
X523000Y638500D01*
X528001Y388999D02*
Y386001D01*
X529500D01*
X530000Y386500D01*
Y388500D01*
X529500Y388999D01*
X528001D01*
X531000Y386001D02*
X531999D01*
X531499D01*
Y388999D01*
X531000Y388500D01*
X570501Y693500D02*
X570001Y693999D01*
X569001D01*
X568501Y693500D01*
Y691500D01*
X569001Y691001D01*
X570001D01*
X570501Y691500D01*
X573000Y691001D02*
Y693999D01*
X571500Y692500D01*
X573500D01*
X576499Y693999D02*
X574499D01*
Y692500D01*
X575499Y693000D01*
X575999D01*
X576499Y692500D01*
Y691500D01*
X575999Y691001D01*
X574999D01*
X574499Y691500D01*
X275001Y589589D02*
X274501Y590089D01*
X273501D01*
X273001Y589589D01*
Y587590D01*
X273501Y587090D01*
X274501D01*
X275001Y587590D01*
X277500Y587090D02*
Y590089D01*
X276000Y588590D01*
X278000D01*
X278999Y589589D02*
X279499Y590089D01*
X280499D01*
X280999Y589589D01*
Y587590D01*
X280499Y587090D01*
X279499D01*
X278999Y587590D01*
Y589589D01*
X246437Y512643D02*
X245937Y513143D01*
X244937D01*
X244437Y512643D01*
Y510644D01*
X244937Y510144D01*
X245937D01*
X246437Y510644D01*
X249436Y510144D02*
X247436D01*
X249436Y512144D01*
Y512643D01*
X248936Y513143D01*
X247936D01*
X247436Y512643D01*
X250435Y510644D02*
X250935Y510144D01*
X251935D01*
X252435Y510644D01*
Y512643D01*
X251935Y513143D01*
X250935D01*
X250435Y512643D01*
Y512144D01*
X250935Y511644D01*
X252435D01*
X284001Y550000D02*
X283501Y550499D01*
X282501D01*
X282001Y550000D01*
Y548000D01*
X282501Y547500D01*
X283501D01*
X284001Y548000D01*
X287000Y547500D02*
X285000D01*
X287000Y549500D01*
Y550000D01*
X286500Y550499D01*
X285500D01*
X285000Y550000D01*
X287999D02*
X288499Y550499D01*
X289499D01*
X289999Y550000D01*
Y549500D01*
X289499Y549000D01*
X289999Y548500D01*
Y548000D01*
X289499Y547500D01*
X288499D01*
X287999Y548000D01*
Y548500D01*
X288499Y549000D01*
X287999Y549500D01*
Y550000D01*
X288499Y549000D02*
X289499D01*
X409000Y490501D02*
X408501Y490001D01*
Y489001D01*
X409000Y488501D01*
X411000D01*
X411499Y489001D01*
Y490001D01*
X411000Y490501D01*
X411499Y493500D02*
Y491500D01*
X409500Y493500D01*
X409000D01*
X408501Y493000D01*
Y492000D01*
X409000Y491500D01*
X408501Y494499D02*
Y496499D01*
X409000D01*
X411000Y494499D01*
X411499D01*
X409000Y508001D02*
X408501Y507501D01*
Y506501D01*
X409000Y506001D01*
X411000D01*
X411499Y506501D01*
Y507501D01*
X411000Y508001D01*
X411499Y511000D02*
Y509000D01*
X409500Y511000D01*
X409000D01*
X408501Y510500D01*
Y509500D01*
X409000Y509000D01*
X408501Y513999D02*
X409000Y512999D01*
X410000Y511999D01*
X411000D01*
X411499Y512499D01*
Y513499D01*
X411000Y513999D01*
X410500D01*
X410000Y513499D01*
Y511999D01*
X390501Y428500D02*
X390001Y428999D01*
X389001D01*
X388501Y428500D01*
Y426500D01*
X389001Y426001D01*
X390001D01*
X390501Y426500D01*
X393500Y426001D02*
X391500D01*
X393500Y428000D01*
Y428500D01*
X393000Y428999D01*
X392000D01*
X391500Y428500D01*
X396499Y428999D02*
X394499D01*
Y427500D01*
X395499Y428000D01*
X395999D01*
X396499Y427500D01*
Y426500D01*
X395999Y426001D01*
X394999D01*
X394499Y426500D01*
X348000Y589777D02*
X347500Y589277D01*
Y588278D01*
X348000Y587778D01*
X350000D01*
X350499Y588278D01*
Y589277D01*
X350000Y589777D01*
X350499Y592776D02*
Y590777D01*
X348500Y592776D01*
X348000D01*
X347500Y592276D01*
Y591277D01*
X348000Y590777D01*
X350499Y595275D02*
X347500D01*
X349000Y593776D01*
Y595775D01*
X439000Y490501D02*
X438501Y490001D01*
Y489001D01*
X439000Y488501D01*
X441000D01*
X441499Y489001D01*
Y490001D01*
X441000Y490501D01*
X441499Y493500D02*
Y491500D01*
X439500Y493500D01*
X439000D01*
X438501Y493000D01*
Y492000D01*
X439000Y491500D01*
Y494499D02*
X438501Y494999D01*
Y495999D01*
X439000Y496499D01*
X439500D01*
X440000Y495999D01*
Y495499D01*
Y495999D01*
X440500Y496499D01*
X441000D01*
X441499Y495999D01*
Y494999D01*
X441000Y494499D01*
X394000Y328001D02*
X393501Y327501D01*
Y326501D01*
X394000Y326001D01*
X396000D01*
X396499Y326501D01*
Y327501D01*
X396000Y328001D01*
X396499Y331000D02*
Y329000D01*
X394500Y331000D01*
X394000D01*
X393501Y330500D01*
Y329500D01*
X394000Y329000D01*
X396499Y333999D02*
Y331999D01*
X394500Y333999D01*
X394000D01*
X393501Y333499D01*
Y332499D01*
X394000Y331999D01*
X436500Y331001D02*
X436000Y330501D01*
Y329501D01*
X436500Y329001D01*
X438500D01*
X438999Y329501D01*
Y330501D01*
X438500Y331001D01*
X438999Y333999D02*
Y332000D01*
X437000Y333999D01*
X436500D01*
X436000Y333500D01*
Y332500D01*
X436500Y332000D01*
X438999Y334999D02*
Y335999D01*
Y335499D01*
X436000D01*
X436500Y334999D01*
X444000Y400501D02*
X443501Y400001D01*
Y399001D01*
X444000Y398501D01*
X446000D01*
X446499Y399001D01*
Y400001D01*
X446000Y400501D01*
X446499Y403500D02*
Y401500D01*
X444500Y403500D01*
X444000D01*
X443501Y403000D01*
Y402000D01*
X444000Y401500D01*
Y404499D02*
X443501Y404999D01*
Y405999D01*
X444000Y406499D01*
X446000D01*
X446499Y405999D01*
Y404999D01*
X446000Y404499D01*
X444000D01*
X400751Y376000D02*
X400251Y376499D01*
X399251D01*
X398751Y376000D01*
Y374000D01*
X399251Y373501D01*
X400251D01*
X400751Y374000D01*
X401750Y373501D02*
X402750D01*
X402250D01*
Y376499D01*
X401750Y376000D01*
X404249Y374000D02*
X404749Y373501D01*
X405749D01*
X406249Y374000D01*
Y376000D01*
X405749Y376499D01*
X404749D01*
X404249Y376000D01*
Y375500D01*
X404749Y375000D01*
X406249D01*
X798251Y681000D02*
X797751Y681499D01*
X796751D01*
X796251Y681000D01*
Y679000D01*
X796751Y678501D01*
X797751D01*
X798251Y679000D01*
X799250Y678501D02*
X800250D01*
X799750D01*
Y681499D01*
X799250Y681000D01*
X801749D02*
X802249Y681499D01*
X803249D01*
X803749Y681000D01*
Y680500D01*
X803249Y680000D01*
X803749Y679500D01*
Y679000D01*
X803249Y678501D01*
X802249D01*
X801749Y679000D01*
Y679500D01*
X802249Y680000D01*
X801749Y680500D01*
Y681000D01*
X802249Y680000D02*
X803249D01*
X795751Y646000D02*
X795251Y646499D01*
X794251D01*
X793751Y646000D01*
Y644000D01*
X794251Y643501D01*
X795251D01*
X795751Y644000D01*
X796750Y643501D02*
X797750D01*
X797250D01*
Y646499D01*
X796750Y646000D01*
X799249Y646499D02*
X801249D01*
Y646000D01*
X799249Y644000D01*
Y643501D01*
X489000Y603251D02*
X488501Y602751D01*
Y601751D01*
X489000Y601251D01*
X491000D01*
X491499Y601751D01*
Y602751D01*
X491000Y603251D01*
X491499Y604250D02*
Y605250D01*
Y604750D01*
X488501D01*
X489000Y604250D01*
X488501Y608749D02*
X489000Y607749D01*
X490000Y606749D01*
X491000D01*
X491499Y607249D01*
Y608249D01*
X491000Y608749D01*
X490500D01*
X490000Y608249D01*
Y606749D01*
X490751Y353500D02*
X490251Y353999D01*
X489251D01*
X488751Y353500D01*
Y351500D01*
X489251Y351001D01*
X490251D01*
X490751Y351500D01*
X491750Y351001D02*
X492750D01*
X492250D01*
Y353999D01*
X491750Y353500D01*
X496249Y353999D02*
X494249D01*
Y352500D01*
X495249Y353000D01*
X495749D01*
X496249Y352500D01*
Y351500D01*
X495749Y351001D01*
X494749D01*
X494249Y351500D01*
X795751Y611000D02*
X795251Y611499D01*
X794251D01*
X793751Y611000D01*
Y609000D01*
X794251Y608501D01*
X795251D01*
X795751Y609000D01*
X796750Y608501D02*
X797750D01*
X797250D01*
Y611499D01*
X796750Y611000D01*
X800749Y608501D02*
Y611499D01*
X799249Y610000D01*
X801249D01*
X798251Y576000D02*
X797751Y576499D01*
X796751D01*
X796251Y576000D01*
Y574000D01*
X796751Y573501D01*
X797751D01*
X798251Y574000D01*
X799250Y573501D02*
X800250D01*
X799750D01*
Y576499D01*
X799250Y576000D01*
X801749D02*
X802249Y576499D01*
X803249D01*
X803749Y576000D01*
Y575500D01*
X803249Y575000D01*
X802749D01*
X803249D01*
X803749Y574500D01*
Y574000D01*
X803249Y573501D01*
X802249D01*
X801749Y574000D01*
X598251Y598500D02*
X597751Y598999D01*
X596751D01*
X596251Y598500D01*
Y596500D01*
X596751Y596001D01*
X597751D01*
X598251Y596500D01*
X599250Y596001D02*
X600250D01*
X599750D01*
Y598999D01*
X599250Y598500D01*
X603749Y596001D02*
X601749D01*
X603749Y598000D01*
Y598500D01*
X603249Y598999D01*
X602249D01*
X601749Y598500D01*
X272539Y204041D02*
X272040Y204541D01*
X271040D01*
X270540Y204041D01*
Y202042D01*
X271040Y201542D01*
X272040D01*
X272539Y202042D01*
X273539Y201542D02*
X274539D01*
X274039D01*
Y204541D01*
X273539Y204041D01*
X276038Y201542D02*
X277038D01*
X276538D01*
Y204541D01*
X276038Y204041D01*
X723251Y738500D02*
X722751Y738999D01*
X721751D01*
X721251Y738500D01*
Y736500D01*
X721751Y736001D01*
X722751D01*
X723251Y736500D01*
X724250Y736001D02*
X725250D01*
X724750D01*
Y738999D01*
X724250Y738500D01*
X726749D02*
X727249Y738999D01*
X728249D01*
X728749Y738500D01*
Y736500D01*
X728249Y736001D01*
X727249D01*
X726749Y736500D01*
Y738500D01*
X754500Y321000D02*
X754000Y321499D01*
X753001D01*
X752501Y321000D01*
Y319000D01*
X753001Y318500D01*
X754000D01*
X754500Y319000D01*
X755500D02*
X756000Y318500D01*
X756999D01*
X757499Y319000D01*
Y321000D01*
X756999Y321499D01*
X756000D01*
X755500Y321000D01*
Y320500D01*
X756000Y320000D01*
X757499D01*
X365757Y118951D02*
X365257Y119451D01*
X364258D01*
X363758Y118951D01*
Y116952D01*
X364258Y116452D01*
X365257D01*
X365757Y116952D01*
X366757Y118951D02*
X367257Y119451D01*
X368256D01*
X368756Y118951D01*
Y118451D01*
X368256Y117951D01*
X368756Y117452D01*
Y116952D01*
X368256Y116452D01*
X367257D01*
X366757Y116952D01*
Y117452D01*
X367257Y117951D01*
X366757Y118451D01*
Y118951D01*
X367257Y117951D02*
X368256D01*
X697000Y703500D02*
X696500Y703999D01*
X695501D01*
X695001Y703500D01*
Y701500D01*
X695501Y701001D01*
X696500D01*
X697000Y701500D01*
X698000Y703500D02*
X698500Y703999D01*
X699499D01*
X699999Y703500D01*
Y703000D01*
X699499Y702500D01*
X698999D01*
X699499D01*
X699999Y702000D01*
Y701500D01*
X699499Y701001D01*
X698500D01*
X698000Y701500D01*
X609500Y348500D02*
X609000Y348999D01*
X608001D01*
X607501Y348500D01*
Y346500D01*
X608001Y346001D01*
X609000D01*
X609500Y346500D01*
X612499Y346001D02*
X610500D01*
X612499Y348000D01*
Y348500D01*
X611999Y348999D01*
X611000D01*
X610500Y348500D01*
X17500Y273500D02*
X17000Y274000D01*
X16000D01*
X15501Y273500D01*
Y271500D01*
X16000Y271000D01*
X17000D01*
X17500Y271500D01*
X18500Y271000D02*
X19499D01*
X19000D01*
Y274000D01*
X18500Y273500D01*
D14*
X314736Y433698D02*
Y441315D01*
X318545D01*
X319814Y440046D01*
Y437507D01*
X318545Y436237D01*
X314736D01*
X317275D02*
X319814Y433698D01*
X327432D02*
X322354D01*
X327432Y438776D01*
Y440046D01*
X326162Y441315D01*
X323623D01*
X322354Y440046D01*
X329971Y433698D02*
X332510D01*
X331241D01*
Y441315D01*
X329971Y440046D01*
X322304Y341809D02*
Y334191D01*
X327383D01*
X335000Y341809D02*
X329922D01*
Y334191D01*
X335000D01*
X329922Y338000D02*
X332461D01*
X337539Y341809D02*
Y334191D01*
X341348D01*
X342617Y335461D01*
Y340539D01*
X341348Y341809D01*
X337539D01*
X345157Y334191D02*
X347696D01*
X346426D01*
Y341809D01*
X345157Y340539D01*
M02*
