G04*
G04 #@! TF.GenerationSoftware,Altium Limited,Altium Designer,21.6.4 (81)*
G04*
G04 Layer_Color=16711935*
%FSLAX44Y44*%
%MOMM*%
G71*
G04*
G04 #@! TF.SameCoordinates,D26747ED-23D3-466A-99B4-63F3962E0784*
G04*
G04*
G04 #@! TF.FilePolarity,Positive*
G04*
G01*
G75*
%ADD10C,0.2000*%
%ADD13C,0.1000*%
D10*
X315000Y399000D02*
X329000D01*
Y421000D01*
X315000D02*
X329000D01*
X315000Y399000D02*
Y421000D01*
X475000Y148000D02*
Y258000D01*
Y148000D02*
X525000D01*
Y258000D01*
X475000D02*
X525000D01*
X219750Y734000D02*
X232250D01*
Y754000D01*
X219750D02*
X232250D01*
X219750Y734000D02*
Y754000D01*
X267000Y583000D02*
Y595500D01*
Y583000D02*
X287000D01*
Y595500D01*
X267000D02*
X287000D01*
X392000Y489500D02*
Y511500D01*
X378000Y489500D02*
X392000D01*
X378000D02*
Y511500D01*
X392000D01*
X377000Y451500D02*
Y473500D01*
X363000Y451500D02*
X377000D01*
X363000D02*
Y473500D01*
X377000D01*
X381000Y417500D02*
Y439500D01*
X367000Y417500D02*
X381000D01*
X367000D02*
Y439500D01*
X381000D01*
X417000Y417500D02*
Y439500D01*
X403000Y417500D02*
X417000D01*
X403000D02*
Y439500D01*
X417000D01*
X434000Y390500D02*
X456000D01*
Y376500D02*
Y390500D01*
X434000Y376500D02*
X456000D01*
X434000D02*
Y390500D01*
Y372500D02*
X456000D01*
Y358500D02*
Y372500D01*
X434000Y358500D02*
X456000D01*
X434000D02*
Y372500D01*
X159718Y533644D02*
X214718D01*
Y598644D01*
X159718D02*
X214718D01*
X159718Y533644D02*
Y598644D01*
X342750Y581777D02*
X355250D01*
Y601777D01*
X342750D02*
X355250D01*
X342750Y581777D02*
Y601777D01*
X561500Y737000D02*
X583500D01*
Y723000D02*
Y737000D01*
X561500Y723000D02*
X583500D01*
X561500D02*
Y737000D01*
X562837Y687750D02*
Y700250D01*
Y687750D02*
X582837D01*
Y700250D01*
X562837D02*
X582837D01*
X607666Y650676D02*
Y666676D01*
X575666D02*
X607666D01*
X575666Y650676D02*
Y666676D01*
Y650676D02*
X607666D01*
Y628676D02*
Y644677D01*
X575666D02*
X607666D01*
X575666Y628676D02*
Y644677D01*
Y628676D02*
X607666D01*
X595416Y586676D02*
X607916D01*
Y606676D01*
X595416D02*
X607916D01*
X595416Y586676D02*
Y606676D01*
X607666Y555676D02*
Y571676D01*
X575666D02*
X607666D01*
X575666Y555676D02*
Y571676D01*
Y555676D02*
X607666D01*
Y533676D02*
Y549677D01*
X575666D02*
X607666D01*
X575666Y533676D02*
Y549677D01*
Y533676D02*
X607666D01*
X584000Y404000D02*
Y420000D01*
Y404000D02*
X616000D01*
Y420000D01*
X584000D02*
X616000D01*
X584000Y377000D02*
Y393000D01*
Y377000D02*
X616000D01*
Y393000D01*
X584000D02*
X616000D01*
X603750Y336000D02*
X616250D01*
Y356000D01*
X603750D02*
X616250D01*
X603750Y336000D02*
Y356000D01*
X616000Y304500D02*
Y320500D01*
X584000D02*
X616000D01*
X584000Y304500D02*
Y320500D01*
Y304500D02*
X616000D01*
Y282000D02*
Y298000D01*
X584000D02*
X616000D01*
X584000Y282000D02*
Y298000D01*
Y282000D02*
X616000D01*
X632500Y336750D02*
X693500D01*
X632500Y283250D02*
Y336750D01*
Y283250D02*
X693500D01*
Y336750D01*
X632500Y596750D02*
X693500D01*
X632500Y543250D02*
Y596750D01*
Y543250D02*
X693500D01*
Y596750D01*
X632500Y406750D02*
X693500D01*
X632500Y353250D02*
Y406750D01*
Y353250D02*
X693500D01*
Y406750D01*
X632500Y666750D02*
X693500D01*
X632500Y613250D02*
Y666750D01*
Y613250D02*
X693500D01*
Y666750D01*
X268500Y0D02*
Y280000D01*
X83500Y0D02*
X268500D01*
X83500D02*
Y280000D01*
X268500D01*
X0Y74043D02*
X80000D01*
Y254042D01*
X0D02*
X80000D01*
X0Y74043D02*
Y254042D01*
X280000Y5000D02*
X360000D01*
Y185000D01*
X280000D02*
X360000D01*
X280000Y5000D02*
Y185000D01*
D13*
X8500Y446793D02*
G03*
X1000Y439293I0J-7500D01*
G01*
Y387293D02*
G03*
X8500Y379793I7500J0D01*
G01*
X1000Y312293D02*
G03*
X8500Y304793I7500J0D01*
G01*
Y371793D02*
G03*
X1000Y364293I0J-7500D01*
G01*
X923542Y386857D02*
G03*
X931042Y394357I0J7500D01*
G01*
Y446357D02*
G03*
X923542Y453857I-7500J0D01*
G01*
X931042Y521357D02*
G03*
X923542Y528857I-7500J0D01*
G01*
Y461857D02*
G03*
X931042Y469357I0J7500D01*
G01*
X675000Y200000D02*
G03*
X675000Y200000I-65000J0D01*
G01*
X745000Y70000D02*
G03*
X745000Y70000I-65000J0D01*
G01*
X605000D02*
G03*
X605000Y70000I-65000J0D01*
G01*
X468000Y55000D02*
G03*
X468000Y55000I-50000J0D01*
G01*
X815000Y195000D02*
G03*
X815000Y195000I-65000J0D01*
G01*
X315250Y351500D02*
Y372500D01*
X328750Y351500D02*
Y372500D01*
X315250Y351500D02*
X328750D01*
X315250Y372500D02*
X328750D01*
X309942Y285443D02*
Y336243D01*
X284543Y285443D02*
X309942D01*
X284543D02*
Y336243D01*
X309942D01*
X284800Y224600D02*
Y275400D01*
X310200D01*
Y224600D02*
Y275400D01*
X284800Y224600D02*
X310200D01*
X8500Y446793D02*
X31000D01*
X1000Y386793D02*
Y439293D01*
X8500Y379793D02*
X31000D01*
X8500Y304793D02*
X31000D01*
X1000Y311793D02*
Y364293D01*
X8500Y371793D02*
X31000D01*
Y457293D02*
X229000Y457293D01*
X31000Y295293D02*
X229000D01*
X31000D02*
Y457293D01*
X229000Y295293D02*
Y457293D01*
X901042Y386857D02*
X923542D01*
X931042Y394357D02*
Y446857D01*
X901042Y453857D02*
X923542D01*
X901042Y528857D02*
X923542D01*
X931042Y469357D02*
Y521857D01*
X901042Y461857D02*
X923542D01*
X703043Y376357D02*
X901042Y376357D01*
X703043Y538357D02*
X901042D01*
Y376357D02*
Y538357D01*
X703043Y376357D02*
Y538357D01*
X160500Y772500D02*
Y797500D01*
Y772500D02*
X419500D01*
Y797500D01*
X160500D02*
X419500D01*
X160500Y620100D02*
Y645100D01*
Y620100D02*
X419500D01*
Y645100D01*
X160500D02*
X419500D01*
X528916Y628927D02*
X535166Y635177D01*
Y628927D02*
Y644426D01*
X508166D02*
X535166D01*
X508166Y628927D02*
Y644426D01*
Y628927D02*
X535166D01*
X245750Y742000D02*
X258250D01*
Y762000D01*
X245750D02*
X258250D01*
X245750Y742000D02*
Y762000D01*
X537250Y378250D02*
X543500Y384500D01*
Y378250D02*
Y393750D01*
X516500D02*
X543500D01*
X516500Y378250D02*
Y393750D01*
Y378250D02*
X543500D01*
X433192Y448457D02*
X447692D01*
X433192Y470457D02*
X447692D01*
X433192Y448457D02*
Y470457D01*
X447692Y448457D02*
Y470457D01*
X262100Y540750D02*
Y560750D01*
X274600D01*
Y540750D02*
Y560750D01*
X262100Y540750D02*
X274600D01*
X219250Y468335D02*
X259000D01*
X272250Y481585D01*
Y508085D01*
X259000Y521335D02*
X272250Y508085D01*
X219250Y521335D02*
X259000D01*
X219250Y468335D02*
Y521335D01*
X400000Y503250D02*
X420000D01*
X400000D02*
Y515750D01*
X420000D01*
Y503250D02*
Y515750D01*
Y486250D02*
Y498750D01*
X400000D02*
X420000D01*
X400000Y486250D02*
Y498750D01*
Y486250D02*
X420000D01*
X394500Y447500D02*
X411500D01*
X394500Y477500D02*
X411500D01*
Y447500D02*
Y477500D01*
X394500Y447500D02*
Y477500D01*
X385750Y417500D02*
Y437500D01*
X398250D01*
Y417500D02*
Y437500D01*
X385750Y417500D02*
X398250D01*
X417000Y394250D02*
X437000D01*
X417000D02*
Y406750D01*
X437000D01*
Y394250D02*
Y406750D01*
X426250Y364500D02*
Y384500D01*
X413750Y364500D02*
X426250D01*
X413750D02*
Y384500D01*
X426250D01*
X409500Y355500D02*
Y394500D01*
X360500Y355500D02*
X409500D01*
X360500D02*
Y394500D01*
X409500D01*
X396800D02*
X409500Y381800D01*
X385000Y323250D02*
X405000D01*
X385000D02*
Y335750D01*
X405000D01*
Y323250D02*
Y335750D01*
X417000Y341250D02*
X437000D01*
X417000D02*
Y353750D01*
X437000D01*
Y341250D02*
Y353750D01*
X430000Y486250D02*
X450000D01*
X430000D02*
Y498750D01*
X450000D01*
Y486250D02*
Y498750D01*
X561500Y705140D02*
Y719640D01*
X583500Y705140D02*
Y719640D01*
X561500D02*
X583500D01*
X561500Y705140D02*
X583500D01*
X515666Y556426D02*
Y570926D01*
X537666Y556426D02*
Y570926D01*
X515666D02*
X537666D01*
X515666Y556426D02*
X537666D01*
X515666Y536427D02*
Y550927D01*
X537666Y536427D02*
Y550927D01*
X515666D02*
X537666D01*
X515666Y536427D02*
X537666D01*
X495416Y586676D02*
X507916D01*
Y606676D01*
X495416D02*
X507916D01*
X495416Y586676D02*
Y606676D01*
X548916Y644426D02*
X555166Y638176D01*
X548916D02*
X564416D01*
Y665176D01*
X548916D02*
X564416D01*
X548916Y638176D02*
Y665176D01*
X558166Y565176D02*
X564416Y558926D01*
X548916Y565176D02*
X564416D01*
X548916Y538176D02*
Y565176D01*
Y538176D02*
X564416D01*
Y565176D01*
X530166Y626176D02*
X569166D01*
Y577176D02*
Y626176D01*
X530166Y577176D02*
X569166D01*
X530166D02*
Y626176D01*
Y613476D02*
X542866Y626176D01*
X566500Y313500D02*
X572750Y307250D01*
X557250Y313500D02*
X572750D01*
X557250Y286500D02*
Y313500D01*
Y286500D02*
X572750D01*
Y313500D01*
X524000Y288750D02*
Y303250D01*
X546000Y288750D02*
Y303250D01*
X524000D02*
X546000D01*
X524000Y288750D02*
X546000D01*
X524000Y307750D02*
Y322250D01*
X546000Y307750D02*
Y322250D01*
X524000D02*
X546000D01*
X524000Y307750D02*
X546000D01*
X498750Y342000D02*
X511250D01*
Y362000D01*
X498750D02*
X511250D01*
X498750Y342000D02*
Y362000D01*
X538500Y374500D02*
X577500D01*
Y325500D02*
Y374500D01*
X538500Y325500D02*
X577500D01*
X538500D02*
Y374500D01*
Y361800D02*
X551200Y374500D01*
X557250Y393750D02*
X563500Y387500D01*
X557250D02*
X572750D01*
Y414500D01*
X557250D02*
X572750D01*
X557250Y387500D02*
Y414500D01*
X718750Y747500D02*
X731250D01*
X718750Y727500D02*
X731250D01*
Y747500D01*
X718750Y727500D02*
Y747500D01*
X775000Y666500D02*
Y698500D01*
X730000D02*
X775000D01*
X730000Y666500D02*
Y698500D01*
Y666500D02*
X775000D01*
Y626500D02*
Y658500D01*
X730000D02*
X775000D01*
X730000Y626500D02*
Y658500D01*
Y626500D02*
X775000D01*
Y586500D02*
Y618500D01*
X730000D02*
X775000D01*
X730000Y586500D02*
Y618500D01*
Y586500D02*
X775000D01*
Y546500D02*
Y578500D01*
X730000D02*
X775000D01*
X730000Y546500D02*
Y578500D01*
Y546500D02*
X775000D01*
X765000Y313750D02*
Y326250D01*
X745000Y313750D02*
Y326250D01*
Y313750D02*
X765000D01*
X745000Y326250D02*
X765000D01*
M02*
