G04*
G04 #@! TF.GenerationSoftware,Altium Limited,Altium Designer,20.1.12 (249)*
G04*
G04 Layer_Physical_Order=1*
G04 Layer_Color=255*
%FSLAX44Y44*%
%MOMM*%
G71*
G04*
G04 #@! TF.SameCoordinates,BAD2E13A-ADEF-41FB-B1CA-1C4B7F66A015*
G04*
G04*
G04 #@! TF.FilePolarity,Positive*
G04*
G01*
G75*
%ADD20R,0.9600X1.3900*%
%ADD21R,1.2500X0.7500*%
%ADD22R,1.5250X0.6500*%
%ADD23R,1.2500X1.5500*%
%ADD24R,0.7500X1.2500*%
%ADD25R,1.3900X0.9600*%
%ADD26R,1.3561X1.8582*%
%ADD27R,1.2500X3.5200*%
%ADD34R,0.8500X0.5000*%
%ADD51R,4.5500X4.4100*%
%ADD52C,0.2540*%
%ADD53C,3.3000*%
%ADD54C,3.5000*%
%ADD55R,1.6500X1.6500*%
%ADD56C,1.6500*%
%ADD57C,1.2000*%
%ADD58R,1.2000X1.2000*%
%ADD59C,3.0000*%
%ADD60R,3.0000X3.0000*%
%ADD61R,1.2000X1.2000*%
%ADD62C,2.4000*%
%ADD63R,2.4000X2.4000*%
%ADD64C,1.6000*%
%ADD65R,1.6000X1.6000*%
%ADD66C,0.6000*%
G36*
X655000Y700000D02*
X620000Y665000D01*
Y622500D01*
X605000D01*
Y735000D01*
X655000D01*
Y700000D01*
D02*
G37*
G36*
X590000Y652500D02*
X600000Y642500D01*
Y622500D01*
X550000D01*
Y735000D01*
X590000D01*
Y652500D01*
D02*
G37*
G36*
X582500Y612500D02*
Y578516D01*
X581267Y577500D01*
X565000Y577500D01*
Y612500D01*
X582500Y612500D01*
D02*
G37*
G36*
X685000Y550000D02*
X655000D01*
X632500Y567500D01*
X630000D01*
Y535000D01*
X585000Y535000D01*
Y500000D01*
X562500Y500000D01*
Y542500D01*
X572500Y562500D01*
X574546Y565910D01*
X577790D01*
Y571317D01*
X579652Y574421D01*
X580000Y574352D01*
X582162Y574781D01*
X582489Y575000D01*
X587500D01*
Y612500D01*
X637500D01*
X657500Y632500D01*
X685000D01*
Y550000D01*
D02*
G37*
G36*
X650000Y487500D02*
X632500D01*
Y532500D01*
X650000D01*
Y487500D01*
D02*
G37*
G36*
X582500Y457500D02*
Y422500D01*
X565000Y422500D01*
Y457500D01*
X582500Y457500D01*
D02*
G37*
G36*
X632500Y380000D02*
X582500D01*
Y340000D01*
X562500D01*
Y392500D01*
X567500Y402500D01*
X570000Y405000D01*
X576895Y410910D01*
X577790D01*
Y411677D01*
X587500Y420000D01*
X632500D01*
Y380000D01*
D02*
G37*
G36*
X750000Y42004D02*
X748730Y41751D01*
X747742Y44135D01*
X745190Y48301D01*
X742017Y52017D01*
X738301Y55189D01*
X734135Y57742D01*
X729622Y59612D01*
X724871Y60753D01*
X720000Y61136D01*
X715129Y60753D01*
X710378Y59612D01*
X705865Y57742D01*
X701699Y55189D01*
X697983Y52017D01*
X694810Y48301D01*
X692258Y44135D01*
X690388Y39622D01*
X689247Y34871D01*
X688864Y30000D01*
X689247Y25129D01*
X690388Y20378D01*
X692258Y15865D01*
X694810Y11699D01*
X697983Y7983D01*
X701699Y4811D01*
X705865Y2258D01*
X708249Y1270D01*
X707996Y0D01*
X382500D01*
Y222500D01*
X436400D01*
X453948Y204952D01*
Y70250D01*
X453948Y70250D01*
X454335Y66322D01*
X455000Y64130D01*
Y62500D01*
X456084Y61416D01*
X457342Y59062D01*
X459846Y56011D01*
X480096Y35761D01*
X483148Y33257D01*
X485501Y31999D01*
X490000Y27500D01*
X492500Y30000D01*
X492944D01*
X494335Y29863D01*
X546878D01*
X550806Y30250D01*
X554584Y31396D01*
X558065Y33257D01*
X561117Y35761D01*
X581367Y56011D01*
X583871Y59062D01*
X585732Y62544D01*
X586878Y66322D01*
X587265Y70250D01*
Y204952D01*
X624239Y241926D01*
X626743Y244977D01*
X628604Y248459D01*
X629750Y252236D01*
X630137Y256165D01*
Y317500D01*
X750000Y317500D01*
Y42004D01*
D02*
G37*
D20*
X638100Y297500D02*
D03*
X621900D02*
D03*
X594400Y632500D02*
D03*
X610600D02*
D03*
D21*
X440374Y577311D02*
D03*
X473374D02*
D03*
Y409502D02*
D03*
X440374D02*
D03*
D22*
X471045Y555818D02*
D03*
Y543118D02*
D03*
Y530418D02*
D03*
Y517718D02*
D03*
X525285D02*
D03*
Y530418D02*
D03*
Y543118D02*
D03*
Y555818D02*
D03*
X471045Y388010D02*
D03*
Y375310D02*
D03*
Y362610D02*
D03*
Y349910D02*
D03*
X525285D02*
D03*
Y362610D02*
D03*
Y375310D02*
D03*
Y388010D02*
D03*
D23*
X450374Y473183D02*
D03*
X470874D02*
D03*
X470250Y496226D02*
D03*
X449750D02*
D03*
X472750Y328417D02*
D03*
X452250D02*
D03*
X452707Y305375D02*
D03*
X473208D02*
D03*
D24*
X495166Y408252D02*
D03*
Y441252D02*
D03*
Y609061D02*
D03*
Y576061D02*
D03*
Y463500D02*
D03*
Y496500D02*
D03*
X495000Y329000D02*
D03*
Y296000D02*
D03*
D25*
X449372Y545600D02*
D03*
Y529400D02*
D03*
X546957Y534400D02*
D03*
Y550600D02*
D03*
X546957Y383100D02*
D03*
Y366900D02*
D03*
X449372Y370600D02*
D03*
Y354400D02*
D03*
D26*
X550261Y605852D02*
D03*
X519739D02*
D03*
X550261Y581352D02*
D03*
X519739D02*
D03*
X550261Y468180D02*
D03*
X519739D02*
D03*
X550261Y492180D02*
D03*
X519739D02*
D03*
X550261Y437060D02*
D03*
X519739D02*
D03*
X550261Y413544D02*
D03*
X519739D02*
D03*
X550261Y300380D02*
D03*
X519739D02*
D03*
X550261Y324380D02*
D03*
X519739D02*
D03*
D27*
X711300Y535000D02*
D03*
X671700D02*
D03*
Y576243D02*
D03*
X711300D02*
D03*
X671700Y617485D02*
D03*
X711300D02*
D03*
X671700Y658728D02*
D03*
X711300D02*
D03*
D34*
X571000Y570950D02*
D03*
Y583650D02*
D03*
Y596350D02*
D03*
Y609050D02*
D03*
X571000Y529050D02*
D03*
Y516350D02*
D03*
Y503650D02*
D03*
Y490950D02*
D03*
Y415950D02*
D03*
Y428650D02*
D03*
Y441350D02*
D03*
Y454050D02*
D03*
Y369050D02*
D03*
Y356350D02*
D03*
Y343650D02*
D03*
Y330950D02*
D03*
D51*
X610500Y590000D02*
D03*
X610500Y510000D02*
D03*
Y435000D02*
D03*
Y350000D02*
D03*
D52*
X470874Y460874D02*
Y473183D01*
X452500Y442500D02*
X470874Y460874D01*
X592000Y426000D02*
X601000D01*
X592000Y435000D02*
X601000D01*
X592000Y444000D02*
X601000D01*
X592000Y453000D02*
X601000D01*
X525249Y329890D02*
Y339751D01*
X525000Y340000D02*
X525249Y339751D01*
X437500Y485000D02*
X449766D01*
X450374Y484393D01*
X510000Y350000D02*
X525195D01*
X525285Y349910D01*
X461054Y517718D02*
X471045D01*
X455052Y523720D02*
X461054Y517718D01*
X455052Y523720D02*
Y525870D01*
X451522Y529400D02*
X455052Y525870D01*
X449372Y529400D02*
X451522D01*
X519739Y324380D02*
X525249Y329890D01*
X519739Y492180D02*
Y494691D01*
X530048Y505000D01*
X532500D01*
X436016Y296484D02*
X438516D01*
X441185Y293815D01*
X463148D01*
X473208Y303875D01*
Y305375D01*
X418367Y339977D02*
X472750D01*
X452250Y317125D02*
Y328417D01*
Y305832D02*
Y317125D01*
X440375D02*
X452250D01*
X440000Y317500D02*
X440375Y317125D01*
X452250Y305832D02*
X452707Y305375D01*
X434400Y354400D02*
X449372D01*
X432500Y352500D02*
X434400Y354400D01*
X449372D02*
X462180D01*
X466670Y349910D01*
X471045D01*
X450374Y484393D02*
Y495602D01*
Y473183D02*
Y484393D01*
X449750Y496226D02*
X450374Y495602D01*
X447222Y529400D02*
X449372D01*
X437822Y520000D02*
X447222Y529400D01*
X437500Y520000D02*
X437822D01*
X482480Y510000D02*
Y523358D01*
Y503988D02*
Y510000D01*
X440000D02*
X482480D01*
X377900Y422900D02*
X430080Y475080D01*
Y500080D01*
X440000Y510000D01*
X365840Y392505D02*
X418367Y339977D01*
X365840Y392505D02*
Y410840D01*
X377900Y422900D01*
X427500Y375000D02*
X431900Y370600D01*
X430000Y422500D02*
X442764D01*
X405000Y397500D02*
X430000Y422500D01*
X377900Y397500D02*
X405000D01*
X442764Y422500D02*
X460000Y405264D01*
X471045Y375310D02*
X475420D01*
X482480Y382370D01*
Y392838D01*
X476399Y398919D02*
X482480Y392838D01*
X466081Y398919D02*
X476399D01*
X460000Y405000D02*
X466081Y398919D01*
X460000Y405000D02*
Y405264D01*
X475420Y543118D02*
X482480Y550178D01*
X465546Y569751D02*
X473376D01*
X458279Y577018D02*
X465546Y569751D01*
X458279Y577018D02*
Y585233D01*
X471045Y543118D02*
X475420D01*
X482480Y550178D02*
Y560646D01*
X473376Y569751D02*
X482480Y560646D01*
X432500Y592500D02*
X451012D01*
X458279Y585233D01*
X425000Y585000D02*
X432500Y592500D01*
X377900Y448300D02*
X425000Y495400D01*
Y585000D01*
X431900Y370600D02*
X447222D01*
X440374Y377449D02*
Y409502D01*
Y377449D02*
X447222Y370600D01*
X449372D01*
X447222Y545600D02*
X449372D01*
X435600D02*
X447222D01*
X435000Y545000D02*
X435600Y545600D01*
X440374Y552449D02*
Y577311D01*
Y552449D02*
X447222Y545600D01*
X449372D02*
X451522D01*
X459761Y553838D01*
X469065D01*
X471045Y555818D01*
X449372Y370600D02*
X451522D01*
X459610Y378688D01*
Y380950D01*
X466670Y388010D01*
X471045D01*
X482874Y332262D02*
X487560Y336948D01*
Y363170D01*
X473208Y305375D02*
Y306875D01*
X475420Y375310D02*
X487560Y363170D01*
X473208Y306875D02*
X482874Y316541D01*
Y332262D01*
X479928Y342529D02*
X482480Y345082D01*
X475302Y342529D02*
X479928D01*
X482480Y345082D02*
Y355550D01*
X475420Y362610D02*
X482480Y355550D01*
X472750Y339977D02*
X475302Y342529D01*
X472750Y328417D02*
Y339977D01*
X471045Y362610D02*
X475420D01*
X473374Y409502D02*
X475874D01*
X497366Y388010D01*
X525285D01*
X550261Y413544D02*
Y437060D01*
Y413544D02*
X566843D01*
X569250Y415950D01*
X571000D01*
X495166Y441252D02*
X515547D01*
X519739Y437060D01*
Y411033D02*
Y413544D01*
X514229Y405522D02*
X519739Y411033D01*
X505522Y405522D02*
X514229D01*
X505000Y405000D02*
X505522Y405522D01*
X495166Y407480D02*
Y408252D01*
Y407480D02*
X497646Y405000D01*
X505000D01*
X495000Y329000D02*
Y349400D01*
X520910Y375310D01*
X525285D01*
X497480Y324380D02*
X519739D01*
X495000Y326860D02*
X497480Y324380D01*
X495000Y326860D02*
Y329000D01*
X497480Y300380D02*
X519739D01*
X495000Y297900D02*
X497480Y300380D01*
X495000Y296000D02*
Y297900D01*
X550261Y300380D02*
Y324380D01*
X562680D01*
X569250Y330950D01*
X571000D01*
X525285Y362610D02*
X540517D01*
X544807Y366900D01*
X546957D01*
X567100D01*
X569250Y369050D01*
X571000D01*
X525285Y388010D02*
X529660D01*
X534570Y383100D01*
X546957D01*
X475230Y502500D02*
X480992D01*
X482480Y503988D01*
X470250Y497520D02*
X475230Y502500D01*
X470250Y496226D02*
Y497520D01*
X470874Y473183D02*
Y474683D01*
X487560Y491369D01*
Y530978D01*
X475420Y543118D02*
X487560Y530978D01*
X471045Y530418D02*
X475420D01*
X482480Y523358D01*
X495166Y496500D02*
X497500Y498834D01*
Y535000D01*
X505618Y543118D01*
X525285D01*
X510000Y520000D02*
X512282Y517718D01*
X525285D01*
X497646Y492180D02*
X519739D01*
X525285Y555818D02*
X529660D01*
X497366D02*
X525285D01*
X473374Y577311D02*
X475874D01*
X497366Y555818D01*
X495166Y573561D02*
Y576061D01*
Y573561D02*
X497646Y571081D01*
X500146D01*
X500565Y570662D01*
X504338D01*
X505000Y570000D01*
X495166Y576061D02*
Y578561D01*
X497646Y581041D01*
X500146D01*
X500457Y581352D01*
X519739D01*
X495166Y494660D02*
X497646Y492180D01*
X495166Y494660D02*
Y496500D01*
X497646Y468180D02*
X519739D01*
X495166Y465700D02*
X497646Y468180D01*
X495166Y463500D02*
Y465700D01*
X550261Y468180D02*
Y492180D01*
X551491Y490950D01*
X571000D01*
X525285Y530418D02*
X540826D01*
X544807Y534400D01*
X546957D01*
X534878Y550600D02*
X546957D01*
X529660Y555818D02*
X534878Y550600D01*
X546957Y534400D02*
X563900D01*
X569250Y529050D01*
X571000D01*
X497646Y605852D02*
X519739D01*
X495166Y608332D02*
X497646Y605852D01*
X495166Y608332D02*
Y609061D01*
X550261Y581352D02*
Y605852D01*
X558152Y570950D02*
X571000D01*
X550261Y578841D02*
X558152Y570950D01*
X550261Y578841D02*
Y581352D01*
D53*
X610000Y444000D02*
X614500Y439500D01*
X619000Y435000D02*
X623500Y430500D01*
X628000Y426000D02*
X633070Y420930D01*
X665000D01*
X671700Y535000D02*
Y576243D01*
Y617485D01*
Y658728D01*
X711300Y617485D02*
Y658728D01*
Y576243D02*
Y617485D01*
Y535000D02*
Y576243D01*
X710630Y534330D02*
X711300Y535000D01*
X710630Y490630D02*
Y534330D01*
X691730Y471730D02*
X710630Y490630D01*
X665000Y471730D02*
X691730D01*
D54*
X474085Y70250D02*
X474085Y70250D01*
X474085Y70250D02*
X494335Y50000D01*
X474085Y70250D02*
Y213293D01*
X429878Y257500D02*
X474085Y213293D01*
X352500Y222500D02*
X387500Y257500D01*
X429878D01*
X321043Y140000D02*
X352500Y171457D01*
Y222500D01*
X292500Y140000D02*
X321043D01*
X218500Y210250D02*
X222250D01*
X292500Y140000D01*
X610000Y341000D02*
Y350000D01*
Y332000D02*
Y341000D01*
Y256165D02*
Y332000D01*
X567128Y213293D02*
X610000Y256165D01*
X567128Y70250D02*
Y213293D01*
X546878Y50000D02*
X567128Y70250D01*
X494335Y50000D02*
X546878D01*
D55*
X352500Y448300D02*
D03*
D56*
X377900D02*
D03*
X352500Y422900D02*
D03*
Y397500D02*
D03*
X377900Y422900D02*
D03*
Y397500D02*
D03*
D57*
X424085Y213293D02*
D03*
X424085Y70250D02*
D03*
X617128D02*
D03*
X577500Y699043D02*
D03*
X617128Y213293D02*
D03*
X321043Y90000D02*
D03*
D58*
X474085Y213293D02*
D03*
X474085Y70250D02*
D03*
X567128D02*
D03*
X627500Y699043D02*
D03*
X567128Y213293D02*
D03*
D59*
X218500Y210250D02*
D03*
D60*
X143500Y85250D02*
D03*
D61*
X321043Y140000D02*
D03*
D62*
X665000Y471730D02*
D03*
D63*
Y420930D02*
D03*
D64*
X385200Y510000D02*
D03*
D65*
X359800D02*
D03*
D66*
X452500Y442500D02*
D03*
X580000Y435000D02*
D03*
Y445000D02*
D03*
Y455000D02*
D03*
X525000Y340000D02*
D03*
X437500Y485000D02*
D03*
X510000Y350000D02*
D03*
X532500Y505000D02*
D03*
X436016Y296484D02*
D03*
X440000Y340000D02*
D03*
X440188Y317312D02*
D03*
X432500Y352500D02*
D03*
X437661Y520000D02*
D03*
X580000Y425000D02*
D03*
Y580000D02*
D03*
Y590000D02*
D03*
Y600000D02*
D03*
Y610000D02*
D03*
X427500Y375000D02*
D03*
X435000Y545000D02*
D03*
X505000Y405000D02*
D03*
X510000Y520000D02*
D03*
X505000Y570000D02*
D03*
X640000Y497500D02*
D03*
Y507500D02*
D03*
Y517500D02*
D03*
Y527500D02*
D03*
X592000Y608000D02*
D03*
Y590000D02*
D03*
Y572000D02*
D03*
X601000D02*
D03*
X610000D02*
D03*
X619000D02*
D03*
Y581000D02*
D03*
X610000D02*
D03*
X601000D02*
D03*
Y590000D02*
D03*
X610000D02*
D03*
X619000D02*
D03*
Y599000D02*
D03*
X610000D02*
D03*
X601000D02*
D03*
Y608000D02*
D03*
X610000D02*
D03*
X619000D02*
D03*
X592000Y599000D02*
D03*
Y581000D02*
D03*
X592000Y501000D02*
D03*
Y519000D02*
D03*
X619000Y528000D02*
D03*
X610000D02*
D03*
X601000D02*
D03*
Y519000D02*
D03*
X610000D02*
D03*
X619000D02*
D03*
Y510000D02*
D03*
X610000D02*
D03*
X601000D02*
D03*
Y501000D02*
D03*
X610000D02*
D03*
X619000D02*
D03*
Y492000D02*
D03*
X610000D02*
D03*
X601000D02*
D03*
X592000D02*
D03*
Y510000D02*
D03*
Y528000D02*
D03*
Y453000D02*
D03*
Y435000D02*
D03*
Y417000D02*
D03*
X601000D02*
D03*
X610000D02*
D03*
X619000D02*
D03*
Y426000D02*
D03*
X610000D02*
D03*
X601000D02*
D03*
Y435000D02*
D03*
X610000D02*
D03*
X619000D02*
D03*
Y444000D02*
D03*
X610000D02*
D03*
X601000D02*
D03*
Y453000D02*
D03*
X610000D02*
D03*
X619000D02*
D03*
X592000Y444000D02*
D03*
Y426000D02*
D03*
Y341000D02*
D03*
Y359000D02*
D03*
X619000Y368000D02*
D03*
X610000D02*
D03*
X601000D02*
D03*
Y359000D02*
D03*
X610000D02*
D03*
X619000D02*
D03*
Y350000D02*
D03*
X610000D02*
D03*
X601000D02*
D03*
Y341000D02*
D03*
X610000D02*
D03*
X619000D02*
D03*
Y332000D02*
D03*
X610000D02*
D03*
X601000D02*
D03*
X592000D02*
D03*
Y350000D02*
D03*
Y368000D02*
D03*
M02*
