G04*
G04 #@! TF.GenerationSoftware,Altium Limited,Altium Designer,20.1.12 (249)*
G04*
G04 Layer_Color=8421504*
%FSLAX44Y44*%
%MOMM*%
G71*
G04*
G04 #@! TF.SameCoordinates,BAD2E13A-ADEF-41FB-B1CA-1C4B7F66A015*
G04*
G04*
G04 #@! TF.FilePolarity,Positive*
G04*
G01*
G75*
%ADD14R,1.5000X1.5000*%
%ADD15R,1.5000X1.5000*%
%ADD16R,0.7500X0.5000*%
%ADD17R,0.7500X0.4000*%
%ADD18R,1.5000X1.5000*%
%ADD19R,1.5000X1.5000*%
%ADD20R,0.9600X1.3900*%
%ADD21R,1.2500X0.7500*%
%ADD22R,1.5250X0.6500*%
%ADD23R,1.2500X1.5500*%
%ADD24R,0.7500X1.2500*%
%ADD25R,1.3900X0.9600*%
%ADD26R,1.3561X1.8582*%
%ADD27R,1.2500X3.5200*%
D14*
X598000Y581500D02*
D03*
X615000D02*
D03*
D15*
X598000Y598500D02*
D03*
X615000D02*
D03*
D16*
X629050Y570949D02*
D03*
Y583649D02*
D03*
Y596349D02*
D03*
Y609049D02*
D03*
X629050Y529052D02*
D03*
Y516352D02*
D03*
Y503652D02*
D03*
Y490952D02*
D03*
X629050Y415951D02*
D03*
Y428652D02*
D03*
Y441352D02*
D03*
Y454052D02*
D03*
X629050Y369048D02*
D03*
Y356348D02*
D03*
Y343648D02*
D03*
Y330948D02*
D03*
D17*
X570950Y570948D02*
D03*
Y583648D02*
D03*
Y596348D02*
D03*
Y609048D02*
D03*
X570950Y529051D02*
D03*
Y516351D02*
D03*
Y503651D02*
D03*
Y490951D02*
D03*
X570950Y415952D02*
D03*
Y428652D02*
D03*
Y441352D02*
D03*
Y454052D02*
D03*
X570950Y369050D02*
D03*
Y356351D02*
D03*
Y343651D02*
D03*
Y330951D02*
D03*
D18*
X615000Y518500D02*
D03*
X598000D02*
D03*
Y443500D02*
D03*
X615000D02*
D03*
Y358500D02*
D03*
X598000D02*
D03*
D19*
X615000Y501500D02*
D03*
X598000D02*
D03*
Y426500D02*
D03*
X615000D02*
D03*
Y341500D02*
D03*
X598000D02*
D03*
D20*
X638100Y297500D02*
D03*
X621900D02*
D03*
X594400Y632500D02*
D03*
X610600D02*
D03*
D21*
X440374Y577311D02*
D03*
X473374D02*
D03*
Y409502D02*
D03*
X440374D02*
D03*
D22*
X471045Y555818D02*
D03*
Y543118D02*
D03*
Y530418D02*
D03*
Y517718D02*
D03*
X525285D02*
D03*
Y530418D02*
D03*
Y543118D02*
D03*
Y555818D02*
D03*
X471045Y388010D02*
D03*
Y375310D02*
D03*
Y362610D02*
D03*
Y349910D02*
D03*
X525285D02*
D03*
Y362610D02*
D03*
Y375310D02*
D03*
Y388010D02*
D03*
D23*
X450374Y473183D02*
D03*
X470874D02*
D03*
X470250Y496226D02*
D03*
X449750D02*
D03*
X472750Y328417D02*
D03*
X452250D02*
D03*
X452707Y305375D02*
D03*
X473208D02*
D03*
D24*
X495166Y408252D02*
D03*
Y441252D02*
D03*
Y609061D02*
D03*
Y576061D02*
D03*
Y463500D02*
D03*
Y496500D02*
D03*
X495000Y329000D02*
D03*
Y296000D02*
D03*
D25*
X449372Y545600D02*
D03*
Y529400D02*
D03*
X546957Y534400D02*
D03*
Y550600D02*
D03*
X546957Y383100D02*
D03*
Y366900D02*
D03*
X449372Y370600D02*
D03*
Y354400D02*
D03*
D26*
X550261Y605852D02*
D03*
X519739D02*
D03*
X550261Y581352D02*
D03*
X519739D02*
D03*
X550261Y468180D02*
D03*
X519739D02*
D03*
X550261Y492180D02*
D03*
X519739D02*
D03*
X550261Y437060D02*
D03*
X519739D02*
D03*
X550261Y413544D02*
D03*
X519739D02*
D03*
X550261Y300380D02*
D03*
X519739D02*
D03*
X550261Y324380D02*
D03*
X519739D02*
D03*
D27*
X711300Y535000D02*
D03*
X671700D02*
D03*
Y576243D02*
D03*
X711300D02*
D03*
X671700Y617485D02*
D03*
X711300D02*
D03*
X671700Y658728D02*
D03*
X711300D02*
D03*
M02*
