G04*
G04 #@! TF.GenerationSoftware,Altium Limited,Altium Designer,20.1.12 (249)*
G04*
G04 Layer_Color=32768*
%FSLAX44Y44*%
%MOMM*%
G71*
G04*
G04 #@! TF.SameCoordinates,85B36F8B-E135-4E31-A215-2F58F684B550*
G04*
G04*
G04 #@! TF.FilePolarity,Positive*
G04*
G01*
G75*
%ADD12C,0.2000*%
%ADD13C,0.1000*%
%ADD127C,0.0500*%
D12*
X419500Y721292D02*
X450500D01*
X419500D02*
Y737793D01*
X450500D01*
Y721292D02*
Y737793D01*
X82145Y725595D02*
X107707D01*
Y768658D01*
X82145D02*
X107707D01*
X82145Y725595D02*
Y768658D01*
X274031Y731559D02*
Y757121D01*
X230969D02*
X274031D01*
X230969Y731559D02*
Y757121D01*
Y731559D02*
X274031D01*
X249317Y491750D02*
X280317D01*
X249317D02*
Y508250D01*
X280317D01*
Y491750D02*
Y508250D01*
X393250Y485000D02*
Y516000D01*
X376750Y485000D02*
X393250D01*
X376750D02*
Y516000D01*
X393250D01*
X282318Y372750D02*
X313318D01*
X282318D02*
Y389250D01*
X313318D01*
Y372750D02*
Y389250D01*
X298067Y339500D02*
Y370500D01*
X281567Y339500D02*
X298067D01*
X281567D02*
Y370500D01*
X298067D01*
X316068Y339500D02*
Y370500D01*
X299568Y339500D02*
X316068D01*
X299568D02*
Y370500D01*
X316068D01*
X378250Y447000D02*
Y478000D01*
X361750Y447000D02*
X378250D01*
X361750D02*
Y478000D01*
X378250D01*
X382250Y413000D02*
Y444000D01*
X365750Y413000D02*
X382250D01*
X365750D02*
Y444000D01*
X382250D01*
X418250Y413000D02*
Y444000D01*
X401750Y413000D02*
X418250D01*
X401750D02*
Y444000D01*
X418250D01*
X429500Y391750D02*
X460500D01*
Y375250D02*
Y391750D01*
X429500Y375250D02*
X460500D01*
X429500D02*
Y391750D01*
Y373750D02*
X460500D01*
Y357250D02*
Y373750D01*
X429500Y357250D02*
X460500D01*
X429500D02*
Y373750D01*
X282318Y413750D02*
X313318D01*
X282318D02*
Y430250D01*
X313318D01*
Y413750D02*
Y430250D01*
X282318Y431750D02*
X313318D01*
X282318D02*
Y448250D01*
X313318D01*
Y431750D02*
Y448250D01*
X413469Y584719D02*
Y610281D01*
Y584719D02*
X456531D01*
Y610281D01*
X413469D02*
X456531D01*
X461835Y673688D02*
X487397D01*
Y716750D01*
X461835D02*
X487397D01*
X461835Y673688D02*
Y716750D01*
X132292Y725595D02*
X157854D01*
Y768658D01*
X132292D02*
X157854D01*
X132292Y725595D02*
Y768658D01*
X557000Y738250D02*
X588000D01*
Y721750D02*
Y738250D01*
X557000Y721750D02*
X588000D01*
X557000D02*
Y738250D01*
X551306Y681219D02*
Y706781D01*
Y681219D02*
X594368D01*
Y706781D01*
X551306D02*
X594368D01*
X588885Y575145D02*
X614447D01*
Y618208D01*
X588885D02*
X614447D01*
X588885Y575145D02*
Y618208D01*
X597219Y324469D02*
X622781D01*
Y367531D01*
X597219D02*
X622781D01*
X597219Y324469D02*
Y367531D01*
X628750Y339950D02*
X697250D01*
X628750Y280050D02*
Y339950D01*
Y280050D02*
X697250D01*
Y339950D01*
X628750Y599950D02*
X697250D01*
X628750Y540050D02*
Y599950D01*
Y540050D02*
X697250D01*
Y599950D01*
X628750Y409950D02*
X697250D01*
X628750Y350050D02*
Y409950D01*
Y350050D02*
X697250D01*
Y409950D01*
X628750Y669950D02*
X697250D01*
X628750Y610050D02*
Y669950D01*
Y610050D02*
X697250D01*
Y669950D01*
D13*
X462000Y135250D02*
Y269250D01*
Y135250D02*
X538000D01*
Y269250D01*
X462000D02*
X538000D01*
X221292Y388000D02*
Y398000D01*
X216292Y393000D02*
X226292D01*
X128293Y447500D02*
X278293D01*
X128293Y338500D02*
X278293D01*
X128293D02*
Y447500D01*
X278293Y338500D02*
Y447500D01*
X285818Y484000D02*
X295818D01*
X290818Y479000D02*
Y489000D01*
X282318Y466750D02*
Y501250D01*
X299317Y466750D02*
Y501250D01*
X282318Y466750D02*
X299317D01*
X282318Y501250D02*
X299317D01*
X440443Y454458D02*
Y464458D01*
X435443Y459458D02*
X445443D01*
X296606Y606362D02*
Y654622D01*
X316926D01*
Y606362D02*
Y654622D01*
X296606Y606362D02*
X316926D01*
X403000Y457500D02*
Y467500D01*
X398000Y462500D02*
X408000D01*
X445042Y643958D02*
Y653958D01*
X440042Y648958D02*
X450042D01*
X445042Y690000D02*
Y700000D01*
X440042Y695000D02*
X450042D01*
X504190Y690000D02*
Y700000D01*
X499190Y695000D02*
X509190D01*
X567500Y712390D02*
X577500D01*
X572500Y707390D02*
Y717390D01*
X521666Y563676D02*
X531666D01*
X526666Y558676D02*
Y568676D01*
X521666Y543676D02*
X531666D01*
X526666Y538676D02*
Y548676D01*
X530000Y296000D02*
X540000D01*
X535000Y291000D02*
Y301000D01*
X530000Y315000D02*
X540000D01*
X535000Y310000D02*
Y320000D01*
X278500Y-10000D02*
Y290000D01*
X73500Y-10000D02*
X278500D01*
X73500D02*
Y290000D01*
X278500D01*
X-10000Y64043D02*
X90000D01*
Y264042D01*
X-10000D02*
X90000D01*
X-10000Y64043D02*
Y264042D01*
X270000Y-5000D02*
X370000D01*
Y195000D01*
X270000D02*
X370000D01*
X270000Y-5000D02*
Y195000D01*
X407500Y695000D02*
Y705000D01*
X402500Y700000D02*
X412500D01*
D127*
X680000Y200000D02*
G03*
X680000Y200000I-70000J0D01*
G01*
X707161Y743785D02*
G03*
X707161Y743785I-54500J0D01*
G01*
X750000Y70000D02*
G03*
X750000Y70000I-70000J0D01*
G01*
X610000D02*
G03*
X610000Y70000I-70000J0D01*
G01*
X473000Y55000D02*
G03*
X473000Y55000I-55000J0D01*
G01*
X820000Y195000D02*
G03*
X820000Y195000I-70000J0D01*
G01*
X61050Y803200D02*
X498200D01*
X61050Y772450D02*
Y803200D01*
Y772450D02*
X498200D01*
Y803200D01*
X758043Y470000D02*
X768043D01*
X763043Y465000D02*
Y475000D01*
X701042Y407200D02*
Y532800D01*
X825042D01*
Y407200D02*
Y532800D01*
X701042Y407200D02*
X825042D01*
X546916Y619926D02*
Y653427D01*
X496416D02*
X546916D01*
X496416Y619926D02*
Y653427D01*
Y619926D02*
X546916D01*
X111500Y740600D02*
X128500D01*
Y769400D01*
X111500D02*
X128500D01*
X111500Y740600D02*
Y769400D01*
X134400Y489550D02*
X165600D01*
X134400Y446450D02*
Y489550D01*
Y446450D02*
X165600D01*
Y489550D01*
X166400D02*
X197600D01*
X166400Y446450D02*
Y489550D01*
Y446450D02*
X197600D01*
Y489550D01*
X197900D02*
X229100D01*
X197900Y446450D02*
Y489550D01*
Y446450D02*
X229100D01*
Y489550D01*
X555250Y369250D02*
Y402750D01*
X504750D02*
X555250D01*
X504750Y369250D02*
Y402750D01*
Y369250D02*
X555250D01*
X427443Y437957D02*
X453442D01*
X427443Y480957D02*
X453442D01*
X427443Y437957D02*
Y480957D01*
X453442Y437957D02*
Y480957D01*
X57500Y380000D02*
X67500D01*
X62500Y375000D02*
Y385000D01*
X124500Y317200D02*
Y442800D01*
X500Y317200D02*
X124500D01*
X500D02*
Y442800D01*
X124500D01*
X296356Y676492D02*
X325156D01*
Y659492D02*
Y676492D01*
X296356Y659492D02*
X325156D01*
X296356D02*
Y676492D01*
X206314Y588191D02*
X293314D01*
X206314D02*
Y653192D01*
X293314D01*
Y588191D02*
Y653192D01*
X395600Y501000D02*
X424400D01*
X395600D02*
Y518000D01*
X424400D01*
Y501000D02*
Y518000D01*
Y484000D02*
Y501000D01*
X395600D02*
X424400D01*
X395600Y484000D02*
Y501000D01*
Y484000D02*
X424400D01*
X383000Y445000D02*
X423000D01*
X383000Y480000D02*
X423000D01*
Y445000D02*
Y480000D01*
X383000Y445000D02*
Y480000D01*
X282218Y446550D02*
Y487450D01*
X261418Y446550D02*
X282218D01*
X261418D02*
Y487450D01*
X282218D01*
X131400Y337550D02*
X162600D01*
X131400Y294450D02*
Y337550D01*
Y294450D02*
X162600D01*
Y337550D01*
X163218D02*
X194417D01*
X163218Y294450D02*
Y337550D01*
Y294450D02*
X194417D01*
Y337550D01*
X237218Y294450D02*
X268417D01*
Y337550D01*
X237218D02*
X268417D01*
X237218Y294450D02*
Y337550D01*
X268500Y294450D02*
X299700D01*
Y337550D01*
X268500D02*
X299700D01*
X268500Y294450D02*
Y337550D01*
X383500Y413100D02*
Y441900D01*
X400500D01*
Y413100D02*
Y441900D01*
X383500Y413100D02*
X400500D01*
X412600Y392000D02*
X441400D01*
X412600D02*
Y409000D01*
X441400D01*
Y392000D02*
Y409000D01*
X428500Y360100D02*
Y388900D01*
X411500Y360100D02*
X428500D01*
X411500D02*
Y388900D01*
X428500D01*
X412500Y337750D02*
Y412250D01*
X357500Y337750D02*
X412500D01*
X357500D02*
Y412250D01*
X412500D01*
X380600Y321000D02*
X409400D01*
X380600D02*
Y338000D01*
X409400D01*
Y321000D02*
Y338000D01*
X412600Y339000D02*
X441400D01*
X412600D02*
Y356000D01*
X441400D01*
Y339000D02*
Y356000D01*
X425600Y484000D02*
X454400D01*
X425600D02*
Y501000D01*
X454400D01*
Y484000D02*
Y501000D01*
X283417Y396500D02*
X312218D01*
X283417D02*
Y413500D01*
X312218D01*
Y396500D02*
Y413500D01*
X283417Y448000D02*
X312218D01*
X283417D02*
Y465000D01*
X312218D01*
Y448000D02*
Y465000D01*
X229400Y489550D02*
X260600D01*
X229400Y446450D02*
Y489550D01*
Y446450D02*
X260600D01*
Y489550D01*
X61050Y575200D02*
X498200D01*
X61050Y544450D02*
Y575200D01*
Y544450D02*
X498200D01*
Y575200D01*
X400200Y676708D02*
X429000D01*
Y659707D02*
Y676708D01*
X400200Y659707D02*
X429000D01*
X400200D02*
Y676708D01*
X432043Y627458D02*
X458042D01*
X432043Y670458D02*
X458042D01*
X432043Y627458D02*
Y670458D01*
X458042Y627458D02*
Y670458D01*
X432043Y673500D02*
X458042D01*
X432043Y716500D02*
X458042D01*
X432043Y673500D02*
Y716500D01*
X458042Y673500D02*
Y716500D01*
X491190Y673500D02*
X517190D01*
X491190Y716500D02*
X517190D01*
X491190Y673500D02*
Y716500D01*
X517190Y673500D02*
Y716500D01*
X551000Y699390D02*
Y725390D01*
X594000Y699390D02*
Y725390D01*
X551000D02*
X594000D01*
X551000Y699390D02*
X594000D01*
X505166Y550676D02*
Y576676D01*
X548166Y550676D02*
Y576676D01*
X505166D02*
X548166D01*
X505166Y550676D02*
X548166D01*
X505166Y530676D02*
Y556676D01*
X548166Y530676D02*
Y556676D01*
X505166D02*
X548166D01*
X505166Y530676D02*
X548166D01*
X493166Y582276D02*
X510166D01*
Y611077D01*
X493166D02*
X510166D01*
X493166Y582276D02*
Y611077D01*
X539916Y626427D02*
X573416D01*
Y676926D01*
X539916D02*
X573416D01*
X539916Y626427D02*
Y676926D01*
X567666Y669677D02*
X615666D01*
X567666Y647676D02*
Y669677D01*
Y647676D02*
X615666D01*
Y669677D01*
X567666Y647676D02*
X615666D01*
X567666Y625676D02*
Y647676D01*
Y625676D02*
X615666D01*
Y647676D01*
X567666Y574676D02*
X615666D01*
X567666Y552676D02*
Y574676D01*
Y552676D02*
X615666D01*
Y574676D01*
X567666Y552677D02*
X615666D01*
X567666Y530676D02*
Y552677D01*
Y530676D02*
X615666D01*
Y552677D01*
X539916Y576926D02*
X573416D01*
X539916Y526427D02*
Y576926D01*
Y526427D02*
X573416D01*
Y576926D01*
X512416Y629176D02*
X586916D01*
Y574176D02*
Y629176D01*
X512416Y574176D02*
X586916D01*
X512416D02*
Y629176D01*
X548250Y325250D02*
X581750D01*
X548250Y274750D02*
Y325250D01*
Y274750D02*
X581750D01*
Y325250D01*
X513500Y283000D02*
Y309000D01*
X556500Y283000D02*
Y309000D01*
X513500D02*
X556500D01*
X513500Y283000D02*
X556500D01*
X513500Y302000D02*
Y328000D01*
X556500Y302000D02*
Y328000D01*
X513500D02*
X556500D01*
X513500Y302000D02*
X556500D01*
X496500Y337600D02*
X513500D01*
Y366400D01*
X496500D02*
X513500D01*
X496500Y337600D02*
Y366400D01*
X520750Y377500D02*
X595250D01*
Y322500D02*
Y377500D01*
X520750Y322500D02*
X595250D01*
X520750D02*
Y377500D01*
X548250Y375750D02*
X581750D01*
Y426250D01*
X548250D02*
X581750D01*
X548250Y375750D02*
Y426250D01*
X576000Y401000D02*
X624000D01*
Y423000D01*
X576000D02*
X624000D01*
X576000Y401000D02*
Y423000D01*
Y374000D02*
X624000D01*
Y396000D01*
X576000D02*
X624000D01*
X576000Y374000D02*
Y396000D01*
Y323500D02*
X624000D01*
X576000Y301500D02*
Y323500D01*
Y301500D02*
X624000D01*
Y323500D01*
X576000Y301000D02*
X624000D01*
X576000Y279000D02*
Y301000D01*
Y279000D02*
X624000D01*
Y301000D01*
X647661Y743785D02*
X657661D01*
X652661Y738785D02*
Y748785D01*
X720000Y737500D02*
X730000D01*
X725000Y732500D02*
Y742500D01*
X716250Y753500D02*
X733750D01*
X716250Y721500D02*
Y753500D01*
Y721500D02*
X733750D01*
Y753500D01*
X682250Y666243D02*
Y686243D01*
X647750D02*
X682250D01*
X647750Y666243D02*
Y686243D01*
Y666243D02*
X682250D01*
X780050Y663400D02*
Y701600D01*
X724950D02*
X780050D01*
X724950Y663400D02*
Y701600D01*
Y663400D02*
X780050D01*
Y623400D02*
Y661600D01*
X724950D02*
X780050D01*
X724950Y623400D02*
Y661600D01*
Y623400D02*
X780050D01*
Y583400D02*
Y621600D01*
X724950D02*
X780050D01*
X724950Y583400D02*
Y621600D01*
Y583400D02*
X780050D01*
Y543400D02*
Y581600D01*
X724950D02*
X780050D01*
X724950Y543400D02*
Y581600D01*
Y543400D02*
X780050D01*
X755000Y315000D02*
Y325000D01*
X750000Y320000D02*
X760000D01*
X771000Y311250D02*
Y328750D01*
X739000D02*
X771000D01*
X739000Y311250D02*
Y328750D01*
Y311250D02*
X771000D01*
X388000Y717500D02*
X427000D01*
X388000Y682500D02*
X427000D01*
X388000D02*
Y717500D01*
X427000Y682500D02*
Y717500D01*
M02*
