G04*
G04 #@! TF.GenerationSoftware,Altium Limited,Altium Designer,20.1.12 (249)*
G04*
G04 Layer_Color=16711935*
%FSLAX44Y44*%
%MOMM*%
G71*
G04*
G04 #@! TF.SameCoordinates,CC81BD5A-250F-4E5F-800E-8ED098A84927*
G04*
G04*
G04 #@! TF.FilePolarity,Positive*
G04*
G01*
G75*
%ADD10C,0.2000*%
%ADD11C,0.1270*%
%ADD73C,0.1000*%
D10*
X213250Y288000D02*
G03*
X213250Y288000I-1000J0D01*
G01*
X122750Y287500D02*
G03*
X122750Y287500I-1000J0D01*
G01*
X274600Y467000D02*
G03*
X274600Y467000I-1000J0D01*
G01*
X174350D02*
G03*
X174350Y467000I-1000J0D01*
G01*
X177500Y597000D02*
X197500D01*
X177500Y583000D02*
Y597000D01*
Y583000D02*
X197500D01*
Y597000D01*
X236250Y118000D02*
Y132000D01*
X216250Y118000D02*
X236250D01*
X216250D02*
Y132000D01*
X236250D01*
X447000Y371957D02*
X469000D01*
X447000D02*
Y385957D01*
X469000D01*
Y371957D02*
Y385957D01*
X447000Y407000D02*
X469000D01*
Y393000D02*
Y407000D01*
X447000Y393000D02*
X469000D01*
X447000D02*
Y407000D01*
X155000Y583750D02*
Y596250D01*
X135000D02*
X155000D01*
X135000Y583750D02*
Y596250D01*
Y583750D02*
X155000D01*
X164000Y520000D02*
Y536000D01*
X132000D02*
X164000D01*
X132000Y520000D02*
Y536000D01*
Y520000D02*
X164000D01*
X263750Y191084D02*
Y207084D01*
X231750D02*
X263750D01*
X231750Y191084D02*
Y207084D01*
Y191084D02*
X263750D01*
X115750D02*
Y207084D01*
Y191084D02*
X147750D01*
Y207084D01*
X115750D02*
X147750D01*
X266000Y512000D02*
Y528000D01*
X234000D02*
X266000D01*
X234000Y512000D02*
Y528000D01*
Y512000D02*
X266000D01*
X288000Y120000D02*
Y140000D01*
X275500Y120000D02*
X288000D01*
X275500D02*
Y140000D01*
X288000D01*
X181750Y520000D02*
Y540000D01*
X194250D01*
Y520000D02*
Y540000D01*
X181750Y520000D02*
X194250D01*
X220000Y178000D02*
Y198000D01*
X207500Y178000D02*
X220000D01*
X207500D02*
Y198000D01*
X220000D01*
X147750Y131250D02*
X167750D01*
Y118750D02*
Y131250D01*
X147750Y118750D02*
X167750D01*
X147750D02*
Y131250D01*
X260000Y583750D02*
X280000D01*
X260000D02*
Y596250D01*
X280000D01*
Y583750D02*
Y596250D01*
X291250Y520000D02*
Y540000D01*
X278750Y520000D02*
X291250D01*
X278750D02*
Y540000D01*
X291250D01*
X173000Y180000D02*
Y200000D01*
X160500Y180000D02*
X173000D01*
X160500D02*
Y200000D01*
X173000D01*
X247000Y319000D02*
Y351000D01*
X263000D01*
Y319000D02*
Y351000D01*
X247000Y319000D02*
X263000D01*
X207000D02*
Y351000D01*
X223000D01*
Y319000D02*
Y351000D01*
X207000Y319000D02*
X223000D01*
X162000D02*
Y351000D01*
X178000D01*
Y319000D02*
Y351000D01*
X162000Y319000D02*
X178000D01*
X122324D02*
Y351000D01*
X138323D01*
Y319000D02*
Y351000D01*
X122324Y319000D02*
X138323D01*
D11*
X220750Y291500D02*
X253750D01*
Y258500D02*
Y291500D01*
X220750Y258500D02*
X253750D01*
X220750D02*
Y291500D01*
X130250Y291000D02*
X163250D01*
Y258000D02*
Y291000D01*
X130250Y258000D02*
X163250D01*
X130250D02*
Y291000D01*
X265100Y463500D02*
Y496500D01*
X232100D02*
X265100D01*
X232100Y463500D02*
Y496500D01*
Y463500D02*
X265100D01*
X164850D02*
Y496500D01*
X131850D02*
X164850D01*
X131850Y463500D02*
Y496500D01*
Y463500D02*
X164850D01*
D73*
X198792Y680000D02*
G03*
X198792Y680000I-65000J0D01*
G01*
X341835D02*
G03*
X341835Y680000I-65000J0D01*
G01*
X484878D02*
G03*
X484878Y680000I-65000J0D01*
G01*
X627920D02*
G03*
X627920Y680000I-65000J0D01*
G01*
X776500Y379500D02*
G03*
X784000Y387000I0J7500D01*
G01*
Y439000D02*
G03*
X776500Y446500I-7500J0D01*
G01*
X784000Y364000D02*
G03*
X776500Y371500I-7500J0D01*
G01*
Y304500D02*
G03*
X784000Y312000I0J7500D01*
G01*
X47500Y296000D02*
X72500D01*
X47500Y264000D02*
Y296000D01*
Y264000D02*
X72500D01*
Y296000D01*
X391600Y364165D02*
X442400D01*
Y338765D02*
Y364165D01*
X391600Y338765D02*
X442400D01*
X391600D02*
Y364165D01*
X155000Y568000D02*
X164500Y558500D01*
X135500Y568000D02*
X164500D01*
X135500Y552000D02*
Y568000D01*
Y552000D02*
X164500D01*
Y568000D01*
X47500Y454000D02*
Y486000D01*
X72500D01*
Y454000D02*
Y486000D01*
X47500Y454000D02*
X72500D01*
X166750Y165000D02*
X181250D01*
X166750Y143000D02*
X181250D01*
Y165000D01*
X166750Y143000D02*
Y165000D01*
X274500Y189000D02*
X289000D01*
X274500Y211000D02*
X289000D01*
X274500Y189000D02*
Y211000D01*
X289000Y189000D02*
Y211000D01*
X107750Y538000D02*
X122250D01*
X107750Y560000D02*
X122250D01*
X107750Y538000D02*
Y560000D01*
X122250Y538000D02*
Y560000D01*
X207750Y518000D02*
X222250D01*
X207750Y540000D02*
X222250D01*
X207750Y518000D02*
Y540000D01*
X222250Y518000D02*
Y540000D01*
X227250Y152000D02*
Y168000D01*
X256250D01*
Y152000D02*
Y168000D01*
X227250Y152000D02*
X256250D01*
X227250Y161500D02*
X236750Y152000D01*
X117250D02*
Y168000D01*
X146250D01*
Y152000D02*
Y168000D01*
X117250Y152000D02*
X146250D01*
X117250Y161500D02*
X126750Y152000D01*
X264500Y552000D02*
Y568000D01*
X235500Y552000D02*
X264500D01*
X235500D02*
Y568000D01*
X264500D01*
X255000D02*
X264500Y558500D01*
X274370Y372500D02*
Y417500D01*
X242370Y372500D02*
X274370D01*
X242370D02*
Y417500D01*
X274370D01*
X232628Y372500D02*
Y417500D01*
X200628Y372500D02*
X232628D01*
X200628D02*
Y417500D01*
X232628D01*
X191385Y372500D02*
Y417500D01*
X159385Y372500D02*
X191385D01*
X159385D02*
Y417500D01*
X191385D01*
X150142Y372500D02*
Y417500D01*
X118142Y372500D02*
X150142D01*
X118142D02*
Y417500D01*
X150142D01*
X72500Y519000D02*
Y551000D01*
X47500Y519000D02*
X72500D01*
X47500D02*
Y551000D01*
X72500D01*
X47500Y164000D02*
Y196000D01*
X72500D01*
Y164000D02*
Y196000D01*
X47500Y164000D02*
X72500D01*
X488615Y364000D02*
Y396000D01*
X513615D01*
Y364000D02*
Y396000D01*
X488615Y364000D02*
X513615D01*
X522858D02*
Y396000D01*
X547858D01*
Y364000D02*
Y396000D01*
X522858Y364000D02*
X547858D01*
X556000Y294000D02*
Y456000D01*
X754000Y294000D02*
Y456000D01*
X556000D02*
X754000D01*
X556000Y294000D02*
X754000Y294000D01*
Y379500D02*
X776500D01*
X784000Y387000D02*
Y439500D01*
X754000Y446500D02*
X776500D01*
X754000Y371500D02*
X776500D01*
X784000Y312000D02*
Y364500D01*
X754000Y304500D02*
X776500D01*
X169750Y555000D02*
X182250D01*
Y575000D01*
X169750D02*
X182250D01*
X169750Y555000D02*
Y575000D01*
X208500Y164000D02*
X221000D01*
X208500Y144000D02*
Y164000D01*
Y144000D02*
X221000D01*
Y164000D01*
X269750Y555000D02*
X282250D01*
Y575000D01*
X269750D02*
X282250D01*
X269750Y555000D02*
Y575000D01*
X131750Y121208D02*
Y133708D01*
X111750D02*
X131750D01*
X111750Y121208D02*
Y133708D01*
Y121208D02*
X131750D01*
X414308Y372750D02*
Y385250D01*
Y372750D02*
X434308D01*
Y385250D01*
X414308D02*
X434308D01*
X275500Y155000D02*
X288000D01*
Y175000D01*
X275500D02*
X288000D01*
X275500Y155000D02*
Y175000D01*
X108750Y590000D02*
X121250D01*
X108750Y570000D02*
Y590000D01*
Y570000D02*
X121250D01*
Y590000D01*
X150500Y146000D02*
X163000D01*
Y166000D01*
X150500D02*
X163000D01*
X150500Y146000D02*
Y166000D01*
X208750Y570000D02*
X221250D01*
X208750Y550000D02*
Y570000D01*
Y550000D02*
X221250D01*
Y570000D01*
X110000Y314200D02*
Y435800D01*
X-10000D02*
X110000D01*
X-10000Y314200D02*
Y435800D01*
Y314200D02*
X110000D01*
X354600Y432300D02*
X405400D01*
X354600D02*
Y457700D01*
X405400D01*
Y432300D02*
Y457700D01*
X552500Y593792D02*
X677500D01*
X552500Y468792D02*
X677500D01*
Y593792D01*
X552500Y468792D02*
Y593792D01*
M02*
