G04*
G04 #@! TF.GenerationSoftware,Altium Limited,Altium Designer,20.1.12 (249)*
G04*
G04 Layer_Physical_Order=2*
G04 Layer_Color=32768*
%FSLAX44Y44*%
%MOMM*%
G71*
G04*
G04 #@! TF.SameCoordinates,CC81BD5A-250F-4E5F-800E-8ED098A84927*
G04*
G04*
G04 #@! TF.FilePolarity,Negative*
G04*
G01*
G75*
%ADD53C,0.3000*%
%ADD64C,1.0160*%
%ADD65C,2.1160*%
%ADD66C,1.8160*%
%ADD67C,4.2160*%
%ADD68C,3.0160*%
%ADD69C,2.6160*%
%ADD70C,1.3160*%
D53*
X560000Y250000D02*
X749000D01*
X485000Y325000D02*
X560000Y250000D01*
X485000Y325000D02*
Y360000D01*
X476000D02*
X485000D01*
X315000Y0D02*
Y605000D01*
X322000Y612000D01*
X541000D01*
X549000Y604000D01*
Y469000D02*
Y604000D01*
X486000Y406000D02*
X549000Y469000D01*
X486000Y381000D02*
Y406000D01*
X485000Y380000D02*
X486000Y381000D01*
X477000Y380000D02*
X485000D01*
D64*
X-0Y750000D02*
X0Y0D01*
X750000Y-0D01*
X750000Y750000D01*
X-0D02*
X750000D01*
D65*
X429700Y351465D02*
D03*
X367300Y445000D02*
D03*
D66*
X276835Y655000D02*
D03*
X133792D02*
D03*
X419878D02*
D03*
X562920D02*
D03*
D67*
X30000Y720000D02*
D03*
Y30000D02*
D03*
X720000D02*
D03*
Y720000D02*
D03*
D68*
X576000Y413500D02*
D03*
D69*
X90000Y400400D02*
D03*
Y349600D02*
D03*
D70*
X263750Y534250D02*
D03*
X244250Y267250D02*
D03*
X235500D02*
D03*
X244000Y275250D02*
D03*
X235500Y275000D02*
D03*
X243750Y282750D02*
D03*
X235500Y283000D02*
D03*
X153750Y266750D02*
D03*
X145000D02*
D03*
X153500Y274750D02*
D03*
X145000Y274500D02*
D03*
X153250Y282250D02*
D03*
X145000Y282500D02*
D03*
X250350Y472000D02*
D03*
X242100Y472250D02*
D03*
X250350Y480000D02*
D03*
X241850Y479750D02*
D03*
X250350Y487750D02*
D03*
X241600D02*
D03*
X150100Y472000D02*
D03*
X141850Y472250D02*
D03*
X150100Y480000D02*
D03*
X141600Y479750D02*
D03*
X150100Y487750D02*
D03*
X141350D02*
D03*
X80000Y525000D02*
D03*
X90000D02*
D03*
X273000Y348000D02*
D03*
X236000D02*
D03*
X116000Y354000D02*
D03*
X152000Y348000D02*
D03*
X192000Y347000D02*
D03*
X273000Y361000D02*
D03*
X282000Y251000D02*
D03*
X166373Y509445D02*
D03*
X220000Y215000D02*
D03*
X135000Y213000D02*
D03*
X150000Y560000D02*
D03*
X204000Y185000D02*
D03*
X68000Y227000D02*
D03*
X57000D02*
D03*
X46000D02*
D03*
X68000Y244000D02*
D03*
X57000D02*
D03*
X46000D02*
D03*
X247000Y104000D02*
D03*
X291000Y251000D02*
D03*
Y260000D02*
D03*
X267000Y603000D02*
D03*
X492000Y636000D02*
D03*
Y663000D02*
D03*
X348000Y635000D02*
D03*
Y661000D02*
D03*
X204000Y637000D02*
D03*
Y659000D02*
D03*
X216000Y458000D02*
D03*
X207000D02*
D03*
X216000Y467000D02*
D03*
X207000D02*
D03*
X216000Y476000D02*
D03*
X207000D02*
D03*
X198000Y458000D02*
D03*
X189000D02*
D03*
X198000Y467000D02*
D03*
X189000D02*
D03*
X198000Y476000D02*
D03*
X189000D02*
D03*
X207000Y449000D02*
D03*
X198000D02*
D03*
X189000D02*
D03*
X178000D02*
D03*
X167000D02*
D03*
X155000D02*
D03*
X142000D02*
D03*
X129000D02*
D03*
X117000D02*
D03*
X105000D02*
D03*
X92000Y450000D02*
D03*
X242000Y362000D02*
D03*
X231000D02*
D03*
X198000D02*
D03*
X187000D02*
D03*
X153000D02*
D03*
X116000Y363000D02*
D03*
X65000Y505000D02*
D03*
X75000D02*
D03*
X55000D02*
D03*
X45000D02*
D03*
X90000Y515000D02*
D03*
X80000D02*
D03*
X273000Y251000D02*
D03*
X282000Y260000D02*
D03*
X273000D02*
D03*
X291000Y269000D02*
D03*
X282000D02*
D03*
X273000D02*
D03*
X291000Y278000D02*
D03*
X282000D02*
D03*
X273000D02*
D03*
X291000Y287000D02*
D03*
X282000D02*
D03*
X273000D02*
D03*
M02*
