G04*
G04 #@! TF.GenerationSoftware,Altium Limited,Altium Designer,20.1.12 (249)*
G04*
G04 Layer_Physical_Order=3*
G04 Layer_Color=128*
%FSLAX44Y44*%
%MOMM*%
G71*
G04*
G04 #@! TF.SameCoordinates,CC81BD5A-250F-4E5F-800E-8ED098A84927*
G04*
G04*
G04 #@! TF.FilePolarity,Negative*
G04*
G01*
G75*
%ADD53C,0.3000*%
%ADD64C,1.0160*%
%ADD65C,2.1160*%
%ADD67C,4.2160*%
%ADD68C,3.0160*%
%ADD69C,2.6160*%
%ADD70C,1.3160*%
D53*
X560461Y249608D02*
X748392D01*
X485000Y324000D02*
X559000Y250000D01*
X485000Y324000D02*
Y406000D01*
X547000Y468000D01*
Y612000D01*
X315000Y1000D02*
Y225000D01*
X69000Y336000D02*
X112000D01*
X69000D02*
X70000Y337000D01*
X69000Y336000D02*
Y483000D01*
X117000Y531000D01*
X204000D01*
X205000Y530000D01*
Y467000D02*
Y530000D01*
Y467000D02*
X229000Y443000D01*
X238000D01*
X280000Y401000D01*
Y338000D02*
Y401000D01*
X279000Y337000D02*
X280000Y338000D01*
X113000Y337000D02*
X279000D01*
X110000Y225000D02*
X210000D01*
X105000Y220000D02*
X110000Y225000D01*
X105000Y200000D02*
Y220000D01*
X85000Y180000D02*
X105000Y200000D01*
X39000Y180000D02*
X85000D01*
X39000D02*
Y654000D01*
X66000Y681000D01*
X625000D01*
X626000Y682000D01*
Y613000D02*
Y682000D01*
X625000Y612000D02*
X626000Y613000D01*
X322000Y612000D02*
X625000D01*
X315000Y605000D02*
X322000Y612000D01*
X315000Y604000D02*
Y605000D01*
Y225000D02*
Y604000D01*
X210000Y225000D02*
X315000D01*
D64*
X-0Y750000D02*
X0Y0D01*
X750000Y-0D01*
X750000Y750000D01*
X-0D02*
X750000D01*
D65*
X429700Y351465D02*
D03*
X367300Y445000D02*
D03*
D67*
X30000Y720000D02*
D03*
Y30000D02*
D03*
X720000D02*
D03*
Y720000D02*
D03*
D68*
X576000Y413500D02*
D03*
D69*
X90000Y400400D02*
D03*
Y349600D02*
D03*
D70*
X307000Y556000D02*
D03*
Y542000D02*
D03*
X263750Y534250D02*
D03*
X153750Y266750D02*
D03*
X145000D02*
D03*
X153500Y274750D02*
D03*
X145000Y274500D02*
D03*
X153250Y282250D02*
D03*
X145000Y282500D02*
D03*
X250350Y472000D02*
D03*
X242100Y472250D02*
D03*
X250350Y480000D02*
D03*
X241850Y479750D02*
D03*
X250350Y487750D02*
D03*
X241600D02*
D03*
X150100Y472000D02*
D03*
X141850Y472250D02*
D03*
X150100Y480000D02*
D03*
X141600Y479750D02*
D03*
X150100Y487750D02*
D03*
X141350D02*
D03*
X166373Y509445D02*
D03*
X220000Y215000D02*
D03*
X135000Y213000D02*
D03*
X150000Y560000D02*
D03*
X204000Y185000D02*
D03*
X120000Y270000D02*
D03*
X110000D02*
D03*
X100000D02*
D03*
X120000Y285000D02*
D03*
X110000D02*
D03*
X100000D02*
D03*
X247000Y104000D02*
D03*
X267000Y603000D02*
D03*
X305000Y598000D02*
D03*
Y507000D02*
D03*
Y523000D02*
D03*
X286000Y447000D02*
D03*
Y458000D02*
D03*
Y469000D02*
D03*
Y480000D02*
D03*
X305000Y446000D02*
D03*
Y459000D02*
D03*
Y473000D02*
D03*
Y490000D02*
D03*
Y570000D02*
D03*
Y583000D02*
D03*
X216000Y458000D02*
D03*
X207000D02*
D03*
X216000Y467000D02*
D03*
X207000D02*
D03*
X216000Y476000D02*
D03*
X207000D02*
D03*
M02*
