G04*
G04 #@! TF.GenerationSoftware,Altium Limited,Altium Designer,20.1.12 (249)*
G04*
G04 Layer_Color=16711935*
%FSLAX44Y44*%
%MOMM*%
G71*
G04*
G04 #@! TF.SameCoordinates,CC81BD5A-250F-4E5F-800E-8ED098A84927*
G04*
G04*
G04 #@! TF.FilePolarity,Negative*
G04*
G01*
G75*
%ADD40C,1.8032*%
%ADD41R,1.8032X1.8032*%
%ADD42C,1.4032*%
%ADD43R,1.4032X1.4032*%
%ADD44C,0.2000*%
%ADD45R,3.2032X3.2032*%
%ADD46C,3.2032*%
%ADD47R,2.6032X2.6032*%
%ADD48C,2.6032*%
%ADD49C,0.7016*%
%ADD72R,1.2032X1.2032*%
D40*
X429700Y351465D02*
D03*
X367300Y445000D02*
D03*
D41*
X404300Y351465D02*
D03*
X392700Y445000D02*
D03*
D42*
X276835Y705000D02*
D03*
X133792D02*
D03*
X419878D02*
D03*
X562920D02*
D03*
D43*
X276835Y655000D02*
D03*
X133792D02*
D03*
X419878D02*
D03*
X562920D02*
D03*
D44*
X30000Y720000D02*
D03*
Y30000D02*
D03*
X720000D02*
D03*
Y720000D02*
D03*
D45*
X701000Y338500D02*
D03*
D46*
X576000Y413500D02*
D03*
D47*
X90000Y400400D02*
D03*
D48*
Y349600D02*
D03*
D49*
X307000Y556000D02*
D03*
Y542000D02*
D03*
X263750Y534250D02*
D03*
X244250Y267250D02*
D03*
X235500D02*
D03*
X244000Y275250D02*
D03*
X235500Y275000D02*
D03*
X243750Y282750D02*
D03*
X235500Y283000D02*
D03*
X153750Y266750D02*
D03*
X145000D02*
D03*
X153500Y274750D02*
D03*
X145000Y274500D02*
D03*
X153250Y282250D02*
D03*
X145000Y282500D02*
D03*
X250350Y472000D02*
D03*
X242100Y472250D02*
D03*
X250350Y480000D02*
D03*
X241850Y479750D02*
D03*
X250350Y487750D02*
D03*
X241600D02*
D03*
X150100Y472000D02*
D03*
X141850Y472250D02*
D03*
X150100Y480000D02*
D03*
X141600Y479750D02*
D03*
X150100Y487750D02*
D03*
X141350D02*
D03*
X80000Y525000D02*
D03*
X90000D02*
D03*
X273000Y348000D02*
D03*
X236000D02*
D03*
X116000Y354000D02*
D03*
X152000Y348000D02*
D03*
X192000Y347000D02*
D03*
X273000Y361000D02*
D03*
X282000Y251000D02*
D03*
X355000Y380000D02*
D03*
X335000D02*
D03*
X353000Y412000D02*
D03*
X334000D02*
D03*
X166373Y509445D02*
D03*
X220000Y215000D02*
D03*
X135000Y213000D02*
D03*
X150000Y560000D02*
D03*
X204000Y185000D02*
D03*
X132000Y161000D02*
D03*
X603000Y256000D02*
D03*
Y277000D02*
D03*
Y304000D02*
D03*
Y331000D02*
D03*
Y355000D02*
D03*
X153000Y182000D02*
D03*
X120000Y270000D02*
D03*
X110000D02*
D03*
X100000D02*
D03*
X120000Y285000D02*
D03*
X110000D02*
D03*
X100000D02*
D03*
X68000Y227000D02*
D03*
X57000D02*
D03*
X46000D02*
D03*
X68000Y244000D02*
D03*
X57000D02*
D03*
X46000D02*
D03*
X247000Y104000D02*
D03*
X291000Y251000D02*
D03*
Y260000D02*
D03*
X267000Y603000D02*
D03*
X305000Y598000D02*
D03*
Y507000D02*
D03*
Y523000D02*
D03*
X286000Y447000D02*
D03*
Y458000D02*
D03*
Y469000D02*
D03*
Y480000D02*
D03*
X305000Y446000D02*
D03*
Y459000D02*
D03*
Y473000D02*
D03*
Y490000D02*
D03*
Y570000D02*
D03*
Y583000D02*
D03*
X30000Y172000D02*
D03*
Y158000D02*
D03*
X33000Y564000D02*
D03*
Y547000D02*
D03*
X30000Y459000D02*
D03*
Y441000D02*
D03*
X33000Y308000D02*
D03*
Y289000D02*
D03*
X53000Y114000D02*
D03*
X21000D02*
D03*
X294000Y54000D02*
D03*
X271000D02*
D03*
X112000Y55000D02*
D03*
X82000D02*
D03*
X492000Y636000D02*
D03*
Y663000D02*
D03*
X348000Y635000D02*
D03*
Y661000D02*
D03*
X204000Y637000D02*
D03*
Y659000D02*
D03*
X216000Y458000D02*
D03*
X207000D02*
D03*
X216000Y467000D02*
D03*
X207000D02*
D03*
X216000Y476000D02*
D03*
X207000D02*
D03*
X198000Y458000D02*
D03*
X189000D02*
D03*
X198000Y467000D02*
D03*
X189000D02*
D03*
X198000Y476000D02*
D03*
X189000D02*
D03*
X207000Y449000D02*
D03*
X198000D02*
D03*
X189000D02*
D03*
X178000D02*
D03*
X167000D02*
D03*
X155000D02*
D03*
X142000D02*
D03*
X129000D02*
D03*
X117000D02*
D03*
X105000D02*
D03*
X92000Y450000D02*
D03*
X242000Y362000D02*
D03*
X231000D02*
D03*
X198000D02*
D03*
X187000D02*
D03*
X153000D02*
D03*
X116000Y363000D02*
D03*
X65000Y505000D02*
D03*
X75000D02*
D03*
X55000D02*
D03*
X45000D02*
D03*
X90000Y515000D02*
D03*
X80000D02*
D03*
X273000Y251000D02*
D03*
X282000Y260000D02*
D03*
X273000D02*
D03*
X291000Y269000D02*
D03*
X282000D02*
D03*
X273000D02*
D03*
X291000Y278000D02*
D03*
X282000D02*
D03*
X273000D02*
D03*
X291000Y287000D02*
D03*
X282000D02*
D03*
X273000D02*
D03*
D72*
X295000Y548500D02*
D03*
X275000Y540000D02*
D03*
X234000Y216000D02*
D03*
X151000Y510000D02*
D03*
X193000Y178000D02*
D03*
X129000Y563000D02*
D03*
X151000Y219000D02*
D03*
X104000Y147000D02*
D03*
M02*
