M48
;Layer_Color=9474304
;FILE_FORMAT=4:4
METRIC,LZ
;TYPE=PLATED
T1F00S00C0.3000
T2F00S00C0.8000
T3F00S00C1.1000
T4F00S00C1.6000
T5F00S00C2.0000
;TYPE=NON_PLATED
T6F00S00C3.2000
%
T01
X00603Y00256
Y00277
Y00304
Y00331
Y00355
X00355Y0038
X00335
X00334Y00412
X00353
X00273Y00361
Y00348
X00236
X00231Y00362
X00242
X00198
X00187
X00192Y00347
X002355Y00283
Y00275
Y0026725
X0024425
X00244Y0027525
X0024375Y0028275
X00273Y00287
Y00278
Y00269
Y0026
Y00251
X00282
Y0026
X00291
Y00251
Y00269
X00282
Y00278
X00291
Y00287
X00282
X0022Y00215
X00204Y00185
X00247Y00104
X00271Y00054
X00294
X00112Y00055
X00082
X00053Y00114
X00021
X0003Y00158
Y00172
X00046Y00227
X00057
X00068
Y00244
X00057
X00046
X00033Y00289
Y00308
X001Y00285
X0011
X0012
Y0027
X0011
X001
X00145Y0026675
Y002745
Y002825
X0015325Y0028225
X001535Y0027475
X0015375Y0026675
X00135Y00213
X00153Y00182
X00132Y00161
X00152Y00348
X00153Y00362
X00116Y00363
Y00354
X00117Y00449
X00129
X00142
X00155
X00167
X001501Y00472
Y0048
Y0048775
X0014135
X001416Y0047975
X0014185Y0047225
X00105Y00449
X00092Y0045
X0009Y00515
Y00525
X0008
Y00515
X00075Y00505
X00065
X00055
X00045
X00033Y00547
Y00564
X0003Y00459
Y00441
X00166373Y00509445
X0015Y0056
X00189Y00476
Y00467
Y00458
X00198
X00207
X00216
Y00467
Y00476
X00207
Y00467
X00198
Y00476
Y00449
X00207
X00189
X00178
X002421Y0047225
X0024185Y0047975
X002416Y0048775
X0025035
Y0048
Y00472
X00286Y00469
Y00458
Y00447
X00305Y00446
Y00459
Y00473
Y0049
Y00507
Y00523
X00307Y00542
Y00556
X00305Y0057
Y00583
Y00598
X00267Y00603
X0026375Y0053425
X00286Y0048
X00348Y00635
Y00661
X00204Y00659
Y00637
X00492Y00636
Y00663
T02
X00133792Y00655
Y00705
X00276835
Y00655
X00419878
Y00705
X0056292
Y00655
T03
X004043Y00351465
X004297
X003927Y00445
X003673
T04
X0009Y003496
Y004004
T05
X00576Y004135
X00701Y003385
T06
X0072Y0003
X0003
Y0072
X0072
M30
