M48
;Layer_Color=9474304
;FILE_FORMAT=4:4
METRIC,LZ
;TYPE=PLATED
T1F00S00C0.3000
T2F00S00C0.5000
T3F00S00C0.8000
T4F00S00C1.2500
T5F00S00C1.6000
;TYPE=NON_PLATED
T6F00S00C3.2000
%
T01
X00385Y00095
X00405Y0013
Y0018
X00399876Y00285124
X005825Y0021
X0058345Y0016405
X0065Y001175
X006825Y00075
X0068Y001875
X007225Y002025
X007575Y00225
X007525Y001425
X0034Y001475
X0032783Y00175438
X00315Y002425
X002625Y00235
Y002225
Y002125
X0025
Y002225
Y00235
X002375
Y002225
Y0021
Y001975
X00225
Y0021
Y00225
Y00235
X002085Y0021475
X0020875Y0020725
X00209Y0019925
X0020025
Y00207
Y00215
X001875Y001775
X00225Y001825
Y0017
X002375
Y001825
X0027Y00105
X0031Y000975
X0016Y0006
X00112997Y0006377
X0013Y001275
X001075Y0016
X0011525Y0019925
Y00207
Y00215
X001235Y0021475
X0012375Y0020725
X00124Y0019925
X00138419Y00257463
X000625Y001775
X0005
X000375
X000075Y0015
Y0009
Y003225
X0013Y0033
X001425
X00155
X001675
X0018
X00195
X0021
X002225
X002375
X002525
X0027
X002925Y004175
Y004325
Y0045
Y0047
Y004875
Y005025
Y0052
Y005425
Y0056
Y005875
X002775Y00595
X002925Y006125
Y006375
X003325
Y0065
X0035
X003325Y00625
Y0061
Y00595
Y005775
X00345Y004475
X0024175Y00452
Y0046
Y0046775
X00233
X0023325Y0045975
X002335Y0045225
X0022Y004475
X002075
Y004325
X0022
Y004175
X002075
X0019
Y004325
Y004475
X001725
Y004325
Y004175
X001525
Y004325
X0013
Y004175
X001125
Y004325
X00095
Y004175
X000925Y004625
Y004725
Y004825
X00105
Y004725
Y004625
X0008
Y004725
Y004825
X000675
Y004725
Y004625
X00055
Y004725
Y004825
X000425
Y004725
Y004625
X000075Y004775
Y00605
X001625Y00599999
X001575Y00565
X00155Y0049
X0014175Y0046775
Y0046
Y00452
X001335Y0045225
X0013325Y0045975
X00133Y0046775
X0027Y00485
X0038Y004725
X0048705Y00542
X0049905
X0051105
X0052305
X0053505
X0054705
X0055905
Y00554
Y00566
X0054705
Y00554
X0053505
Y00566
X0052305
Y00554
X0051105
Y00566
X0049905
Y00554
X0048705
Y00566
Y00578
X0049905
X0051105
X0052305
X0053505
X0054705
X0055905
X00605Y0055
X00616444Y00536374
X0059695Y00498734
X0058841Y0045341
X00590472Y004196
X00577472
Y004046
X00590472
Y003846
X00577472
X00562472
X00547472
X00532472
X00517472
Y004046
X00532472
X00547472
Y004196
X00532472
X00517472
X00562472
Y004046
Y003646
X00577472
X00590472
Y003496
X00577472
X00562472
X00547472
Y003646
X00532472
Y003496
X00517472
Y003646
X006875Y00475
X0069Y0055
X006725Y0054
X0083Y00705
T02
X00345Y00395
X004325Y004525
T03
X00286872Y00704
X00429915
X00572957Y00705
X00716
Y00755
X00572957
X00429915Y00754
X00286872
T04
X007664Y00025
Y00253
X00741
X007156
X006902
X006648
X006394
X00614
X005886
X005632
X005378
X005124
X00487
X004616
X004362
X004108
X003854
Y00025
X004108
X004362
X004616
X00487
X005124
X005378
X005632
X005886
X00614
X006394
X006648
X006902
X007156
X00741
X0036
Y00253
T05
X00099857Y003121
Y003629
X0075Y003596
Y004104
T06
X0082Y0003
X0003
X0082Y0077
X0003
M30
