G04*
G04 #@! TF.GenerationSoftware,Altium Limited,Altium Designer,20.1.12 (249)*
G04*
G04 Layer_Color=255*
%FSLAX44Y44*%
%MOMM*%
G71*
G04*
G04 #@! TF.SameCoordinates,CC81BD5A-250F-4E5F-800E-8ED098A84927*
G04*
G04*
G04 #@! TF.FilePolarity,Positive*
G04*
G01*
G75*
%ADD13R,1.0000X0.3400*%
%ADD14R,0.8000X1.1000*%
%ADD15R,2.0000X1.1000*%
%ADD16R,2.8200X1.4300*%
%ADD17R,0.9500X1.4500*%
%ADD18R,1.2065X1.5082*%
%ADD19R,0.6000X1.2000*%
%ADD20R,1.4500X1.0500*%
%ADD21R,1.3561X1.8582*%
%ADD22R,1.5082X1.2065*%
%ADD23R,1.9062X1.5046*%
%ADD24R,3.6100X0.8100*%
%ADD25R,3.5200X1.2500*%
%ADD26R,1.3900X0.9600*%
%ADD27R,0.9600X1.3900*%
%ADD28R,5.4000X2.9000*%
%ADD50R,0.3400X2.2900*%
%ADD51R,0.3400X1.6400*%
%ADD55C,1.6000*%
%ADD56R,1.6000X1.6000*%
%ADD57C,1.2000*%
%ADD58R,1.2000X1.2000*%
%ADD59R,3.0000X3.0000*%
%ADD60C,3.0000*%
%ADD61R,2.4000X2.4000*%
%ADD62C,2.4000*%
D13*
X222750Y265250D02*
D03*
X132250Y264750D02*
D03*
X263100Y489750D02*
D03*
X162850D02*
D03*
D14*
X198000Y590000D02*
D03*
X236750Y125000D02*
D03*
D15*
X179000Y590000D02*
D03*
X217750Y125000D02*
D03*
D16*
X60000Y267100D02*
D03*
Y292900D02*
D03*
Y457100D02*
D03*
Y482900D02*
D03*
Y547900D02*
D03*
Y522100D02*
D03*
Y167100D02*
D03*
Y192900D02*
D03*
X501115Y367100D02*
D03*
Y392900D02*
D03*
X535358Y367100D02*
D03*
Y392900D02*
D03*
D17*
X467750Y378957D02*
D03*
X448250D02*
D03*
Y400000D02*
D03*
X467750D02*
D03*
D18*
X134491Y590000D02*
D03*
X155509D02*
D03*
X147241Y125000D02*
D03*
X168259D02*
D03*
X280509Y590000D02*
D03*
X259491D02*
D03*
D19*
X159500Y547500D02*
D03*
X140500D02*
D03*
Y572500D02*
D03*
X150000D02*
D03*
X159500D02*
D03*
X232250Y147500D02*
D03*
X241750D02*
D03*
X251250D02*
D03*
Y172500D02*
D03*
X232250D02*
D03*
X122250Y147500D02*
D03*
X131750D02*
D03*
X141250D02*
D03*
Y172500D02*
D03*
X122250D02*
D03*
X259500Y572500D02*
D03*
X250000D02*
D03*
X240500D02*
D03*
Y547500D02*
D03*
X259500D02*
D03*
D20*
X174000Y163250D02*
D03*
Y144750D02*
D03*
X281750Y190750D02*
D03*
Y209250D02*
D03*
X115000Y539750D02*
D03*
Y558250D02*
D03*
X215000Y519750D02*
D03*
Y538250D02*
D03*
D21*
X132739Y528000D02*
D03*
X163261D02*
D03*
X232489Y199084D02*
D03*
X263011D02*
D03*
X147011D02*
D03*
X116489D02*
D03*
X234739Y520000D02*
D03*
X265261D02*
D03*
D22*
X281750Y140509D02*
D03*
Y119491D02*
D03*
X188000Y519491D02*
D03*
Y540509D02*
D03*
X213750Y198508D02*
D03*
Y177491D02*
D03*
X285000Y540509D02*
D03*
Y519491D02*
D03*
X166750Y200508D02*
D03*
Y179491D02*
D03*
D23*
X255000Y319992D02*
D03*
Y350008D02*
D03*
X215000Y319992D02*
D03*
Y350008D02*
D03*
X170000Y319992D02*
D03*
Y350008D02*
D03*
X130323Y319992D02*
D03*
Y350008D02*
D03*
D24*
X258370Y417500D02*
D03*
Y372500D02*
D03*
D25*
X216628Y414800D02*
D03*
Y375200D02*
D03*
X175385Y414800D02*
D03*
Y375200D02*
D03*
X134143Y414800D02*
D03*
Y375200D02*
D03*
D26*
X176000Y573100D02*
D03*
Y556900D02*
D03*
X214750Y145900D02*
D03*
Y162100D02*
D03*
X276000Y573100D02*
D03*
Y556900D02*
D03*
X281750Y173100D02*
D03*
Y156900D02*
D03*
X115000Y571900D02*
D03*
Y588100D02*
D03*
X156750Y164100D02*
D03*
Y147900D02*
D03*
X215000Y551900D02*
D03*
Y568100D02*
D03*
D27*
X113650Y127458D02*
D03*
X129850D02*
D03*
X432407Y379000D02*
D03*
X416208D02*
D03*
D28*
X615000Y580793D02*
D03*
Y481792D02*
D03*
D50*
X233350Y275000D02*
D03*
X142850Y274500D02*
D03*
X252500Y480000D02*
D03*
X152250D02*
D03*
D51*
X225750Y278250D02*
D03*
X135250Y277750D02*
D03*
X260100Y476750D02*
D03*
X159850D02*
D03*
D55*
X429700Y351465D02*
D03*
X367300Y445000D02*
D03*
D56*
X404300Y351465D02*
D03*
X392700Y445000D02*
D03*
D57*
X276835Y705000D02*
D03*
X133792D02*
D03*
X419878D02*
D03*
X562920D02*
D03*
D58*
X276835Y655000D02*
D03*
X133792D02*
D03*
X419878D02*
D03*
X562920D02*
D03*
D59*
X701000Y338500D02*
D03*
D60*
X576000Y413500D02*
D03*
D61*
X90000Y400400D02*
D03*
D62*
Y349600D02*
D03*
M02*
