G04*
G04 #@! TF.GenerationSoftware,Altium Limited,Altium Designer,20.1.12 (249)*
G04*
G04 Layer_Color=8388736*
%FSLAX44Y44*%
%MOMM*%
G71*
G04*
G04 #@! TF.SameCoordinates,CC81BD5A-250F-4E5F-800E-8ED098A84927*
G04*
G04*
G04 #@! TF.FilePolarity,Negative*
G04*
G01*
G75*
%ADD17R,0.9500X1.4500*%
%ADD18R,1.2065X1.5082*%
%ADD21R,1.3561X1.8582*%
%ADD22R,1.5082X1.2065*%
%ADD23R,1.9062X1.5046*%
%ADD29R,1.2032X0.5432*%
%ADD30R,1.0032X1.3032*%
%ADD31R,2.2032X1.3032*%
%ADD32R,3.0232X1.6332*%
%ADD33R,0.8032X1.4032*%
%ADD34R,1.6532X1.2532*%
%ADD35R,3.8132X1.0132*%
%ADD36R,3.7232X1.4532*%
%ADD37R,1.5932X1.1632*%
%ADD38R,1.1632X1.5932*%
%ADD39R,5.6032X3.1032*%
%ADD40C,1.8032*%
%ADD41R,1.8032X1.8032*%
%ADD42C,1.4032*%
%ADD43R,1.4032X1.4032*%
%ADD44C,0.2000*%
%ADD45R,3.2032X3.2032*%
%ADD46C,3.2032*%
%ADD47R,2.6032X2.6032*%
%ADD48C,2.6032*%
%ADD49C,0.7016*%
G36*
X138250Y268500D02*
X126250D01*
Y274000D01*
X131250D01*
Y275000D01*
X126250D01*
Y280500D01*
X131250D01*
Y281500D01*
X126250D01*
Y287000D01*
X138250D01*
Y268500D01*
D02*
G37*
G36*
X167250Y281500D02*
X159250D01*
Y280500D01*
X167250D01*
Y275000D01*
X159250D01*
Y274000D01*
X167250D01*
Y268500D01*
X159250D01*
Y267500D01*
X167250D01*
Y262000D01*
X140250D01*
Y287000D01*
X167250D01*
Y281500D01*
D02*
G37*
G36*
X228750Y269000D02*
X216750D01*
Y274500D01*
X221750D01*
Y275500D01*
X216750D01*
Y281000D01*
X221750D01*
Y282000D01*
X216750D01*
Y287500D01*
X228750D01*
Y269000D01*
D02*
G37*
G36*
X257750Y282000D02*
X249750D01*
Y281000D01*
X257750D01*
Y275500D01*
X249750D01*
Y274500D01*
X257750D01*
Y269000D01*
X249750D01*
Y268000D01*
X257750D01*
Y262500D01*
X230750D01*
Y287500D01*
X257750D01*
Y282000D01*
D02*
G37*
G36*
X127850Y473000D02*
X135850D01*
Y474000D01*
X127850D01*
Y479500D01*
X135850D01*
Y480500D01*
X127850D01*
Y486000D01*
X135850D01*
Y487000D01*
X127850D01*
Y492500D01*
X154850D01*
Y467500D01*
X127850D01*
Y473000D01*
D02*
G37*
G36*
X156850Y486000D02*
X168850D01*
Y480500D01*
X163850D01*
Y479500D01*
X168850D01*
Y474000D01*
X163850D01*
Y473000D01*
X168850D01*
Y467500D01*
X156850D01*
Y486000D01*
D02*
G37*
G36*
X228100Y473000D02*
X236100D01*
Y474000D01*
X228100D01*
Y479500D01*
X236100D01*
Y480500D01*
X228100D01*
Y486000D01*
X236100D01*
Y487000D01*
X228100D01*
Y492500D01*
X255100D01*
Y467500D01*
X228100D01*
Y473000D01*
D02*
G37*
G36*
X257100Y486000D02*
X269100D01*
Y480500D01*
X264100D01*
Y479500D01*
X269100D01*
Y474000D01*
X264100D01*
Y473000D01*
X269100D01*
Y467500D01*
X257100D01*
Y486000D01*
D02*
G37*
D17*
X467750Y378957D02*
D03*
X448250D02*
D03*
Y400000D02*
D03*
X467750D02*
D03*
D18*
X134491Y590000D02*
D03*
X155509D02*
D03*
X147241Y125000D02*
D03*
X168259D02*
D03*
X280509Y590000D02*
D03*
X259491D02*
D03*
D21*
X132739Y528000D02*
D03*
X163261D02*
D03*
X232489Y199084D02*
D03*
X263011D02*
D03*
X147011D02*
D03*
X116489D02*
D03*
X234739Y520000D02*
D03*
X265261D02*
D03*
D22*
X281750Y140509D02*
D03*
Y119491D02*
D03*
X188000Y519491D02*
D03*
Y540509D02*
D03*
X213750Y198508D02*
D03*
Y177491D02*
D03*
X285000Y540509D02*
D03*
Y519491D02*
D03*
X166750Y200508D02*
D03*
Y179491D02*
D03*
D23*
X255000Y319992D02*
D03*
Y350008D02*
D03*
X215000Y319992D02*
D03*
Y350008D02*
D03*
X170000Y319992D02*
D03*
Y350008D02*
D03*
X130323Y319992D02*
D03*
Y350008D02*
D03*
D29*
X222750Y265250D02*
D03*
X132250Y264750D02*
D03*
X263100Y489750D02*
D03*
X162850D02*
D03*
D30*
X198000Y590000D02*
D03*
X236750Y125000D02*
D03*
D31*
X179000Y590000D02*
D03*
X217750Y125000D02*
D03*
D32*
X60000Y267100D02*
D03*
Y292900D02*
D03*
Y457100D02*
D03*
Y482900D02*
D03*
Y547900D02*
D03*
Y522100D02*
D03*
Y167100D02*
D03*
Y192900D02*
D03*
X501115Y367100D02*
D03*
Y392900D02*
D03*
X535358Y367100D02*
D03*
Y392900D02*
D03*
D33*
X159500Y547500D02*
D03*
X140500D02*
D03*
Y572500D02*
D03*
X150000D02*
D03*
X159500D02*
D03*
X232250Y147500D02*
D03*
X241750D02*
D03*
X251250D02*
D03*
Y172500D02*
D03*
X232250D02*
D03*
X122250Y147500D02*
D03*
X131750D02*
D03*
X141250D02*
D03*
Y172500D02*
D03*
X122250D02*
D03*
X259500Y572500D02*
D03*
X250000D02*
D03*
X240500D02*
D03*
Y547500D02*
D03*
X259500D02*
D03*
D34*
X174000Y163250D02*
D03*
Y144750D02*
D03*
X281750Y190750D02*
D03*
Y209250D02*
D03*
X115000Y539750D02*
D03*
Y558250D02*
D03*
X215000Y519750D02*
D03*
Y538250D02*
D03*
D35*
X258370Y417500D02*
D03*
Y372500D02*
D03*
D36*
X216628Y414800D02*
D03*
Y375200D02*
D03*
X175385Y414800D02*
D03*
Y375200D02*
D03*
X134143Y414800D02*
D03*
Y375200D02*
D03*
D37*
X176000Y573100D02*
D03*
Y556900D02*
D03*
X214750Y145900D02*
D03*
Y162100D02*
D03*
X276000Y573100D02*
D03*
Y556900D02*
D03*
X281750Y173100D02*
D03*
Y156900D02*
D03*
X115000Y571900D02*
D03*
Y588100D02*
D03*
X156750Y164100D02*
D03*
Y147900D02*
D03*
X215000Y551900D02*
D03*
Y568100D02*
D03*
D38*
X113650Y127458D02*
D03*
X129850D02*
D03*
X432407Y379000D02*
D03*
X416208D02*
D03*
D39*
X615000Y580793D02*
D03*
Y481792D02*
D03*
D40*
X429700Y351465D02*
D03*
X367300Y445000D02*
D03*
D41*
X404300Y351465D02*
D03*
X392700Y445000D02*
D03*
D42*
X276835Y705000D02*
D03*
X133792D02*
D03*
X419878D02*
D03*
X562920D02*
D03*
D43*
X276835Y655000D02*
D03*
X133792D02*
D03*
X419878D02*
D03*
X562920D02*
D03*
D44*
X30000Y720000D02*
D03*
Y30000D02*
D03*
X720000D02*
D03*
Y720000D02*
D03*
D45*
X701000Y338500D02*
D03*
D46*
X576000Y413500D02*
D03*
D47*
X90000Y400400D02*
D03*
D48*
Y349600D02*
D03*
D49*
X307000Y556000D02*
D03*
Y542000D02*
D03*
X263750Y534250D02*
D03*
X244250Y267250D02*
D03*
X235500D02*
D03*
X244000Y275250D02*
D03*
X235500Y275000D02*
D03*
X243750Y282750D02*
D03*
X235500Y283000D02*
D03*
X153750Y266750D02*
D03*
X145000D02*
D03*
X153500Y274750D02*
D03*
X145000Y274500D02*
D03*
X153250Y282250D02*
D03*
X145000Y282500D02*
D03*
X250350Y472000D02*
D03*
X242100Y472250D02*
D03*
X250350Y480000D02*
D03*
X241850Y479750D02*
D03*
X250350Y487750D02*
D03*
X241600D02*
D03*
X150100Y472000D02*
D03*
X141850Y472250D02*
D03*
X150100Y480000D02*
D03*
X141600Y479750D02*
D03*
X150100Y487750D02*
D03*
X141350D02*
D03*
X80000Y525000D02*
D03*
X90000D02*
D03*
X273000Y348000D02*
D03*
X236000D02*
D03*
X116000Y354000D02*
D03*
X152000Y348000D02*
D03*
X192000Y347000D02*
D03*
X273000Y361000D02*
D03*
X282000Y251000D02*
D03*
X355000Y380000D02*
D03*
X335000D02*
D03*
X353000Y412000D02*
D03*
X334000D02*
D03*
X166373Y509445D02*
D03*
X220000Y215000D02*
D03*
X135000Y213000D02*
D03*
X150000Y560000D02*
D03*
X204000Y185000D02*
D03*
X132000Y161000D02*
D03*
X603000Y256000D02*
D03*
Y277000D02*
D03*
Y304000D02*
D03*
Y331000D02*
D03*
Y355000D02*
D03*
X153000Y182000D02*
D03*
X120000Y270000D02*
D03*
X110000D02*
D03*
X100000D02*
D03*
X120000Y285000D02*
D03*
X110000D02*
D03*
X100000D02*
D03*
X68000Y227000D02*
D03*
X57000D02*
D03*
X46000D02*
D03*
X68000Y244000D02*
D03*
X57000D02*
D03*
X46000D02*
D03*
X247000Y104000D02*
D03*
X291000Y251000D02*
D03*
Y260000D02*
D03*
X267000Y603000D02*
D03*
X305000Y598000D02*
D03*
Y507000D02*
D03*
Y523000D02*
D03*
X286000Y447000D02*
D03*
Y458000D02*
D03*
Y469000D02*
D03*
Y480000D02*
D03*
X305000Y446000D02*
D03*
Y459000D02*
D03*
Y473000D02*
D03*
Y490000D02*
D03*
Y570000D02*
D03*
Y583000D02*
D03*
X30000Y172000D02*
D03*
Y158000D02*
D03*
X33000Y564000D02*
D03*
Y547000D02*
D03*
X30000Y459000D02*
D03*
Y441000D02*
D03*
X33000Y308000D02*
D03*
Y289000D02*
D03*
X53000Y114000D02*
D03*
X21000D02*
D03*
X294000Y54000D02*
D03*
X271000D02*
D03*
X112000Y55000D02*
D03*
X82000D02*
D03*
X492000Y636000D02*
D03*
Y663000D02*
D03*
X348000Y635000D02*
D03*
Y661000D02*
D03*
X204000Y637000D02*
D03*
Y659000D02*
D03*
X216000Y458000D02*
D03*
X207000D02*
D03*
X216000Y467000D02*
D03*
X207000D02*
D03*
X216000Y476000D02*
D03*
X207000D02*
D03*
X198000Y458000D02*
D03*
X189000D02*
D03*
X198000Y467000D02*
D03*
X189000D02*
D03*
X198000Y476000D02*
D03*
X189000D02*
D03*
X207000Y449000D02*
D03*
X198000D02*
D03*
X189000D02*
D03*
X178000D02*
D03*
X167000D02*
D03*
X155000D02*
D03*
X142000D02*
D03*
X129000D02*
D03*
X117000D02*
D03*
X105000D02*
D03*
X92000Y450000D02*
D03*
X242000Y362000D02*
D03*
X231000D02*
D03*
X198000D02*
D03*
X187000D02*
D03*
X153000D02*
D03*
X116000Y363000D02*
D03*
X65000Y505000D02*
D03*
X75000D02*
D03*
X55000D02*
D03*
X45000D02*
D03*
X90000Y515000D02*
D03*
X80000D02*
D03*
X273000Y251000D02*
D03*
X282000Y260000D02*
D03*
X273000D02*
D03*
X291000Y269000D02*
D03*
X282000D02*
D03*
X273000D02*
D03*
X291000Y278000D02*
D03*
X282000D02*
D03*
X273000D02*
D03*
X291000Y287000D02*
D03*
X282000D02*
D03*
X273000D02*
D03*
M02*
