G04*
G04 #@! TF.GenerationSoftware,Altium Limited,Altium Designer,20.1.12 (249)*
G04*
G04 Layer_Physical_Order=4*
G04 Layer_Color=16711680*
%FSLAX44Y44*%
%MOMM*%
G71*
G04*
G04 #@! TF.SameCoordinates,CC81BD5A-250F-4E5F-800E-8ED098A84927*
G04*
G04*
G04 #@! TF.FilePolarity,Positive*
G04*
G01*
G75*
%ADD52C,0.2540*%
%ADD55C,1.6000*%
%ADD56R,1.6000X1.6000*%
%ADD57C,1.2000*%
%ADD58R,1.2000X1.2000*%
%ADD59R,3.0000X3.0000*%
%ADD60C,3.0000*%
%ADD61R,2.4000X2.4000*%
%ADD62C,2.4000*%
%ADD63C,0.6000*%
%ADD71R,1.0000X1.0000*%
G36*
X708249Y748730D02*
X705865Y747742D01*
X701699Y745190D01*
X697983Y742017D01*
X694810Y738301D01*
X692258Y734135D01*
X690388Y729622D01*
X689247Y724871D01*
X688864Y720000D01*
X689247Y715129D01*
X690388Y710378D01*
X692258Y705865D01*
X694810Y701699D01*
X697983Y697983D01*
X701699Y694810D01*
X705865Y692258D01*
X710378Y690388D01*
X715129Y689247D01*
X720000Y688864D01*
X724871Y689247D01*
X729622Y690388D01*
X734135Y692258D01*
X738301Y694810D01*
X742017Y697983D01*
X745190Y701699D01*
X747742Y705865D01*
X748730Y708249D01*
X750000Y707996D01*
Y252000D01*
X560000D01*
X487000Y325000D01*
Y405000D01*
X552000Y470000D01*
Y612410D01*
X631000D01*
X631991Y612607D01*
X632831Y613169D01*
X633393Y614009D01*
X633590Y615000D01*
Y680000D01*
X633393Y680991D01*
X632831Y681831D01*
X631991Y682393D01*
X631000Y682590D01*
X111000D01*
X110009Y682393D01*
X109169Y681831D01*
X89927Y662590D01*
X40000D01*
X39009Y662393D01*
X38169Y661831D01*
X37607Y660991D01*
X37410Y660000D01*
Y655000D01*
Y180000D01*
X37607Y179009D01*
X38169Y178169D01*
X39009Y177607D01*
X40000Y177410D01*
X79000D01*
X79991Y177607D01*
X80831Y178169D01*
X126073Y223410D01*
X143460D01*
Y219155D01*
X138206D01*
X136720Y218859D01*
X136082Y218433D01*
X135000Y218648D01*
X132838Y218219D01*
X131006Y216994D01*
X129782Y215162D01*
X129352Y213000D01*
X129782Y210838D01*
X131006Y209006D01*
X132838Y207781D01*
X135000Y207351D01*
X137162Y207781D01*
X138994Y209006D01*
X140219Y210838D01*
X140327Y211385D01*
X147270D01*
X147645Y211460D01*
X158540D01*
Y223410D01*
X226460D01*
Y218885D01*
X224067D01*
X223994Y218994D01*
X222162Y220219D01*
X220000Y220648D01*
X217838Y220219D01*
X216006Y218994D01*
X214781Y217162D01*
X214352Y215000D01*
X214781Y212838D01*
X216006Y211006D01*
X217838Y209781D01*
X220000Y209352D01*
X222162Y209781D01*
X223994Y211006D01*
X224067Y211115D01*
X226460D01*
Y208460D01*
X241540D01*
Y223410D01*
X314000D01*
Y176494D01*
X247129Y109623D01*
X247000Y109649D01*
X244838Y109219D01*
X243006Y107994D01*
X241781Y106162D01*
X241352Y104000D01*
X241781Y101838D01*
X243006Y100006D01*
X244838Y98781D01*
X247000Y98351D01*
X249162Y98781D01*
X250994Y100006D01*
X252218Y101838D01*
X252649Y104000D01*
X252623Y104129D01*
X312827Y164333D01*
X314000Y163847D01*
Y0D01*
X313348Y-1000D01*
X39281D01*
X39130Y270D01*
X39622Y388D01*
X44135Y2258D01*
X48301Y4811D01*
X52017Y7983D01*
X55189Y11699D01*
X57742Y15865D01*
X59612Y20378D01*
X60753Y25129D01*
X61136Y30000D01*
X60753Y34871D01*
X59612Y39622D01*
X57742Y44135D01*
X55189Y48301D01*
X52017Y52017D01*
X48301Y55189D01*
X44135Y57742D01*
X39622Y59612D01*
X34871Y60753D01*
X30000Y61136D01*
X25129Y60753D01*
X20378Y59612D01*
X15865Y57742D01*
X11699Y55189D01*
X7983Y52017D01*
X4811Y48301D01*
X2258Y44135D01*
X1270Y41751D01*
X0Y42004D01*
Y707996D01*
X1270Y708249D01*
X2258Y705865D01*
X4811Y701699D01*
X7983Y697983D01*
X11699Y694810D01*
X15865Y692258D01*
X20378Y690388D01*
X25129Y689247D01*
X30000Y688864D01*
X34871Y689247D01*
X39622Y690388D01*
X44135Y692258D01*
X48301Y694810D01*
X52017Y697983D01*
X55189Y701699D01*
X57742Y705865D01*
X59612Y710378D01*
X60753Y715129D01*
X61136Y720000D01*
X60753Y724871D01*
X59612Y729622D01*
X57742Y734135D01*
X55189Y738301D01*
X52017Y742017D01*
X48301Y745190D01*
X44135Y747742D01*
X41751Y748730D01*
X42004Y750000D01*
X707996D01*
X708249Y748730D01*
D02*
G37*
G36*
X631000Y615000D02*
X324000D01*
X320247Y611247D01*
X318747Y612747D01*
X317487Y613589D01*
X316000Y613885D01*
X274000D01*
X272513Y613589D01*
X271253Y612747D01*
X267129Y608623D01*
X267000Y608648D01*
X264838Y608218D01*
X263006Y606994D01*
X261781Y605162D01*
X261352Y603000D01*
X261781Y600838D01*
X263006Y599006D01*
X264838Y597781D01*
X267000Y597351D01*
X269162Y597781D01*
X270994Y599006D01*
X272219Y600838D01*
X272649Y603000D01*
X272623Y603129D01*
X275609Y606115D01*
X313319D01*
X314000Y605000D01*
Y226000D01*
X158540D01*
Y226540D01*
X143460D01*
Y226000D01*
X125000D01*
X79000Y180000D01*
X40000D01*
Y655000D01*
Y660000D01*
X91000D01*
X111000Y680000D01*
X631000D01*
Y615000D01*
D02*
G37*
G36*
X321115Y599391D02*
Y487300D01*
X321411Y485813D01*
X322253Y484553D01*
X357624Y449182D01*
X357031Y447752D01*
X356669Y445000D01*
X357031Y442248D01*
X358093Y439684D01*
X359783Y437483D01*
X361984Y435793D01*
X363415Y435201D01*
Y225909D01*
X318173Y180667D01*
X317000Y181153D01*
Y601847D01*
X318173Y602333D01*
X321115Y599391D01*
D02*
G37*
G36*
X547000Y607000D02*
Y470000D01*
X484000Y407000D01*
Y324000D01*
X559000Y249000D01*
X750000D01*
Y42004D01*
X748730Y41751D01*
X747742Y44135D01*
X745190Y48301D01*
X742017Y52017D01*
X738301Y55189D01*
X734135Y57742D01*
X729622Y59612D01*
X724871Y60753D01*
X720000Y61136D01*
X715129Y60753D01*
X710378Y59612D01*
X705865Y57742D01*
X701699Y55189D01*
X697983Y52017D01*
X694810Y48301D01*
X692258Y44135D01*
X690388Y39622D01*
X689247Y34871D01*
X688864Y30000D01*
X689247Y25129D01*
X690388Y20378D01*
X692258Y15865D01*
X694810Y11699D01*
X697983Y7983D01*
X701699Y4811D01*
X705865Y2258D01*
X710378Y388D01*
X710870Y270D01*
X710719Y-1000D01*
X317652D01*
X317000Y0D01*
Y168506D01*
X370047Y221553D01*
X370889Y222813D01*
X371185Y224300D01*
Y435201D01*
X372616Y435793D01*
X374817Y437483D01*
X376507Y439684D01*
X377569Y442248D01*
X377931Y445000D01*
X377569Y447752D01*
X376507Y450316D01*
X374817Y452517D01*
X372616Y454207D01*
X370051Y455269D01*
X367300Y455631D01*
X364548Y455269D01*
X363118Y454676D01*
X328885Y488909D01*
Y601000D01*
X328589Y602487D01*
X327747Y603747D01*
X322764Y608730D01*
X323290Y610000D01*
X544000D01*
X547000Y607000D01*
D02*
G37*
%LPC*%
G36*
X576000Y431125D02*
X572562Y430786D01*
X569255Y429783D01*
X566208Y428154D01*
X563537Y425962D01*
X561345Y423292D01*
X559717Y420244D01*
X558714Y416938D01*
X558375Y413500D01*
X558714Y410061D01*
X559717Y406755D01*
X561345Y403708D01*
X563537Y401037D01*
X566208Y398845D01*
X569255Y397216D01*
X572562Y396213D01*
X576000Y395875D01*
X579439Y396213D01*
X582745Y397216D01*
X585792Y398845D01*
X588463Y401037D01*
X590654Y403708D01*
X592283Y406755D01*
X593286Y410061D01*
X593625Y413500D01*
X593286Y416938D01*
X592283Y420244D01*
X590654Y423292D01*
X588463Y425962D01*
X585792Y428154D01*
X582745Y429783D01*
X579439Y430786D01*
X576000Y431125D01*
D02*
G37*
G36*
X204000Y190648D02*
X201838Y190219D01*
X200006Y188994D01*
X199490Y188223D01*
X199338D01*
X197851Y187927D01*
X196591Y187085D01*
X195046Y185540D01*
X185460D01*
Y170460D01*
X200540D01*
Y179122D01*
X201810Y179800D01*
X201838Y179781D01*
X204000Y179352D01*
X206162Y179781D01*
X207994Y181006D01*
X209219Y182838D01*
X209648Y185000D01*
X209219Y187162D01*
X207994Y188994D01*
X206162Y190219D01*
X204000Y190648D01*
D02*
G37*
G36*
X136540Y570540D02*
X121460D01*
Y555460D01*
X136540D01*
Y556115D01*
X145933D01*
X146006Y556006D01*
X147838Y554781D01*
X150000Y554352D01*
X152162Y554781D01*
X153994Y556006D01*
X155219Y557838D01*
X155648Y560000D01*
X155219Y562162D01*
X153994Y563994D01*
X152162Y565219D01*
X150000Y565648D01*
X147838Y565219D01*
X146006Y563994D01*
X145933Y563885D01*
X136540D01*
Y570540D01*
D02*
G37*
G36*
X282540Y547540D02*
X267460D01*
Y539781D01*
X266340Y539182D01*
X265912Y539469D01*
X263750Y539898D01*
X261588Y539469D01*
X259756Y538244D01*
X258531Y536412D01*
X258102Y534250D01*
X258531Y532088D01*
X259756Y530256D01*
X261588Y529031D01*
X263750Y528601D01*
X265912Y529031D01*
X267744Y530256D01*
X267817Y530365D01*
X269250D01*
X270737Y530661D01*
X271997Y531503D01*
X272954Y532460D01*
X282540D01*
Y547540D01*
D02*
G37*
G36*
X158540Y517540D02*
X143460D01*
Y502460D01*
X158540D01*
Y505560D01*
X162306D01*
X162379Y505451D01*
X164211Y504226D01*
X166373Y503796D01*
X168535Y504226D01*
X170367Y505451D01*
X171591Y507283D01*
X172021Y509445D01*
X171591Y511606D01*
X170367Y513439D01*
X168535Y514663D01*
X166373Y515093D01*
X164211Y514663D01*
X162379Y513439D01*
X162306Y513329D01*
X158540D01*
Y517540D01*
D02*
G37*
G36*
X305000Y603648D02*
X302838Y603219D01*
X301006Y601994D01*
X299781Y600162D01*
X299352Y598000D01*
X299781Y595838D01*
X301006Y594006D01*
X302838Y592781D01*
X303115Y592726D01*
Y588274D01*
X302838Y588219D01*
X301006Y586994D01*
X299781Y585162D01*
X299352Y583000D01*
X299781Y580838D01*
X301006Y579006D01*
X302838Y577781D01*
X303115Y577726D01*
Y575274D01*
X302838Y575219D01*
X301006Y573994D01*
X299781Y572162D01*
X299352Y570000D01*
X299781Y567838D01*
X301006Y566006D01*
X302838Y564781D01*
X303115Y564726D01*
Y560067D01*
X303006Y559994D01*
X302490Y559223D01*
X301838D01*
X300351Y558927D01*
X299091Y558085D01*
X297046Y556040D01*
X287460D01*
Y540960D01*
X301558D01*
X301781Y539838D01*
X303006Y538006D01*
X303115Y537933D01*
Y528274D01*
X302838Y528219D01*
X301006Y526994D01*
X299781Y525162D01*
X299352Y523000D01*
X299781Y520838D01*
X301006Y519006D01*
X302838Y517781D01*
X303115Y517726D01*
Y512274D01*
X302838Y512219D01*
X301006Y510994D01*
X299781Y509162D01*
X299352Y507000D01*
X299781Y504838D01*
X301006Y503006D01*
X302838Y501781D01*
X305000Y501352D01*
X307162Y501781D01*
X308994Y503006D01*
X310219Y504838D01*
X310253Y505010D01*
X310589Y505513D01*
X310885Y507000D01*
Y523000D01*
Y537933D01*
X310994Y538006D01*
X312219Y539838D01*
X312649Y542000D01*
X312219Y544162D01*
X310994Y545994D01*
X310885Y546067D01*
Y551933D01*
X310994Y552006D01*
X312219Y553838D01*
X312649Y556000D01*
X312219Y558162D01*
X310994Y559994D01*
X310885Y560067D01*
Y570000D01*
Y583000D01*
Y598000D01*
X310589Y599487D01*
X310253Y599990D01*
X310219Y600162D01*
X308994Y601994D01*
X307162Y603219D01*
X305000Y603648D01*
D02*
G37*
G36*
Y495648D02*
X302838Y495219D01*
X301006Y493994D01*
X299781Y492162D01*
X299352Y490000D01*
X299781Y487838D01*
X301006Y486006D01*
X302838Y484781D01*
X305000Y484352D01*
X307162Y484781D01*
X308994Y486006D01*
X310219Y487838D01*
X310648Y490000D01*
X310219Y492162D01*
X308994Y493994D01*
X307162Y495219D01*
X305000Y495648D01*
D02*
G37*
G36*
Y478648D02*
X302838Y478219D01*
X301006Y476994D01*
X299781Y475162D01*
X299352Y473000D01*
X299781Y470838D01*
X301006Y469006D01*
X302838Y467781D01*
X305000Y467351D01*
X307162Y467781D01*
X308994Y469006D01*
X310219Y470838D01*
X310648Y473000D01*
X310219Y475162D01*
X308994Y476994D01*
X307162Y478219D01*
X305000Y478648D01*
D02*
G37*
G36*
Y464649D02*
X302838Y464219D01*
X301006Y462994D01*
X299781Y461162D01*
X299352Y459000D01*
X299781Y456838D01*
X301006Y455006D01*
X302838Y453781D01*
X305000Y453352D01*
X307162Y453781D01*
X308994Y455006D01*
X310219Y456838D01*
X310648Y459000D01*
X310219Y461162D01*
X308994Y462994D01*
X307162Y464219D01*
X305000Y464649D01*
D02*
G37*
G36*
X286000Y485648D02*
X283838Y485219D01*
X282006Y483994D01*
X280781Y482162D01*
X280352Y480000D01*
X280781Y477838D01*
X282006Y476006D01*
X283117Y475264D01*
Y473736D01*
X282006Y472994D01*
X280781Y471162D01*
X280352Y469000D01*
X280781Y466838D01*
X282006Y465006D01*
X283117Y464264D01*
Y462736D01*
X282006Y461994D01*
X280781Y460162D01*
X280352Y458000D01*
X280781Y455838D01*
X282006Y454006D01*
X283117Y453264D01*
Y451736D01*
X282006Y450994D01*
X280781Y449162D01*
X280352Y447000D01*
X280781Y444838D01*
X282006Y443006D01*
X283838Y441781D01*
X286000Y441352D01*
X288162Y441781D01*
X289994Y443006D01*
X291219Y444838D01*
X291649Y447000D01*
X291219Y449162D01*
X289994Y450994D01*
X288883Y451736D01*
Y453264D01*
X289994Y454006D01*
X291219Y455838D01*
X291649Y458000D01*
X291219Y460162D01*
X289994Y461994D01*
X288883Y462736D01*
Y464264D01*
X289994Y465006D01*
X291219Y466838D01*
X291649Y469000D01*
X291219Y471162D01*
X289994Y472994D01*
X288883Y473736D01*
Y475264D01*
X289994Y476006D01*
X291219Y477838D01*
X291649Y480000D01*
X291219Y482162D01*
X289994Y483994D01*
X288162Y485219D01*
X286000Y485648D01*
D02*
G37*
G36*
X305000Y451648D02*
X302838Y451219D01*
X301006Y449994D01*
X299781Y448162D01*
X299352Y446000D01*
X299781Y443838D01*
X301006Y442006D01*
X302838Y440781D01*
X305000Y440351D01*
X307162Y440781D01*
X308994Y442006D01*
X310219Y443838D01*
X310648Y446000D01*
X310219Y448162D01*
X308994Y449994D01*
X307162Y451219D01*
X305000Y451648D01*
D02*
G37*
G36*
X223000Y528590D02*
X180000D01*
X179009Y528393D01*
X178169Y527831D01*
X177607Y526991D01*
X177410Y526000D01*
Y487590D01*
X159000D01*
X158009Y487393D01*
X157169Y486831D01*
X156607Y485991D01*
X156410Y485000D01*
Y462590D01*
X85000D01*
X84009Y462393D01*
X83169Y461831D01*
X82607Y460991D01*
X82410Y460000D01*
Y442000D01*
X82607Y441009D01*
X83169Y440169D01*
X86410Y436927D01*
Y414940D01*
X75460D01*
Y385860D01*
X86410D01*
Y365097D01*
X86415Y365075D01*
X86421Y364968D01*
X86416Y364928D01*
X86226Y363886D01*
X85534Y363488D01*
X82667Y362301D01*
X79630Y359970D01*
X77299Y356933D01*
X75834Y353396D01*
X75334Y349600D01*
X75834Y345804D01*
X77299Y342267D01*
X79630Y339230D01*
X82667Y336899D01*
X86204Y335434D01*
X90000Y334935D01*
X93795Y335434D01*
X94610Y335772D01*
X95493Y335372D01*
X95854Y335009D01*
X96088Y334658D01*
X96300Y334292D01*
X96368Y334240D01*
X96416Y334169D01*
X96766Y333934D01*
X97101Y333677D01*
X97184Y333655D01*
X97256Y333607D01*
X97669Y333525D01*
X98077Y333416D01*
X98162Y333427D01*
X98247Y333410D01*
X280000D01*
X280991Y333607D01*
X281831Y334169D01*
X282393Y335009D01*
X282590Y336000D01*
Y435000D01*
X282393Y435991D01*
X281831Y436831D01*
X257590Y461073D01*
Y500000D01*
X257393Y500991D01*
X256831Y501831D01*
X255991Y502393D01*
X255000Y502590D01*
X231073D01*
X225590Y508073D01*
Y526000D01*
X225393Y526991D01*
X224831Y527831D01*
X223991Y528393D01*
X223000Y528590D01*
D02*
G37*
G36*
X120000Y290648D02*
X117838Y290219D01*
X116006Y288994D01*
X115635Y288439D01*
X114365D01*
X113994Y288994D01*
X112162Y290219D01*
X110000Y290648D01*
X107838Y290219D01*
X106006Y288994D01*
X105635Y288439D01*
X104365D01*
X103994Y288994D01*
X102162Y290219D01*
X100000Y290648D01*
X97838Y290219D01*
X96006Y288994D01*
X94781Y287162D01*
X94352Y285000D01*
X94781Y282838D01*
X96006Y281006D01*
X97838Y279781D01*
X100000Y279352D01*
X102162Y279781D01*
X103994Y281006D01*
X104365Y281561D01*
X105635D01*
X106006Y281006D01*
X107838Y279781D01*
X110000Y279352D01*
X112162Y279781D01*
X113994Y281006D01*
X114365Y281561D01*
X115635D01*
X116006Y281006D01*
X117838Y279781D01*
X120000Y279352D01*
X122162Y279781D01*
X123994Y281006D01*
X125218Y282838D01*
X125648Y285000D01*
X125218Y287162D01*
X123994Y288994D01*
X122162Y290219D01*
X120000Y290648D01*
D02*
G37*
G36*
Y275648D02*
X117838Y275219D01*
X116006Y273994D01*
X115635Y273439D01*
X114365D01*
X113994Y273994D01*
X112162Y275219D01*
X110000Y275648D01*
X107838Y275219D01*
X106006Y273994D01*
X105635Y273439D01*
X104365D01*
X103994Y273994D01*
X102162Y275219D01*
X100000Y275648D01*
X97838Y275219D01*
X96006Y273994D01*
X94781Y272162D01*
X94352Y270000D01*
X94781Y267838D01*
X96006Y266006D01*
X97838Y264781D01*
X100000Y264352D01*
X102162Y264781D01*
X103994Y266006D01*
X104365Y266561D01*
X105635D01*
X106006Y266006D01*
X107838Y264781D01*
X110000Y264352D01*
X112162Y264781D01*
X113994Y266006D01*
X114365Y266561D01*
X115635D01*
X116006Y266006D01*
X117838Y264781D01*
X120000Y264352D01*
X122162Y264781D01*
X123994Y266006D01*
X125218Y267838D01*
X125648Y270000D01*
X125218Y272162D01*
X123994Y273994D01*
X122162Y275219D01*
X120000Y275648D01*
D02*
G37*
G36*
X145000Y288148D02*
X142838Y287719D01*
X141006Y286494D01*
X139781Y284662D01*
X139352Y282500D01*
X139781Y280338D01*
X141006Y278506D01*
Y278494D01*
X139781Y276662D01*
X139352Y274500D01*
X139781Y272338D01*
X140926Y270625D01*
X139781Y268912D01*
X139352Y266750D01*
X139781Y264588D01*
X141006Y262756D01*
X142838Y261531D01*
X145000Y261101D01*
X147162Y261531D01*
X148465Y262402D01*
X149375Y262652D01*
X150285Y262402D01*
X151588Y261531D01*
X153750Y261101D01*
X155912Y261531D01*
X157744Y262756D01*
X158969Y264588D01*
X159398Y266750D01*
X158969Y268912D01*
X157744Y270744D01*
X157566Y270863D01*
X158719Y272588D01*
X159149Y274750D01*
X158719Y276912D01*
X157532Y278687D01*
X158469Y280088D01*
X158898Y282250D01*
X158469Y284412D01*
X157244Y286244D01*
X155412Y287468D01*
X153250Y287899D01*
X151088Y287468D01*
X150246Y286906D01*
X148994Y286494D01*
X148256Y286987D01*
X147162Y287719D01*
X145000Y288148D01*
D02*
G37*
%LPD*%
G36*
X306151Y600779D02*
X307127Y600127D01*
X307968Y598868D01*
X308099Y598551D01*
X308149Y598476D01*
X308295Y597745D01*
Y583000D01*
Y570000D01*
Y560067D01*
X308345Y559817D01*
Y559562D01*
X308442Y559326D01*
X308492Y559076D01*
X308634Y558864D01*
X308731Y558629D01*
X308912Y558448D01*
X309053Y558236D01*
X309055Y558235D01*
X309779Y557151D01*
X310008Y556000D01*
X309779Y554849D01*
X309055Y553765D01*
X309053Y553764D01*
X308912Y553552D01*
X308731Y553372D01*
X308634Y553136D01*
X308492Y552924D01*
X308442Y552674D01*
X308345Y552438D01*
Y552183D01*
X308295Y551933D01*
Y546067D01*
X308345Y545817D01*
Y545562D01*
X308442Y545326D01*
X308492Y545076D01*
X308634Y544864D01*
X308731Y544629D01*
X308912Y544448D01*
X309053Y544236D01*
X309055Y544235D01*
X309779Y543151D01*
X310008Y542000D01*
X309779Y540849D01*
X309055Y539765D01*
X309053Y539764D01*
X308912Y539552D01*
X308731Y539371D01*
X308634Y539136D01*
X308492Y538924D01*
X308442Y538674D01*
X308345Y538438D01*
Y538183D01*
X308295Y537933D01*
Y523000D01*
Y507255D01*
X308149Y506524D01*
X308099Y506449D01*
X308099Y506449D01*
X308099Y506449D01*
Y506449D01*
X307968Y506132D01*
X307127Y504873D01*
X306151Y504221D01*
X305000Y503992D01*
X303849Y504221D01*
X302873Y504873D01*
X302221Y505849D01*
X301992Y507000D01*
X302221Y508151D01*
X302873Y509127D01*
X303957Y509851D01*
X304106Y509881D01*
X304319Y510023D01*
X304554Y510120D01*
X304734Y510301D01*
X304947Y510442D01*
X305088Y510654D01*
X305269Y510835D01*
X305366Y511071D01*
X305508Y511283D01*
X305558Y511533D01*
X305655Y511768D01*
Y512024D01*
X305705Y512274D01*
Y517726D01*
X305655Y517976D01*
Y518232D01*
X305558Y518467D01*
X305508Y518717D01*
X305366Y518929D01*
X305269Y519165D01*
X305088Y519346D01*
X304947Y519558D01*
X304735Y519699D01*
X304554Y519880D01*
X304319Y519977D01*
X304106Y520119D01*
X303957Y520149D01*
X302873Y520873D01*
X302221Y521849D01*
X301992Y523000D01*
X302221Y524151D01*
X302873Y525127D01*
X303957Y525851D01*
X304106Y525881D01*
X304319Y526023D01*
X304554Y526120D01*
X304734Y526301D01*
X304947Y526442D01*
X305088Y526655D01*
X305269Y526835D01*
X305366Y527071D01*
X305508Y527283D01*
X305558Y527533D01*
X305655Y527769D01*
Y528023D01*
X305705Y528274D01*
Y537933D01*
X305655Y538183D01*
Y538438D01*
X305558Y538674D01*
X305508Y538924D01*
X305366Y539136D01*
X305269Y539371D01*
X305088Y539552D01*
X304947Y539764D01*
X304945Y539765D01*
X304221Y540849D01*
X304098Y541465D01*
X304001Y541701D01*
X303951Y541951D01*
X303809Y542163D01*
X303712Y542399D01*
X303531Y542579D01*
X303390Y542791D01*
X303178Y542933D01*
X302997Y543113D01*
X302761Y543211D01*
X302549Y543353D01*
X302299Y543402D01*
X302064Y543500D01*
X301808D01*
X301558Y543550D01*
X290050D01*
Y553450D01*
X297046D01*
X298037Y553647D01*
X298878Y554209D01*
X300742Y556073D01*
X301362Y556487D01*
X302093Y556633D01*
X302490D01*
X302740Y556683D01*
X302996D01*
X303231Y556780D01*
X303481Y556830D01*
X303694Y556972D01*
X303929Y557069D01*
X304109Y557250D01*
X304322Y557391D01*
X304463Y557603D01*
X304644Y557784D01*
X304945Y558235D01*
X304947Y558236D01*
X305088Y558448D01*
X305269Y558629D01*
X305366Y558864D01*
X305508Y559076D01*
X305558Y559326D01*
X305655Y559562D01*
Y559817D01*
X305705Y560067D01*
Y564726D01*
X305655Y564976D01*
Y565232D01*
X305558Y565467D01*
X305508Y565717D01*
X305366Y565929D01*
X305269Y566165D01*
X305088Y566345D01*
X304947Y566558D01*
X304735Y566699D01*
X304554Y566880D01*
X304319Y566977D01*
X304106Y567119D01*
X303957Y567149D01*
X302873Y567873D01*
X302221Y568849D01*
X301992Y570000D01*
X302221Y571151D01*
X302873Y572127D01*
X303957Y572851D01*
X304106Y572881D01*
X304319Y573023D01*
X304554Y573120D01*
X304734Y573301D01*
X304947Y573442D01*
X305088Y573655D01*
X305269Y573835D01*
X305366Y574071D01*
X305508Y574283D01*
X305558Y574533D01*
X305655Y574768D01*
Y575023D01*
X305705Y575274D01*
Y577726D01*
X305655Y577976D01*
Y578232D01*
X305558Y578467D01*
X305508Y578717D01*
X305366Y578929D01*
X305269Y579165D01*
X305088Y579346D01*
X304947Y579558D01*
X304735Y579699D01*
X304554Y579880D01*
X304319Y579977D01*
X304106Y580119D01*
X303957Y580149D01*
X302873Y580873D01*
X302221Y581849D01*
X301992Y583000D01*
X302221Y584151D01*
X302873Y585127D01*
X303957Y585851D01*
X304106Y585881D01*
X304319Y586023D01*
X304554Y586120D01*
X304734Y586301D01*
X304947Y586442D01*
X305088Y586655D01*
X305269Y586835D01*
X305366Y587071D01*
X305508Y587283D01*
X305558Y587533D01*
X305655Y587769D01*
Y588023D01*
X305705Y588274D01*
Y592726D01*
X305655Y592976D01*
Y593232D01*
X305558Y593467D01*
X305508Y593717D01*
X305366Y593929D01*
X305269Y594165D01*
X305088Y594346D01*
X304947Y594558D01*
X304735Y594699D01*
X304554Y594880D01*
X304319Y594977D01*
X304106Y595119D01*
X303957Y595149D01*
X302873Y595873D01*
X302221Y596849D01*
X301992Y598000D01*
X302221Y599151D01*
X302873Y600127D01*
X303849Y600779D01*
X305000Y601008D01*
X306151Y600779D01*
D02*
G37*
G36*
X223000Y507000D02*
X230000Y500000D01*
X255000D01*
Y460000D01*
X280000Y435000D01*
Y336000D01*
X98247D01*
X97816Y337270D01*
X100370Y339230D01*
X102701Y342267D01*
X104166Y345804D01*
X104665Y349600D01*
X104166Y353396D01*
X102701Y356933D01*
X100370Y359970D01*
X97332Y362301D01*
X93795Y363766D01*
X90000Y364266D01*
X89955Y364260D01*
X89000Y365097D01*
Y385860D01*
X104540D01*
Y414940D01*
X89000D01*
Y438000D01*
X85000Y442000D01*
Y460000D01*
X159000D01*
Y485000D01*
X180000D01*
Y526000D01*
X223000D01*
Y507000D01*
D02*
G37*
%LPC*%
G36*
X429700Y362096D02*
X426949Y361734D01*
X424384Y360672D01*
X422183Y358982D01*
X420493Y356780D01*
X419431Y354216D01*
X419069Y351465D01*
X419431Y348713D01*
X420493Y346149D01*
X422183Y343948D01*
X424384Y342258D01*
X426949Y341196D01*
X429700Y340834D01*
X432452Y341196D01*
X435015Y342258D01*
X437217Y343948D01*
X438907Y346149D01*
X439969Y348713D01*
X440331Y351465D01*
X439969Y354216D01*
X438907Y356780D01*
X437217Y358982D01*
X435015Y360672D01*
X432452Y361734D01*
X429700Y362096D01*
D02*
G37*
%LPD*%
D52*
X269250Y534250D02*
X275000Y540000D01*
X263750Y534250D02*
X269250D01*
X151000Y510000D02*
X151555Y509445D01*
X166373D01*
X233000Y215000D02*
X234000Y216000D01*
X220000Y215000D02*
X233000D01*
X147270Y215270D02*
X151000Y219000D01*
X138206Y215270D02*
X147270D01*
X135936Y213000D02*
X138206Y215270D01*
X135000Y213000D02*
X135936D01*
X129000Y563000D02*
X132000Y560000D01*
X150000D01*
X193000Y178000D02*
X199338Y184338D01*
X203338D01*
X204000Y185000D01*
X116000Y161000D02*
X132000D01*
X114000Y159000D02*
X116000Y161000D01*
X114000Y157000D02*
Y159000D01*
X104000Y147000D02*
X114000Y157000D01*
X307000Y583000D02*
Y598000D01*
Y570000D02*
Y583000D01*
Y556000D02*
Y570000D01*
Y507000D02*
Y523000D01*
Y542000D01*
Y556000D01*
X295000Y548500D02*
X301838Y555338D01*
X306338D01*
X307000Y556000D01*
X367300Y224300D02*
Y445000D01*
X247000Y104000D02*
X367300Y224300D01*
X274000Y610000D02*
X316000D01*
X267000Y603000D02*
X274000Y610000D01*
X316000D02*
X325000Y601000D01*
Y487300D02*
Y601000D01*
Y487300D02*
X367300Y445000D01*
D55*
X429700Y351465D02*
D03*
X367300Y445000D02*
D03*
D56*
X404300Y351465D02*
D03*
X392700Y445000D02*
D03*
D57*
X276835Y705000D02*
D03*
X133792D02*
D03*
X419878D02*
D03*
X562920D02*
D03*
D58*
X276835Y655000D02*
D03*
X133792D02*
D03*
X419878D02*
D03*
X562920D02*
D03*
D59*
X701000Y338500D02*
D03*
D60*
X576000Y413500D02*
D03*
D61*
X90000Y400400D02*
D03*
D62*
Y349600D02*
D03*
D63*
X307000Y556000D02*
D03*
Y542000D02*
D03*
X263750Y534250D02*
D03*
X244250Y267250D02*
D03*
X235500D02*
D03*
X244000Y275250D02*
D03*
X235500Y275000D02*
D03*
X243750Y282750D02*
D03*
X235500Y283000D02*
D03*
X153750Y266750D02*
D03*
X145000D02*
D03*
X153500Y274750D02*
D03*
X145000Y274500D02*
D03*
X153250Y282250D02*
D03*
X145000Y282500D02*
D03*
X250350Y472000D02*
D03*
X242100Y472250D02*
D03*
X250350Y480000D02*
D03*
X241850Y479750D02*
D03*
X250350Y487750D02*
D03*
X241600D02*
D03*
X150100Y472000D02*
D03*
X141850Y472250D02*
D03*
X150100Y480000D02*
D03*
X141600Y479750D02*
D03*
X150100Y487750D02*
D03*
X141350D02*
D03*
X80000Y525000D02*
D03*
X90000D02*
D03*
X273000Y348000D02*
D03*
X236000D02*
D03*
X116000Y354000D02*
D03*
X152000Y348000D02*
D03*
X192000Y347000D02*
D03*
X273000Y361000D02*
D03*
X282000Y251000D02*
D03*
X355000Y380000D02*
D03*
X335000D02*
D03*
X353000Y412000D02*
D03*
X334000D02*
D03*
X166373Y509445D02*
D03*
X220000Y215000D02*
D03*
X135000Y213000D02*
D03*
X150000Y560000D02*
D03*
X204000Y185000D02*
D03*
X132000Y161000D02*
D03*
X603000Y256000D02*
D03*
Y277000D02*
D03*
Y304000D02*
D03*
Y331000D02*
D03*
Y355000D02*
D03*
X153000Y182000D02*
D03*
X120000Y270000D02*
D03*
X110000D02*
D03*
X100000D02*
D03*
X120000Y285000D02*
D03*
X110000D02*
D03*
X100000D02*
D03*
X68000Y227000D02*
D03*
X57000D02*
D03*
X46000D02*
D03*
X68000Y244000D02*
D03*
X57000D02*
D03*
X46000D02*
D03*
X247000Y104000D02*
D03*
X291000Y251000D02*
D03*
Y260000D02*
D03*
X267000Y603000D02*
D03*
X305000Y598000D02*
D03*
Y507000D02*
D03*
Y523000D02*
D03*
X286000Y447000D02*
D03*
Y458000D02*
D03*
Y469000D02*
D03*
Y480000D02*
D03*
X305000Y446000D02*
D03*
Y459000D02*
D03*
Y473000D02*
D03*
Y490000D02*
D03*
Y570000D02*
D03*
Y583000D02*
D03*
X30000Y172000D02*
D03*
Y158000D02*
D03*
X33000Y564000D02*
D03*
Y547000D02*
D03*
X30000Y459000D02*
D03*
Y441000D02*
D03*
X33000Y308000D02*
D03*
Y289000D02*
D03*
X53000Y114000D02*
D03*
X21000D02*
D03*
X294000Y54000D02*
D03*
X271000D02*
D03*
X112000Y55000D02*
D03*
X82000D02*
D03*
X492000Y636000D02*
D03*
Y663000D02*
D03*
X348000Y635000D02*
D03*
Y661000D02*
D03*
X204000Y637000D02*
D03*
Y659000D02*
D03*
X216000Y458000D02*
D03*
X207000D02*
D03*
X216000Y467000D02*
D03*
X207000D02*
D03*
X216000Y476000D02*
D03*
X207000D02*
D03*
X198000Y458000D02*
D03*
X189000D02*
D03*
X198000Y467000D02*
D03*
X189000D02*
D03*
X198000Y476000D02*
D03*
X189000D02*
D03*
X207000Y449000D02*
D03*
X198000D02*
D03*
X189000D02*
D03*
X178000D02*
D03*
X167000D02*
D03*
X155000D02*
D03*
X142000D02*
D03*
X129000D02*
D03*
X117000D02*
D03*
X105000D02*
D03*
X92000Y450000D02*
D03*
X242000Y362000D02*
D03*
X231000D02*
D03*
X198000D02*
D03*
X187000D02*
D03*
X153000D02*
D03*
X116000Y363000D02*
D03*
X65000Y505000D02*
D03*
X75000D02*
D03*
X55000D02*
D03*
X45000D02*
D03*
X90000Y515000D02*
D03*
X80000D02*
D03*
X273000Y251000D02*
D03*
X282000Y260000D02*
D03*
X273000D02*
D03*
X291000Y269000D02*
D03*
X282000D02*
D03*
X273000D02*
D03*
X291000Y278000D02*
D03*
X282000D02*
D03*
X273000D02*
D03*
X291000Y287000D02*
D03*
X282000D02*
D03*
X273000D02*
D03*
D71*
X295000Y548500D02*
D03*
X275000Y540000D02*
D03*
X234000Y216000D02*
D03*
X151000Y510000D02*
D03*
X193000Y178000D02*
D03*
X129000Y563000D02*
D03*
X151000Y219000D02*
D03*
X104000Y147000D02*
D03*
M02*
