G04*
G04 #@! TF.GenerationSoftware,Altium Limited,Altium Designer,20.1.12 (249)*
G04*
G04 Layer_Color=16711935*
%FSLAX44Y44*%
%MOMM*%
G71*
G04*
G04 #@! TF.SameCoordinates,2AA84F29-7605-4DC1-95F6-89BBEAF3FCC8*
G04*
G04*
G04 #@! TF.FilePolarity,Positive*
G04*
G01*
G75*
%ADD10C,0.2000*%
G36*
X269043Y227019D02*
X269029D01*
X268994D01*
X268939D01*
X268869Y227026D01*
X268786Y227033D01*
X268696Y227053D01*
X268599Y227074D01*
X268502Y227109D01*
X268495D01*
X268481Y227116D01*
X268460Y227123D01*
X268426Y227137D01*
X268391Y227157D01*
X268342Y227178D01*
X268231Y227234D01*
X268100Y227303D01*
X267954Y227393D01*
X267801Y227497D01*
X267649Y227622D01*
X267642Y227629D01*
X267628Y227636D01*
X267607Y227657D01*
X267573Y227691D01*
X267538Y227726D01*
X267489Y227775D01*
X267434Y227823D01*
X267372Y227885D01*
X267302Y227955D01*
X267233Y228031D01*
X267150Y228114D01*
X267066Y228211D01*
X266976Y228309D01*
X266886Y228419D01*
X266789Y228530D01*
X266685Y228655D01*
X266678Y228669D01*
X266643Y228704D01*
X266602Y228752D01*
X266539Y228822D01*
X266470Y228905D01*
X266387Y229002D01*
X266297Y229113D01*
X266193Y229224D01*
X265978Y229460D01*
X265749Y229688D01*
X265638Y229799D01*
X265527Y229903D01*
X265423Y229993D01*
X265326Y230070D01*
X265319Y230077D01*
X265305Y230084D01*
X265277Y230105D01*
X265243Y230125D01*
X265194Y230160D01*
X265146Y230188D01*
X265021Y230257D01*
X264875Y230326D01*
X264716Y230389D01*
X264549Y230430D01*
X264466Y230437D01*
X264383Y230444D01*
X264376D01*
X264362D01*
X264334D01*
X264307Y230437D01*
X264265D01*
X264216Y230424D01*
X264112Y230403D01*
X263988Y230361D01*
X263856Y230299D01*
X263787Y230264D01*
X263724Y230215D01*
X263662Y230167D01*
X263599Y230105D01*
X263592Y230098D01*
X263585Y230091D01*
X263572Y230070D01*
X263551Y230042D01*
X263523Y230007D01*
X263495Y229966D01*
X263433Y229869D01*
X263377Y229737D01*
X263322Y229591D01*
X263287Y229418D01*
X263273Y229321D01*
Y229168D01*
X263280Y229127D01*
Y229078D01*
X263294Y229023D01*
X263315Y228898D01*
X263357Y228752D01*
X263419Y228600D01*
X263461Y228524D01*
X263502Y228447D01*
X263558Y228378D01*
X263620Y228309D01*
X263627Y228302D01*
X263634Y228295D01*
X263655Y228281D01*
X263682Y228253D01*
X263717Y228232D01*
X263759Y228204D01*
X263807Y228170D01*
X263863Y228142D01*
X263925Y228107D01*
X263995Y228080D01*
X264161Y228024D01*
X264341Y227983D01*
X264445Y227976D01*
X264556Y227969D01*
X264473Y227164D01*
X264459D01*
X264431Y227171D01*
X264390Y227178D01*
X264327Y227185D01*
X264251Y227199D01*
X264161Y227220D01*
X264064Y227241D01*
X263960Y227275D01*
X263856Y227310D01*
X263738Y227352D01*
X263627Y227407D01*
X263516Y227463D01*
X263398Y227532D01*
X263294Y227608D01*
X263190Y227691D01*
X263100Y227789D01*
X263093Y227795D01*
X263079Y227816D01*
X263058Y227844D01*
X263024Y227885D01*
X262989Y227941D01*
X262948Y228010D01*
X262906Y228087D01*
X262857Y228177D01*
X262816Y228274D01*
X262774Y228385D01*
X262733Y228503D01*
X262698Y228634D01*
X262663Y228773D01*
X262642Y228919D01*
X262628Y229078D01*
X262622Y229245D01*
Y229335D01*
X262628Y229397D01*
X262635Y229473D01*
X262649Y229564D01*
X262663Y229668D01*
X262684Y229772D01*
X262712Y229890D01*
X262746Y230007D01*
X262788Y230132D01*
X262836Y230250D01*
X262899Y230375D01*
X262968Y230493D01*
X263045Y230604D01*
X263135Y230708D01*
X263142Y230715D01*
X263155Y230729D01*
X263190Y230756D01*
X263225Y230791D01*
X263273Y230833D01*
X263336Y230881D01*
X263405Y230930D01*
X263488Y230978D01*
X263572Y231027D01*
X263669Y231075D01*
X263773Y231124D01*
X263884Y231165D01*
X264008Y231200D01*
X264133Y231228D01*
X264265Y231242D01*
X264404Y231249D01*
X264411D01*
X264417D01*
X264438D01*
X264466D01*
X264542Y231242D01*
X264639Y231228D01*
X264757Y231207D01*
X264882Y231179D01*
X265021Y231145D01*
X265159Y231089D01*
X265166D01*
X265173Y231082D01*
X265194Y231075D01*
X265222Y231061D01*
X265298Y231020D01*
X265395Y230964D01*
X265513Y230888D01*
X265645Y230798D01*
X265784Y230694D01*
X265936Y230562D01*
X265943Y230555D01*
X265957Y230548D01*
X265978Y230520D01*
X266012Y230493D01*
X266054Y230451D01*
X266103Y230403D01*
X266165Y230347D01*
X266227Y230278D01*
X266304Y230195D01*
X266387Y230105D01*
X266484Y230007D01*
X266581Y229897D01*
X266692Y229779D01*
X266803Y229647D01*
X266928Y229501D01*
X267059Y229349D01*
X267066Y229342D01*
X267087Y229321D01*
X267115Y229279D01*
X267157Y229238D01*
X267205Y229175D01*
X267261Y229113D01*
X267385Y228967D01*
X267517Y228815D01*
X267656Y228669D01*
X267718Y228600D01*
X267774Y228537D01*
X267829Y228482D01*
X267871Y228440D01*
X267878Y228433D01*
X267905Y228406D01*
X267947Y228371D01*
X268002Y228322D01*
X268065Y228267D01*
X268134Y228211D01*
X268287Y228100D01*
Y231256D01*
X269043D01*
Y227019D01*
D02*
G37*
G36*
Y225569D02*
X267711Y224724D01*
X267704Y224717D01*
X267684Y224710D01*
X267656Y224689D01*
X267614Y224661D01*
X267566Y224633D01*
X267510Y224592D01*
X267385Y224509D01*
X267240Y224412D01*
X267094Y224314D01*
X266955Y224210D01*
X266831Y224113D01*
X266824D01*
X266817Y224100D01*
X266782Y224072D01*
X266727Y224030D01*
X266664Y223968D01*
X266595Y223905D01*
X266525Y223829D01*
X266456Y223753D01*
X266408Y223683D01*
X266401Y223676D01*
X266387Y223649D01*
X266366Y223614D01*
X266338Y223566D01*
X266311Y223503D01*
X266283Y223441D01*
X266255Y223371D01*
X266234Y223295D01*
Y223288D01*
X266227Y223267D01*
X266220Y223233D01*
X266213Y223184D01*
Y223115D01*
X266207Y223032D01*
X266200Y222934D01*
Y221846D01*
X269043D01*
Y221000D01*
X262642D01*
Y223975D01*
X262649Y224051D01*
Y224127D01*
X262656Y224217D01*
X262663Y224321D01*
X262684Y224529D01*
X262719Y224744D01*
X262760Y224952D01*
X262788Y225042D01*
X262816Y225133D01*
Y225140D01*
X262823Y225154D01*
X262836Y225174D01*
X262850Y225209D01*
X262892Y225292D01*
X262954Y225389D01*
X263038Y225507D01*
X263149Y225625D01*
X263273Y225743D01*
X263426Y225847D01*
X263433D01*
X263447Y225861D01*
X263468Y225875D01*
X263502Y225889D01*
X263544Y225909D01*
X263592Y225930D01*
X263648Y225958D01*
X263710Y225986D01*
X263856Y226034D01*
X264015Y226076D01*
X264196Y226103D01*
X264390Y226117D01*
X264397D01*
X264417D01*
X264459D01*
X264501Y226110D01*
X264563Y226103D01*
X264632Y226096D01*
X264709Y226083D01*
X264792Y226062D01*
X264972Y226006D01*
X265069Y225972D01*
X265166Y225930D01*
X265264Y225882D01*
X265361Y225819D01*
X265451Y225750D01*
X265541Y225674D01*
X265548Y225667D01*
X265562Y225653D01*
X265583Y225625D01*
X265617Y225590D01*
X265652Y225542D01*
X265693Y225486D01*
X265742Y225417D01*
X265791Y225334D01*
X265839Y225244D01*
X265888Y225147D01*
X265936Y225036D01*
X265985Y224911D01*
X266026Y224779D01*
X266068Y224633D01*
X266103Y224474D01*
X266130Y224307D01*
Y224314D01*
X266137Y224321D01*
X266158Y224363D01*
X266193Y224425D01*
X266234Y224502D01*
X266283Y224585D01*
X266331Y224668D01*
X266394Y224751D01*
X266449Y224821D01*
X266456Y224828D01*
X266463Y224834D01*
X266484Y224855D01*
X266512Y224883D01*
X266546Y224918D01*
X266588Y224959D01*
X266685Y225049D01*
X266810Y225154D01*
X266955Y225271D01*
X267122Y225396D01*
X267302Y225521D01*
X269043Y226630D01*
Y225569D01*
D02*
G37*
G36*
X246086Y231311D02*
X246142D01*
X246218Y231297D01*
X246301Y231283D01*
X246391Y231269D01*
X246495Y231242D01*
X246606Y231207D01*
X246717Y231165D01*
X246835Y231117D01*
X246953Y231054D01*
X247078Y230985D01*
X247196Y230902D01*
X247314Y230812D01*
X247425Y230701D01*
X247432Y230694D01*
X247452Y230673D01*
X247480Y230638D01*
X247515Y230590D01*
X247556Y230534D01*
X247605Y230458D01*
X247660Y230375D01*
X247709Y230278D01*
X247764Y230174D01*
X247820Y230056D01*
X247868Y229931D01*
X247910Y229792D01*
X247945Y229647D01*
X247972Y229494D01*
X247993Y229335D01*
X248000Y229161D01*
Y229127D01*
X247993Y229078D01*
Y229023D01*
X247986Y228946D01*
X247972Y228863D01*
X247959Y228773D01*
X247938Y228669D01*
X247910Y228558D01*
X247875Y228447D01*
X247841Y228329D01*
X247792Y228211D01*
X247730Y228093D01*
X247667Y227983D01*
X247591Y227865D01*
X247501Y227761D01*
X247494Y227754D01*
X247480Y227740D01*
X247452Y227712D01*
X247411Y227671D01*
X247362Y227629D01*
X247300Y227580D01*
X247230Y227532D01*
X247147Y227476D01*
X247064Y227421D01*
X246960Y227365D01*
X246856Y227310D01*
X246738Y227261D01*
X246613Y227220D01*
X246481Y227178D01*
X246343Y227150D01*
X246197Y227130D01*
X246093Y227913D01*
X246100D01*
X246121Y227920D01*
X246156Y227927D01*
X246204Y227941D01*
X246260Y227955D01*
X246322Y227969D01*
X246468Y228017D01*
X246627Y228080D01*
X246787Y228156D01*
X246932Y228253D01*
X246995Y228309D01*
X247057Y228364D01*
Y228371D01*
X247071Y228378D01*
X247085Y228399D01*
X247106Y228419D01*
X247147Y228489D01*
X247203Y228586D01*
X247258Y228704D01*
X247300Y228836D01*
X247334Y228995D01*
X247348Y229161D01*
Y229217D01*
X247341Y229258D01*
X247334Y229300D01*
X247327Y229363D01*
X247300Y229487D01*
X247258Y229640D01*
X247189Y229799D01*
X247140Y229876D01*
X247092Y229952D01*
X247036Y230028D01*
X246967Y230105D01*
X246960Y230111D01*
X246946Y230118D01*
X246925Y230139D01*
X246898Y230167D01*
X246863Y230195D01*
X246814Y230222D01*
X246766Y230257D01*
X246703Y230299D01*
X246565Y230368D01*
X246405Y230423D01*
X246218Y230472D01*
X246121Y230479D01*
X246017Y230486D01*
X246010D01*
X245996D01*
X245961D01*
X245927Y230479D01*
X245878Y230472D01*
X245830Y230465D01*
X245705Y230444D01*
X245559Y230396D01*
X245414Y230333D01*
X245337Y230292D01*
X245268Y230243D01*
X245199Y230188D01*
X245129Y230125D01*
X245122Y230118D01*
X245116Y230111D01*
X245095Y230091D01*
X245074Y230063D01*
X245046Y230028D01*
X245018Y229987D01*
X244949Y229883D01*
X244887Y229751D01*
X244831Y229598D01*
X244790Y229425D01*
X244783Y229328D01*
X244776Y229231D01*
Y229189D01*
X244783Y229141D01*
Y229078D01*
X244797Y228995D01*
X244810Y228905D01*
X244831Y228794D01*
X244859Y228676D01*
X244172Y228759D01*
Y228773D01*
X244179Y228808D01*
X244186Y228849D01*
Y228939D01*
X244179Y228974D01*
Y229023D01*
X244172Y229071D01*
X244152Y229189D01*
X244124Y229328D01*
X244075Y229480D01*
X244013Y229640D01*
X243923Y229792D01*
Y229799D01*
X243909Y229813D01*
X243895Y229827D01*
X243874Y229855D01*
X243812Y229924D01*
X243722Y230000D01*
X243611Y230070D01*
X243472Y230139D01*
X243396Y230167D01*
X243306Y230181D01*
X243216Y230195D01*
X243118Y230201D01*
X243111D01*
X243098D01*
X243077D01*
X243042Y230195D01*
X242966Y230188D01*
X242862Y230167D01*
X242751Y230132D01*
X242633Y230077D01*
X242508Y230000D01*
X242453Y229959D01*
X242397Y229903D01*
X242383Y229890D01*
X242356Y229848D01*
X242307Y229785D01*
X242252Y229702D01*
X242203Y229591D01*
X242155Y229460D01*
X242127Y229314D01*
X242113Y229147D01*
Y229106D01*
X242120Y229071D01*
Y229030D01*
X242127Y228988D01*
X242148Y228877D01*
X242182Y228759D01*
X242238Y228627D01*
X242307Y228503D01*
X242404Y228378D01*
X242418Y228364D01*
X242460Y228329D01*
X242522Y228274D01*
X242619Y228218D01*
X242737Y228149D01*
X242890Y228087D01*
X243063Y228031D01*
X243264Y227990D01*
X243125Y227206D01*
X243118D01*
X243091Y227213D01*
X243049Y227220D01*
X242994Y227234D01*
X242931Y227255D01*
X242855Y227275D01*
X242772Y227303D01*
X242682Y227338D01*
X242481Y227428D01*
X242383Y227476D01*
X242279Y227539D01*
X242182Y227608D01*
X242085Y227684D01*
X241988Y227768D01*
X241905Y227858D01*
X241898Y227865D01*
X241884Y227879D01*
X241863Y227913D01*
X241836Y227948D01*
X241801Y228003D01*
X241766Y228059D01*
X241725Y228128D01*
X241683Y228211D01*
X241648Y228295D01*
X241607Y228392D01*
X241572Y228496D01*
X241537Y228607D01*
X241510Y228731D01*
X241489Y228856D01*
X241475Y228988D01*
X241468Y229127D01*
Y229217D01*
X241475Y229265D01*
X241482Y229314D01*
X241496Y229446D01*
X241523Y229591D01*
X241565Y229758D01*
X241621Y229924D01*
X241697Y230091D01*
Y230098D01*
X241704Y230111D01*
X241718Y230132D01*
X241738Y230167D01*
X241787Y230243D01*
X241856Y230340D01*
X241947Y230451D01*
X242050Y230562D01*
X242168Y230673D01*
X242307Y230770D01*
X242314D01*
X242321Y230777D01*
X242349Y230791D01*
X242376Y230805D01*
X242411Y230826D01*
X242453Y230846D01*
X242557Y230888D01*
X242682Y230930D01*
X242820Y230971D01*
X242973Y230999D01*
X243132Y231006D01*
X243139D01*
X243153D01*
X243174D01*
X243202D01*
X243285Y230992D01*
X243382Y230978D01*
X243500Y230950D01*
X243625Y230909D01*
X243756Y230853D01*
X243888Y230777D01*
X243895D01*
X243902Y230770D01*
X243944Y230735D01*
X244006Y230687D01*
X244082Y230611D01*
X244172Y230520D01*
X244263Y230403D01*
X244346Y230271D01*
X244429Y230118D01*
Y230125D01*
X244436Y230146D01*
X244443Y230174D01*
X244457Y230215D01*
X244471Y230257D01*
X244491Y230312D01*
X244547Y230444D01*
X244623Y230583D01*
X244713Y230728D01*
X244831Y230874D01*
X244977Y230999D01*
X244984Y231006D01*
X244998Y231013D01*
X245018Y231027D01*
X245053Y231047D01*
X245088Y231075D01*
X245136Y231103D01*
X245192Y231131D01*
X245261Y231159D01*
X245330Y231186D01*
X245407Y231214D01*
X245580Y231269D01*
X245781Y231304D01*
X245892Y231318D01*
X246003D01*
X246010D01*
X246038D01*
X246086Y231311D01*
D02*
G37*
G36*
X247889Y225569D02*
X246558Y224723D01*
X246551Y224717D01*
X246530Y224710D01*
X246502Y224689D01*
X246461Y224661D01*
X246412Y224633D01*
X246357Y224592D01*
X246232Y224509D01*
X246086Y224412D01*
X245941Y224314D01*
X245802Y224210D01*
X245677Y224113D01*
X245670D01*
X245663Y224100D01*
X245629Y224072D01*
X245573Y224030D01*
X245511Y223968D01*
X245441Y223905D01*
X245372Y223829D01*
X245303Y223753D01*
X245254Y223683D01*
X245247Y223676D01*
X245233Y223649D01*
X245212Y223614D01*
X245185Y223566D01*
X245157Y223503D01*
X245129Y223441D01*
X245102Y223371D01*
X245081Y223295D01*
Y223288D01*
X245074Y223267D01*
X245067Y223233D01*
X245060Y223184D01*
Y223115D01*
X245053Y223032D01*
X245046Y222934D01*
Y221846D01*
X247889D01*
Y221000D01*
X241489D01*
Y223975D01*
X241496Y224051D01*
Y224127D01*
X241503Y224217D01*
X241510Y224321D01*
X241530Y224529D01*
X241565Y224744D01*
X241607Y224952D01*
X241635Y225042D01*
X241662Y225133D01*
Y225140D01*
X241669Y225153D01*
X241683Y225174D01*
X241697Y225209D01*
X241738Y225292D01*
X241801Y225389D01*
X241884Y225507D01*
X241995Y225625D01*
X242120Y225743D01*
X242272Y225847D01*
X242279D01*
X242293Y225861D01*
X242314Y225875D01*
X242349Y225889D01*
X242390Y225909D01*
X242439Y225930D01*
X242494Y225958D01*
X242557Y225986D01*
X242702Y226034D01*
X242862Y226076D01*
X243042Y226103D01*
X243236Y226117D01*
X243243D01*
X243264D01*
X243306D01*
X243347Y226110D01*
X243410Y226103D01*
X243479Y226096D01*
X243555Y226083D01*
X243638Y226062D01*
X243819Y226006D01*
X243916Y225972D01*
X244013Y225930D01*
X244110Y225882D01*
X244207Y225819D01*
X244297Y225750D01*
X244387Y225674D01*
X244394Y225667D01*
X244408Y225653D01*
X244429Y225625D01*
X244464Y225590D01*
X244498Y225542D01*
X244540Y225486D01*
X244589Y225417D01*
X244637Y225334D01*
X244685Y225244D01*
X244734Y225147D01*
X244783Y225036D01*
X244831Y224911D01*
X244873Y224779D01*
X244914Y224633D01*
X244949Y224474D01*
X244977Y224307D01*
Y224314D01*
X244984Y224321D01*
X245005Y224363D01*
X245039Y224425D01*
X245081Y224502D01*
X245129Y224585D01*
X245178Y224668D01*
X245240Y224751D01*
X245296Y224821D01*
X245303Y224827D01*
X245310Y224834D01*
X245330Y224855D01*
X245358Y224883D01*
X245393Y224918D01*
X245434Y224959D01*
X245532Y225049D01*
X245656Y225153D01*
X245802Y225271D01*
X245968Y225396D01*
X246149Y225521D01*
X247889Y226630D01*
Y225569D01*
D02*
G37*
G36*
X262000Y108222D02*
X259025D01*
X258949Y108229D01*
X258873D01*
X258783Y108236D01*
X258679Y108243D01*
X258471Y108264D01*
X258256Y108299D01*
X258048Y108340D01*
X257957Y108368D01*
X257867Y108396D01*
X257860D01*
X257847Y108403D01*
X257826Y108416D01*
X257791Y108430D01*
X257708Y108472D01*
X257611Y108534D01*
X257493Y108617D01*
X257375Y108728D01*
X257257Y108853D01*
X257153Y109006D01*
Y109013D01*
X257139Y109027D01*
X257125Y109047D01*
X257111Y109082D01*
X257091Y109124D01*
X257070Y109172D01*
X257042Y109228D01*
X257014Y109290D01*
X256966Y109436D01*
X256924Y109595D01*
X256896Y109775D01*
X256883Y109970D01*
Y109977D01*
Y109997D01*
Y110039D01*
X256890Y110081D01*
X256896Y110143D01*
X256903Y110212D01*
X256917Y110289D01*
X256938Y110372D01*
X256994Y110552D01*
X257028Y110649D01*
X257070Y110746D01*
X257118Y110843D01*
X257181Y110940D01*
X257250Y111031D01*
X257326Y111121D01*
X257333Y111128D01*
X257347Y111142D01*
X257375Y111162D01*
X257410Y111197D01*
X257458Y111232D01*
X257514Y111273D01*
X257583Y111322D01*
X257666Y111370D01*
X257756Y111419D01*
X257853Y111467D01*
X257964Y111516D01*
X258089Y111565D01*
X258221Y111606D01*
X258367Y111648D01*
X258526Y111682D01*
X258692Y111710D01*
X258685D01*
X258679Y111717D01*
X258637Y111738D01*
X258575Y111772D01*
X258498Y111814D01*
X258415Y111863D01*
X258332Y111911D01*
X258249Y111974D01*
X258179Y112029D01*
X258172Y112036D01*
X258165Y112043D01*
X258145Y112064D01*
X258117Y112092D01*
X258082Y112126D01*
X258041Y112168D01*
X257950Y112265D01*
X257847Y112390D01*
X257729Y112535D01*
X257604Y112702D01*
X257479Y112882D01*
X256369Y114622D01*
X257430D01*
X258276Y113291D01*
X258283Y113284D01*
X258290Y113263D01*
X258311Y113236D01*
X258339Y113194D01*
X258367Y113146D01*
X258408Y113090D01*
X258491Y112965D01*
X258588Y112820D01*
X258685Y112674D01*
X258790Y112535D01*
X258887Y112410D01*
Y112404D01*
X258901Y112397D01*
X258928Y112362D01*
X258970Y112306D01*
X259032Y112244D01*
X259095Y112175D01*
X259171Y112105D01*
X259247Y112036D01*
X259317Y111987D01*
X259324Y111981D01*
X259351Y111967D01*
X259386Y111946D01*
X259434Y111918D01*
X259497Y111890D01*
X259559Y111863D01*
X259629Y111835D01*
X259705Y111814D01*
X259712D01*
X259733Y111807D01*
X259767Y111800D01*
X259816Y111793D01*
X259885D01*
X259968Y111786D01*
X260065Y111779D01*
X261154D01*
Y114622D01*
X262000D01*
Y108222D01*
D02*
G37*
G36*
X253353Y113090D02*
X256141D01*
Y112369D01*
X253214Y108222D01*
X252570D01*
Y112369D01*
X251703D01*
Y113090D01*
X252570D01*
Y114622D01*
X253353D01*
Y113090D01*
D02*
G37*
G36*
X272068Y99252D02*
X269510D01*
X269170Y97532D01*
X269177Y97539D01*
X269198Y97553D01*
X269225Y97567D01*
X269267Y97595D01*
X269322Y97622D01*
X269385Y97657D01*
X269454Y97699D01*
X269537Y97733D01*
X269620Y97768D01*
X269718Y97810D01*
X269919Y97872D01*
X270030Y97900D01*
X270141Y97921D01*
X270259Y97928D01*
X270376Y97934D01*
X270411D01*
X270460Y97928D01*
X270515D01*
X270584Y97914D01*
X270668Y97907D01*
X270765Y97886D01*
X270862Y97865D01*
X270973Y97830D01*
X271084Y97796D01*
X271201Y97747D01*
X271319Y97692D01*
X271437Y97622D01*
X271555Y97546D01*
X271673Y97456D01*
X271784Y97352D01*
X271791Y97345D01*
X271812Y97324D01*
X271840Y97290D01*
X271874Y97248D01*
X271923Y97192D01*
X271971Y97116D01*
X272020Y97040D01*
X272075Y96950D01*
X272131Y96846D01*
X272179Y96728D01*
X272235Y96610D01*
X272276Y96471D01*
X272311Y96333D01*
X272339Y96180D01*
X272360Y96021D01*
X272367Y95854D01*
Y95847D01*
Y95813D01*
Y95771D01*
X272360Y95709D01*
X272353Y95632D01*
X272339Y95549D01*
X272325Y95452D01*
X272304Y95341D01*
X272276Y95230D01*
X272242Y95105D01*
X272200Y94980D01*
X272152Y94856D01*
X272096Y94731D01*
X272027Y94599D01*
X271950Y94474D01*
X271860Y94356D01*
X271853Y94349D01*
X271833Y94322D01*
X271798Y94287D01*
X271749Y94239D01*
X271687Y94176D01*
X271611Y94114D01*
X271521Y94037D01*
X271416Y93968D01*
X271306Y93899D01*
X271181Y93822D01*
X271042Y93760D01*
X270889Y93705D01*
X270730Y93649D01*
X270557Y93614D01*
X270376Y93587D01*
X270182Y93580D01*
X270099D01*
X270037Y93587D01*
X269960Y93594D01*
X269877Y93608D01*
X269780Y93621D01*
X269676Y93642D01*
X269565Y93663D01*
X269447Y93698D01*
X269329Y93739D01*
X269211Y93788D01*
X269093Y93843D01*
X268976Y93906D01*
X268865Y93982D01*
X268754Y94065D01*
X268747Y94072D01*
X268733Y94086D01*
X268705Y94114D01*
X268671Y94155D01*
X268622Y94204D01*
X268573Y94259D01*
X268525Y94329D01*
X268470Y94412D01*
X268414Y94495D01*
X268358Y94592D01*
X268310Y94703D01*
X268261Y94814D01*
X268213Y94939D01*
X268178Y95071D01*
X268151Y95216D01*
X268130Y95362D01*
X268955Y95424D01*
Y95417D01*
X268962Y95396D01*
X268969Y95369D01*
X268976Y95327D01*
X268983Y95279D01*
X269003Y95216D01*
X269038Y95084D01*
X269093Y94939D01*
X269170Y94786D01*
X269260Y94648D01*
X269315Y94585D01*
X269371Y94523D01*
X269378D01*
X269385Y94509D01*
X269406Y94495D01*
X269433Y94474D01*
X269503Y94426D01*
X269600Y94377D01*
X269718Y94322D01*
X269856Y94273D01*
X270009Y94239D01*
X270092Y94232D01*
X270182Y94225D01*
X270238D01*
X270279Y94232D01*
X270328Y94239D01*
X270383Y94246D01*
X270515Y94280D01*
X270668Y94329D01*
X270744Y94363D01*
X270827Y94405D01*
X270910Y94453D01*
X270987Y94509D01*
X271063Y94571D01*
X271139Y94648D01*
X271146Y94655D01*
X271153Y94668D01*
X271174Y94689D01*
X271201Y94724D01*
X271229Y94773D01*
X271264Y94821D01*
X271299Y94883D01*
X271340Y94953D01*
X271375Y95029D01*
X271410Y95112D01*
X271444Y95209D01*
X271472Y95306D01*
X271500Y95417D01*
X271521Y95535D01*
X271527Y95653D01*
X271534Y95785D01*
Y95792D01*
Y95813D01*
Y95847D01*
X271527Y95896D01*
X271521Y95951D01*
X271514Y96021D01*
X271500Y96090D01*
X271486Y96173D01*
X271444Y96340D01*
X271375Y96520D01*
X271333Y96603D01*
X271278Y96686D01*
X271222Y96770D01*
X271153Y96846D01*
X271146Y96853D01*
X271139Y96860D01*
X271111Y96881D01*
X271084Y96908D01*
X271049Y96936D01*
X271000Y96971D01*
X270952Y97005D01*
X270889Y97047D01*
X270820Y97081D01*
X270751Y97116D01*
X270578Y97179D01*
X270487Y97206D01*
X270383Y97227D01*
X270279Y97234D01*
X270168Y97241D01*
X270106D01*
X270030Y97234D01*
X269939Y97220D01*
X269829Y97199D01*
X269711Y97165D01*
X269593Y97123D01*
X269475Y97061D01*
X269461Y97054D01*
X269426Y97033D01*
X269371Y96991D01*
X269302Y96943D01*
X269232Y96874D01*
X269149Y96797D01*
X269073Y96707D01*
X269003Y96610D01*
X268268Y96714D01*
X268885Y100001D01*
X272068D01*
Y99252D01*
D02*
G37*
G36*
X265051Y100077D02*
X265127D01*
X265217Y100070D01*
X265321Y100063D01*
X265529Y100042D01*
X265744Y100008D01*
X265952Y99966D01*
X266042Y99938D01*
X266133Y99911D01*
X266140D01*
X266153Y99904D01*
X266174Y99890D01*
X266209Y99876D01*
X266292Y99834D01*
X266389Y99772D01*
X266507Y99689D01*
X266625Y99578D01*
X266743Y99453D01*
X266847Y99300D01*
Y99294D01*
X266861Y99280D01*
X266875Y99259D01*
X266889Y99224D01*
X266909Y99183D01*
X266930Y99134D01*
X266958Y99079D01*
X266985Y99016D01*
X267034Y98871D01*
X267076Y98711D01*
X267103Y98531D01*
X267117Y98337D01*
Y98330D01*
Y98309D01*
Y98267D01*
X267110Y98226D01*
X267103Y98163D01*
X267097Y98094D01*
X267083Y98018D01*
X267062Y97934D01*
X267006Y97754D01*
X266972Y97657D01*
X266930Y97560D01*
X266882Y97463D01*
X266819Y97366D01*
X266750Y97276D01*
X266674Y97186D01*
X266667Y97179D01*
X266653Y97165D01*
X266625Y97144D01*
X266590Y97109D01*
X266542Y97075D01*
X266486Y97033D01*
X266417Y96985D01*
X266334Y96936D01*
X266244Y96887D01*
X266147Y96839D01*
X266036Y96790D01*
X265911Y96742D01*
X265779Y96700D01*
X265633Y96659D01*
X265474Y96624D01*
X265308Y96596D01*
X265314D01*
X265321Y96589D01*
X265363Y96568D01*
X265425Y96534D01*
X265502Y96492D01*
X265585Y96444D01*
X265668Y96395D01*
X265751Y96333D01*
X265821Y96277D01*
X265828Y96270D01*
X265835Y96263D01*
X265855Y96243D01*
X265883Y96215D01*
X265918Y96180D01*
X265959Y96138D01*
X266049Y96041D01*
X266153Y95917D01*
X266271Y95771D01*
X266396Y95605D01*
X266521Y95424D01*
X267630Y93684D01*
X266569D01*
X265723Y95015D01*
X265717Y95022D01*
X265710Y95043D01*
X265689Y95071D01*
X265661Y95112D01*
X265633Y95161D01*
X265592Y95216D01*
X265509Y95341D01*
X265411Y95487D01*
X265314Y95632D01*
X265210Y95771D01*
X265113Y95896D01*
Y95903D01*
X265099Y95910D01*
X265072Y95944D01*
X265030Y96000D01*
X264968Y96062D01*
X264905Y96132D01*
X264829Y96201D01*
X264753Y96270D01*
X264683Y96319D01*
X264676Y96326D01*
X264649Y96340D01*
X264614Y96360D01*
X264566Y96388D01*
X264503Y96416D01*
X264441Y96444D01*
X264371Y96471D01*
X264295Y96492D01*
X264288D01*
X264267Y96499D01*
X264233Y96506D01*
X264184Y96513D01*
X264115D01*
X264032Y96520D01*
X263934Y96527D01*
X262846D01*
Y93684D01*
X262000D01*
Y100084D01*
X264975D01*
X265051Y100077D01*
D02*
G37*
G36*
X314778Y59496D02*
X311803D01*
X311726Y59503D01*
X311650D01*
X311560Y59510D01*
X311456Y59517D01*
X311248Y59537D01*
X311033Y59572D01*
X310825Y59614D01*
X310735Y59641D01*
X310645Y59669D01*
X310638D01*
X310624Y59676D01*
X310603Y59690D01*
X310569Y59704D01*
X310485Y59745D01*
X310388Y59808D01*
X310270Y59891D01*
X310152Y60002D01*
X310035Y60127D01*
X309931Y60279D01*
Y60286D01*
X309917Y60300D01*
X309903Y60321D01*
X309889Y60356D01*
X309868Y60397D01*
X309847Y60446D01*
X309820Y60501D01*
X309792Y60564D01*
X309743Y60709D01*
X309702Y60869D01*
X309674Y61049D01*
X309660Y61243D01*
Y61250D01*
Y61271D01*
Y61313D01*
X309667Y61354D01*
X309674Y61417D01*
X309681Y61486D01*
X309695Y61562D01*
X309716Y61645D01*
X309771Y61826D01*
X309806Y61923D01*
X309847Y62020D01*
X309896Y62117D01*
X309958Y62214D01*
X310028Y62304D01*
X310104Y62394D01*
X310111Y62401D01*
X310125Y62415D01*
X310152Y62436D01*
X310187Y62471D01*
X310236Y62505D01*
X310291Y62547D01*
X310361Y62595D01*
X310444Y62644D01*
X310534Y62692D01*
X310631Y62741D01*
X310742Y62790D01*
X310867Y62838D01*
X310998Y62880D01*
X311144Y62921D01*
X311304Y62956D01*
X311470Y62984D01*
X311463D01*
X311456Y62991D01*
X311415Y63011D01*
X311352Y63046D01*
X311276Y63088D01*
X311193Y63136D01*
X311109Y63185D01*
X311026Y63247D01*
X310957Y63303D01*
X310950Y63310D01*
X310943Y63316D01*
X310922Y63337D01*
X310894Y63365D01*
X310860Y63400D01*
X310818Y63441D01*
X310728Y63538D01*
X310624Y63663D01*
X310506Y63809D01*
X310381Y63975D01*
X310257Y64156D01*
X309147Y65896D01*
X310208D01*
X311054Y64565D01*
X311061Y64558D01*
X311068Y64537D01*
X311089Y64509D01*
X311116Y64468D01*
X311144Y64419D01*
X311186Y64364D01*
X311269Y64239D01*
X311366Y64093D01*
X311463Y63948D01*
X311567Y63809D01*
X311664Y63684D01*
Y63677D01*
X311678Y63670D01*
X311706Y63636D01*
X311747Y63580D01*
X311810Y63518D01*
X311872Y63448D01*
X311948Y63379D01*
X312025Y63310D01*
X312094Y63261D01*
X312101Y63254D01*
X312129Y63240D01*
X312163Y63219D01*
X312212Y63192D01*
X312274Y63164D01*
X312337Y63136D01*
X312406Y63109D01*
X312482Y63088D01*
X312489D01*
X312510Y63081D01*
X312545Y63074D01*
X312593Y63067D01*
X312663D01*
X312746Y63060D01*
X312843Y63053D01*
X313932D01*
Y65896D01*
X314778D01*
Y59496D01*
D02*
G37*
G36*
X306567Y65993D02*
X306637Y65986D01*
X306720Y65979D01*
X306817Y65958D01*
X306921Y65938D01*
X307039Y65910D01*
X307164Y65868D01*
X307296Y65827D01*
X307427Y65764D01*
X307559Y65695D01*
X307698Y65612D01*
X307823Y65515D01*
X307954Y65404D01*
X308072Y65279D01*
X308079Y65272D01*
X308100Y65244D01*
X308128Y65203D01*
X308169Y65140D01*
X308218Y65064D01*
X308266Y64967D01*
X308322Y64849D01*
X308377Y64710D01*
X308440Y64558D01*
X308495Y64384D01*
X308544Y64190D01*
X308592Y63975D01*
X308634Y63740D01*
X308662Y63483D01*
X308682Y63206D01*
X308689Y62907D01*
Y62901D01*
Y62887D01*
Y62859D01*
Y62824D01*
Y62783D01*
X308682Y62727D01*
Y62672D01*
X308675Y62602D01*
X308668Y62450D01*
X308655Y62276D01*
X308634Y62082D01*
X308606Y61874D01*
X308564Y61652D01*
X308523Y61430D01*
X308468Y61209D01*
X308398Y60987D01*
X308322Y60772D01*
X308232Y60564D01*
X308121Y60376D01*
X308003Y60210D01*
X307996Y60203D01*
X307975Y60175D01*
X307941Y60141D01*
X307892Y60092D01*
X307836Y60037D01*
X307760Y59974D01*
X307677Y59912D01*
X307580Y59843D01*
X307469Y59773D01*
X307344Y59711D01*
X307212Y59648D01*
X307067Y59593D01*
X306914Y59544D01*
X306748Y59510D01*
X306574Y59482D01*
X306387Y59475D01*
X306311D01*
X306262Y59482D01*
X306200Y59489D01*
X306124Y59496D01*
X306040Y59510D01*
X305950Y59531D01*
X305749Y59579D01*
X305652Y59614D01*
X305541Y59655D01*
X305437Y59704D01*
X305340Y59766D01*
X305243Y59829D01*
X305146Y59905D01*
X305139Y59912D01*
X305125Y59926D01*
X305097Y59946D01*
X305070Y59981D01*
X305028Y60023D01*
X304986Y60078D01*
X304938Y60141D01*
X304889Y60210D01*
X304841Y60286D01*
X304792Y60376D01*
X304744Y60473D01*
X304695Y60578D01*
X304654Y60689D01*
X304619Y60806D01*
X304584Y60931D01*
X304564Y61070D01*
X305347Y61132D01*
Y61125D01*
X305354Y61111D01*
X305361Y61091D01*
X305368Y61056D01*
X305389Y60973D01*
X305423Y60876D01*
X305465Y60765D01*
X305520Y60654D01*
X305576Y60550D01*
X305645Y60460D01*
X305652Y60453D01*
X305659Y60446D01*
X305680Y60425D01*
X305701Y60404D01*
X305770Y60349D01*
X305867Y60286D01*
X305978Y60224D01*
X306117Y60175D01*
X306269Y60134D01*
X306353Y60127D01*
X306436Y60120D01*
X306498D01*
X306574Y60134D01*
X306665Y60148D01*
X306769Y60175D01*
X306880Y60210D01*
X306991Y60265D01*
X307101Y60335D01*
X307108D01*
X307115Y60349D01*
X307136Y60363D01*
X307164Y60383D01*
X307226Y60446D01*
X307309Y60536D01*
X307407Y60647D01*
X307504Y60786D01*
X307594Y60945D01*
X307684Y61125D01*
Y61132D01*
X307691Y61146D01*
X307705Y61181D01*
X307719Y61222D01*
X307732Y61271D01*
X307753Y61340D01*
X307774Y61417D01*
X307795Y61500D01*
X307816Y61597D01*
X307829Y61708D01*
X307850Y61833D01*
X307871Y61964D01*
X307885Y62103D01*
X307892Y62256D01*
X307899Y62422D01*
X307906Y62588D01*
X307892Y62575D01*
X307878Y62554D01*
X307857Y62526D01*
X307795Y62450D01*
X307719Y62353D01*
X307614Y62249D01*
X307497Y62145D01*
X307365Y62048D01*
X307219Y61957D01*
X307212D01*
X307199Y61950D01*
X307178Y61937D01*
X307150Y61923D01*
X307108Y61909D01*
X307067Y61888D01*
X306956Y61846D01*
X306824Y61812D01*
X306678Y61777D01*
X306519Y61749D01*
X306353Y61743D01*
X306318D01*
X306276Y61749D01*
X306221D01*
X306151Y61763D01*
X306075Y61770D01*
X305985Y61791D01*
X305888Y61812D01*
X305791Y61846D01*
X305680Y61881D01*
X305569Y61930D01*
X305458Y61985D01*
X305340Y62055D01*
X305229Y62131D01*
X305118Y62221D01*
X305014Y62325D01*
X305007Y62332D01*
X304993Y62353D01*
X304966Y62380D01*
X304924Y62429D01*
X304883Y62484D01*
X304841Y62554D01*
X304785Y62637D01*
X304737Y62727D01*
X304688Y62831D01*
X304633Y62942D01*
X304591Y63067D01*
X304543Y63199D01*
X304508Y63337D01*
X304480Y63490D01*
X304466Y63649D01*
X304459Y63816D01*
Y63823D01*
Y63843D01*
Y63871D01*
X304466Y63920D01*
Y63968D01*
X304473Y64031D01*
X304480Y64107D01*
X304494Y64183D01*
X304522Y64357D01*
X304570Y64544D01*
X304633Y64738D01*
X304723Y64939D01*
Y64946D01*
X304737Y64960D01*
X304751Y64988D01*
X304771Y65022D01*
X304799Y65064D01*
X304827Y65113D01*
X304910Y65230D01*
X305007Y65355D01*
X305132Y65487D01*
X305278Y65619D01*
X305437Y65730D01*
X305444D01*
X305458Y65743D01*
X305486Y65757D01*
X305520Y65771D01*
X305562Y65792D01*
X305611Y65813D01*
X305673Y65841D01*
X305735Y65861D01*
X305888Y65917D01*
X306068Y65958D01*
X306262Y65986D01*
X306470Y66000D01*
X306512D01*
X306567Y65993D01*
D02*
G37*
G36*
X223000Y40307D02*
X220025D01*
X219949Y40314D01*
X219873D01*
X219783Y40321D01*
X219678Y40328D01*
X219471Y40349D01*
X219256Y40384D01*
X219048Y40425D01*
X218957Y40453D01*
X218867Y40481D01*
X218860D01*
X218846Y40487D01*
X218826Y40501D01*
X218791Y40515D01*
X218708Y40557D01*
X218611Y40619D01*
X218493Y40703D01*
X218375Y40813D01*
X218257Y40938D01*
X218153Y41091D01*
Y41098D01*
X218139Y41112D01*
X218125Y41132D01*
X218111Y41167D01*
X218091Y41209D01*
X218070Y41257D01*
X218042Y41313D01*
X218014Y41375D01*
X217966Y41521D01*
X217924Y41680D01*
X217896Y41860D01*
X217883Y42055D01*
Y42062D01*
Y42082D01*
Y42124D01*
X217889Y42166D01*
X217896Y42228D01*
X217903Y42297D01*
X217917Y42374D01*
X217938Y42457D01*
X217994Y42637D01*
X218028Y42734D01*
X218070Y42831D01*
X218118Y42928D01*
X218181Y43025D01*
X218250Y43116D01*
X218326Y43206D01*
X218333Y43213D01*
X218347Y43227D01*
X218375Y43247D01*
X218410Y43282D01*
X218458Y43317D01*
X218514Y43358D01*
X218583Y43407D01*
X218666Y43455D01*
X218756Y43504D01*
X218853Y43552D01*
X218964Y43601D01*
X219089Y43650D01*
X219221Y43691D01*
X219366Y43733D01*
X219526Y43767D01*
X219692Y43795D01*
X219685D01*
X219678Y43802D01*
X219637Y43823D01*
X219575Y43858D01*
X219498Y43899D01*
X219415Y43948D01*
X219332Y43996D01*
X219249Y44059D01*
X219179Y44114D01*
X219172Y44121D01*
X219165Y44128D01*
X219145Y44149D01*
X219117Y44177D01*
X219082Y44211D01*
X219041Y44253D01*
X218950Y44350D01*
X218846Y44475D01*
X218729Y44620D01*
X218604Y44787D01*
X218479Y44967D01*
X217369Y46708D01*
X218430D01*
X219276Y45376D01*
X219283Y45369D01*
X219290Y45348D01*
X219311Y45321D01*
X219339Y45279D01*
X219366Y45230D01*
X219408Y45175D01*
X219491Y45050D01*
X219588Y44905D01*
X219685Y44759D01*
X219790Y44620D01*
X219887Y44496D01*
Y44489D01*
X219900Y44482D01*
X219928Y44447D01*
X219970Y44391D01*
X220032Y44329D01*
X220095Y44260D01*
X220171Y44190D01*
X220247Y44121D01*
X220317Y44072D01*
X220323Y44066D01*
X220351Y44052D01*
X220386Y44031D01*
X220434Y44003D01*
X220497Y43976D01*
X220559Y43948D01*
X220629Y43920D01*
X220705Y43899D01*
X220712D01*
X220732Y43892D01*
X220767Y43885D01*
X220816Y43878D01*
X220885D01*
X220968Y43871D01*
X221065Y43864D01*
X222154D01*
Y46708D01*
X223000D01*
Y40307D01*
D02*
G37*
G36*
X215927Y46701D02*
Y46673D01*
Y46631D01*
X215920Y46576D01*
X215913Y46500D01*
X215906Y46416D01*
X215899Y46312D01*
X215886Y46201D01*
X215872Y46070D01*
X215851Y45938D01*
X215830Y45785D01*
X215802Y45626D01*
X215768Y45452D01*
X215733Y45272D01*
X215684Y45085D01*
X215636Y44891D01*
X215629Y44877D01*
X215622Y44842D01*
X215608Y44787D01*
X215580Y44710D01*
X215553Y44613D01*
X215518Y44496D01*
X215476Y44371D01*
X215428Y44232D01*
X215372Y44079D01*
X215310Y43913D01*
X215248Y43740D01*
X215171Y43566D01*
X215012Y43199D01*
X214825Y42824D01*
X214818Y42811D01*
X214797Y42783D01*
X214769Y42727D01*
X214734Y42658D01*
X214679Y42575D01*
X214624Y42478D01*
X214554Y42367D01*
X214485Y42242D01*
X214402Y42117D01*
X214312Y41978D01*
X214117Y41701D01*
X213909Y41417D01*
X213798Y41278D01*
X213687Y41146D01*
X216822D01*
Y40391D01*
X212682D01*
Y41008D01*
X212689Y41014D01*
X212710Y41035D01*
X212744Y41077D01*
X212786Y41125D01*
X212841Y41195D01*
X212911Y41271D01*
X212980Y41361D01*
X213063Y41465D01*
X213153Y41583D01*
X213251Y41715D01*
X213354Y41860D01*
X213459Y42013D01*
X213563Y42173D01*
X213673Y42353D01*
X213791Y42540D01*
X213902Y42734D01*
X213909Y42748D01*
X213930Y42783D01*
X213958Y42838D01*
X213999Y42922D01*
X214048Y43018D01*
X214110Y43136D01*
X214173Y43268D01*
X214242Y43414D01*
X214312Y43573D01*
X214388Y43747D01*
X214464Y43934D01*
X214540Y44121D01*
X214617Y44322D01*
X214693Y44530D01*
X214825Y44953D01*
Y44960D01*
X214832Y44988D01*
X214845Y45036D01*
X214859Y45092D01*
X214880Y45168D01*
X214901Y45258D01*
X214929Y45362D01*
X214949Y45473D01*
X214977Y45598D01*
X214998Y45737D01*
X215026Y45882D01*
X215047Y46035D01*
X215074Y46194D01*
X215095Y46361D01*
X215123Y46708D01*
X215927D01*
Y46701D01*
D02*
G37*
%LPC*%
G36*
X264390Y225244D02*
X264383D01*
X264369D01*
X264348D01*
X264314Y225237D01*
X264279D01*
X264230Y225230D01*
X264126Y225202D01*
X264008Y225160D01*
X263884Y225105D01*
X263766Y225022D01*
X263703Y224966D01*
X263648Y224911D01*
X263641Y224904D01*
X263634Y224897D01*
X263620Y224876D01*
X263599Y224848D01*
X263578Y224814D01*
X263551Y224765D01*
X263523Y224717D01*
X263495Y224654D01*
X263468Y224585D01*
X263447Y224509D01*
X263419Y224425D01*
X263398Y224335D01*
X263377Y224231D01*
X263363Y224120D01*
X263350Y224002D01*
Y221846D01*
X265465D01*
Y223760D01*
X265458Y223808D01*
Y223864D01*
X265451Y223995D01*
X265437Y224141D01*
X265416Y224294D01*
X265388Y224439D01*
X265347Y224571D01*
Y224578D01*
X265340Y224585D01*
X265326Y224627D01*
X265298Y224682D01*
X265257Y224758D01*
X265201Y224834D01*
X265139Y224918D01*
X265056Y225001D01*
X264965Y225070D01*
X264951Y225077D01*
X264917Y225098D01*
X264868Y225126D01*
X264792Y225160D01*
X264709Y225188D01*
X264612Y225216D01*
X264501Y225237D01*
X264390Y225244D01*
D02*
G37*
G36*
X243236Y225244D02*
X243229D01*
X243216D01*
X243195D01*
X243160Y225237D01*
X243125D01*
X243077Y225230D01*
X242973Y225202D01*
X242855Y225160D01*
X242730Y225105D01*
X242612Y225022D01*
X242550Y224966D01*
X242494Y224911D01*
X242487Y224904D01*
X242481Y224897D01*
X242467Y224876D01*
X242446Y224848D01*
X242425Y224814D01*
X242397Y224765D01*
X242369Y224717D01*
X242342Y224654D01*
X242314Y224585D01*
X242293Y224509D01*
X242265Y224425D01*
X242245Y224335D01*
X242224Y224231D01*
X242210Y224120D01*
X242196Y224002D01*
Y221846D01*
X244311D01*
Y223760D01*
X244304Y223808D01*
Y223864D01*
X244297Y223995D01*
X244283Y224141D01*
X244263Y224294D01*
X244235Y224439D01*
X244193Y224571D01*
Y224578D01*
X244186Y224585D01*
X244172Y224626D01*
X244145Y224682D01*
X244103Y224758D01*
X244048Y224834D01*
X243985Y224918D01*
X243902Y225001D01*
X243812Y225070D01*
X243798Y225077D01*
X243763Y225098D01*
X243715Y225126D01*
X243638Y225160D01*
X243555Y225188D01*
X243458Y225216D01*
X243347Y225237D01*
X243236Y225244D01*
D02*
G37*
G36*
X261154Y111045D02*
X259240D01*
X259192Y111038D01*
X259136D01*
X259004Y111031D01*
X258859Y111017D01*
X258706Y110996D01*
X258561Y110968D01*
X258429Y110927D01*
X258422D01*
X258415Y110920D01*
X258374Y110906D01*
X258318Y110878D01*
X258242Y110836D01*
X258165Y110781D01*
X258082Y110718D01*
X257999Y110635D01*
X257930Y110545D01*
X257923Y110531D01*
X257902Y110497D01*
X257874Y110448D01*
X257840Y110372D01*
X257812Y110289D01*
X257784Y110191D01*
X257763Y110081D01*
X257756Y109970D01*
Y109963D01*
Y109949D01*
Y109928D01*
X257763Y109893D01*
Y109859D01*
X257770Y109810D01*
X257798Y109706D01*
X257840Y109588D01*
X257895Y109464D01*
X257978Y109346D01*
X258034Y109283D01*
X258089Y109228D01*
X258096Y109221D01*
X258103Y109214D01*
X258124Y109200D01*
X258152Y109179D01*
X258186Y109158D01*
X258235Y109131D01*
X258283Y109103D01*
X258346Y109075D01*
X258415Y109047D01*
X258491Y109027D01*
X258575Y108999D01*
X258665Y108978D01*
X258769Y108957D01*
X258880Y108943D01*
X258998Y108930D01*
X261154D01*
Y111045D01*
D02*
G37*
G36*
X255371Y112369D02*
X253353D01*
Y109484D01*
X255371Y112369D01*
D02*
G37*
G36*
X265002Y99377D02*
X262846D01*
Y97262D01*
X264760D01*
X264808Y97269D01*
X264864D01*
X264995Y97276D01*
X265141Y97290D01*
X265294Y97310D01*
X265439Y97338D01*
X265571Y97380D01*
X265578D01*
X265585Y97387D01*
X265626Y97401D01*
X265682Y97428D01*
X265758Y97470D01*
X265835Y97525D01*
X265918Y97588D01*
X266001Y97671D01*
X266070Y97761D01*
X266077Y97775D01*
X266098Y97810D01*
X266126Y97858D01*
X266160Y97934D01*
X266188Y98018D01*
X266216Y98115D01*
X266237Y98226D01*
X266244Y98337D01*
Y98344D01*
Y98357D01*
Y98378D01*
X266237Y98413D01*
Y98448D01*
X266230Y98496D01*
X266202Y98600D01*
X266160Y98718D01*
X266105Y98843D01*
X266022Y98961D01*
X265966Y99023D01*
X265911Y99079D01*
X265904Y99086D01*
X265897Y99093D01*
X265876Y99106D01*
X265848Y99127D01*
X265814Y99148D01*
X265765Y99176D01*
X265717Y99203D01*
X265654Y99231D01*
X265585Y99259D01*
X265509Y99280D01*
X265425Y99307D01*
X265335Y99328D01*
X265231Y99349D01*
X265120Y99363D01*
X265002Y99377D01*
D02*
G37*
G36*
X313932Y62318D02*
X312018D01*
X311969Y62311D01*
X311914D01*
X311782Y62304D01*
X311636Y62290D01*
X311484Y62270D01*
X311338Y62242D01*
X311206Y62200D01*
X311199D01*
X311193Y62193D01*
X311151Y62179D01*
X311096Y62152D01*
X311019Y62110D01*
X310943Y62055D01*
X310860Y61992D01*
X310777Y61909D01*
X310707Y61819D01*
X310700Y61805D01*
X310679Y61770D01*
X310652Y61722D01*
X310617Y61645D01*
X310589Y61562D01*
X310562Y61465D01*
X310541Y61354D01*
X310534Y61243D01*
Y61236D01*
Y61222D01*
Y61202D01*
X310541Y61167D01*
Y61132D01*
X310548Y61084D01*
X310576Y60980D01*
X310617Y60862D01*
X310672Y60737D01*
X310756Y60619D01*
X310811Y60557D01*
X310867Y60501D01*
X310874Y60494D01*
X310881Y60487D01*
X310901Y60473D01*
X310929Y60453D01*
X310964Y60432D01*
X311012Y60404D01*
X311061Y60376D01*
X311123Y60349D01*
X311193Y60321D01*
X311269Y60300D01*
X311352Y60272D01*
X311442Y60252D01*
X311546Y60231D01*
X311657Y60217D01*
X311775Y60203D01*
X313932D01*
Y62318D01*
D02*
G37*
G36*
X307906Y62595D02*
X307906Y62588D01*
X307906Y62588D01*
Y62595D01*
D02*
G37*
G36*
X306484Y65355D02*
X306436D01*
X306401Y65348D01*
X306353Y65341D01*
X306304Y65334D01*
X306186Y65307D01*
X306054Y65258D01*
X305978Y65223D01*
X305909Y65189D01*
X305833Y65140D01*
X305763Y65092D01*
X305694Y65029D01*
X305624Y64960D01*
X305618Y64953D01*
X305611Y64939D01*
X305590Y64918D01*
X305569Y64884D01*
X305541Y64842D01*
X305513Y64794D01*
X305479Y64738D01*
X305444Y64669D01*
X305410Y64599D01*
X305375Y64516D01*
X305347Y64426D01*
X305319Y64329D01*
X305299Y64225D01*
X305278Y64107D01*
X305271Y63989D01*
X305264Y63864D01*
Y63857D01*
Y63837D01*
Y63802D01*
X305271Y63753D01*
X305278Y63698D01*
X305285Y63636D01*
X305292Y63566D01*
X305306Y63490D01*
X305347Y63323D01*
X305410Y63150D01*
X305451Y63060D01*
X305500Y62977D01*
X305555Y62901D01*
X305618Y62824D01*
X305624Y62817D01*
X305631Y62810D01*
X305652Y62790D01*
X305680Y62762D01*
X305715Y62734D01*
X305756Y62699D01*
X305860Y62630D01*
X305992Y62561D01*
X306145Y62498D01*
X306318Y62450D01*
X306415Y62443D01*
X306512Y62436D01*
X306561D01*
X306602Y62443D01*
X306644Y62450D01*
X306699Y62457D01*
X306824Y62484D01*
X306970Y62533D01*
X307122Y62602D01*
X307199Y62644D01*
X307275Y62692D01*
X307351Y62755D01*
X307420Y62824D01*
X307427Y62831D01*
X307434Y62845D01*
X307455Y62866D01*
X307476Y62894D01*
X307504Y62928D01*
X307538Y62977D01*
X307573Y63032D01*
X307601Y63095D01*
X307635Y63157D01*
X307670Y63233D01*
X307732Y63407D01*
X307774Y63601D01*
X307781Y63712D01*
X307788Y63823D01*
Y63830D01*
Y63843D01*
Y63864D01*
Y63892D01*
X307781Y63927D01*
Y63968D01*
X307767Y64072D01*
X307746Y64190D01*
X307719Y64322D01*
X307677Y64461D01*
X307621Y64599D01*
Y64606D01*
X307614Y64613D01*
X307601Y64634D01*
X307587Y64662D01*
X307552Y64724D01*
X307497Y64807D01*
X307427Y64897D01*
X307344Y64988D01*
X307254Y65078D01*
X307143Y65161D01*
X307136D01*
X307129Y65168D01*
X307087Y65189D01*
X307025Y65223D01*
X306942Y65258D01*
X306845Y65293D01*
X306734Y65328D01*
X306609Y65348D01*
X306484Y65355D01*
D02*
G37*
G36*
X222154Y43130D02*
X220240D01*
X220192Y43123D01*
X220136D01*
X220004Y43116D01*
X219859Y43102D01*
X219706Y43081D01*
X219561Y43053D01*
X219429Y43012D01*
X219422D01*
X219415Y43005D01*
X219373Y42991D01*
X219318Y42963D01*
X219242Y42922D01*
X219165Y42866D01*
X219082Y42804D01*
X218999Y42720D01*
X218930Y42630D01*
X218923Y42616D01*
X218902Y42582D01*
X218874Y42533D01*
X218839Y42457D01*
X218812Y42374D01*
X218784Y42277D01*
X218763Y42166D01*
X218756Y42055D01*
Y42048D01*
Y42034D01*
Y42013D01*
X218763Y41978D01*
Y41944D01*
X218770Y41895D01*
X218798Y41791D01*
X218839Y41673D01*
X218895Y41549D01*
X218978Y41431D01*
X219034Y41368D01*
X219089Y41313D01*
X219096Y41306D01*
X219103Y41299D01*
X219124Y41285D01*
X219151Y41264D01*
X219186Y41243D01*
X219235Y41216D01*
X219283Y41188D01*
X219346Y41160D01*
X219415Y41132D01*
X219491Y41112D01*
X219575Y41084D01*
X219665Y41063D01*
X219769Y41042D01*
X219880Y41028D01*
X219998Y41014D01*
X222154D01*
Y43130D01*
D02*
G37*
%LPD*%
D10*
X260793Y205500D02*
Y236500D01*
X277292D01*
Y205500D02*
Y236500D01*
X260793Y205500D02*
X277292D01*
X239750D02*
Y236500D01*
X256250D01*
Y205500D02*
Y236500D01*
X239750Y205500D02*
X256250D01*
X246500Y106372D02*
X277500D01*
X246500D02*
Y122872D01*
X277500D01*
Y106372D02*
Y122872D01*
X246500Y101830D02*
X277500D01*
Y85330D02*
Y101830D01*
X246500Y85330D02*
X277500D01*
X246500D02*
Y101830D01*
X299278Y57750D02*
X330277D01*
X299278D02*
Y74250D01*
X330277D01*
Y57750D02*
Y74250D01*
X207500Y38458D02*
X238500D01*
X207500D02*
Y54957D01*
X238500D01*
Y38458D02*
Y54957D01*
M02*
