G04*
G04 #@! TF.GenerationSoftware,Altium Limited,Altium Designer,20.1.12 (249)*
G04*
G04 Layer_Physical_Order=1*
G04 Layer_Color=255*
%FSLAX44Y44*%
%MOMM*%
G71*
G04*
G04 #@! TF.SameCoordinates,04BF7026-1835-46FC-AA2D-A1D278024C7A*
G04*
G04*
G04 #@! TF.FilePolarity,Positive*
G04*
G01*
G75*
%ADD13C,0.3000*%
%ADD15R,1.7800X0.7100*%
%ADD16R,2.8200X1.4300*%
%ADD17R,1.4300X2.8200*%
%ADD18R,0.9600X1.3900*%
%ADD19R,0.9500X1.4500*%
%ADD20R,1.3000X3.4000*%
%ADD21R,1.4500X0.9500*%
%ADD22R,1.2000X1.1000*%
%ADD23R,0.8900X3.0600*%
%ADD24R,5.3500X8.5400*%
%ADD36C,0.4000*%
%ADD37C,0.2540*%
%ADD38R,1.9500X1.9500*%
%ADD39C,1.9500*%
%ADD40C,0.6000*%
G36*
X450000Y0D02*
X0D01*
Y325000D01*
X450000D01*
Y0D01*
D02*
G37*
%LPC*%
G36*
X320332Y292540D02*
X303253D01*
Y288385D01*
X300790D01*
Y292040D01*
X281210D01*
Y277460D01*
X300790D01*
Y280615D01*
X303253D01*
Y276460D01*
X320332D01*
Y292540D01*
D02*
G37*
G36*
Y271540D02*
X303253D01*
Y255460D01*
X315647D01*
X316023Y255385D01*
X325137D01*
X375005Y205517D01*
Y197390D01*
X374169Y196831D01*
X373607Y195991D01*
X373410Y195000D01*
Y192590D01*
X269090D01*
Y192840D01*
X229710D01*
X229710Y157933D01*
X229563Y157105D01*
X228610Y156750D01*
X228506Y156750D01*
X219390D01*
X218290Y157160D01*
X218290Y158020D01*
Y192840D01*
X178910D01*
Y192590D01*
X80000D01*
X79009Y192393D01*
X78860Y192293D01*
X77590Y192972D01*
Y200000D01*
X77393Y200991D01*
X76831Y201831D01*
X75991Y202393D01*
X75000Y202590D01*
X35000D01*
X34009Y202393D01*
X33169Y201831D01*
X32607Y200991D01*
X32410Y200000D01*
Y121073D01*
X18169Y106831D01*
X17607Y105991D01*
X17410Y105000D01*
Y10000D01*
X17607Y9009D01*
X18169Y8169D01*
X19009Y7607D01*
X20000Y7410D01*
X70000D01*
X70991Y7607D01*
X71831Y8169D01*
X72393Y9009D01*
X72590Y10000D01*
Y142410D01*
X75000D01*
X75991Y142607D01*
X76140Y142707D01*
X77410Y142028D01*
Y141000D01*
X77607Y140009D01*
X78169Y139169D01*
X79009Y138607D01*
X80000Y138410D01*
X140000D01*
Y75000D01*
X310000D01*
Y103073D01*
X317410D01*
Y15000D01*
Y10000D01*
X317607Y9009D01*
X318169Y8169D01*
X319009Y7607D01*
X320000Y7410D01*
X380000D01*
X380991Y7607D01*
X381831Y8169D01*
X382393Y9009D01*
X382590Y10000D01*
Y98927D01*
X396831Y113169D01*
X397393Y114009D01*
X397590Y115000D01*
Y195000D01*
X397393Y195991D01*
X396831Y196831D01*
X395991Y197393D01*
X395000Y197590D01*
X382775D01*
Y207126D01*
X382479Y208612D01*
X381637Y209872D01*
X329493Y262017D01*
X328232Y262859D01*
X326746Y263155D01*
X320332D01*
Y271540D01*
D02*
G37*
%LPD*%
G36*
X190000Y150000D02*
X150000D01*
X141000Y141000D01*
X80000D01*
Y190000D01*
X190000D01*
Y150000D01*
D02*
G37*
G36*
X395000Y115000D02*
X380000Y100000D01*
Y10000D01*
X320000D01*
Y15000D01*
Y140000D01*
X310000D01*
X300000Y150000D01*
Y150000D01*
X268000D01*
X258000Y160000D01*
Y190000D01*
X375000D01*
X376000Y191000D01*
Y195000D01*
X395000D01*
Y115000D01*
D02*
G37*
G36*
X75000Y145000D02*
X70000D01*
Y10000D01*
X20000D01*
Y105000D01*
X35000Y120000D01*
Y200000D01*
X75000D01*
Y145000D01*
D02*
G37*
D13*
X224000Y259500D02*
X249250Y284750D01*
X224000Y248050D02*
Y259500D01*
D15*
X294193Y205400D02*
D03*
Y174600D02*
D03*
D16*
X323235Y201900D02*
D03*
Y176100D02*
D03*
X357477Y201900D02*
D03*
Y176100D02*
D03*
X150308Y202900D02*
D03*
Y177100D02*
D03*
X116065Y202900D02*
D03*
Y177100D02*
D03*
D17*
X410570Y177385D02*
D03*
X384770D02*
D03*
X410570Y143142D02*
D03*
X384770D02*
D03*
X19100D02*
D03*
X44900D02*
D03*
X19100Y178385D02*
D03*
X44900D02*
D03*
D18*
X235100Y136482D02*
D03*
X218900D02*
D03*
X293100Y127500D02*
D03*
X276900D02*
D03*
D19*
X295378Y106958D02*
D03*
X275878D02*
D03*
X259835D02*
D03*
X240335D02*
D03*
X204792Y106000D02*
D03*
X224293D02*
D03*
X169250Y127000D02*
D03*
X188750D02*
D03*
X169250Y105957D02*
D03*
X188750D02*
D03*
D20*
X87500Y167000D02*
D03*
X66500D02*
D03*
D21*
X291000Y265250D02*
D03*
Y284750D02*
D03*
D22*
X311793Y263500D02*
D03*
Y284500D02*
D03*
D23*
X185900Y175000D02*
D03*
X198600D02*
D03*
X211300D02*
D03*
X224000D02*
D03*
X236700D02*
D03*
X249400D02*
D03*
X262100D02*
D03*
D24*
X224000Y248050D02*
D03*
D36*
X217000Y148591D02*
X223609Y155200D01*
X217000Y138383D02*
Y148591D01*
Y138383D02*
X222200Y133182D01*
X224293Y106000D02*
X239378D01*
X240335Y106958D01*
X222200Y122437D02*
Y133182D01*
Y122437D02*
X224293Y120345D01*
Y106000D02*
Y120345D01*
X223609Y155200D02*
Y174609D01*
X224000Y175000D01*
D37*
X204792Y106000D02*
Y134811D01*
X208120Y138139D01*
Y171820D01*
X211300Y175000D01*
X169250Y127000D02*
Y129500D01*
X165770Y132980D02*
X169250Y129500D01*
X163270Y132980D02*
X165770D01*
X146250Y150000D02*
X163270Y132980D01*
X140000Y150000D02*
X146250D01*
X169250Y105957D02*
Y127000D01*
X295378Y106958D02*
X334842D01*
X354300Y87500D01*
X293100Y109235D02*
Y127500D01*
Y109235D02*
X295378Y106958D01*
X291250Y284500D02*
X311793D01*
X291000Y284750D02*
X291250Y284500D01*
X378890Y183265D02*
X384770Y177385D01*
X378890Y183265D02*
Y207126D01*
X326746Y259270D02*
X378890Y207126D01*
X316023Y259270D02*
X326746D01*
X311793Y263500D02*
X316023Y259270D01*
X198600Y146600D02*
Y175000D01*
X188750Y136750D02*
X198600Y146600D01*
X188750Y127000D02*
Y136750D01*
X188792Y106000D02*
X204792D01*
X188750Y105957D02*
X188792Y106000D01*
X235100Y136482D02*
Y173400D01*
X236700Y175000D01*
X275878Y106958D02*
Y126478D01*
X276900Y127500D01*
X259835Y106958D02*
X275878D01*
X249400Y175000D02*
X252580Y171820D01*
Y140581D02*
Y171820D01*
Y140581D02*
X259835Y133326D01*
Y106958D02*
Y133326D01*
D38*
X354300Y87500D02*
D03*
Y37500D02*
D03*
X43300Y87500D02*
D03*
Y37500D02*
D03*
D39*
X405100Y87500D02*
D03*
Y37500D02*
D03*
X94100Y87500D02*
D03*
Y37500D02*
D03*
D40*
X300250Y40500D02*
D03*
X242500Y37750D02*
D03*
X183750Y39250D02*
D03*
X411500Y275750D02*
D03*
X76500Y277000D02*
D03*
X403750Y308000D02*
D03*
X105250Y304500D02*
D03*
X28750Y302000D02*
D03*
X51000Y237000D02*
D03*
X86250Y239250D02*
D03*
X123750Y240000D02*
D03*
X152000D02*
D03*
X331750Y232750D02*
D03*
X312500Y234500D02*
D03*
X295000Y233750D02*
D03*
X378750Y290500D02*
D03*
X437750Y250000D02*
D03*
X442500Y137000D02*
D03*
X441000Y61750D02*
D03*
X3250Y78250D02*
D03*
X4000Y140000D02*
D03*
X4750Y179500D02*
D03*
X206000Y212050D02*
D03*
Y224050D02*
D03*
Y236050D02*
D03*
Y248050D02*
D03*
Y260050D02*
D03*
Y272050D02*
D03*
Y284050D02*
D03*
X218000Y212050D02*
D03*
Y224050D02*
D03*
Y236050D02*
D03*
Y260050D02*
D03*
Y272050D02*
D03*
Y284050D02*
D03*
X230000Y212050D02*
D03*
Y224050D02*
D03*
Y236050D02*
D03*
Y248050D02*
D03*
Y260050D02*
D03*
Y272050D02*
D03*
Y284050D02*
D03*
X242000Y212050D02*
D03*
Y224050D02*
D03*
Y236050D02*
D03*
Y248050D02*
D03*
Y260050D02*
D03*
Y272050D02*
D03*
Y284050D02*
D03*
X218000Y248050D02*
D03*
M02*
