G04*
G04 #@! TF.GenerationSoftware,Altium Limited,Altium Designer,20.1.12 (249)*
G04*
G04 Layer_Physical_Order=2*
G04 Layer_Color=16711680*
%FSLAX44Y44*%
%MOMM*%
G71*
G04*
G04 #@! TF.SameCoordinates,04BF7026-1835-46FC-AA2D-A1D278024C7A*
G04*
G04*
G04 #@! TF.FilePolarity,Positive*
G04*
G01*
G75*
%ADD38R,1.9500X1.9500*%
%ADD39C,1.9500*%
%ADD40C,0.6000*%
G36*
X450000Y0D02*
X0D01*
Y325000D01*
X450000D01*
Y0D01*
D02*
G37*
%LPC*%
G36*
X366590Y99790D02*
X342010D01*
Y75210D01*
X366590D01*
Y99790D01*
D02*
G37*
G36*
X55590D02*
X31010D01*
Y75210D01*
X55590D01*
Y99790D01*
D02*
G37*
G36*
X366590Y49790D02*
X342010D01*
Y25210D01*
X366590D01*
Y49790D01*
D02*
G37*
G36*
X55590D02*
X31010D01*
Y25210D01*
X55590D01*
Y49790D01*
D02*
G37*
%LPD*%
D38*
X354300Y87500D02*
D03*
Y37500D02*
D03*
X43300Y87500D02*
D03*
Y37500D02*
D03*
D39*
X405100Y87500D02*
D03*
Y37500D02*
D03*
X94100Y87500D02*
D03*
Y37500D02*
D03*
D40*
X300250Y40500D02*
D03*
X242500Y37750D02*
D03*
X183750Y39250D02*
D03*
X411500Y275750D02*
D03*
X76500Y277000D02*
D03*
X403750Y308000D02*
D03*
X105250Y304500D02*
D03*
X28750Y302000D02*
D03*
X51000Y237000D02*
D03*
X86250Y239250D02*
D03*
X123750Y240000D02*
D03*
X152000D02*
D03*
X331750Y232750D02*
D03*
X312500Y234500D02*
D03*
X295000Y233750D02*
D03*
X378750Y290500D02*
D03*
X437750Y250000D02*
D03*
X442500Y137000D02*
D03*
X441000Y61750D02*
D03*
X3250Y78250D02*
D03*
X4000Y140000D02*
D03*
X4750Y179500D02*
D03*
X206000Y212050D02*
D03*
Y224050D02*
D03*
Y236050D02*
D03*
Y248050D02*
D03*
Y260050D02*
D03*
Y272050D02*
D03*
Y284050D02*
D03*
X218000Y212050D02*
D03*
Y224050D02*
D03*
Y236050D02*
D03*
Y260050D02*
D03*
Y272050D02*
D03*
Y284050D02*
D03*
X230000Y212050D02*
D03*
Y224050D02*
D03*
Y236050D02*
D03*
Y248050D02*
D03*
Y260050D02*
D03*
Y272050D02*
D03*
Y284050D02*
D03*
X242000Y212050D02*
D03*
Y224050D02*
D03*
Y236050D02*
D03*
Y248050D02*
D03*
Y260050D02*
D03*
Y272050D02*
D03*
Y284050D02*
D03*
X218000Y248050D02*
D03*
M02*
