G04*
G04 #@! TF.GenerationSoftware,Altium Limited,Altium Designer,20.1.12 (249)*
G04*
G04 Layer_Color=65535*
%FSLAX44Y44*%
%MOMM*%
G71*
G04*
G04 #@! TF.SameCoordinates,A6FFBE12-9050-4AB9-A8FC-CC0259DDA12F*
G04*
G04*
G04 #@! TF.FilePolarity,Positive*
G04*
G01*
G75*
%ADD10C,0.6000*%
%ADD11C,0.2500*%
%ADD12C,0.2000*%
%ADD13C,0.3000*%
%ADD14C,0.2032*%
D10*
X157400Y233525D02*
G03*
X157400Y233525I-3000J0D01*
G01*
D11*
X160650Y182775D02*
G03*
X160650Y182775I-1250J0D01*
G01*
D12*
X368000Y147257D02*
Y170257D01*
X248950Y206525D02*
Y337025D01*
X144900Y206525D02*
Y337025D01*
Y206525D02*
X149400D01*
X244400D02*
X248950D01*
X144900Y337025D02*
X248950D01*
X104115Y172658D02*
Y210658D01*
X66115Y172658D02*
X104115D01*
X66115D02*
Y210658D01*
X104115D01*
X40773Y184500D02*
Y207500D01*
Y150258D02*
Y173258D01*
X143750Y161482D02*
X146250D01*
X143750Y175482D02*
X146250D01*
X250378Y154500D02*
X252878D01*
X250378Y140500D02*
X252878D01*
X214835Y154500D02*
X217335D01*
X214835Y140500D02*
X217335D01*
X179293Y140440D02*
X181793D01*
X179293Y154440D02*
X181793D01*
X143750Y140440D02*
X146250D01*
X143750Y154440D02*
X146250D01*
X267857Y24500D02*
Y115750D01*
X184858Y24500D02*
Y86750D01*
X390500Y106000D02*
X390500Y28500D01*
X395500D01*
Y18000D02*
Y28500D01*
X390500Y18000D02*
X395500D01*
X390500Y12500D02*
Y18000D01*
X380500Y12500D02*
X390500D01*
X380500Y7500D02*
Y12500D01*
X390500Y106000D02*
X395500D01*
Y127000D01*
X390500D02*
X395500D01*
X390500D02*
Y132500D01*
X278900Y7500D02*
X380500D01*
X278900D02*
Y132500D01*
X390500D01*
X118708Y106000D02*
X118708Y28500D01*
X123708D01*
Y18000D02*
Y28500D01*
X118708Y18000D02*
X123708D01*
X118708Y12500D02*
Y18000D01*
X108708Y12500D02*
X118708D01*
X108708Y7500D02*
Y12500D01*
X118708Y106000D02*
X123708D01*
Y127000D01*
X118708D02*
X123708D01*
X118708D02*
Y132500D01*
X7107Y7500D02*
X108708D01*
X7107D02*
Y132500D01*
X118708D01*
X281793Y296500D02*
X291793D01*
X281793Y293500D02*
Y296500D01*
X291793Y293500D02*
Y296500D01*
X273000Y294750D02*
Y297250D01*
X259000Y294750D02*
Y297250D01*
X112008Y236000D02*
X135007D01*
X77765D02*
X100765D01*
X258092Y214000D02*
X272092D01*
X368570Y181500D02*
Y204500D01*
X316877Y214000D02*
X339878D01*
X282635D02*
X305635D01*
X9000Y327791D02*
Y319794D01*
X11666Y322460D01*
X14332Y319794D01*
Y327791D01*
X16997Y319794D02*
Y327791D01*
X20996D01*
X22329Y326458D01*
Y323792D01*
X20996Y322460D01*
X16997D01*
X24995Y327791D02*
X30326D01*
X27661D01*
Y319794D01*
X46321Y327791D02*
X40990D01*
Y323792D01*
X43656Y325125D01*
X44988D01*
X46321Y323792D01*
Y321127D01*
X44988Y319794D01*
X42323D01*
X40990Y321127D01*
X48987Y327791D02*
Y322460D01*
X51653Y319794D01*
X54319Y322460D01*
Y327791D01*
X9000Y313394D02*
Y305397D01*
X12999D01*
X14332Y306730D01*
Y312061D01*
X12999Y313394D01*
X9000D01*
X22329Y312061D02*
X20996Y313394D01*
X18330D01*
X16997Y312061D01*
Y306730D01*
X18330Y305397D01*
X20996D01*
X22329Y306730D01*
X32992Y313394D02*
Y305397D01*
X36991D01*
X38324Y306730D01*
Y312061D01*
X36991Y313394D01*
X32992D01*
X46321Y312061D02*
X44988Y313394D01*
X42323D01*
X40990Y312061D01*
Y306730D01*
X42323Y305397D01*
X44988D01*
X46321Y306730D01*
X62316Y312061D02*
X60983Y313394D01*
X58317D01*
X56985Y312061D01*
Y306730D01*
X58317Y305397D01*
X60983D01*
X62316Y306730D01*
X66315Y305397D02*
X68981D01*
X70314Y306730D01*
Y309396D01*
X68981Y310728D01*
X66315D01*
X64982Y309396D01*
Y306730D01*
X66315Y305397D01*
X72979D02*
Y310728D01*
X76978D01*
X78311Y309396D01*
Y305397D01*
X80977Y310728D02*
X83643Y305397D01*
X86308Y310728D01*
X92973Y305397D02*
X90307D01*
X88974Y306730D01*
Y309396D01*
X90307Y310728D01*
X92973D01*
X94306Y309396D01*
Y308063D01*
X88974D01*
X96972Y310728D02*
Y305397D01*
Y308063D01*
X98305Y309396D01*
X99637Y310728D01*
X100970D01*
X106302Y312061D02*
Y310728D01*
X104969D01*
X107635D01*
X106302D01*
Y306730D01*
X107635Y305397D01*
X115632D02*
X112966D01*
X111634Y306730D01*
Y309396D01*
X112966Y310728D01*
X115632D01*
X116965Y309396D01*
Y308063D01*
X111634D01*
X119631Y310728D02*
Y305397D01*
Y308063D01*
X120964Y309396D01*
X122297Y310728D01*
X123630D01*
X9000Y291000D02*
Y298997D01*
X12999D01*
X14332Y297665D01*
Y294999D01*
X12999Y293666D01*
X9000D01*
X11666D02*
X14332Y291000D01*
X18330D02*
X20996D01*
X22329Y292333D01*
Y294999D01*
X20996Y296332D01*
X18330D01*
X16997Y294999D01*
Y292333D01*
X18330Y291000D01*
X24995Y296332D02*
Y292333D01*
X26328Y291000D01*
X30326D01*
Y296332D01*
X32992Y291000D02*
Y296332D01*
X36991D01*
X38324Y294999D01*
Y291000D01*
X46321Y298997D02*
Y291000D01*
X42323D01*
X40990Y292333D01*
Y294999D01*
X42323Y296332D01*
X46321D01*
X56985Y291000D02*
X59650D01*
X58317D01*
Y298997D01*
X56985Y297665D01*
X285999Y149663D02*
X283333D01*
X282000Y148330D01*
Y142999D01*
X283333Y141666D01*
X285999D01*
X287332Y142999D01*
Y148330D01*
X285999Y149663D01*
X289997Y146997D02*
Y142999D01*
X291330Y141666D01*
X295329D01*
Y146997D01*
X299328Y148330D02*
Y146997D01*
X297995D01*
X300661D01*
X299328D01*
Y142999D01*
X300661Y141666D01*
X304659Y139000D02*
Y146997D01*
X308658D01*
X309991Y145665D01*
Y142999D01*
X308658Y141666D01*
X304659D01*
X312657Y146997D02*
Y142999D01*
X313990Y141666D01*
X317988D01*
Y146997D01*
X321987Y148330D02*
Y146997D01*
X320654D01*
X323320D01*
X321987D01*
Y142999D01*
X323320Y141666D01*
X126000Y82663D02*
X128666D01*
X127333D01*
Y74666D01*
X126000D01*
X128666D01*
X132664D02*
Y79997D01*
X136663D01*
X137996Y78664D01*
Y74666D01*
X140662Y72000D02*
Y79997D01*
X144661D01*
X145994Y78664D01*
Y75999D01*
X144661Y74666D01*
X140662D01*
X148659Y79997D02*
Y75999D01*
X149992Y74666D01*
X153991D01*
Y79997D01*
X157990Y81330D02*
Y79997D01*
X156657D01*
X159323D01*
X157990D01*
Y75999D01*
X159323Y74666D01*
D13*
X298223Y302620D02*
X303302Y297540D01*
X298223Y287380D02*
Y302620D01*
D14*
X167652Y123191D02*
Y130809D01*
X171461D01*
X172730Y129539D01*
Y127000D01*
X171461Y125730D01*
X167652D01*
X170191D02*
X172730Y123191D01*
X180348Y130809D02*
X177809Y129539D01*
X175270Y127000D01*
Y124461D01*
X176539Y123191D01*
X179078D01*
X180348Y124461D01*
Y125730D01*
X179078Y127000D01*
X175270D01*
X206652Y126191D02*
Y133809D01*
X210461D01*
X211730Y132539D01*
Y130000D01*
X210461Y128730D01*
X206652D01*
X209191D02*
X211730Y126191D01*
X219348Y133809D02*
X214270D01*
Y130000D01*
X216809Y131270D01*
X218078D01*
X219348Y130000D01*
Y127461D01*
X218078Y126191D01*
X215539D01*
X214270Y127461D01*
X135652Y120191D02*
Y127809D01*
X139461D01*
X140730Y126539D01*
Y124000D01*
X139461Y122730D01*
X135652D01*
X138191D02*
X140730Y120191D01*
X147078D02*
Y127809D01*
X143270Y124000D01*
X148348D01*
X247652Y126191D02*
Y133809D01*
X251461D01*
X252730Y132539D01*
Y130000D01*
X251461Y128730D01*
X247652D01*
X250191D02*
X252730Y126191D01*
X255270Y132539D02*
X256539Y133809D01*
X259078D01*
X260348Y132539D01*
Y131270D01*
X259078Y130000D01*
X257809D01*
X259078D01*
X260348Y128730D01*
Y127461D01*
X259078Y126191D01*
X256539D01*
X255270Y127461D01*
X109652Y158191D02*
Y165809D01*
X113461D01*
X114730Y164539D01*
Y162000D01*
X113461Y160730D01*
X109652D01*
X112191D02*
X114730Y158191D01*
X122348D02*
X117270D01*
X122348Y163270D01*
Y164539D01*
X121078Y165809D01*
X118539D01*
X117270Y164539D01*
X258850Y319518D02*
Y327136D01*
X262659D01*
X263928Y325866D01*
Y323327D01*
X262659Y322057D01*
X258850D01*
X261389D02*
X263928Y319518D01*
X266467D02*
X269007D01*
X267737D01*
Y327136D01*
X266467Y325866D01*
X279869Y327595D02*
Y319978D01*
X284947D01*
X292564Y327595D02*
X287486D01*
Y319978D01*
X292564D01*
X287486Y323787D02*
X290025D01*
X295104Y327595D02*
Y319978D01*
X298912D01*
X300182Y321248D01*
Y326326D01*
X298912Y327595D01*
X295104D01*
X302721Y319978D02*
X305260D01*
X303991D01*
Y327595D01*
X302721Y326326D01*
X111922Y198809D02*
Y191191D01*
X117000D01*
X119539D02*
X122078D01*
X120809D01*
Y198809D01*
X119539Y197539D01*
X137730Y17809D02*
X135191D01*
X136461D01*
Y11461D01*
X135191Y10191D01*
X133922D01*
X132652Y11461D01*
X145348Y10191D02*
X140270D01*
X145348Y15270D01*
Y16539D01*
X144078Y17809D01*
X141539D01*
X140270Y16539D01*
X261000Y13809D02*
X258461D01*
X259730D01*
Y7461D01*
X258461Y6191D01*
X257191D01*
X255922Y7461D01*
X263539Y6191D02*
X266078D01*
X264809D01*
Y13809D01*
X263539Y12539D01*
X120748Y345809D02*
X123287D01*
X122017D01*
Y338191D01*
X120748D01*
X123287D01*
X132174Y344539D02*
X130904Y345809D01*
X128365D01*
X127096Y344539D01*
Y339461D01*
X128365Y338191D01*
X130904D01*
X132174Y339461D01*
X134713Y338191D02*
X137252D01*
X135983D01*
Y345809D01*
X134713Y344539D01*
X173556Y171539D02*
X172287Y172809D01*
X169748D01*
X168478Y171539D01*
Y166461D01*
X169748Y165191D01*
X172287D01*
X173556Y166461D01*
X176096Y165191D02*
X178635D01*
X177365D01*
Y172809D01*
X176096Y171539D01*
X187522Y165191D02*
X182444D01*
X187522Y170270D01*
Y171539D01*
X186252Y172809D01*
X183713D01*
X182444Y171539D01*
X282826Y170539D02*
X281556Y171809D01*
X279017D01*
X277748Y170539D01*
Y165461D01*
X279017Y164191D01*
X281556D01*
X282826Y165461D01*
X285365Y164191D02*
X287904D01*
X286635D01*
Y171809D01*
X285365Y170539D01*
X291713Y164191D02*
X294252D01*
X292983D01*
Y171809D01*
X291713Y170539D01*
X73556Y149539D02*
X72287Y150809D01*
X69748D01*
X68478Y149539D01*
Y144461D01*
X69748Y143191D01*
X72287D01*
X73556Y144461D01*
X76096Y143191D02*
X78635D01*
X77365D01*
Y150809D01*
X76096Y149539D01*
X82444D02*
X83713Y150809D01*
X86252D01*
X87522Y149539D01*
Y144461D01*
X86252Y143191D01*
X83713D01*
X82444Y144461D01*
Y149539D01*
X13730Y224539D02*
X12461Y225809D01*
X9922D01*
X8652Y224539D01*
Y219461D01*
X9922Y218191D01*
X12461D01*
X13730Y219461D01*
X16270D02*
X17539Y218191D01*
X20078D01*
X21348Y219461D01*
Y224539D01*
X20078Y225809D01*
X17539D01*
X16270Y224539D01*
Y223270D01*
X17539Y222000D01*
X21348D01*
X114714Y271210D02*
X113444Y272479D01*
X110905D01*
X109635Y271210D01*
Y266132D01*
X110905Y264862D01*
X113444D01*
X114714Y266132D01*
X117253Y271210D02*
X118523Y272479D01*
X121062D01*
X122331Y271210D01*
Y269940D01*
X121062Y268671D01*
X122331Y267401D01*
Y266132D01*
X121062Y264862D01*
X118523D01*
X117253Y266132D01*
Y267401D01*
X118523Y268671D01*
X117253Y269940D01*
Y271210D01*
X118523Y268671D02*
X121062D01*
X80405Y271306D02*
X79136Y272576D01*
X76597D01*
X75327Y271306D01*
Y266228D01*
X76597Y264958D01*
X79136D01*
X80405Y266228D01*
X82944Y272576D02*
X88023D01*
Y271306D01*
X82944Y266228D01*
Y264958D01*
X261642Y248110D02*
X260373Y249380D01*
X257834D01*
X256564Y248110D01*
Y243032D01*
X257834Y241762D01*
X260373D01*
X261642Y243032D01*
X269260Y249380D02*
X266721Y248110D01*
X264181Y245571D01*
Y243032D01*
X265451Y241762D01*
X267990D01*
X269260Y243032D01*
Y244301D01*
X267990Y245571D01*
X264181D01*
X333730Y162539D02*
X332461Y163809D01*
X329922D01*
X328652Y162539D01*
Y157461D01*
X329922Y156191D01*
X332461D01*
X333730Y157461D01*
X341348Y163809D02*
X336270D01*
Y160000D01*
X338809Y161270D01*
X340078D01*
X341348Y160000D01*
Y157461D01*
X340078Y156191D01*
X337539D01*
X336270Y157461D01*
X353952Y222236D02*
X352683Y223505D01*
X350144D01*
X348874Y222236D01*
Y217158D01*
X350144Y215888D01*
X352683D01*
X353952Y217158D01*
X360300Y215888D02*
Y223505D01*
X356492Y219697D01*
X361570D01*
X319554Y249142D02*
X318285Y250411D01*
X315746D01*
X314476Y249142D01*
Y244064D01*
X315746Y242794D01*
X318285D01*
X319554Y244064D01*
X322094Y249142D02*
X323363Y250411D01*
X325902D01*
X327172Y249142D01*
Y247872D01*
X325902Y246603D01*
X324633D01*
X325902D01*
X327172Y245333D01*
Y244064D01*
X325902Y242794D01*
X323363D01*
X322094Y244064D01*
X285369Y249142D02*
X284100Y250411D01*
X281561D01*
X280291Y249142D01*
Y244064D01*
X281561Y242794D01*
X284100D01*
X285369Y244064D01*
X292987Y242794D02*
X287909D01*
X292987Y247872D01*
Y249142D01*
X291717Y250411D01*
X289178D01*
X287909Y249142D01*
X171000Y76539D02*
X169730Y77809D01*
X167191D01*
X165922Y76539D01*
Y71461D01*
X167191Y70191D01*
X169730D01*
X171000Y71461D01*
X173539Y70191D02*
X176078D01*
X174809D01*
Y77809D01*
X173539Y76539D01*
M02*
