G04*
G04 #@! TF.GenerationSoftware,Altium Limited,Altium Designer,20.1.12 (249)*
G04*
G04 Layer_Color=16711935*
%FSLAX44Y44*%
%MOMM*%
G71*
G04*
G04 #@! TF.SameCoordinates,A6FFBE12-9050-4AB9-A8FC-CC0259DDA12F*
G04*
G04*
G04 #@! TF.FilePolarity,Positive*
G04*
G01*
G75*
%ADD12C,0.2000*%
%ADD44C,0.1000*%
D12*
X134000Y161482D02*
X156000D01*
X134000D02*
Y175482D01*
X156000D01*
Y161482D02*
Y175482D01*
X240628Y154500D02*
X262628D01*
Y140500D02*
Y154500D01*
X240628Y140500D02*
X262628D01*
X240628D02*
Y154500D01*
X205085D02*
X227085D01*
Y140500D02*
Y154500D01*
X205085Y140500D02*
X227085D01*
X205085D02*
Y154500D01*
X169543Y140440D02*
X191542D01*
X169543D02*
Y154440D01*
X191542D01*
Y140440D02*
Y154440D01*
X134000Y140440D02*
X156000D01*
X134000D02*
Y154440D01*
X156000D01*
Y140440D02*
Y154440D01*
X273000Y285000D02*
Y307000D01*
X259000Y285000D02*
X273000D01*
X259000D02*
Y307000D01*
X273000D01*
D44*
X159400Y234025D02*
G03*
X159400Y234025I-5000J0D01*
G01*
X352000Y146257D02*
X384000D01*
X352000D02*
Y171257D01*
X384000D01*
Y146257D02*
Y171257D01*
X248950Y190025D02*
Y337025D01*
X144850Y190025D02*
Y337025D01*
X248950D01*
X144850Y190025D02*
X248950D01*
X24773Y208500D02*
X56772D01*
Y183500D02*
Y208500D01*
X24773Y183500D02*
X56772D01*
X24773D02*
Y208500D01*
Y174258D02*
X56772D01*
Y149257D02*
Y174258D01*
X24773Y149257D02*
X56772D01*
X24773D02*
Y174258D01*
X195000Y162732D02*
Y175232D01*
Y162732D02*
X215000D01*
Y175232D01*
X195000D02*
X215000D01*
X242500Y161793D02*
Y174293D01*
Y161793D02*
X262500D01*
Y174293D01*
X242500D02*
X262500D01*
X267857Y24500D02*
Y86750D01*
X247108Y107500D02*
X267857Y86750D01*
X205607Y107500D02*
X247108D01*
X184858Y86750D02*
X205607Y107500D01*
X184858Y24500D02*
Y86750D01*
Y24500D02*
X267857D01*
X278900Y132500D02*
X390500D01*
X278900Y7500D02*
Y132500D01*
Y7500D02*
X380500D01*
X390500Y127000D02*
Y132500D01*
Y127000D02*
X395500D01*
Y106000D02*
Y127000D01*
X390500Y106000D02*
X395500D01*
X380500Y7500D02*
Y12500D01*
X390500D01*
Y18000D01*
X395500D01*
Y28500D01*
X390500D02*
X395500D01*
X390500Y106000D02*
X390500Y28500D01*
X7107Y132500D02*
X118708D01*
X7107Y7500D02*
Y132500D01*
Y7500D02*
X108708D01*
X118708Y127000D02*
Y132500D01*
Y127000D02*
X123708D01*
Y106000D02*
Y127000D01*
X118708Y106000D02*
X123708D01*
X108708Y7500D02*
Y12500D01*
X118708D01*
Y18000D01*
X123708D01*
Y28500D01*
X118708D02*
X123708D01*
X118708Y106000D02*
X118708Y28500D01*
X280042Y284500D02*
Y305500D01*
X293542Y284500D02*
Y305500D01*
X280042Y284500D02*
X293542D01*
X280042Y305500D02*
X293542D01*
X136007Y220000D02*
Y252000D01*
X111007Y220000D02*
X136007D01*
X111007D02*
Y252000D01*
X136007D01*
X101765Y220000D02*
Y252000D01*
X76765Y220000D02*
X101765D01*
X76765D02*
Y252000D01*
X101765D01*
X257092Y230000D02*
X273092D01*
X257092Y198000D02*
Y230000D01*
Y198000D02*
X273092D01*
Y230000D01*
X352570Y180500D02*
X384570D01*
X352570D02*
Y205500D01*
X384570D01*
Y180500D02*
Y205500D01*
X340878Y198000D02*
Y230000D01*
X315877Y198000D02*
X340878D01*
X315877D02*
Y230000D01*
X340878D01*
X306635Y198000D02*
Y230000D01*
X281635Y198000D02*
X306635D01*
X281635D02*
Y230000D01*
X306635D01*
M02*
