G04*
G04 #@! TF.GenerationSoftware,Altium Limited,Altium Designer,21.6.4 (81)*
G04*
G04 Layer_Physical_Order=4*
G04 Layer_Color=16711680*
%FSLAX44Y44*%
%MOMM*%
G71*
G04*
G04 #@! TF.SameCoordinates,3C3A1148-CEAA-43B7-A459-4803B486FB21*
G04*
G04*
G04 #@! TF.FilePolarity,Positive*
G04*
G01*
G75*
%ADD11C,0.2540*%
%ADD92C,0.5000*%
%ADD93C,1.0000*%
%ADD94C,1.5000*%
%ADD95R,1.5000X1.5000*%
%ADD96R,1.2000X1.2000*%
%ADD97C,1.2000*%
%ADD98O,2.6000X1.3000*%
%ADD99C,3.7160*%
%ADD100C,1.6000*%
%ADD101R,1.6000X1.6000*%
%ADD102C,1.5200*%
%ADD103R,1.5200X1.5200*%
%ADD104C,0.6000*%
%ADD105C,1.0000*%
%ADD115R,1.0000X1.0000*%
%ADD116R,1.0000X1.0000*%
%ADD117C,2.0000*%
G36*
X838249Y798730D02*
X835865Y797742D01*
X831699Y795190D01*
X827983Y792017D01*
X824810Y788301D01*
X822258Y784135D01*
X820388Y779622D01*
X819247Y774871D01*
X818864Y770000D01*
X819247Y765129D01*
X820388Y760378D01*
X822258Y755865D01*
X824810Y751699D01*
X827983Y747983D01*
X831699Y744810D01*
X835865Y742258D01*
X840378Y740388D01*
X845129Y739247D01*
X850000Y738864D01*
X854871Y739247D01*
X859622Y740388D01*
X864135Y742258D01*
X868301Y744810D01*
X872017Y747983D01*
X875190Y751699D01*
X877742Y755865D01*
X878730Y758249D01*
X880000Y757996D01*
Y699000D01*
X120000D01*
Y460754D01*
X119862Y460697D01*
X118303Y459138D01*
X117460Y457102D01*
Y454898D01*
X118303Y452862D01*
X119862Y451303D01*
X120000Y451246D01*
Y440052D01*
X119710Y439352D01*
Y437148D01*
X120000Y436448D01*
Y421802D01*
X119710Y421102D01*
Y418898D01*
X120000Y418198D01*
Y402752D01*
X119710Y402052D01*
Y399848D01*
X120000Y399148D01*
Y346160D01*
X118754Y345912D01*
X118716Y346004D01*
X116405Y349463D01*
X113463Y352405D01*
X110004Y354716D01*
X106160Y356308D01*
X102080Y357120D01*
X97920D01*
X93840Y356308D01*
X89996Y354716D01*
X86537Y352405D01*
X83595Y349463D01*
X81284Y346004D01*
X79692Y342160D01*
X78880Y338080D01*
Y333920D01*
X79692Y329840D01*
X81284Y325996D01*
X83595Y322537D01*
X86537Y319595D01*
X89996Y317284D01*
X93840Y315692D01*
X97920Y314880D01*
X102080D01*
X106160Y315692D01*
X110004Y317284D01*
X113463Y319595D01*
X116405Y322537D01*
X118716Y325996D01*
X118754Y326088D01*
X120000Y325840D01*
Y274160D01*
X118754Y273912D01*
X118716Y274004D01*
X116405Y277463D01*
X113463Y280405D01*
X110004Y282716D01*
X106160Y284308D01*
X102080Y285120D01*
X97920D01*
X93840Y284308D01*
X89996Y282716D01*
X86537Y280405D01*
X83595Y277463D01*
X81284Y274004D01*
X79692Y270161D01*
X78880Y266080D01*
Y261920D01*
X79692Y257840D01*
X81284Y253996D01*
X83595Y250537D01*
X86537Y247595D01*
X89996Y245284D01*
X93840Y243692D01*
X97920Y242880D01*
X102080D01*
X106160Y243692D01*
X110004Y245284D01*
X113463Y247595D01*
X116405Y250537D01*
X118716Y253996D01*
X118754Y254088D01*
X120000Y253840D01*
Y34000D01*
X325000D01*
Y0D01*
X42004D01*
X41751Y1270D01*
X44135Y2258D01*
X48301Y4811D01*
X52017Y7983D01*
X55189Y11699D01*
X57742Y15865D01*
X59612Y20378D01*
X60753Y25129D01*
X61136Y30000D01*
X60753Y34871D01*
X59612Y39622D01*
X57742Y44135D01*
X55189Y48301D01*
X52017Y52017D01*
X48301Y55189D01*
X44135Y57742D01*
X39622Y59612D01*
X34871Y60753D01*
X30000Y61136D01*
X25129Y60753D01*
X20378Y59612D01*
X15865Y57742D01*
X11699Y55189D01*
X7983Y52017D01*
X4811Y48301D01*
X2258Y44135D01*
X1270Y41751D01*
X0Y42004D01*
Y757996D01*
X1270Y758249D01*
X2258Y755865D01*
X4811Y751699D01*
X7983Y747983D01*
X11699Y744810D01*
X15865Y742258D01*
X20378Y740388D01*
X25129Y739247D01*
X30000Y738864D01*
X34871Y739247D01*
X39622Y740388D01*
X44135Y742258D01*
X48301Y744810D01*
X52017Y747983D01*
X55189Y751699D01*
X57742Y755865D01*
X59612Y760378D01*
X60753Y765129D01*
X61136Y770000D01*
X60753Y774871D01*
X59612Y779622D01*
X57742Y784135D01*
X55189Y788301D01*
X52017Y792017D01*
X48301Y795190D01*
X44135Y797742D01*
X41751Y798730D01*
X42004Y800000D01*
X837996D01*
X838249Y798730D01*
D02*
G37*
G36*
X726410Y529000D02*
X726607Y528009D01*
X727169Y527169D01*
X728009Y526607D01*
X729000Y526410D01*
X880000D01*
Y430590D01*
X743240D01*
Y431388D01*
X742522Y434068D01*
X741134Y436472D01*
X739172Y438434D01*
X739157Y438443D01*
Y440414D01*
X738898Y442382D01*
X738453Y443456D01*
X738138Y444216D01*
X736930Y445791D01*
X719343Y463378D01*
X717768Y464586D01*
X715934Y465346D01*
X713966Y465605D01*
X667416D01*
X650643Y482378D01*
X649068Y483586D01*
X647234Y484346D01*
X645266Y484605D01*
X636000D01*
X635506Y484540D01*
X635007D01*
X634526Y484411D01*
X634032Y484346D01*
X633571Y484155D01*
X633090Y484026D01*
X632658Y483777D01*
X632197Y483586D01*
X631802Y483283D01*
X631370Y483033D01*
X631018Y482681D01*
X630622Y482378D01*
X630319Y481982D01*
X629967Y481630D01*
X629717Y481198D01*
X629414Y480802D01*
X629223Y480342D01*
X628974Y479910D01*
X628845Y479429D01*
X628654Y478968D01*
X628589Y478474D01*
X628460Y477993D01*
Y477494D01*
X628395Y477000D01*
X628460Y476506D01*
Y476007D01*
X628589Y475526D01*
X628654Y475032D01*
X628845Y474571D01*
X628974Y474090D01*
X629223Y473658D01*
X629414Y473198D01*
X629717Y472802D01*
X629967Y472370D01*
X630319Y472018D01*
X630622Y471622D01*
X631018Y471319D01*
X631370Y470966D01*
X631802Y470717D01*
X632197Y470414D01*
X632658Y470223D01*
X633090Y469974D01*
X633571Y469845D01*
X634032Y469654D01*
X634526Y469589D01*
X635007Y469460D01*
X635506D01*
X636000Y469395D01*
X642115D01*
X658888Y452622D01*
X660463Y451414D01*
X662297Y450654D01*
X664266Y450395D01*
X710815D01*
X723947Y437263D01*
Y435919D01*
X722878Y434068D01*
X722160Y431388D01*
Y428612D01*
X722878Y425932D01*
X724266Y423528D01*
X726228Y421566D01*
X728632Y420178D01*
X731312Y419460D01*
X734088D01*
X735403Y419812D01*
X736410Y419039D01*
Y410961D01*
X735403Y410188D01*
X734088Y410540D01*
X731312D01*
X728632Y409822D01*
X726228Y408434D01*
X724266Y406472D01*
X722878Y404068D01*
X722160Y401388D01*
Y398612D01*
X722878Y395932D01*
X722973Y395767D01*
X719013Y391807D01*
X717840Y392293D01*
Y410540D01*
X696760D01*
Y389460D01*
X715007D01*
X715493Y388287D01*
X686305Y359099D01*
X685463Y357839D01*
X685167Y356352D01*
Y243948D01*
X685463Y242461D01*
X686305Y241201D01*
X693253Y234253D01*
X694513Y233411D01*
X696000Y233115D01*
X731391D01*
X738253Y226253D01*
X739513Y225411D01*
X741000Y225115D01*
X855050D01*
X855862Y224303D01*
X857898Y223460D01*
X860102D01*
X862138Y224303D01*
X863697Y225862D01*
X864353Y227447D01*
X864540Y227410D01*
X880000D01*
Y42004D01*
X878730Y41751D01*
X877742Y44135D01*
X875190Y48301D01*
X872017Y52017D01*
X868301Y55189D01*
X864135Y57742D01*
X859622Y59612D01*
X854871Y60753D01*
X850000Y61136D01*
X845129Y60753D01*
X840378Y59612D01*
X835865Y57742D01*
X831699Y55189D01*
X827983Y52017D01*
X824810Y48301D01*
X822258Y44135D01*
X820388Y39622D01*
X819247Y34871D01*
X818864Y30000D01*
X819247Y25129D01*
X820388Y20378D01*
X822258Y15865D01*
X824810Y11699D01*
X827983Y7983D01*
X831699Y4811D01*
X835865Y2258D01*
X838249Y1270D01*
X837996Y0D01*
X327031D01*
X326972Y35877D01*
X327110Y36084D01*
X327388Y36500D01*
X327388Y36501D01*
X327388Y36502D01*
X327486Y36999D01*
X327584Y37491D01*
X327584Y37492D01*
X327584Y37493D01*
X326688Y553385D01*
X327861Y553872D01*
X335902Y545831D01*
X336303Y544862D01*
X337862Y543303D01*
X339898Y542460D01*
X342102D01*
X344138Y543303D01*
X345697Y544862D01*
X346540Y546898D01*
Y549102D01*
X345697Y551138D01*
X344138Y552697D01*
X343169Y553098D01*
X326096Y570171D01*
X326093Y572330D01*
X326181Y572463D01*
X326456Y572875D01*
X326456Y572877D01*
X326457Y572878D01*
X326557Y573386D01*
X326652Y573867D01*
X326652Y573868D01*
X326652Y573869D01*
X326596Y606511D01*
X327493Y607410D01*
X726410D01*
Y529000D01*
D02*
G37*
G36*
X880000D02*
X729000D01*
Y610000D01*
X324000D01*
X324063Y573864D01*
X322890Y573377D01*
X318634Y577634D01*
X316966Y578748D01*
X315000Y579139D01*
X296786D01*
X296533Y580409D01*
X298138Y581073D01*
X299697Y582632D01*
X300540Y584668D01*
Y586872D01*
X299697Y588908D01*
X298138Y590467D01*
X296102Y591310D01*
X293898D01*
X291862Y590467D01*
X290303Y588908D01*
X289460Y586872D01*
Y584668D01*
X290303Y582632D01*
X291862Y581073D01*
X293466Y580409D01*
X293214Y579139D01*
X217071D01*
X216102Y579540D01*
X213898D01*
X211862Y578697D01*
X210303Y577138D01*
X209460Y575102D01*
Y572898D01*
X210303Y570862D01*
X211862Y569303D01*
X213898Y568460D01*
X216102D01*
X217071Y568861D01*
X312871D01*
X324091Y557642D01*
X324994Y37489D01*
X324097Y36590D01*
X122590D01*
Y112755D01*
X122697Y112862D01*
X123540Y114898D01*
Y117102D01*
X122697Y119138D01*
X122590Y119245D01*
Y147550D01*
X123460Y148460D01*
X123860Y148460D01*
X138540D01*
Y163540D01*
X123860D01*
X123460Y163540D01*
X122590Y164450D01*
Y253840D01*
X122540Y254090D01*
Y254345D01*
X122442Y254581D01*
X122393Y254831D01*
X122251Y255043D01*
X122153Y255279D01*
X121973Y255459D01*
X121831Y255671D01*
X121619Y255813D01*
X121439Y255993D01*
X121203Y256091D01*
X120991Y256233D01*
X120829Y256265D01*
X120597Y256615D01*
X120365Y257149D01*
X120260Y257724D01*
X120308Y257840D01*
X121120Y261920D01*
Y266080D01*
X120308Y270161D01*
X120260Y270276D01*
X120365Y270851D01*
X120597Y271385D01*
X120829Y271735D01*
X120991Y271767D01*
X121203Y271909D01*
X121439Y272006D01*
X121619Y272187D01*
X121831Y272329D01*
X121973Y272541D01*
X122153Y272721D01*
X122251Y272957D01*
X122393Y273169D01*
X122442Y273419D01*
X122540Y273655D01*
Y273910D01*
X122590Y274160D01*
Y325840D01*
X122540Y326090D01*
Y326345D01*
X122442Y326581D01*
X122393Y326831D01*
X122251Y327043D01*
X122153Y327279D01*
X121973Y327459D01*
X121831Y327671D01*
X121619Y327813D01*
X121439Y327994D01*
X121203Y328091D01*
X120991Y328233D01*
X120829Y328265D01*
X120597Y328615D01*
X120365Y329149D01*
X120260Y329724D01*
X120308Y329840D01*
X121120Y333920D01*
Y338080D01*
X120308Y342160D01*
X120260Y342276D01*
X120365Y342851D01*
X120597Y343385D01*
X120829Y343735D01*
X120991Y343767D01*
X121203Y343909D01*
X121439Y344007D01*
X121619Y344187D01*
X121831Y344329D01*
X121973Y344541D01*
X122153Y344721D01*
X122251Y344957D01*
X122393Y345169D01*
X122442Y345419D01*
X122540Y345655D01*
Y345910D01*
X122590Y346160D01*
Y399148D01*
X122393Y400139D01*
X122300Y400363D01*
Y401537D01*
X122393Y401761D01*
X122590Y402752D01*
Y418198D01*
X122393Y419189D01*
X122300Y419413D01*
Y420587D01*
X122393Y420811D01*
X122590Y421802D01*
Y436448D01*
X122393Y437439D01*
X122300Y437663D01*
Y438837D01*
X122393Y439061D01*
X122590Y440052D01*
Y451246D01*
X122590Y451246D01*
X122590Y451246D01*
X122492Y451739D01*
X122393Y452237D01*
X122393Y452237D01*
X122393Y452237D01*
X122136Y452622D01*
X121831Y453078D01*
X121831Y453078D01*
X121831Y453078D01*
X121587Y453241D01*
X120499Y454329D01*
X120050Y455413D01*
Y456587D01*
X120499Y457671D01*
X121587Y458759D01*
X121831Y458922D01*
X121831Y458923D01*
X121831Y458923D01*
X122136Y459378D01*
X122393Y459763D01*
X122393Y459763D01*
X122393Y459763D01*
X122492Y460261D01*
X122590Y460754D01*
X122590Y460754D01*
X122590Y460754D01*
Y696410D01*
X880000D01*
Y529000D01*
D02*
G37*
G36*
X728632Y390178D02*
X731312Y389460D01*
X734088D01*
X735403Y389812D01*
X736410Y389039D01*
Y240831D01*
X735140Y240152D01*
X734487Y240589D01*
X733000Y240885D01*
X697609D01*
X692937Y245557D01*
Y354743D01*
X728467Y390273D01*
X728632Y390178D01*
D02*
G37*
G36*
X880000Y230000D02*
X864540D01*
Y230102D01*
X863697Y232138D01*
X862138Y233697D01*
X860102Y234540D01*
X857898D01*
X855862Y233697D01*
X855050Y232885D01*
X742609D01*
X739000Y236494D01*
Y391467D01*
X739172Y391566D01*
X741134Y393528D01*
X742522Y395932D01*
X743240Y398612D01*
Y401388D01*
X742522Y404068D01*
X741134Y406472D01*
X739172Y408434D01*
X739000Y408533D01*
Y421467D01*
X739172Y421566D01*
X741134Y423528D01*
X742522Y425932D01*
X743076Y428000D01*
X880000D01*
Y230000D01*
D02*
G37*
%LPC*%
G36*
X107102Y461540D02*
X104898D01*
X102862Y460697D01*
X101303Y459138D01*
X100460Y457102D01*
Y454898D01*
X101303Y452862D01*
X102862Y451303D01*
X104898Y450460D01*
X107102D01*
X109138Y451303D01*
X110697Y452862D01*
X111540Y454898D01*
Y457102D01*
X110697Y459138D01*
X109138Y460697D01*
X107102Y461540D01*
D02*
G37*
G36*
Y443540D02*
X104898D01*
X102862Y442697D01*
X101303Y441138D01*
X100460Y439102D01*
Y436898D01*
X101303Y434862D01*
X102862Y433303D01*
X104898Y432460D01*
X107102D01*
X109138Y433303D01*
X110697Y434862D01*
X111540Y436898D01*
Y439102D01*
X110697Y441138D01*
X109138Y442697D01*
X107102Y443540D01*
D02*
G37*
G36*
X90102D02*
X87898D01*
X85862Y442697D01*
X84303Y441138D01*
X83460Y439102D01*
Y436898D01*
X84303Y434862D01*
X85862Y433303D01*
X87898Y432460D01*
X90102D01*
X92138Y433303D01*
X93697Y434862D01*
X94540Y436898D01*
Y439102D01*
X93697Y441138D01*
X92138Y442697D01*
X90102Y443540D01*
D02*
G37*
G36*
X74102D02*
X71898D01*
X69862Y442697D01*
X68303Y441138D01*
X67460Y439102D01*
Y436898D01*
X68303Y434862D01*
X69862Y433303D01*
X71898Y432460D01*
X74102D01*
X76138Y433303D01*
X77697Y434862D01*
X78540Y436898D01*
Y439102D01*
X77697Y441138D01*
X76138Y442697D01*
X74102Y443540D01*
D02*
G37*
G36*
X58102D02*
X55898D01*
X53862Y442697D01*
X52303Y441138D01*
X51460Y439102D01*
Y436898D01*
X52303Y434862D01*
X53862Y433303D01*
X55898Y432460D01*
X58102D01*
X60138Y433303D01*
X61697Y434862D01*
X62540Y436898D01*
Y439102D01*
X61697Y441138D01*
X60138Y442697D01*
X58102Y443540D01*
D02*
G37*
G36*
X107102Y427540D02*
X104898D01*
X102862Y426697D01*
X101303Y425138D01*
X100460Y423102D01*
Y420898D01*
X101303Y418862D01*
X102862Y417303D01*
X104898Y416460D01*
X107102D01*
X109138Y417303D01*
X110697Y418862D01*
X111540Y420898D01*
Y423102D01*
X110697Y425138D01*
X109138Y426697D01*
X107102Y427540D01*
D02*
G37*
G36*
Y410540D02*
X104898D01*
X102862Y409697D01*
X101303Y408138D01*
X100460Y406102D01*
Y403898D01*
X101303Y401862D01*
X102862Y400303D01*
X104898Y399460D01*
X107102D01*
X109138Y400303D01*
X110697Y401862D01*
X111540Y403898D01*
Y406102D01*
X110697Y408138D01*
X109138Y409697D01*
X107102Y410540D01*
D02*
G37*
G36*
X46500Y376618D02*
X33500D01*
X31140Y376307D01*
X28941Y375396D01*
X27053Y373947D01*
X25604Y372059D01*
X24693Y369860D01*
X24382Y367500D01*
X24693Y365140D01*
X25604Y362941D01*
X27053Y361053D01*
X28941Y359604D01*
X31140Y358693D01*
X33500Y358382D01*
X46500D01*
X48860Y358693D01*
X51059Y359604D01*
X52947Y361053D01*
X54396Y362941D01*
X55307Y365140D01*
X55618Y367500D01*
X55307Y369860D01*
X54396Y372059D01*
X52947Y373947D01*
X51059Y375396D01*
X48860Y376307D01*
X46500Y376618D01*
D02*
G37*
G36*
Y241618D02*
X33500D01*
X31140Y241307D01*
X28941Y240396D01*
X27053Y238947D01*
X25604Y237059D01*
X24693Y234860D01*
X24382Y232500D01*
X24693Y230140D01*
X25604Y227941D01*
X27053Y226053D01*
X28941Y224604D01*
X31140Y223693D01*
X33500Y223382D01*
X46500D01*
X48860Y223693D01*
X51059Y224604D01*
X52947Y226053D01*
X54396Y227941D01*
X55307Y230140D01*
X55618Y232500D01*
X55307Y234860D01*
X54396Y237059D01*
X52947Y238947D01*
X51059Y240396D01*
X48860Y241307D01*
X46500Y241618D01*
D02*
G37*
G36*
X60102Y186540D02*
X57898D01*
X55862Y185697D01*
X54303Y184138D01*
X53460Y182102D01*
Y179898D01*
X54303Y177862D01*
X55862Y176303D01*
X57898Y175460D01*
X60102D01*
X62138Y176303D01*
X63697Y177862D01*
X64540Y179898D01*
Y182102D01*
X63697Y184138D01*
X62138Y185697D01*
X60102Y186540D01*
D02*
G37*
G36*
X94102Y169540D02*
X91898D01*
X89862Y168697D01*
X88303Y167138D01*
X87460Y165102D01*
Y162898D01*
X88303Y160862D01*
X89862Y159303D01*
X91898Y158460D01*
X94102D01*
X96138Y159303D01*
X97697Y160862D01*
X98540Y162898D01*
Y165102D01*
X97697Y167138D01*
X96138Y168697D01*
X94102Y169540D01*
D02*
G37*
G36*
X77102D02*
X74898D01*
X72862Y168697D01*
X71303Y167138D01*
X70460Y165102D01*
Y162898D01*
X71303Y160862D01*
X72862Y159303D01*
X74898Y158460D01*
X77102D01*
X79138Y159303D01*
X80697Y160862D01*
X81540Y162898D01*
Y165102D01*
X80697Y167138D01*
X79138Y168697D01*
X77102Y169540D01*
D02*
G37*
G36*
X60102D02*
X57898D01*
X55862Y168697D01*
X54303Y167138D01*
X53460Y165102D01*
Y162898D01*
X54303Y160862D01*
X55862Y159303D01*
X57898Y158460D01*
X60102D01*
X62138Y159303D01*
X63697Y160862D01*
X64540Y162898D01*
Y165102D01*
X63697Y167138D01*
X62138Y168697D01*
X60102Y169540D01*
D02*
G37*
G36*
X719159Y593033D02*
X716955D01*
X714919Y592189D01*
X713361Y590631D01*
X712517Y588595D01*
Y586391D01*
X713361Y584354D01*
X714919Y582796D01*
X716955Y581953D01*
X719159D01*
X721196Y582796D01*
X722754Y584354D01*
X723597Y586391D01*
Y588595D01*
X722754Y590631D01*
X721196Y592189D01*
X719159Y593033D01*
D02*
G37*
G36*
X704159D02*
X701955D01*
X699919Y592189D01*
X698361Y590631D01*
X697517Y588595D01*
Y586391D01*
X698361Y584354D01*
X699919Y582796D01*
X701955Y581953D01*
X704159D01*
X706196Y582796D01*
X707754Y584354D01*
X708597Y586391D01*
Y588595D01*
X707754Y590631D01*
X706196Y592189D01*
X704159Y593033D01*
D02*
G37*
G36*
X684159D02*
X681955D01*
X679919Y592189D01*
X678361Y590631D01*
X677517Y588595D01*
Y586391D01*
X678361Y584354D01*
X679919Y582796D01*
X681955Y581953D01*
X684159D01*
X686196Y582796D01*
X687754Y584354D01*
X688597Y586391D01*
Y588595D01*
X687754Y590631D01*
X686196Y592189D01*
X684159Y593033D01*
D02*
G37*
G36*
X664159D02*
X661955D01*
X659919Y592189D01*
X658361Y590631D01*
X657517Y588595D01*
Y586391D01*
X658361Y584354D01*
X659919Y582796D01*
X661955Y581953D01*
X664159D01*
X666196Y582796D01*
X667754Y584354D01*
X668597Y586391D01*
Y588595D01*
X667754Y590631D01*
X666196Y592189D01*
X664159Y593033D01*
D02*
G37*
G36*
X649159D02*
X646955D01*
X644919Y592189D01*
X643361Y590631D01*
X642517Y588595D01*
Y586391D01*
X643361Y584354D01*
X644919Y582796D01*
X646955Y581953D01*
X649159D01*
X651196Y582796D01*
X652754Y584354D01*
X653597Y586391D01*
Y588595D01*
X652754Y590631D01*
X651196Y592189D01*
X649159Y593033D01*
D02*
G37*
G36*
X719159Y578033D02*
X716955D01*
X714919Y577189D01*
X713361Y575631D01*
X712517Y573595D01*
Y571391D01*
X713361Y569354D01*
X714919Y567796D01*
X716955Y566953D01*
X719159D01*
X721196Y567796D01*
X722754Y569354D01*
X723597Y571391D01*
Y573595D01*
X722754Y575631D01*
X721196Y577189D01*
X719159Y578033D01*
D02*
G37*
G36*
X704159D02*
X701955D01*
X699919Y577189D01*
X698361Y575631D01*
X697517Y573595D01*
Y571391D01*
X698361Y569354D01*
X699919Y567796D01*
X701955Y566953D01*
X704159D01*
X706196Y567796D01*
X707754Y569354D01*
X708597Y571391D01*
Y573595D01*
X707754Y575631D01*
X706196Y577189D01*
X704159Y578033D01*
D02*
G37*
G36*
X684159D02*
X681955D01*
X679919Y577189D01*
X678361Y575631D01*
X677517Y573595D01*
Y571391D01*
X678361Y569354D01*
X679919Y567796D01*
X681955Y566953D01*
X684159D01*
X686196Y567796D01*
X687754Y569354D01*
X688597Y571391D01*
Y573595D01*
X687754Y575631D01*
X686196Y577189D01*
X684159Y578033D01*
D02*
G37*
G36*
X664159D02*
X661955D01*
X659919Y577189D01*
X658361Y575631D01*
X657517Y573595D01*
Y571391D01*
X658361Y569354D01*
X659919Y567796D01*
X661955Y566953D01*
X664159D01*
X666196Y567796D01*
X667754Y569354D01*
X668597Y571391D01*
Y573595D01*
X667754Y575631D01*
X666196Y577189D01*
X664159Y578033D01*
D02*
G37*
G36*
X649159D02*
X646955D01*
X644919Y577189D01*
X643361Y575631D01*
X642517Y573595D01*
Y571391D01*
X643361Y569354D01*
X644919Y567796D01*
X646955Y566953D01*
X649159D01*
X651196Y567796D01*
X652754Y569354D01*
X653597Y571391D01*
Y573595D01*
X652754Y575631D01*
X651196Y577189D01*
X649159Y578033D01*
D02*
G37*
G36*
X719159Y563033D02*
X716955D01*
X714919Y562189D01*
X713361Y560631D01*
X712517Y558595D01*
Y556391D01*
X713361Y554354D01*
X714919Y552796D01*
X716955Y551953D01*
X719159D01*
X721196Y552796D01*
X722754Y554354D01*
X723597Y556391D01*
Y558595D01*
X722754Y560631D01*
X721196Y562189D01*
X719159Y563033D01*
D02*
G37*
G36*
X704159D02*
X701955D01*
X699919Y562189D01*
X698361Y560631D01*
X697517Y558595D01*
Y556391D01*
X698361Y554354D01*
X699919Y552796D01*
X701955Y551953D01*
X704159D01*
X706196Y552796D01*
X707754Y554354D01*
X708597Y556391D01*
Y558595D01*
X707754Y560631D01*
X706196Y562189D01*
X704159Y563033D01*
D02*
G37*
G36*
X684159D02*
X681955D01*
X679919Y562189D01*
X678361Y560631D01*
X677517Y558595D01*
Y556391D01*
X678361Y554354D01*
X679919Y552796D01*
X681955Y551953D01*
X684159D01*
X686196Y552796D01*
X687754Y554354D01*
X688597Y556391D01*
Y558595D01*
X687754Y560631D01*
X686196Y562189D01*
X684159Y563033D01*
D02*
G37*
G36*
X664159D02*
X661955D01*
X659919Y562189D01*
X658361Y560631D01*
X657517Y558595D01*
Y556391D01*
X658361Y554354D01*
X659919Y552796D01*
X661955Y551953D01*
X664159D01*
X666196Y552796D01*
X667754Y554354D01*
X668597Y556391D01*
Y558595D01*
X667754Y560631D01*
X666196Y562189D01*
X664159Y563033D01*
D02*
G37*
G36*
X649159D02*
X646955D01*
X644919Y562189D01*
X643361Y560631D01*
X642517Y558595D01*
Y556391D01*
X643361Y554354D01*
X644919Y552796D01*
X646955Y551953D01*
X649159D01*
X651196Y552796D01*
X652754Y554354D01*
X653597Y556391D01*
Y558595D01*
X652754Y560631D01*
X651196Y562189D01*
X649159Y563033D01*
D02*
G37*
G36*
X719159Y548033D02*
X716955D01*
X714919Y547189D01*
X713361Y545631D01*
X712517Y543595D01*
Y541391D01*
X713361Y539354D01*
X714919Y537796D01*
X716955Y536953D01*
X719159D01*
X721196Y537796D01*
X722754Y539354D01*
X723597Y541391D01*
Y543595D01*
X722754Y545631D01*
X721196Y547189D01*
X719159Y548033D01*
D02*
G37*
G36*
X704159D02*
X701955D01*
X699919Y547189D01*
X698361Y545631D01*
X697517Y543595D01*
Y541391D01*
X698361Y539354D01*
X699919Y537796D01*
X701955Y536953D01*
X704159D01*
X706196Y537796D01*
X707754Y539354D01*
X708597Y541391D01*
Y543595D01*
X707754Y545631D01*
X706196Y547189D01*
X704159Y548033D01*
D02*
G37*
G36*
X684159D02*
X681955D01*
X679919Y547189D01*
X678361Y545631D01*
X677517Y543595D01*
Y541391D01*
X678361Y539354D01*
X679919Y537796D01*
X681955Y536953D01*
X684159D01*
X686196Y537796D01*
X687754Y539354D01*
X688597Y541391D01*
Y543595D01*
X687754Y545631D01*
X686196Y547189D01*
X684159Y548033D01*
D02*
G37*
G36*
X664159D02*
X661955D01*
X659919Y547189D01*
X658361Y545631D01*
X657517Y543595D01*
Y541391D01*
X658361Y539354D01*
X659919Y537796D01*
X661955Y536953D01*
X664159D01*
X666196Y537796D01*
X667754Y539354D01*
X668597Y541391D01*
Y543595D01*
X667754Y545631D01*
X666196Y547189D01*
X664159Y548033D01*
D02*
G37*
G36*
X649159D02*
X646955D01*
X644919Y547189D01*
X643361Y545631D01*
X642517Y543595D01*
Y541391D01*
X643361Y539354D01*
X644919Y537796D01*
X646955Y536953D01*
X649159D01*
X651196Y537796D01*
X652754Y539354D01*
X653597Y541391D01*
Y543595D01*
X652754Y545631D01*
X651196Y547189D01*
X649159Y548033D01*
D02*
G37*
G36*
X588540Y548540D02*
X571460D01*
Y531460D01*
X588540D01*
Y548540D01*
D02*
G37*
G36*
X719159Y533033D02*
X716955D01*
X714919Y532189D01*
X713361Y530631D01*
X712517Y528595D01*
Y526391D01*
X713361Y524354D01*
X714919Y522796D01*
X716955Y521953D01*
X719159D01*
X721196Y522796D01*
X722754Y524354D01*
X723597Y526391D01*
Y528595D01*
X722754Y530631D01*
X721196Y532189D01*
X719159Y533033D01*
D02*
G37*
G36*
X704159D02*
X701955D01*
X699919Y532189D01*
X698361Y530631D01*
X697517Y528595D01*
Y526391D01*
X698361Y524354D01*
X699919Y522796D01*
X701955Y521953D01*
X704159D01*
X706196Y522796D01*
X707754Y524354D01*
X708597Y526391D01*
Y528595D01*
X707754Y530631D01*
X706196Y532189D01*
X704159Y533033D01*
D02*
G37*
G36*
X684159D02*
X681955D01*
X679919Y532189D01*
X678361Y530631D01*
X677517Y528595D01*
Y526391D01*
X678361Y524354D01*
X679919Y522796D01*
X681955Y521953D01*
X684159D01*
X686196Y522796D01*
X687754Y524354D01*
X688597Y526391D01*
Y528595D01*
X687754Y530631D01*
X686196Y532189D01*
X684159Y533033D01*
D02*
G37*
G36*
X664159D02*
X661955D01*
X659919Y532189D01*
X658361Y530631D01*
X657517Y528595D01*
Y526391D01*
X658361Y524354D01*
X659919Y522796D01*
X661955Y521953D01*
X664159D01*
X666196Y522796D01*
X667754Y524354D01*
X668597Y526391D01*
Y528595D01*
X667754Y530631D01*
X666196Y532189D01*
X664159Y533033D01*
D02*
G37*
G36*
X649159D02*
X646955D01*
X644919Y532189D01*
X643361Y530631D01*
X642517Y528595D01*
Y526391D01*
X643361Y524354D01*
X644919Y522796D01*
X646955Y521953D01*
X649159D01*
X651196Y522796D01*
X652754Y524354D01*
X653597Y526391D01*
Y528595D01*
X652754Y530631D01*
X651196Y532189D01*
X649159Y533033D01*
D02*
G37*
G36*
X719159Y520033D02*
X716955D01*
X714919Y519189D01*
X713361Y517631D01*
X712517Y515594D01*
Y513391D01*
X713361Y511354D01*
X714919Y509796D01*
X716955Y508953D01*
X719159D01*
X721196Y509796D01*
X722754Y511354D01*
X723597Y513391D01*
Y515594D01*
X722754Y517631D01*
X721196Y519189D01*
X719159Y520033D01*
D02*
G37*
G36*
X704159D02*
X701955D01*
X699919Y519189D01*
X698361Y517631D01*
X697517Y515594D01*
Y513391D01*
X698361Y511354D01*
X699919Y509796D01*
X701955Y508953D01*
X704159D01*
X706196Y509796D01*
X707754Y511354D01*
X708597Y513391D01*
Y515594D01*
X707754Y517631D01*
X706196Y519189D01*
X704159Y520033D01*
D02*
G37*
G36*
X684159D02*
X681955D01*
X679919Y519189D01*
X678361Y517631D01*
X677517Y515594D01*
Y513391D01*
X678361Y511354D01*
X679919Y509796D01*
X681955Y508953D01*
X684159D01*
X686196Y509796D01*
X687754Y511354D01*
X688597Y513391D01*
Y515594D01*
X687754Y517631D01*
X686196Y519189D01*
X684159Y520033D01*
D02*
G37*
G36*
X664159D02*
X661955D01*
X659919Y519189D01*
X658361Y517631D01*
X657517Y515594D01*
Y513391D01*
X658361Y511354D01*
X659919Y509796D01*
X661955Y508953D01*
X664159D01*
X666196Y509796D01*
X667754Y511354D01*
X668597Y513391D01*
Y515594D01*
X667754Y517631D01*
X666196Y519189D01*
X664159Y520033D01*
D02*
G37*
G36*
X649159D02*
X646955D01*
X644919Y519189D01*
X643361Y517631D01*
X642517Y515594D01*
Y513391D01*
X643361Y511354D01*
X644919Y509796D01*
X646955Y508953D01*
X649159D01*
X651196Y509796D01*
X652754Y511354D01*
X653597Y513391D01*
Y515594D01*
X652754Y517631D01*
X651196Y519189D01*
X649159Y520033D01*
D02*
G37*
G36*
X717840Y440540D02*
X696760D01*
Y419460D01*
X717840D01*
Y440540D01*
D02*
G37*
G36*
X677560Y383540D02*
X675356D01*
X673319Y382697D01*
X671761Y381138D01*
X670918Y379102D01*
Y376898D01*
X671761Y374862D01*
X673319Y373303D01*
X675356Y372460D01*
X677560D01*
X679596Y373303D01*
X681154Y374862D01*
X681998Y376898D01*
Y379102D01*
X681154Y381138D01*
X679596Y382697D01*
X677560Y383540D01*
D02*
G37*
G36*
X662560D02*
X660356D01*
X658319Y382697D01*
X656761Y381138D01*
X655918Y379102D01*
Y376898D01*
X656761Y374862D01*
X658319Y373303D01*
X660356Y372460D01*
X662560D01*
X664596Y373303D01*
X666154Y374862D01*
X666998Y376898D01*
Y379102D01*
X666154Y381138D01*
X664596Y382697D01*
X662560Y383540D01*
D02*
G37*
G36*
X642559D02*
X640356D01*
X638319Y382697D01*
X636761Y381138D01*
X635918Y379102D01*
Y376898D01*
X636761Y374862D01*
X638319Y373303D01*
X640356Y372460D01*
X642559D01*
X644596Y373303D01*
X646154Y374862D01*
X646998Y376898D01*
Y379102D01*
X646154Y381138D01*
X644596Y382697D01*
X642559Y383540D01*
D02*
G37*
G36*
X622559D02*
X620355D01*
X618319Y382697D01*
X616761Y381138D01*
X615918Y379102D01*
Y376898D01*
X616761Y374862D01*
X618319Y373303D01*
X620355Y372460D01*
X622559D01*
X624596Y373303D01*
X626154Y374862D01*
X626997Y376898D01*
Y379102D01*
X626154Y381138D01*
X624596Y382697D01*
X622559Y383540D01*
D02*
G37*
G36*
X607559D02*
X605355D01*
X603319Y382697D01*
X601761Y381138D01*
X600918Y379102D01*
Y376898D01*
X601761Y374862D01*
X603319Y373303D01*
X605355Y372460D01*
X607559D01*
X609596Y373303D01*
X611154Y374862D01*
X611997Y376898D01*
Y379102D01*
X611154Y381138D01*
X609596Y382697D01*
X607559Y383540D01*
D02*
G37*
G36*
X677560Y370540D02*
X675356D01*
X673319Y369697D01*
X671761Y368138D01*
X670918Y366102D01*
Y363898D01*
X671761Y361862D01*
X673319Y360303D01*
X675356Y359460D01*
X677560D01*
X679596Y360303D01*
X681154Y361862D01*
X681998Y363898D01*
Y366102D01*
X681154Y368138D01*
X679596Y369697D01*
X677560Y370540D01*
D02*
G37*
G36*
X662560D02*
X660356D01*
X658319Y369697D01*
X656761Y368138D01*
X655918Y366102D01*
Y363898D01*
X656761Y361862D01*
X658319Y360303D01*
X660356Y359460D01*
X662560D01*
X664596Y360303D01*
X666154Y361862D01*
X666998Y363898D01*
Y366102D01*
X666154Y368138D01*
X664596Y369697D01*
X662560Y370540D01*
D02*
G37*
G36*
X642559D02*
X640356D01*
X638319Y369697D01*
X636761Y368138D01*
X635918Y366102D01*
Y363898D01*
X636761Y361862D01*
X638319Y360303D01*
X640356Y359460D01*
X642559D01*
X644596Y360303D01*
X646154Y361862D01*
X646998Y363898D01*
Y366102D01*
X646154Y368138D01*
X644596Y369697D01*
X642559Y370540D01*
D02*
G37*
G36*
X622559D02*
X620355D01*
X618319Y369697D01*
X616761Y368138D01*
X615918Y366102D01*
Y363898D01*
X616761Y361862D01*
X618319Y360303D01*
X620355Y359460D01*
X622559D01*
X624596Y360303D01*
X626154Y361862D01*
X626997Y363898D01*
Y366102D01*
X626154Y368138D01*
X624596Y369697D01*
X622559Y370540D01*
D02*
G37*
G36*
X607559D02*
X605355D01*
X603319Y369697D01*
X601761Y368138D01*
X600918Y366102D01*
Y363898D01*
X601761Y361862D01*
X603319Y360303D01*
X605355Y359460D01*
X607559D01*
X609596Y360303D01*
X611154Y361862D01*
X611997Y363898D01*
Y366102D01*
X611154Y368138D01*
X609596Y369697D01*
X607559Y370540D01*
D02*
G37*
G36*
X677560Y355540D02*
X675356D01*
X673319Y354697D01*
X671761Y353138D01*
X670918Y351102D01*
Y348898D01*
X671761Y346862D01*
X673319Y345303D01*
X675356Y344460D01*
X677560D01*
X679596Y345303D01*
X681154Y346862D01*
X681998Y348898D01*
Y351102D01*
X681154Y353138D01*
X679596Y354697D01*
X677560Y355540D01*
D02*
G37*
G36*
X662560D02*
X660356D01*
X658319Y354697D01*
X656761Y353138D01*
X655918Y351102D01*
Y348898D01*
X656761Y346862D01*
X658319Y345303D01*
X660356Y344460D01*
X662560D01*
X664596Y345303D01*
X666154Y346862D01*
X666998Y348898D01*
Y351102D01*
X666154Y353138D01*
X664596Y354697D01*
X662560Y355540D01*
D02*
G37*
G36*
X642559D02*
X640356D01*
X638319Y354697D01*
X636761Y353138D01*
X635918Y351102D01*
Y348898D01*
X636761Y346862D01*
X638319Y345303D01*
X640356Y344460D01*
X642559D01*
X644596Y345303D01*
X646154Y346862D01*
X646998Y348898D01*
Y351102D01*
X646154Y353138D01*
X644596Y354697D01*
X642559Y355540D01*
D02*
G37*
G36*
X622559D02*
X620355D01*
X618319Y354697D01*
X616761Y353138D01*
X615918Y351102D01*
Y348898D01*
X616761Y346862D01*
X618319Y345303D01*
X620355Y344460D01*
X622559D01*
X624596Y345303D01*
X626154Y346862D01*
X626997Y348898D01*
Y351102D01*
X626154Y353138D01*
X624596Y354697D01*
X622559Y355540D01*
D02*
G37*
G36*
X607559D02*
X605355D01*
X603319Y354697D01*
X601761Y353138D01*
X600918Y351102D01*
Y348898D01*
X601761Y346862D01*
X603319Y345303D01*
X605355Y344460D01*
X607559D01*
X609596Y345303D01*
X611154Y346862D01*
X611997Y348898D01*
Y351102D01*
X611154Y353138D01*
X609596Y354697D01*
X607559Y355540D01*
D02*
G37*
G36*
X677560Y340540D02*
X675356D01*
X673319Y339697D01*
X671761Y338138D01*
X670918Y336102D01*
Y333898D01*
X671761Y331862D01*
X673319Y330303D01*
X675356Y329460D01*
X677560D01*
X679596Y330303D01*
X681154Y331862D01*
X681998Y333898D01*
Y336102D01*
X681154Y338138D01*
X679596Y339697D01*
X677560Y340540D01*
D02*
G37*
G36*
X662560D02*
X660356D01*
X658319Y339697D01*
X656761Y338138D01*
X655918Y336102D01*
Y333898D01*
X656761Y331862D01*
X658319Y330303D01*
X660356Y329460D01*
X662560D01*
X664596Y330303D01*
X666154Y331862D01*
X666998Y333898D01*
Y336102D01*
X666154Y338138D01*
X664596Y339697D01*
X662560Y340540D01*
D02*
G37*
G36*
X642559D02*
X640356D01*
X638319Y339697D01*
X636761Y338138D01*
X635918Y336102D01*
Y333898D01*
X636761Y331862D01*
X638319Y330303D01*
X640356Y329460D01*
X642559D01*
X644596Y330303D01*
X646154Y331862D01*
X646998Y333898D01*
Y336102D01*
X646154Y338138D01*
X644596Y339697D01*
X642559Y340540D01*
D02*
G37*
G36*
X622559D02*
X620355D01*
X618319Y339697D01*
X616761Y338138D01*
X615918Y336102D01*
Y333898D01*
X616761Y331862D01*
X618319Y330303D01*
X620355Y329460D01*
X622559D01*
X624596Y330303D01*
X626154Y331862D01*
X626997Y333898D01*
Y336102D01*
X626154Y338138D01*
X624596Y339697D01*
X622559Y340540D01*
D02*
G37*
G36*
X607559D02*
X605355D01*
X603319Y339697D01*
X601761Y338138D01*
X600918Y336102D01*
Y333898D01*
X601761Y331862D01*
X603319Y330303D01*
X605355Y329460D01*
X607559D01*
X609596Y330303D01*
X611154Y331862D01*
X611997Y333898D01*
Y336102D01*
X611154Y338138D01*
X609596Y339697D01*
X607559Y340540D01*
D02*
G37*
G36*
X677560Y325540D02*
X675356D01*
X673319Y324697D01*
X671761Y323138D01*
X670918Y321102D01*
Y318898D01*
X671761Y316862D01*
X673319Y315303D01*
X675356Y314460D01*
X677560D01*
X679596Y315303D01*
X681154Y316862D01*
X681998Y318898D01*
Y321102D01*
X681154Y323138D01*
X679596Y324697D01*
X677560Y325540D01*
D02*
G37*
G36*
X662560D02*
X660356D01*
X658319Y324697D01*
X656761Y323138D01*
X655918Y321102D01*
Y318898D01*
X656761Y316862D01*
X658319Y315303D01*
X660356Y314460D01*
X662560D01*
X664596Y315303D01*
X666154Y316862D01*
X666998Y318898D01*
Y321102D01*
X666154Y323138D01*
X664596Y324697D01*
X662560Y325540D01*
D02*
G37*
G36*
X642559D02*
X640356D01*
X638319Y324697D01*
X636761Y323138D01*
X635918Y321102D01*
Y318898D01*
X636761Y316862D01*
X638319Y315303D01*
X640356Y314460D01*
X642559D01*
X644596Y315303D01*
X646154Y316862D01*
X646998Y318898D01*
Y321102D01*
X646154Y323138D01*
X644596Y324697D01*
X642559Y325540D01*
D02*
G37*
G36*
X622559D02*
X620355D01*
X618319Y324697D01*
X616761Y323138D01*
X615918Y321102D01*
Y318898D01*
X616761Y316862D01*
X618319Y315303D01*
X620355Y314460D01*
X622559D01*
X624596Y315303D01*
X626154Y316862D01*
X626997Y318898D01*
Y321102D01*
X626154Y323138D01*
X624596Y324697D01*
X622559Y325540D01*
D02*
G37*
G36*
X607559D02*
X605355D01*
X603319Y324697D01*
X601761Y323138D01*
X600918Y321102D01*
Y318898D01*
X601761Y316862D01*
X603319Y315303D01*
X605355Y314460D01*
X607559D01*
X609596Y315303D01*
X611154Y316862D01*
X611997Y318898D01*
Y321102D01*
X611154Y323138D01*
X609596Y324697D01*
X607559Y325540D01*
D02*
G37*
G36*
X677560Y310540D02*
X675356D01*
X673319Y309697D01*
X671761Y308138D01*
X670918Y306102D01*
Y303898D01*
X671761Y301862D01*
X673319Y300303D01*
X675356Y299460D01*
X677560D01*
X679596Y300303D01*
X681154Y301862D01*
X681998Y303898D01*
Y306102D01*
X681154Y308138D01*
X679596Y309697D01*
X677560Y310540D01*
D02*
G37*
G36*
X662560D02*
X660356D01*
X658319Y309697D01*
X656761Y308138D01*
X655918Y306102D01*
Y303898D01*
X656761Y301862D01*
X658319Y300303D01*
X660356Y299460D01*
X662560D01*
X664596Y300303D01*
X666154Y301862D01*
X666998Y303898D01*
Y306102D01*
X666154Y308138D01*
X664596Y309697D01*
X662560Y310540D01*
D02*
G37*
G36*
X642559D02*
X640356D01*
X638319Y309697D01*
X636761Y308138D01*
X635918Y306102D01*
Y303898D01*
X636761Y301862D01*
X638319Y300303D01*
X640356Y299460D01*
X642559D01*
X644596Y300303D01*
X646154Y301862D01*
X646998Y303898D01*
Y306102D01*
X646154Y308138D01*
X644596Y309697D01*
X642559Y310540D01*
D02*
G37*
G36*
X622559D02*
X620355D01*
X618319Y309697D01*
X616761Y308138D01*
X615918Y306102D01*
Y303898D01*
X616761Y301862D01*
X618319Y300303D01*
X620355Y299460D01*
X622559D01*
X624596Y300303D01*
X626154Y301862D01*
X626997Y303898D01*
Y306102D01*
X626154Y308138D01*
X624596Y309697D01*
X622559Y310540D01*
D02*
G37*
G36*
X607559D02*
X605355D01*
X603319Y309697D01*
X601761Y308138D01*
X600918Y306102D01*
Y303898D01*
X601761Y301862D01*
X603319Y300303D01*
X605355Y299460D01*
X607559D01*
X609596Y300303D01*
X611154Y301862D01*
X611997Y303898D01*
Y306102D01*
X611154Y308138D01*
X609596Y309697D01*
X607559Y310540D01*
D02*
G37*
G36*
X797088Y212540D02*
X794312D01*
X791632Y211822D01*
X789228Y210434D01*
X787266Y208472D01*
X785878Y206068D01*
X785160Y203388D01*
Y200612D01*
X785878Y197932D01*
X787266Y195528D01*
X789228Y193566D01*
X791632Y192178D01*
X794312Y191460D01*
X797088D01*
X799768Y192178D01*
X802172Y193566D01*
X804134Y195528D01*
X805522Y197932D01*
X806240Y200612D01*
Y203388D01*
X805522Y206068D01*
X804134Y208472D01*
X802172Y210434D01*
X799768Y211822D01*
X797088Y212540D01*
D02*
G37*
G36*
X780840D02*
X759760D01*
Y205885D01*
X400000D01*
X398513Y205589D01*
X397253Y204747D01*
X389046Y196540D01*
X387898D01*
X385862Y195697D01*
X384303Y194138D01*
X383460Y192102D01*
Y189898D01*
X384303Y187862D01*
X385862Y186303D01*
X387898Y185460D01*
X390102D01*
X392138Y186303D01*
X393697Y187862D01*
X394540Y189898D01*
Y191046D01*
X401609Y198115D01*
X759760D01*
Y191460D01*
X780840D01*
Y212540D01*
D02*
G37*
G36*
X804440Y177540D02*
X784160D01*
Y157260D01*
X804440D01*
Y177540D01*
D02*
G37*
G36*
X770235D02*
X767565D01*
X764986Y176849D01*
X762674Y175514D01*
X760786Y173626D01*
X759451Y171314D01*
X758760Y168735D01*
Y166065D01*
X759451Y163486D01*
X760786Y161174D01*
X762674Y159286D01*
X764986Y157951D01*
X767565Y157260D01*
X770235D01*
X772814Y157951D01*
X775126Y159286D01*
X777014Y161174D01*
X778349Y163486D01*
X779040Y166065D01*
Y168735D01*
X778349Y171314D01*
X777014Y173626D01*
X775126Y175514D01*
X772814Y176849D01*
X770235Y177540D01*
D02*
G37*
G36*
X744835D02*
X742165D01*
X739586Y176849D01*
X737274Y175514D01*
X735386Y173626D01*
X734051Y171314D01*
X733360Y168735D01*
Y166065D01*
X734051Y163486D01*
X735386Y161174D01*
X737274Y159286D01*
X739586Y157951D01*
X742165Y157260D01*
X744835D01*
X747414Y157951D01*
X749726Y159286D01*
X751614Y161174D01*
X752949Y163486D01*
X753640Y166065D01*
Y168735D01*
X752949Y171314D01*
X751614Y173626D01*
X749726Y175514D01*
X747414Y176849D01*
X744835Y177540D01*
D02*
G37*
G36*
X719435D02*
X716765D01*
X714186Y176849D01*
X711874Y175514D01*
X709986Y173626D01*
X708651Y171314D01*
X707960Y168735D01*
Y166065D01*
X708651Y163486D01*
X709986Y161174D01*
X711874Y159286D01*
X714186Y157951D01*
X716765Y157260D01*
X719435D01*
X722014Y157951D01*
X724326Y159286D01*
X726214Y161174D01*
X727549Y163486D01*
X728240Y166065D01*
Y168735D01*
X727549Y171314D01*
X726214Y173626D01*
X724326Y175514D01*
X722014Y176849D01*
X719435Y177540D01*
D02*
G37*
G36*
X694035D02*
X691365D01*
X688786Y176849D01*
X686474Y175514D01*
X684586Y173626D01*
X683251Y171314D01*
X682560Y168735D01*
Y166065D01*
X683251Y163486D01*
X684586Y161174D01*
X686474Y159286D01*
X688786Y157951D01*
X691365Y157260D01*
X694035D01*
X696614Y157951D01*
X698926Y159286D01*
X700814Y161174D01*
X702149Y163486D01*
X702840Y166065D01*
Y168735D01*
X702149Y171314D01*
X700814Y173626D01*
X698926Y175514D01*
X696614Y176849D01*
X694035Y177540D01*
D02*
G37*
G36*
X668635D02*
X665965D01*
X663386Y176849D01*
X661074Y175514D01*
X659186Y173626D01*
X657851Y171314D01*
X657160Y168735D01*
Y166065D01*
X657851Y163486D01*
X659186Y161174D01*
X661074Y159286D01*
X663386Y157951D01*
X665965Y157260D01*
X668635D01*
X671214Y157951D01*
X673526Y159286D01*
X675414Y161174D01*
X676749Y163486D01*
X677440Y166065D01*
Y168735D01*
X676749Y171314D01*
X675414Y173626D01*
X673526Y175514D01*
X671214Y176849D01*
X668635Y177540D01*
D02*
G37*
G36*
X643235D02*
X640565D01*
X637986Y176849D01*
X635674Y175514D01*
X633786Y173626D01*
X632451Y171314D01*
X631760Y168735D01*
Y166065D01*
X632451Y163486D01*
X633786Y161174D01*
X635674Y159286D01*
X637986Y157951D01*
X640565Y157260D01*
X643235D01*
X645814Y157951D01*
X648126Y159286D01*
X650014Y161174D01*
X651349Y163486D01*
X652040Y166065D01*
Y168735D01*
X651349Y171314D01*
X650014Y173626D01*
X648126Y175514D01*
X645814Y176849D01*
X643235Y177540D01*
D02*
G37*
G36*
X617835D02*
X615165D01*
X612586Y176849D01*
X610274Y175514D01*
X608386Y173626D01*
X607051Y171314D01*
X606360Y168735D01*
Y166065D01*
X607051Y163486D01*
X608386Y161174D01*
X610274Y159286D01*
X612586Y157951D01*
X615165Y157260D01*
X617835D01*
X620414Y157951D01*
X622726Y159286D01*
X624614Y161174D01*
X625949Y163486D01*
X626640Y166065D01*
Y168735D01*
X625949Y171314D01*
X624614Y173626D01*
X622726Y175514D01*
X620414Y176849D01*
X617835Y177540D01*
D02*
G37*
G36*
X379540Y143540D02*
X364460D01*
Y128460D01*
X379540D01*
Y143540D01*
D02*
G37*
G36*
X457540Y119540D02*
X442460D01*
Y104460D01*
X457540D01*
Y119540D01*
D02*
G37*
G36*
X770235Y25140D02*
X767565D01*
X764986Y24449D01*
X762674Y23114D01*
X760786Y21226D01*
X759451Y18914D01*
X758760Y16335D01*
Y13665D01*
X759451Y11086D01*
X760786Y8774D01*
X762674Y6886D01*
X764986Y5551D01*
X767565Y4860D01*
X770235D01*
X772814Y5551D01*
X775126Y6886D01*
X777014Y8774D01*
X778349Y11086D01*
X779040Y13665D01*
Y16335D01*
X778349Y18914D01*
X777014Y21226D01*
X775126Y23114D01*
X772814Y24449D01*
X770235Y25140D01*
D02*
G37*
G36*
X744835D02*
X742165D01*
X739586Y24449D01*
X737274Y23114D01*
X735386Y21226D01*
X734051Y18914D01*
X733360Y16335D01*
Y13665D01*
X734051Y11086D01*
X735386Y8774D01*
X737274Y6886D01*
X739586Y5551D01*
X742165Y4860D01*
X744835D01*
X747414Y5551D01*
X749726Y6886D01*
X751614Y8774D01*
X752949Y11086D01*
X753640Y13665D01*
Y16335D01*
X752949Y18914D01*
X751614Y21226D01*
X749726Y23114D01*
X747414Y24449D01*
X744835Y25140D01*
D02*
G37*
G36*
X543102Y191540D02*
X540898D01*
X538862Y190697D01*
X537303Y189138D01*
X536460Y187102D01*
Y184898D01*
X537303Y182862D01*
X538115Y182050D01*
Y174964D01*
X538411Y173477D01*
X539253Y172217D01*
X624169Y87301D01*
X625429Y86459D01*
X626916Y86164D01*
X641443D01*
X708666Y18940D01*
X708651Y18914D01*
X707960Y16335D01*
Y13665D01*
X708651Y11086D01*
X709986Y8774D01*
X711874Y6886D01*
X714186Y5551D01*
X716765Y4860D01*
X719435D01*
X722014Y5551D01*
X724326Y6886D01*
X726214Y8774D01*
X727549Y11086D01*
X728240Y13665D01*
Y16335D01*
X727549Y18914D01*
X726214Y21226D01*
X724326Y23114D01*
X722014Y24449D01*
X719435Y25140D01*
X716765D01*
X714186Y24449D01*
X714160Y24434D01*
X645799Y92795D01*
X644538Y93637D01*
X643052Y93933D01*
X628525D01*
X566371Y156087D01*
X566857Y157260D01*
X567035D01*
X569614Y157951D01*
X571926Y159286D01*
X573814Y161174D01*
X575149Y163486D01*
X575840Y166065D01*
Y168735D01*
X575149Y171314D01*
X573814Y173626D01*
X571926Y175514D01*
X569614Y176849D01*
X567035Y177540D01*
X564365D01*
X561786Y176849D01*
X559474Y175514D01*
X557586Y173626D01*
X556251Y171314D01*
X555560Y168735D01*
Y168557D01*
X554387Y168071D01*
X545885Y176573D01*
Y182050D01*
X546697Y182862D01*
X547540Y184898D01*
Y187102D01*
X546697Y189138D01*
X545138Y190697D01*
X543102Y191540D01*
D02*
G37*
G36*
X694035Y25140D02*
X691365D01*
X688786Y24449D01*
X686474Y23114D01*
X684586Y21226D01*
X683251Y18914D01*
X682560Y16335D01*
Y13665D01*
X683251Y11086D01*
X684586Y8774D01*
X686474Y6886D01*
X688786Y5551D01*
X691365Y4860D01*
X694035D01*
X696614Y5551D01*
X698926Y6886D01*
X700814Y8774D01*
X702149Y11086D01*
X702840Y13665D01*
Y16335D01*
X702149Y18914D01*
X700814Y21226D01*
X698926Y23114D01*
X696614Y24449D01*
X694035Y25140D01*
D02*
G37*
G36*
X668635D02*
X665965D01*
X663386Y24449D01*
X661074Y23114D01*
X659186Y21226D01*
X657851Y18914D01*
X657160Y16335D01*
Y13665D01*
X657851Y11086D01*
X659186Y8774D01*
X661074Y6886D01*
X663386Y5551D01*
X665965Y4860D01*
X668635D01*
X671214Y5551D01*
X673526Y6886D01*
X675414Y8774D01*
X676749Y11086D01*
X677440Y13665D01*
Y16335D01*
X676749Y18914D01*
X675414Y21226D01*
X673526Y23114D01*
X671214Y24449D01*
X668635Y25140D01*
D02*
G37*
G36*
X643235D02*
X640565D01*
X637986Y24449D01*
X635674Y23114D01*
X633786Y21226D01*
X632451Y18914D01*
X631760Y16335D01*
Y13665D01*
X632451Y11086D01*
X633786Y8774D01*
X635674Y6886D01*
X637986Y5551D01*
X640565Y4860D01*
X643235D01*
X645814Y5551D01*
X648126Y6886D01*
X650014Y8774D01*
X651349Y11086D01*
X652040Y13665D01*
Y16335D01*
X651349Y18914D01*
X650014Y21226D01*
X648126Y23114D01*
X645814Y24449D01*
X643235Y25140D01*
D02*
G37*
G36*
X617835D02*
X615165D01*
X612586Y24449D01*
X610274Y23114D01*
X608386Y21226D01*
X607051Y18914D01*
X606360Y16335D01*
Y13665D01*
X607051Y11086D01*
X608386Y8774D01*
X610274Y6886D01*
X612586Y5551D01*
X615165Y4860D01*
X617835D01*
X620414Y5551D01*
X622726Y6886D01*
X624614Y8774D01*
X625949Y11086D01*
X626640Y13665D01*
Y16335D01*
X625949Y18914D01*
X624614Y21226D01*
X622726Y23114D01*
X620414Y24449D01*
X617835Y25140D01*
D02*
G37*
G36*
X592435D02*
X589765D01*
X587186Y24449D01*
X584874Y23114D01*
X582986Y21226D01*
X581651Y18914D01*
X580960Y16335D01*
Y13665D01*
X581651Y11086D01*
X582986Y8774D01*
X584874Y6886D01*
X587186Y5551D01*
X589765Y4860D01*
X592435D01*
X595014Y5551D01*
X597326Y6886D01*
X599214Y8774D01*
X600549Y11086D01*
X601240Y13665D01*
Y16335D01*
X600549Y18914D01*
X599214Y21226D01*
X597326Y23114D01*
X595014Y24449D01*
X592435Y25140D01*
D02*
G37*
G36*
X567035D02*
X564365D01*
X561786Y24449D01*
X559474Y23114D01*
X557586Y21226D01*
X556251Y18914D01*
X555560Y16335D01*
Y13665D01*
X556251Y11086D01*
X557586Y8774D01*
X559474Y6886D01*
X561786Y5551D01*
X564365Y4860D01*
X567035D01*
X569614Y5551D01*
X571926Y6886D01*
X573814Y8774D01*
X575149Y11086D01*
X575840Y13665D01*
Y16335D01*
X575149Y18914D01*
X573814Y21226D01*
X571926Y23114D01*
X569614Y24449D01*
X567035Y25140D01*
D02*
G37*
G36*
X237540Y567540D02*
X222460D01*
Y552460D01*
X237540D01*
Y567540D01*
D02*
G37*
G36*
X301352Y540290D02*
X299148D01*
X297112Y539447D01*
X295553Y537888D01*
X294710Y535852D01*
Y533648D01*
X295553Y531612D01*
X297112Y530053D01*
X299148Y529210D01*
X301352D01*
X303388Y530053D01*
X304947Y531612D01*
X305790Y533648D01*
Y535852D01*
X304947Y537888D01*
X303388Y539447D01*
X301352Y540290D01*
D02*
G37*
G36*
X306540Y462540D02*
X291460D01*
Y447460D01*
X306540D01*
Y462540D01*
D02*
G37*
G36*
X278722Y443790D02*
X276518D01*
X274482Y442947D01*
X272923Y441388D01*
X272080Y439352D01*
Y437148D01*
X272923Y435112D01*
X274482Y433553D01*
X276518Y432710D01*
X278722D01*
X280758Y433553D01*
X282317Y435112D01*
X283160Y437148D01*
Y439352D01*
X282317Y441388D01*
X280758Y442947D01*
X278722Y443790D01*
D02*
G37*
G36*
X316102Y495540D02*
X313898D01*
X311862Y494697D01*
X310303Y493138D01*
X309460Y491102D01*
Y488898D01*
X310303Y486862D01*
X311862Y485303D01*
X312268Y485135D01*
Y483865D01*
X311862Y483697D01*
X310303Y482138D01*
X309460Y480102D01*
Y477898D01*
X310303Y475862D01*
X311862Y474303D01*
X313349Y473687D01*
Y472313D01*
X311862Y471697D01*
X310303Y470138D01*
X309460Y468102D01*
Y465898D01*
X310303Y463862D01*
X311862Y462303D01*
X312268Y462135D01*
Y460865D01*
X311862Y460697D01*
X310303Y459138D01*
X309460Y457102D01*
Y454898D01*
X310303Y452862D01*
X311862Y451303D01*
X312268Y451135D01*
Y449865D01*
X311862Y449697D01*
X310303Y448138D01*
X309460Y446102D01*
Y443898D01*
X310303Y441862D01*
X311862Y440303D01*
X313349Y439687D01*
Y438313D01*
X311862Y437697D01*
X310303Y436138D01*
X309460Y434102D01*
Y431898D01*
X310303Y429862D01*
X311862Y428303D01*
X313898Y427460D01*
X316102D01*
X318138Y428303D01*
X319697Y429862D01*
X320540Y431898D01*
Y434102D01*
X319697Y436138D01*
X318138Y437697D01*
X316651Y438313D01*
Y439687D01*
X318138Y440303D01*
X319697Y441862D01*
X320540Y443898D01*
Y446102D01*
X319697Y448138D01*
X318138Y449697D01*
X317732Y449865D01*
Y451135D01*
X318138Y451303D01*
X319697Y452862D01*
X320540Y454898D01*
Y457102D01*
X319697Y459138D01*
X318138Y460697D01*
X317732Y460865D01*
Y462135D01*
X318138Y462303D01*
X319697Y463862D01*
X320540Y465898D01*
Y468102D01*
X319697Y470138D01*
X318138Y471697D01*
X316651Y472313D01*
Y473687D01*
X318138Y474303D01*
X319697Y475862D01*
X320540Y477898D01*
Y480102D01*
X319697Y482138D01*
X318138Y483697D01*
X317732Y483865D01*
Y485135D01*
X318138Y485303D01*
X319697Y486862D01*
X320540Y488898D01*
Y491102D01*
X319697Y493138D01*
X318138Y494697D01*
X316102Y495540D01*
D02*
G37*
G36*
X278722Y425540D02*
X276518D01*
X274482Y424697D01*
X272923Y423138D01*
X272080Y421102D01*
Y418898D01*
X272923Y416862D01*
X274482Y415303D01*
X276518Y414460D01*
X278722D01*
X280758Y415303D01*
X282317Y416862D01*
X283160Y418898D01*
Y421102D01*
X282317Y423138D01*
X280758Y424697D01*
X278722Y425540D01*
D02*
G37*
G36*
Y406490D02*
X276518D01*
X274482Y405647D01*
X272923Y404088D01*
X272080Y402052D01*
Y399848D01*
X272923Y397812D01*
X274482Y396253D01*
X276518Y395410D01*
X278722D01*
X280758Y396253D01*
X282317Y397812D01*
X283160Y399848D01*
Y402052D01*
X282317Y404088D01*
X280758Y405647D01*
X278722Y406490D01*
D02*
G37*
G36*
X316102Y425540D02*
X313898D01*
X311862Y424697D01*
X310303Y423138D01*
X309460Y421102D01*
Y418898D01*
X310303Y416862D01*
X311862Y415303D01*
X313349Y414687D01*
Y413313D01*
X311862Y412697D01*
X310303Y411138D01*
X309460Y409102D01*
Y406898D01*
X310303Y404862D01*
X311862Y403303D01*
X313349Y402687D01*
Y401313D01*
X311862Y400697D01*
X310303Y399138D01*
X309460Y397102D01*
Y394898D01*
X310303Y392862D01*
X311862Y391303D01*
X313349Y390687D01*
Y389313D01*
X311862Y388697D01*
X310303Y387138D01*
X309460Y385102D01*
Y382898D01*
X310303Y380862D01*
X311862Y379303D01*
X313898Y378460D01*
X316102D01*
X318138Y379303D01*
X319697Y380862D01*
X320540Y382898D01*
Y385102D01*
X319697Y387138D01*
X318138Y388697D01*
X316651Y389313D01*
Y390687D01*
X318138Y391303D01*
X319697Y392862D01*
X320540Y394898D01*
Y397102D01*
X319697Y399138D01*
X318138Y400697D01*
X316651Y401313D01*
Y402687D01*
X318138Y403303D01*
X319697Y404862D01*
X320540Y406898D01*
Y409102D01*
X319697Y411138D01*
X318138Y412697D01*
X316651Y413313D01*
Y414687D01*
X318138Y415303D01*
X319697Y416862D01*
X320540Y418898D01*
Y421102D01*
X319697Y423138D01*
X318138Y424697D01*
X316102Y425540D01*
D02*
G37*
G36*
X264000Y478590D02*
X172000D01*
X171009Y478393D01*
X170169Y477831D01*
X169607Y476991D01*
X169410Y476000D01*
Y434073D01*
X169169Y433831D01*
X168607Y432991D01*
X168410Y432000D01*
Y380590D01*
X135000D01*
X134009Y380393D01*
X133169Y379831D01*
X132607Y378991D01*
X132410Y378000D01*
Y258000D01*
X132607Y257009D01*
X133169Y256169D01*
X134009Y255607D01*
X135000Y255410D01*
X264000D01*
X264991Y255607D01*
X265831Y256169D01*
X266393Y257009D01*
X266590Y258000D01*
Y395544D01*
X268302Y396253D01*
X269860Y397812D01*
X270703Y399848D01*
Y402052D01*
X269860Y404088D01*
X268302Y405647D01*
X266590Y406356D01*
Y414594D01*
X268302Y415303D01*
X269860Y416862D01*
X270703Y418898D01*
Y421102D01*
X269860Y423138D01*
X268302Y424697D01*
X266590Y425406D01*
Y432844D01*
X268302Y433553D01*
X269860Y435112D01*
X270703Y437148D01*
Y439352D01*
X269860Y441388D01*
X268302Y442947D01*
X266590Y443656D01*
Y476000D01*
X266393Y476991D01*
X265831Y477831D01*
X264991Y478393D01*
X264000Y478590D01*
D02*
G37*
G36*
X190852Y213590D02*
X188648D01*
X186612Y212747D01*
X185053Y211188D01*
X184210Y209152D01*
Y206948D01*
X185053Y204912D01*
X186612Y203353D01*
X188648Y202510D01*
X190852D01*
X192888Y203353D01*
X194447Y204912D01*
X195290Y206948D01*
Y209152D01*
X194447Y211188D01*
X192888Y212747D01*
X190852Y213590D01*
D02*
G37*
G36*
X178395D02*
X176191D01*
X174155Y212747D01*
X172597Y211188D01*
X171753Y209152D01*
Y206948D01*
X172597Y204912D01*
X174155Y203353D01*
X176191Y202510D01*
X178395D01*
X180431Y203353D01*
X181990Y204912D01*
X182833Y206948D01*
Y209152D01*
X181990Y211188D01*
X180431Y212747D01*
X178395Y213590D01*
D02*
G37*
G36*
X165939D02*
X163735D01*
X161698Y212747D01*
X160140Y211188D01*
X159297Y209152D01*
Y206948D01*
X160140Y204912D01*
X161698Y203353D01*
X163735Y202510D01*
X165939D01*
X167975Y203353D01*
X169533Y204912D01*
X170377Y206948D01*
Y209152D01*
X169533Y211188D01*
X167975Y212747D01*
X165939Y213590D01*
D02*
G37*
G36*
X153482D02*
X151278D01*
X149242Y212747D01*
X147683Y211188D01*
X146840Y209152D01*
Y206948D01*
X147683Y204912D01*
X149242Y203353D01*
X151278Y202510D01*
X153482D01*
X155518Y203353D01*
X157077Y204912D01*
X157920Y206948D01*
Y209152D01*
X157077Y211188D01*
X155518Y212747D01*
X153482Y213590D01*
D02*
G37*
G36*
X215540Y198540D02*
X200460D01*
Y183460D01*
X215540D01*
Y198540D01*
D02*
G37*
G36*
X190852Y194540D02*
X188648D01*
X186612Y193697D01*
X185053Y192138D01*
X184210Y190102D01*
Y187898D01*
X185053Y185862D01*
X186612Y184303D01*
X188648Y183460D01*
X190852D01*
X192888Y184303D01*
X194447Y185862D01*
X195290Y187898D01*
Y190102D01*
X194447Y192138D01*
X192888Y193697D01*
X190852Y194540D01*
D02*
G37*
G36*
X178395D02*
X176191D01*
X174155Y193697D01*
X172597Y192138D01*
X171753Y190102D01*
Y187898D01*
X172597Y185862D01*
X174155Y184303D01*
X176191Y183460D01*
X178395D01*
X180431Y184303D01*
X181990Y185862D01*
X182833Y187898D01*
Y190102D01*
X181990Y192138D01*
X180431Y193697D01*
X178395Y194540D01*
D02*
G37*
G36*
X165939D02*
X163735D01*
X161698Y193697D01*
X160140Y192138D01*
X159297Y190102D01*
Y187898D01*
X160140Y185862D01*
X161698Y184303D01*
X163735Y183460D01*
X165939D01*
X167975Y184303D01*
X169533Y185862D01*
X170377Y187898D01*
Y190102D01*
X169533Y192138D01*
X167975Y193697D01*
X165939Y194540D01*
D02*
G37*
G36*
X153482D02*
X151278D01*
X149242Y193697D01*
X147683Y192138D01*
X146840Y190102D01*
Y187898D01*
X147683Y185862D01*
X149242Y184303D01*
X151278Y183460D01*
X153482D01*
X155518Y184303D01*
X157077Y185862D01*
X157920Y187898D01*
Y190102D01*
X157077Y192138D01*
X155518Y193697D01*
X153482Y194540D01*
D02*
G37*
G36*
X190852Y176290D02*
X188648D01*
X186612Y175447D01*
X185053Y173888D01*
X184210Y171852D01*
Y169648D01*
X185053Y167612D01*
X186612Y166053D01*
X188648Y165210D01*
X190852D01*
X192888Y166053D01*
X194447Y167612D01*
X195290Y169648D01*
Y171852D01*
X194447Y173888D01*
X192888Y175447D01*
X190852Y176290D01*
D02*
G37*
G36*
X178395D02*
X176191D01*
X174155Y175447D01*
X172597Y173888D01*
X171753Y171852D01*
Y169648D01*
X172597Y167612D01*
X174155Y166053D01*
X176191Y165210D01*
X178395D01*
X180431Y166053D01*
X181990Y167612D01*
X182833Y169648D01*
Y171852D01*
X181990Y173888D01*
X180431Y175447D01*
X178395Y176290D01*
D02*
G37*
G36*
X165939D02*
X163735D01*
X161698Y175447D01*
X160140Y173888D01*
X159297Y171852D01*
Y169648D01*
X160140Y167612D01*
X161698Y166053D01*
X163735Y165210D01*
X165939D01*
X167975Y166053D01*
X169533Y167612D01*
X170377Y169648D01*
Y171852D01*
X169533Y173888D01*
X167975Y175447D01*
X165939Y176290D01*
D02*
G37*
G36*
X153482D02*
X151278D01*
X149242Y175447D01*
X147683Y173888D01*
X146840Y171852D01*
Y169648D01*
X147683Y167612D01*
X149242Y166053D01*
X151278Y165210D01*
X153482D01*
X155518Y166053D01*
X157077Y167612D01*
X157920Y169648D01*
Y171852D01*
X157077Y173888D01*
X155518Y175447D01*
X153482Y176290D01*
D02*
G37*
G36*
X237540Y165540D02*
X222460D01*
Y150460D01*
X237540D01*
Y165540D01*
D02*
G37*
G36*
X211102Y115540D02*
X208898D01*
X206862Y114697D01*
X205303Y113138D01*
X204460Y111102D01*
Y108898D01*
X205303Y106862D01*
X206862Y105303D01*
X208898Y104460D01*
X211102D01*
X213138Y105303D01*
X214697Y106862D01*
X215540Y108898D01*
Y111102D01*
X214697Y113138D01*
X213138Y114697D01*
X211102Y115540D01*
D02*
G37*
G36*
X187540Y72540D02*
X172460D01*
Y57460D01*
X187540D01*
Y72540D01*
D02*
G37*
%LPD*%
G36*
X264000Y258000D02*
X135000D01*
Y378000D01*
X171000D01*
Y432000D01*
X172000Y433000D01*
Y476000D01*
X264000D01*
Y258000D01*
D02*
G37*
%LPC*%
G36*
X191540Y460540D02*
X176460D01*
Y445460D01*
X191540D01*
Y460540D01*
D02*
G37*
G36*
X782080Y407120D02*
X777920D01*
X773839Y406308D01*
X769996Y404716D01*
X766537Y402405D01*
X763595Y399463D01*
X761284Y396004D01*
X759692Y392160D01*
X758880Y388080D01*
Y383920D01*
X759692Y379840D01*
X761284Y375996D01*
X763595Y372537D01*
X766537Y369595D01*
X769996Y367284D01*
X773839Y365692D01*
X777920Y364880D01*
X782080D01*
X786161Y365692D01*
X790004Y367284D01*
X793463Y369595D01*
X796405Y372537D01*
X798716Y375996D01*
X800308Y379840D01*
X801120Y383920D01*
Y388080D01*
X800308Y392160D01*
X798716Y396004D01*
X796405Y399463D01*
X793463Y402405D01*
X790004Y404716D01*
X786161Y406308D01*
X782080Y407120D01*
D02*
G37*
%LPD*%
D11*
X689052Y356352D02*
X732700Y400000D01*
X696000Y237000D02*
X733000D01*
X689052Y243948D02*
X696000Y237000D01*
X689052Y243948D02*
Y356352D01*
X733000Y237000D02*
X741000Y229000D01*
X859000D01*
X542000Y174964D02*
X626916Y90048D01*
X643052D02*
X718100Y15000D01*
X626916Y90048D02*
X643052D01*
X542000Y174964D02*
Y186000D01*
X400000Y202000D02*
X770300D01*
X389000Y191000D02*
X400000Y202000D01*
D92*
X315000Y574000D02*
X341000Y548000D01*
X215000Y574000D02*
X315000D01*
D93*
X645266Y477000D02*
X664266Y458000D01*
X713966D02*
X731552Y440414D01*
X636000Y477000D02*
X645266D01*
X664266Y458000D02*
X713966D01*
X731552Y431148D02*
X732700Y430000D01*
X731552Y431148D02*
Y440414D01*
D94*
X150000Y743000D02*
D03*
X342000D02*
D03*
X532000D02*
D03*
X722000D02*
D03*
D95*
X150000Y668000D02*
D03*
X342000D02*
D03*
X532000D02*
D03*
X722000D02*
D03*
D96*
X580000Y540000D02*
D03*
D97*
Y590000D02*
D03*
D98*
X840000Y417500D02*
D03*
Y282500D02*
D03*
X40000Y232500D02*
D03*
Y367500D02*
D03*
D99*
X780000Y386000D02*
D03*
Y314000D02*
D03*
X100000Y264000D02*
D03*
Y336000D02*
D03*
D100*
X795700Y202000D02*
D03*
X732700Y430000D02*
D03*
Y400000D02*
D03*
D101*
X770300Y202000D02*
D03*
X707300Y430000D02*
D03*
Y400000D02*
D03*
D102*
X641900Y15000D02*
D03*
X743500D02*
D03*
X768900D02*
D03*
X718100D02*
D03*
X692700D02*
D03*
X667300D02*
D03*
X616500D02*
D03*
X591100D02*
D03*
X565700D02*
D03*
X641900Y167400D02*
D03*
X743500D02*
D03*
X768900D02*
D03*
X718100D02*
D03*
X692700D02*
D03*
X667300D02*
D03*
X616500D02*
D03*
X591100D02*
D03*
X565700D02*
D03*
D103*
X794300Y15000D02*
D03*
Y167400D02*
D03*
D104*
X725000Y325000D02*
D03*
Y298000D02*
D03*
Y286000D02*
D03*
Y261000D02*
D03*
Y274000D02*
D03*
Y248000D02*
D03*
Y311000D02*
D03*
X713000D02*
D03*
Y274000D02*
D03*
Y248000D02*
D03*
Y261000D02*
D03*
Y286000D02*
D03*
Y298000D02*
D03*
Y325000D02*
D03*
X80000Y508000D02*
D03*
X79000Y573000D02*
D03*
X80000Y631000D02*
D03*
Y694000D02*
D03*
X24000Y691000D02*
D03*
X22000Y631000D02*
D03*
X21000Y570000D02*
D03*
X20000Y509000D02*
D03*
Y455000D02*
D03*
X21000Y397000D02*
D03*
X51000Y328000D02*
D03*
X52000Y261000D02*
D03*
Y210000D02*
D03*
X23000Y186000D02*
D03*
X24000Y147000D02*
D03*
X25000Y103000D02*
D03*
X79000Y104000D02*
D03*
X80000Y59000D02*
D03*
X79000Y12000D02*
D03*
X117000D02*
D03*
X180000D02*
D03*
X241000Y13000D02*
D03*
X303000Y14000D02*
D03*
X137707Y438250D02*
D03*
X150163D02*
D03*
X162620D02*
D03*
X125250D02*
D03*
X150163Y420000D02*
D03*
X137707D02*
D03*
X162620D02*
D03*
X125250D02*
D03*
X162620Y400950D02*
D03*
X150163D02*
D03*
X137707D02*
D03*
X125250D02*
D03*
X288380Y208050D02*
D03*
X275923D02*
D03*
X263467D02*
D03*
X251010D02*
D03*
X288380Y189000D02*
D03*
X251010D02*
D03*
X275923D02*
D03*
X263467D02*
D03*
X288380Y170750D02*
D03*
X251010D02*
D03*
X263467D02*
D03*
X275923D02*
D03*
X252707Y438250D02*
D03*
X265163D02*
D03*
X277620D02*
D03*
X240250D02*
D03*
X265163Y420000D02*
D03*
X252707D02*
D03*
X277620D02*
D03*
X240250D02*
D03*
X277620Y400950D02*
D03*
X265163D02*
D03*
X252707D02*
D03*
X240250D02*
D03*
X189750Y208050D02*
D03*
X177293D02*
D03*
X164837D02*
D03*
X152380D02*
D03*
X189750Y189000D02*
D03*
X152380D02*
D03*
X177293D02*
D03*
X164837D02*
D03*
X189750Y170750D02*
D03*
X152380D02*
D03*
X164837D02*
D03*
X177293D02*
D03*
X208000Y191000D02*
D03*
X230000Y560000D02*
D03*
X299000Y455000D02*
D03*
X184000Y453000D02*
D03*
X450000Y112000D02*
D03*
X372000Y136000D02*
D03*
X230000Y157000D02*
D03*
X131000Y156000D02*
D03*
X612000Y258000D02*
D03*
X672000Y288000D02*
D03*
X630000Y620000D02*
D03*
X629000Y675000D02*
D03*
X595000Y620000D02*
D03*
X593000Y675000D02*
D03*
X461000Y626000D02*
D03*
Y674000D02*
D03*
X400000Y625000D02*
D03*
X399000Y674000D02*
D03*
X282000Y626000D02*
D03*
X281000Y674000D02*
D03*
X211000Y627000D02*
D03*
Y673000D02*
D03*
X648057Y587493D02*
D03*
X663057D02*
D03*
X683057D02*
D03*
X703057D02*
D03*
X718057D02*
D03*
X648057Y572493D02*
D03*
X663057D02*
D03*
X683057D02*
D03*
X703057D02*
D03*
X718057D02*
D03*
X648057Y557493D02*
D03*
X663057D02*
D03*
X683057D02*
D03*
X703057D02*
D03*
X718057D02*
D03*
X648057Y542493D02*
D03*
X663057D02*
D03*
X683057D02*
D03*
X703057D02*
D03*
X718057D02*
D03*
X648057Y527493D02*
D03*
X663057D02*
D03*
X683057D02*
D03*
X703057D02*
D03*
X718057D02*
D03*
X648057Y514493D02*
D03*
X663057D02*
D03*
X683057D02*
D03*
X703057D02*
D03*
X718057D02*
D03*
X676458Y305000D02*
D03*
X661458D02*
D03*
X641458D02*
D03*
X621457D02*
D03*
X606457D02*
D03*
X676458Y320000D02*
D03*
X661458D02*
D03*
X641458D02*
D03*
X621457D02*
D03*
X606457D02*
D03*
X676458Y335000D02*
D03*
X661458D02*
D03*
X641458D02*
D03*
X621457D02*
D03*
X606457D02*
D03*
X676458Y350000D02*
D03*
X661458D02*
D03*
X641458D02*
D03*
X621457D02*
D03*
X606457D02*
D03*
X676458Y365000D02*
D03*
X661458D02*
D03*
X641458D02*
D03*
X621457D02*
D03*
X606457D02*
D03*
X676458Y378000D02*
D03*
X661458D02*
D03*
X641458D02*
D03*
X621457D02*
D03*
X606457D02*
D03*
X118000Y116000D02*
D03*
X180000Y66000D02*
D03*
X210000Y110000D02*
D03*
X93000Y164000D02*
D03*
X76000D02*
D03*
X59000D02*
D03*
Y181000D02*
D03*
X157000Y456000D02*
D03*
X140000D02*
D03*
X123000D02*
D03*
X106000Y405000D02*
D03*
Y422000D02*
D03*
Y456000D02*
D03*
Y438000D02*
D03*
X89000D02*
D03*
X73000D02*
D03*
X57000D02*
D03*
X315000Y490000D02*
D03*
Y479000D02*
D03*
Y467000D02*
D03*
Y456000D02*
D03*
Y445000D02*
D03*
Y384000D02*
D03*
Y396000D02*
D03*
Y408000D02*
D03*
Y420000D02*
D03*
Y433000D02*
D03*
X341000Y548000D02*
D03*
X295000Y585770D02*
D03*
X215000Y574000D02*
D03*
X143000Y290000D02*
D03*
X158000D02*
D03*
X174000D02*
D03*
X189000D02*
D03*
X205000D02*
D03*
X220000D02*
D03*
X235000D02*
D03*
X251000D02*
D03*
Y305000D02*
D03*
X235000D02*
D03*
X220000D02*
D03*
X205000D02*
D03*
X189000D02*
D03*
X174000D02*
D03*
X158000D02*
D03*
X143000D02*
D03*
X221000Y471000D02*
D03*
X207000D02*
D03*
X221000Y460000D02*
D03*
X207000D02*
D03*
X221000Y449000D02*
D03*
X207000D02*
D03*
X221000Y388000D02*
D03*
X207000D02*
D03*
X221000Y400000D02*
D03*
X207000D02*
D03*
X221000Y413000D02*
D03*
X207000D02*
D03*
X221000Y425000D02*
D03*
X207000D02*
D03*
X221000Y438000D02*
D03*
X207000D02*
D03*
X300250Y534750D02*
D03*
X617000Y455000D02*
D03*
X410000Y91000D02*
D03*
X447000Y176000D02*
D03*
X332000Y200000D02*
D03*
X824000Y187000D02*
D03*
X612000Y188000D02*
D03*
X542000Y186000D02*
D03*
X389000Y191000D02*
D03*
X360000Y312000D02*
D03*
X413000Y230000D02*
D03*
X576000Y341000D02*
D03*
Y359000D02*
D03*
Y376000D02*
D03*
Y395000D02*
D03*
X553000Y341000D02*
D03*
Y359000D02*
D03*
Y376000D02*
D03*
Y395000D02*
D03*
X530000Y341000D02*
D03*
Y359000D02*
D03*
X530322Y376000D02*
D03*
X530000Y395000D02*
D03*
X507000Y341000D02*
D03*
Y359000D02*
D03*
Y376000D02*
D03*
Y394000D02*
D03*
X484000Y341000D02*
D03*
Y359000D02*
D03*
Y376000D02*
D03*
Y394000D02*
D03*
X553000Y412000D02*
D03*
X576000D02*
D03*
X484000D02*
D03*
X530000D02*
D03*
X507000D02*
D03*
X521287Y458000D02*
D03*
X483000Y510000D02*
D03*
X416000Y571000D02*
D03*
X859000Y229000D02*
D03*
X674000Y474000D02*
D03*
X631000Y420000D02*
D03*
D105*
X536000Y279000D02*
D03*
X636000Y477000D02*
D03*
D115*
X214000Y420000D02*
D03*
X230000Y158000D02*
D03*
X184000Y453000D02*
D03*
X208000Y191000D02*
D03*
X372000Y136000D02*
D03*
X450000Y112000D02*
D03*
X131000Y156000D02*
D03*
X299000Y455000D02*
D03*
X180000Y65000D02*
D03*
D116*
X230000Y560000D02*
D03*
D117*
X840000Y282500D02*
Y417500D01*
M02*
