G04*
G04 #@! TF.GenerationSoftware,Altium Limited,Altium Designer,21.6.4 (81)*
G04*
G04 Layer_Color=32768*
%FSLAX44Y44*%
%MOMM*%
G71*
G04*
G04 #@! TF.SameCoordinates,3C3A1148-CEAA-43B7-A459-4803B486FB21*
G04*
G04*
G04 #@! TF.FilePolarity,Positive*
G04*
G01*
G75*
%ADD10C,0.2000*%
%ADD14C,0.1000*%
%ADD120C,0.0500*%
%ADD122C,0.0762*%
D10*
X279750Y114500D02*
Y145500D01*
X296250D01*
Y114500D02*
Y145500D01*
X279750Y114500D02*
X296250D01*
X138457Y501500D02*
Y532500D01*
X121958Y501500D02*
X138457D01*
X121958D02*
Y532500D01*
X138457D01*
X225750Y79500D02*
Y110500D01*
X242250D01*
Y79500D02*
Y110500D01*
X225750Y79500D02*
X242250D01*
X186750Y482500D02*
Y513500D01*
X203250D01*
Y482500D02*
Y513500D01*
X186750Y482500D02*
X203250D01*
X249500Y74250D02*
X280500D01*
Y57750D02*
Y74250D01*
X249500Y57750D02*
X280500D01*
X249500D02*
Y74250D01*
X143500Y551750D02*
X174500D01*
X143500D02*
Y568250D01*
X174500D01*
Y551750D02*
Y568250D01*
X401500Y193250D02*
X432500D01*
Y176750D02*
Y193250D01*
X401500Y176750D02*
X432500D01*
X401500D02*
Y193250D01*
X200250Y76500D02*
Y107500D01*
X183750Y76500D02*
X200250D01*
X183750D02*
Y107500D01*
X200250D01*
X238250Y482500D02*
Y513500D01*
X221750Y482500D02*
X238250D01*
X221750D02*
Y513500D01*
X238250D01*
X186750Y109200D02*
Y140200D01*
X203250D01*
Y109200D02*
Y140200D01*
X186750Y109200D02*
X203250D01*
X293250Y509500D02*
Y540500D01*
X276750Y509500D02*
X293250D01*
X276750D02*
Y540500D01*
X293250D01*
X139500Y74250D02*
X170500D01*
Y57750D02*
Y74250D01*
X139500Y57750D02*
X170500D01*
X139500D02*
Y74250D01*
X240500Y551750D02*
X271500D01*
X240500D02*
Y568250D01*
X271500D01*
Y551750D02*
Y568250D01*
X640500Y264250D02*
X671500D01*
Y247750D02*
Y264250D01*
X640500Y247750D02*
X671500D01*
X640500D02*
Y264250D01*
X637500Y211250D02*
X668500D01*
Y194750D02*
Y211250D01*
X637500Y194750D02*
X668500D01*
X637500D02*
Y211250D01*
X387338Y294072D02*
X418338D01*
Y277572D02*
Y294072D01*
X387338Y277572D02*
X418338D01*
X387338D02*
Y294072D01*
X489500Y527250D02*
X520500D01*
Y510750D02*
Y527250D01*
X489500Y510750D02*
X520500D01*
X489500D02*
Y527250D01*
X855743Y189500D02*
Y220500D01*
X872243D01*
Y189500D02*
Y220500D01*
X855743Y189500D02*
X872243D01*
X154000Y235318D02*
X174000D01*
Y275318D01*
X154000D02*
X174000D01*
X154000Y235318D02*
Y275318D01*
X178542Y235318D02*
X198543D01*
Y275318D01*
X178542D02*
X198543D01*
X178542Y235318D02*
Y275318D01*
X203085Y235318D02*
X223085D01*
Y275318D01*
X203085D02*
X223085D01*
X203085Y235318D02*
Y275318D01*
X227628Y235318D02*
X247628D01*
Y275318D01*
X227628D02*
X247628D01*
X227628Y235318D02*
Y275318D01*
X581469Y152781D02*
X624531D01*
Y127219D02*
Y152781D01*
X581469Y127219D02*
X624531D01*
X581469D02*
Y152781D01*
X208469Y77781D02*
X251531D01*
Y52219D02*
Y77781D01*
X208469Y52219D02*
X251531D01*
X208469D02*
Y77781D01*
X201781Y511469D02*
Y554531D01*
X176219Y511469D02*
X201781D01*
X176219D02*
Y554531D01*
X201781D01*
X381219Y98469D02*
Y141531D01*
X406781D01*
Y98469D02*
Y141531D01*
X381219Y98469D02*
X406781D01*
X379469Y197792D02*
X422531D01*
X379469D02*
Y223354D01*
X422531D01*
Y197792D02*
Y223354D01*
X136781Y68469D02*
Y111531D01*
X111219Y68469D02*
X136781D01*
X111219D02*
Y111531D01*
X136781D01*
X298781Y538469D02*
Y581531D01*
X273219Y538469D02*
X298781D01*
X273219D02*
Y581531D01*
X298781D01*
X558469Y186693D02*
X601531D01*
X558469D02*
Y212255D01*
X601531D01*
Y186693D02*
Y212255D01*
X525322Y418708D02*
X535322D01*
X530322Y413708D02*
Y423708D01*
X475322Y331208D02*
Y506208D01*
X585322Y331208D02*
Y506208D01*
X475322Y331208D02*
X585322D01*
X475322Y506208D02*
X585322D01*
D14*
X637407Y599743D02*
X728708D01*
Y448743D02*
Y599743D01*
X637407Y448743D02*
X728708D01*
X637407D02*
Y599743D01*
X595807Y292750D02*
X687107D01*
X595807D02*
Y443750D01*
X687107D01*
Y292750D02*
Y443750D01*
X682000Y200750D02*
X758000D01*
X682000D02*
Y334750D01*
X758000D01*
Y200750D02*
Y334750D01*
X389000Y155000D02*
Y165000D01*
X384000Y160000D02*
X394000D01*
X412000Y150000D02*
Y160000D01*
X407000Y155000D02*
X417000D01*
X432000Y150000D02*
Y160000D01*
X427000Y155000D02*
X437000D01*
X460000Y479000D02*
Y489000D01*
X455000Y484000D02*
X465000D01*
X828993Y203000D02*
X838993D01*
X833992Y198000D02*
Y208000D01*
X420500Y111958D02*
Y121958D01*
X415500Y116958D02*
X425500D01*
D120*
X247500Y705500D02*
G03*
X247500Y705500I-97500J0D01*
G01*
X439500D02*
G03*
X439500Y705500I-97500J0D01*
G01*
X629500D02*
G03*
X629500Y705500I-97500J0D01*
G01*
X819500D02*
G03*
X819500Y705500I-97500J0D01*
G01*
X635000Y565000D02*
G03*
X635000Y565000I-55000J0D01*
G01*
X118700Y392125D02*
Y447875D01*
X191300D01*
Y392125D02*
Y447875D01*
X118700Y392125D02*
X191300D01*
X222330Y216875D02*
X294930D01*
X222330Y161125D02*
Y216875D01*
Y161125D02*
X294930D01*
Y216875D01*
X233700Y392125D02*
Y447875D01*
X306300D01*
Y392125D02*
Y447875D01*
X233700Y392125D02*
X306300D01*
X123700Y216875D02*
X196300D01*
X123700Y161125D02*
Y216875D01*
Y161125D02*
X196300D01*
Y216875D01*
X607000Y467000D02*
Y477000D01*
X602000Y472000D02*
X612000D01*
X623000Y463250D02*
Y480750D01*
X591000D02*
X623000D01*
X591000Y463250D02*
Y480750D01*
Y463250D02*
X623000D01*
X403088Y301615D02*
Y311615D01*
X398088Y306615D02*
X408088D01*
X387088Y297865D02*
Y315365D01*
Y297865D02*
X419088D01*
Y315365D01*
X387088D02*
X419088D01*
X226000Y139000D02*
X274000D01*
X226000Y117000D02*
Y139000D01*
Y117000D02*
X274000D01*
Y139000D01*
X139000Y486000D02*
X187000D01*
Y508000D01*
X139000D02*
X187000D01*
X139000Y486000D02*
Y508000D01*
X130000Y117000D02*
X178000D01*
Y139000D01*
X130000D02*
X178000D01*
X130000Y117000D02*
Y139000D01*
X238000Y487000D02*
X286000D01*
Y509000D01*
X238000D02*
X286000D01*
X238000Y487000D02*
Y509000D01*
X633707Y212750D02*
Y287250D01*
X578708Y212750D02*
X633707D01*
X578708D02*
Y287250D01*
X633707D01*
X471530Y318407D02*
Y461908D01*
X338530Y318407D02*
X471530D01*
X338530D02*
Y461908D01*
X471530D01*
X521958Y537458D02*
Y604958D01*
X425457D02*
X521958D01*
X425457Y537458D02*
Y604958D01*
Y537458D02*
X521958D01*
X759000Y270000D02*
X936000D01*
Y430000D01*
X759000D02*
X936000D01*
X759000Y270000D02*
Y430000D01*
X-56000Y380000D02*
X121000D01*
X-56000Y220000D02*
Y380000D01*
Y220000D02*
X121000D01*
Y380000D01*
X298000Y171750D02*
X318000D01*
Y206250D01*
X298000D02*
X318000D01*
X298000Y171750D02*
Y206250D01*
X144900Y372868D02*
X183100D01*
X144900Y317768D02*
Y372868D01*
Y317768D02*
X183100D01*
Y372868D01*
X186900D02*
X225100D01*
X186900Y317768D02*
Y372868D01*
Y317768D02*
X225100D01*
Y372868D01*
X228900D02*
X267100D01*
X228900Y317768D02*
Y372868D01*
Y317768D02*
X267100D01*
Y372868D01*
X724642Y338042D02*
Y381143D01*
X755843D01*
Y338042D02*
Y381143D01*
X724642Y338042D02*
X755843D01*
X690400D02*
Y381143D01*
X721600D01*
Y338042D02*
Y381143D01*
X690400Y338042D02*
X721600D01*
X66400Y113450D02*
Y156550D01*
X97600D01*
Y113450D02*
Y156550D01*
X66400Y113450D02*
X97600D01*
Y173857D02*
Y216957D01*
X66400Y173857D02*
X97600D01*
X66400D02*
Y216957D01*
X97600D01*
X63400Y387793D02*
Y430892D01*
X94600D01*
Y387793D02*
Y430892D01*
X63400Y387793D02*
X94600D01*
Y445450D02*
Y488550D01*
X63400Y445450D02*
X94600D01*
X63400D02*
Y488550D01*
X94600D01*
X589115Y506958D02*
X634115D01*
Y483957D02*
Y506958D01*
X589115Y483957D02*
X634115D01*
X589115D02*
Y506958D01*
X378840Y179050D02*
X399160D01*
X378840Y140950D02*
X399160D01*
Y179050D01*
X378840Y140950D02*
Y179050D01*
X401840Y135950D02*
X422160D01*
X401840Y174050D02*
X422160D01*
X401840Y135950D02*
Y174050D01*
X422160Y135950D02*
Y174050D01*
X421840D02*
X442160D01*
X421840Y135950D02*
X442160D01*
Y174050D01*
X421840Y135950D02*
Y174050D01*
X449840Y503050D02*
X470160D01*
X449840Y464950D02*
X470160D01*
Y503050D01*
X449840Y464950D02*
Y503050D01*
X814942Y192840D02*
Y213160D01*
X853043Y192840D02*
Y213160D01*
X814942D02*
X853043D01*
X814942Y192840D02*
X853043D01*
X441500Y120600D02*
Y149400D01*
X458500D01*
Y120600D02*
Y149400D01*
X441500Y120600D02*
X458500D01*
X664500Y215042D02*
Y243843D01*
X647500Y215042D02*
X664500D01*
X647500D02*
Y243843D01*
X664500D01*
X604907Y192708D02*
X633708D01*
X604907D02*
Y209708D01*
X633708D01*
Y192708D02*
Y209708D01*
X639600Y268043D02*
X668400D01*
X639600D02*
Y285043D01*
X668400D01*
Y268043D02*
Y285043D01*
X754100Y217450D02*
X811900D01*
Y186550D02*
Y217450D01*
X754100Y186550D02*
X811900D01*
X754100D02*
Y217450D01*
X783000Y197000D02*
Y207000D01*
X778000Y202000D02*
X788000D01*
X691100Y445450D02*
X748900D01*
Y414550D02*
Y445450D01*
X691100Y414550D02*
X748900D01*
X691100D02*
Y445450D01*
X720000Y425000D02*
Y435000D01*
X715000Y430000D02*
X725000D01*
X691100Y415450D02*
X748900D01*
Y384550D02*
Y415450D01*
X691100Y384550D02*
X748900D01*
X691100D02*
Y415450D01*
X720000Y395000D02*
Y405000D01*
X715000Y400000D02*
X725000D01*
X403000Y136458D02*
X438000D01*
X403000Y97458D02*
X438000D01*
Y136458D01*
X403000Y97458D02*
Y136458D01*
X817992Y231750D02*
X849993D01*
Y214250D02*
Y231750D01*
X817992Y214250D02*
X849993D01*
X817992D02*
Y231750D01*
X828993Y223000D02*
X838992D01*
X833992Y218000D02*
Y228000D01*
X125457Y550000D02*
X135457D01*
X130457Y545000D02*
Y555000D01*
X121707Y566000D02*
X139207D01*
X121707Y534000D02*
Y566000D01*
Y534000D02*
X139207D01*
Y566000D01*
X225000Y530000D02*
X235000D01*
X230000Y525000D02*
Y535000D01*
X221250Y546000D02*
X238750D01*
X221250Y514000D02*
Y546000D01*
Y514000D02*
X238750D01*
Y546000D01*
X241250Y551000D02*
X276750D01*
X241250Y509000D02*
Y551000D01*
Y509000D02*
X276750D01*
Y551000D01*
X366045Y313000D02*
X383545D01*
X366045Y277000D02*
Y313000D01*
Y277000D02*
X383545D01*
Y313000D01*
X369795Y295000D02*
X379795D01*
X374795Y290000D02*
Y300000D01*
X428165Y243365D02*
X523165D01*
X428165D02*
Y315365D01*
X523165D01*
Y243365D02*
Y315365D01*
X470665Y279365D02*
X480665D01*
X475665Y274365D02*
Y284365D01*
X732000Y609000D02*
X878000D01*
X732000Y451000D02*
Y609000D01*
Y451000D02*
X878000D01*
Y609000D01*
X800000Y530000D02*
X810000D01*
X805000Y525000D02*
Y535000D01*
X242250Y75000D02*
X277750D01*
Y117000D01*
X242250D02*
X277750D01*
X242250Y75000D02*
Y117000D01*
X283000Y95000D02*
X293000D01*
X288000Y90000D02*
Y100000D01*
X279250Y79000D02*
X296750D01*
Y111000D01*
X279250D02*
X296750D01*
X279250Y79000D02*
Y111000D01*
X132250Y75000D02*
X167750D01*
Y117000D01*
X132250D02*
X167750D01*
X132250Y75000D02*
Y117000D01*
X170000Y95000D02*
X180000D01*
X175000Y90000D02*
Y100000D01*
X166250Y79000D02*
X183750D01*
Y111000D01*
X166250D02*
X183750D01*
X166250Y79000D02*
Y111000D01*
X142250Y551000D02*
X177750D01*
X142250Y509000D02*
Y551000D01*
Y509000D02*
X177750D01*
Y551000D01*
X812750Y-500D02*
Y30500D01*
X547250D02*
X812750D01*
X547250Y-500D02*
Y30500D01*
Y-500D02*
X812750D01*
X675000Y15000D02*
X685000D01*
X680000Y10000D02*
Y20000D01*
X812750Y151900D02*
Y182900D01*
X547250D02*
X812750D01*
X547250Y151900D02*
Y182900D01*
Y151900D02*
X812750D01*
X675000Y167400D02*
X685000D01*
X680000Y162400D02*
Y172400D01*
X309343Y317268D02*
Y373368D01*
X270143Y317268D02*
X309343D01*
X270143D02*
Y373368D01*
X309343D01*
X433000Y482000D02*
X443000D01*
X438000Y477000D02*
Y487000D01*
X429250Y498000D02*
X446750D01*
X429250Y466000D02*
Y498000D01*
Y466000D02*
X446750D01*
Y498000D01*
D122*
X242000Y57000D02*
X242220Y36840D01*
X242000Y57000D02*
X285000D01*
Y37000D02*
Y57000D01*
X242000Y37000D02*
X285000Y36840D01*
X177000Y570000D02*
X177220Y549840D01*
X177000Y570000D02*
X220000D01*
Y550000D02*
Y570000D01*
X177000Y550000D02*
X220000Y549840D01*
M02*
