G04*
G04 #@! TF.GenerationSoftware,Altium Limited,Altium Designer,21.6.4 (81)*
G04*
G04 Layer_Physical_Order=2*
G04 Layer_Color=32768*
%FSLAX44Y44*%
%MOMM*%
G71*
G04*
G04 #@! TF.SameCoordinates,3C3A1148-CEAA-43B7-A459-4803B486FB21*
G04*
G04*
G04 #@! TF.FilePolarity,Negative*
G04*
G01*
G75*
%ADD12C,0.2500*%
%ADD99C,3.7160*%
%ADD106C,1.0160*%
%ADD107C,2.0160*%
%ADD108C,1.8160*%
%ADD109R,2.7160X1.6160*%
%ADD110C,2.1160*%
%ADD111C,4.2160*%
%ADD112C,2.0360*%
%ADD113C,1.3160*%
%ADD114C,1.5160*%
D12*
X325000Y0D02*
Y225000D01*
X325000Y611000D02*
X325000Y225000D01*
X325000Y611000D02*
X730000D01*
Y447000D02*
Y611000D01*
X691000Y447000D02*
X730000D01*
X691000Y365000D02*
Y447000D01*
Y238000D02*
X880000D01*
X691000Y236000D02*
Y267000D01*
D99*
X780000Y386000D02*
D03*
Y314000D02*
D03*
X100000Y264000D02*
D03*
Y336000D02*
D03*
D106*
X0Y0D02*
Y800000D01*
Y0D02*
X880000D01*
Y800000D01*
X0D02*
X880000D01*
D107*
X150000Y668000D02*
D03*
X342000D02*
D03*
X532000D02*
D03*
X722000D02*
D03*
D108*
X580000Y540000D02*
D03*
D109*
X840000Y417500D02*
D03*
Y282500D02*
D03*
X40000Y232500D02*
D03*
Y367500D02*
D03*
D110*
X795700Y202000D02*
D03*
X770300D02*
D03*
X732700Y430000D02*
D03*
X707300D02*
D03*
X732700Y400000D02*
D03*
X707300D02*
D03*
D111*
X30000Y30000D02*
D03*
Y770000D02*
D03*
X850000D02*
D03*
Y30000D02*
D03*
D112*
X641900Y15000D02*
D03*
X743500D02*
D03*
X768900D02*
D03*
X718100D02*
D03*
X692700D02*
D03*
X667300D02*
D03*
X616500D02*
D03*
X591100D02*
D03*
X565700D02*
D03*
X641900Y167400D02*
D03*
X743500D02*
D03*
X794300D02*
D03*
X768900D02*
D03*
X718100D02*
D03*
X692700D02*
D03*
X667300D02*
D03*
X616500D02*
D03*
X565700D02*
D03*
D113*
X137707Y438250D02*
D03*
X150163D02*
D03*
X162620D02*
D03*
X125250D02*
D03*
X150163Y420000D02*
D03*
X137707D02*
D03*
X162620D02*
D03*
X125250D02*
D03*
X162620Y400950D02*
D03*
X150163D02*
D03*
X137707D02*
D03*
X125250D02*
D03*
X288380Y208050D02*
D03*
X275923D02*
D03*
X263467D02*
D03*
X251010D02*
D03*
X288380Y189000D02*
D03*
X251010D02*
D03*
X275923D02*
D03*
X263467D02*
D03*
X288380Y170750D02*
D03*
X251010D02*
D03*
X263467D02*
D03*
X275923D02*
D03*
X252707Y438250D02*
D03*
X265163D02*
D03*
X277620D02*
D03*
X240250D02*
D03*
X265163Y420000D02*
D03*
X252707D02*
D03*
X277620D02*
D03*
X240250D02*
D03*
X277620Y400950D02*
D03*
X265163D02*
D03*
X252707D02*
D03*
X240250D02*
D03*
X189750Y208050D02*
D03*
X177293D02*
D03*
X164837D02*
D03*
X152380D02*
D03*
X189750Y189000D02*
D03*
X152380D02*
D03*
X177293D02*
D03*
X164837D02*
D03*
X189750Y170750D02*
D03*
X152380D02*
D03*
X164837D02*
D03*
X177293D02*
D03*
X208000Y191000D02*
D03*
X299000Y455000D02*
D03*
X184000Y453000D02*
D03*
X450000Y112000D02*
D03*
X372000Y136000D02*
D03*
X230000Y157000D02*
D03*
X131000Y156000D02*
D03*
X630000Y620000D02*
D03*
X629000Y675000D02*
D03*
X595000Y620000D02*
D03*
X593000Y675000D02*
D03*
X461000Y626000D02*
D03*
Y674000D02*
D03*
X400000Y625000D02*
D03*
X399000Y674000D02*
D03*
X282000Y626000D02*
D03*
X281000Y674000D02*
D03*
X211000Y627000D02*
D03*
Y673000D02*
D03*
X648057Y587493D02*
D03*
X663057D02*
D03*
X683057D02*
D03*
X703057D02*
D03*
X718057D02*
D03*
X648057Y572493D02*
D03*
X663057D02*
D03*
X683057D02*
D03*
X703057D02*
D03*
X718057D02*
D03*
X648057Y557493D02*
D03*
X663057D02*
D03*
X683057D02*
D03*
X703057D02*
D03*
X718057D02*
D03*
X648057Y542493D02*
D03*
X663057D02*
D03*
X683057D02*
D03*
X703057D02*
D03*
X718057D02*
D03*
X648057Y527493D02*
D03*
X663057D02*
D03*
X683057D02*
D03*
X703057D02*
D03*
X718057D02*
D03*
X648057Y514493D02*
D03*
X663057D02*
D03*
X683057D02*
D03*
X703057D02*
D03*
X718057D02*
D03*
X676458Y305000D02*
D03*
X661458D02*
D03*
X641458D02*
D03*
X621457D02*
D03*
X606457D02*
D03*
X676458Y320000D02*
D03*
X661458D02*
D03*
X641458D02*
D03*
X621457D02*
D03*
X606457D02*
D03*
X676458Y335000D02*
D03*
X661458D02*
D03*
X641458D02*
D03*
X621457D02*
D03*
X606457D02*
D03*
X676458Y350000D02*
D03*
X661458D02*
D03*
X641458D02*
D03*
X621457D02*
D03*
X606457D02*
D03*
X676458Y365000D02*
D03*
X661458D02*
D03*
X641458D02*
D03*
X621457D02*
D03*
X606457D02*
D03*
X676458Y378000D02*
D03*
X661458D02*
D03*
X641458D02*
D03*
X621457D02*
D03*
X606457D02*
D03*
X93000Y164000D02*
D03*
X76000D02*
D03*
X59000D02*
D03*
Y181000D02*
D03*
X157000Y456000D02*
D03*
X140000D02*
D03*
X123000D02*
D03*
X106000Y405000D02*
D03*
Y422000D02*
D03*
Y456000D02*
D03*
Y438000D02*
D03*
X89000D02*
D03*
X73000D02*
D03*
X57000D02*
D03*
X341000Y548000D02*
D03*
X215000Y574000D02*
D03*
X143000Y290000D02*
D03*
X158000D02*
D03*
X174000D02*
D03*
X189000D02*
D03*
X205000D02*
D03*
X220000D02*
D03*
X235000D02*
D03*
X251000D02*
D03*
Y305000D02*
D03*
X235000D02*
D03*
X220000D02*
D03*
X205000D02*
D03*
X189000D02*
D03*
X174000D02*
D03*
X158000D02*
D03*
X143000D02*
D03*
X221000Y471000D02*
D03*
X207000D02*
D03*
X221000Y460000D02*
D03*
X207000D02*
D03*
X221000Y449000D02*
D03*
X207000D02*
D03*
X221000Y388000D02*
D03*
X207000D02*
D03*
X221000Y400000D02*
D03*
X207000D02*
D03*
X221000Y413000D02*
D03*
X207000D02*
D03*
X221000Y425000D02*
D03*
X207000D02*
D03*
X221000Y438000D02*
D03*
X207000D02*
D03*
X542000Y186000D02*
D03*
X389000Y191000D02*
D03*
X859000Y229000D02*
D03*
D114*
X636000Y477000D02*
D03*
M02*
