G04*
G04 #@! TF.GenerationSoftware,Altium Limited,Altium Designer,21.6.4 (81)*
G04*
G04 Layer_Color=32896*
%FSLAX44Y44*%
%MOMM*%
G71*
G04*
G04 #@! TF.SameCoordinates,3C3A1148-CEAA-43B7-A459-4803B486FB21*
G04*
G04*
G04 #@! TF.FilePolarity,Positive*
G04*
G01*
G75*
%ADD10C,0.2000*%
%ADD14C,0.1000*%
G36*
X585640Y114920D02*
X587672D01*
Y112888D01*
X589704D01*
Y110856D01*
Y108824D01*
Y106792D01*
X591736D01*
Y104760D01*
Y102728D01*
X593768D01*
Y100696D01*
X595800D01*
Y98664D01*
Y96632D01*
X597832D01*
Y94600D01*
X591736D01*
Y96632D01*
X589704D01*
Y98664D01*
X573448D01*
Y96632D01*
Y94600D01*
X567352D01*
Y96632D01*
X569384D01*
Y98664D01*
X571416D01*
Y100696D01*
Y102728D01*
X573448D01*
Y104760D01*
Y106792D01*
Y108824D01*
X575480D01*
Y110856D01*
Y112888D01*
X579544D01*
Y114920D01*
Y116952D01*
X585640D01*
Y114920D01*
D02*
G37*
G36*
X638472D02*
Y112888D01*
Y110856D01*
Y108824D01*
Y106792D01*
Y104760D01*
Y102728D01*
Y100696D01*
Y98664D01*
Y96632D01*
Y94600D01*
X632376D01*
Y96632D01*
Y98664D01*
Y100696D01*
Y102728D01*
X618152D01*
Y100696D01*
Y98664D01*
Y96632D01*
Y94600D01*
X614088D01*
Y96632D01*
Y98664D01*
Y100696D01*
Y102728D01*
Y104760D01*
Y106792D01*
Y108824D01*
Y110856D01*
Y112888D01*
Y114920D01*
Y116952D01*
X618152D01*
Y114920D01*
Y112888D01*
Y110856D01*
Y108824D01*
Y106792D01*
X632376D01*
Y108824D01*
Y110856D01*
Y112888D01*
Y114920D01*
Y116952D01*
X638472D01*
Y114920D01*
D02*
G37*
G36*
X679112D02*
Y112888D01*
Y110856D01*
Y108824D01*
Y106792D01*
Y104760D01*
Y102728D01*
Y100696D01*
Y98664D01*
Y96632D01*
Y94600D01*
X673016D01*
Y96632D01*
Y98664D01*
Y100696D01*
X662856D01*
Y102728D01*
X656760D01*
Y104760D01*
X654728D01*
Y106792D01*
Y108824D01*
Y110856D01*
Y112888D01*
X656760D01*
Y114920D01*
X660824D01*
Y116952D01*
X679112D01*
Y114920D01*
D02*
G37*
G36*
X713656D02*
Y112888D01*
Y110856D01*
Y108824D01*
Y106792D01*
Y104760D01*
Y102728D01*
Y100696D01*
Y98664D01*
Y96632D01*
Y94600D01*
X695368D01*
Y96632D01*
X709592D01*
Y98664D01*
Y100696D01*
Y102728D01*
Y104760D01*
Y106792D01*
Y108824D01*
Y110856D01*
Y112888D01*
Y114920D01*
Y116952D01*
X713656D01*
Y114920D01*
D02*
G37*
G36*
X748200D02*
Y112888D01*
X750232D01*
Y110856D01*
X752264D01*
Y108824D01*
Y106792D01*
Y104760D01*
X754296D01*
Y102728D01*
X756328D01*
Y100696D01*
Y98664D01*
X758360D01*
Y96632D01*
Y94600D01*
X752264D01*
Y96632D01*
Y98664D01*
X736008D01*
Y96632D01*
Y94600D01*
X729912D01*
Y96632D01*
X731944D01*
Y98664D01*
Y100696D01*
X733976D01*
Y102728D01*
X736008D01*
Y104760D01*
Y106792D01*
Y108824D01*
Y110856D01*
X738040D01*
Y112888D01*
X740072D01*
Y114920D01*
X742104D01*
Y116952D01*
X748200D01*
Y114920D01*
D02*
G37*
G36*
X813224Y135240D02*
X815256D01*
Y133208D01*
X817288D01*
Y131176D01*
X819320D01*
Y129144D01*
X823384D01*
Y127112D01*
X825416D01*
Y125080D01*
Y123048D01*
Y121016D01*
X829480D01*
Y118984D01*
X831512D01*
Y116952D01*
Y114920D01*
X833544D01*
Y112888D01*
Y110856D01*
Y108824D01*
X835576D01*
Y106792D01*
Y104760D01*
Y102728D01*
X837608D01*
Y100696D01*
Y98664D01*
X839640D01*
Y96632D01*
Y94600D01*
Y92568D01*
Y90536D01*
Y88504D01*
Y86472D01*
Y84440D01*
X835576D01*
Y82408D01*
X833544D01*
Y80376D01*
X827448D01*
Y78344D01*
X794936D01*
Y80376D01*
Y82408D01*
X805096D01*
Y80376D01*
X815256D01*
Y82408D01*
X823384D01*
Y84440D01*
X827448D01*
Y86472D01*
X833544D01*
Y88504D01*
Y90536D01*
Y92568D01*
Y94600D01*
Y96632D01*
Y98664D01*
Y100696D01*
Y102728D01*
Y104760D01*
X831512D01*
Y106792D01*
Y108824D01*
X829480D01*
Y110856D01*
Y112888D01*
X827448D01*
Y114920D01*
X825416D01*
Y116952D01*
Y118984D01*
Y121016D01*
X821352D01*
Y123048D01*
X819320D01*
Y125080D01*
X817288D01*
Y127112D01*
Y129144D01*
X811192D01*
Y131176D01*
X809160D01*
Y129144D01*
X803064D01*
Y127112D01*
X801032D01*
Y125080D01*
Y123048D01*
X799000D01*
Y121016D01*
X794936D01*
Y118984D01*
X792904D01*
Y116952D01*
Y114920D01*
Y112888D01*
X790872D01*
Y110856D01*
X788840D01*
Y108824D01*
Y106792D01*
X786808D01*
Y104760D01*
Y102728D01*
X784776D01*
Y100696D01*
Y98664D01*
X780712D01*
Y100696D01*
X782744D01*
Y102728D01*
Y104760D01*
X784776D01*
Y106792D01*
Y108824D01*
Y110856D01*
Y112888D01*
X786808D01*
Y114920D01*
Y116952D01*
X788840D01*
Y118984D01*
X790872D01*
Y121016D01*
X792904D01*
Y123048D01*
Y125080D01*
X794936D01*
Y127112D01*
X796968D01*
Y129144D01*
X801032D01*
Y131176D01*
Y133208D01*
X805096D01*
Y135240D01*
X807128D01*
Y137272D01*
X813224D01*
Y135240D01*
D02*
G37*
G36*
X659920Y51610D02*
X658726D01*
Y52973D01*
X659920D01*
Y51610D01*
D02*
G37*
G36*
X735395Y52994D02*
X735596Y52973D01*
X735786Y52941D01*
X735977Y52899D01*
X736146Y52846D01*
X736304Y52793D01*
X736452Y52730D01*
X736579Y52677D01*
X736706Y52614D01*
X736811Y52550D01*
X736896Y52497D01*
X736980Y52445D01*
X737033Y52402D01*
X737086Y52371D01*
X737107Y52349D01*
X737118Y52339D01*
X737255Y52212D01*
X737382Y52064D01*
X737498Y51916D01*
X737604Y51768D01*
X737699Y51610D01*
X737773Y51462D01*
X737910Y51155D01*
X737963Y51018D01*
X738005Y50891D01*
X738037Y50775D01*
X738069Y50680D01*
X738090Y50595D01*
X738100Y50532D01*
X738111Y50490D01*
Y50479D01*
X736917Y50268D01*
X736854Y50574D01*
X736769Y50838D01*
X736674Y51071D01*
X736568Y51251D01*
X736484Y51398D01*
X736399Y51494D01*
X736346Y51557D01*
X736325Y51578D01*
X736135Y51726D01*
X735945Y51832D01*
X735744Y51916D01*
X735564Y51969D01*
X735395Y52001D01*
X735332Y52011D01*
X735269D01*
X735216Y52022D01*
X735152D01*
X734899Y52001D01*
X734677Y51958D01*
X734476Y51884D01*
X734307Y51810D01*
X734180Y51726D01*
X734085Y51652D01*
X734022Y51610D01*
X734001Y51589D01*
X733916Y51504D01*
X733853Y51420D01*
X733736Y51229D01*
X733652Y51050D01*
X733599Y50881D01*
X733567Y50722D01*
X733557Y50606D01*
X733546Y50553D01*
Y50521D01*
Y50500D01*
Y50490D01*
X733557Y50342D01*
X733578Y50204D01*
X733599Y50067D01*
X733641Y49951D01*
X733747Y49739D01*
X733853Y49570D01*
X733969Y49433D01*
X734075Y49338D01*
X734117Y49306D01*
X734138Y49285D01*
X734159Y49264D01*
X734170D01*
X734402Y49127D01*
X734645Y49032D01*
X734878Y48958D01*
X735089Y48915D01*
X735269Y48884D01*
X735343Y48873D01*
X735416D01*
X735469Y48863D01*
X735607D01*
X735670Y48873D01*
X735723Y48884D01*
X735744D01*
X735871Y47838D01*
X735691Y47880D01*
X735522Y47912D01*
X735385Y47933D01*
X735258Y47954D01*
X735163D01*
X735089Y47964D01*
X735026D01*
X734878Y47954D01*
X734730Y47943D01*
X734466Y47880D01*
X734233Y47795D01*
X734032Y47700D01*
X733874Y47594D01*
X733810Y47552D01*
X733758Y47510D01*
X733715Y47478D01*
X733684Y47447D01*
X733673Y47436D01*
X733662Y47425D01*
X733567Y47320D01*
X733483Y47214D01*
X733409Y47108D01*
X733345Y46992D01*
X733250Y46770D01*
X733176Y46548D01*
X733145Y46358D01*
X733134Y46284D01*
X733124Y46210D01*
X733113Y46157D01*
Y46105D01*
Y46083D01*
Y46073D01*
X733124Y45914D01*
X733134Y45767D01*
X733208Y45481D01*
X733293Y45238D01*
X733398Y45027D01*
X733462Y44932D01*
X733515Y44858D01*
X733557Y44784D01*
X733599Y44731D01*
X733641Y44689D01*
X733673Y44657D01*
X733684Y44636D01*
X733694Y44625D01*
X733810Y44520D01*
X733927Y44435D01*
X734043Y44361D01*
X734159Y44287D01*
X734402Y44181D01*
X734635Y44118D01*
X734825Y44076D01*
X734920Y44065D01*
X734983Y44055D01*
X735047Y44044D01*
X735131D01*
X735385Y44065D01*
X735628Y44118D01*
X735829Y44181D01*
X736008Y44266D01*
X736156Y44351D01*
X736262Y44414D01*
X736293Y44446D01*
X736325Y44467D01*
X736336Y44488D01*
X736346D01*
X736431Y44583D01*
X736515Y44678D01*
X736663Y44900D01*
X736780Y45143D01*
X736875Y45386D01*
X736949Y45608D01*
X736970Y45703D01*
X736991Y45788D01*
X737012Y45862D01*
X737023Y45914D01*
X737033Y45946D01*
Y45957D01*
X738227Y45798D01*
X738195Y45576D01*
X738153Y45365D01*
X738090Y45164D01*
X738026Y44974D01*
X737952Y44794D01*
X737868Y44636D01*
X737783Y44477D01*
X737699Y44351D01*
X737614Y44224D01*
X737540Y44118D01*
X737466Y44023D01*
X737403Y43949D01*
X737340Y43886D01*
X737297Y43843D01*
X737276Y43822D01*
X737266Y43812D01*
X737107Y43674D01*
X736927Y43558D01*
X736758Y43463D01*
X736579Y43368D01*
X736399Y43294D01*
X736220Y43241D01*
X736050Y43188D01*
X735882Y43146D01*
X735723Y43114D01*
X735586Y43093D01*
X735459Y43072D01*
X735343Y43061D01*
X735258D01*
X735184Y43051D01*
X735131D01*
X734867Y43061D01*
X734624Y43093D01*
X734392Y43135D01*
X734170Y43188D01*
X733958Y43252D01*
X733768Y43326D01*
X733589Y43410D01*
X733430Y43495D01*
X733282Y43569D01*
X733155Y43653D01*
X733039Y43727D01*
X732955Y43791D01*
X732881Y43843D01*
X732828Y43886D01*
X732796Y43917D01*
X732785Y43928D01*
X732616Y44097D01*
X732479Y44277D01*
X732352Y44456D01*
X732247Y44647D01*
X732151Y44826D01*
X732078Y45006D01*
X732014Y45175D01*
X731961Y45344D01*
X731919Y45502D01*
X731898Y45640D01*
X731877Y45767D01*
X731856Y45883D01*
Y45967D01*
X731845Y46041D01*
Y46083D01*
Y46094D01*
Y46263D01*
X731866Y46432D01*
X731919Y46739D01*
X732004Y47003D01*
X732046Y47119D01*
X732088Y47225D01*
X732130Y47330D01*
X732173Y47415D01*
X732215Y47489D01*
X732257Y47542D01*
X732289Y47594D01*
X732310Y47626D01*
X732321Y47647D01*
X732331Y47658D01*
X732521Y47880D01*
X732743Y48059D01*
X732965Y48197D01*
X733176Y48313D01*
X733377Y48397D01*
X733462Y48429D01*
X733525Y48450D01*
X733589Y48471D01*
X733631Y48482D01*
X733662Y48493D01*
X733673D01*
X733441Y48619D01*
X733240Y48746D01*
X733060Y48884D01*
X732923Y49021D01*
X732807Y49137D01*
X732733Y49232D01*
X732680Y49296D01*
X732669Y49306D01*
Y49317D01*
X732553Y49518D01*
X732468Y49718D01*
X732405Y49908D01*
X732363Y50088D01*
X732342Y50236D01*
X732321Y50363D01*
Y50405D01*
Y50437D01*
Y50458D01*
Y50469D01*
X732331Y50712D01*
X732373Y50944D01*
X732437Y51155D01*
X732500Y51346D01*
X732564Y51504D01*
X732595Y51568D01*
X732627Y51620D01*
X732648Y51663D01*
X732669Y51705D01*
X732680Y51715D01*
Y51726D01*
X732828Y51937D01*
X732997Y52117D01*
X733166Y52275D01*
X733335Y52413D01*
X733483Y52518D01*
X733599Y52592D01*
X733652Y52624D01*
X733684Y52645D01*
X733705Y52656D01*
X733715D01*
X733969Y52772D01*
X734222Y52857D01*
X734476Y52920D01*
X734698Y52962D01*
X734899Y52983D01*
X734973Y52994D01*
X735047Y53004D01*
X735184D01*
X735395Y52994D01*
D02*
G37*
G36*
X620676Y48271D02*
X624448Y43220D01*
X622895D01*
X620422Y46601D01*
X620359Y46686D01*
X620296Y46791D01*
X620137Y47013D01*
X620063Y47119D01*
X620010Y47203D01*
X619968Y47267D01*
X619958Y47277D01*
Y47288D01*
X619810Y47066D01*
X619746Y46971D01*
X619683Y46887D01*
X619630Y46802D01*
X619588Y46749D01*
X619566Y46707D01*
X619556Y46696D01*
X617083Y43220D01*
X615509D01*
X619165Y48334D01*
X615773Y52973D01*
X617178D01*
X619123Y50374D01*
X619281Y50162D01*
X619440Y49961D01*
X619566Y49771D01*
X619683Y49602D01*
X619778Y49465D01*
X619841Y49370D01*
X619873Y49327D01*
X619894Y49296D01*
X619905Y49285D01*
Y49275D01*
X620000Y49444D01*
X620126Y49644D01*
X620253Y49835D01*
X620380Y50035D01*
X620496Y50204D01*
X620549Y50278D01*
X620592Y50342D01*
X620634Y50395D01*
X620665Y50437D01*
X620676Y50458D01*
X620687Y50469D01*
X622472Y52973D01*
X624004D01*
X620676Y48271D01*
D02*
G37*
G36*
X710448Y43220D02*
X709159D01*
Y47816D01*
X704098D01*
Y43220D01*
X702809D01*
Y52973D01*
X704098D01*
Y48968D01*
X709159D01*
Y52973D01*
X710448D01*
Y43220D01*
D02*
G37*
G36*
X779193D02*
X777851D01*
X775801Y50648D01*
X775749Y50828D01*
X775696Y51018D01*
X775643Y51219D01*
X775601Y51398D01*
X775558Y51546D01*
X775548Y51620D01*
X775537Y51673D01*
X775516Y51726D01*
Y51758D01*
X775506Y51779D01*
Y51789D01*
X775495Y51747D01*
X775474Y51684D01*
X775453Y51610D01*
X775432Y51525D01*
X775379Y51335D01*
X775326Y51145D01*
X775273Y50955D01*
X775252Y50870D01*
X775231Y50796D01*
X775210Y50733D01*
X775199Y50690D01*
X775189Y50659D01*
Y50648D01*
X773149Y43220D01*
X771892D01*
X769219Y52973D01*
X770518D01*
X772050Y46696D01*
X772156Y46263D01*
X772251Y45862D01*
X772293Y45682D01*
X772336Y45502D01*
X772367Y45344D01*
X772399Y45196D01*
X772431Y45059D01*
X772462Y44942D01*
X772484Y44837D01*
X772505Y44742D01*
X772515Y44678D01*
X772526Y44625D01*
X772536Y44594D01*
Y44583D01*
X772642Y45196D01*
X772758Y45798D01*
X772822Y46094D01*
X772885Y46379D01*
X772948Y46654D01*
X773012Y46908D01*
X773075Y47151D01*
X773128Y47362D01*
X773181Y47552D01*
X773223Y47711D01*
X773255Y47848D01*
X773287Y47943D01*
X773297Y48007D01*
X773308Y48028D01*
X774692Y52973D01*
X776245D01*
X778105Y46379D01*
X778126Y46316D01*
X778147Y46231D01*
X778168Y46126D01*
X778200Y45999D01*
X778242Y45851D01*
X778274Y45703D01*
X778358Y45386D01*
X778390Y45238D01*
X778432Y45090D01*
X778464Y44953D01*
X778485Y44826D01*
X778517Y44731D01*
X778527Y44647D01*
X778549Y44604D01*
Y44583D01*
X778612Y44953D01*
X778686Y45312D01*
X778749Y45640D01*
X778781Y45798D01*
X778813Y45946D01*
X778844Y46083D01*
X778876Y46200D01*
X778897Y46305D01*
X778918Y46400D01*
X778940Y46474D01*
X778950Y46527D01*
X778961Y46559D01*
Y46570D01*
X780429Y52973D01*
X781761D01*
X779193Y43220D01*
D02*
G37*
G36*
X744049D02*
X742718D01*
X738914Y52973D01*
X740224D01*
X742855Y45883D01*
X742961Y45587D01*
X743067Y45302D01*
X743162Y45027D01*
X743236Y44784D01*
X743267Y44678D01*
X743299Y44583D01*
X743320Y44499D01*
X743341Y44425D01*
X743363Y44372D01*
X743373Y44319D01*
X743384Y44298D01*
Y44287D01*
X743468Y44573D01*
X743553Y44858D01*
X743637Y45122D01*
X743711Y45365D01*
X743753Y45481D01*
X743785Y45576D01*
X743817Y45661D01*
X743838Y45735D01*
X743859Y45798D01*
X743880Y45841D01*
X743891Y45872D01*
Y45883D01*
X746427Y52973D01*
X747832D01*
X744049Y43220D01*
D02*
G37*
G36*
X697874D02*
X696543D01*
X692739Y52973D01*
X694049D01*
X696680Y45883D01*
X696786Y45587D01*
X696891Y45302D01*
X696986Y45027D01*
X697060Y44784D01*
X697092Y44678D01*
X697124Y44583D01*
X697145Y44499D01*
X697166Y44425D01*
X697187Y44372D01*
X697198Y44319D01*
X697208Y44298D01*
Y44287D01*
X697293Y44573D01*
X697377Y44858D01*
X697462Y45122D01*
X697536Y45365D01*
X697578Y45481D01*
X697610Y45576D01*
X697642Y45661D01*
X697663Y45735D01*
X697684Y45798D01*
X697705Y45841D01*
X697716Y45872D01*
Y45883D01*
X700252Y52973D01*
X701657D01*
X697874Y43220D01*
D02*
G37*
G36*
X685004D02*
X683673D01*
X679869Y52973D01*
X681179D01*
X683810Y45883D01*
X683916Y45587D01*
X684022Y45302D01*
X684117Y45027D01*
X684191Y44784D01*
X684222Y44678D01*
X684254Y44583D01*
X684275Y44499D01*
X684296Y44425D01*
X684317Y44372D01*
X684328Y44319D01*
X684339Y44298D01*
Y44287D01*
X684423Y44573D01*
X684508Y44858D01*
X684592Y45122D01*
X684666Y45365D01*
X684708Y45481D01*
X684740Y45576D01*
X684772Y45661D01*
X684793Y45735D01*
X684814Y45798D01*
X684835Y45841D01*
X684846Y45872D01*
Y45883D01*
X687382Y52973D01*
X688787D01*
X685004Y43220D01*
D02*
G37*
G36*
X676224Y50437D02*
X676488Y50405D01*
X676720Y50352D01*
X676953Y50289D01*
X677164Y50215D01*
X677365Y50130D01*
X677544Y50046D01*
X677703Y49951D01*
X677851Y49856D01*
X677978Y49771D01*
X678094Y49687D01*
X678178Y49613D01*
X678252Y49549D01*
X678305Y49496D01*
X678337Y49465D01*
X678347Y49454D01*
X678506Y49264D01*
X678643Y49053D01*
X678770Y48831D01*
X678876Y48609D01*
X678960Y48376D01*
X679034Y48144D01*
X679098Y47922D01*
X679140Y47700D01*
X679182Y47499D01*
X679203Y47299D01*
X679224Y47130D01*
X679246Y46982D01*
Y46855D01*
X679256Y46760D01*
Y46707D01*
Y46686D01*
X679246Y46369D01*
X679214Y46073D01*
X679172Y45798D01*
X679119Y45545D01*
X679045Y45302D01*
X678971Y45080D01*
X678886Y44879D01*
X678802Y44699D01*
X678728Y44541D01*
X678643Y44403D01*
X678569Y44287D01*
X678495Y44192D01*
X678443Y44108D01*
X678400Y44055D01*
X678369Y44023D01*
X678358Y44012D01*
X678178Y43843D01*
X677988Y43696D01*
X677798Y43569D01*
X677587Y43463D01*
X677386Y43368D01*
X677175Y43294D01*
X676974Y43231D01*
X676784Y43178D01*
X676604Y43146D01*
X676435Y43114D01*
X676287Y43093D01*
X676150Y43072D01*
X676044D01*
X675959Y43061D01*
X675896D01*
X675674Y43072D01*
X675452Y43083D01*
X675251Y43114D01*
X675061Y43157D01*
X674882Y43199D01*
X674723Y43252D01*
X674565Y43305D01*
X674427Y43357D01*
X674301Y43410D01*
X674195Y43463D01*
X674100Y43516D01*
X674015Y43558D01*
X673962Y43600D01*
X673910Y43632D01*
X673888Y43643D01*
X673878Y43653D01*
X673730Y43769D01*
X673603Y43896D01*
X673487Y44034D01*
X673371Y44171D01*
X673180Y44456D01*
X673033Y44720D01*
X672980Y44847D01*
X672927Y44963D01*
X672885Y45069D01*
X672853Y45164D01*
X672821Y45238D01*
X672800Y45291D01*
X672790Y45333D01*
Y45344D01*
X674036Y45502D01*
X674142Y45238D01*
X674269Y45006D01*
X674396Y44805D01*
X674512Y44657D01*
X674617Y44530D01*
X674702Y44446D01*
X674755Y44403D01*
X674765Y44382D01*
X674776D01*
X674956Y44266D01*
X675146Y44192D01*
X675336Y44129D01*
X675505Y44086D01*
X675664Y44065D01*
X675790Y44055D01*
X675833Y44044D01*
X675896D01*
X676055Y44055D01*
X676213Y44076D01*
X676361Y44097D01*
X676498Y44139D01*
X676752Y44234D01*
X676963Y44351D01*
X677058Y44403D01*
X677143Y44467D01*
X677206Y44520D01*
X677270Y44562D01*
X677312Y44604D01*
X677344Y44636D01*
X677365Y44647D01*
X677375Y44657D01*
X677481Y44784D01*
X677576Y44911D01*
X677650Y45059D01*
X677724Y45196D01*
X677840Y45502D01*
X677925Y45788D01*
X677956Y45925D01*
X677978Y46052D01*
X677999Y46157D01*
X678009Y46263D01*
X678020Y46337D01*
X678030Y46400D01*
Y46443D01*
Y46453D01*
X672758D01*
X672747Y46591D01*
Y46696D01*
Y46749D01*
Y46770D01*
X672758Y47087D01*
X672790Y47383D01*
X672832Y47668D01*
X672885Y47933D01*
X672959Y48176D01*
X673033Y48397D01*
X673117Y48598D01*
X673191Y48778D01*
X673276Y48936D01*
X673360Y49084D01*
X673434Y49201D01*
X673508Y49296D01*
X673561Y49380D01*
X673603Y49433D01*
X673635Y49465D01*
X673645Y49475D01*
X673814Y49644D01*
X674005Y49792D01*
X674195Y49930D01*
X674385Y50035D01*
X674575Y50130D01*
X674776Y50215D01*
X674956Y50278D01*
X675135Y50331D01*
X675304Y50363D01*
X675463Y50395D01*
X675600Y50416D01*
X675727Y50437D01*
X675822D01*
X675896Y50447D01*
X675959D01*
X676224Y50437D01*
D02*
G37*
G36*
X768024Y43220D02*
X766735D01*
Y47182D01*
X764242D01*
X763861Y47193D01*
X763523Y47225D01*
X763206Y47267D01*
X762910Y47320D01*
X762657Y47383D01*
X762414Y47457D01*
X762213Y47531D01*
X762023Y47616D01*
X761864Y47690D01*
X761727Y47764D01*
X761611Y47838D01*
X761526Y47901D01*
X761452Y47964D01*
X761410Y48007D01*
X761378Y48028D01*
X761368Y48038D01*
X761230Y48207D01*
X761104Y48376D01*
X760998Y48556D01*
X760913Y48736D01*
X760829Y48915D01*
X760765Y49084D01*
X760713Y49253D01*
X760670Y49412D01*
X760639Y49570D01*
X760617Y49708D01*
X760596Y49824D01*
X760586Y49930D01*
X760575Y50025D01*
Y50088D01*
Y50130D01*
Y50141D01*
X760586Y50405D01*
X760617Y50659D01*
X760670Y50881D01*
X760723Y51081D01*
X760787Y51240D01*
X760808Y51314D01*
X760829Y51367D01*
X760850Y51409D01*
X760871Y51441D01*
X760882Y51462D01*
Y51472D01*
X760998Y51694D01*
X761125Y51874D01*
X761262Y52043D01*
X761378Y52170D01*
X761494Y52275D01*
X761579Y52349D01*
X761642Y52402D01*
X761653Y52413D01*
X761664D01*
X761854Y52529D01*
X762054Y52624D01*
X762255Y52709D01*
X762445Y52772D01*
X762615Y52825D01*
X762688Y52835D01*
X762752Y52857D01*
X762794Y52867D01*
X762836D01*
X762858Y52878D01*
X762868D01*
X762963Y52899D01*
X763079Y52909D01*
X763312Y52930D01*
X763555Y52952D01*
X763798Y52962D01*
X764009Y52973D01*
X768024D01*
Y43220D01*
D02*
G37*
G36*
X759666Y51821D02*
X756454D01*
Y43220D01*
X755165D01*
Y51821D01*
X751953D01*
Y52973D01*
X759666D01*
Y51821D01*
D02*
G37*
G36*
X729985Y43220D02*
X728622D01*
Y44583D01*
X729985D01*
Y43220D01*
D02*
G37*
G36*
X668838Y50437D02*
X668986Y50405D01*
X669112Y50374D01*
X669229Y50331D01*
X669313Y50278D01*
X669387Y50247D01*
X669429Y50215D01*
X669451Y50204D01*
X669514Y50152D01*
X669588Y50088D01*
X669715Y49951D01*
X669842Y49782D01*
X669958Y49613D01*
X670063Y49465D01*
X670137Y49327D01*
X670169Y49285D01*
X670190Y49243D01*
X670211Y49222D01*
Y50289D01*
X671289D01*
Y43220D01*
X670095D01*
Y46918D01*
X670085Y47193D01*
X670063Y47457D01*
X670032Y47690D01*
X670000Y47901D01*
X669968Y48070D01*
X669947Y48144D01*
X669937Y48207D01*
X669926Y48250D01*
X669915Y48281D01*
X669905Y48302D01*
Y48313D01*
X669842Y48461D01*
X669778Y48598D01*
X669704Y48704D01*
X669630Y48799D01*
X669567Y48873D01*
X669514Y48926D01*
X669472Y48958D01*
X669461Y48968D01*
X669334Y49053D01*
X669218Y49106D01*
X669102Y49148D01*
X668986Y49180D01*
X668891Y49201D01*
X668817Y49211D01*
X668753D01*
X668584Y49201D01*
X668426Y49169D01*
X668278Y49127D01*
X668151Y49084D01*
X668035Y49032D01*
X667950Y48989D01*
X667897Y48958D01*
X667876Y48947D01*
X667454Y50057D01*
X667686Y50183D01*
X667918Y50278D01*
X668119Y50352D01*
X668309Y50395D01*
X668468Y50426D01*
X668531Y50437D01*
X668584D01*
X668626Y50447D01*
X668690D01*
X668838Y50437D01*
D02*
G37*
G36*
X659920Y43220D02*
X658726D01*
Y50289D01*
X659920D01*
Y43220D01*
D02*
G37*
G36*
X646278Y50437D02*
X646532Y50395D01*
X646764Y50342D01*
X646986Y50268D01*
X647187Y50173D01*
X647367Y50078D01*
X647536Y49972D01*
X647684Y49866D01*
X647821Y49750D01*
X647937Y49644D01*
X648032Y49549D01*
X648106Y49454D01*
X648170Y49380D01*
X648223Y49327D01*
X648244Y49285D01*
X648254Y49275D01*
Y50289D01*
X649332D01*
Y43220D01*
X648138D01*
Y47077D01*
X648128Y47320D01*
X648117Y47552D01*
X648085Y47753D01*
X648054Y47943D01*
X648011Y48112D01*
X647969Y48260D01*
X647916Y48397D01*
X647863Y48514D01*
X647811Y48619D01*
X647758Y48704D01*
X647715Y48767D01*
X647673Y48831D01*
X647642Y48873D01*
X647610Y48905D01*
X647599Y48915D01*
X647589Y48926D01*
X647483Y49010D01*
X647367Y49084D01*
X647145Y49211D01*
X646923Y49296D01*
X646722Y49349D01*
X646543Y49391D01*
X646458Y49401D01*
X646395D01*
X646342Y49412D01*
X646268D01*
X646088Y49401D01*
X645930Y49380D01*
X645792Y49338D01*
X645666Y49306D01*
X645570Y49264D01*
X645497Y49222D01*
X645444Y49201D01*
X645433Y49190D01*
X645306Y49106D01*
X645201Y49010D01*
X645116Y48915D01*
X645053Y48820D01*
X645000Y48736D01*
X644968Y48672D01*
X644947Y48630D01*
X644937Y48609D01*
X644884Y48461D01*
X644852Y48292D01*
X644820Y48112D01*
X644810Y47933D01*
X644799Y47774D01*
X644789Y47700D01*
Y47637D01*
Y47594D01*
Y47552D01*
Y47531D01*
Y47520D01*
Y43220D01*
X643595D01*
Y47563D01*
Y47711D01*
Y47848D01*
X643605Y47986D01*
Y48102D01*
X643616Y48207D01*
Y48302D01*
X643626Y48461D01*
X643647Y48577D01*
X643658Y48662D01*
X643669Y48714D01*
Y48725D01*
X643711Y48915D01*
X643774Y49084D01*
X643827Y49232D01*
X643890Y49359D01*
X643954Y49465D01*
X643996Y49549D01*
X644028Y49591D01*
X644038Y49613D01*
X644144Y49750D01*
X644271Y49866D01*
X644408Y49961D01*
X644535Y50057D01*
X644662Y50120D01*
X644757Y50173D01*
X644820Y50204D01*
X644831Y50215D01*
X644841D01*
X645042Y50289D01*
X645243Y50352D01*
X645444Y50395D01*
X645623Y50416D01*
X645782Y50437D01*
X645845D01*
X645909Y50447D01*
X646014D01*
X646278Y50437D01*
D02*
G37*
G36*
X633271Y43220D02*
X631982D01*
Y47552D01*
X630323D01*
X630175Y47542D01*
X630048Y47531D01*
X629943D01*
X629869Y47520D01*
X629816Y47510D01*
X629784Y47499D01*
X629774D01*
X629657Y47468D01*
X629552Y47425D01*
X629457Y47383D01*
X629362Y47341D01*
X629288Y47299D01*
X629235Y47267D01*
X629193Y47246D01*
X629182Y47235D01*
X629076Y47161D01*
X628960Y47056D01*
X628844Y46950D01*
X628749Y46844D01*
X628654Y46749D01*
X628590Y46665D01*
X628548Y46612D01*
X628527Y46601D01*
Y46591D01*
X628379Y46400D01*
X628220Y46189D01*
X628073Y45967D01*
X627925Y45745D01*
X627798Y45555D01*
X627734Y45471D01*
X627692Y45397D01*
X627650Y45333D01*
X627618Y45291D01*
X627608Y45259D01*
X627597Y45249D01*
X626308Y43220D01*
X624691D01*
X626382Y45872D01*
X626572Y46147D01*
X626762Y46400D01*
X626942Y46622D01*
X627100Y46813D01*
X627238Y46961D01*
X627301Y47024D01*
X627354Y47077D01*
X627396Y47119D01*
X627428Y47151D01*
X627439Y47161D01*
X627449Y47172D01*
X627555Y47256D01*
X627682Y47351D01*
X627808Y47425D01*
X627935Y47499D01*
X628051Y47563D01*
X628146Y47616D01*
X628210Y47647D01*
X628220Y47658D01*
X628231D01*
X627977Y47700D01*
X627734Y47753D01*
X627513Y47816D01*
X627312Y47880D01*
X627122Y47954D01*
X626952Y48028D01*
X626805Y48102D01*
X626667Y48176D01*
X626540Y48250D01*
X626435Y48324D01*
X626350Y48387D01*
X626276Y48440D01*
X626223Y48493D01*
X626181Y48524D01*
X626160Y48545D01*
X626149Y48556D01*
X626033Y48693D01*
X625928Y48831D01*
X625832Y48979D01*
X625758Y49127D01*
X625695Y49275D01*
X625642Y49422D01*
X625558Y49697D01*
X625526Y49824D01*
X625505Y49940D01*
X625494Y50046D01*
X625484Y50141D01*
X625473Y50204D01*
Y50268D01*
Y50300D01*
Y50310D01*
X625494Y50606D01*
X625536Y50881D01*
X625600Y51124D01*
X625674Y51346D01*
X625716Y51441D01*
X625758Y51525D01*
X625790Y51599D01*
X625822Y51663D01*
X625843Y51715D01*
X625864Y51747D01*
X625885Y51768D01*
Y51779D01*
X626044Y52011D01*
X626223Y52201D01*
X626403Y52371D01*
X626583Y52497D01*
X626730Y52592D01*
X626857Y52656D01*
X626910Y52677D01*
X626942Y52698D01*
X626963Y52709D01*
X626974D01*
X627111Y52751D01*
X627248Y52793D01*
X627565Y52857D01*
X627893Y52909D01*
X628210Y52941D01*
X628368Y52952D01*
X628506Y52962D01*
X628622D01*
X628738Y52973D01*
X633271D01*
Y43220D01*
D02*
G37*
G36*
X723889Y52994D02*
X724079Y52983D01*
X724258Y52952D01*
X724427Y52920D01*
X724575Y52878D01*
X724723Y52825D01*
X724861Y52772D01*
X724977Y52719D01*
X725093Y52666D01*
X725188Y52614D01*
X725273Y52571D01*
X725336Y52518D01*
X725389Y52487D01*
X725431Y52455D01*
X725452Y52445D01*
X725463Y52434D01*
X725590Y52318D01*
X725706Y52201D01*
X725917Y51937D01*
X726107Y51673D01*
X726255Y51409D01*
X726319Y51282D01*
X726372Y51177D01*
X726414Y51071D01*
X726456Y50986D01*
X726477Y50912D01*
X726498Y50849D01*
X726520Y50817D01*
Y50807D01*
X726583Y50606D01*
X726636Y50384D01*
X726720Y49930D01*
X726784Y49465D01*
X726805Y49243D01*
X726826Y49021D01*
X726837Y48820D01*
X726847Y48630D01*
X726858Y48461D01*
Y48313D01*
X726868Y48197D01*
Y48102D01*
Y48049D01*
Y48028D01*
X726858Y47531D01*
X726826Y47066D01*
X726784Y46644D01*
X726720Y46253D01*
X726646Y45893D01*
X726562Y45566D01*
X726477Y45280D01*
X726382Y45016D01*
X726298Y44794D01*
X726213Y44594D01*
X726129Y44435D01*
X726055Y44298D01*
X725991Y44192D01*
X725949Y44118D01*
X725917Y44076D01*
X725907Y44065D01*
X725748Y43886D01*
X725579Y43738D01*
X725400Y43600D01*
X725220Y43484D01*
X725040Y43389D01*
X724850Y43305D01*
X724670Y43241D01*
X724501Y43188D01*
X724332Y43146D01*
X724184Y43114D01*
X724047Y43093D01*
X723931Y43083D01*
X723836Y43072D01*
X723762Y43061D01*
X723698D01*
X723498Y43072D01*
X723318Y43083D01*
X723138Y43114D01*
X722969Y43146D01*
X722811Y43199D01*
X722673Y43241D01*
X722536Y43294D01*
X722420Y43347D01*
X722304Y43400D01*
X722208Y43453D01*
X722124Y43505D01*
X722061Y43548D01*
X722008Y43579D01*
X721965Y43611D01*
X721944Y43622D01*
X721934Y43632D01*
X721807Y43748D01*
X721680Y43865D01*
X721469Y44129D01*
X721289Y44393D01*
X721141Y44657D01*
X721078Y44784D01*
X721025Y44900D01*
X720983Y44995D01*
X720941Y45090D01*
X720909Y45154D01*
X720898Y45217D01*
X720877Y45249D01*
Y45259D01*
X720814Y45460D01*
X720761Y45682D01*
X720666Y46136D01*
X720602Y46601D01*
X720581Y46823D01*
X720560Y47045D01*
X720550Y47246D01*
X720539Y47436D01*
X720528Y47594D01*
X720518Y47742D01*
Y47859D01*
Y47954D01*
Y48007D01*
Y48028D01*
Y48292D01*
X720528Y48545D01*
X720539Y48778D01*
X720550Y49000D01*
X720571Y49201D01*
X720592Y49391D01*
X720613Y49560D01*
X720624Y49718D01*
X720645Y49856D01*
X720666Y49972D01*
X720687Y50078D01*
X720708Y50162D01*
X720719Y50236D01*
X720729Y50278D01*
X720740Y50310D01*
Y50321D01*
X720824Y50627D01*
X720930Y50912D01*
X721025Y51155D01*
X721120Y51367D01*
X721173Y51451D01*
X721205Y51536D01*
X721247Y51610D01*
X721279Y51663D01*
X721310Y51705D01*
X721321Y51736D01*
X721342Y51758D01*
Y51768D01*
X721490Y51980D01*
X721659Y52170D01*
X721818Y52328D01*
X721976Y52455D01*
X722113Y52561D01*
X722219Y52624D01*
X722261Y52656D01*
X722293Y52677D01*
X722314Y52688D01*
X722325D01*
X722557Y52793D01*
X722790Y52867D01*
X723022Y52930D01*
X723233Y52962D01*
X723424Y52983D01*
X723498Y52994D01*
X723572Y53004D01*
X723698D01*
X723889Y52994D01*
D02*
G37*
G36*
X664622Y50437D02*
X664812Y50426D01*
X664992Y50405D01*
X665139Y50374D01*
X665277Y50342D01*
X665372Y50321D01*
X665435Y50310D01*
X665446Y50300D01*
X665456D01*
X665626Y50247D01*
X665784Y50183D01*
X665911Y50120D01*
X666016Y50067D01*
X666101Y50025D01*
X666164Y49983D01*
X666207Y49961D01*
X666217Y49951D01*
X666355Y49845D01*
X666471Y49739D01*
X666576Y49623D01*
X666650Y49518D01*
X666724Y49422D01*
X666767Y49349D01*
X666798Y49306D01*
X666809Y49285D01*
X666883Y49137D01*
X666936Y48979D01*
X666967Y48831D01*
X666989Y48693D01*
X667010Y48577D01*
X667020Y48493D01*
Y48429D01*
Y48419D01*
Y48408D01*
X667010Y48218D01*
X666978Y48038D01*
X666936Y47880D01*
X666893Y47742D01*
X666851Y47626D01*
X666809Y47531D01*
X666777Y47478D01*
X666767Y47457D01*
X666661Y47309D01*
X666534Y47172D01*
X666407Y47066D01*
X666281Y46971D01*
X666164Y46887D01*
X666080Y46834D01*
X666016Y46802D01*
X666006Y46791D01*
X665995D01*
X665890Y46749D01*
X665763Y46696D01*
X665636Y46644D01*
X665488Y46601D01*
X665182Y46506D01*
X664886Y46411D01*
X664738Y46369D01*
X664601Y46326D01*
X664474Y46295D01*
X664368Y46263D01*
X664284Y46242D01*
X664210Y46221D01*
X664167Y46210D01*
X664157D01*
X663988Y46168D01*
X663829Y46126D01*
X663681Y46083D01*
X663555Y46041D01*
X663438Y46009D01*
X663343Y45978D01*
X663259Y45946D01*
X663174Y45914D01*
X663111Y45893D01*
X663058Y45872D01*
X662984Y45841D01*
X662942Y45819D01*
X662931Y45809D01*
X662815Y45714D01*
X662720Y45608D01*
X662656Y45502D01*
X662614Y45397D01*
X662593Y45312D01*
X662572Y45228D01*
Y45185D01*
Y45164D01*
X662593Y44995D01*
X662635Y44847D01*
X662699Y44710D01*
X662773Y44594D01*
X662847Y44499D01*
X662910Y44435D01*
X662952Y44382D01*
X662973Y44372D01*
X663142Y44266D01*
X663333Y44181D01*
X663544Y44129D01*
X663745Y44086D01*
X663924Y44065D01*
X663998Y44055D01*
X664072D01*
X664125Y44044D01*
X664210D01*
X664495Y44065D01*
X664749Y44108D01*
X664970Y44160D01*
X665150Y44234D01*
X665298Y44298D01*
X665404Y44361D01*
X665467Y44403D01*
X665478Y44414D01*
X665488D01*
X665647Y44573D01*
X665763Y44742D01*
X665858Y44932D01*
X665932Y45111D01*
X665985Y45270D01*
X666006Y45333D01*
X666016Y45397D01*
X666027Y45450D01*
Y45481D01*
X666038Y45502D01*
Y45513D01*
X667221Y45323D01*
X667179Y45122D01*
X667126Y44921D01*
X667063Y44742D01*
X666999Y44583D01*
X666925Y44425D01*
X666851Y44287D01*
X666777Y44160D01*
X666693Y44044D01*
X666619Y43949D01*
X666545Y43865D01*
X666481Y43791D01*
X666429Y43727D01*
X666376Y43685D01*
X666344Y43653D01*
X666323Y43632D01*
X666312Y43622D01*
X666164Y43526D01*
X666016Y43442D01*
X665847Y43357D01*
X665678Y43294D01*
X665319Y43199D01*
X664981Y43135D01*
X664822Y43104D01*
X664675Y43093D01*
X664537Y43083D01*
X664432Y43072D01*
X664336Y43061D01*
X664199D01*
X663893Y43072D01*
X663618Y43104D01*
X663364Y43157D01*
X663142Y43209D01*
X663047Y43231D01*
X662963Y43252D01*
X662889Y43283D01*
X662825Y43305D01*
X662773Y43326D01*
X662741Y43336D01*
X662720Y43347D01*
X662709D01*
X662477Y43463D01*
X662276Y43590D01*
X662107Y43727D01*
X661959Y43865D01*
X661853Y43981D01*
X661769Y44076D01*
X661727Y44139D01*
X661705Y44150D01*
Y44160D01*
X661589Y44361D01*
X661494Y44562D01*
X661431Y44752D01*
X661388Y44921D01*
X661367Y45069D01*
X661346Y45185D01*
Y45228D01*
Y45259D01*
Y45280D01*
Y45291D01*
X661357Y45513D01*
X661388Y45714D01*
X661441Y45883D01*
X661494Y46031D01*
X661547Y46157D01*
X661600Y46242D01*
X661631Y46295D01*
X661642Y46316D01*
X661758Y46464D01*
X661885Y46591D01*
X662022Y46696D01*
X662149Y46781D01*
X662255Y46855D01*
X662350Y46897D01*
X662413Y46929D01*
X662424Y46939D01*
X662434D01*
X662540Y46982D01*
X662656Y47024D01*
X662783Y47077D01*
X662921Y47119D01*
X663206Y47214D01*
X663502Y47299D01*
X663639Y47341D01*
X663776Y47383D01*
X663893Y47415D01*
X663988Y47447D01*
X664083Y47468D01*
X664146Y47489D01*
X664188Y47499D01*
X664199D01*
X664358Y47542D01*
X664495Y47584D01*
X664622Y47616D01*
X664738Y47647D01*
X664833Y47679D01*
X664918Y47700D01*
X664992Y47721D01*
X665055Y47742D01*
X665150Y47774D01*
X665213Y47795D01*
X665245Y47806D01*
X665256D01*
X665361Y47859D01*
X665456Y47912D01*
X665541Y47964D01*
X665604Y48017D01*
X665657Y48059D01*
X665689Y48091D01*
X665710Y48112D01*
X665721Y48123D01*
X665763Y48197D01*
X665795Y48271D01*
X665837Y48408D01*
X665847Y48461D01*
X665858Y48503D01*
Y48535D01*
Y48545D01*
X665847Y48683D01*
X665805Y48799D01*
X665752Y48915D01*
X665678Y49010D01*
X665615Y49084D01*
X665562Y49137D01*
X665520Y49180D01*
X665509Y49190D01*
X665435Y49243D01*
X665361Y49285D01*
X665182Y49349D01*
X664981Y49401D01*
X664791Y49433D01*
X664611Y49454D01*
X664537D01*
X664474Y49465D01*
X664336D01*
X664083Y49454D01*
X663871Y49412D01*
X663681Y49370D01*
X663523Y49306D01*
X663407Y49253D01*
X663322Y49201D01*
X663269Y49158D01*
X663248Y49148D01*
X663121Y49021D01*
X663016Y48884D01*
X662931Y48746D01*
X662868Y48609D01*
X662825Y48493D01*
X662804Y48387D01*
X662783Y48324D01*
Y48313D01*
Y48302D01*
X661610Y48461D01*
X661663Y48704D01*
X661727Y48915D01*
X661790Y49106D01*
X661864Y49264D01*
X661927Y49380D01*
X661980Y49475D01*
X662022Y49528D01*
X662033Y49549D01*
X662160Y49697D01*
X662308Y49824D01*
X662456Y49940D01*
X662604Y50035D01*
X662751Y50109D01*
X662857Y50162D01*
X662899Y50183D01*
X662931Y50194D01*
X662952Y50204D01*
X662963D01*
X663206Y50289D01*
X663449Y50342D01*
X663702Y50384D01*
X663924Y50416D01*
X664125Y50437D01*
X664210D01*
X664284Y50447D01*
X664421D01*
X664622Y50437D01*
D02*
G37*
G36*
X654288D02*
X654520Y50416D01*
X654732Y50374D01*
X654943Y50321D01*
X655144Y50268D01*
X655323Y50194D01*
X655492Y50130D01*
X655640Y50057D01*
X655788Y49983D01*
X655904Y49908D01*
X656010Y49835D01*
X656105Y49782D01*
X656169Y49729D01*
X656221Y49687D01*
X656253Y49665D01*
X656264Y49655D01*
X656454Y49465D01*
X656623Y49264D01*
X656771Y49042D01*
X656898Y48810D01*
X656993Y48567D01*
X657088Y48324D01*
X657162Y48081D01*
X657215Y47848D01*
X657257Y47626D01*
X657299Y47425D01*
X657320Y47235D01*
X657331Y47066D01*
X657341Y46939D01*
X657352Y46834D01*
Y46770D01*
Y46760D01*
Y46749D01*
X657341Y46422D01*
X657310Y46115D01*
X657267Y45830D01*
X657215Y45566D01*
X657141Y45323D01*
X657067Y45101D01*
X656982Y44900D01*
X656898Y44710D01*
X656813Y44551D01*
X656729Y44403D01*
X656655Y44287D01*
X656581Y44192D01*
X656528Y44108D01*
X656486Y44055D01*
X656454Y44023D01*
X656443Y44012D01*
X656264Y43843D01*
X656073Y43696D01*
X655883Y43569D01*
X655683Y43463D01*
X655482Y43368D01*
X655281Y43294D01*
X655091Y43231D01*
X654901Y43178D01*
X654721Y43146D01*
X654562Y43114D01*
X654415Y43093D01*
X654288Y43072D01*
X654182D01*
X654108Y43061D01*
X654045D01*
X653707Y43083D01*
X653390Y43125D01*
X653104Y43199D01*
X652967Y43231D01*
X652851Y43273D01*
X652735Y43315D01*
X652639Y43347D01*
X652555Y43389D01*
X652481Y43421D01*
X652418Y43442D01*
X652375Y43463D01*
X652354Y43484D01*
X652344D01*
X652069Y43664D01*
X651826Y43854D01*
X651625Y44055D01*
X651456Y44255D01*
X651319Y44425D01*
X651266Y44509D01*
X651224Y44573D01*
X651192Y44625D01*
X651171Y44668D01*
X651150Y44689D01*
Y44699D01*
X651076Y44858D01*
X651012Y45016D01*
X650907Y45365D01*
X650833Y45724D01*
X650790Y46062D01*
X650769Y46221D01*
X650759Y46369D01*
X650748Y46506D01*
Y46622D01*
X650737Y46718D01*
Y46781D01*
Y46834D01*
Y46844D01*
X650748Y47151D01*
X650780Y47447D01*
X650822Y47721D01*
X650885Y47975D01*
X650949Y48207D01*
X651033Y48419D01*
X651118Y48619D01*
X651202Y48799D01*
X651287Y48958D01*
X651371Y49095D01*
X651456Y49211D01*
X651519Y49306D01*
X651583Y49391D01*
X651625Y49444D01*
X651657Y49475D01*
X651667Y49486D01*
X651847Y49655D01*
X652037Y49803D01*
X652227Y49930D01*
X652428Y50046D01*
X652629Y50130D01*
X652819Y50215D01*
X653020Y50278D01*
X653199Y50331D01*
X653379Y50363D01*
X653538Y50395D01*
X653675Y50416D01*
X653802Y50437D01*
X653907D01*
X653981Y50447D01*
X654045D01*
X654288Y50437D01*
D02*
G37*
G36*
X713132Y52814D02*
X713343Y52508D01*
X713533Y52201D01*
X713724Y51906D01*
X713882Y51610D01*
X714041Y51335D01*
X714178Y51071D01*
X714294Y50828D01*
X714400Y50595D01*
X714495Y50395D01*
X714569Y50215D01*
X714632Y50067D01*
X714685Y49940D01*
X714717Y49845D01*
X714738Y49792D01*
X714749Y49771D01*
X714833Y49496D01*
X714918Y49222D01*
X715044Y48693D01*
X715087Y48429D01*
X715129Y48176D01*
X715161Y47943D01*
X715192Y47721D01*
X715214Y47510D01*
X715224Y47320D01*
X715245Y47161D01*
Y47013D01*
X715256Y46908D01*
Y46823D01*
Y46770D01*
Y46749D01*
X715245Y46411D01*
X715224Y46083D01*
X715192Y45767D01*
X715150Y45450D01*
X715097Y45154D01*
X715044Y44868D01*
X714981Y44594D01*
X714918Y44340D01*
X714854Y44118D01*
X714791Y43907D01*
X714738Y43727D01*
X714685Y43569D01*
X714643Y43453D01*
X714611Y43357D01*
X714590Y43305D01*
X714580Y43283D01*
X714442Y42977D01*
X714305Y42681D01*
X714167Y42396D01*
X714030Y42121D01*
X713882Y41867D01*
X713745Y41624D01*
X713607Y41403D01*
X713481Y41191D01*
X713364Y41012D01*
X713248Y40843D01*
X713153Y40695D01*
X713069Y40578D01*
X712995Y40483D01*
X712942Y40409D01*
X712910Y40367D01*
X712899Y40356D01*
X712044D01*
X712223Y40652D01*
X712392Y40948D01*
X712551Y41244D01*
X712699Y41540D01*
X712963Y42132D01*
X713195Y42692D01*
X713386Y43241D01*
X713544Y43769D01*
X713681Y44277D01*
X713777Y44742D01*
X713861Y45175D01*
X713893Y45365D01*
X713924Y45555D01*
X713946Y45735D01*
X713967Y45904D01*
X713988Y46052D01*
X713998Y46189D01*
X714009Y46316D01*
X714020Y46422D01*
Y46517D01*
X714030Y46591D01*
Y46654D01*
Y46707D01*
Y46728D01*
Y46739D01*
X714020Y47203D01*
X713988Y47658D01*
X713967Y47880D01*
X713935Y48081D01*
X713914Y48281D01*
X713882Y48461D01*
X713861Y48630D01*
X713840Y48778D01*
X713808Y48915D01*
X713787Y49032D01*
X713766Y49116D01*
X713755Y49190D01*
X713745Y49232D01*
Y49243D01*
X713650Y49613D01*
X713544Y49961D01*
X713438Y50289D01*
X713386Y50437D01*
X713343Y50574D01*
X713290Y50701D01*
X713248Y50817D01*
X713206Y50912D01*
X713174Y50997D01*
X713153Y51060D01*
X713132Y51113D01*
X713111Y51145D01*
Y51155D01*
X713058Y51272D01*
X712995Y51409D01*
X712921Y51557D01*
X712836Y51715D01*
X712656Y52043D01*
X712477Y52371D01*
X712392Y52518D01*
X712318Y52666D01*
X712244Y52793D01*
X712170Y52909D01*
X712118Y53004D01*
X712075Y53068D01*
X712054Y53121D01*
X712044Y53131D01*
X712899D01*
X713132Y52814D01*
D02*
G37*
G36*
X641682Y52878D02*
X641555Y52645D01*
X641428Y52423D01*
X641323Y52223D01*
X641228Y52043D01*
X641143Y51884D01*
X641059Y51736D01*
X640995Y51610D01*
X640942Y51494D01*
X640890Y51398D01*
X640847Y51314D01*
X640816Y51251D01*
X640794Y51198D01*
X640773Y51166D01*
X640763Y51145D01*
Y51134D01*
X640625Y50785D01*
X640499Y50447D01*
X640393Y50130D01*
X640340Y49972D01*
X640298Y49835D01*
X640266Y49708D01*
X640234Y49581D01*
X640203Y49475D01*
X640182Y49391D01*
X640160Y49317D01*
X640150Y49264D01*
X640139Y49232D01*
Y49222D01*
X640044Y48757D01*
X639970Y48313D01*
X639939Y48102D01*
X639917Y47890D01*
X639896Y47700D01*
X639875Y47520D01*
X639865Y47351D01*
X639854Y47203D01*
Y47066D01*
X639843Y46950D01*
Y46865D01*
Y46791D01*
Y46749D01*
Y46739D01*
X639854Y46443D01*
X639865Y46136D01*
X639928Y45545D01*
X640023Y44963D01*
X640150Y44393D01*
X640308Y43843D01*
X640467Y43315D01*
X640647Y42818D01*
X640837Y42343D01*
X641027Y41920D01*
X641111Y41720D01*
X641196Y41529D01*
X641291Y41360D01*
X641365Y41191D01*
X641450Y41043D01*
X641524Y40906D01*
X641587Y40779D01*
X641650Y40673D01*
X641703Y40578D01*
X641745Y40504D01*
X641777Y40441D01*
X641809Y40388D01*
X641819Y40367D01*
X641830Y40356D01*
X640974D01*
X640625Y40843D01*
X640308Y41350D01*
X640023Y41836D01*
X639896Y42068D01*
X639780Y42290D01*
X639674Y42502D01*
X639579Y42692D01*
X639505Y42861D01*
X639442Y42998D01*
X639389Y43125D01*
X639347Y43209D01*
X639326Y43262D01*
X639315Y43283D01*
X639188Y43600D01*
X639083Y43907D01*
X638988Y44224D01*
X638914Y44530D01*
X638840Y44826D01*
X638787Y45111D01*
X638745Y45386D01*
X638702Y45640D01*
X638671Y45883D01*
X638649Y46094D01*
X638639Y46284D01*
X638628Y46443D01*
X638618Y46570D01*
Y46665D01*
Y46728D01*
Y46749D01*
X638628Y47045D01*
X638639Y47330D01*
X638660Y47616D01*
X638702Y47890D01*
X638734Y48144D01*
X638776Y48397D01*
X638829Y48630D01*
X638871Y48852D01*
X638924Y49053D01*
X638966Y49232D01*
X639019Y49391D01*
X639051Y49518D01*
X639083Y49623D01*
X639114Y49708D01*
X639125Y49750D01*
X639136Y49771D01*
X639252Y50088D01*
X639389Y50405D01*
X639674Y51007D01*
X639822Y51303D01*
X639981Y51578D01*
X640129Y51842D01*
X640277Y52085D01*
X640414Y52307D01*
X640551Y52518D01*
X640668Y52698D01*
X640773Y52846D01*
X640858Y52962D01*
X640921Y53057D01*
X640964Y53110D01*
X640974Y53131D01*
X641830D01*
X641682Y52878D01*
D02*
G37*
G36*
X781000Y61000D02*
X779764D01*
Y68650D01*
X774650Y61000D01*
X773318D01*
Y70753D01*
X774555D01*
Y63092D01*
X779679Y70753D01*
X781000D01*
Y61000D01*
D02*
G37*
G36*
X771131Y65121D02*
Y64836D01*
X771110Y64571D01*
X771099Y64318D01*
X771068Y64085D01*
X771046Y63864D01*
X771015Y63663D01*
X770983Y63483D01*
X770941Y63314D01*
X770909Y63166D01*
X770877Y63039D01*
X770846Y62923D01*
X770814Y62839D01*
X770793Y62765D01*
X770772Y62712D01*
X770761Y62680D01*
Y62670D01*
X770687Y62511D01*
X770603Y62352D01*
X770413Y62078D01*
X770212Y61845D01*
X770000Y61655D01*
X769905Y61571D01*
X769821Y61507D01*
X769736Y61444D01*
X769662Y61391D01*
X769609Y61359D01*
X769567Y61328D01*
X769535Y61317D01*
X769525Y61306D01*
X769356Y61222D01*
X769176Y61158D01*
X768806Y61042D01*
X768426Y60958D01*
X768067Y60905D01*
X767908Y60884D01*
X767750Y60863D01*
X767623Y60852D01*
X767507D01*
X767412Y60841D01*
X767274D01*
X767021Y60852D01*
X766778Y60863D01*
X766545Y60894D01*
X766323Y60926D01*
X766123Y60968D01*
X765932Y61011D01*
X765763Y61063D01*
X765615Y61116D01*
X765467Y61158D01*
X765351Y61211D01*
X765246Y61254D01*
X765161Y61296D01*
X765087Y61328D01*
X765045Y61359D01*
X765013Y61370D01*
X765003Y61380D01*
X764844Y61486D01*
X764696Y61592D01*
X764569Y61708D01*
X764442Y61824D01*
X764337Y61940D01*
X764231Y62067D01*
X764147Y62173D01*
X764073Y62289D01*
X763946Y62479D01*
X763904Y62564D01*
X763861Y62638D01*
X763830Y62701D01*
X763809Y62744D01*
X763798Y62775D01*
Y62786D01*
X763735Y62955D01*
X763682Y63134D01*
X763597Y63515D01*
X763544Y63906D01*
X763502Y64276D01*
X763492Y64455D01*
X763481Y64614D01*
X763470Y64751D01*
X763460Y64878D01*
Y64984D01*
Y65058D01*
Y65100D01*
Y65121D01*
Y70753D01*
X764749D01*
Y65121D01*
X764759Y64793D01*
X764770Y64487D01*
X764802Y64212D01*
X764844Y63959D01*
X764886Y63737D01*
X764939Y63536D01*
X765003Y63356D01*
X765055Y63198D01*
X765108Y63060D01*
X765172Y62944D01*
X765224Y62849D01*
X765267Y62775D01*
X765309Y62722D01*
X765330Y62680D01*
X765351Y62659D01*
X765362Y62648D01*
X765489Y62532D01*
X765626Y62437D01*
X765774Y62352D01*
X765932Y62278D01*
X766101Y62215D01*
X766270Y62162D01*
X766598Y62088D01*
X766757Y62057D01*
X766904Y62035D01*
X767042Y62025D01*
X767158Y62014D01*
X767253Y62004D01*
X767391D01*
X767686Y62014D01*
X767961Y62057D01*
X768204Y62109D01*
X768415Y62162D01*
X768500Y62194D01*
X768574Y62226D01*
X768648Y62247D01*
X768701Y62268D01*
X768743Y62289D01*
X768775Y62310D01*
X768796Y62321D01*
X768806D01*
X769007Y62458D01*
X769176Y62606D01*
X769314Y62754D01*
X769419Y62913D01*
X769504Y63039D01*
X769567Y63156D01*
X769588Y63198D01*
X769599Y63229D01*
X769609Y63240D01*
Y63251D01*
X769652Y63367D01*
X769683Y63504D01*
X769747Y63800D01*
X769789Y64106D01*
X769810Y64413D01*
X769821Y64550D01*
X769831Y64688D01*
Y64804D01*
X769842Y64910D01*
Y65005D01*
Y65068D01*
Y65110D01*
Y65121D01*
Y70753D01*
X771131D01*
Y65121D01*
D02*
G37*
G36*
X758303Y70911D02*
X758642Y70869D01*
X758937Y70816D01*
X759075Y70785D01*
X759202Y70753D01*
X759318Y70721D01*
X759423Y70689D01*
X759519Y70658D01*
X759593Y70637D01*
X759645Y70615D01*
X759698Y70594D01*
X759719Y70584D01*
X759730D01*
X760015Y70446D01*
X760258Y70288D01*
X760470Y70129D01*
X760639Y69971D01*
X760776Y69823D01*
X760882Y69707D01*
X760913Y69665D01*
X760934Y69633D01*
X760956Y69612D01*
Y69601D01*
X761093Y69358D01*
X761199Y69115D01*
X761262Y68893D01*
X761315Y68682D01*
X761347Y68492D01*
X761357Y68418D01*
Y68354D01*
X761368Y68301D01*
Y68259D01*
Y68238D01*
Y68227D01*
X761357Y67984D01*
X761315Y67752D01*
X761262Y67541D01*
X761199Y67361D01*
X761135Y67213D01*
X761082Y67097D01*
X761061Y67055D01*
X761040Y67023D01*
X761030Y67012D01*
Y67002D01*
X760892Y66811D01*
X760723Y66632D01*
X760554Y66484D01*
X760374Y66347D01*
X760226Y66241D01*
X760100Y66167D01*
X760047Y66146D01*
X760015Y66125D01*
X759994Y66104D01*
X759983D01*
X759878Y66051D01*
X759751Y65998D01*
X759614Y65945D01*
X759466Y65892D01*
X759159Y65787D01*
X758842Y65691D01*
X758694Y65649D01*
X758568Y65607D01*
X758441Y65575D01*
X758325Y65544D01*
X758240Y65522D01*
X758166Y65501D01*
X758124Y65491D01*
X758113D01*
X757870Y65438D01*
X757648Y65374D01*
X757458Y65332D01*
X757278Y65279D01*
X757120Y65237D01*
X756972Y65205D01*
X756856Y65163D01*
X756740Y65132D01*
X756655Y65110D01*
X756571Y65079D01*
X756507Y65058D01*
X756465Y65047D01*
X756423Y65036D01*
X756401Y65026D01*
X756380Y65015D01*
X756169Y64920D01*
X755989Y64825D01*
X755831Y64730D01*
X755715Y64645D01*
X755620Y64561D01*
X755556Y64497D01*
X755514Y64455D01*
X755503Y64445D01*
X755408Y64318D01*
X755345Y64180D01*
X755292Y64043D01*
X755260Y63916D01*
X755239Y63811D01*
X755229Y63716D01*
Y63663D01*
Y63652D01*
Y63642D01*
X755239Y63483D01*
X755271Y63325D01*
X755324Y63187D01*
X755366Y63060D01*
X755419Y62955D01*
X755472Y62870D01*
X755503Y62828D01*
X755514Y62807D01*
X755630Y62670D01*
X755757Y62553D01*
X755905Y62448D01*
X756042Y62363D01*
X756169Y62300D01*
X756264Y62247D01*
X756306Y62226D01*
X756338Y62215D01*
X756349Y62205D01*
X756359D01*
X756571Y62131D01*
X756792Y62078D01*
X757014Y62046D01*
X757215Y62025D01*
X757384Y62004D01*
X757458D01*
X757521Y61993D01*
X757648D01*
X757955Y62004D01*
X758229Y62035D01*
X758494Y62088D01*
X758715Y62141D01*
X758811Y62162D01*
X758895Y62183D01*
X758969Y62215D01*
X759032Y62236D01*
X759085Y62257D01*
X759117Y62268D01*
X759138Y62278D01*
X759149D01*
X759381Y62395D01*
X759582Y62522D01*
X759751Y62638D01*
X759888Y62765D01*
X759994Y62870D01*
X760068Y62955D01*
X760121Y63008D01*
X760131Y63029D01*
X760237Y63219D01*
X760322Y63420D01*
X760385Y63621D01*
X760438Y63811D01*
X760480Y63990D01*
X760491Y64054D01*
X760501Y64117D01*
X760512Y64170D01*
X760522Y64212D01*
Y64233D01*
Y64244D01*
X761737Y64138D01*
X761727Y63959D01*
X761706Y63779D01*
X761642Y63451D01*
X761558Y63145D01*
X761516Y63008D01*
X761463Y62891D01*
X761420Y62775D01*
X761368Y62670D01*
X761325Y62585D01*
X761283Y62511D01*
X761251Y62448D01*
X761230Y62405D01*
X761220Y62384D01*
X761209Y62374D01*
X761008Y62099D01*
X760776Y61866D01*
X760543Y61666D01*
X760322Y61507D01*
X760121Y61380D01*
X760036Y61338D01*
X759962Y61296D01*
X759899Y61264D01*
X759857Y61243D01*
X759825Y61222D01*
X759814D01*
X759455Y61095D01*
X759085Y61000D01*
X758715Y60937D01*
X758367Y60894D01*
X758198Y60873D01*
X758050Y60863D01*
X757923Y60852D01*
X757807D01*
X757712Y60841D01*
X757585D01*
X757205Y60863D01*
X756856Y60905D01*
X756539Y60958D01*
X756391Y61000D01*
X756264Y61032D01*
X756137Y61063D01*
X756032Y61106D01*
X755937Y61137D01*
X755863Y61158D01*
X755799Y61190D01*
X755757Y61201D01*
X755725Y61222D01*
X755715D01*
X755419Y61380D01*
X755165Y61550D01*
X754943Y61729D01*
X754764Y61898D01*
X754616Y62057D01*
X754521Y62173D01*
X754478Y62226D01*
X754457Y62257D01*
X754436Y62278D01*
Y62289D01*
X754352Y62416D01*
X754288Y62553D01*
X754172Y62807D01*
X754087Y63050D01*
X754035Y63272D01*
X754003Y63472D01*
X753992Y63547D01*
Y63621D01*
X753982Y63673D01*
Y63716D01*
Y63737D01*
Y63747D01*
X754003Y64033D01*
X754045Y64297D01*
X754109Y64529D01*
X754183Y64730D01*
X754267Y64899D01*
X754299Y64973D01*
X754330Y65026D01*
X754352Y65068D01*
X754373Y65100D01*
X754394Y65121D01*
Y65132D01*
X754478Y65237D01*
X754563Y65343D01*
X754764Y65544D01*
X754964Y65713D01*
X755176Y65850D01*
X755355Y65966D01*
X755440Y66019D01*
X755514Y66051D01*
X755567Y66082D01*
X755609Y66104D01*
X755641Y66125D01*
X755651D01*
X755767Y66178D01*
X755915Y66230D01*
X756063Y66283D01*
X756232Y66336D01*
X756592Y66431D01*
X756951Y66526D01*
X757120Y66579D01*
X757278Y66611D01*
X757426Y66653D01*
X757553Y66674D01*
X757659Y66706D01*
X757733Y66727D01*
X757786Y66738D01*
X757807D01*
X758092Y66801D01*
X758346Y66875D01*
X758568Y66938D01*
X758779Y67002D01*
X758959Y67065D01*
X759117Y67118D01*
X759254Y67171D01*
X759371Y67224D01*
X759466Y67276D01*
X759550Y67319D01*
X759614Y67350D01*
X759666Y67382D01*
X759709Y67414D01*
X759730Y67435D01*
X759751Y67446D01*
X759878Y67583D01*
X759962Y67720D01*
X760026Y67868D01*
X760079Y68005D01*
X760100Y68122D01*
X760110Y68217D01*
X760121Y68280D01*
Y68291D01*
Y68301D01*
X760110Y68418D01*
X760100Y68523D01*
X760036Y68713D01*
X759952Y68893D01*
X759857Y69041D01*
X759762Y69168D01*
X759677Y69263D01*
X759614Y69316D01*
X759603Y69337D01*
X759593D01*
X759487Y69411D01*
X759360Y69485D01*
X759096Y69591D01*
X758821Y69665D01*
X758536Y69717D01*
X758409Y69738D01*
X758282Y69749D01*
X758177Y69760D01*
X758082D01*
X757997Y69770D01*
X757691D01*
X757500Y69749D01*
X757321Y69728D01*
X757152Y69696D01*
X757004Y69665D01*
X756866Y69622D01*
X756740Y69580D01*
X756623Y69538D01*
X756528Y69485D01*
X756444Y69443D01*
X756370Y69400D01*
X756306Y69369D01*
X756264Y69337D01*
X756222Y69316D01*
X756211Y69305D01*
X756201Y69295D01*
X756095Y69200D01*
X756000Y69104D01*
X755852Y68882D01*
X755725Y68650D01*
X755641Y68428D01*
X755577Y68227D01*
X755556Y68143D01*
X755535Y68058D01*
X755524Y67995D01*
Y67953D01*
X755514Y67921D01*
Y67910D01*
X754278Y68005D01*
X754309Y68323D01*
X754373Y68608D01*
X754447Y68872D01*
X754531Y69094D01*
X754584Y69189D01*
X754616Y69284D01*
X754658Y69358D01*
X754690Y69421D01*
X754721Y69474D01*
X754743Y69506D01*
X754753Y69527D01*
X754764Y69538D01*
X754943Y69781D01*
X755144Y69981D01*
X755355Y70161D01*
X755567Y70309D01*
X755746Y70415D01*
X755831Y70457D01*
X755894Y70499D01*
X755947Y70531D01*
X756000Y70542D01*
X756021Y70563D01*
X756032D01*
X756349Y70679D01*
X756676Y70774D01*
X757004Y70837D01*
X757300Y70880D01*
X757437Y70890D01*
X757553Y70901D01*
X757669Y70911D01*
X757765Y70922D01*
X757944D01*
X758303Y70911D01*
D02*
G37*
%LPC*%
G36*
X583608Y112888D02*
X581576D01*
Y110856D01*
Y108824D01*
Y106792D01*
X579544D01*
Y104760D01*
Y102728D01*
X587672D01*
Y104760D01*
X585640D01*
Y106792D01*
Y108824D01*
X583608D01*
Y110856D01*
Y112888D01*
D02*
G37*
G36*
X673016D02*
X660824D01*
Y110856D01*
Y108824D01*
Y106792D01*
X662856D01*
Y104760D01*
X666920D01*
Y102728D01*
X673016D01*
Y104760D01*
Y106792D01*
Y108824D01*
Y110856D01*
Y112888D01*
D02*
G37*
G36*
X746168Y110856D02*
X744136D01*
Y108824D01*
X742104D01*
Y106792D01*
Y104760D01*
X740072D01*
Y102728D01*
X750232D01*
Y104760D01*
X748200D01*
Y106792D01*
X746168D01*
Y108824D01*
Y110856D01*
D02*
G37*
G36*
X676044Y49465D02*
X675959D01*
X675790Y49454D01*
X675632Y49433D01*
X675484Y49401D01*
X675347Y49359D01*
X675093Y49243D01*
X674977Y49180D01*
X674871Y49116D01*
X674787Y49053D01*
X674702Y48989D01*
X674628Y48926D01*
X674575Y48873D01*
X674533Y48831D01*
X674491Y48799D01*
X674480Y48778D01*
X674470Y48767D01*
X674343Y48588D01*
X674237Y48376D01*
X674163Y48155D01*
X674100Y47933D01*
X674057Y47742D01*
X674047Y47658D01*
X674036Y47584D01*
X674026Y47520D01*
X674015Y47478D01*
Y47447D01*
Y47436D01*
X677967D01*
X677946Y47605D01*
X677925Y47764D01*
X677851Y48049D01*
X677745Y48302D01*
X677692Y48419D01*
X677639Y48514D01*
X677587Y48609D01*
X677534Y48683D01*
X677481Y48746D01*
X677439Y48810D01*
X677407Y48852D01*
X677375Y48884D01*
X677365Y48894D01*
X677354Y48905D01*
X677249Y49000D01*
X677132Y49095D01*
X677016Y49169D01*
X676900Y49232D01*
X676657Y49327D01*
X676445Y49391D01*
X676245Y49433D01*
X676171Y49444D01*
X676097Y49454D01*
X676044Y49465D01*
D02*
G37*
G36*
X766735Y51821D02*
X763935D01*
X763809Y51810D01*
X763682D01*
X763576Y51800D01*
X763470Y51789D01*
X763386Y51779D01*
X763312D01*
X763185Y51758D01*
X763101Y51736D01*
X763048Y51726D01*
X763037D01*
X762858Y51663D01*
X762699Y51578D01*
X762562Y51483D01*
X762435Y51388D01*
X762350Y51303D01*
X762276Y51229D01*
X762234Y51177D01*
X762224Y51155D01*
X762118Y50986D01*
X762044Y50807D01*
X761981Y50638D01*
X761949Y50469D01*
X761928Y50331D01*
X761907Y50215D01*
Y50173D01*
Y50141D01*
Y50120D01*
Y50109D01*
X761917Y49951D01*
X761928Y49813D01*
X761991Y49549D01*
X762076Y49327D01*
X762171Y49137D01*
X762266Y48989D01*
X762350Y48884D01*
X762382Y48852D01*
X762414Y48820D01*
X762424Y48810D01*
X762435Y48799D01*
X762541Y48714D01*
X762667Y48651D01*
X762794Y48588D01*
X762931Y48535D01*
X763227Y48450D01*
X763523Y48397D01*
X763661Y48376D01*
X763798Y48355D01*
X763914Y48345D01*
X764020D01*
X764104Y48334D01*
X766735D01*
Y51821D01*
D02*
G37*
G36*
X631982Y51895D02*
X628696D01*
X628516Y51874D01*
X628347Y51853D01*
X628189Y51821D01*
X628051Y51789D01*
X627925Y51747D01*
X627808Y51715D01*
X627703Y51673D01*
X627608Y51631D01*
X627534Y51589D01*
X627460Y51546D01*
X627407Y51515D01*
X627365Y51483D01*
X627333Y51462D01*
X627322Y51451D01*
X627312Y51441D01*
X627227Y51356D01*
X627143Y51261D01*
X627016Y51081D01*
X626931Y50891D01*
X626868Y50712D01*
X626826Y50553D01*
X626815Y50479D01*
Y50426D01*
X626805Y50374D01*
Y50342D01*
Y50321D01*
Y50310D01*
X626815Y50141D01*
X626847Y49972D01*
X626889Y49824D01*
X626931Y49697D01*
X626984Y49581D01*
X627026Y49507D01*
X627058Y49454D01*
X627069Y49433D01*
X627174Y49296D01*
X627301Y49169D01*
X627428Y49074D01*
X627544Y48989D01*
X627660Y48926D01*
X627745Y48884D01*
X627808Y48863D01*
X627819Y48852D01*
X627830D01*
X628030Y48788D01*
X628252Y48746D01*
X628485Y48714D01*
X628707Y48693D01*
X628907Y48683D01*
X628992D01*
X629066Y48672D01*
X631982D01*
Y51895D01*
D02*
G37*
G36*
X723783Y52011D02*
X723709D01*
X723550Y52001D01*
X723413Y51980D01*
X723265Y51937D01*
X723138Y51884D01*
X722895Y51758D01*
X722695Y51620D01*
X722610Y51546D01*
X722536Y51472D01*
X722473Y51398D01*
X722409Y51346D01*
X722367Y51293D01*
X722335Y51251D01*
X722325Y51229D01*
X722314Y51219D01*
X722208Y51050D01*
X722124Y50859D01*
X722050Y50627D01*
X721987Y50384D01*
X721934Y50130D01*
X721881Y49866D01*
X721818Y49327D01*
X721786Y49074D01*
X721775Y48831D01*
X721765Y48609D01*
X721754Y48419D01*
X721744Y48250D01*
Y48186D01*
Y48133D01*
Y48091D01*
Y48059D01*
Y48038D01*
Y48028D01*
X721754Y47594D01*
X721765Y47203D01*
X721796Y46844D01*
X721828Y46517D01*
X721870Y46221D01*
X721923Y45967D01*
X721976Y45735D01*
X722029Y45534D01*
X722082Y45365D01*
X722135Y45217D01*
X722177Y45090D01*
X722230Y44995D01*
X722261Y44921D01*
X722293Y44879D01*
X722304Y44847D01*
X722314Y44837D01*
X722420Y44699D01*
X722536Y44573D01*
X722652Y44467D01*
X722769Y44382D01*
X722885Y44298D01*
X723001Y44234D01*
X723107Y44181D01*
X723212Y44139D01*
X723402Y44086D01*
X723487Y44065D01*
X723561Y44055D01*
X723614D01*
X723667Y44044D01*
X723698D01*
X723846Y44055D01*
X723994Y44076D01*
X724132Y44118D01*
X724258Y44171D01*
X724501Y44287D01*
X724702Y44435D01*
X724861Y44583D01*
X724924Y44647D01*
X724977Y44699D01*
X725030Y44752D01*
X725061Y44794D01*
X725072Y44816D01*
X725083Y44826D01*
X725178Y44995D01*
X725262Y45196D01*
X725347Y45418D01*
X725410Y45661D01*
X725463Y45925D01*
X725505Y46189D01*
X725569Y46728D01*
X725600Y46982D01*
X725611Y47225D01*
X725621Y47447D01*
X725632Y47637D01*
X725643Y47795D01*
Y47869D01*
Y47922D01*
Y47964D01*
Y47996D01*
Y48017D01*
Y48028D01*
X725632Y48461D01*
X725611Y48852D01*
X725590Y49222D01*
X725547Y49549D01*
X725505Y49845D01*
X725452Y50120D01*
X725389Y50352D01*
X725336Y50564D01*
X725283Y50754D01*
X725220Y50902D01*
X725167Y51029D01*
X725125Y51134D01*
X725083Y51219D01*
X725051Y51272D01*
X725040Y51303D01*
X725030Y51314D01*
X724935Y51441D01*
X724829Y51546D01*
X724723Y51641D01*
X724618Y51715D01*
X724501Y51789D01*
X724396Y51842D01*
X724184Y51927D01*
X723994Y51980D01*
X723910Y51990D01*
X723846Y52001D01*
X723783Y52011D01*
D02*
G37*
G36*
X654129Y49454D02*
X654045D01*
X653886Y49444D01*
X653728Y49422D01*
X653580Y49391D01*
X653442Y49349D01*
X653189Y49243D01*
X652967Y49116D01*
X652882Y49053D01*
X652798Y48989D01*
X652735Y48936D01*
X652671Y48884D01*
X652629Y48841D01*
X652597Y48810D01*
X652576Y48788D01*
X652565Y48778D01*
X652460Y48641D01*
X652365Y48503D01*
X652291Y48345D01*
X652217Y48186D01*
X652153Y48017D01*
X652111Y47848D01*
X652037Y47531D01*
X652016Y47383D01*
X651995Y47246D01*
X651984Y47119D01*
X651974Y47003D01*
X651963Y46918D01*
Y46844D01*
Y46802D01*
Y46791D01*
X651974Y46538D01*
X651984Y46305D01*
X652016Y46083D01*
X652058Y45883D01*
X652101Y45693D01*
X652153Y45524D01*
X652206Y45365D01*
X652259Y45238D01*
X652322Y45111D01*
X652375Y45006D01*
X652428Y44921D01*
X652470Y44847D01*
X652513Y44794D01*
X652544Y44752D01*
X652555Y44731D01*
X652565Y44720D01*
X652682Y44604D01*
X652798Y44499D01*
X652925Y44403D01*
X653041Y44330D01*
X653168Y44266D01*
X653295Y44213D01*
X653527Y44129D01*
X653728Y44076D01*
X653823Y44065D01*
X653897Y44055D01*
X653960Y44044D01*
X654045D01*
X654214Y44055D01*
X654362Y44076D01*
X654520Y44108D01*
X654658Y44150D01*
X654911Y44255D01*
X655123Y44382D01*
X655218Y44435D01*
X655302Y44499D01*
X655366Y44551D01*
X655429Y44604D01*
X655471Y44647D01*
X655503Y44678D01*
X655524Y44699D01*
X655535Y44710D01*
X655640Y44847D01*
X655725Y44995D01*
X655809Y45154D01*
X655873Y45312D01*
X655978Y45650D01*
X656052Y45988D01*
X656073Y46136D01*
X656095Y46284D01*
X656105Y46411D01*
X656116Y46527D01*
X656126Y46622D01*
Y46686D01*
Y46739D01*
Y46749D01*
X656116Y46992D01*
X656105Y47225D01*
X656073Y47436D01*
X656031Y47637D01*
X655989Y47816D01*
X655936Y47986D01*
X655883Y48133D01*
X655830Y48271D01*
X655778Y48387D01*
X655725Y48493D01*
X655672Y48577D01*
X655630Y48651D01*
X655587Y48704D01*
X655556Y48746D01*
X655545Y48767D01*
X655535Y48778D01*
X655418Y48894D01*
X655302Y49000D01*
X655175Y49095D01*
X655049Y49169D01*
X654922Y49232D01*
X654806Y49285D01*
X654562Y49370D01*
X654362Y49422D01*
X654267Y49433D01*
X654193Y49444D01*
X654129Y49454D01*
D02*
G37*
%LPD*%
D10*
X60000Y30000D02*
G03*
X60000Y30000I-30000J0D01*
G01*
Y770000D02*
G03*
X60000Y770000I-30000J0D01*
G01*
X880000D02*
G03*
X880000Y770000I-30000J0D01*
G01*
Y30000D02*
G03*
X880000Y30000I-30000J0D01*
G01*
X810669Y318664D02*
X809003Y320331D01*
Y323663D01*
X810669Y325329D01*
X817334D01*
X819000Y323663D01*
Y320331D01*
X817334Y318664D01*
X814002D01*
Y321997D01*
X819000Y315332D02*
X809003D01*
X819000Y308668D01*
X809003D01*
Y305336D02*
X819000D01*
Y300337D01*
X817334Y298671D01*
X810669D01*
X809003Y300337D01*
Y305336D01*
X809003Y400661D02*
X815668D01*
X819000Y397329D01*
X815668Y393997D01*
X809003D01*
X819000Y388998D02*
Y385666D01*
X817334Y384000D01*
X814002D01*
X812336Y385666D01*
Y388998D01*
X814002Y390664D01*
X817334D01*
X819000Y388998D01*
X812336Y380668D02*
X817334D01*
X819000Y379002D01*
Y374003D01*
X812336D01*
X810669Y369005D02*
X812336D01*
Y370671D01*
Y367339D01*
Y369005D01*
X817334D01*
X819000Y367339D01*
X66793Y289669D02*
Y296334D01*
Y293002D01*
X56796D01*
Y301332D02*
Y304665D01*
X58462Y306331D01*
X61795D01*
X63461Y304665D01*
Y301332D01*
X61795Y299666D01*
X58462D01*
X56796Y301332D01*
X48331Y288836D02*
X49997Y287170D01*
Y283838D01*
X48331Y282172D01*
X41666D01*
X40000Y283838D01*
Y287170D01*
X41666Y288836D01*
X40000Y293835D02*
Y297167D01*
X41666Y298833D01*
X44998D01*
X46665Y297167D01*
Y293835D01*
X44998Y292169D01*
X41666D01*
X40000Y293835D01*
Y302165D02*
Y305498D01*
Y303832D01*
X46665D01*
Y302165D01*
X40000Y310496D02*
Y313828D01*
Y312162D01*
X49997D01*
Y310496D01*
D14*
X158165Y155398D02*
Y160396D01*
X156499Y158730D01*
X154833Y160396D01*
Y155398D01*
X150668D02*
Y160396D01*
X153167Y157897D01*
X149835D01*
X159415Y151165D02*
X160248Y151998D01*
X161914D01*
X162747Y151165D01*
Y147833D01*
X161914Y147000D01*
X160248D01*
X159415Y147833D01*
Y149499D01*
X161081D01*
X156916Y150332D02*
X155250D01*
X154417Y149499D01*
Y147000D01*
X156916D01*
X157749Y147833D01*
X156916Y148666D01*
X154417D01*
X151917Y151165D02*
Y150332D01*
X152750D01*
X151084D01*
X151917D01*
Y147833D01*
X151084Y147000D01*
X146086D02*
X147752D01*
X148585Y147833D01*
Y149499D01*
X147752Y150332D01*
X146086D01*
X145253Y149499D01*
Y148666D01*
X148585D01*
X187248Y54396D02*
X185582D01*
X186415D01*
Y49398D01*
X187248D01*
X185582D01*
X179750Y53563D02*
X180583Y54396D01*
X182250D01*
X183083Y53563D01*
Y50231D01*
X182250Y49398D01*
X180583D01*
X179750Y50231D01*
X178084Y53563D02*
X177251Y54396D01*
X175585D01*
X174752Y53563D01*
Y52730D01*
X175585Y51897D01*
X176418D01*
X175585D01*
X174752Y51064D01*
Y50231D01*
X175585Y49398D01*
X177251D01*
X178084Y50231D01*
X184332Y45165D02*
X185165Y45998D01*
X186831D01*
X187665Y45165D01*
Y41833D01*
X186831Y41000D01*
X185165D01*
X184332Y41833D01*
Y43499D01*
X185998D01*
X182666Y41000D02*
Y45998D01*
X179334Y41000D01*
Y45998D01*
X177668D02*
Y41000D01*
X175169D01*
X174335Y41833D01*
Y45165D01*
X175169Y45998D01*
X177668D01*
X256165Y154398D02*
Y159396D01*
X254499Y157730D01*
X252833Y159396D01*
Y154398D01*
X247835D02*
X251167D01*
X247835Y157730D01*
Y158563D01*
X248668Y159396D01*
X250334D01*
X251167Y158563D01*
X257415Y150165D02*
X258248Y150998D01*
X259914D01*
X260747Y150165D01*
Y146833D01*
X259914Y146000D01*
X258248D01*
X257415Y146833D01*
Y148499D01*
X259081D01*
X254916Y149332D02*
X253250D01*
X252416Y148499D01*
Y146000D01*
X254916D01*
X255749Y146833D01*
X254916Y147666D01*
X252416D01*
X249917Y150165D02*
Y149332D01*
X250750D01*
X249084D01*
X249917D01*
Y146833D01*
X249084Y146000D01*
X244086D02*
X245752D01*
X246585Y146833D01*
Y148499D01*
X245752Y149332D01*
X244086D01*
X243253Y148499D01*
Y147666D01*
X246585D01*
X212245Y238794D02*
Y233796D01*
X209746D01*
X208912Y234629D01*
Y235462D01*
X209746Y236295D01*
X212245D01*
X209746D01*
X208912Y237128D01*
Y237961D01*
X209746Y238794D01*
X212245D01*
X204747Y233796D02*
X206413D01*
X207246Y234629D01*
Y236295D01*
X206413Y237128D01*
X204747D01*
X203914Y236295D01*
Y235462D01*
X207246D01*
X201415Y237961D02*
Y237128D01*
X202248D01*
X200582D01*
X201415D01*
Y234629D01*
X200582Y233796D01*
X198083Y237128D02*
Y234629D01*
X197250Y233796D01*
X196416Y234629D01*
X195583Y233796D01*
X194750Y234629D01*
Y237128D01*
X190585Y233796D02*
X192251D01*
X193084Y234629D01*
Y236295D01*
X192251Y237128D01*
X190585D01*
X189752Y236295D01*
Y235462D01*
X193084D01*
X185587Y233796D02*
X187253D01*
X188086Y234629D01*
Y236295D01*
X187253Y237128D01*
X185587D01*
X184754Y236295D01*
Y235462D01*
X188086D01*
X183088Y233796D02*
Y237128D01*
X180588D01*
X179755Y236295D01*
Y233796D01*
X200165Y225398D02*
Y230396D01*
X198499Y228730D01*
X196833Y230396D01*
Y225398D01*
X191835D02*
X195167D01*
X191835Y228730D01*
Y229563D01*
X192668Y230396D01*
X194334D01*
X195167Y229563D01*
X209329Y220332D02*
X207663D01*
X206830Y219499D01*
Y217000D01*
X209329D01*
X210162Y217833D01*
X209329Y218666D01*
X206830D01*
X205164Y217000D02*
Y220332D01*
X202665D01*
X201831Y219499D01*
Y217000D01*
X196833Y221998D02*
Y217000D01*
X199332D01*
X200165Y217833D01*
Y219499D01*
X199332Y220332D01*
X196833D01*
X190169Y217000D02*
Y221998D01*
X188502Y220332D01*
X186836Y221998D01*
Y217000D01*
X182671D02*
Y221998D01*
X185170Y219499D01*
X181838D01*
X375331Y124165D02*
X374497Y124998D01*
X372831D01*
X371998Y124165D01*
Y123332D01*
X372831Y122499D01*
X373665D01*
X372831D01*
X371998Y121666D01*
Y120833D01*
X372831Y120000D01*
X374497D01*
X375331Y120833D01*
X370332Y120000D02*
Y120833D01*
X369499D01*
Y120000D01*
X370332D01*
X366167D02*
X364501D01*
X365334D01*
Y124998D01*
X366167Y124165D01*
X362002Y124998D02*
Y121666D01*
X360336Y120000D01*
X358669Y121666D01*
Y124998D01*
X282165Y457398D02*
Y462396D01*
X280499Y460730D01*
X278833Y462396D01*
Y457398D01*
X277167Y461563D02*
X276334Y462396D01*
X274668D01*
X273835Y461563D01*
Y460730D01*
X274668Y459897D01*
X275501D01*
X274668D01*
X273835Y459064D01*
Y458231D01*
X274668Y457398D01*
X276334D01*
X277167Y458231D01*
X283415Y453165D02*
X284248Y453998D01*
X285914D01*
X286747Y453165D01*
Y449833D01*
X285914Y449000D01*
X284248D01*
X283415Y449833D01*
Y451499D01*
X285081D01*
X280916Y452332D02*
X279250D01*
X278417Y451499D01*
Y449000D01*
X280916D01*
X281749Y449833D01*
X280916Y450666D01*
X278417D01*
X275917Y453165D02*
Y452332D01*
X276750D01*
X275084D01*
X275917D01*
Y449833D01*
X275084Y449000D01*
X270086D02*
X271752D01*
X272585Y449833D01*
Y451499D01*
X271752Y452332D01*
X270086D01*
X269253Y451499D01*
Y450666D01*
X272585D01*
X236248Y546396D02*
X234582D01*
X235415D01*
Y541398D01*
X236248D01*
X234582D01*
X228750Y545563D02*
X229583Y546396D01*
X231250D01*
X232083Y545563D01*
Y542231D01*
X231250Y541398D01*
X229583D01*
X228750Y542231D01*
X224585Y541398D02*
Y546396D01*
X227084Y543897D01*
X223752D01*
X233332Y537165D02*
X234165Y537998D01*
X235831D01*
X236665Y537165D01*
Y533833D01*
X235831Y533000D01*
X234165D01*
X233332Y533833D01*
Y535499D01*
X234998D01*
X231666Y533000D02*
Y537998D01*
X228334Y533000D01*
Y537998D01*
X226668D02*
Y533000D01*
X224169D01*
X223335Y533833D01*
Y537165D01*
X224169Y537998D01*
X226668D01*
X834806Y319413D02*
X829808D01*
X834806Y316081D01*
X829808D01*
Y311916D02*
Y313582D01*
X830641Y314415D01*
X833973D01*
X834806Y313582D01*
Y311916D01*
X833973Y311083D01*
X830641D01*
X829808Y311916D01*
Y309417D02*
Y306084D01*
Y307750D01*
X834806D01*
X829808Y301086D02*
Y304418D01*
X834806D01*
Y301086D01*
X832307Y304418D02*
Y302752D01*
X831474Y299420D02*
Y298587D01*
X832307D01*
Y299420D01*
X831474D01*
X833973D02*
Y298587D01*
X834806D01*
Y299420D01*
X833973D01*
X843204Y312332D02*
X838206D01*
X843204Y309000D01*
X838206D01*
X843204Y306501D02*
Y304835D01*
X842371Y304002D01*
X840705D01*
X839872Y304835D01*
Y306501D01*
X840705Y307334D01*
X842371D01*
X843204Y306501D01*
X839039Y301502D02*
X839872D01*
Y302335D01*
Y300669D01*
Y301502D01*
X842371D01*
X843204Y300669D01*
X846604Y320663D02*
X851602D01*
Y318164D01*
X850769Y317331D01*
X849936D01*
X849103Y318164D01*
Y320663D01*
Y318164D01*
X848270Y317331D01*
X847437D01*
X846604Y318164D01*
Y320663D01*
X851602Y314831D02*
Y313165D01*
X850769Y312332D01*
X849103D01*
X848270Y313165D01*
Y314831D01*
X849103Y315665D01*
X850769D01*
X851602Y314831D01*
X848270Y309833D02*
Y308167D01*
X849103Y307334D01*
X851602D01*
Y309833D01*
X850769Y310666D01*
X849936Y309833D01*
Y307334D01*
X848270Y305668D02*
X851602D01*
X849936D01*
X849103Y304835D01*
X848270Y304002D01*
Y303169D01*
X846604Y297337D02*
X851602D01*
Y299836D01*
X850769Y300669D01*
X849103D01*
X848270Y299836D01*
Y297337D01*
X855835Y312332D02*
X855002Y313165D01*
Y314831D01*
X855835Y315665D01*
X859167D01*
X860000Y314831D01*
Y313165D01*
X859167Y312332D01*
X857501D01*
Y313998D01*
X860000Y310666D02*
X855002D01*
X860000Y307334D01*
X855002D01*
Y305668D02*
X860000D01*
Y303169D01*
X859167Y302335D01*
X855835D01*
X855002Y303169D01*
Y305668D01*
X460331Y102396D02*
X458665D01*
X459498D01*
Y97398D01*
X460331D01*
X458665D01*
X456165D02*
Y100730D01*
X453666D01*
X452833Y99897D01*
Y97398D01*
X450334Y101563D02*
Y100730D01*
X451167D01*
X449501D01*
X450334D01*
Y98231D01*
X449501Y97398D01*
X446169D02*
X444502D01*
X443669Y98231D01*
Y99897D01*
X444502Y100730D01*
X446169D01*
X447002Y99897D01*
Y98231D01*
X446169Y97398D01*
X455332Y93998D02*
Y89833D01*
X454499Y89000D01*
X452833D01*
X452000Y89833D01*
Y93998D01*
X450334Y89000D02*
X448668D01*
X449501D01*
Y93998D01*
X450334Y93165D01*
X167332Y474398D02*
Y479396D01*
X165666Y477730D01*
X164000Y479396D01*
Y474398D01*
X162334D02*
X160668D01*
X161501D01*
Y479396D01*
X162334Y478563D01*
X169415Y470165D02*
X170248Y470998D01*
X171914D01*
X172747Y470165D01*
Y466833D01*
X171914Y466000D01*
X170248D01*
X169415Y466833D01*
Y468499D01*
X171081D01*
X166916Y469332D02*
X165250D01*
X164417Y468499D01*
Y466000D01*
X166916D01*
X167749Y466833D01*
X166916Y467666D01*
X164417D01*
X161917Y470165D02*
Y469332D01*
X162750D01*
X161084D01*
X161917D01*
Y466833D01*
X161084Y466000D01*
X156086D02*
X157752D01*
X158585Y466833D01*
Y468499D01*
X157752Y469332D01*
X156086D01*
X155253Y468499D01*
Y467666D01*
X158585D01*
X201245Y430794D02*
Y425796D01*
X198745D01*
X197913Y426629D01*
Y427462D01*
X198745Y428295D01*
X201245D01*
X198745D01*
X197913Y429128D01*
Y429961D01*
X198745Y430794D01*
X201245D01*
X193747Y425796D02*
X195413D01*
X196246Y426629D01*
Y428295D01*
X195413Y429128D01*
X193747D01*
X192914Y428295D01*
Y427462D01*
X196246D01*
X190415Y429961D02*
Y429128D01*
X191248D01*
X189582D01*
X190415D01*
Y426629D01*
X189582Y425796D01*
X187083Y429128D02*
Y426629D01*
X186250Y425796D01*
X185417Y426629D01*
X184583Y425796D01*
X183750Y426629D01*
Y429128D01*
X179585Y425796D02*
X181251D01*
X182084Y426629D01*
Y428295D01*
X181251Y429128D01*
X179585D01*
X178752Y428295D01*
Y427462D01*
X182084D01*
X174587Y425796D02*
X176253D01*
X177086Y426629D01*
Y428295D01*
X176253Y429128D01*
X174587D01*
X173754Y428295D01*
Y427462D01*
X177086D01*
X172088Y425796D02*
Y429128D01*
X169588D01*
X168755Y428295D01*
Y425796D01*
X198745Y417398D02*
Y422396D01*
X197079Y420730D01*
X195413Y422396D01*
Y417398D01*
X193747D02*
X192081D01*
X192914D01*
Y422396D01*
X193747Y421563D01*
X183750Y420730D02*
X182084D01*
X181251Y419897D01*
Y417398D01*
X183750D01*
X184583Y418231D01*
X183750Y419064D01*
X181251D01*
X179585Y417398D02*
Y420730D01*
X177086D01*
X176253Y419897D01*
Y417398D01*
X171255Y422396D02*
Y417398D01*
X173754D01*
X174587Y418231D01*
Y419897D01*
X173754Y420730D01*
X171255D01*
X189165Y409000D02*
Y413998D01*
X187499Y412332D01*
X185833Y413998D01*
Y409000D01*
X184167Y413165D02*
X183334Y413998D01*
X181668D01*
X180835Y413165D01*
Y412332D01*
X181668Y411499D01*
X182501D01*
X181668D01*
X180835Y410666D01*
Y409833D01*
X181668Y409000D01*
X183334D01*
X184167Y409833D01*
X236332Y428999D02*
X233666D01*
X234999D01*
Y425001D01*
X232333D02*
Y428999D01*
X230333D01*
X229667Y428333D01*
Y427000D01*
X230333Y426334D01*
X232333D01*
X226335Y425001D02*
Y428999D01*
X228334Y427000D01*
X225668D01*
X239065Y575993D02*
X236399D01*
X237732D01*
Y571995D01*
X235066D02*
Y575993D01*
X233067D01*
X232400Y575327D01*
Y573994D01*
X233067Y573327D01*
X235066D01*
X231067Y571995D02*
X229734D01*
X230401D01*
Y575993D01*
X231067Y575327D01*
X227735D02*
X227069Y575993D01*
X225736D01*
X225069Y575327D01*
Y572661D01*
X225736Y571995D01*
X227069D01*
X227735Y572661D01*
Y575327D01*
X185544Y80975D02*
X182878D01*
X184211D01*
Y76976D01*
X181545D02*
Y80975D01*
X179546D01*
X178880Y80308D01*
Y78975D01*
X179546Y78309D01*
X181545D01*
X177547Y77642D02*
X176880Y76976D01*
X175547D01*
X174881Y77642D01*
Y80308D01*
X175547Y80975D01*
X176880D01*
X177547Y80308D01*
Y79642D01*
X176880Y78975D01*
X174881D01*
X304670Y471119D02*
X302004D01*
X303337D01*
Y467120D01*
X300671D02*
Y471119D01*
X298672D01*
X298006Y470452D01*
Y469119D01*
X298672Y468453D01*
X300671D01*
X296673Y470452D02*
X296006Y471119D01*
X294673D01*
X294007Y470452D01*
Y469786D01*
X294673Y469119D01*
X294007Y468453D01*
Y467786D01*
X294673Y467120D01*
X296006D01*
X296673Y467786D01*
Y468453D01*
X296006Y469119D01*
X296673Y469786D01*
Y470452D01*
X296006Y469119D02*
X294673D01*
X136522Y172161D02*
X133856D01*
X135189D01*
Y168162D01*
X132523D02*
Y172161D01*
X130524D01*
X129858Y171494D01*
Y170161D01*
X130524Y169495D01*
X132523D01*
X128525Y172161D02*
X125859D01*
Y171494D01*
X128525Y168828D01*
Y168162D01*
X455546Y128219D02*
X452880D01*
X454213D01*
Y124220D01*
X451547D02*
Y128219D01*
X449548D01*
X448881Y127552D01*
Y126219D01*
X449548Y125553D01*
X451547D01*
X444883Y128219D02*
X446216Y127552D01*
X447549Y126219D01*
Y124886D01*
X446882Y124220D01*
X445549D01*
X444883Y124886D01*
Y125553D01*
X445549Y126219D01*
X447549D01*
X377568Y152095D02*
X374902D01*
X376235D01*
Y148096D01*
X373569D02*
Y152095D01*
X371570D01*
X370904Y151428D01*
Y150095D01*
X371570Y149429D01*
X373569D01*
X366905Y152095D02*
X369571D01*
Y150095D01*
X368238Y150762D01*
X367571D01*
X366905Y150095D01*
Y148762D01*
X367571Y148096D01*
X368904D01*
X369571Y148762D01*
X213738Y207213D02*
X211072D01*
X212405D01*
Y203214D01*
X209739D02*
Y207213D01*
X207740D01*
X207073Y206546D01*
Y205213D01*
X207740Y204547D01*
X209739D01*
X205741Y206546D02*
X205074Y207213D01*
X203741D01*
X203075Y206546D01*
Y205880D01*
X203741Y205213D01*
X204408D01*
X203741D01*
X203075Y204547D01*
Y203880D01*
X203741Y203214D01*
X205074D01*
X205741Y203880D01*
X189608Y469087D02*
X186942D01*
X188275D01*
Y465088D01*
X185609D02*
Y469087D01*
X183610D01*
X182943Y468420D01*
Y467087D01*
X183610Y466421D01*
X185609D01*
X178945Y465088D02*
X181611D01*
X178945Y467754D01*
Y468420D01*
X179611Y469087D01*
X180944D01*
X181611Y468420D01*
X234312Y174193D02*
X231646D01*
X232979D01*
Y170194D01*
X230313D02*
Y174193D01*
X228314D01*
X227647Y173526D01*
Y172193D01*
X228314Y171527D01*
X230313D01*
X226315Y170194D02*
X224982D01*
X225648D01*
Y174193D01*
X226315Y173526D01*
M02*
