G04*
G04 #@! TF.GenerationSoftware,Altium Limited,Altium Designer,21.6.4 (81)*
G04*
G04 Layer_Physical_Order=1*
G04 Layer_Color=255*
%FSLAX44Y44*%
%MOMM*%
G71*
G04*
G04 #@! TF.SameCoordinates,3C3A1148-CEAA-43B7-A459-4803B486FB21*
G04*
G04*
G04 #@! TF.FilePolarity,Positive*
G04*
G01*
G75*
%ADD11C,0.2540*%
%ADD17R,0.9000X1.3000*%
%ADD18R,1.3561X1.8582*%
%ADD19R,0.6500X1.5250*%
%ADD20R,1.4500X0.9500*%
%ADD21R,0.9500X1.4500*%
%ADD22R,5.2000X3.7500*%
%ADD23R,1.7000X0.9500*%
%ADD24R,1.6200X3.8100*%
%ADD25R,7.8700X8.5100*%
%ADD26R,1.2000X8.7000*%
%ADD27R,1.2000X1.6000*%
%ADD28R,2.2500X3.2000*%
%ADD29R,0.9562X1.5562*%
%ADD30R,1.5562X0.9562*%
%ADD31R,1.4500X0.7500*%
%ADD32R,3.5200X1.2500*%
%ADD33R,2.8200X1.4300*%
%ADD34R,1.1000X1.8000*%
%ADD35R,1.5500X1.3500*%
%ADD36R,1.3500X1.5500*%
%ADD37R,2.0000X1.1000*%
%ADD38R,0.8000X1.1000*%
%ADD39R,1.3900X0.9600*%
%ADD40R,0.9600X1.3900*%
%ADD41R,0.6000X1.5000*%
%ADD42R,1.1500X3.6000*%
%ADD43R,1.3000X0.9000*%
%ADD44R,0.6000X1.2000*%
%ADD45R,1.2000X1.1000*%
%ADD46R,3.5000X1.6000*%
%ADD47R,9.2000X3.4000*%
%ADD48R,3.6100X0.8100*%
%ADD89R,4.5550X4.5100*%
%ADD90R,1.0250X0.6000*%
%ADD91R,10.1500X8.1000*%
%ADD92C,0.5000*%
%ADD93C,1.0000*%
%ADD94C,1.5000*%
%ADD95R,1.5000X1.5000*%
%ADD96R,1.2000X1.2000*%
%ADD97C,1.2000*%
%ADD98O,2.6000X1.3000*%
%ADD99C,3.7160*%
%ADD100C,1.6000*%
%ADD101R,1.6000X1.6000*%
%ADD102C,1.5200*%
%ADD103R,1.5200X1.5200*%
%ADD104C,0.6000*%
%ADD105C,1.0000*%
G36*
X838249Y798730D02*
X835865Y797742D01*
X831699Y795190D01*
X827983Y792017D01*
X824810Y788301D01*
X822258Y784135D01*
X820388Y779622D01*
X819247Y774871D01*
X818864Y770000D01*
X819247Y765129D01*
X820388Y760378D01*
X822258Y755865D01*
X824810Y751699D01*
X827983Y747983D01*
X831699Y744810D01*
X835865Y742258D01*
X840378Y740388D01*
X845129Y739247D01*
X850000Y738864D01*
X854871Y739247D01*
X859622Y740388D01*
X864135Y742258D01*
X868301Y744810D01*
X872017Y747983D01*
X875190Y751699D01*
X877742Y755865D01*
X878730Y758249D01*
X880000Y757996D01*
Y699000D01*
X771000D01*
X120000Y700000D01*
Y467590D01*
X51000D01*
X50009Y467393D01*
X49169Y466831D01*
X48607Y465991D01*
X48410Y465000D01*
Y409000D01*
X48607Y408009D01*
X49169Y407169D01*
X50009Y406607D01*
X51000Y406410D01*
X98410D01*
Y377590D01*
X75000D01*
X74009Y377393D01*
X73169Y376831D01*
X72607Y375991D01*
X72410Y375000D01*
Y310000D01*
X72607Y309009D01*
X72810Y308705D01*
X72607Y308401D01*
X72410Y307410D01*
Y228000D01*
X72607Y227009D01*
X73169Y226169D01*
X74009Y225607D01*
X75000Y225410D01*
X98927Y225410D01*
X114169Y210169D01*
X115009Y209607D01*
X116000Y209410D01*
X123705D01*
X124696Y209607D01*
X125536Y210169D01*
X126092Y211000D01*
X136648D01*
X137204Y210169D01*
X138044Y209607D01*
X139035Y209410D01*
X139410D01*
Y176605D01*
X139035Y175490D01*
X123705D01*
Y170705D01*
X112000Y159000D01*
Y34000D01*
X150855D01*
X152029Y32826D01*
X153696Y31712D01*
X155662Y31321D01*
X273071D01*
X275038Y31712D01*
X276705Y32826D01*
X277878Y34000D01*
X325000D01*
Y0D01*
X42004D01*
X41751Y1270D01*
X44135Y2258D01*
X48301Y4811D01*
X52017Y7983D01*
X55189Y11699D01*
X57742Y15865D01*
X59612Y20378D01*
X60753Y25129D01*
X61136Y30000D01*
X60753Y34871D01*
X59612Y39622D01*
X57742Y44135D01*
X55189Y48301D01*
X52017Y52017D01*
X48301Y55189D01*
X44135Y57742D01*
X39622Y59612D01*
X34871Y60753D01*
X30000Y61136D01*
X25129Y60753D01*
X20378Y59612D01*
X15865Y57742D01*
X11699Y55189D01*
X7983Y52017D01*
X4811Y48301D01*
X2258Y44135D01*
X1270Y41751D01*
X0Y42004D01*
Y757996D01*
X1270Y758249D01*
X2258Y755865D01*
X4811Y751699D01*
X7983Y747983D01*
X11699Y744810D01*
X15865Y742258D01*
X20378Y740388D01*
X25129Y739247D01*
X30000Y738864D01*
X34871Y739247D01*
X39622Y740388D01*
X44135Y742258D01*
X48301Y744810D01*
X52017Y747983D01*
X55189Y751699D01*
X57742Y755865D01*
X59612Y760378D01*
X60753Y765129D01*
X61136Y770000D01*
X60753Y774871D01*
X59612Y779622D01*
X57742Y784135D01*
X55189Y788301D01*
X52017Y792017D01*
X48301Y795190D01*
X44135Y797742D01*
X41751Y798730D01*
X42004Y800000D01*
X837996D01*
X838249Y798730D01*
D02*
G37*
G36*
X770996Y696410D02*
X770998Y696411D01*
X771000Y696410D01*
X880000D01*
Y529590D01*
X729000D01*
Y610000D01*
X122590D01*
Y696507D01*
X123489Y697405D01*
X770996Y696410D01*
D02*
G37*
G36*
X880000Y363000D02*
X690000D01*
Y390000D01*
X696760D01*
Y389460D01*
X717840D01*
Y390000D01*
X720000D01*
Y450000D01*
X729000D01*
Y527000D01*
X880000D01*
Y363000D01*
D02*
G37*
G36*
X325000Y377590D02*
X325000Y377590D01*
X292590D01*
Y433510D01*
X306295D01*
Y444590D01*
X302885D01*
Y451050D01*
X303697Y451862D01*
X304540Y453898D01*
Y456102D01*
X303697Y458138D01*
X302885Y458950D01*
Y473750D01*
X302589Y475237D01*
X301747Y476497D01*
X299000Y479244D01*
Y497000D01*
X325000D01*
Y377590D01*
D02*
G37*
G36*
X290000Y377590D02*
X171000Y377590D01*
Y395000D01*
Y432000D01*
X200000D01*
Y475000D01*
X201000Y476000D01*
X290000D01*
Y377590D01*
D02*
G37*
G36*
X171000Y434590D02*
X170009Y434393D01*
X169169Y433831D01*
X168607Y432991D01*
X168410Y432000D01*
Y395000D01*
Y377590D01*
X167140Y377590D01*
X101000Y377590D01*
Y409000D01*
X51000D01*
Y465000D01*
X171000D01*
Y434590D01*
D02*
G37*
G36*
X325000Y341000D02*
X144663D01*
X137590Y333927D01*
Y310000D01*
X75000D01*
Y375000D01*
X325000Y375000D01*
Y341000D01*
D02*
G37*
G36*
X325000Y338410D02*
Y258000D01*
X135000D01*
X135000Y307410D01*
X137590D01*
X138581Y307607D01*
X139421Y308169D01*
X139982Y309009D01*
X140180Y310000D01*
Y332855D01*
X145735Y338410D01*
X325000D01*
X325000Y338410D01*
D02*
G37*
G36*
X687607Y362009D02*
X688169Y361169D01*
X689009Y360607D01*
X690000Y360410D01*
X761410D01*
Y332590D01*
X736000D01*
X735009Y332393D01*
X734169Y331831D01*
X733607Y330991D01*
X733410Y330000D01*
Y238000D01*
X686744D01*
X683000Y241744D01*
Y295210D01*
X683347D01*
Y363000D01*
X687410D01*
X687607Y362009D01*
D02*
G37*
G36*
X880000Y237414D02*
X879000Y237000D01*
X736000D01*
Y330000D01*
X764000D01*
Y360410D01*
X880000D01*
Y237414D01*
D02*
G37*
G36*
X325000Y203885D02*
X317790D01*
Y206290D01*
X298210D01*
Y193710D01*
X317790D01*
Y196115D01*
X325000D01*
Y181885D01*
X317790D01*
Y184290D01*
X298210D01*
Y171710D01*
X317790D01*
Y174115D01*
X325000D01*
Y164000D01*
X245590D01*
Y214410D01*
X325000D01*
Y203885D01*
D02*
G37*
G36*
X132410Y258000D02*
X132607Y257009D01*
X133169Y256169D01*
X134009Y255607D01*
X135000Y255410D01*
X325000D01*
Y217000D01*
X243000D01*
Y164000D01*
X238765D01*
X237665Y164410D01*
Y175490D01*
X222335D01*
Y164410D01*
X221235Y164000D01*
X144000D01*
X143270Y163270D01*
X142000Y163796D01*
Y212000D01*
X139035D01*
Y213590D01*
X123705D01*
Y212000D01*
X116000D01*
X100000Y228000D01*
X75000Y228000D01*
Y307410D01*
X132410D01*
X132410Y258000D01*
D02*
G37*
%LPC*%
G36*
X46500Y376618D02*
X33500D01*
X31140Y376307D01*
X28941Y375396D01*
X27053Y373947D01*
X25604Y372059D01*
X24693Y369860D01*
X24382Y367500D01*
X24693Y365140D01*
X25604Y362941D01*
X27053Y361053D01*
X28941Y359604D01*
X31140Y358693D01*
X33500Y358382D01*
X46500D01*
X48860Y358693D01*
X51059Y359604D01*
X52947Y361053D01*
X54396Y362941D01*
X55307Y365140D01*
X55618Y367500D01*
X55307Y369860D01*
X54396Y372059D01*
X52947Y373947D01*
X51059Y375396D01*
X48860Y376307D01*
X46500Y376618D01*
D02*
G37*
G36*
Y241618D02*
X33500D01*
X31140Y241307D01*
X28941Y240396D01*
X27053Y238947D01*
X25604Y237059D01*
X24693Y234860D01*
X24382Y232500D01*
X24693Y230140D01*
X25604Y227941D01*
X27053Y226053D01*
X28941Y224604D01*
X31140Y223693D01*
X33500Y223382D01*
X46500D01*
X48860Y223693D01*
X51059Y224604D01*
X52947Y226053D01*
X54396Y227941D01*
X55307Y230140D01*
X55618Y232500D01*
X55307Y234860D01*
X54396Y237059D01*
X52947Y238947D01*
X51059Y240396D01*
X48860Y241307D01*
X46500Y241618D01*
D02*
G37*
G36*
X100000Y192590D02*
X49000D01*
X48009Y192393D01*
X47169Y191831D01*
X46607Y190991D01*
X46410Y190000D01*
Y135000D01*
X46607Y134009D01*
X47169Y133169D01*
X48009Y132607D01*
X49000Y132410D01*
X100000D01*
X100991Y132607D01*
X101831Y133169D01*
X102393Y134009D01*
X102590Y135000D01*
Y190000D01*
X102393Y190991D01*
X101831Y191831D01*
X100991Y192393D01*
X100000Y192590D01*
D02*
G37*
%LPD*%
G36*
Y135000D02*
X49000D01*
Y190000D01*
X100000D01*
Y135000D01*
D02*
G37*
%LPC*%
G36*
X846500Y426618D02*
X833500D01*
X831140Y426307D01*
X828941Y425396D01*
X827053Y423947D01*
X825604Y422059D01*
X824693Y419860D01*
X824382Y417500D01*
X824693Y415140D01*
X825604Y412941D01*
X827053Y411053D01*
X828941Y409604D01*
X831140Y408693D01*
X833500Y408382D01*
X846500D01*
X848860Y408693D01*
X851059Y409604D01*
X852947Y411053D01*
X854396Y412941D01*
X855307Y415140D01*
X855618Y417500D01*
X855307Y419860D01*
X854396Y422059D01*
X852947Y423947D01*
X851059Y425396D01*
X848860Y426307D01*
X846500Y426618D01*
D02*
G37*
%LPD*%
D11*
X183771Y504270D02*
X191520D01*
X178261Y498760D02*
X183771Y504270D01*
X191520D02*
X195000Y507750D01*
X178261Y497000D02*
Y498760D01*
X192000Y544750D02*
X213638D01*
X189000D02*
X192000D01*
X214000Y471000D02*
Y514200D01*
X192000Y544750D02*
X195511Y541239D01*
Y532689D02*
Y541239D01*
Y532689D02*
X214000Y514200D01*
X234000Y564000D02*
Y565138D01*
X230000Y560000D02*
X234000Y564000D01*
Y565138D02*
X239922Y571060D01*
X223190Y554302D02*
Y575810D01*
X217190Y581810D02*
X223190Y575810D01*
X230000Y539500D02*
Y560000D01*
X213638Y544750D02*
X223190Y554302D01*
X449557Y126458D02*
X450000Y126015D01*
Y112000D02*
Y126015D01*
X374412Y136662D02*
X388000Y150250D01*
X372000Y136000D02*
X372662Y136662D01*
X388000Y150250D02*
X389000D01*
X372662Y136662D02*
X374412D01*
X140886Y158886D02*
X169261Y130511D01*
X135225Y164547D02*
X140886Y158886D01*
X131000Y156000D02*
X138000D01*
X140886Y158886D01*
X612000Y258000D02*
X612557Y258557D01*
Y277120D01*
X662100Y276543D02*
Y278692D01*
X671407Y288000D02*
X672000D01*
X662100Y278692D02*
X671407Y288000D01*
X123000Y456000D02*
X130208Y463208D01*
Y507250D01*
X118000Y116000D02*
X118573D01*
X124000Y110573D01*
Y101750D02*
Y110573D01*
Y101750D02*
X127511Y98239D01*
X140149D01*
X148270Y90118D01*
Y85230D02*
Y90118D01*
Y85230D02*
X150000Y83500D01*
X145250Y68500D02*
X150000Y73250D01*
Y83500D01*
X145250Y66000D02*
Y68500D01*
X216810Y83810D02*
Y168462D01*
X184130Y169950D02*
X215322D01*
X216810Y168462D01*
X209625Y76625D02*
X218250Y68000D01*
X207480Y78770D02*
X209625Y76625D01*
X216810Y83810D01*
X175000Y71000D02*
X180000Y66000D01*
X175000Y71000D02*
Y85500D01*
X205050Y114950D02*
X210000Y110000D01*
X195000Y114950D02*
X205050D01*
X230000Y132739D02*
Y169950D01*
Y132739D02*
X234739Y128000D01*
X292511Y582345D02*
X295000Y584834D01*
Y585770D01*
X174730Y565980D02*
X190560Y581810D01*
X217190D01*
X168750Y557500D02*
Y560000D01*
X161730Y550480D02*
X168750Y557500D01*
X161730Y544230D02*
Y550480D01*
X160000Y542500D02*
X161730Y544230D01*
X132458Y559500D02*
X139305Y566347D01*
Y567443D01*
X142922Y571060D01*
X160190D01*
X168750Y562500D01*
Y560000D02*
Y562500D01*
X130457Y559500D02*
X132458D01*
X168750Y562500D02*
X172230Y565980D01*
X174730D01*
X279470Y544790D02*
X282540D01*
X221000Y471000D02*
X230000Y480000D01*
Y488250D01*
X197500D02*
X200980Y484770D01*
Y477020D02*
X207000Y471000D01*
X195000Y488250D02*
X197500D01*
X200980Y477020D02*
Y484770D01*
X169500Y539500D02*
X182489Y526511D01*
Y524761D02*
X186000Y521250D01*
X189000D01*
X169500Y539500D02*
Y542500D01*
X182489Y524761D02*
Y526511D01*
X169500Y545500D02*
X172940Y548940D01*
X175078D02*
X181908Y555770D01*
X169500Y542500D02*
Y545500D01*
X172940Y548940D02*
X175078D01*
X181908Y555770D02*
X190770D01*
X195000Y560000D01*
X277261Y495489D02*
X299000Y473750D01*
X277261Y495489D02*
Y498000D01*
X299000Y440000D02*
Y473750D01*
X298630Y439630D02*
X299000Y440000D01*
X298630Y439050D02*
Y439630D01*
X178261Y497000D02*
X183630Y491631D01*
Y439050D02*
Y491631D01*
X282540Y544790D02*
X286000Y548250D01*
X292511Y575261D02*
Y582345D01*
X283000Y571750D02*
X289000D01*
X239922Y571060D02*
X257190D01*
X397780Y339658D02*
X405030D01*
X285000Y534750D02*
X300250D01*
X301000Y534000D01*
X289000Y571750D02*
X292511Y575261D01*
X380300Y357137D02*
X397780Y339658D01*
X358000Y417719D02*
Y456000D01*
X380300Y357137D02*
Y395419D01*
X358000Y417719D02*
X380300Y395419D01*
X358000Y456000D02*
X374500Y472500D01*
X438000D01*
X439750Y474250D01*
X460000D01*
X402534Y98466D02*
Y102716D01*
X397000Y108250D02*
X402534Y102716D01*
Y98466D02*
X410000Y91000D01*
X410662Y93119D02*
X420500Y102957D01*
X410000Y91000D02*
X410662Y91662D01*
X394000Y108250D02*
X397000D01*
X420500Y102957D02*
Y107458D01*
X410662Y91662D02*
Y93119D01*
X433000Y164750D02*
X444250Y176000D01*
X447000D01*
X432000Y164750D02*
X433000D01*
X308000Y200000D02*
X332000D01*
X824000Y187000D02*
Y202757D01*
X824242Y203000D01*
X824492Y203250D01*
Y223000D01*
X611208Y201208D02*
X612000Y200415D01*
Y188000D02*
Y200415D01*
X571761Y186739D02*
Y195963D01*
X568250Y199473D02*
X571761Y195963D01*
Y186739D02*
X591100Y167400D01*
X551880Y222880D02*
X587157D01*
X542000Y213000D02*
X551880Y222880D01*
X542000Y186000D02*
Y213000D01*
X370565Y309730D02*
X374795Y305500D01*
X363206Y309730D02*
X370565D01*
X360936Y312000D02*
X363206Y309730D01*
X360000Y312000D02*
X360936D01*
X412750Y210574D02*
X413000Y210824D01*
Y230000D01*
X388000Y169750D02*
X389000D01*
X308000Y178000D02*
X379750D01*
X388000Y169750D01*
X389000D02*
Y210324D01*
X389250Y210574D01*
X412588Y306615D02*
X412588Y306615D01*
Y285822D02*
Y306615D01*
X429375Y306615D02*
X429760Y307000D01*
X440250Y493750D02*
X460000D01*
X438000Y491500D02*
X440250Y493750D01*
X460000D02*
X461000D01*
X477737Y477013D01*
Y472655D02*
Y477013D01*
Y472655D02*
X488994Y461398D01*
X503762D01*
X513322Y470957D01*
Y483208D01*
X514750Y484635D01*
Y519000D01*
X863993Y135492D02*
Y195250D01*
X743500Y15000D02*
X863993Y135492D01*
X854303Y203000D02*
X858013Y199290D01*
X861493Y195250D02*
X863993D01*
X843743Y203000D02*
X854303D01*
X858013Y198730D02*
Y199290D01*
Y198730D02*
X861493Y195250D01*
X843493Y203250D02*
X843743Y203000D01*
X843493Y203250D02*
Y223000D01*
X863993Y214750D02*
Y224007D01*
X859000Y229000D02*
X863993Y224007D01*
X591100Y140150D02*
X591250Y140000D01*
X591100Y140150D02*
Y167400D01*
X614750Y140000D02*
X616500Y141750D01*
X591750Y196474D02*
Y199473D01*
Y196474D02*
X603813Y184411D01*
Y180087D02*
Y184411D01*
Y180087D02*
X616500Y167400D01*
X591750Y199473D02*
Y202474D01*
X599857Y210581D02*
Y222880D01*
X591750Y202474D02*
X599857Y210581D01*
X625257Y203358D02*
X627407Y201208D01*
X625257Y203358D02*
Y222880D01*
X627407Y201208D02*
X629200Y203000D01*
X643250D01*
X652133Y250020D02*
X656000Y246153D01*
X646250Y253500D02*
X649730Y250020D01*
X646250Y253500D02*
Y256000D01*
X656000Y237543D02*
Y246153D01*
X649730Y250020D02*
X652133D01*
X646730Y206480D02*
Y212073D01*
X653850Y221343D02*
X656000D01*
X650320Y217812D02*
X653850Y221343D01*
X650320Y215662D02*
Y217812D01*
X646730Y212073D02*
X650320Y215662D01*
X643250Y203000D02*
X646730Y206480D01*
X735270Y212020D02*
X737270D01*
X726250Y203000D02*
X735270Y212020D01*
X662750Y203000D02*
X726250D01*
X742000Y216750D02*
Y218750D01*
X737270Y212020D02*
X742000Y216750D01*
X693270Y223480D02*
Y225980D01*
X665750Y253500D02*
Y256000D01*
Y253500D02*
X693270Y225980D01*
Y223480D02*
X698000Y218750D01*
X646250Y256000D02*
Y276192D01*
X645900Y276543D02*
X646250Y276192D01*
X645322Y277120D02*
X645900Y276543D01*
X625257Y277120D02*
X645322D01*
X257190Y571060D02*
X265750Y562500D01*
Y560000D02*
Y562500D01*
X279489Y568239D02*
X283000Y571750D01*
X265750Y560000D02*
X274250D01*
X279489Y565239D01*
Y568239D01*
X260710Y554020D02*
X262270D01*
X265750Y557500D01*
Y560000D01*
X259000Y542500D02*
Y552310D01*
X260710Y554020D01*
X246250Y548750D02*
X249500Y545500D01*
X246250Y548750D02*
Y560000D01*
X249500Y542500D02*
Y545500D01*
X277261Y498000D02*
X281520Y502259D01*
Y511770D01*
X285000Y515250D01*
X260021Y506021D02*
X268500Y514500D01*
X252250Y506021D02*
X260021D01*
X268500Y514500D02*
Y517500D01*
X246739Y500511D02*
X252250Y506021D01*
X246739Y498000D02*
Y500511D01*
X247770Y520500D02*
X249500Y518770D01*
Y517500D02*
Y518770D01*
X230000Y520500D02*
X247770D01*
X230000Y507750D02*
Y520500D01*
X149250Y560000D02*
X150500Y558750D01*
Y542500D02*
Y558750D01*
X130208Y526750D02*
X130457Y527000D01*
Y540500D01*
X130208Y526750D02*
X132708D01*
X141958Y517500D02*
X150500D01*
X132708Y526750D02*
X141958Y517500D01*
X167770Y512770D02*
X169500Y514500D01*
X147739Y497000D02*
Y499511D01*
X169500Y514500D02*
Y517500D01*
X160998Y512770D02*
X167770D01*
X147739Y499511D02*
X160998Y512770D01*
X244560Y93310D02*
X255078D01*
X258270Y90118D01*
Y85230D02*
Y90118D01*
Y85230D02*
X260000Y83500D01*
X234000Y85250D02*
X236500D01*
X244560Y93310D01*
X218250Y65000D02*
X221761Y68511D01*
X231500Y85250D02*
X234000D01*
X221761Y75511D02*
X231500Y85250D01*
X221761Y68511D02*
Y75511D01*
X258730Y69480D02*
Y82230D01*
X255250Y66000D02*
X258730Y69480D01*
Y82230D02*
X260000Y83500D01*
X241750Y65000D02*
X245261Y68511D01*
X250500Y80500D02*
Y83500D01*
X245261Y75261D02*
X250500Y80500D01*
X245261Y68511D02*
Y75261D01*
Y57239D02*
X255500Y47000D01*
X260000D01*
X245261Y57239D02*
Y61489D01*
X241750Y65000D02*
X245261Y61489D01*
X269500Y73690D02*
X271210Y71980D01*
X271270D01*
X274750Y66000D02*
Y68500D01*
X269500Y73690D02*
Y83500D01*
X271270Y71980D02*
X274750Y68500D01*
X276310Y86988D02*
Y91078D01*
X264922Y93310D02*
X274078D01*
X261730Y85230D02*
Y90118D01*
X277798Y85500D02*
X288000D01*
X276310Y86988D02*
X277798Y85500D01*
X274078Y93310D02*
X276310Y91078D01*
X261730Y90118D02*
X264922Y93310D01*
X260000Y83500D02*
X261730Y85230D01*
X288000Y104500D02*
Y120250D01*
X286000Y104500D02*
X288000D01*
X269500Y108500D02*
X282000D01*
X286000Y104500D01*
X250500Y111500D02*
X258979Y119979D01*
X259751D01*
X250500Y108500D02*
Y111500D01*
X259751Y119979D02*
X265261Y125489D01*
Y128000D01*
X234000Y104750D02*
X234739Y105489D01*
Y128000D01*
X186050D02*
X192500Y134450D01*
X195000D01*
X169261Y128000D02*
X186050D01*
X169261D02*
Y130511D01*
X135225Y164547D02*
Y168220D01*
X133495Y169950D02*
X135225Y168220D01*
X131370Y169950D02*
X133495D01*
X138739Y128000D02*
X140500Y126239D01*
Y108500D02*
Y126239D01*
X159500Y108500D02*
X169000D01*
X173000Y104500D01*
X175000D01*
X177750Y101750D02*
X192000D01*
X175000Y104500D02*
X177750Y101750D01*
X192000Y82250D02*
X195480Y78770D01*
X207480D01*
X218250Y65000D02*
Y68000D01*
X164750Y66000D02*
Y68500D01*
X159500Y73690D02*
Y83500D01*
Y73690D02*
X161210Y71980D01*
X161270D01*
X164750Y68500D01*
X127000Y78250D02*
X132250Y83500D01*
X140500D01*
X794300Y167400D02*
X795700Y168800D01*
Y202000D01*
X407250Y169500D02*
X412000Y164750D01*
X407250Y169500D02*
Y185000D01*
X430000Y126458D02*
X449557D01*
X432000Y145250D02*
X447850D01*
X450000Y143100D01*
X412000Y145250D02*
X432000D01*
X432000Y145250D01*
X394480Y155730D02*
X401980D01*
X389000Y150250D02*
X394480Y155730D01*
X401980D02*
X411000Y164750D01*
X412000D01*
X389000Y135261D02*
Y150250D01*
X392511Y131750D02*
X394000D01*
X389000Y135261D02*
X392511Y131750D01*
X394000D02*
X397000D01*
X402293Y126458D02*
X411000D01*
X397000Y131750D02*
X402293Y126458D01*
X374795Y284500D02*
X376118Y285822D01*
X393088D01*
X374795Y305500D02*
X392473D01*
X393588Y306615D01*
D17*
X597500Y472000D02*
D03*
X616500D02*
D03*
X412588Y306615D02*
D03*
X393588D02*
D03*
X824492Y223000D02*
D03*
X843493D02*
D03*
D18*
X234739Y128000D02*
D03*
X265261D02*
D03*
X178261Y497000D02*
D03*
X147739D02*
D03*
X169261Y128000D02*
D03*
X138739D02*
D03*
X277261Y498000D02*
D03*
X246739D02*
D03*
D19*
X625257Y277120D02*
D03*
X612557D02*
D03*
X599857D02*
D03*
X587157D02*
D03*
Y222880D02*
D03*
X599857D02*
D03*
X612557D02*
D03*
X625257D02*
D03*
D20*
X288000Y120250D02*
D03*
Y139750D02*
D03*
X130208Y526750D02*
D03*
Y507250D02*
D03*
X234000Y85250D02*
D03*
Y104750D02*
D03*
X195000Y488250D02*
D03*
Y507750D02*
D03*
X192000Y101750D02*
D03*
Y82250D02*
D03*
X230000Y507750D02*
D03*
Y488250D02*
D03*
X195000Y114950D02*
D03*
Y134450D02*
D03*
X285000Y534750D02*
D03*
Y515250D02*
D03*
X863993Y195250D02*
D03*
Y214750D02*
D03*
D21*
X255250Y66000D02*
D03*
X274750D02*
D03*
X168750Y560000D02*
D03*
X149250D02*
D03*
X407250Y185000D02*
D03*
X426750D02*
D03*
X145250Y66000D02*
D03*
X164750D02*
D03*
X265750Y560000D02*
D03*
X246250D02*
D03*
X646250Y256000D02*
D03*
X665750D02*
D03*
X643250Y203000D02*
D03*
X662750D02*
D03*
X393088Y285822D02*
D03*
X412588D02*
D03*
X495250Y519000D02*
D03*
X514750D02*
D03*
D22*
X405030Y440658D02*
D03*
Y339658D02*
D03*
D23*
X164000Y269318D02*
D03*
Y241318D02*
D03*
X188542Y269318D02*
D03*
Y241318D02*
D03*
X213085Y269318D02*
D03*
Y241318D02*
D03*
X237628Y269318D02*
D03*
Y241318D02*
D03*
D24*
X657657Y472793D02*
D03*
X708457D02*
D03*
X666858Y419700D02*
D03*
X616058D02*
D03*
D25*
X683057Y552193D02*
D03*
X641458Y340300D02*
D03*
D26*
X742000Y281250D02*
D03*
X698000D02*
D03*
D27*
Y218750D02*
D03*
X742000D02*
D03*
D28*
X439207Y571208D02*
D03*
X508208D02*
D03*
D29*
X591250Y140000D02*
D03*
X614750D02*
D03*
X218250Y65000D02*
D03*
X241750D02*
D03*
X412750Y210574D02*
D03*
X389250D02*
D03*
X591750Y199473D02*
D03*
X568250D02*
D03*
D30*
X189000Y544750D02*
D03*
Y521250D02*
D03*
X394000Y108250D02*
D03*
Y131750D02*
D03*
X124000Y101750D02*
D03*
Y78250D02*
D03*
X286000Y571750D02*
D03*
Y548250D02*
D03*
D31*
X308000Y200000D02*
D03*
Y178000D02*
D03*
D32*
X164000Y325518D02*
D03*
Y365118D02*
D03*
X206000Y325518D02*
D03*
Y365118D02*
D03*
X248000Y325518D02*
D03*
Y365118D02*
D03*
D33*
X740242Y346693D02*
D03*
Y372492D02*
D03*
X706000Y346693D02*
D03*
Y372492D02*
D03*
X82000Y122100D02*
D03*
Y147900D02*
D03*
Y208307D02*
D03*
Y182507D02*
D03*
X79000Y396442D02*
D03*
Y422243D02*
D03*
Y479900D02*
D03*
Y454100D02*
D03*
D34*
X597115Y495457D02*
D03*
X626115D02*
D03*
D35*
X389000Y169750D02*
D03*
Y150250D02*
D03*
X412000Y145250D02*
D03*
Y164750D02*
D03*
X432000Y164750D02*
D03*
Y145250D02*
D03*
X460000Y493750D02*
D03*
Y474250D02*
D03*
D36*
X824242Y203000D02*
D03*
X843743D02*
D03*
D37*
X260000Y47000D02*
D03*
X195000Y560000D02*
D03*
D38*
X279000Y47000D02*
D03*
X214000Y560000D02*
D03*
D39*
X450000Y126900D02*
D03*
Y143100D02*
D03*
X656000Y237543D02*
D03*
Y221343D02*
D03*
D40*
X627407Y201208D02*
D03*
X611208D02*
D03*
X662100Y276543D02*
D03*
X645900D02*
D03*
D41*
X430000Y126458D02*
D03*
X411000D02*
D03*
X420500Y107458D02*
D03*
D42*
X496322Y483208D02*
D03*
X513322D02*
D03*
X530322D02*
D03*
X547322D02*
D03*
X564322D02*
D03*
D43*
X130457Y540500D02*
D03*
Y559500D02*
D03*
X230000Y520500D02*
D03*
Y539500D02*
D03*
X288000Y104500D02*
D03*
Y85500D02*
D03*
X175000Y104500D02*
D03*
Y85500D02*
D03*
X438000Y472500D02*
D03*
Y491500D02*
D03*
D44*
X268500Y517500D02*
D03*
X249500D02*
D03*
Y542500D02*
D03*
X259000D02*
D03*
X268500D02*
D03*
X250500Y108500D02*
D03*
X269500D02*
D03*
Y83500D02*
D03*
X260000D02*
D03*
X250500D02*
D03*
X140500Y108500D02*
D03*
X159500D02*
D03*
Y83500D02*
D03*
X150000D02*
D03*
X140500D02*
D03*
X169500Y517500D02*
D03*
X150500D02*
D03*
Y542500D02*
D03*
X160000D02*
D03*
X169500D02*
D03*
D45*
X374795Y284500D02*
D03*
Y305500D02*
D03*
D46*
X447665Y279365D02*
D03*
X503665D02*
D03*
D47*
X780000Y472000D02*
D03*
X830000Y588000D02*
D03*
D48*
X289743Y367818D02*
D03*
Y322818D02*
D03*
D89*
X144025Y420000D02*
D03*
X269605Y189000D02*
D03*
X259025Y420000D02*
D03*
X170975Y189000D02*
D03*
D90*
X183630Y413650D02*
D03*
Y426350D02*
D03*
Y400950D02*
D03*
Y439050D02*
D03*
X230000Y169950D02*
D03*
Y208050D02*
D03*
Y182650D02*
D03*
Y195350D02*
D03*
X298630Y413650D02*
D03*
Y426350D02*
D03*
Y400950D02*
D03*
Y439050D02*
D03*
X131370Y169950D02*
D03*
Y208050D02*
D03*
Y182650D02*
D03*
Y195350D02*
D03*
D91*
X530322Y376707D02*
D03*
D92*
X282760Y169950D02*
X287000D01*
X288000Y139750D02*
Y168950D01*
X287000Y169950D02*
X288000Y168950D01*
X277500Y42500D02*
Y45500D01*
X276000Y39389D02*
Y41000D01*
X277500Y45500D02*
X279000Y47000D01*
X276000Y41000D02*
X277500Y42500D01*
X273071Y36460D02*
X276000Y39389D01*
X155662Y36460D02*
X273071D01*
X124000Y78250D02*
X127000D01*
X129281Y62841D02*
Y75969D01*
Y62841D02*
X155662Y36460D01*
X127000Y78250D02*
X129281Y75969D01*
X438165Y279365D02*
X440000Y277530D01*
X435165Y282365D02*
X438165Y279365D01*
X426750Y267950D02*
X438165Y279365D01*
X440000Y222000D02*
Y277530D01*
X474000Y87000D02*
Y188000D01*
X440000Y222000D02*
X474000Y188000D01*
X279000Y47000D02*
X434000D01*
X474000Y87000D01*
X214000Y560000D02*
X215000Y561000D01*
Y574000D01*
X343000Y361000D02*
Y545321D01*
X340071Y548250D02*
X343000Y545321D01*
X286000Y548250D02*
X340071D01*
X272075Y546362D02*
X279470D01*
Y546362D02*
X284479Y550223D01*
X271712Y546000D02*
X272075Y546362D01*
X279470D02*
X279470Y546362D01*
X268500Y542500D02*
Y545500D01*
X269000Y546000D01*
X271712D01*
X364343Y339658D02*
X397780D01*
X343000Y361000D02*
X364343Y339658D01*
X447665Y239335D02*
X559821Y127179D01*
X601929D01*
X614750Y137000D02*
Y140000D01*
X609469Y134719D02*
X612469D01*
X601929Y127179D02*
X609469Y134719D01*
X612469D02*
X614750Y137000D01*
X447665Y239335D02*
Y279365D01*
X426750Y185000D02*
Y267950D01*
X616500Y141750D02*
Y167400D01*
D93*
X617000Y455000D02*
Y471500D01*
X616500Y472000D02*
X617000Y471500D01*
X504030Y279000D02*
X536000D01*
X503665Y279365D02*
X504030Y279000D01*
X429760Y307000D02*
Y322178D01*
Y297270D02*
Y307000D01*
X412588Y306615D02*
X429375D01*
X429760Y297270D02*
X435165Y291865D01*
Y282365D02*
Y291865D01*
X405030Y339658D02*
X412280D01*
X429760Y322178D01*
X521287Y458000D02*
X523000D01*
X529572Y482458D02*
X530322Y483208D01*
X529572Y464572D02*
Y482458D01*
X523000Y458000D02*
X529572Y464572D01*
X496322Y495457D02*
Y517928D01*
X483662Y508118D02*
Y509338D01*
X496322Y483208D02*
Y495457D01*
X483662Y508118D02*
X496322Y495457D01*
X483000Y510000D02*
X483662Y509338D01*
X495250Y519000D02*
X496322Y517928D01*
X439000Y571000D02*
X439207Y571208D01*
X416000Y571000D02*
X439000D01*
X547322Y483712D02*
Y509091D01*
X514458Y541956D02*
X547322Y509091D01*
X508712Y571208D02*
X514458Y565462D01*
X523545Y436119D02*
X546572Y459146D01*
Y483032D02*
X546748Y483208D01*
X546572Y459146D02*
Y483032D01*
X514458Y541956D02*
Y565462D01*
X410073Y436119D02*
X523545D01*
X405534Y440658D02*
X410073Y436119D01*
X597115Y495457D02*
Y522885D01*
X580000Y540000D02*
X597115Y522885D01*
X564322Y483208D02*
Y490978D01*
X568802Y495457D02*
X597115D01*
X564322Y490978D02*
X568802Y495457D01*
X597115D02*
X597500Y495072D01*
Y472000D02*
Y495072D01*
X626115Y491958D02*
X635338Y482734D01*
Y477662D02*
Y482734D01*
Y477662D02*
X636000Y477000D01*
X626115Y491958D02*
Y495457D01*
X616357Y420000D02*
X631000D01*
X616058Y419700D02*
X616357Y420000D01*
X658865Y474000D02*
X674000D01*
X657657Y472793D02*
X658865Y474000D01*
X677280Y415720D02*
X691000Y402000D01*
X705300D02*
X707300Y400000D01*
X691000Y402000D02*
X705300D01*
X666858Y419700D02*
X670837Y415720D01*
X677280D01*
X707300Y430000D02*
Y471635D01*
X708457Y472793D01*
D94*
X150000Y743000D02*
D03*
X342000D02*
D03*
X532000D02*
D03*
X722000D02*
D03*
D95*
X150000Y668000D02*
D03*
X342000D02*
D03*
X532000D02*
D03*
X722000D02*
D03*
D96*
X580000Y540000D02*
D03*
D97*
Y590000D02*
D03*
D98*
X840000Y417500D02*
D03*
Y282500D02*
D03*
X40000Y232500D02*
D03*
Y367500D02*
D03*
D99*
X780000Y386000D02*
D03*
Y314000D02*
D03*
X100000Y264000D02*
D03*
Y336000D02*
D03*
D100*
X795700Y202000D02*
D03*
X732700Y430000D02*
D03*
Y400000D02*
D03*
D101*
X770300Y202000D02*
D03*
X707300Y430000D02*
D03*
Y400000D02*
D03*
D102*
X641900Y15000D02*
D03*
X743500D02*
D03*
X768900D02*
D03*
X718100D02*
D03*
X692700D02*
D03*
X667300D02*
D03*
X616500D02*
D03*
X591100D02*
D03*
X565700D02*
D03*
X641900Y167400D02*
D03*
X743500D02*
D03*
X768900D02*
D03*
X718100D02*
D03*
X692700D02*
D03*
X667300D02*
D03*
X616500D02*
D03*
X591100D02*
D03*
X565700D02*
D03*
D103*
X794300Y15000D02*
D03*
Y167400D02*
D03*
D104*
X725000Y325000D02*
D03*
Y298000D02*
D03*
Y286000D02*
D03*
Y261000D02*
D03*
Y274000D02*
D03*
Y248000D02*
D03*
Y311000D02*
D03*
X713000D02*
D03*
Y274000D02*
D03*
Y248000D02*
D03*
Y261000D02*
D03*
Y286000D02*
D03*
Y298000D02*
D03*
Y325000D02*
D03*
X80000Y508000D02*
D03*
X79000Y573000D02*
D03*
X80000Y631000D02*
D03*
Y694000D02*
D03*
X24000Y691000D02*
D03*
X22000Y631000D02*
D03*
X21000Y570000D02*
D03*
X20000Y509000D02*
D03*
Y455000D02*
D03*
X21000Y397000D02*
D03*
X51000Y328000D02*
D03*
X52000Y261000D02*
D03*
Y210000D02*
D03*
X23000Y186000D02*
D03*
X24000Y147000D02*
D03*
X25000Y103000D02*
D03*
X79000Y104000D02*
D03*
X80000Y59000D02*
D03*
X79000Y12000D02*
D03*
X117000D02*
D03*
X180000D02*
D03*
X241000Y13000D02*
D03*
X303000Y14000D02*
D03*
X137707Y438250D02*
D03*
X150163D02*
D03*
X162620D02*
D03*
X125250D02*
D03*
X150163Y420000D02*
D03*
X137707D02*
D03*
X162620D02*
D03*
X125250D02*
D03*
X162620Y400950D02*
D03*
X150163D02*
D03*
X137707D02*
D03*
X125250D02*
D03*
X288380Y208050D02*
D03*
X275923D02*
D03*
X263467D02*
D03*
X251010D02*
D03*
X288380Y189000D02*
D03*
X251010D02*
D03*
X275923D02*
D03*
X263467D02*
D03*
X288380Y170750D02*
D03*
X251010D02*
D03*
X263467D02*
D03*
X275923D02*
D03*
X252707Y438250D02*
D03*
X265163D02*
D03*
X277620D02*
D03*
X240250D02*
D03*
X265163Y420000D02*
D03*
X252707D02*
D03*
X277620D02*
D03*
X240250D02*
D03*
X277620Y400950D02*
D03*
X265163D02*
D03*
X252707D02*
D03*
X240250D02*
D03*
X189750Y208050D02*
D03*
X177293D02*
D03*
X164837D02*
D03*
X152380D02*
D03*
X189750Y189000D02*
D03*
X152380D02*
D03*
X177293D02*
D03*
X164837D02*
D03*
X189750Y170750D02*
D03*
X152380D02*
D03*
X164837D02*
D03*
X177293D02*
D03*
X208000Y191000D02*
D03*
X230000Y560000D02*
D03*
X299000Y455000D02*
D03*
X184000Y453000D02*
D03*
X450000Y112000D02*
D03*
X372000Y136000D02*
D03*
X230000Y157000D02*
D03*
X131000Y156000D02*
D03*
X612000Y258000D02*
D03*
X672000Y288000D02*
D03*
X630000Y620000D02*
D03*
X629000Y675000D02*
D03*
X595000Y620000D02*
D03*
X593000Y675000D02*
D03*
X461000Y626000D02*
D03*
Y674000D02*
D03*
X400000Y625000D02*
D03*
X399000Y674000D02*
D03*
X282000Y626000D02*
D03*
X281000Y674000D02*
D03*
X211000Y627000D02*
D03*
Y673000D02*
D03*
X648057Y587493D02*
D03*
X663057D02*
D03*
X683057D02*
D03*
X703057D02*
D03*
X718057D02*
D03*
X648057Y572493D02*
D03*
X663057D02*
D03*
X683057D02*
D03*
X703057D02*
D03*
X718057D02*
D03*
X648057Y557493D02*
D03*
X663057D02*
D03*
X683057D02*
D03*
X703057D02*
D03*
X718057D02*
D03*
X648057Y542493D02*
D03*
X663057D02*
D03*
X683057D02*
D03*
X703057D02*
D03*
X718057D02*
D03*
X648057Y527493D02*
D03*
X663057D02*
D03*
X683057D02*
D03*
X703057D02*
D03*
X718057D02*
D03*
X648057Y514493D02*
D03*
X663057D02*
D03*
X683057D02*
D03*
X703057D02*
D03*
X718057D02*
D03*
X676458Y305000D02*
D03*
X661458D02*
D03*
X641458D02*
D03*
X621457D02*
D03*
X606457D02*
D03*
X676458Y320000D02*
D03*
X661458D02*
D03*
X641458D02*
D03*
X621457D02*
D03*
X606457D02*
D03*
X676458Y335000D02*
D03*
X661458D02*
D03*
X641458D02*
D03*
X621457D02*
D03*
X606457D02*
D03*
X676458Y350000D02*
D03*
X661458D02*
D03*
X641458D02*
D03*
X621457D02*
D03*
X606457D02*
D03*
X676458Y365000D02*
D03*
X661458D02*
D03*
X641458D02*
D03*
X621457D02*
D03*
X606457D02*
D03*
X676458Y378000D02*
D03*
X661458D02*
D03*
X641458D02*
D03*
X621457D02*
D03*
X606457D02*
D03*
X118000Y116000D02*
D03*
X180000Y66000D02*
D03*
X210000Y110000D02*
D03*
X93000Y164000D02*
D03*
X76000D02*
D03*
X59000D02*
D03*
Y181000D02*
D03*
X157000Y456000D02*
D03*
X140000D02*
D03*
X123000D02*
D03*
X106000Y405000D02*
D03*
Y422000D02*
D03*
Y456000D02*
D03*
Y438000D02*
D03*
X89000D02*
D03*
X73000D02*
D03*
X57000D02*
D03*
X315000Y490000D02*
D03*
Y479000D02*
D03*
Y467000D02*
D03*
Y456000D02*
D03*
Y445000D02*
D03*
Y384000D02*
D03*
Y396000D02*
D03*
Y408000D02*
D03*
Y420000D02*
D03*
Y433000D02*
D03*
X341000Y548000D02*
D03*
X295000Y585770D02*
D03*
X215000Y574000D02*
D03*
X143000Y290000D02*
D03*
X158000D02*
D03*
X174000D02*
D03*
X189000D02*
D03*
X205000D02*
D03*
X220000D02*
D03*
X235000D02*
D03*
X251000D02*
D03*
Y305000D02*
D03*
X235000D02*
D03*
X220000D02*
D03*
X205000D02*
D03*
X189000D02*
D03*
X174000D02*
D03*
X158000D02*
D03*
X143000D02*
D03*
X221000Y471000D02*
D03*
X207000D02*
D03*
X221000Y460000D02*
D03*
X207000D02*
D03*
X221000Y449000D02*
D03*
X207000D02*
D03*
X221000Y388000D02*
D03*
X207000D02*
D03*
X221000Y400000D02*
D03*
X207000D02*
D03*
X221000Y413000D02*
D03*
X207000D02*
D03*
X221000Y425000D02*
D03*
X207000D02*
D03*
X221000Y438000D02*
D03*
X207000D02*
D03*
X300250Y534750D02*
D03*
X617000Y455000D02*
D03*
X410000Y91000D02*
D03*
X447000Y176000D02*
D03*
X332000Y200000D02*
D03*
X824000Y187000D02*
D03*
X612000Y188000D02*
D03*
X542000Y186000D02*
D03*
X389000Y191000D02*
D03*
X360000Y312000D02*
D03*
X413000Y230000D02*
D03*
X576000Y341000D02*
D03*
Y359000D02*
D03*
Y376000D02*
D03*
Y395000D02*
D03*
X553000Y341000D02*
D03*
Y359000D02*
D03*
Y376000D02*
D03*
Y395000D02*
D03*
X530000Y341000D02*
D03*
Y359000D02*
D03*
X530322Y376000D02*
D03*
X530000Y395000D02*
D03*
X507000Y341000D02*
D03*
Y359000D02*
D03*
Y376000D02*
D03*
Y394000D02*
D03*
X484000Y341000D02*
D03*
Y359000D02*
D03*
Y376000D02*
D03*
Y394000D02*
D03*
X553000Y412000D02*
D03*
X576000D02*
D03*
X484000D02*
D03*
X530000D02*
D03*
X507000D02*
D03*
X521287Y458000D02*
D03*
X483000Y510000D02*
D03*
X416000Y571000D02*
D03*
X859000Y229000D02*
D03*
X674000Y474000D02*
D03*
X631000Y420000D02*
D03*
D105*
X536000Y279000D02*
D03*
X636000Y477000D02*
D03*
M02*
