G04*
G04 #@! TF.GenerationSoftware,Altium Limited,Altium Designer,21.6.4 (81)*
G04*
G04 Layer_Color=255*
%FSLAX44Y44*%
%MOMM*%
G71*
G04*
G04 #@! TF.SameCoordinates,6345E517-F44B-4F0B-96C8-749CB5923BEE*
G04*
G04*
G04 #@! TF.FilePolarity,Positive*
G04*
G01*
G75*
%ADD20R,0.7500X1.4500*%
%ADD21R,1.2000X8.7000*%
%ADD22R,1.2000X1.6000*%
%ADD23R,0.9000X1.3000*%
%ADD24R,1.5562X0.9562*%
%ADD25R,1.3000X0.9000*%
%ADD26R,0.9500X1.4500*%
%ADD27R,1.3500X1.5500*%
%ADD28R,0.9600X1.3900*%
%ADD29R,0.9562X1.5562*%
%ADD30R,1.5000X0.6000*%
%ADD31R,1.5500X1.3500*%
%ADD32R,1.5250X0.6500*%
%ADD33R,1.4500X0.9500*%
%ADD34R,1.2000X1.1000*%
%ADD35R,1.5000X2.5000*%
%ADD36R,7.0000X7.0000*%
%ADD37R,5.2000X3.7500*%
%ADD38R,1.1000X1.2000*%
%ADD39R,1.6000X3.5000*%
%ADD40R,2.2500X3.2000*%
%ADD41R,1.1000X1.8000*%
%ADD42R,1.1500X3.6000*%
%ADD43R,1.3900X0.9600*%
%ADD44R,0.7500X1.2500*%
%ADD45R,1.2500X0.7500*%
%ADD46R,1.3561X1.8582*%
%ADD47R,1.2500X3.5200*%
%ADD48R,3.4000X7.6000*%
%ADD72R,0.8500X0.5000*%
%ADD92R,10.1500X8.1000*%
%ADD93R,4.5500X4.4100*%
%ADD100C,1.6500*%
G04:AMPARAMS|DCode=101|XSize=1.65mm|YSize=1.65mm|CornerRadius=0.4125mm|HoleSize=0mm|Usage=FLASHONLY|Rotation=0.000|XOffset=0mm|YOffset=0mm|HoleType=Round|Shape=RoundedRectangle|*
%AMROUNDEDRECTD101*
21,1,1.6500,0.8250,0,0,0.0*
21,1,0.8250,1.6500,0,0,0.0*
1,1,0.8250,0.4125,-0.4125*
1,1,0.8250,-0.4125,-0.4125*
1,1,0.8250,-0.4125,0.4125*
1,1,0.8250,0.4125,0.4125*
%
%ADD101ROUNDEDRECTD101*%
%ADD102C,3.7160*%
%ADD103O,2.6000X1.3000*%
%ADD104R,1.2000X1.2000*%
%ADD105C,1.2000*%
%ADD106C,1.5200*%
%ADD107R,1.5200X1.5200*%
%ADD108C,1.6000*%
%ADD109R,1.6000X1.6000*%
G04:AMPARAMS|DCode=110|XSize=1.65mm|YSize=1.65mm|CornerRadius=0.4125mm|HoleSize=0mm|Usage=FLASHONLY|Rotation=90.000|XOffset=0mm|YOffset=0mm|HoleType=Round|Shape=RoundedRectangle|*
%AMROUNDEDRECTD110*
21,1,1.6500,0.8250,0,0,90.0*
21,1,0.8250,1.6500,0,0,90.0*
1,1,0.8250,0.4125,0.4125*
1,1,0.8250,0.4125,-0.4125*
1,1,0.8250,-0.4125,-0.4125*
1,1,0.8250,-0.4125,0.4125*
%
%ADD110ROUNDEDRECTD110*%
%ADD111R,1.2000X1.2000*%
D20*
X681500Y665000D02*
D03*
X703500D02*
D03*
D21*
X452207Y221292D02*
D03*
X496208D02*
D03*
D22*
Y283792D02*
D03*
X452207D02*
D03*
D23*
X145500Y757500D02*
D03*
X164500D02*
D03*
X289500Y400000D02*
D03*
X270500D02*
D03*
X409500Y425000D02*
D03*
X390500D02*
D03*
X370500Y333208D02*
D03*
X389500D02*
D03*
X260500Y565000D02*
D03*
X279500D02*
D03*
X160500Y465000D02*
D03*
X179500Y465000D02*
D03*
X803500Y383000D02*
D03*
X784500D02*
D03*
X465000Y320000D02*
D03*
X484000D02*
D03*
D24*
X91840Y530750D02*
D03*
Y554250D02*
D03*
X15000Y619664D02*
D03*
Y643164D02*
D03*
X505355Y729250D02*
D03*
Y705750D02*
D03*
X364824Y413573D02*
D03*
Y437074D02*
D03*
D25*
X707500Y740500D02*
D03*
Y759500D02*
D03*
X450000Y345500D02*
D03*
Y364500D02*
D03*
D26*
X487750Y407000D02*
D03*
X468250D02*
D03*
X411250Y750000D02*
D03*
X391750D02*
D03*
X37250Y665737D02*
D03*
X17750D02*
D03*
X279750Y605000D02*
D03*
X260250D02*
D03*
X468708Y581058D02*
D03*
X488208D02*
D03*
X468708Y563000D02*
D03*
X488208D02*
D03*
X468250Y385000D02*
D03*
X487750D02*
D03*
D27*
X456750Y705000D02*
D03*
X476250D02*
D03*
X411250Y769500D02*
D03*
X391750D02*
D03*
X409750Y445000D02*
D03*
X390250D02*
D03*
D28*
X435900Y787500D02*
D03*
X452100D02*
D03*
D29*
X478250Y727500D02*
D03*
X454750D02*
D03*
X316750Y665000D02*
D03*
X293250D02*
D03*
X631750Y577500D02*
D03*
X608250D02*
D03*
X611750Y407500D02*
D03*
X588250D02*
D03*
D30*
X474000Y757500D02*
D03*
X455000Y748000D02*
D03*
Y767000D02*
D03*
D31*
X433792Y750250D02*
D03*
Y769750D02*
D03*
D32*
X375380Y353450D02*
D03*
Y366150D02*
D03*
Y378850D02*
D03*
Y391550D02*
D03*
X429620D02*
D03*
Y378850D02*
D03*
Y366150D02*
D03*
Y353450D02*
D03*
X562120Y596550D02*
D03*
Y583850D02*
D03*
Y571150D02*
D03*
Y558450D02*
D03*
X507880D02*
D03*
Y571150D02*
D03*
Y583850D02*
D03*
Y596550D02*
D03*
X562120Y424050D02*
D03*
Y411350D02*
D03*
Y398650D02*
D03*
Y385950D02*
D03*
X507880D02*
D03*
Y398650D02*
D03*
Y411350D02*
D03*
Y424050D02*
D03*
D33*
X445000Y324750D02*
D03*
Y305250D02*
D03*
X265000Y515250D02*
D03*
Y534750D02*
D03*
Y480250D02*
D03*
Y499750D02*
D03*
X430000Y429043D02*
D03*
Y409543D02*
D03*
X505000Y324750D02*
D03*
Y305250D02*
D03*
D34*
X40324Y645883D02*
D03*
Y624883D02*
D03*
D35*
X62500Y587500D02*
D03*
X16500D02*
D03*
D36*
X39500Y525000D02*
D03*
D37*
X185000Y494500D02*
D03*
Y595500D02*
D03*
D38*
X326043Y605000D02*
D03*
X305042D02*
D03*
D39*
X310000Y492000D02*
D03*
Y548000D02*
D03*
D40*
X265500Y440000D02*
D03*
X334500D02*
D03*
D41*
X295500Y275000D02*
D03*
X324500Y275000D02*
D03*
D42*
X159000Y430000D02*
D03*
X176000D02*
D03*
X193000D02*
D03*
X210000D02*
D03*
X227000D02*
D03*
D43*
X486208Y615600D02*
D03*
Y599400D02*
D03*
Y440600D02*
D03*
Y424400D02*
D03*
X85000Y574123D02*
D03*
Y590324D02*
D03*
D44*
X590000Y602824D02*
D03*
Y635824D02*
D03*
Y516000D02*
D03*
Y549000D02*
D03*
Y433500D02*
D03*
Y466500D02*
D03*
Y348500D02*
D03*
Y381500D02*
D03*
D45*
X513500Y615000D02*
D03*
X546500D02*
D03*
X513500Y445000D02*
D03*
X546500D02*
D03*
D46*
X609739Y627000D02*
D03*
X640261D02*
D03*
X609739Y605000D02*
D03*
X640261D02*
D03*
X609739Y547000D02*
D03*
X640261D02*
D03*
X609739Y525000D02*
D03*
X640261D02*
D03*
X609739Y460000D02*
D03*
X640261D02*
D03*
X609739Y435000D02*
D03*
X640261D02*
D03*
X609739Y380000D02*
D03*
X640261D02*
D03*
X609739Y355000D02*
D03*
X640261D02*
D03*
D47*
X794800Y721000D02*
D03*
X755200D02*
D03*
X794800Y681333D02*
D03*
X755200D02*
D03*
X794800Y641667D02*
D03*
X755200D02*
D03*
X795000Y602000D02*
D03*
X755400D02*
D03*
D48*
X283500Y223458D02*
D03*
X136500D02*
D03*
Y42457D02*
D03*
X283500D02*
D03*
D72*
X661000Y607950D02*
D03*
Y620650D02*
D03*
Y633350D02*
D03*
Y646050D02*
D03*
Y530950D02*
D03*
Y543650D02*
D03*
Y556350D02*
D03*
Y569050D02*
D03*
Y438950D02*
D03*
Y451650D02*
D03*
Y464350D02*
D03*
Y477050D02*
D03*
Y361950D02*
D03*
Y374650D02*
D03*
Y387350D02*
D03*
Y400050D02*
D03*
D92*
X193000Y323500D02*
D03*
D93*
X700500Y627000D02*
D03*
Y550000D02*
D03*
Y458000D02*
D03*
Y381000D02*
D03*
D100*
X42500Y230000D02*
D03*
Y80000D02*
D03*
X562500Y232000D02*
D03*
X523000Y42500D02*
D03*
X732500Y80000D02*
D03*
X770000Y269500D02*
D03*
X380000Y280000D02*
D03*
Y130000D02*
D03*
D101*
X637500Y232000D02*
D03*
X657500Y80000D02*
D03*
D102*
X100000Y436000D02*
D03*
Y364000D02*
D03*
X750000Y464000D02*
D03*
Y536000D02*
D03*
D103*
X40000Y467500D02*
D03*
Y332500D02*
D03*
X810000Y432500D02*
D03*
Y567500D02*
D03*
D104*
X280000Y340000D02*
D03*
X665707Y745000D02*
D03*
D105*
X330000Y340000D02*
D03*
X615708Y745000D02*
D03*
X385000Y30000D02*
D03*
D106*
X268100Y632600D02*
D03*
X166500D02*
D03*
X141100D02*
D03*
X191900D02*
D03*
X217300D02*
D03*
X242700D02*
D03*
X293500D02*
D03*
X318900D02*
D03*
X344300D02*
D03*
X268100Y785000D02*
D03*
X166500D02*
D03*
X141100D02*
D03*
X191900D02*
D03*
X217300D02*
D03*
X242700D02*
D03*
X293500D02*
D03*
X318900D02*
D03*
X344300D02*
D03*
D107*
X115700Y632600D02*
D03*
Y785000D02*
D03*
D108*
X449800Y673508D02*
D03*
D109*
X475200D02*
D03*
D110*
X523000Y117500D02*
D03*
X770000Y194500D02*
D03*
D111*
X385000Y80000D02*
D03*
M02*
