G04*
G04 #@! TF.GenerationSoftware,Altium Limited,Altium Designer,21.6.4 (81)*
G04*
G04 Layer_Color=32768*
%FSLAX44Y44*%
%MOMM*%
G71*
G04*
G04 #@! TF.SameCoordinates,6345E517-F44B-4F0B-96C8-749CB5923BEE*
G04*
G04*
G04 #@! TF.FilePolarity,Positive*
G04*
G01*
G75*
%ADD12C,0.1000*%
G36*
X554135Y6307D02*
X545497Y26758D01*
X545479Y26750D01*
X542793Y25695D01*
X537281Y23992D01*
X531626Y22847D01*
X525885Y22272D01*
X520115D01*
X514374Y22847D01*
X508719Y23992D01*
X503207Y25695D01*
X500521Y26750D01*
X500521Y26750D01*
X500503Y26758D01*
X491865Y6307D01*
X495550Y4750D01*
X503195Y2387D01*
X511037Y798D01*
X518999Y0D01*
X527001D01*
X534963Y798D01*
X542805Y2387D01*
X550450Y4750D01*
X554135Y6307D01*
Y6307D01*
D02*
G37*
G36*
X768693Y111135D02*
X748242Y102497D01*
X748250Y102479D01*
X749305Y99793D01*
X751008Y94281D01*
X752153Y88626D01*
X752728Y82885D01*
Y77115D01*
X752153Y71374D01*
X751008Y65719D01*
X749305Y60207D01*
X748250Y57521D01*
Y57521D01*
X748242Y57503D01*
X768693Y48865D01*
X770250Y52550D01*
X772613Y60195D01*
X774202Y68037D01*
X775000Y75999D01*
Y84001D01*
X774202Y91963D01*
X772613Y99805D01*
X770250Y107450D01*
X768693Y111135D01*
D01*
D02*
G37*
G36*
X526307Y200865D02*
X546758Y209503D01*
X546750Y209521D01*
X545695Y212207D01*
X543992Y217719D01*
X542847Y223374D01*
X542272Y229115D01*
Y234885D01*
X542847Y240626D01*
X543992Y246281D01*
X545695Y251793D01*
X546750Y254479D01*
X546750D01*
X546758Y254497D01*
X526307Y263135D01*
X524750Y259450D01*
X522387Y251805D01*
X520798Y243963D01*
X520000Y236001D01*
Y227999D01*
X520798Y220037D01*
X522387Y212195D01*
X524750Y204550D01*
X526307Y200865D01*
X526307Y200865D01*
D02*
G37*
G36*
X738865Y305693D02*
X747503Y285242D01*
X747521Y285250D01*
X750207Y286305D01*
X755719Y288008D01*
X761374Y289153D01*
X767115Y289728D01*
X772885D01*
X778626Y289153D01*
X784281Y288008D01*
X789793Y286305D01*
X792479Y285250D01*
D01*
X792497Y285242D01*
X801135Y305693D01*
X797450Y307250D01*
X789805Y309613D01*
X781963Y311202D01*
X774001Y312000D01*
X765999D01*
X758037Y311202D01*
X750195Y309613D01*
X742550Y307250D01*
X738865Y305693D01*
X738865D01*
D02*
G37*
D12*
X657800Y232000D02*
G03*
X657800Y232000I-57800J0D01*
G01*
X680000D02*
G03*
X680000Y232000I-80000J0D01*
G01*
X603000Y80000D02*
G03*
X603000Y80000I-80000J0D01*
G01*
X580800D02*
G03*
X580800Y80000I-57800J0D01*
G01*
X775000D02*
G03*
X775000Y80000I-80000J0D01*
G01*
X752800D02*
G03*
X752800Y80000I-57800J0D01*
G01*
X850000Y232000D02*
G03*
X850000Y232000I-80000J0D01*
G01*
X827800D02*
G03*
X827800Y232000I-57800J0D01*
G01*
X145000Y751250D02*
Y763750D01*
X165000Y751250D02*
Y763750D01*
X145000D02*
X165000D01*
X145000Y751250D02*
X165000D01*
X701250Y740000D02*
Y760000D01*
X713750Y740000D02*
Y760000D01*
X701250Y740000D02*
X713750D01*
X701250Y760000D02*
X713750D01*
X290000Y393750D02*
Y406250D01*
X270000Y393750D02*
Y406250D01*
Y393750D02*
X290000D01*
X270000Y406250D02*
X290000D01*
X390000Y418750D02*
X410000D01*
X390000Y431250D02*
X410000D01*
Y418750D02*
Y431250D01*
X390000Y418750D02*
Y431250D01*
X443750Y345000D02*
Y365000D01*
X456250Y345000D02*
Y365000D01*
X443750Y345000D02*
X456250D01*
X443750Y365000D02*
X456250D01*
X370000Y339458D02*
X390000D01*
X370000Y326958D02*
X390000D01*
X370000D02*
Y339458D01*
X390000Y326958D02*
Y339458D01*
X343000Y486998D02*
Y537498D01*
X327500Y552998D02*
X343000Y537498D01*
X277000D02*
X292500Y552998D01*
X327500D01*
X277000Y486998D02*
Y537498D01*
Y486998D02*
X343000D01*
X260000Y558750D02*
X260000Y571250D01*
X280000Y558750D02*
X280000Y571250D01*
X260000Y571250D02*
X280000Y571250D01*
X260000Y558750D02*
X280000Y558750D01*
X160000Y471250D02*
X180000Y471250D01*
X160000Y458750D02*
X180000Y458750D01*
X160000Y471250D02*
X160000Y458750D01*
X180000Y471250D02*
X180000Y458750D01*
X804000Y376750D02*
Y389250D01*
X784000Y376750D02*
Y389250D01*
Y376750D02*
X804000D01*
X784000Y389250D02*
X804000D01*
X464500Y326250D02*
X484500D01*
X464500Y313750D02*
X484500D01*
X464500D02*
Y326250D01*
X484500Y313750D02*
Y326250D01*
X149566Y757332D02*
X148899Y757999D01*
X147566D01*
X146900Y757332D01*
Y754667D01*
X147566Y754000D01*
X148899D01*
X149566Y754667D01*
X150899Y757332D02*
X151565Y757999D01*
X152898D01*
X153565Y757332D01*
Y756666D01*
X152898Y755999D01*
X152232D01*
X152898D01*
X153565Y755333D01*
Y754667D01*
X152898Y754000D01*
X151565D01*
X150899Y754667D01*
X157563Y754000D02*
X154897D01*
X157563Y756666D01*
Y757332D01*
X156897Y757999D01*
X155564D01*
X154897Y757332D01*
X707332Y755434D02*
X707999Y756101D01*
Y757434D01*
X707332Y758100D01*
X704667D01*
X704000Y757434D01*
Y756101D01*
X704667Y755434D01*
X707332Y754101D02*
X707999Y753435D01*
Y752102D01*
X707332Y751435D01*
X706666D01*
X705999Y752102D01*
Y752768D01*
Y752102D01*
X705333Y751435D01*
X704667D01*
X704000Y752102D01*
Y753435D01*
X704667Y754101D01*
X577666Y227832D02*
X576999Y228499D01*
X575666D01*
X575000Y227832D01*
Y225166D01*
X575666Y224500D01*
X576999D01*
X577666Y225166D01*
X581665Y228499D02*
X578999D01*
Y226499D01*
X580332Y227166D01*
X580998D01*
X581665Y226499D01*
Y225166D01*
X580998Y224500D01*
X579665D01*
X578999Y225166D01*
X285434Y400168D02*
X286101Y399501D01*
X287434D01*
X288100Y400168D01*
Y402834D01*
X287434Y403500D01*
X286101D01*
X285434Y402834D01*
X284101Y400168D02*
X283435Y399501D01*
X282102D01*
X281436Y400168D01*
Y400834D01*
X282102Y401501D01*
X282768D01*
X282102D01*
X281436Y402167D01*
Y402834D01*
X282102Y403500D01*
X283435D01*
X284101Y402834D01*
X278103Y403500D02*
Y399501D01*
X280103Y401501D01*
X277437D01*
X394566Y424832D02*
X393899Y425499D01*
X392566D01*
X391900Y424832D01*
Y422166D01*
X392566Y421500D01*
X393899D01*
X394566Y422166D01*
X395899Y424832D02*
X396565Y425499D01*
X397898D01*
X398564Y424832D01*
Y424166D01*
X397898Y423499D01*
X397232D01*
X397898D01*
X398564Y422833D01*
Y422166D01*
X397898Y421500D01*
X396565D01*
X395899Y422166D01*
X399897Y421500D02*
X401230D01*
X400564D01*
Y425499D01*
X399897Y424832D01*
X449832Y360434D02*
X450499Y361101D01*
Y362434D01*
X449832Y363100D01*
X447166D01*
X446500Y362434D01*
Y361101D01*
X447166Y360434D01*
X446500Y356436D02*
Y359101D01*
X449166Y356436D01*
X449832D01*
X450499Y357102D01*
Y358435D01*
X449832Y359101D01*
X446500Y355103D02*
Y353770D01*
Y354436D01*
X450499D01*
X449832Y355103D01*
X385434Y333375D02*
X386101Y332709D01*
X387434D01*
X388100Y333375D01*
Y336041D01*
X387434Y336707D01*
X386101D01*
X385434Y336041D01*
X381436Y336707D02*
X384101D01*
X381436Y334042D01*
Y333375D01*
X382102Y332709D01*
X383435D01*
X384101Y333375D01*
X380103D02*
X379436Y332709D01*
X378103D01*
X377437Y333375D01*
Y336041D01*
X378103Y336707D01*
X379436D01*
X380103Y336041D01*
Y333375D01*
X314168Y497666D02*
X313501Y496999D01*
Y495666D01*
X314168Y495000D01*
X316834D01*
X317500Y495666D01*
Y496999D01*
X316834Y497666D01*
X314168Y498999D02*
X313501Y499665D01*
Y500998D01*
X314168Y501665D01*
X314834D01*
X315501Y500998D01*
Y500332D01*
Y500998D01*
X316167Y501665D01*
X316834D01*
X317500Y500998D01*
Y499665D01*
X316834Y498999D01*
X313501Y505663D02*
Y502997D01*
X315501D01*
X314834Y504330D01*
Y504997D01*
X315501Y505663D01*
X316834D01*
X317500Y504997D01*
Y503664D01*
X316834Y502997D01*
X264566Y564832D02*
X263899Y565499D01*
X262566D01*
X261900Y564832D01*
Y562166D01*
X262566Y561500D01*
X263899D01*
X264566Y562166D01*
X265899Y564832D02*
X266565Y565499D01*
X267898D01*
X268564Y564832D01*
Y564166D01*
X267898Y563499D01*
X267232D01*
X267898D01*
X268564Y562833D01*
Y562166D01*
X267898Y561500D01*
X266565D01*
X265899Y562166D01*
X269897Y565499D02*
X272563D01*
Y564832D01*
X269897Y562166D01*
Y561500D01*
X175434Y465168D02*
X176101Y464501D01*
X177434D01*
X178100Y465168D01*
Y467834D01*
X177434Y468500D01*
X176101D01*
X175434Y467834D01*
X174101Y465168D02*
X173435Y464501D01*
X172102D01*
X171436Y465168D01*
Y465834D01*
X172102Y466501D01*
X172768D01*
X172102D01*
X171436Y467167D01*
Y467834D01*
X172102Y468500D01*
X173435D01*
X174101Y467834D01*
X167437Y464501D02*
X168770Y465168D01*
X170103Y466501D01*
Y467834D01*
X169436Y468500D01*
X168103D01*
X167437Y467834D01*
Y467167D01*
X168103Y466501D01*
X170103D01*
X527168Y57666D02*
X526501Y56999D01*
Y55666D01*
X527168Y55000D01*
X529834D01*
X530500Y55666D01*
Y56999D01*
X529834Y57666D01*
X530500Y60998D02*
X526501D01*
X528501Y58999D01*
Y61665D01*
X717334Y84168D02*
X718001Y83501D01*
X719334D01*
X720000Y84168D01*
Y86834D01*
X719334Y87500D01*
X718001D01*
X717334Y86834D01*
X713335Y83501D02*
X714668Y84168D01*
X716001Y85501D01*
Y86834D01*
X715335Y87500D01*
X714002D01*
X713335Y86834D01*
Y86167D01*
X714002Y85501D01*
X716001D01*
X765832Y254334D02*
X766499Y255001D01*
Y256334D01*
X765832Y257000D01*
X763166D01*
X762500Y256334D01*
Y255001D01*
X763166Y254334D01*
X766499Y253001D02*
Y250336D01*
X765832D01*
X763166Y253001D01*
X762500D01*
X799434Y383168D02*
X800101Y382501D01*
X801434D01*
X802100Y383168D01*
Y385834D01*
X801434Y386500D01*
X800101D01*
X799434Y385834D01*
X795435Y386500D02*
X798101D01*
X795435Y383834D01*
Y383168D01*
X796102Y382501D01*
X797435D01*
X798101Y383168D01*
X479934Y320168D02*
X480601Y319501D01*
X481934D01*
X482600Y320168D01*
Y322834D01*
X481934Y323500D01*
X480601D01*
X479934Y322834D01*
X478601Y323500D02*
X477268D01*
X477935D01*
Y319501D01*
X478601Y320168D01*
X475269Y322834D02*
X474603Y323500D01*
X473270D01*
X472603Y322834D01*
Y320168D01*
X473270Y319501D01*
X474603D01*
X475269Y320168D01*
Y320834D01*
X474603Y321501D01*
X472603D01*
M02*
