G04*
G04 #@! TF.GenerationSoftware,Altium Limited,Altium Designer,21.6.4 (81)*
G04*
G04 Layer_Color=16711935*
%FSLAX44Y44*%
%MOMM*%
G71*
G04*
G04 #@! TF.SameCoordinates,6345E517-F44B-4F0B-96C8-749CB5923BEE*
G04*
G04*
G04 #@! TF.FilePolarity,Positive*
G04*
G01*
G75*
%ADD10C,0.2000*%
%ADD12C,0.1000*%
%ADD127C,0.0500*%
D10*
X79058Y520969D02*
Y564031D01*
X104621D01*
Y520969D02*
Y564031D01*
X79058Y520969D02*
X104621D01*
X462500Y398750D02*
Y415250D01*
Y398750D02*
X493500D01*
Y415250D01*
X462500D02*
X493500D01*
X444969Y714719D02*
X488031D01*
X444969D02*
Y740281D01*
X488031D01*
Y714719D02*
Y740281D01*
X386000Y741750D02*
X417000D01*
X386000D02*
Y758250D01*
X417000D01*
Y741750D02*
Y758250D01*
X453250Y299500D02*
Y330500D01*
X436750Y299500D02*
X453250D01*
X436750D02*
Y330500D01*
X453250D01*
X12000Y657487D02*
X43000D01*
X12000D02*
Y673987D01*
X43000D01*
Y657487D02*
Y673987D01*
X2219Y609883D02*
Y652944D01*
X27781D01*
Y609883D02*
Y652944D01*
X2219Y609883D02*
X27781D01*
X254500Y596750D02*
X285500D01*
X254500D02*
Y613250D01*
X285500D01*
Y596750D02*
Y613250D01*
X256750Y509500D02*
Y540500D01*
X273250D01*
Y509500D02*
Y540500D01*
X256750Y509500D02*
X273250D01*
X256750Y474500D02*
Y505500D01*
X273250D01*
Y474500D02*
Y505500D01*
X256750Y474500D02*
X273250D01*
X283469Y652219D02*
X326531D01*
X283469D02*
Y677781D01*
X326531D01*
Y652219D02*
Y677781D01*
X462957Y589308D02*
X493957D01*
Y572808D02*
Y589308D01*
X462957Y572808D02*
X493957D01*
X462957D02*
Y589308D01*
Y571250D02*
X493957D01*
Y554750D02*
Y571250D01*
X462957Y554750D02*
X493957D01*
X462957D02*
Y571250D01*
X598469Y564719D02*
X641531D01*
X598469D02*
Y590281D01*
X641531D01*
Y564719D02*
Y590281D01*
X655750Y656950D02*
X724250D01*
X655750Y597050D02*
Y656950D01*
Y597050D02*
X724250D01*
Y656950D01*
X655750Y579950D02*
X724250D01*
X655750Y520050D02*
Y579950D01*
Y520050D02*
X724250D01*
Y579950D01*
X462500Y393250D02*
X493500D01*
Y376750D02*
Y393250D01*
X462500Y376750D02*
X493500D01*
X462500D02*
Y393250D01*
X578469Y394719D02*
X621531D01*
X578469D02*
Y420281D01*
X621531D01*
Y394719D02*
Y420281D01*
X655750Y487950D02*
X724250D01*
X655750Y428050D02*
Y487950D01*
Y428050D02*
X724250D01*
Y487950D01*
X655750Y410950D02*
X724250D01*
X655750Y351050D02*
Y410950D01*
Y351050D02*
X724250D01*
Y410950D01*
X438250Y403792D02*
Y434793D01*
X421750Y403792D02*
X438250D01*
X421750D02*
Y434793D01*
X438250D01*
X513250Y299500D02*
Y330500D01*
X496750Y299500D02*
X513250D01*
X496750D02*
Y330500D01*
X513250D01*
X518136Y695969D02*
Y739031D01*
X492574Y695969D02*
X518136D01*
X492574D02*
Y739031D01*
X518136D01*
X352043Y403792D02*
Y446855D01*
X377605D01*
Y403792D02*
Y446855D01*
X352043Y403792D02*
X377605D01*
D12*
X87507Y546166D02*
X86841Y545499D01*
Y544166D01*
X87507Y543500D01*
X90173D01*
X90840Y544166D01*
Y545499D01*
X90173Y546166D01*
X90840Y550164D02*
Y547499D01*
X88174Y550164D01*
X87507D01*
X86841Y549498D01*
Y548165D01*
X87507Y547499D01*
X90173Y551497D02*
X90840Y552164D01*
Y553497D01*
X90173Y554163D01*
X87507D01*
X86841Y553497D01*
Y552164D01*
X87507Y551497D01*
X88174D01*
X88840Y552164D01*
Y554163D01*
X479000Y408000D02*
Y411999D01*
X480999D01*
X481666Y411332D01*
Y409999D01*
X480999Y409333D01*
X479000D01*
X480333D02*
X481666Y408000D01*
X485664Y411999D02*
X484332Y411332D01*
X482999Y409999D01*
Y408666D01*
X483665Y408000D01*
X484998D01*
X485664Y408666D01*
Y409333D01*
X484998Y409999D01*
X482999D01*
X462834Y723168D02*
X463501Y722502D01*
X464834D01*
X465500Y723168D01*
Y725834D01*
X464834Y726500D01*
X463501D01*
X462834Y725834D01*
X458836Y726500D02*
X461501D01*
X458836Y723834D01*
Y723168D01*
X459502Y722502D01*
X460835D01*
X461501Y723168D01*
X455503Y726500D02*
Y722502D01*
X457503Y724501D01*
X454837D01*
X400500Y749000D02*
Y745002D01*
X398501D01*
X397834Y745668D01*
Y747001D01*
X398501Y747667D01*
X400500D01*
X399167D02*
X397834Y749000D01*
X396501D02*
X395168D01*
X395835D01*
Y745002D01*
X396501Y745668D01*
X391170Y749000D02*
Y745002D01*
X393169Y747001D01*
X390503D01*
X446000Y314000D02*
X449999D01*
Y312001D01*
X449332Y311334D01*
X447999D01*
X447333Y312001D01*
Y314000D01*
Y312667D02*
X446000Y311334D01*
Y310001D02*
Y308668D01*
Y309335D01*
X449999D01*
X449332Y310001D01*
X449999Y304003D02*
X449332Y305336D01*
X447999Y306669D01*
X446666D01*
X446000Y306003D01*
Y304670D01*
X446666Y304003D01*
X447333D01*
X447999Y304670D01*
Y306669D01*
X26500Y664737D02*
Y660739D01*
X24501D01*
X23834Y661405D01*
Y662738D01*
X24501Y663404D01*
X26500D01*
X25167D02*
X23834Y664737D01*
X19836D02*
X22501D01*
X19836Y662071D01*
Y661405D01*
X20502Y660739D01*
X21835D01*
X22501Y661405D01*
X15837Y660739D02*
X17170Y661405D01*
X18503Y662738D01*
Y664071D01*
X17836Y664737D01*
X16503D01*
X15837Y664071D01*
Y663404D01*
X16503Y662738D01*
X18503D01*
X10668Y635079D02*
X10001Y634413D01*
Y633080D01*
X10668Y632413D01*
X13334D01*
X14000Y633080D01*
Y634413D01*
X13334Y635079D01*
X10668Y636412D02*
X10001Y637079D01*
Y638411D01*
X10668Y639078D01*
X11334D01*
X12001Y638411D01*
Y637745D01*
Y638411D01*
X12667Y639078D01*
X13334D01*
X14000Y638411D01*
Y637079D01*
X13334Y636412D01*
X10668Y640411D02*
X10001Y641077D01*
Y642410D01*
X10668Y643077D01*
X13334D01*
X14000Y642410D01*
Y641077D01*
X13334Y640411D01*
X10668D01*
X269000Y604000D02*
Y600001D01*
X267001D01*
X266334Y600668D01*
Y602001D01*
X267001Y602667D01*
X269000D01*
X267667D02*
X266334Y604000D01*
X262336D02*
X265001D01*
X262336Y601334D01*
Y600668D01*
X263002Y600001D01*
X264335D01*
X265001Y600668D01*
X258337Y600001D02*
X261003D01*
Y602001D01*
X259670Y601334D01*
X259003D01*
X258337Y602001D01*
Y603334D01*
X259003Y604000D01*
X260336D01*
X261003Y603334D01*
X264000Y526000D02*
X260001D01*
Y527999D01*
X260668Y528666D01*
X262001D01*
X262667Y527999D01*
Y526000D01*
Y527333D02*
X264000Y528666D01*
Y532664D02*
Y529999D01*
X261334Y532664D01*
X260668D01*
X260001Y531998D01*
Y530665D01*
X260668Y529999D01*
X264000Y535997D02*
X260001D01*
X262001Y533997D01*
Y536663D01*
X264000Y491000D02*
X260001D01*
Y492999D01*
X260668Y493666D01*
X262001D01*
X262667Y492999D01*
Y491000D01*
Y492333D02*
X264000Y493666D01*
Y497664D02*
Y494999D01*
X261334Y497664D01*
X260668D01*
X260001Y496998D01*
Y495665D01*
X260668Y494999D01*
X260001Y498997D02*
Y501663D01*
X260668D01*
X263334Y498997D01*
X264000D01*
X301334Y660668D02*
X302001Y660001D01*
X303334D01*
X304000Y660668D01*
Y663334D01*
X303334Y664000D01*
X302001D01*
X301334Y663334D01*
X297336Y664000D02*
X300001D01*
X297336Y661334D01*
Y660668D01*
X298002Y660001D01*
X299335D01*
X300001Y660668D01*
X296003Y660001D02*
X293337D01*
Y660668D01*
X296003Y663334D01*
Y664000D01*
X479457Y582057D02*
Y586056D01*
X481457D01*
X482123Y585390D01*
Y584057D01*
X481457Y583390D01*
X479457D01*
X480790D02*
X482123Y582057D01*
X483456Y582724D02*
X484123Y582057D01*
X485455D01*
X486122Y582724D01*
Y585390D01*
X485455Y586056D01*
X484123D01*
X483456Y585390D01*
Y584723D01*
X484123Y584057D01*
X486122D01*
X479457Y564000D02*
Y567999D01*
X481457D01*
X482123Y567332D01*
Y565999D01*
X481457Y565333D01*
X479457D01*
X480790D02*
X482123Y564000D01*
X483456Y567332D02*
X484123Y567999D01*
X485455D01*
X486122Y567332D01*
Y566666D01*
X485455Y565999D01*
X486122Y565333D01*
Y564666D01*
X485455Y564000D01*
X484123D01*
X483456Y564666D01*
Y565333D01*
X484123Y565999D01*
X483456Y566666D01*
Y567332D01*
X484123Y565999D02*
X485455D01*
X616334Y573168D02*
X617001Y572501D01*
X618334D01*
X619000Y573168D01*
Y575834D01*
X618334Y576500D01*
X617001D01*
X616334Y575834D01*
X615001Y576500D02*
X613669D01*
X614335D01*
Y572501D01*
X615001Y573168D01*
X611669D02*
X611003Y572501D01*
X609670D01*
X609003Y573168D01*
Y573834D01*
X609670Y574501D01*
X610336D01*
X609670D01*
X609003Y575167D01*
Y575834D01*
X609670Y576500D01*
X611003D01*
X611669Y575834D01*
X624000Y626000D02*
Y622001D01*
X622001D01*
X621334Y622668D01*
Y624001D01*
X622001Y624667D01*
X624000D01*
X622667D02*
X621334Y626000D01*
X620001D02*
X618669D01*
X619335D01*
Y622001D01*
X620001Y622668D01*
X616669D02*
X616003Y622001D01*
X614670D01*
X614003Y622668D01*
Y623334D01*
X614670Y624001D01*
X615336D01*
X614670D01*
X614003Y624667D01*
Y625334D01*
X614670Y626000D01*
X616003D01*
X616669Y625334D01*
X624000Y604000D02*
Y600001D01*
X622001D01*
X621334Y600668D01*
Y602001D01*
X622001Y602667D01*
X624000D01*
X622667D02*
X621334Y604000D01*
X620001D02*
X618669D01*
X619335D01*
Y600001D01*
X620001Y600668D01*
X616669Y604000D02*
X615336D01*
X616003D01*
Y600001D01*
X616669Y600668D01*
X624000Y546000D02*
Y542001D01*
X622001D01*
X621334Y542668D01*
Y544001D01*
X622001Y544667D01*
X624000D01*
X622667D02*
X621334Y546000D01*
X617336Y542001D02*
X620001D01*
Y544001D01*
X618669Y543334D01*
X618002D01*
X617336Y544001D01*
Y545334D01*
X618002Y546000D01*
X619335D01*
X620001Y545334D01*
X624000Y524000D02*
Y520001D01*
X622001D01*
X621334Y520668D01*
Y522001D01*
X622001Y522667D01*
X624000D01*
X622667D02*
X621334Y524000D01*
X620001Y520668D02*
X619335Y520001D01*
X618002D01*
X617336Y520668D01*
Y521334D01*
X618002Y522001D01*
X618669D01*
X618002D01*
X617336Y522667D01*
Y523334D01*
X618002Y524000D01*
X619335D01*
X620001Y523334D01*
X691000Y626000D02*
X694999D01*
X693666Y624667D01*
X694999Y623334D01*
X691000D01*
Y620002D02*
X694999D01*
X692999Y622001D01*
Y619336D01*
X691000Y549000D02*
X694999D01*
X693666Y547667D01*
X694999Y546334D01*
X691000D01*
Y542336D02*
Y545001D01*
X693666Y542336D01*
X694332D01*
X694999Y543002D01*
Y544335D01*
X694332Y545001D01*
X479000Y386000D02*
Y389999D01*
X480999D01*
X481666Y389332D01*
Y387999D01*
X480999Y387333D01*
X479000D01*
X480333D02*
X481666Y386000D01*
X482999Y389999D02*
X485664D01*
Y389332D01*
X482999Y386666D01*
Y386000D01*
X596334Y403168D02*
X597001Y402501D01*
X598334D01*
X599000Y403168D01*
Y405834D01*
X598334Y406500D01*
X597001D01*
X596334Y405834D01*
X595001Y406500D02*
X593669D01*
X594335D01*
Y402501D01*
X595001Y403168D01*
X589003Y406500D02*
X591669D01*
X589003Y403834D01*
Y403168D01*
X589670Y402501D01*
X591003D01*
X591669Y403168D01*
X624000Y459000D02*
Y455001D01*
X622001D01*
X621334Y455668D01*
Y457001D01*
X622001Y457667D01*
X624000D01*
X622667D02*
X621334Y459000D01*
X620001D02*
X618669D01*
X619335D01*
Y455001D01*
X620001Y455668D01*
X614003Y459000D02*
X616669D01*
X614003Y456334D01*
Y455668D01*
X614670Y455001D01*
X616003D01*
X616669Y455668D01*
X624000Y434000D02*
Y430001D01*
X622001D01*
X621334Y430668D01*
Y432001D01*
X622001Y432667D01*
X624000D01*
X622667D02*
X621334Y434000D01*
X620001D02*
X618669D01*
X619335D01*
Y430001D01*
X620001Y430668D01*
X616669D02*
X616003Y430001D01*
X614670D01*
X614003Y430668D01*
Y433334D01*
X614670Y434000D01*
X616003D01*
X616669Y433334D01*
Y430668D01*
X691000Y457000D02*
X694999D01*
X693666Y455667D01*
X694999Y454334D01*
X691000D01*
X694332Y453001D02*
X694999Y452335D01*
Y451002D01*
X694332Y450336D01*
X693666D01*
X692999Y451002D01*
Y451669D01*
Y451002D01*
X692333Y450336D01*
X691666D01*
X691000Y451002D01*
Y452335D01*
X691666Y453001D01*
X691000Y380000D02*
X694999D01*
X693666Y378667D01*
X694999Y377334D01*
X691000D01*
Y376001D02*
Y374669D01*
Y375335D01*
X694999D01*
X694332Y376001D01*
X624000Y379000D02*
Y375001D01*
X622001D01*
X621334Y375668D01*
Y377001D01*
X622001Y377667D01*
X624000D01*
X622667D02*
X621334Y379000D01*
X618002D02*
Y375001D01*
X620001Y377001D01*
X617336D01*
X624000Y354000D02*
Y350001D01*
X622001D01*
X621334Y350668D01*
Y352001D01*
X622001Y352667D01*
X624000D01*
X622667D02*
X621334Y354000D01*
X617336D02*
X620001D01*
X617336Y351334D01*
Y350668D01*
X618002Y350001D01*
X619335D01*
X620001Y350668D01*
X431000Y418293D02*
X434999D01*
Y416293D01*
X434332Y415627D01*
X432999D01*
X432333Y416293D01*
Y418293D01*
Y416960D02*
X431000Y415627D01*
Y411628D02*
Y414294D01*
X433666Y411628D01*
X434332D01*
X434999Y412295D01*
Y413628D01*
X434332Y414294D01*
X431000Y410295D02*
Y408962D01*
Y409629D01*
X434999D01*
X434332Y410295D01*
X506000Y314000D02*
X509999D01*
Y312001D01*
X509332Y311334D01*
X507999D01*
X507333Y312001D01*
Y314000D01*
Y312667D02*
X506000Y311334D01*
Y310001D02*
Y308668D01*
Y309335D01*
X509999D01*
X509332Y310001D01*
X509999Y304003D02*
Y306669D01*
X507999D01*
X508666Y305336D01*
Y304670D01*
X507999Y304003D01*
X506666D01*
X506000Y304670D01*
Y306003D01*
X506666Y306669D01*
X509687Y713834D02*
X510353Y714501D01*
Y715834D01*
X509687Y716500D01*
X507021D01*
X506354Y715834D01*
Y714501D01*
X507021Y713834D01*
X506354Y709836D02*
Y712501D01*
X509020Y709836D01*
X509687D01*
X510353Y710502D01*
Y711835D01*
X509687Y712501D01*
X510353Y705837D02*
Y708503D01*
X508354D01*
X509020Y707170D01*
Y706503D01*
X508354Y705837D01*
X507021D01*
X506354Y706503D01*
Y707836D01*
X507021Y708503D01*
X360491Y428989D02*
X359825Y428323D01*
Y426990D01*
X360491Y426323D01*
X363157D01*
X363824Y426990D01*
Y428323D01*
X363157Y428989D01*
X363824Y432988D02*
Y430322D01*
X361158Y432988D01*
X360491D01*
X359825Y432322D01*
Y430989D01*
X360491Y430322D01*
X359825Y436987D02*
X360491Y435654D01*
X361824Y434321D01*
X363157D01*
X363824Y434987D01*
Y436320D01*
X363157Y436987D01*
X362491D01*
X361824Y436320D01*
Y434321D01*
D127*
X601000Y638000D02*
X649000D01*
Y616000D02*
Y638000D01*
X601000Y616000D02*
Y638000D01*
Y616000D02*
X649000D01*
X601000Y616000D02*
X649000D01*
Y594000D02*
Y616000D01*
X601000Y594000D02*
Y616000D01*
Y594000D02*
X649000D01*
X601000Y558000D02*
X649000D01*
Y536000D02*
Y558000D01*
X601000Y536000D02*
Y558000D01*
Y536000D02*
X649000D01*
X601000D02*
X649000D01*
Y514000D02*
Y536000D01*
X601000Y514000D02*
Y536000D01*
Y514000D02*
X649000D01*
X601000Y471000D02*
X649000D01*
Y449000D02*
Y471000D01*
X601000Y449000D02*
Y471000D01*
Y449000D02*
X649000D01*
X601000Y446000D02*
X649000D01*
Y424000D02*
Y446000D01*
X601000Y424000D02*
Y446000D01*
Y424000D02*
X649000D01*
X601000Y391000D02*
X649000D01*
Y369000D02*
Y391000D01*
X601000Y369000D02*
Y391000D01*
Y369000D02*
X649000D01*
X601000Y366000D02*
X649000D01*
Y344000D02*
Y366000D01*
X601000Y344000D02*
Y366000D01*
Y344000D02*
X649000D01*
M02*
