G04*
G04 #@! TF.GenerationSoftware,Altium Limited,Altium Designer,21.6.4 (81)*
G04*
G04 Layer_Color=65535*
%FSLAX44Y44*%
%MOMM*%
G71*
G04*
G04 #@! TF.SameCoordinates,6345E517-F44B-4F0B-96C8-749CB5923BEE*
G04*
G04*
G04 #@! TF.FilePolarity,Positive*
G04*
G01*
G75*
%ADD10C,0.2000*%
%ADD11C,0.2500*%
%ADD12C,0.1000*%
%ADD13C,0.1270*%
D10*
X682500Y232000D02*
G03*
X682500Y232000I-82500J0D01*
G01*
X848000Y770000D02*
G03*
X848000Y770000I-28000J0D01*
G01*
X58000Y30000D02*
G03*
X58000Y30000I-28000J0D01*
G01*
X101000Y483000D02*
G03*
X101000Y483000I-1000J0D01*
G01*
X58000Y770000D02*
G03*
X58000Y770000I-28000J0D01*
G01*
X355000Y340000D02*
G03*
X355000Y340000I-50000J0D01*
G01*
X63270Y604450D02*
G03*
X63270Y604450I-890J0D01*
G01*
X690707Y745000D02*
G03*
X690707Y745000I-50000J0D01*
G01*
X605500Y80000D02*
G03*
X605500Y80000I-82500J0D01*
G01*
X777500D02*
G03*
X777500Y80000I-82500J0D01*
G01*
X852500Y232000D02*
G03*
X852500Y232000I-82500J0D01*
G01*
X848000Y30000D02*
G03*
X848000Y30000I-28000J0D01*
G01*
X751000Y417000D02*
G03*
X751000Y417000I-1000J0D01*
G01*
X435000Y55000D02*
G03*
X435000Y55000I-50000J0D01*
G01*
X692500Y659750D02*
Y670250D01*
X99621Y538531D02*
Y546469D01*
X84059Y538531D02*
Y546469D01*
X476750Y400000D02*
X479250D01*
X476750Y414000D02*
X479250D01*
X462531Y735281D02*
X470469D01*
X462531Y719719D02*
X470469D01*
X471500Y742500D02*
Y750500D01*
X466500Y742500D02*
X471500D01*
Y764500D02*
Y772500D01*
X466500D02*
X471500D01*
X400250Y743000D02*
X402750D01*
X400250Y757000D02*
X402750D01*
X422000Y346700D02*
X437250D01*
X418500Y348000D02*
Y397000D01*
X386500D02*
X418500D01*
X386500Y348000D02*
Y397000D01*
Y348000D02*
X418500D01*
X452000Y313750D02*
Y316250D01*
X438000Y313750D02*
Y316250D01*
X26250Y658737D02*
X28750D01*
X26250Y672737D02*
X28750D01*
X22781Y627445D02*
Y635382D01*
X7219Y627445D02*
Y635382D01*
X7000Y564000D02*
X72000D01*
X122500Y482500D02*
Y607500D01*
X247500Y482500D02*
Y607500D01*
X268750Y598000D02*
X271250D01*
X268750Y612000D02*
X271250D01*
X344000Y486000D02*
Y538500D01*
X321000Y486000D02*
X344000D01*
X321000Y554000D02*
X328500D01*
X344000Y538500D01*
X276000D02*
X291500Y554000D01*
X299000D01*
X276000Y486000D02*
X299000D01*
X276000D02*
Y538500D01*
X260250Y469500D02*
X339750D01*
X260250Y410500D02*
X339750D01*
X310000Y268000D02*
Y282000D01*
X258000Y523750D02*
Y526250D01*
X272000Y523750D02*
Y526250D01*
X258000Y488750D02*
Y491250D01*
X272000Y488750D02*
Y491250D01*
X301031Y672781D02*
X308969D01*
X301031Y657219D02*
X308969D01*
X99250Y619100D02*
Y646100D01*
Y619100D02*
X360750D01*
Y646100D01*
X99250D02*
X360750D01*
X435600Y660058D02*
Y686957D01*
Y660058D02*
X489400D01*
Y686957D01*
X435600D02*
X489400D01*
X99250Y771500D02*
Y798500D01*
Y771500D02*
X360750D01*
Y798500D01*
X99250D02*
X360750D01*
X143500Y368000D02*
Y392500D01*
X242500D01*
Y368000D02*
Y392500D01*
X582250Y605824D02*
Y632824D01*
X597750Y605824D02*
Y642074D01*
X516500Y622750D02*
X543500D01*
X516500Y607250D02*
X552750D01*
X477207Y588058D02*
X479707D01*
X477207Y574057D02*
X479707D01*
X477207Y570000D02*
X479707D01*
X477207Y556000D02*
X479707D01*
X500250Y603300D02*
X515500D01*
X519000Y553000D02*
Y602000D01*
Y553000D02*
X551000D01*
Y602000D01*
X519000D02*
X551000D01*
X616031Y585281D02*
X623969D01*
X616031Y569719D02*
X623969D01*
X620269Y635000D02*
X629730D01*
X620269Y619000D02*
X629730D01*
X620269Y613000D02*
X629730D01*
X620269Y597000D02*
X629730D01*
X582250Y519000D02*
Y546000D01*
X597750Y519000D02*
Y555250D01*
X620269Y555000D02*
X629730D01*
X620269Y539000D02*
X629730D01*
X620269Y533000D02*
X629730D01*
X620269Y517000D02*
X629730D01*
X659500Y653750D02*
X720500D01*
X659500Y600250D02*
Y601700D01*
Y614200D02*
Y614400D01*
Y626900D02*
Y627100D01*
Y639600D02*
Y639800D01*
Y652300D02*
Y653750D01*
Y600250D02*
X720500D01*
Y601200D01*
Y652800D02*
Y653750D01*
X659500Y576750D02*
X720500D01*
X659500Y523250D02*
Y524700D01*
Y537200D02*
Y537400D01*
Y549900D02*
Y550100D01*
Y562600D02*
Y562800D01*
Y575300D02*
Y576750D01*
Y523250D02*
X720500D01*
Y524200D01*
Y575800D02*
Y576750D01*
X775000Y706000D02*
Y736000D01*
Y666333D02*
Y696333D01*
Y626667D02*
Y656667D01*
X775200Y587000D02*
Y617000D01*
X476750Y392000D02*
X479250D01*
X476750Y378000D02*
X479250D01*
X500250Y430800D02*
X515500D01*
X519000Y380500D02*
Y429500D01*
Y380500D02*
X551000D01*
Y429500D01*
X519000D02*
X551000D01*
X596031Y415281D02*
X603969D01*
X596031Y399719D02*
X603969D01*
X582250Y436500D02*
Y463500D01*
X597750Y436500D02*
Y472750D01*
X620269Y468000D02*
X629730D01*
X620269Y452000D02*
X629730D01*
X620269Y443000D02*
X629730D01*
X620269Y427000D02*
X629730D01*
X659500Y484750D02*
X720500D01*
X659500Y431250D02*
Y432700D01*
Y445200D02*
Y445400D01*
Y457900D02*
Y458100D01*
Y470600D02*
Y470800D01*
Y483300D02*
Y484750D01*
Y431250D02*
X720500D01*
Y432200D01*
Y483800D02*
Y484750D01*
X659500Y407750D02*
X720500D01*
X659500Y354250D02*
Y355700D01*
Y368200D02*
Y368400D01*
Y380900D02*
Y381100D01*
Y393600D02*
Y393800D01*
Y406300D02*
Y407750D01*
Y354250D02*
X720500D01*
Y355200D01*
Y406800D02*
Y407750D01*
X582250Y351500D02*
Y378500D01*
X597750Y351500D02*
Y387750D01*
X620269Y388000D02*
X629730D01*
X620269Y372000D02*
X629730D01*
X620269Y363000D02*
X629730D01*
X620269Y347000D02*
X629730D01*
X92500Y11458D02*
X114000D01*
X92500D02*
Y96958D01*
Y94958D02*
Y254457D01*
X114000D01*
X158000D02*
X262000D01*
X158000Y11458D02*
X262000D01*
X306000D02*
X327500D01*
Y122957D01*
Y254457D01*
X306000D02*
X327500D01*
X437000Y418042D02*
Y420542D01*
X423000Y418042D02*
Y420542D01*
X512000Y313750D02*
Y316250D01*
X498000Y313750D02*
Y316250D01*
X516500Y452750D02*
X543500D01*
X516500Y437250D02*
X552750D01*
X497574Y713531D02*
Y721469D01*
X513136Y713531D02*
Y721469D01*
X372605Y421355D02*
Y429292D01*
X357043Y421355D02*
Y429292D01*
X70334Y642793D02*
X63669D01*
Y637794D01*
X67002Y639461D01*
X68668D01*
X70334Y637794D01*
Y634462D01*
X68668Y632796D01*
X65335D01*
X63669Y634462D01*
X73666Y642793D02*
Y636128D01*
X76998Y632796D01*
X80331Y636128D01*
Y642793D01*
X68668Y625997D02*
X65335D01*
X63669Y624331D01*
Y617666D01*
X65335Y616000D01*
X68668D01*
X70334Y617666D01*
Y624331D01*
X68668Y625997D01*
X73666D02*
Y616000D01*
Y619332D01*
X80331Y625997D01*
X75332Y620998D01*
X80331Y616000D01*
X341504Y596796D02*
X344836D01*
X343170D01*
Y606793D01*
X341504Y605127D01*
X356499Y596796D02*
X349835D01*
X356499Y603461D01*
Y605127D01*
X354833Y606793D01*
X351501D01*
X349835Y605127D01*
X359832Y606793D02*
Y600128D01*
X363164Y596796D01*
X366496Y600128D01*
Y606793D01*
X350668Y589997D02*
X347336D01*
X345669Y588331D01*
Y581666D01*
X347336Y580000D01*
X350668D01*
X352334Y581666D01*
Y588331D01*
X350668Y589997D01*
X355666D02*
Y580000D01*
Y583332D01*
X362331Y589997D01*
X357332Y584998D01*
X362331Y580000D01*
D11*
X456250Y775500D02*
G03*
X456250Y775500I-1250J0D01*
G01*
X241240Y430250D02*
G03*
X241240Y430250I-1250J0D01*
G01*
X652000Y646050D02*
G03*
X652000Y646050I-1250J0D01*
G01*
Y569050D02*
G03*
X652000Y569050I-1250J0D01*
G01*
Y477050D02*
G03*
X652000Y477050I-1250J0D01*
G01*
Y400050D02*
G03*
X652000Y400050I-1250J0D01*
G01*
D12*
X284000Y266957D02*
G03*
X283000Y266957I-500J0D01*
G01*
D02*
G03*
X284000Y266957I500J0D01*
G01*
X82500Y65000D02*
Y245000D01*
X2500Y65000D02*
X82500D01*
X2500D02*
Y245000D01*
X82500D01*
X464207Y180543D02*
X484207D01*
X464207Y290543D02*
X484207D01*
X340000Y115000D02*
X420000Y115000D01*
Y295000D01*
X340000D02*
X420000D01*
X340000Y115000D02*
X340000Y295000D01*
X799588Y415998D02*
X802921D01*
X801255D01*
Y411000D01*
X805420D02*
X807086D01*
X807919Y411833D01*
Y413499D01*
X807086Y414332D01*
X805420D01*
X804587Y413499D01*
Y411833D01*
X805420Y411000D01*
X817916Y415165D02*
X817083Y415998D01*
X815416D01*
X814584Y415165D01*
Y411833D01*
X815416Y411000D01*
X817083D01*
X817916Y411833D01*
X820415Y411000D02*
X822081D01*
X822914Y411833D01*
Y413499D01*
X822081Y414332D01*
X820415D01*
X819582Y413499D01*
Y411833D01*
X820415Y411000D01*
X824580D02*
X826246D01*
X825413D01*
Y414332D01*
X824580D01*
X828745Y411000D02*
X830412D01*
X829579D01*
Y415998D01*
X828745D01*
X372794Y711665D02*
X368629D01*
X367796Y710831D01*
Y709165D01*
X368629Y708332D01*
X372794D01*
X371961Y703334D02*
X372794Y704167D01*
Y705833D01*
X371961Y706666D01*
X371128D01*
X370295Y705833D01*
Y704167D01*
X369462Y703334D01*
X368629D01*
X367796Y704167D01*
Y705833D01*
X368629Y706666D01*
X372794Y701668D02*
X367796D01*
Y699169D01*
X368629Y698335D01*
X369462D01*
X370295Y699169D01*
Y701668D01*
Y699169D01*
X371128Y698335D01*
X371961D01*
X372794Y699169D01*
Y701668D01*
X364396Y710831D02*
Y714164D01*
X361897D01*
Y712498D01*
Y714164D01*
X359398D01*
X362730Y708332D02*
Y706666D01*
X361897Y705833D01*
X359398D01*
Y708332D01*
X360231Y709165D01*
X361064Y708332D01*
Y705833D01*
X362730Y700835D02*
Y703334D01*
X361897Y704167D01*
X360231D01*
X359398Y703334D01*
Y700835D01*
Y696669D02*
Y698335D01*
X360231Y699169D01*
X361897D01*
X362730Y698335D01*
Y696669D01*
X361897Y695836D01*
X361064D01*
Y699169D01*
X355998Y714164D02*
X351000D01*
X353499D01*
Y710831D01*
X355998D01*
X351000D01*
Y706666D02*
Y708332D01*
X351833Y709165D01*
X353499D01*
X354332Y708332D01*
Y706666D01*
X353499Y705833D01*
X352666D01*
Y709165D01*
X354332Y704167D02*
X351000D01*
X352666D01*
X353499Y703334D01*
X354332Y702501D01*
Y701668D01*
X351000Y696669D02*
Y698335D01*
X351833Y699169D01*
X353499D01*
X354332Y698335D01*
Y696669D01*
X353499Y695836D01*
X352666D01*
Y699169D01*
X291167Y681998D02*
X287835D01*
Y679499D01*
X289501Y680332D01*
X290334D01*
X291167Y679499D01*
Y677833D01*
X290334Y677000D01*
X288668D01*
X287835Y677833D01*
X292833Y681998D02*
Y678666D01*
X294499Y677000D01*
X296165Y678666D01*
Y681998D01*
X28756Y306000D02*
Y310998D01*
X31255D01*
X32088Y310165D01*
Y308499D01*
X31255Y307666D01*
X28756D01*
X34588Y306000D02*
X36254D01*
X37087Y306833D01*
Y308499D01*
X36254Y309332D01*
X34588D01*
X33754Y308499D01*
Y306833D01*
X34588Y306000D01*
X38753Y309332D02*
Y306833D01*
X39586Y306000D01*
X40419Y306833D01*
X41252Y306000D01*
X42085Y306833D01*
Y309332D01*
X46250Y306000D02*
X44584D01*
X43751Y306833D01*
Y308499D01*
X44584Y309332D01*
X46250D01*
X47084Y308499D01*
Y307666D01*
X43751D01*
X48750Y309332D02*
Y306000D01*
Y307666D01*
X49583Y308499D01*
X50416Y309332D01*
X51249D01*
X58746Y310998D02*
X60412D01*
X59579D01*
Y306000D01*
X58746D01*
X60412D01*
X62912D02*
Y309332D01*
X65411D01*
X66244Y308499D01*
Y306000D01*
X324664Y722327D02*
Y718995D01*
Y720661D01*
X319666D01*
Y717329D02*
Y715663D01*
Y716496D01*
X322998D01*
Y717329D01*
X319666Y713164D02*
X322998D01*
Y710665D01*
X322165Y709831D01*
X319666D01*
X322998Y708165D02*
X320499D01*
X319666Y707332D01*
Y704833D01*
X318833D01*
X318000Y705666D01*
Y706499D01*
X319666Y704833D02*
X322998D01*
X319666Y703167D02*
X324664D01*
Y700668D01*
X323831Y699835D01*
X322165D01*
X321332Y700668D01*
Y703167D01*
X324664Y698169D02*
Y696502D01*
Y697336D01*
X319666D01*
Y698169D01*
Y696502D01*
X323831Y690671D02*
X324664Y691504D01*
Y693170D01*
X323831Y694003D01*
X320499D01*
X319666Y693170D01*
Y691504D01*
X320499Y690671D01*
X324664Y686506D02*
Y688172D01*
X323831Y689005D01*
X320499D01*
X319666Y688172D01*
Y686506D01*
X320499Y685673D01*
X323831D01*
X324664Y686506D01*
X655000Y228999D02*
X657666D01*
X656333Y230332D02*
Y227666D01*
X39037Y613310D02*
Y609883D01*
X37324Y611596D02*
X40751D01*
X293470Y606286D02*
X290042D01*
X291756Y608000D02*
Y604572D01*
X311572Y570214D02*
X315000D01*
X313286Y568500D02*
Y571928D01*
X113800Y649600D02*
X115133D01*
X114466D01*
Y653599D01*
X113800Y652932D01*
X337500Y649600D02*
X338833D01*
X338166D01*
Y653599D01*
X337500Y652932D01*
X340832D02*
X341499Y653599D01*
X342832D01*
X343498Y652932D01*
Y650266D01*
X342832Y649600D01*
X341499D01*
X340832Y650266D01*
Y652932D01*
X114000Y760000D02*
X115333D01*
X114666D01*
Y763999D01*
X114000Y763332D01*
X344000Y757500D02*
X345333D01*
X344666D01*
Y761499D01*
X344000Y760832D01*
X347332D02*
X347999Y761499D01*
X349332D01*
X349998Y760832D01*
Y758167D01*
X349332Y757500D01*
X347999D01*
X347332Y758167D01*
Y760832D01*
X528501Y132500D02*
Y135166D01*
X527168Y133833D02*
X529834D01*
X645000Y85501D02*
X642334D01*
X643667Y84168D02*
Y86834D01*
X764499Y182000D02*
Y179334D01*
X765832Y180667D02*
X763166D01*
X729744Y586264D02*
Y590263D01*
X731743D01*
X732410Y589596D01*
Y588263D01*
X731743Y587597D01*
X729744D01*
X736408Y586264D02*
X733743D01*
X736408Y588930D01*
Y589596D01*
X735742Y590263D01*
X734409D01*
X733743Y589596D01*
X114834Y310501D02*
Y314499D01*
X116834D01*
X117500Y313833D01*
Y312500D01*
X116834Y311834D01*
X114834D01*
X118833Y310501D02*
X120166D01*
X119499D01*
Y314499D01*
X118833Y313833D01*
X307334Y521333D02*
X306668Y521999D01*
X305335D01*
X304668Y521333D01*
Y518667D01*
X305335Y518001D01*
X306668D01*
X307334Y518667D01*
X308667Y521333D02*
X309333Y521999D01*
X310667D01*
X311333Y521333D01*
Y520667D01*
X310667Y520000D01*
X310000D01*
X310667D01*
X311333Y519334D01*
Y518667D01*
X310667Y518001D01*
X309333D01*
X308667Y518667D01*
X315332Y521999D02*
X312666D01*
Y520000D01*
X313999Y520667D01*
X314665D01*
X315332Y520000D01*
Y518667D01*
X314665Y518001D01*
X313332D01*
X312666Y518667D01*
X448834Y759499D02*
Y756167D01*
X449501Y755501D01*
X450834D01*
X451500Y756167D01*
Y759499D01*
X452833Y755501D02*
X454166D01*
X453499D01*
Y759499D01*
X452833Y758833D01*
X690180Y675156D02*
Y679154D01*
X692179D01*
X692846Y678488D01*
Y677155D01*
X692179Y676488D01*
X690180D01*
X691513D02*
X692846Y675156D01*
X694179Y679154D02*
X696844D01*
X695511D01*
Y675156D01*
X698177D02*
X699510D01*
X698844D01*
Y679154D01*
X698177Y678488D01*
X241668Y474001D02*
Y477999D01*
X243668D01*
X244334Y477333D01*
Y476000D01*
X243668Y475334D01*
X241668D01*
X243001D02*
X244334Y474001D01*
X248333D02*
X245667D01*
X248333Y476666D01*
Y477333D01*
X247666Y477999D01*
X246334D01*
X245667Y477333D01*
X249666Y477999D02*
X252332D01*
Y477333D01*
X249666Y474667D01*
Y474001D01*
X30668Y678001D02*
Y681999D01*
X32668D01*
X33334Y681333D01*
Y680000D01*
X32668Y679334D01*
X30668D01*
X32001D02*
X33334Y678001D01*
X37333D02*
X34667D01*
X37333Y680667D01*
Y681333D01*
X36667Y681999D01*
X35334D01*
X34667Y681333D01*
X41332Y681999D02*
X39999Y681333D01*
X38666Y680000D01*
Y678667D01*
X39332Y678001D01*
X40665D01*
X41332Y678667D01*
Y679334D01*
X40665Y680000D01*
X38666D01*
X264668Y588001D02*
Y591999D01*
X266668D01*
X267334Y591333D01*
Y590000D01*
X266668Y589333D01*
X264668D01*
X266001D02*
X267334Y588001D01*
X271333D02*
X268667D01*
X271333Y590667D01*
Y591333D01*
X270667Y591999D01*
X269333D01*
X268667Y591333D01*
X275332Y591999D02*
X272666D01*
Y590000D01*
X273999Y590667D01*
X274665D01*
X275332Y590000D01*
Y588667D01*
X274665Y588001D01*
X273332D01*
X272666Y588667D01*
X258918Y543001D02*
Y546999D01*
X260918D01*
X261584Y546333D01*
Y545000D01*
X260918Y544334D01*
X258918D01*
X260251D02*
X261584Y543001D01*
X265583D02*
X262917D01*
X265583Y545667D01*
Y546333D01*
X264916Y546999D01*
X263584D01*
X262917Y546333D01*
X268915Y543001D02*
Y546999D01*
X266916Y545000D01*
X269582D01*
X379224Y464344D02*
Y468343D01*
X381223D01*
X381890Y467676D01*
Y466343D01*
X381223Y465677D01*
X379224D01*
X380557D02*
X381890Y464344D01*
X385888D02*
X383223D01*
X385888Y467010D01*
Y467676D01*
X385222Y468343D01*
X383889D01*
X383223Y467676D01*
X387221D02*
X387888Y468343D01*
X389221D01*
X389887Y467676D01*
Y467010D01*
X389221Y466343D01*
X388554D01*
X389221D01*
X389887Y465677D01*
Y465010D01*
X389221Y464344D01*
X387888D01*
X387221Y465010D01*
X274668Y275501D02*
Y279499D01*
X276668D01*
X277334Y278833D01*
Y277500D01*
X276668Y276834D01*
X274668D01*
X276001D02*
X277334Y275501D01*
X281333D02*
X278667D01*
X281333Y278167D01*
Y278833D01*
X280666Y279499D01*
X279333D01*
X278667Y278833D01*
X285332Y275501D02*
X282666D01*
X285332Y278167D01*
Y278833D01*
X284665Y279499D01*
X283332D01*
X282666Y278833D01*
X421642Y441992D02*
Y445991D01*
X423641D01*
X424308Y445324D01*
Y443991D01*
X423641Y443325D01*
X421642D01*
X422975D02*
X424308Y441992D01*
X428307D02*
X425641D01*
X428307Y444658D01*
Y445324D01*
X427640Y445991D01*
X426307D01*
X425641Y445324D01*
X429639Y441992D02*
X430972D01*
X430306D01*
Y445991D01*
X429639Y445324D01*
X366502Y768001D02*
Y771999D01*
X368501D01*
X369167Y771333D01*
Y770000D01*
X368501Y769334D01*
X366502D01*
X367835D02*
X369167Y768001D01*
X370500D02*
X371833D01*
X371167D01*
Y771999D01*
X370500Y771333D01*
X373833Y768667D02*
X374499Y768001D01*
X375832D01*
X376498Y768667D01*
Y771333D01*
X375832Y771999D01*
X374499D01*
X373833Y771333D01*
Y770667D01*
X374499Y770000D01*
X376498D01*
X429002Y733001D02*
Y736999D01*
X431001D01*
X431667Y736333D01*
Y735000D01*
X431001Y734334D01*
X429002D01*
X430335D02*
X431667Y733001D01*
X433000D02*
X434333D01*
X433667D01*
Y736999D01*
X433000Y736333D01*
X436333D02*
X436999Y736999D01*
X438332D01*
X438998Y736333D01*
Y735667D01*
X438332Y735000D01*
X438998Y734334D01*
Y733667D01*
X438332Y733001D01*
X436999D01*
X436333Y733667D01*
Y734334D01*
X436999Y735000D01*
X436333Y735667D01*
Y736333D01*
X436999Y735000D02*
X438332D01*
X432502Y700501D02*
Y704499D01*
X434501D01*
X435167Y703833D01*
Y702500D01*
X434501Y701833D01*
X432502D01*
X433834D02*
X435167Y700501D01*
X436500D02*
X437833D01*
X437167D01*
Y704499D01*
X436500Y703833D01*
X439833Y704499D02*
X442498D01*
Y703833D01*
X439833Y701167D01*
Y700501D01*
X422502Y325501D02*
Y329499D01*
X424501D01*
X425168Y328833D01*
Y327500D01*
X424501Y326834D01*
X422502D01*
X423834D02*
X425168Y325501D01*
X426500D02*
X427833D01*
X427167D01*
Y329499D01*
X426500Y328833D01*
X432498Y329499D02*
X431166Y328833D01*
X429833Y327500D01*
Y326167D01*
X430499Y325501D01*
X431832D01*
X432498Y326167D01*
Y326834D01*
X431832Y327500D01*
X429833D01*
X496826Y337598D02*
Y341597D01*
X498825D01*
X499492Y340930D01*
Y339597D01*
X498825Y338931D01*
X496826D01*
X498159D02*
X499492Y337598D01*
X500825D02*
X502158D01*
X501491D01*
Y341597D01*
X500825Y340930D01*
X506823Y341597D02*
X504157D01*
Y339597D01*
X505490Y340264D01*
X506156D01*
X506823Y339597D01*
Y338264D01*
X506156Y337598D01*
X504823D01*
X504157Y338264D01*
X396502Y733001D02*
Y736999D01*
X398501D01*
X399167Y736333D01*
Y735000D01*
X398501Y734334D01*
X396502D01*
X397835D02*
X399167Y733001D01*
X400500D02*
X401833D01*
X401167D01*
Y736999D01*
X400500Y736333D01*
X405832Y733001D02*
Y736999D01*
X403833Y735000D01*
X406498D01*
X621335Y626376D02*
Y630375D01*
X623335D01*
X624001Y629708D01*
Y628375D01*
X623335Y627709D01*
X621335D01*
X622668D02*
X624001Y626376D01*
X625334D02*
X626667D01*
X626000D01*
Y630375D01*
X625334Y629708D01*
X628666D02*
X629333Y630375D01*
X630666D01*
X631332Y629708D01*
Y629042D01*
X630666Y628375D01*
X629999D01*
X630666D01*
X631332Y627709D01*
Y627042D01*
X630666Y626376D01*
X629333D01*
X628666Y627042D01*
X620002Y458001D02*
Y461999D01*
X622001D01*
X622667Y461333D01*
Y460000D01*
X622001Y459333D01*
X620002D01*
X621334D02*
X622667Y458001D01*
X624000D02*
X625333D01*
X624667D01*
Y461999D01*
X624000Y461333D01*
X629998Y458001D02*
X627333D01*
X629998Y460667D01*
Y461333D01*
X629332Y461999D01*
X627999D01*
X627333Y461333D01*
X622002Y603001D02*
Y606999D01*
X624001D01*
X624668Y606333D01*
Y605000D01*
X624001Y604334D01*
X622002D01*
X623335D02*
X624668Y603001D01*
X626000D02*
X627333D01*
X626667D01*
Y606999D01*
X626000Y606333D01*
X629333Y603001D02*
X630666D01*
X629999D01*
Y606999D01*
X629333Y606333D01*
X620002Y433001D02*
Y436999D01*
X622001D01*
X622667Y436333D01*
Y435000D01*
X622001Y434333D01*
X620002D01*
X621334D02*
X622667Y433001D01*
X624000D02*
X625333D01*
X624667D01*
Y436999D01*
X624000Y436333D01*
X627333D02*
X627999Y436999D01*
X629332D01*
X629998Y436333D01*
Y433667D01*
X629332Y433001D01*
X627999D01*
X627333Y433667D01*
Y436333D01*
X475125Y579058D02*
Y583057D01*
X477125D01*
X477791Y582390D01*
Y581058D01*
X477125Y580391D01*
X475125D01*
X476458D02*
X477791Y579058D01*
X479124Y579725D02*
X479790Y579058D01*
X481123D01*
X481790Y579725D01*
Y582390D01*
X481123Y583057D01*
X479790D01*
X479124Y582390D01*
Y581724D01*
X479790Y581058D01*
X481790D01*
X475125Y561001D02*
Y564999D01*
X477125D01*
X477791Y564333D01*
Y563000D01*
X477125Y562333D01*
X475125D01*
X476458D02*
X477791Y561001D01*
X479124Y564333D02*
X479790Y564999D01*
X481123D01*
X481790Y564333D01*
Y563666D01*
X481123Y563000D01*
X481790Y562333D01*
Y561667D01*
X481123Y561001D01*
X479790D01*
X479124Y561667D01*
Y562333D01*
X479790Y563000D01*
X479124Y563666D01*
Y564333D01*
X479790Y563000D02*
X481123D01*
X476668Y368001D02*
Y371999D01*
X478667D01*
X479334Y371333D01*
Y370000D01*
X478667Y369334D01*
X476668D01*
X478001D02*
X479334Y368001D01*
X480667Y371999D02*
X483332D01*
Y371333D01*
X480667Y368667D01*
Y368001D01*
X450668Y407001D02*
Y410999D01*
X452667D01*
X453334Y410333D01*
Y409000D01*
X452667Y408334D01*
X450668D01*
X452001D02*
X453334Y407001D01*
X457332Y410999D02*
X455999Y410333D01*
X454666Y409000D01*
Y407667D01*
X455333Y407001D01*
X456666D01*
X457332Y407667D01*
Y408334D01*
X456666Y409000D01*
X454666D01*
X621668Y545001D02*
Y548999D01*
X623667D01*
X624333Y548333D01*
Y547000D01*
X623667Y546334D01*
X621668D01*
X623001D02*
X624333Y545001D01*
X628332Y548999D02*
X625666D01*
Y547000D01*
X626999Y547667D01*
X627666D01*
X628332Y547000D01*
Y545667D01*
X627666Y545001D01*
X626333D01*
X625666Y545667D01*
X621668Y378001D02*
Y381999D01*
X623667D01*
X624333Y381333D01*
Y380000D01*
X623667Y379334D01*
X621668D01*
X623001D02*
X624333Y378001D01*
X627666D02*
Y381999D01*
X625666Y380000D01*
X628332D01*
X621668Y523001D02*
Y526999D01*
X623667D01*
X624333Y526333D01*
Y525000D01*
X623667Y524333D01*
X621668D01*
X623001D02*
X624333Y523001D01*
X625666Y526333D02*
X626333Y526999D01*
X627666D01*
X628332Y526333D01*
Y525667D01*
X627666Y525000D01*
X626999D01*
X627666D01*
X628332Y524333D01*
Y523667D01*
X627666Y523001D01*
X626333D01*
X625666Y523667D01*
X621668Y353001D02*
Y356999D01*
X623667D01*
X624333Y356333D01*
Y355000D01*
X623667Y354334D01*
X621668D01*
X623001D02*
X624333Y353001D01*
X628332D02*
X625666D01*
X628332Y355667D01*
Y356333D01*
X627666Y356999D01*
X626333D01*
X625666Y356333D01*
X434834Y285501D02*
Y289499D01*
X436834D01*
X437500Y288833D01*
Y287500D01*
X436834Y286834D01*
X434834D01*
X436167D02*
X437500Y285501D01*
X438833D02*
X440166D01*
X439499D01*
Y289499D01*
X438833Y288833D01*
X494168Y673001D02*
Y676999D01*
X496167D01*
X496834Y676333D01*
Y675000D01*
X496167Y674334D01*
X494168D01*
X498166Y676333D02*
X498833Y676999D01*
X500166D01*
X500832Y676333D01*
Y675667D01*
X500166Y675000D01*
X499499D01*
X500166D01*
X500832Y674334D01*
Y673667D01*
X500166Y673001D01*
X498833D01*
X498166Y673667D01*
X811668Y68001D02*
Y71999D01*
X813001Y70666D01*
X814334Y71999D01*
Y68001D01*
X815666Y71333D02*
X816333Y71999D01*
X817666D01*
X818332Y71333D01*
Y70666D01*
X817666Y70000D01*
X818332Y69334D01*
Y68667D01*
X817666Y68001D01*
X816333D01*
X815666Y68667D01*
Y69334D01*
X816333Y70000D01*
X815666Y70666D01*
Y71333D01*
X816333Y70000D02*
X817666D01*
X776668Y785501D02*
Y789499D01*
X778001Y788167D01*
X779333Y789499D01*
Y785501D01*
X780666Y789499D02*
X783332D01*
Y788833D01*
X780666Y786167D01*
Y785501D01*
X4168Y730501D02*
Y734499D01*
X5501Y733167D01*
X6834Y734499D01*
Y730501D01*
X10832Y734499D02*
X9499Y733833D01*
X8166Y732500D01*
Y731167D01*
X8833Y730501D01*
X10166D01*
X10832Y731167D01*
Y731834D01*
X10166Y732500D01*
X8166D01*
X66668Y3001D02*
Y6999D01*
X68001Y5666D01*
X69334Y6999D01*
Y3001D01*
X73332Y6999D02*
X70666D01*
Y5000D01*
X71999Y5666D01*
X72666D01*
X73332Y5000D01*
Y3667D01*
X72666Y3001D01*
X71333D01*
X70666Y3667D01*
X730168Y628851D02*
Y632849D01*
X731501Y631516D01*
X732834Y632849D01*
Y628851D01*
X736166D02*
Y632849D01*
X734166Y630850D01*
X736832D01*
X691668Y495501D02*
Y499499D01*
X693001Y498167D01*
X694334Y499499D01*
Y495501D01*
X695667Y498833D02*
X696333Y499499D01*
X697666D01*
X698332Y498833D01*
Y498167D01*
X697666Y497500D01*
X696999D01*
X697666D01*
X698332Y496834D01*
Y496167D01*
X697666Y495501D01*
X696333D01*
X695667Y496167D01*
X675499Y548218D02*
X671501D01*
X672833Y549551D01*
X671501Y550884D01*
X675499D01*
Y554882D02*
Y552216D01*
X672833Y554882D01*
X672167D01*
X671501Y554216D01*
Y552883D01*
X672167Y552216D01*
X731377Y375151D02*
Y379149D01*
X732710Y377817D01*
X734043Y379149D01*
Y375151D01*
X735376D02*
X736708D01*
X736042D01*
Y379149D01*
X735376Y378483D01*
X182627Y551999D02*
Y548001D01*
X185292D01*
X186625D02*
X187958D01*
X187292D01*
Y551999D01*
X186625Y551333D01*
X88334Y786999D02*
X87001D01*
X87667D01*
Y783667D01*
X87001Y783001D01*
X86334D01*
X85668Y783667D01*
X92332Y783001D02*
X89666D01*
X92332Y785667D01*
Y786333D01*
X91666Y786999D01*
X90333D01*
X89666Y786333D01*
X90000Y634499D02*
X88667D01*
X89334D01*
Y631167D01*
X88667Y630501D01*
X88001D01*
X87334Y631167D01*
X91333Y630501D02*
X92666D01*
X91999D01*
Y634499D01*
X91333Y633833D01*
X238501Y410502D02*
Y411834D01*
Y411168D01*
X242499D01*
Y410502D01*
Y411834D01*
X239167Y416500D02*
X238501Y415833D01*
Y414500D01*
X239167Y413834D01*
X241833D01*
X242499Y414500D01*
Y415833D01*
X241833Y416500D01*
X238501Y420498D02*
Y417833D01*
X240500D01*
X239834Y419165D01*
Y419832D01*
X240500Y420498D01*
X241833D01*
X242499Y419832D01*
Y418499D01*
X241833Y417833D01*
X35002Y584499D02*
X36335D01*
X35668D01*
Y580501D01*
X35002D01*
X36335D01*
X41000Y583833D02*
X40333Y584499D01*
X39000D01*
X38334Y583833D01*
Y581167D01*
X39000Y580501D01*
X40333D01*
X41000Y581167D01*
X44332Y580501D02*
Y584499D01*
X42333Y582500D01*
X44998D01*
X397502Y374499D02*
X398834D01*
X398168D01*
Y370501D01*
X397502D01*
X398834D01*
X403500Y373833D02*
X402833Y374499D01*
X401500D01*
X400834Y373833D01*
Y371167D01*
X401500Y370501D01*
X402833D01*
X403500Y371167D01*
X404833Y373833D02*
X405499Y374499D01*
X406832D01*
X407498Y373833D01*
Y373167D01*
X406832Y372500D01*
X406166D01*
X406832D01*
X407498Y371833D01*
Y371167D01*
X406832Y370501D01*
X405499D01*
X404833Y371167D01*
X530002Y579499D02*
X531334D01*
X530668D01*
Y575501D01*
X530002D01*
X531334D01*
X536000Y578833D02*
X535333Y579499D01*
X534000D01*
X533334Y578833D01*
Y576167D01*
X534000Y575501D01*
X535333D01*
X536000Y576167D01*
X539998Y575501D02*
X537333D01*
X539998Y578167D01*
Y578833D01*
X539332Y579499D01*
X537999D01*
X537333Y578833D01*
X530668Y409499D02*
X532001D01*
X531334D01*
Y405501D01*
X530668D01*
X532001D01*
X536666Y408833D02*
X536000Y409499D01*
X534667D01*
X534000Y408833D01*
Y406167D01*
X534667Y405501D01*
X536000D01*
X536666Y406167D01*
X537999Y405501D02*
X539332D01*
X538666D01*
Y409499D01*
X537999Y408833D01*
X311668Y591999D02*
Y588001D01*
X313667D01*
X314334Y588667D01*
Y591333D01*
X313667Y591999D01*
X311668D01*
X315667Y588667D02*
X316333Y588001D01*
X317666D01*
X318332Y588667D01*
Y591333D01*
X317666Y591999D01*
X316333D01*
X315667Y591333D01*
Y590667D01*
X316333Y590000D01*
X318332D01*
X51668Y639499D02*
Y635501D01*
X53667D01*
X54334Y636167D01*
Y638833D01*
X53667Y639499D01*
X51668D01*
X55666Y638833D02*
X56333Y639499D01*
X57666D01*
X58332Y638833D01*
Y638167D01*
X57666Y637500D01*
X58332Y636833D01*
Y636167D01*
X57666Y635501D01*
X56333D01*
X55666Y636167D01*
Y636833D01*
X56333Y637500D01*
X55666Y638167D01*
Y638833D01*
X56333Y637500D02*
X57666D01*
X296668Y444499D02*
Y440501D01*
X298667D01*
X299334Y441167D01*
Y443833D01*
X298667Y444499D01*
X296668D01*
X300667D02*
X303332D01*
Y443833D01*
X300667Y441167D01*
Y440501D01*
X586668Y621999D02*
Y618001D01*
X588667D01*
X589333Y618667D01*
Y621333D01*
X588667Y621999D01*
X586668D01*
X593332D02*
X591999Y621333D01*
X590666Y620000D01*
Y618667D01*
X591333Y618001D01*
X592666D01*
X593332Y618667D01*
Y619334D01*
X592666Y620000D01*
X590666D01*
X588001Y446668D02*
X591999D01*
Y448667D01*
X591333Y449333D01*
X588667D01*
X588001Y448667D01*
Y446668D01*
Y453332D02*
Y450666D01*
X590000D01*
X589333Y451999D01*
Y452666D01*
X590000Y453332D01*
X591333D01*
X591999Y452666D01*
Y451333D01*
X591333Y450666D01*
X526668Y616999D02*
Y613001D01*
X528667D01*
X529334Y613667D01*
Y616333D01*
X528667Y616999D01*
X526668D01*
X532666Y613001D02*
Y616999D01*
X530667Y615000D01*
X533332D01*
X505462Y472153D02*
Y468154D01*
X507461D01*
X508128Y468820D01*
Y471486D01*
X507461Y472153D01*
X505462D01*
X509461Y471486D02*
X510127Y472153D01*
X511460D01*
X512127Y471486D01*
Y470820D01*
X511460Y470153D01*
X510794D01*
X511460D01*
X512127Y469487D01*
Y468820D01*
X511460Y468154D01*
X510127D01*
X509461Y468820D01*
X588001Y529168D02*
X591999D01*
Y531167D01*
X591333Y531834D01*
X588667D01*
X588001Y531167D01*
Y529168D01*
X591999Y535832D02*
Y533166D01*
X589333Y535832D01*
X588667D01*
X588001Y535166D01*
Y533833D01*
X588667Y533166D01*
X588001Y362334D02*
X591999D01*
Y364334D01*
X591333Y365000D01*
X588667D01*
X588001Y364334D01*
Y362334D01*
X591999Y366333D02*
Y367666D01*
Y366999D01*
X588001D01*
X588667Y366333D01*
X85726Y281494D02*
X85059Y282161D01*
X83727D01*
X83060Y281494D01*
Y278828D01*
X83727Y278162D01*
X85059D01*
X85726Y278828D01*
X87059Y282161D02*
Y278162D01*
Y280161D01*
X89725D01*
Y282161D01*
Y278162D01*
X91057D02*
X92390D01*
X91724D01*
Y282161D01*
X91057Y281494D01*
X267334Y578833D02*
X266668Y579499D01*
X265335D01*
X264668Y578833D01*
Y576167D01*
X265335Y575501D01*
X266668D01*
X267334Y576167D01*
X268667Y578833D02*
X269333Y579499D01*
X270667D01*
X271333Y578833D01*
Y578167D01*
X270667Y577500D01*
X270000D01*
X270667D01*
X271333Y576833D01*
Y576167D01*
X270667Y575501D01*
X269333D01*
X268667Y576167D01*
X272666Y579499D02*
X275332D01*
Y578833D01*
X272666Y576167D01*
Y575501D01*
X166334Y455333D02*
X165668Y455999D01*
X164335D01*
X163668Y455333D01*
Y452667D01*
X164335Y452001D01*
X165668D01*
X166334Y452667D01*
X167667Y455333D02*
X168333Y455999D01*
X169667D01*
X170333Y455333D01*
Y454666D01*
X169667Y454000D01*
X169000D01*
X169667D01*
X170333Y453334D01*
Y452667D01*
X169667Y452001D01*
X168333D01*
X167667Y452667D01*
X174332Y455999D02*
X172999Y455333D01*
X171666Y454000D01*
Y452667D01*
X172332Y452001D01*
X173665D01*
X174332Y452667D01*
Y453334D01*
X173665Y454000D01*
X171666D01*
X254834Y401333D02*
X254168Y401999D01*
X252835D01*
X252168Y401333D01*
Y398667D01*
X252835Y398001D01*
X254168D01*
X254834Y398667D01*
X256167Y401333D02*
X256833Y401999D01*
X258167D01*
X258833Y401333D01*
Y400667D01*
X258167Y400000D01*
X257500D01*
X258167D01*
X258833Y399333D01*
Y398667D01*
X258167Y398001D01*
X256833D01*
X256167Y398667D01*
X262165Y398001D02*
Y401999D01*
X260166Y400000D01*
X262832D01*
X254834Y383833D02*
X254168Y384499D01*
X252835D01*
X252168Y383833D01*
Y381167D01*
X252835Y380501D01*
X254168D01*
X254834Y381167D01*
X256167Y383833D02*
X256833Y384499D01*
X258167D01*
X258833Y383833D01*
Y383167D01*
X258167Y382500D01*
X257500D01*
X258167D01*
X258833Y381834D01*
Y381167D01*
X258167Y380501D01*
X256833D01*
X256167Y381167D01*
X260166Y383833D02*
X260832Y384499D01*
X262165D01*
X262832Y383833D01*
Y383167D01*
X262165Y382500D01*
X261499D01*
X262165D01*
X262832Y381834D01*
Y381167D01*
X262165Y380501D01*
X260832D01*
X260166Y381167D01*
X151334Y745333D02*
X150668Y745999D01*
X149335D01*
X148668Y745333D01*
Y742667D01*
X149335Y742001D01*
X150668D01*
X151334Y742667D01*
X152667Y745333D02*
X153334Y745999D01*
X154667D01*
X155333Y745333D01*
Y744667D01*
X154667Y744000D01*
X154000D01*
X154667D01*
X155333Y743334D01*
Y742667D01*
X154667Y742001D01*
X153334D01*
X152667Y742667D01*
X159332Y742001D02*
X156666D01*
X159332Y744667D01*
Y745333D01*
X158665Y745999D01*
X157332D01*
X156666Y745333D01*
X394001Y413333D02*
X393334Y413999D01*
X392001D01*
X391335Y413333D01*
Y410667D01*
X392001Y410001D01*
X393334D01*
X394001Y410667D01*
X395334Y413333D02*
X396000Y413999D01*
X397333D01*
X397999Y413333D01*
Y412667D01*
X397333Y412000D01*
X396666D01*
X397333D01*
X397999Y411334D01*
Y410667D01*
X397333Y410001D01*
X396000D01*
X395334Y410667D01*
X399332Y410001D02*
X400665D01*
X399999D01*
Y413999D01*
X399332Y413333D01*
X3667Y658334D02*
X3001Y657668D01*
Y656335D01*
X3667Y655668D01*
X6333D01*
X6999Y656335D01*
Y657668D01*
X6333Y658334D01*
X3667Y659667D02*
X3001Y660334D01*
Y661666D01*
X3667Y662333D01*
X4333D01*
X5000Y661666D01*
Y661000D01*
Y661666D01*
X5666Y662333D01*
X6333D01*
X6999Y661666D01*
Y660334D01*
X6333Y659667D01*
X3667Y663666D02*
X3001Y664332D01*
Y665665D01*
X3667Y666332D01*
X6333D01*
X6999Y665665D01*
Y664332D01*
X6333Y663666D01*
X3667D01*
X88334Y516333D02*
X87668Y516999D01*
X86335D01*
X85668Y516333D01*
Y513667D01*
X86335Y513001D01*
X87668D01*
X88334Y513667D01*
X92333Y513001D02*
X89667D01*
X92333Y515667D01*
Y516333D01*
X91666Y516999D01*
X90334D01*
X89667Y516333D01*
X93666Y513667D02*
X94332Y513001D01*
X95665D01*
X96332Y513667D01*
Y516333D01*
X95665Y516999D01*
X94332D01*
X93666Y516333D01*
Y515667D01*
X94332Y515000D01*
X96332D01*
X79884Y606360D02*
X79217Y607027D01*
X77884D01*
X77218Y606360D01*
Y603694D01*
X77884Y603028D01*
X79217D01*
X79884Y603694D01*
X83883Y603028D02*
X81217D01*
X83883Y605694D01*
Y606360D01*
X83216Y607027D01*
X81883D01*
X81217Y606360D01*
X85215D02*
X85882Y607027D01*
X87215D01*
X87881Y606360D01*
Y605694D01*
X87215Y605027D01*
X87881Y604361D01*
Y603694D01*
X87215Y603028D01*
X85882D01*
X85215Y603694D01*
Y604361D01*
X85882Y605027D01*
X85215Y605694D01*
Y606360D01*
X85882Y605027D02*
X87215D01*
X302334Y666333D02*
X301668Y666999D01*
X300335D01*
X299668Y666333D01*
Y663667D01*
X300335Y663001D01*
X301668D01*
X302334Y663667D01*
X306333Y663001D02*
X303667D01*
X306333Y665667D01*
Y666333D01*
X305667Y666999D01*
X304334D01*
X303667Y666333D01*
X307666Y666999D02*
X310332D01*
Y666333D01*
X307666Y663667D01*
Y663001D01*
X354712Y457262D02*
X354045Y457929D01*
X352713D01*
X352046Y457262D01*
Y454596D01*
X352713Y453930D01*
X354045D01*
X354712Y454596D01*
X358711Y453930D02*
X356045D01*
X358711Y456596D01*
Y457262D01*
X358044Y457929D01*
X356711D01*
X356045Y457262D01*
X362709Y457929D02*
X361376Y457262D01*
X360043Y455929D01*
Y454596D01*
X360710Y453930D01*
X362043D01*
X362709Y454596D01*
Y455263D01*
X362043Y455929D01*
X360043D01*
X495174Y749362D02*
X494507Y750029D01*
X493175D01*
X492508Y749362D01*
Y746696D01*
X493175Y746030D01*
X494507D01*
X495174Y746696D01*
X499173Y746030D02*
X496507D01*
X499173Y748696D01*
Y749362D01*
X498506Y750029D01*
X497173D01*
X496507Y749362D01*
X503171Y750029D02*
X500505D01*
Y748029D01*
X501838Y748696D01*
X502505D01*
X503171Y748029D01*
Y746696D01*
X502505Y746030D01*
X501172D01*
X500505Y746696D01*
X434834Y721333D02*
X434168Y721999D01*
X432835D01*
X432168Y721333D01*
Y718667D01*
X432835Y718001D01*
X434168D01*
X434834Y718667D01*
X438833Y718001D02*
X436167D01*
X438833Y720667D01*
Y721333D01*
X438167Y721999D01*
X436833D01*
X436167Y721333D01*
X442165Y718001D02*
Y721999D01*
X440166Y720000D01*
X442832D01*
X418834Y791333D02*
X418168Y791999D01*
X416835D01*
X416168Y791333D01*
Y788667D01*
X416835Y788001D01*
X418168D01*
X418834Y788667D01*
X422833Y788001D02*
X420167D01*
X422833Y790667D01*
Y791333D01*
X422166Y791999D01*
X420834D01*
X420167Y791333D01*
X424166D02*
X424832Y791999D01*
X426165D01*
X426832Y791333D01*
Y790667D01*
X426165Y790000D01*
X425499D01*
X426165D01*
X426832Y789334D01*
Y788667D01*
X426165Y788001D01*
X424832D01*
X424166Y788667D01*
X448001Y376333D02*
X447334Y376999D01*
X446001D01*
X445335Y376333D01*
Y373667D01*
X446001Y373001D01*
X447334D01*
X448001Y373667D01*
X451999Y373001D02*
X449333D01*
X451999Y375667D01*
Y376333D01*
X451333Y376999D01*
X450000D01*
X449333Y376333D01*
X453332Y373001D02*
X454665D01*
X453999D01*
Y376999D01*
X453332Y376333D01*
X374834Y322040D02*
X374168Y322707D01*
X372835D01*
X372168Y322040D01*
Y319375D01*
X372835Y318708D01*
X374168D01*
X374834Y319375D01*
X378833Y318708D02*
X376167D01*
X378833Y321374D01*
Y322040D01*
X378167Y322707D01*
X376833D01*
X376167Y322040D01*
X380166D02*
X380832Y322707D01*
X382165D01*
X382832Y322040D01*
Y319375D01*
X382165Y318708D01*
X380832D01*
X380166Y319375D01*
Y322040D01*
X461900Y338390D02*
X461233Y339057D01*
X459901D01*
X459234Y338390D01*
Y335724D01*
X459901Y335058D01*
X461233D01*
X461900Y335724D01*
X463233Y335058D02*
X464566D01*
X463899D01*
Y339057D01*
X463233Y338390D01*
X466565Y335724D02*
X467231Y335058D01*
X468564D01*
X469231Y335724D01*
Y338390D01*
X468564Y339057D01*
X467231D01*
X466565Y338390D01*
Y337724D01*
X467231Y337057D01*
X469231D01*
X808667Y723333D02*
X808001Y723999D01*
X806668D01*
X806002Y723333D01*
Y720667D01*
X806668Y720001D01*
X808001D01*
X808667Y720667D01*
X810000Y720001D02*
X811333D01*
X810667D01*
Y723999D01*
X810000Y723333D01*
X813333D02*
X813999Y723999D01*
X815332D01*
X815998Y723333D01*
Y722666D01*
X815332Y722000D01*
X815998Y721334D01*
Y720667D01*
X815332Y720001D01*
X813999D01*
X813333Y720667D01*
Y721334D01*
X813999Y722000D01*
X813333Y722666D01*
Y723333D01*
X813999Y722000D02*
X815332D01*
X809667Y681666D02*
X809001Y682333D01*
X807668D01*
X807002Y681666D01*
Y679000D01*
X807668Y678334D01*
X809001D01*
X809667Y679000D01*
X811000Y678334D02*
X812333D01*
X811667D01*
Y682333D01*
X811000Y681666D01*
X814333Y682333D02*
X816998D01*
Y681666D01*
X814333Y679000D01*
Y678334D01*
X809667Y643000D02*
X809001Y643666D01*
X807668D01*
X807002Y643000D01*
Y640334D01*
X807668Y639667D01*
X809001D01*
X809667Y640334D01*
X811000Y639667D02*
X812333D01*
X811667D01*
Y643666D01*
X811000Y643000D01*
X816998Y643666D02*
X815666Y643000D01*
X814333Y641667D01*
Y640334D01*
X814999Y639667D01*
X816332D01*
X816998Y640334D01*
Y641000D01*
X816332Y641667D01*
X814333D01*
X481204Y456500D02*
X480537Y457167D01*
X479204D01*
X478538Y456500D01*
Y453834D01*
X479204Y453168D01*
X480537D01*
X481204Y453834D01*
X482537Y453168D02*
X483870D01*
X483203D01*
Y457167D01*
X482537Y456500D01*
X488535Y457167D02*
X485869D01*
Y455167D01*
X487202Y455834D01*
X487868D01*
X488535Y455167D01*
Y453834D01*
X487868Y453168D01*
X486535D01*
X485869Y453834D01*
X482667Y628833D02*
X482001Y629499D01*
X480668D01*
X480002Y628833D01*
Y626167D01*
X480668Y625501D01*
X482001D01*
X482667Y626167D01*
X484000Y625501D02*
X485333D01*
X484667D01*
Y629499D01*
X484000Y628833D01*
X489332Y625501D02*
Y629499D01*
X487333Y627500D01*
X489998D01*
X617667Y578833D02*
X617001Y579499D01*
X615668D01*
X615002Y578833D01*
Y576167D01*
X615668Y575501D01*
X617001D01*
X617667Y576167D01*
X619000Y575501D02*
X620333D01*
X619667D01*
Y579499D01*
X619000Y578833D01*
X622333D02*
X622999Y579499D01*
X624332D01*
X624998Y578833D01*
Y578167D01*
X624332Y577500D01*
X623666D01*
X624332D01*
X624998Y576833D01*
Y576167D01*
X624332Y575501D01*
X622999D01*
X622333Y576167D01*
X597667Y408833D02*
X597001Y409499D01*
X595668D01*
X595002Y408833D01*
Y406167D01*
X595668Y405501D01*
X597001D01*
X597667Y406167D01*
X599000Y405501D02*
X600333D01*
X599667D01*
Y409499D01*
X599000Y408833D01*
X604998Y405501D02*
X602333D01*
X604998Y408167D01*
Y408833D01*
X604332Y409499D01*
X602999D01*
X602333Y408833D01*
X810334Y604333D02*
X809667Y604999D01*
X808335D01*
X807668Y604333D01*
Y601667D01*
X808335Y601001D01*
X809667D01*
X810334Y601667D01*
X811667Y601001D02*
X813000D01*
X812333D01*
Y604999D01*
X811667Y604333D01*
X814999Y601001D02*
X816332D01*
X815666D01*
Y604999D01*
X814999Y604333D01*
X427667Y11333D02*
X427001Y11999D01*
X425668D01*
X425002Y11333D01*
Y8667D01*
X425668Y8001D01*
X427001D01*
X427667Y8667D01*
X429000Y8001D02*
X430333D01*
X429667D01*
Y11999D01*
X429000Y11333D01*
X432333D02*
X432999Y11999D01*
X434332D01*
X434998Y11333D01*
Y8667D01*
X434332Y8001D01*
X432999D01*
X432333Y8667D01*
Y11333D01*
X333376Y119696D02*
X332709Y120363D01*
X331376D01*
X330710Y119696D01*
Y117030D01*
X331376Y116364D01*
X332709D01*
X333376Y117030D01*
X334709D02*
X335375Y116364D01*
X336708D01*
X337374Y117030D01*
Y119696D01*
X336708Y120363D01*
X335375D01*
X334709Y119696D01*
Y119030D01*
X335375Y118363D01*
X337374D01*
X9334Y263833D02*
X8667Y264499D01*
X7334D01*
X6668Y263833D01*
Y261167D01*
X7334Y260501D01*
X8667D01*
X9334Y261167D01*
X10667Y263833D02*
X11333Y264499D01*
X12666D01*
X13332Y263833D01*
Y263167D01*
X12666Y262500D01*
X13332Y261834D01*
Y261167D01*
X12666Y260501D01*
X11333D01*
X10667Y261167D01*
Y261834D01*
X11333Y262500D01*
X10667Y263167D01*
Y263833D01*
X11333Y262500D02*
X12666D01*
X839334Y305833D02*
X838667Y306499D01*
X837334D01*
X836668Y305833D01*
Y303167D01*
X837334Y302501D01*
X838667D01*
X839334Y303167D01*
X840666Y306499D02*
X843332D01*
Y305833D01*
X840666Y303167D01*
Y302501D01*
X779333Y121333D02*
X778667Y121999D01*
X777334D01*
X776668Y121333D01*
Y118667D01*
X777334Y118001D01*
X778667D01*
X779333Y118667D01*
X783332Y121999D02*
X781999Y121333D01*
X780666Y120000D01*
Y118667D01*
X781333Y118001D01*
X782666D01*
X783332Y118667D01*
Y119333D01*
X782666Y120000D01*
X780666D01*
X536833Y306333D02*
X536167Y306999D01*
X534834D01*
X534168Y306333D01*
Y303667D01*
X534834Y303001D01*
X536167D01*
X536833Y303667D01*
X540832Y306999D02*
X538166D01*
Y305000D01*
X539499Y305667D01*
X540166D01*
X540832Y305000D01*
Y303667D01*
X540166Y303001D01*
X538833D01*
X538166Y303667D01*
X596834Y13833D02*
X596167Y14499D01*
X594834D01*
X594168Y13833D01*
Y11167D01*
X594834Y10501D01*
X596167D01*
X596834Y11167D01*
X600166Y10501D02*
Y14499D01*
X598166Y12500D01*
X600832D01*
X725334Y762333D02*
X724667Y762999D01*
X723334D01*
X722668Y762333D01*
Y759667D01*
X723334Y759001D01*
X724667D01*
X725334Y759667D01*
X726666Y762333D02*
X727333Y762999D01*
X728666D01*
X729332Y762333D01*
Y761666D01*
X728666Y761000D01*
X727999D01*
X728666D01*
X729332Y760334D01*
Y759667D01*
X728666Y759001D01*
X727333D01*
X726666Y759667D01*
X781432Y401382D02*
X780765Y402049D01*
X779433D01*
X778766Y401382D01*
Y398716D01*
X779433Y398050D01*
X780765D01*
X781432Y398716D01*
X785431Y398050D02*
X782765D01*
X785431Y400716D01*
Y401382D01*
X784764Y402049D01*
X783431D01*
X782765Y401382D01*
X592500Y791333D02*
X591834Y791999D01*
X590501D01*
X589834Y791333D01*
Y788667D01*
X590501Y788001D01*
X591834D01*
X592500Y788667D01*
X593833Y788001D02*
X595166D01*
X594499D01*
Y791999D01*
X593833Y791333D01*
D13*
X118500Y457100D02*
Y477500D01*
Y385100D02*
Y414900D01*
Y322500D02*
Y342900D01*
X-53500Y322500D02*
X118500D01*
X-53500D02*
Y477500D01*
X118500D01*
X731500Y422500D02*
Y442900D01*
Y485100D02*
Y514900D01*
Y557100D02*
Y577500D01*
X903500D01*
Y422500D02*
Y577500D01*
X731500Y422500D02*
X903500D01*
M02*
