M48
;Layer_Color=9474304
;FILE_FORMAT=4:4
METRIC,LZ
;TYPE=PLATED
T1F00S00C0.3000
T2F00S00C0.3500
T3F00S00C0.5000
T4F00S00C0.8000
T5F00S00C0.9000
T6F00S00C1.1000
T7F00S00C1.2500
T8F00S00C1.3000
T9F00S00C1.6000
;TYPE=NON_PLATED
T10F00S00C3.2000
%
T01
X0072Y002825
X007325
X007425
X00765Y003025
X007425Y003325
X007325
X0072
X0081Y003575
X007075Y003325
X00682Y00328
Y00319
X00673
Y00328
X00664
Y00319
Y0031
X00655
Y00319
Y00328
Y00301
Y00292
X00664
Y00301
X00673
Y00292
X00682
Y00301
Y0031
X00673
Y00362
X00682
Y00371
X00673
X00664
Y00362
X00655
Y00371
Y0038
X00664
X00673
X00682
Y00389
X00673
Y00398
X00682
X00664
Y00389
X00655
Y00398
X0064Y004275
X0063
X006025
X005625Y0037
X0057Y003425
X00555Y003375
X005175Y003675
X00502515Y00367197
X0048Y00385
X00466012Y003575
X00495Y0033
Y00315
X005025Y00301063
X00425Y0033
X0037275Y0032975
X0039Y00385
X0042723Y0041527
X00425Y004625
X004025Y00465
X006225Y003475
X006725Y002475
Y00235
Y002225
X0071Y002825
X003075Y002775
X00295
X0028
X00265
X0025
X003075Y00295
Y0031
X00220767Y00375
Y00387
Y00399
Y00411
X00208768
X00196768
X00184767
X00172768
X00160767
X00148767
Y00399
Y00387
X00160767
Y00399
X00172768
Y00387
X00184767
Y00399
X00196768
Y00387
X00208768
Y00399
Y00375
X00196768
X00184767
X00172768
X00160767
X00148767
X00145Y00505
X0016
X001775
X00195
X002125
X0023
X00245
X002275Y0064
X00215
X0021Y006675
X002Y006775
X0019Y006675
Y0069
X0021
X002325
X002225Y006775
X002325Y006675
X002225Y00705
X002325Y007175
X0021
X0019
X002Y00705
X001725Y007525
X00129581Y00739278
X00095Y007225
X000175Y006575
X0026Y006475
X00305Y007
Y0071
Y0072
Y007325
Y007437
Y007575
X002925Y0076
X002775
X0026
X003225Y0074997
X003475Y007575
X00395
X003775Y007
X003375
X0033Y006675
X003375Y006325
Y006025
X0043Y00625
X00495Y0062
X00507499Y00617499
X0048Y006
X004775Y005875
X0047Y0054
X005025Y005375
X0043Y005175
X004375Y005075
X00545Y005925
X005625Y005875
X00615Y00595
X00655Y00588
Y00579
Y0057
X00664
Y00561
Y00552
X00655
Y00561
X00673
Y00552
X00682
Y00561
Y0057
X00673
Y00579
X00682
Y00588
X00673
X00664
Y00579
Y00622
Y00631
X00673
Y00622
X00682
Y00631
Y0064
X00673
X00664
X00655
Y00649
Y00658
X00664
Y00649
X00673
X00682
Y00658
X00673
X00655Y00631
Y00622
X006975Y006
X007025Y00585
Y0057
Y00555
X007Y0054
X00685Y005375
X0067
X00655
X0066Y007225
X00675
X006925
Y00755
X0066
X00595Y00715
X00545
Y006975
X005275Y0069
X00505Y007225
X00475Y00665
X00395Y006675
X00545Y0065
X00725Y0077
X008125Y007325
T02
X006275Y003725
X0063Y004125
X0064
X006225Y006375
Y006525
X006275Y00675
X0064Y00669433
T03
X001675Y005925
X00305Y00595
X00334598Y00502098
X005Y0052
T04
X00418Y0003
X0054Y00045
X0068
X0075Y0017
Y0022
X00635Y002
X00585
X0054Y00095
X00418Y0008
X0068Y00095
T05
X00627661Y00743785
X00677661
T06
X0032Y0002
Y0017
X0004Y00239042
Y00089043
T07
X000766Y0056
X00102
X001274
X001528
X001782
X002036
X00229
X002544
X002798
X003052
Y00788
X002798
X002544
X00229
X002036
X001782
X001528
X001274
X00102
X000766
X003306
X00356
X003814
X004068
X004322
X004576
X00483
Y0056
X004576
X004322
X004068
X003814
X00356
X003306
T08
X00116Y0009
Y0019
X00236
Y0009
T09
X00723043Y004446
X001025Y004054
Y003546
X00723043Y004954
T10
X0003Y0003
X00785
X0003Y0077
X00785
M30
