G04*
G04 #@! TF.GenerationSoftware,Altium Limited,Altium Designer,21.6.4 (81)*
G04*
G04 Layer_Color=16711935*
%FSLAX44Y44*%
%MOMM*%
G71*
G04*
G04 #@! TF.SameCoordinates,6345E517-F44B-4F0B-96C8-749CB5923BEE*
G04*
G04*
G04 #@! TF.FilePolarity,Negative*
G04*
G01*
G75*
%ADD75C,1.8532*%
G04:AMPARAMS|DCode=76|XSize=1.8532mm|YSize=1.8532mm|CornerRadius=0.5141mm|HoleSize=0mm|Usage=FLASHONLY|Rotation=0.000|XOffset=0mm|YOffset=0mm|HoleType=Round|Shape=RoundedRectangle|*
%AMROUNDEDRECTD76*
21,1,1.8532,0.8250,0,0,0.0*
21,1,0.8250,1.8532,0,0,0.0*
1,1,1.0282,0.4125,-0.4125*
1,1,1.0282,-0.4125,-0.4125*
1,1,1.0282,-0.4125,0.4125*
1,1,1.0282,0.4125,0.4125*
%
%ADD76ROUNDEDRECTD76*%
%ADD77C,0.2000*%
%ADD78C,3.9192*%
%ADD79O,2.8032X1.5032*%
%ADD80R,1.4032X1.4032*%
%ADD81C,1.4032*%
%ADD82C,1.7232*%
%ADD83R,1.7232X1.7232*%
%ADD84C,1.8032*%
%ADD85R,1.8032X1.8032*%
G04:AMPARAMS|DCode=86|XSize=1.8532mm|YSize=1.8532mm|CornerRadius=0.5141mm|HoleSize=0mm|Usage=FLASHONLY|Rotation=90.000|XOffset=0mm|YOffset=0mm|HoleType=Round|Shape=RoundedRectangle|*
%AMROUNDEDRECTD86*
21,1,1.8532,0.8250,0,0,90.0*
21,1,0.8250,1.8532,0,0,90.0*
1,1,1.0282,0.4125,0.4125*
1,1,1.0282,0.4125,-0.4125*
1,1,1.0282,-0.4125,-0.4125*
1,1,1.0282,-0.4125,0.4125*
%
%ADD86ROUNDEDRECTD86*%
%ADD87R,1.4032X1.4032*%
%ADD88C,0.7016*%
%ADD89C,1.1016*%
%ADD90C,0.7000*%
%ADD91C,0.8032*%
%ADD125R,1.2032X1.2032*%
%ADD126R,1.2032X1.2032*%
D75*
X42500Y230000D02*
D03*
Y80000D02*
D03*
X562500Y232000D02*
D03*
X523000Y42500D02*
D03*
X732500Y80000D02*
D03*
X770000Y269500D02*
D03*
X380000Y280000D02*
D03*
Y130000D02*
D03*
D76*
X637500Y232000D02*
D03*
X657500Y80000D02*
D03*
D77*
X820000Y770000D02*
D03*
X30000Y30000D02*
D03*
Y770000D02*
D03*
X820000Y30000D02*
D03*
D78*
X100000Y436000D02*
D03*
Y364000D02*
D03*
X750000Y464000D02*
D03*
Y536000D02*
D03*
D79*
X40000Y467500D02*
D03*
Y332500D02*
D03*
X810000Y432500D02*
D03*
Y567500D02*
D03*
D80*
X280000Y340000D02*
D03*
X665707Y745000D02*
D03*
D81*
X330000Y340000D02*
D03*
X615708Y745000D02*
D03*
X385000Y30000D02*
D03*
D82*
X268100Y632600D02*
D03*
X166500D02*
D03*
X141100D02*
D03*
X191900D02*
D03*
X217300D02*
D03*
X242700D02*
D03*
X293500D02*
D03*
X318900D02*
D03*
X344300D02*
D03*
X268100Y785000D02*
D03*
X166500D02*
D03*
X141100D02*
D03*
X191900D02*
D03*
X217300D02*
D03*
X242700D02*
D03*
X293500D02*
D03*
X318900D02*
D03*
X344300D02*
D03*
D83*
X115700Y632600D02*
D03*
Y785000D02*
D03*
D84*
X449800Y673508D02*
D03*
D85*
X475200D02*
D03*
D86*
X523000Y117500D02*
D03*
X770000Y194500D02*
D03*
D87*
X385000Y80000D02*
D03*
D88*
X639000Y321000D02*
D03*
X566000Y320000D02*
D03*
X614000Y497000D02*
D03*
X534000Y495000D02*
D03*
X746000Y774000D02*
D03*
X833000Y354000D02*
D03*
X227000Y84000D02*
D03*
Y209000D02*
D03*
X182000Y538000D02*
D03*
X423000Y528000D02*
D03*
X547000Y721000D02*
D03*
X269000Y714000D02*
D03*
X72000Y719000D02*
D03*
X370000Y456000D02*
D03*
X680000Y679000D02*
D03*
X193000Y465000D02*
D03*
X176000Y745000D02*
D03*
X815000Y382000D02*
D03*
X254000Y551000D02*
D03*
X667000Y673000D02*
D03*
X649000D02*
D03*
X669000Y504000D02*
D03*
X653000D02*
D03*
X768000Y370000D02*
D03*
X750000D02*
D03*
X730000D02*
D03*
X768000Y388000D02*
D03*
X750000D02*
D03*
X730000D02*
D03*
X768000Y403000D02*
D03*
X750000D02*
D03*
X730000D02*
D03*
X294000Y13000D02*
D03*
X272000D02*
D03*
X294000Y29000D02*
D03*
X272000D02*
D03*
X294000Y45000D02*
D03*
X272000D02*
D03*
X294000Y61000D02*
D03*
X272000D02*
D03*
X294000Y75000D02*
D03*
X272000D02*
D03*
X409000Y341000D02*
D03*
X145000Y14000D02*
D03*
X127000D02*
D03*
X145000Y29000D02*
D03*
X127000D02*
D03*
X145000Y44000D02*
D03*
X127000D02*
D03*
X145000Y58000D02*
D03*
X127000Y59000D02*
D03*
X145000Y74000D02*
D03*
X127000D02*
D03*
X342000Y402000D02*
D03*
X280000Y477000D02*
D03*
X707000Y771000D02*
D03*
X514000Y546000D02*
D03*
Y373000D02*
D03*
X471000Y426000D02*
D03*
X466600Y599400D02*
D03*
X488000Y746000D02*
D03*
X391750Y769500D02*
D03*
X188000Y688000D02*
D03*
X182000Y661000D02*
D03*
X390250Y445000D02*
D03*
X450000Y365000D02*
D03*
X60000Y504000D02*
D03*
X39000D02*
D03*
X18000D02*
D03*
X69000Y519000D02*
D03*
X48000D02*
D03*
X27000D02*
D03*
X9000Y520000D02*
D03*
X59000Y538000D02*
D03*
X38000D02*
D03*
X18000Y539000D02*
D03*
X68000Y554000D02*
D03*
X48000D02*
D03*
X27000D02*
D03*
X10000D02*
D03*
X108000Y591000D02*
D03*
X251500Y498500D02*
D03*
X163000Y325000D02*
D03*
X171000Y306000D02*
D03*
X155000D02*
D03*
Y342000D02*
D03*
X147000Y360000D02*
D03*
Y325000D02*
D03*
Y288000D02*
D03*
X234000D02*
D03*
X219000D02*
D03*
X205000D02*
D03*
X191000D02*
D03*
X177000D02*
D03*
X164000D02*
D03*
X228000Y306000D02*
D03*
X213000D02*
D03*
X199000D02*
D03*
X185000D02*
D03*
X234000Y325000D02*
D03*
X219000D02*
D03*
X205000D02*
D03*
X191000D02*
D03*
X177000D02*
D03*
X227000Y342000D02*
D03*
X212565D02*
D03*
X198000D02*
D03*
X184000D02*
D03*
X170000D02*
D03*
X234000Y360000D02*
D03*
X219000D02*
D03*
X205000D02*
D03*
X191000D02*
D03*
X177000D02*
D03*
X163000D02*
D03*
X408000Y409000D02*
D03*
X471000Y440000D02*
D03*
X455000Y397000D02*
D03*
X470000Y614000D02*
D03*
X454000Y572000D02*
D03*
X383000Y631660D02*
D03*
X394000Y650000D02*
D03*
X371000Y670000D02*
D03*
X386000Y404000D02*
D03*
X36904Y595166D02*
D03*
X467500Y782500D02*
D03*
X435000Y727500D02*
D03*
X567000Y541000D02*
D03*
X546000Y560000D02*
D03*
X527500Y585000D02*
D03*
X570000Y634000D02*
D03*
X525000Y410000D02*
D03*
X570000Y362500D02*
D03*
Y465000D02*
D03*
X546000Y387000D02*
D03*
X682000Y627000D02*
D03*
Y609000D02*
D03*
X691000D02*
D03*
X700000D02*
D03*
X709000D02*
D03*
Y618000D02*
D03*
X700000D02*
D03*
X691000D02*
D03*
Y627000D02*
D03*
X700000D02*
D03*
X709000D02*
D03*
Y636000D02*
D03*
X700000D02*
D03*
X691000D02*
D03*
Y645000D02*
D03*
X700000D02*
D03*
X709000D02*
D03*
X682000Y618000D02*
D03*
Y550000D02*
D03*
Y532000D02*
D03*
X691000D02*
D03*
X700000D02*
D03*
X709000D02*
D03*
Y541000D02*
D03*
X700000D02*
D03*
X691000D02*
D03*
Y550000D02*
D03*
X700000D02*
D03*
X709000D02*
D03*
Y559000D02*
D03*
X700000D02*
D03*
X691000D02*
D03*
Y568000D02*
D03*
X700000D02*
D03*
X709000D02*
D03*
X682000Y541000D02*
D03*
Y458000D02*
D03*
Y440000D02*
D03*
X691000D02*
D03*
X700000D02*
D03*
X709000D02*
D03*
Y449000D02*
D03*
X700000D02*
D03*
X691000D02*
D03*
Y458000D02*
D03*
X700000D02*
D03*
X709000D02*
D03*
Y467000D02*
D03*
X700000D02*
D03*
X691000D02*
D03*
Y476000D02*
D03*
X700000D02*
D03*
X709000D02*
D03*
X682000Y449000D02*
D03*
Y381000D02*
D03*
Y363000D02*
D03*
X691000D02*
D03*
X700000D02*
D03*
X709000D02*
D03*
Y372000D02*
D03*
X700000D02*
D03*
X691000D02*
D03*
Y381000D02*
D03*
X700000D02*
D03*
X709000D02*
D03*
Y390000D02*
D03*
X700000D02*
D03*
X691000D02*
D03*
Y399000D02*
D03*
X700000D02*
D03*
X709000D02*
D03*
X682000Y372000D02*
D03*
D89*
X355000Y464000D02*
D03*
X668000Y658000D02*
D03*
X651000D02*
D03*
X669000Y492000D02*
D03*
X653000D02*
D03*
X310000Y495000D02*
D03*
X322000Y576000D02*
D03*
X303000Y399000D02*
D03*
X18000Y684000D02*
D03*
D90*
X682000Y645000D02*
D03*
Y568000D02*
D03*
Y476000D02*
D03*
Y399000D02*
D03*
D91*
Y636000D02*
D03*
Y559000D02*
D03*
Y467000D02*
D03*
Y390000D02*
D03*
D125*
X668000Y588000D02*
D03*
X670000Y420000D02*
D03*
X108000Y591000D02*
D03*
X570000Y465000D02*
D03*
X435000Y727500D02*
D03*
X570000Y634000D02*
D03*
X567000Y541000D02*
D03*
X527500Y585000D02*
D03*
X570000Y362500D02*
D03*
X525000Y410000D02*
D03*
D126*
X36904Y595166D02*
D03*
X467500Y782500D02*
D03*
M02*
