G04*
G04 #@! TF.GenerationSoftware,Altium Limited,Altium Designer,21.6.4 (81)*
G04*
G04 Layer_Physical_Order=3*
G04 Layer_Color=128*
%FSLAX44Y44*%
%MOMM*%
G71*
G04*
G04 #@! TF.SameCoordinates,6345E517-F44B-4F0B-96C8-749CB5923BEE*
G04*
G04*
G04 #@! TF.FilePolarity,Negative*
G04*
G01*
G75*
%ADD11C,0.2500*%
%ADD102C,3.7160*%
%ADD114C,1.0160*%
%ADD115C,2.1160*%
%ADD116C,4.2160*%
%ADD117R,2.7160X1.6160*%
%ADD118C,1.8160*%
%ADD119C,2.0360*%
%ADD120C,1.3160*%
%ADD121C,1.5160*%
D11*
X647000Y697000D02*
Y760000D01*
Y697000D02*
X672000D01*
Y612000D02*
Y697000D01*
Y485000D02*
Y612000D01*
Y359000D02*
Y485000D01*
Y290000D02*
Y359000D01*
X600000Y290000D02*
X672000D01*
X600000Y218000D02*
Y290000D01*
Y212000D02*
Y218000D01*
Y212000D02*
X714000D01*
X715000Y213000D01*
Y758750D01*
X713750Y760000D02*
X715000Y758750D01*
X647000Y760000D02*
X713750D01*
X575000Y650000D02*
Y800000D01*
X497000Y650000D02*
X575000D01*
X497000D02*
X497000Y335000D01*
X430000D02*
X497000D01*
X430000Y57500D02*
Y335000D01*
Y0D02*
Y57500D01*
Y0D02*
Y57500D01*
D102*
X100000Y436000D02*
D03*
Y364000D02*
D03*
X750000Y464000D02*
D03*
Y536000D02*
D03*
D114*
X0Y0D02*
Y800000D01*
Y0D02*
X850000D01*
Y800000D01*
X0D02*
X850000D01*
D115*
X42500Y230000D02*
D03*
Y80000D02*
D03*
X449800Y673508D02*
D03*
X475200D02*
D03*
X523000Y117500D02*
D03*
X657500Y80000D02*
D03*
X770000Y194500D02*
D03*
X380000Y130000D02*
D03*
D116*
X820000Y770000D02*
D03*
X30000Y30000D02*
D03*
Y770000D02*
D03*
X820000Y30000D02*
D03*
D117*
X40000Y467500D02*
D03*
Y332500D02*
D03*
X810000Y432500D02*
D03*
Y567500D02*
D03*
D118*
X280000Y340000D02*
D03*
X385000Y80000D02*
D03*
D119*
X268100Y632600D02*
D03*
X166500D02*
D03*
X115700D02*
D03*
X141100D02*
D03*
X191900D02*
D03*
X217300D02*
D03*
X242700D02*
D03*
X293500D02*
D03*
X344300D02*
D03*
X268100Y785000D02*
D03*
X166500D02*
D03*
X141100D02*
D03*
X191900D02*
D03*
X217300D02*
D03*
X242700D02*
D03*
X293500D02*
D03*
X318900D02*
D03*
X344300D02*
D03*
D120*
X680000Y679000D02*
D03*
X193000Y465000D02*
D03*
X176000Y745000D02*
D03*
X667000Y673000D02*
D03*
X669000Y504000D02*
D03*
X768000Y370000D02*
D03*
X750000D02*
D03*
X730000D02*
D03*
X768000Y388000D02*
D03*
X750000D02*
D03*
X730000D02*
D03*
X768000Y403000D02*
D03*
X750000D02*
D03*
X730000D02*
D03*
X409000Y341000D02*
D03*
X145000Y14000D02*
D03*
X127000D02*
D03*
X145000Y29000D02*
D03*
X127000D02*
D03*
X145000Y44000D02*
D03*
X127000D02*
D03*
X145000Y58000D02*
D03*
X127000Y59000D02*
D03*
X145000Y74000D02*
D03*
X127000D02*
D03*
X342000Y402000D02*
D03*
X471000Y426000D02*
D03*
X466600Y599400D02*
D03*
X188000Y688000D02*
D03*
X182000Y661000D02*
D03*
X108000Y591000D02*
D03*
X251500Y498500D02*
D03*
X408000Y409000D02*
D03*
X383000Y631660D02*
D03*
X394000Y650000D02*
D03*
X371000Y670000D02*
D03*
X386000Y404000D02*
D03*
X36904Y595166D02*
D03*
X467500Y782500D02*
D03*
X435000Y727500D02*
D03*
X567000Y541000D02*
D03*
X546000Y560000D02*
D03*
X527500Y585000D02*
D03*
X570000Y634000D02*
D03*
X525000Y410000D02*
D03*
X570000Y362500D02*
D03*
Y465000D02*
D03*
X546000Y387000D02*
D03*
X682000Y645000D02*
D03*
Y627000D02*
D03*
Y609000D02*
D03*
X691000D02*
D03*
X700000D02*
D03*
X709000D02*
D03*
Y618000D02*
D03*
X700000D02*
D03*
X691000D02*
D03*
Y627000D02*
D03*
X700000D02*
D03*
X709000D02*
D03*
Y636000D02*
D03*
X700000D02*
D03*
X691000D02*
D03*
Y645000D02*
D03*
X700000D02*
D03*
X709000D02*
D03*
X682000Y636000D02*
D03*
Y618000D02*
D03*
Y476000D02*
D03*
Y458000D02*
D03*
Y440000D02*
D03*
X691000D02*
D03*
X700000D02*
D03*
X709000D02*
D03*
Y449000D02*
D03*
X700000D02*
D03*
X691000D02*
D03*
Y458000D02*
D03*
X700000D02*
D03*
X709000D02*
D03*
Y467000D02*
D03*
X700000D02*
D03*
X691000D02*
D03*
Y476000D02*
D03*
X700000D02*
D03*
X709000D02*
D03*
X682000Y467000D02*
D03*
Y449000D02*
D03*
D121*
X668000Y658000D02*
D03*
X669000Y492000D02*
D03*
X322000Y576000D02*
D03*
M02*
