G04*
G04 #@! TF.GenerationSoftware,Altium Limited,Altium Designer,21.6.4 (81)*
G04*
G04 Layer_Color=8421504*
%FSLAX44Y44*%
%MOMM*%
G71*
G04*
G04 #@! TF.SameCoordinates,6345E517-F44B-4F0B-96C8-749CB5923BEE*
G04*
G04*
G04 #@! TF.FilePolarity,Positive*
G04*
G01*
G75*
%ADD14R,1.2700X1.9050*%
%ADD15R,1.2700X3.0480*%
%ADD16R,1.5000X1.5000*%
%ADD17R,1.5000X1.5000*%
%ADD18R,0.7500X0.5000*%
%ADD19R,0.7500X0.4000*%
%ADD20R,0.7500X1.4500*%
%ADD21R,1.2000X8.7000*%
%ADD22R,1.2000X1.6000*%
%ADD23R,0.9000X1.3000*%
%ADD24R,1.5562X0.9562*%
%ADD25R,1.3000X0.9000*%
%ADD26R,0.9500X1.4500*%
%ADD27R,1.3500X1.5500*%
%ADD28R,0.9600X1.3900*%
%ADD29R,0.9562X1.5562*%
%ADD30R,1.5000X0.6000*%
%ADD31R,1.5500X1.3500*%
%ADD32R,1.5250X0.6500*%
%ADD33R,1.4500X0.9500*%
%ADD34R,1.2000X1.1000*%
%ADD35R,1.5000X2.5000*%
%ADD36R,7.0000X7.0000*%
%ADD37R,5.2000X3.7500*%
%ADD38R,1.1000X1.2000*%
%ADD39R,1.6000X3.5000*%
%ADD40R,2.2500X3.2000*%
%ADD41R,1.1000X1.8000*%
%ADD42R,1.1500X3.6000*%
%ADD43R,1.3900X0.9600*%
%ADD44R,0.7500X1.2500*%
%ADD45R,1.2500X0.7500*%
%ADD46R,1.3561X1.8582*%
%ADD47R,1.2500X3.5200*%
%ADD48R,3.4000X7.6000*%
D14*
X236187Y353438D02*
D03*
Y293748D02*
D03*
X218915D02*
D03*
Y353438D02*
D03*
X201643Y293748D02*
D03*
Y353438D02*
D03*
X184371Y293748D02*
D03*
Y353438D02*
D03*
X149827Y293748D02*
D03*
Y353438D02*
D03*
X167099Y293748D02*
D03*
Y353438D02*
D03*
D15*
X236187Y323592D02*
D03*
X218915D02*
D03*
X201643D02*
D03*
X184371D02*
D03*
X149827D02*
D03*
X167099D02*
D03*
D16*
X688000Y618500D02*
D03*
X705000D02*
D03*
X688000Y541500D02*
D03*
X705000D02*
D03*
X688000Y466500D02*
D03*
X705000D02*
D03*
X688000Y389500D02*
D03*
X705000D02*
D03*
D17*
X688000Y635500D02*
D03*
X705000D02*
D03*
X688000Y558500D02*
D03*
X705000D02*
D03*
X688000Y449500D02*
D03*
X705000D02*
D03*
X688000Y372500D02*
D03*
X705000D02*
D03*
D18*
X719051Y607949D02*
D03*
Y620649D02*
D03*
Y633349D02*
D03*
Y646049D02*
D03*
X719052Y530953D02*
D03*
Y543653D02*
D03*
Y556353D02*
D03*
Y569053D02*
D03*
X719050Y438949D02*
D03*
Y451649D02*
D03*
Y464349D02*
D03*
Y477049D02*
D03*
X719049Y361948D02*
D03*
Y374648D02*
D03*
Y387348D02*
D03*
Y400048D02*
D03*
D19*
X660951Y607948D02*
D03*
Y620648D02*
D03*
Y633348D02*
D03*
Y646048D02*
D03*
X660949Y530949D02*
D03*
Y543649D02*
D03*
Y556349D02*
D03*
Y569049D02*
D03*
X660950Y438951D02*
D03*
Y451651D02*
D03*
Y464351D02*
D03*
Y477051D02*
D03*
X660950Y361951D02*
D03*
Y374651D02*
D03*
Y387351D02*
D03*
Y400051D02*
D03*
D20*
X681500Y665000D02*
D03*
X703500D02*
D03*
D21*
X452207Y221292D02*
D03*
X496208D02*
D03*
D22*
Y283792D02*
D03*
X452207D02*
D03*
D23*
X145500Y757500D02*
D03*
X164500D02*
D03*
X289500Y400000D02*
D03*
X270500D02*
D03*
X409500Y425000D02*
D03*
X390500D02*
D03*
X370500Y333208D02*
D03*
X389500D02*
D03*
X260500Y565000D02*
D03*
X279500D02*
D03*
X160500Y465000D02*
D03*
X179500Y465000D02*
D03*
X803500Y383000D02*
D03*
X784500D02*
D03*
X465000Y320000D02*
D03*
X484000D02*
D03*
D24*
X91840Y530750D02*
D03*
Y554250D02*
D03*
X15000Y619664D02*
D03*
Y643164D02*
D03*
X505355Y729250D02*
D03*
Y705750D02*
D03*
X364824Y413573D02*
D03*
Y437074D02*
D03*
D25*
X707500Y740500D02*
D03*
Y759500D02*
D03*
X450000Y345500D02*
D03*
Y364500D02*
D03*
D26*
X487750Y407000D02*
D03*
X468250D02*
D03*
X411250Y750000D02*
D03*
X391750D02*
D03*
X37250Y665737D02*
D03*
X17750D02*
D03*
X279750Y605000D02*
D03*
X260250D02*
D03*
X468708Y581058D02*
D03*
X488208D02*
D03*
X468708Y563000D02*
D03*
X488208D02*
D03*
X468250Y385000D02*
D03*
X487750D02*
D03*
D27*
X456750Y705000D02*
D03*
X476250D02*
D03*
X411250Y769500D02*
D03*
X391750D02*
D03*
X409750Y445000D02*
D03*
X390250D02*
D03*
D28*
X435900Y787500D02*
D03*
X452100D02*
D03*
D29*
X478250Y727500D02*
D03*
X454750D02*
D03*
X316750Y665000D02*
D03*
X293250D02*
D03*
X631750Y577500D02*
D03*
X608250D02*
D03*
X611750Y407500D02*
D03*
X588250D02*
D03*
D30*
X474000Y757500D02*
D03*
X455000Y748000D02*
D03*
Y767000D02*
D03*
D31*
X433792Y750250D02*
D03*
Y769750D02*
D03*
D32*
X375380Y353450D02*
D03*
Y366150D02*
D03*
Y378850D02*
D03*
Y391550D02*
D03*
X429620D02*
D03*
Y378850D02*
D03*
Y366150D02*
D03*
Y353450D02*
D03*
X562120Y596550D02*
D03*
Y583850D02*
D03*
Y571150D02*
D03*
Y558450D02*
D03*
X507880D02*
D03*
Y571150D02*
D03*
Y583850D02*
D03*
Y596550D02*
D03*
X562120Y424050D02*
D03*
Y411350D02*
D03*
Y398650D02*
D03*
Y385950D02*
D03*
X507880D02*
D03*
Y398650D02*
D03*
Y411350D02*
D03*
Y424050D02*
D03*
D33*
X445000Y324750D02*
D03*
Y305250D02*
D03*
X265000Y515250D02*
D03*
Y534750D02*
D03*
Y480250D02*
D03*
Y499750D02*
D03*
X430000Y429043D02*
D03*
Y409543D02*
D03*
X505000Y324750D02*
D03*
Y305250D02*
D03*
D34*
X40324Y645883D02*
D03*
Y624883D02*
D03*
D35*
X62500Y587500D02*
D03*
X16500D02*
D03*
D36*
X39500Y525000D02*
D03*
D37*
X185000Y494500D02*
D03*
Y595500D02*
D03*
D38*
X326043Y605000D02*
D03*
X305042D02*
D03*
D39*
X310000Y492000D02*
D03*
Y548000D02*
D03*
D40*
X265500Y440000D02*
D03*
X334500D02*
D03*
D41*
X295500Y275000D02*
D03*
X324500Y275000D02*
D03*
D42*
X159000Y430000D02*
D03*
X176000D02*
D03*
X193000D02*
D03*
X210000D02*
D03*
X227000D02*
D03*
D43*
X486208Y615600D02*
D03*
Y599400D02*
D03*
Y440600D02*
D03*
Y424400D02*
D03*
X85000Y574123D02*
D03*
Y590324D02*
D03*
D44*
X590000Y602824D02*
D03*
Y635824D02*
D03*
Y516000D02*
D03*
Y549000D02*
D03*
Y433500D02*
D03*
Y466500D02*
D03*
Y348500D02*
D03*
Y381500D02*
D03*
D45*
X513500Y615000D02*
D03*
X546500D02*
D03*
X513500Y445000D02*
D03*
X546500D02*
D03*
D46*
X609739Y627000D02*
D03*
X640261D02*
D03*
X609739Y605000D02*
D03*
X640261D02*
D03*
X609739Y547000D02*
D03*
X640261D02*
D03*
X609739Y525000D02*
D03*
X640261D02*
D03*
X609739Y460000D02*
D03*
X640261D02*
D03*
X609739Y435000D02*
D03*
X640261D02*
D03*
X609739Y380000D02*
D03*
X640261D02*
D03*
X609739Y355000D02*
D03*
X640261D02*
D03*
D47*
X794800Y721000D02*
D03*
X755200D02*
D03*
X794800Y681333D02*
D03*
X755200D02*
D03*
X794800Y641667D02*
D03*
X755200D02*
D03*
X795000Y602000D02*
D03*
X755400D02*
D03*
D48*
X283500Y223458D02*
D03*
X136500D02*
D03*
Y42457D02*
D03*
X283500D02*
D03*
M02*
