G04*
G04 #@! TF.GenerationSoftware,Altium Limited,Altium Designer,21.6.4 (81)*
G04*
G04 Layer_Color=32768*
%FSLAX44Y44*%
%MOMM*%
G71*
G04*
G04 #@! TF.SameCoordinates,6345E517-F44B-4F0B-96C8-749CB5923BEE*
G04*
G04*
G04 #@! TF.FilePolarity,Positive*
G04*
G01*
G75*
%ADD10C,0.2000*%
%ADD12C,0.1000*%
%ADD127C,0.0500*%
D10*
X79058Y520969D02*
Y564031D01*
X104621D01*
Y520969D02*
Y564031D01*
X79058Y520969D02*
X104621D01*
X462500Y398750D02*
Y415250D01*
Y398750D02*
X493500D01*
Y415250D01*
X462500D02*
X493500D01*
X444969Y714719D02*
X488031D01*
X444969D02*
Y740281D01*
X488031D01*
Y714719D02*
Y740281D01*
X386000Y741750D02*
X417000D01*
X386000D02*
Y758250D01*
X417000D01*
Y741750D02*
Y758250D01*
X453250Y299500D02*
Y330500D01*
X436750Y299500D02*
X453250D01*
X436750D02*
Y330500D01*
X453250D01*
X12000Y657487D02*
X43000D01*
X12000D02*
Y673987D01*
X43000D01*
Y657487D02*
Y673987D01*
X2219Y609883D02*
Y652944D01*
X27781D01*
Y609883D02*
Y652944D01*
X2219Y609883D02*
X27781D01*
X254500Y596750D02*
X285500D01*
X254500D02*
Y613250D01*
X285500D01*
Y596750D02*
Y613250D01*
X256750Y509500D02*
Y540500D01*
X273250D01*
Y509500D02*
Y540500D01*
X256750Y509500D02*
X273250D01*
X256750Y474500D02*
Y505500D01*
X273250D01*
Y474500D02*
Y505500D01*
X256750Y474500D02*
X273250D01*
X283469Y652219D02*
X326531D01*
X283469D02*
Y677781D01*
X326531D01*
Y652219D02*
Y677781D01*
X188000Y365500D02*
X198000D01*
X193000Y360500D02*
Y370500D01*
X138000Y278000D02*
Y453000D01*
X248000Y278000D02*
Y453000D01*
X138000Y278000D02*
X248000D01*
X138000Y453000D02*
X248000D01*
X462957Y589308D02*
X493957D01*
Y572808D02*
Y589308D01*
X462957Y572808D02*
X493957D01*
X462957D02*
Y589308D01*
Y571250D02*
X493957D01*
Y554750D02*
Y571250D01*
X462957Y554750D02*
X493957D01*
X462957D02*
Y571250D01*
X598469Y564719D02*
X641531D01*
X598469D02*
Y590281D01*
X641531D01*
Y564719D02*
Y590281D01*
X655750Y656950D02*
X724250D01*
X655750Y597050D02*
Y656950D01*
Y597050D02*
X724250D01*
Y656950D01*
X655750Y579950D02*
X724250D01*
X655750Y520050D02*
Y579950D01*
Y520050D02*
X724250D01*
Y579950D01*
X462500Y393250D02*
X493500D01*
Y376750D02*
Y393250D01*
X462500Y376750D02*
X493500D01*
X462500D02*
Y393250D01*
X578469Y394719D02*
X621531D01*
X578469D02*
Y420281D01*
X621531D01*
Y394719D02*
Y420281D01*
X655750Y487950D02*
X724250D01*
X655750Y428050D02*
Y487950D01*
Y428050D02*
X724250D01*
Y487950D01*
X655750Y410950D02*
X724250D01*
X655750Y351050D02*
Y410950D01*
Y351050D02*
X724250D01*
Y410950D01*
X438250Y403792D02*
Y434793D01*
X421750Y403792D02*
X438250D01*
X421750D02*
Y434793D01*
X438250D01*
X513250Y299500D02*
Y330500D01*
X496750Y299500D02*
X513250D01*
X496750D02*
Y330500D01*
X513250D01*
X518136Y695969D02*
Y739031D01*
X492574Y695969D02*
X518136D01*
X492574D02*
Y739031D01*
X518136D01*
X352043Y403792D02*
Y446855D01*
X377605D01*
Y403792D02*
Y446855D01*
X352043Y403792D02*
X377605D01*
D12*
X92500Y55000D02*
Y255000D01*
X-7500Y55000D02*
X92500D01*
X-7500D02*
Y255000D01*
X92500D01*
X436208Y301793D02*
X512207D01*
Y167793D02*
Y301793D01*
X436208Y167793D02*
X512207D01*
X436208D02*
Y301793D01*
X466500Y700000D02*
Y710000D01*
X461500Y705000D02*
X471500D01*
X464500Y752500D02*
Y762500D01*
X459500Y757500D02*
X469500D01*
X428792Y760000D02*
X438792D01*
X433792Y755000D02*
Y765000D01*
X401500Y764500D02*
Y774500D01*
X396500Y769500D02*
X406500D01*
X82500Y-5543D02*
X337500D01*
X82500D02*
Y271458D01*
X337500D01*
Y-5543D02*
Y271458D01*
X330000Y105000D02*
X430000D01*
X430000Y305000D02*
X430000Y105000D01*
X330000Y305000D02*
X430000Y305000D01*
X330000Y305000D02*
X330000Y105000D01*
X400000Y440000D02*
Y450000D01*
X395000Y445000D02*
X405000D01*
D127*
X684500Y232000D02*
G03*
X684500Y232000I-84500J0D01*
G01*
X360000Y340000D02*
G03*
X360000Y340000I-55000J0D01*
G01*
X695707Y745000D02*
G03*
X695707Y745000I-55000J0D01*
G01*
X607500Y80000D02*
G03*
X607500Y80000I-84500J0D01*
G01*
X779500D02*
G03*
X779500Y80000I-84500J0D01*
G01*
X854500Y232000D02*
G03*
X854500Y232000I-84500J0D01*
G01*
X440000Y55000D02*
G03*
X440000Y55000I-55000J0D01*
G01*
X709750Y655000D02*
Y675000D01*
X675250D02*
X709750D01*
X675250Y655000D02*
Y675000D01*
Y655000D02*
X709750D01*
X139000Y766250D02*
X171000D01*
Y748750D02*
Y766250D01*
X139000Y748750D02*
X171000D01*
X139000D02*
Y766250D01*
X150000Y757500D02*
X160000D01*
X155000Y752500D02*
Y762500D01*
X702500Y750000D02*
X712500D01*
X707500Y745000D02*
Y755000D01*
X698750Y766000D02*
X716250D01*
X698750Y734000D02*
Y766000D01*
Y734000D02*
X716250D01*
Y766000D01*
X595000Y232000D02*
X605000D01*
X600000Y227000D02*
Y237000D01*
X121000Y320000D02*
Y480000D01*
X-56000Y320000D02*
X121000D01*
X-56000D02*
Y480000D01*
X121000D01*
X264000Y391250D02*
X296000D01*
X264000D02*
Y408750D01*
X296000D01*
Y391250D02*
Y408750D01*
X275000Y400000D02*
X285000D01*
X280000Y395000D02*
Y405000D01*
X445000Y718000D02*
X488000D01*
X445000Y692000D02*
X488000D01*
X445000D02*
Y718000D01*
X488000Y692000D02*
Y718000D01*
X458400Y779000D02*
Y796000D01*
X429600D02*
X458400D01*
X429600Y779000D02*
Y796000D01*
Y779000D02*
X458400D01*
X445000Y740000D02*
X484000D01*
X445000Y775000D02*
X484000D01*
Y740000D02*
Y775000D01*
X445000Y740000D02*
Y775000D01*
X420793Y738500D02*
Y781500D01*
X446792Y738500D02*
Y781500D01*
X420793Y738500D02*
X446792D01*
X420793Y781500D02*
X446792D01*
X380000Y756500D02*
X423000D01*
X380000Y782500D02*
X423000D01*
Y756500D02*
Y782500D01*
X380000Y756500D02*
Y782500D01*
X400000Y420000D02*
Y430000D01*
X395000Y425000D02*
X405000D01*
X384000Y416250D02*
Y433750D01*
Y416250D02*
X416000D01*
Y433750D01*
X384000D02*
X416000D01*
X439750Y345000D02*
Y400000D01*
X365250D02*
X439750D01*
X365250Y345000D02*
Y400000D01*
Y345000D02*
X439750D01*
X445000Y355000D02*
X455000D01*
X450000Y350000D02*
Y360000D01*
X441250Y371000D02*
X458750D01*
X441250Y339000D02*
Y371000D01*
Y339000D02*
X458750D01*
Y371000D01*
X380000Y328208D02*
Y338208D01*
X375000Y333208D02*
X385000D01*
X396000Y324458D02*
Y341958D01*
X364000D02*
X396000D01*
X364000Y324458D02*
Y341958D01*
Y324458D02*
X396000D01*
X40324Y630383D02*
Y640383D01*
X35324Y635383D02*
X45324D01*
X49074Y617383D02*
Y653383D01*
X31574Y617383D02*
X49074D01*
X31574D02*
Y653383D01*
X49074D01*
X118500Y473250D02*
Y616750D01*
X251500D01*
Y473250D02*
Y616750D01*
X118500Y473250D02*
X251500D01*
X310543Y605000D02*
X320542D01*
X315543Y600000D02*
Y610000D01*
X297542Y596250D02*
X333543D01*
X297542D02*
Y613750D01*
X333543D01*
Y596250D02*
Y613750D01*
X305000Y520000D02*
X315000D01*
X310000Y515000D02*
Y525000D01*
X274000Y472500D02*
X346000D01*
Y567500D01*
X274000D02*
X346000D01*
X274000Y472500D02*
Y567500D01*
X251750Y473750D02*
X348250D01*
Y406250D02*
Y473750D01*
X251750Y406250D02*
X348250D01*
X251750D02*
Y473750D01*
X332500Y263500D02*
X332500Y286500D01*
X287500D02*
X332500D01*
X287500Y263500D02*
X287500Y286500D01*
X287500Y263500D02*
X332500D01*
X254000Y573750D02*
X286000Y573750D01*
X286000Y556250D02*
X286000Y573750D01*
X254000Y556250D02*
X286000Y556250D01*
X254000Y556250D02*
X254000Y573750D01*
X265000Y565000D02*
X275000D01*
X270000Y560000D02*
Y570000D01*
X170000Y460000D02*
Y470000D01*
X165000Y465000D02*
X175000D01*
X186000Y473750D02*
X186000Y456250D01*
X154000Y473750D02*
X186000D01*
X154000D02*
X154000Y456250D01*
X186000D01*
X97250Y617100D02*
Y648100D01*
Y617100D02*
X362750D01*
Y648100D01*
X97250D02*
X362750D01*
X225000Y632600D02*
X235000D01*
X230000Y627600D02*
Y637600D01*
X433600Y658057D02*
X491400D01*
X433600D02*
Y688958D01*
X491400D01*
Y658057D02*
Y688958D01*
X462500Y668508D02*
Y678508D01*
X457500Y673508D02*
X467500D01*
X97250Y769500D02*
Y800500D01*
Y769500D02*
X362750D01*
Y800500D01*
X97250D02*
X362750D01*
X225000Y785000D02*
X235000D01*
X230000Y780000D02*
Y790000D01*
X494707Y593100D02*
Y621900D01*
X477707Y593100D02*
X494707D01*
X477707D02*
Y621900D01*
X494707D01*
X573250Y644574D02*
X606750D01*
X573250Y594074D02*
Y644574D01*
Y594074D02*
X606750D01*
Y644574D01*
X555250Y598250D02*
Y631750D01*
X504750D02*
X555250D01*
X504750Y598250D02*
Y631750D01*
Y598250D02*
X555250D01*
X497750Y550000D02*
Y605000D01*
Y550000D02*
X572250D01*
Y605000D01*
X497750D02*
X572250D01*
X601000Y638000D02*
X649000D01*
X601000Y616000D02*
Y638000D01*
Y616000D02*
X649000D01*
Y638000D01*
X601000Y616000D02*
X649000D01*
X601000Y594000D02*
Y616000D01*
Y594000D02*
X649000D01*
Y616000D01*
X573250Y557750D02*
X606750D01*
X573250Y507250D02*
Y557750D01*
Y507250D02*
X606750D01*
Y557750D01*
X601000Y558000D02*
X649000D01*
X601000Y536000D02*
Y558000D01*
Y536000D02*
X649000D01*
Y558000D01*
X601000Y536000D02*
X649000D01*
X601000Y514000D02*
Y536000D01*
Y514000D02*
X649000D01*
Y536000D01*
X747450Y701900D02*
X802550D01*
X747450D02*
Y740100D01*
X802550D01*
Y701900D02*
Y740100D01*
X747450Y662233D02*
X802550D01*
X747450D02*
Y700433D01*
X802550D01*
Y662233D02*
Y700433D01*
X747450Y622567D02*
X802550D01*
X747450D02*
Y660767D01*
X802550D01*
Y622567D02*
Y660767D01*
X747650Y582900D02*
X802750D01*
X747650D02*
Y621100D01*
X802750D01*
Y582900D02*
Y621100D01*
X497750Y377500D02*
Y432500D01*
Y377500D02*
X572250D01*
Y432500D01*
X497750D02*
X572250D01*
X518000Y80000D02*
X528000D01*
X523000Y75000D02*
Y85000D01*
X695000Y75000D02*
Y85000D01*
X690000Y80000D02*
X700000D01*
X573250Y475250D02*
X606750D01*
X573250Y424750D02*
Y475250D01*
Y424750D02*
X606750D01*
Y475250D01*
X601000Y471000D02*
X649000D01*
X601000Y449000D02*
Y471000D01*
Y449000D02*
X649000D01*
Y471000D01*
X601000Y446000D02*
X649000D01*
X601000Y424000D02*
Y446000D01*
Y424000D02*
X649000D01*
Y446000D01*
X573250Y390250D02*
X606750D01*
X573250Y339750D02*
Y390250D01*
Y339750D02*
X606750D01*
Y390250D01*
X601000Y391000D02*
X649000D01*
X601000Y369000D02*
Y391000D01*
Y369000D02*
X649000D01*
Y391000D01*
X601000Y366000D02*
X649000D01*
X601000Y344000D02*
Y366000D01*
Y344000D02*
X649000D01*
Y366000D01*
X765000Y232000D02*
X775000D01*
X770000Y227000D02*
Y237000D01*
X729000Y420000D02*
Y580000D01*
X906000D01*
Y420000D02*
Y580000D01*
X729000Y420000D02*
X906000D01*
X778000Y374250D02*
X810000D01*
X778000D02*
Y391750D01*
X810000D01*
Y374250D02*
Y391750D01*
X789000Y383000D02*
X799000D01*
X794000Y378000D02*
Y388000D01*
X555250Y428250D02*
Y461750D01*
X504750D02*
X555250D01*
X504750Y428250D02*
Y461750D01*
Y428250D02*
X555250D01*
X494707Y418100D02*
Y446900D01*
X477707Y418100D02*
X494707D01*
X477707D02*
Y446900D01*
X494707D01*
X474500Y315000D02*
Y325000D01*
X469500Y320000D02*
X479500D01*
X490500Y311250D02*
Y328750D01*
X458500D02*
X490500D01*
X458500Y311250D02*
Y328750D01*
Y311250D02*
X490500D01*
X76500Y596623D02*
X93500D01*
X76500Y567824D02*
Y596623D01*
Y567824D02*
X93500D01*
Y596623D01*
X378500Y432000D02*
X421500D01*
X378500Y458000D02*
X421500D01*
Y432000D02*
Y458000D01*
X378500Y432000D02*
Y458000D01*
M02*
