G04*
G04 #@! TF.GenerationSoftware,Altium Limited,Altium Designer,21.6.4 (81)*
G04*
G04 Layer_Physical_Order=4*
G04 Layer_Color=16711680*
%FSLAX44Y44*%
%MOMM*%
G71*
G04*
G04 #@! TF.SameCoordinates,6345E517-F44B-4F0B-96C8-749CB5923BEE*
G04*
G04*
G04 #@! TF.FilePolarity,Positive*
G04*
G01*
G75*
%ADD94C,0.2540*%
%ADD98C,0.5000*%
%ADD100C,1.6500*%
G04:AMPARAMS|DCode=101|XSize=1.65mm|YSize=1.65mm|CornerRadius=0.4125mm|HoleSize=0mm|Usage=FLASHONLY|Rotation=0.000|XOffset=0mm|YOffset=0mm|HoleType=Round|Shape=RoundedRectangle|*
%AMROUNDEDRECTD101*
21,1,1.6500,0.8250,0,0,0.0*
21,1,0.8250,1.6500,0,0,0.0*
1,1,0.8250,0.4125,-0.4125*
1,1,0.8250,-0.4125,-0.4125*
1,1,0.8250,-0.4125,0.4125*
1,1,0.8250,0.4125,0.4125*
%
%ADD101ROUNDEDRECTD101*%
%ADD102C,3.7160*%
%ADD103O,2.6000X1.3000*%
%ADD104R,1.2000X1.2000*%
%ADD105C,1.2000*%
%ADD106C,1.5200*%
%ADD107R,1.5200X1.5200*%
%ADD108C,1.6000*%
%ADD109R,1.6000X1.6000*%
G04:AMPARAMS|DCode=110|XSize=1.65mm|YSize=1.65mm|CornerRadius=0.4125mm|HoleSize=0mm|Usage=FLASHONLY|Rotation=90.000|XOffset=0mm|YOffset=0mm|HoleType=Round|Shape=RoundedRectangle|*
%AMROUNDEDRECTD110*
21,1,1.6500,0.8250,0,0,90.0*
21,1,0.8250,1.6500,0,0,90.0*
1,1,0.8250,0.4125,0.4125*
1,1,0.8250,0.4125,-0.4125*
1,1,0.8250,-0.4125,-0.4125*
1,1,0.8250,-0.4125,0.4125*
%
%ADD110ROUNDEDRECTD110*%
%ADD111R,1.2000X1.2000*%
%ADD112C,0.6000*%
%ADD113C,1.0000*%
%ADD122C,0.2540*%
%ADD123R,1.0000X1.0000*%
%ADD124R,1.0000X1.0000*%
G36*
X572000Y799000D02*
Y652000D01*
X495000D01*
Y337000D01*
X429000D01*
Y60000D01*
X368000D01*
Y0D01*
X198590D01*
Y276000D01*
X198393Y276991D01*
X197831Y277831D01*
X196991Y278393D01*
X196000Y278590D01*
X142590D01*
Y464257D01*
X143763Y464743D01*
X153063Y455443D01*
X154323Y454601D01*
X155810Y454305D01*
X254660D01*
X309712Y399253D01*
X310973Y398411D01*
X312459Y398115D01*
X338050D01*
X338862Y397303D01*
X340898Y396460D01*
X343102D01*
X345138Y397303D01*
X346697Y398862D01*
X347540Y400898D01*
Y403102D01*
X346697Y405138D01*
X345138Y406697D01*
X343102Y407540D01*
X340898D01*
X338862Y406697D01*
X338050Y405885D01*
X314068D01*
X259016Y460937D01*
X257756Y461779D01*
X256269Y462075D01*
X241364D01*
X240838Y463345D01*
X254247Y476753D01*
X255089Y478013D01*
X255385Y479500D01*
Y494550D01*
X256197Y495362D01*
X257040Y497398D01*
Y499602D01*
X256197Y501638D01*
X254638Y503197D01*
X252602Y504040D01*
X250398D01*
X248362Y503197D01*
X246803Y501638D01*
X245960Y499602D01*
Y497398D01*
X246803Y495362D01*
X247615Y494550D01*
Y481109D01*
X235391Y468885D01*
X196950D01*
X196138Y469697D01*
X194102Y470540D01*
X191898D01*
X189862Y469697D01*
X188303Y468138D01*
X187460Y466102D01*
Y463898D01*
X187778Y463131D01*
X187072Y462075D01*
X157419D01*
X99747Y519747D01*
X98487Y520589D01*
X97000Y520885D01*
X96978D01*
X44518Y573344D01*
Y591436D01*
X44444Y591811D01*
Y595438D01*
X104867Y655861D01*
X179929D01*
X180898Y655460D01*
X183102D01*
X185138Y656303D01*
X186697Y657862D01*
X187540Y659898D01*
Y662102D01*
X186697Y664138D01*
X185885Y664950D01*
Y680391D01*
X187954Y682460D01*
X189102D01*
X191138Y683303D01*
X192697Y684862D01*
X193540Y686898D01*
Y689102D01*
X192697Y691138D01*
X191138Y692697D01*
X189102Y693540D01*
X186898D01*
X184862Y692697D01*
X183303Y691138D01*
X182460Y689102D01*
Y687954D01*
X179253Y684747D01*
X178411Y683487D01*
X178115Y682000D01*
Y666139D01*
X102738D01*
X100772Y665748D01*
X99104Y664634D01*
X37176Y602706D01*
X29364D01*
Y587626D01*
X36749D01*
Y571735D01*
X37045Y570249D01*
X37887Y568989D01*
X92622Y514253D01*
X93883Y513411D01*
X95369Y513115D01*
X95391D01*
X121743Y486763D01*
X121257Y485590D01*
X0D01*
Y757996D01*
X1270Y758249D01*
X2258Y755865D01*
X4811Y751699D01*
X7983Y747983D01*
X11699Y744810D01*
X15865Y742258D01*
X20378Y740388D01*
X25129Y739247D01*
X30000Y738864D01*
X34871Y739247D01*
X39622Y740388D01*
X44135Y742258D01*
X48301Y744810D01*
X52017Y747983D01*
X55189Y751699D01*
X57742Y755865D01*
X59612Y760378D01*
X60753Y765129D01*
X61136Y770000D01*
X60753Y774871D01*
X59612Y779622D01*
X57742Y784135D01*
X55189Y788301D01*
X52017Y792017D01*
X48301Y795190D01*
X44135Y797742D01*
X41751Y798730D01*
X42004Y800000D01*
X571000D01*
X572000Y799000D01*
D02*
G37*
G36*
X808249Y798730D02*
X805865Y797742D01*
X801699Y795190D01*
X797983Y792017D01*
X794810Y788301D01*
X792258Y784135D01*
X790388Y779622D01*
X789247Y774871D01*
X788864Y770000D01*
X789247Y765129D01*
X790388Y760378D01*
X792258Y755865D01*
X794810Y751699D01*
X797983Y747983D01*
X801699Y744810D01*
X805865Y742258D01*
X810378Y740388D01*
X815129Y739247D01*
X820000Y738864D01*
X824871Y739247D01*
X829622Y740388D01*
X834135Y742258D01*
X838301Y744810D01*
X842017Y747983D01*
X845190Y751699D01*
X847742Y755865D01*
X848730Y758249D01*
X850000Y757996D01*
Y42004D01*
X848730Y41751D01*
X847742Y44135D01*
X845190Y48301D01*
X842017Y52017D01*
X838301Y55189D01*
X834135Y57742D01*
X829622Y59612D01*
X824871Y60753D01*
X820000Y61136D01*
X815129Y60753D01*
X810378Y59612D01*
X805865Y57742D01*
X801699Y55189D01*
X797983Y52017D01*
X794810Y48301D01*
X792258Y44135D01*
X790388Y39622D01*
X789247Y34871D01*
X788864Y30000D01*
X789247Y25129D01*
X790388Y20378D01*
X792258Y15865D01*
X794810Y11699D01*
X797983Y7983D01*
X801699Y4811D01*
X805865Y2258D01*
X808249Y1270D01*
X807996Y0D01*
X432000D01*
Y333000D01*
X498000D01*
X499000Y334000D01*
Y648000D01*
X500000Y649000D01*
X577000D01*
Y800000D01*
X807996D01*
X808249Y798730D01*
D02*
G37*
G36*
X140000Y468506D02*
Y276000D01*
X196000D01*
Y0D01*
X42004D01*
X41751Y1270D01*
X44135Y2258D01*
X48301Y4811D01*
X52017Y7983D01*
X55189Y11699D01*
X57742Y15865D01*
X59612Y20378D01*
X60753Y25129D01*
X61136Y30000D01*
X60753Y34871D01*
X59612Y39622D01*
X57742Y44135D01*
X55189Y48301D01*
X52017Y52017D01*
X48301Y55189D01*
X44135Y57742D01*
X39622Y59612D01*
X34871Y60753D01*
X30000Y61136D01*
X25129Y60753D01*
X20378Y59612D01*
X15865Y57742D01*
X11699Y55189D01*
X7983Y52017D01*
X4811Y48301D01*
X2258Y44135D01*
X1270Y41751D01*
X0Y42004D01*
Y483000D01*
X125506D01*
X140000Y468506D01*
D02*
G37*
%LPC*%
G36*
X475040Y790040D02*
X459960D01*
Y774960D01*
X475040D01*
Y790040D01*
D02*
G37*
G36*
X269435Y795140D02*
X266765D01*
X264186Y794449D01*
X261874Y793114D01*
X259986Y791226D01*
X258651Y788914D01*
X257960Y786335D01*
Y783665D01*
X258651Y781086D01*
X259986Y778774D01*
X261874Y776886D01*
X264186Y775551D01*
X266765Y774860D01*
X269435D01*
X272014Y775551D01*
X274326Y776886D01*
X276214Y778774D01*
X277549Y781086D01*
X278240Y783665D01*
Y786335D01*
X277549Y788914D01*
X276214Y791226D01*
X274326Y793114D01*
X272014Y794449D01*
X269435Y795140D01*
D02*
G37*
G36*
X244035D02*
X241365D01*
X238786Y794449D01*
X236474Y793114D01*
X234586Y791226D01*
X233251Y788914D01*
X232560Y786335D01*
Y783665D01*
X233251Y781086D01*
X234586Y778774D01*
X236474Y776886D01*
X238786Y775551D01*
X241365Y774860D01*
X244035D01*
X246614Y775551D01*
X248926Y776886D01*
X250814Y778774D01*
X252149Y781086D01*
X252840Y783665D01*
Y786335D01*
X252149Y788914D01*
X250814Y791226D01*
X248926Y793114D01*
X246614Y794449D01*
X244035Y795140D01*
D02*
G37*
G36*
X218635D02*
X215965D01*
X213386Y794449D01*
X211074Y793114D01*
X209186Y791226D01*
X207851Y788914D01*
X207160Y786335D01*
Y783665D01*
X207851Y781086D01*
X209186Y778774D01*
X211074Y776886D01*
X213386Y775551D01*
X215965Y774860D01*
X218635D01*
X221214Y775551D01*
X223526Y776886D01*
X225414Y778774D01*
X226749Y781086D01*
X227440Y783665D01*
Y786335D01*
X226749Y788914D01*
X225414Y791226D01*
X223526Y793114D01*
X221214Y794449D01*
X218635Y795140D01*
D02*
G37*
G36*
X167835D02*
X165165D01*
X162586Y794449D01*
X160274Y793114D01*
X158386Y791226D01*
X157051Y788914D01*
X156360Y786335D01*
Y783665D01*
X157051Y781086D01*
X158386Y778774D01*
X160274Y776886D01*
X162586Y775551D01*
X165165Y774860D01*
X167835D01*
X170414Y775551D01*
X172726Y776886D01*
X174614Y778774D01*
X175949Y781086D01*
X176640Y783665D01*
Y786335D01*
X175949Y788914D01*
X174614Y791226D01*
X172726Y793114D01*
X170414Y794449D01*
X167835Y795140D01*
D02*
G37*
G36*
X142435D02*
X139765D01*
X137186Y794449D01*
X134874Y793114D01*
X132986Y791226D01*
X131651Y788914D01*
X130960Y786335D01*
Y783665D01*
X131651Y781086D01*
X132986Y778774D01*
X134874Y776886D01*
X137186Y775551D01*
X139765Y774860D01*
X142435D01*
X145014Y775551D01*
X147326Y776886D01*
X149214Y778774D01*
X150549Y781086D01*
X151240Y783665D01*
Y786335D01*
X150549Y788914D01*
X149214Y791226D01*
X147326Y793114D01*
X145014Y794449D01*
X142435Y795140D01*
D02*
G37*
G36*
X442540Y735040D02*
X427460D01*
Y719960D01*
X442540D01*
Y735040D01*
D02*
G37*
G36*
X345635Y795140D02*
X342965D01*
X340386Y794449D01*
X338074Y793114D01*
X336186Y791226D01*
X334851Y788914D01*
X334160Y786335D01*
Y783665D01*
X334851Y781086D01*
X336186Y778774D01*
X338074Y776886D01*
X340386Y775551D01*
X342965Y774860D01*
X345635D01*
X348214Y775551D01*
X348240Y775566D01*
X367115Y756691D01*
Y673950D01*
X366303Y673138D01*
X365986Y672371D01*
X364740Y672123D01*
X322785Y714078D01*
Y775543D01*
X322814Y775551D01*
X325126Y776886D01*
X327014Y778774D01*
X328349Y781086D01*
X329040Y783665D01*
Y786335D01*
X328349Y788914D01*
X327014Y791226D01*
X325126Y793114D01*
X322814Y794449D01*
X320235Y795140D01*
X317565D01*
X314986Y794449D01*
X312674Y793114D01*
X310786Y791226D01*
X309451Y788914D01*
X308760Y786335D01*
Y783665D01*
X309451Y781086D01*
X310786Y778774D01*
X312674Y776886D01*
X314986Y775551D01*
X315015Y775543D01*
Y712469D01*
X315311Y710983D01*
X316153Y709722D01*
X378622Y647253D01*
X379883Y646411D01*
X381369Y646115D01*
X390050D01*
X390862Y645303D01*
X392898Y644460D01*
X395102D01*
X397138Y645303D01*
X398697Y646862D01*
X399540Y648898D01*
Y651102D01*
X398697Y653138D01*
X397138Y654697D01*
X395102Y655540D01*
X392898D01*
X390862Y654697D01*
X390050Y653885D01*
X382978D01*
X373123Y663740D01*
X373371Y664986D01*
X374138Y665303D01*
X375697Y666862D01*
X376540Y668898D01*
Y671102D01*
X375697Y673138D01*
X374885Y673950D01*
Y758300D01*
X374589Y759787D01*
X373747Y761047D01*
X353734Y781060D01*
X353749Y781086D01*
X354440Y783665D01*
Y786335D01*
X353749Y788914D01*
X352414Y791226D01*
X350526Y793114D01*
X348214Y794449D01*
X345635Y795140D01*
D02*
G37*
G36*
X485740Y684047D02*
X464660D01*
Y662968D01*
X485740D01*
Y684047D01*
D02*
G37*
G36*
X451188D02*
X448412D01*
X445732Y683329D01*
X443328Y681942D01*
X441366Y679979D01*
X439978Y677576D01*
X439260Y674895D01*
Y672120D01*
X439978Y669439D01*
X441366Y667036D01*
X443328Y665073D01*
X445732Y663686D01*
X448412Y662968D01*
X451188D01*
X453868Y663686D01*
X456272Y665073D01*
X458234Y667036D01*
X459622Y669439D01*
X460340Y672120D01*
Y674895D01*
X459622Y677576D01*
X458234Y679979D01*
X456272Y681942D01*
X453868Y683329D01*
X451188Y684047D01*
D02*
G37*
G36*
X294835Y795140D02*
X292165D01*
X289586Y794449D01*
X287274Y793114D01*
X285386Y791226D01*
X284051Y788914D01*
X283360Y786335D01*
Y783665D01*
X284051Y781086D01*
X285386Y778774D01*
X287274Y776886D01*
X289586Y775551D01*
X289615Y775543D01*
Y721160D01*
X289911Y719673D01*
X290753Y718413D01*
X377460Y631706D01*
Y630558D01*
X378303Y628521D01*
X379862Y626963D01*
X381898Y626120D01*
X384102D01*
X386138Y626963D01*
X387697Y628521D01*
X388540Y630558D01*
Y632762D01*
X387697Y634798D01*
X386138Y636356D01*
X384102Y637200D01*
X382954D01*
X297385Y722769D01*
Y775543D01*
X297414Y775551D01*
X299726Y776886D01*
X301614Y778774D01*
X302949Y781086D01*
X303640Y783665D01*
Y786335D01*
X302949Y788914D01*
X301614Y791226D01*
X299726Y793114D01*
X297414Y794449D01*
X294835Y795140D01*
D02*
G37*
G36*
X345635Y642740D02*
X342965D01*
X340386Y642049D01*
X338074Y640714D01*
X336186Y638826D01*
X334851Y636514D01*
X334160Y633935D01*
Y631265D01*
X334851Y628686D01*
X336186Y626374D01*
X338074Y624486D01*
X340386Y623151D01*
X342965Y622460D01*
X345635D01*
X348214Y623151D01*
X350526Y624486D01*
X352414Y626374D01*
X353749Y628686D01*
X354440Y631265D01*
Y633935D01*
X353749Y636514D01*
X352414Y638826D01*
X350526Y640714D01*
X348214Y642049D01*
X345635Y642740D01*
D02*
G37*
G36*
X269435D02*
X266765D01*
X264186Y642049D01*
X261874Y640714D01*
X259986Y638826D01*
X258651Y636514D01*
X257960Y633935D01*
Y631265D01*
X258651Y628686D01*
X259986Y626374D01*
X261874Y624486D01*
X264186Y623151D01*
X266765Y622460D01*
X269435D01*
X272014Y623151D01*
X274326Y624486D01*
X276214Y626374D01*
X277549Y628686D01*
X278240Y631265D01*
Y633935D01*
X277549Y636514D01*
X276214Y638826D01*
X274326Y640714D01*
X272014Y642049D01*
X269435Y642740D01*
D02*
G37*
G36*
X244035D02*
X241365D01*
X238786Y642049D01*
X236474Y640714D01*
X234586Y638826D01*
X233251Y636514D01*
X232560Y633935D01*
Y631265D01*
X233251Y628686D01*
X234586Y626374D01*
X236474Y624486D01*
X238786Y623151D01*
X241365Y622460D01*
X244035D01*
X246614Y623151D01*
X248926Y624486D01*
X250814Y626374D01*
X252149Y628686D01*
X252840Y631265D01*
Y633935D01*
X252149Y636514D01*
X250814Y638826D01*
X248926Y640714D01*
X246614Y642049D01*
X244035Y642740D01*
D02*
G37*
G36*
X193235Y795140D02*
X190565D01*
X187986Y794449D01*
X185674Y793114D01*
X183786Y791226D01*
X182451Y788914D01*
X181760Y786335D01*
Y783665D01*
X182451Y781086D01*
X183786Y778774D01*
X185674Y776886D01*
X187986Y775551D01*
X188015Y775543D01*
Y750336D01*
X188311Y748850D01*
X189153Y747589D01*
X292829Y643913D01*
X292343Y642740D01*
X292165D01*
X289586Y642049D01*
X287274Y640714D01*
X285386Y638826D01*
X284051Y636514D01*
X283360Y633935D01*
Y631265D01*
X284051Y628686D01*
X285386Y626374D01*
X287274Y624486D01*
X289586Y623151D01*
X292165Y622460D01*
X293878D01*
X294873Y622293D01*
X295115Y621240D01*
Y492544D01*
X293845Y492018D01*
X209775Y576088D01*
Y624126D01*
X210948Y624612D01*
X211074Y624486D01*
X213386Y623151D01*
X215965Y622460D01*
X218635D01*
X221214Y623151D01*
X223526Y624486D01*
X225414Y626374D01*
X226749Y628686D01*
X227440Y631265D01*
Y633935D01*
X226749Y636514D01*
X225414Y638826D01*
X223526Y640714D01*
X221214Y642049D01*
X218635Y642740D01*
X215965D01*
X213386Y642049D01*
X211074Y640714D01*
X210948Y640588D01*
X209775Y641074D01*
Y715110D01*
X209479Y716597D01*
X208637Y717857D01*
X181540Y744954D01*
Y746102D01*
X180697Y748138D01*
X179138Y749697D01*
X177102Y750540D01*
X174898D01*
X172862Y749697D01*
X171303Y748138D01*
X170460Y746102D01*
Y743898D01*
X171303Y741862D01*
X172862Y740303D01*
X174898Y739460D01*
X176046D01*
X202005Y713501D01*
Y637917D01*
X200735Y637577D01*
X200014Y638826D01*
X198126Y640714D01*
X195814Y642049D01*
X193235Y642740D01*
X190565D01*
X187986Y642049D01*
X185674Y640714D01*
X183786Y638826D01*
X182451Y636514D01*
X181760Y633935D01*
Y631265D01*
X182451Y628686D01*
X183786Y626374D01*
X185674Y624486D01*
X187986Y623151D01*
X190565Y622460D01*
X193235D01*
X195814Y623151D01*
X198126Y624486D01*
X200014Y626374D01*
X200735Y627623D01*
X202005Y627283D01*
Y574479D01*
X202301Y572993D01*
X203143Y571732D01*
X380432Y394443D01*
X381693Y393601D01*
X383179Y393305D01*
X396190D01*
X397677Y393601D01*
X398937Y394443D01*
X407954Y403460D01*
X409102D01*
X411138Y404303D01*
X412697Y405862D01*
X413540Y407898D01*
Y410102D01*
X412697Y412138D01*
X411138Y413697D01*
X409102Y414540D01*
X406898D01*
X404862Y413697D01*
X403303Y412138D01*
X402460Y410102D01*
Y408954D01*
X394581Y401075D01*
X391928D01*
X391222Y402131D01*
X391540Y402898D01*
Y405102D01*
X390697Y407138D01*
X389138Y408697D01*
X387102Y409540D01*
X385954D01*
X302885Y492609D01*
Y620613D01*
X304314Y621786D01*
X306216Y624103D01*
X307630Y626747D01*
X308500Y629616D01*
X308794Y632600D01*
X308500Y635584D01*
X307630Y638453D01*
X306216Y641097D01*
X304314Y643414D01*
X303125Y644390D01*
X302547Y644955D01*
X302455Y645176D01*
X302221Y645273D01*
X301747Y645983D01*
X301469Y646260D01*
X301044Y646686D01*
X301044Y646686D01*
X301044Y646686D01*
X195785Y751945D01*
Y775543D01*
X195814Y775551D01*
X198126Y776886D01*
X200014Y778774D01*
X201349Y781086D01*
X202040Y783665D01*
Y786335D01*
X201349Y788914D01*
X200014Y791226D01*
X198126Y793114D01*
X195814Y794449D01*
X193235Y795140D01*
D02*
G37*
G36*
X167835Y642740D02*
X165165D01*
X162586Y642049D01*
X160274Y640714D01*
X158386Y638826D01*
X157051Y636514D01*
X156360Y633935D01*
Y631265D01*
X157051Y628686D01*
X158386Y626374D01*
X160274Y624486D01*
X162586Y623151D01*
X165165Y622460D01*
X167835D01*
X170414Y623151D01*
X172726Y624486D01*
X174614Y626374D01*
X175949Y628686D01*
X176640Y631265D01*
Y633935D01*
X175949Y636514D01*
X174614Y638826D01*
X172726Y640714D01*
X170414Y642049D01*
X167835Y642740D01*
D02*
G37*
G36*
X142435D02*
X139765D01*
X137186Y642049D01*
X134874Y640714D01*
X132986Y638826D01*
X131651Y636514D01*
X130960Y633935D01*
Y631265D01*
X131651Y628686D01*
X132986Y626374D01*
X134874Y624486D01*
X137186Y623151D01*
X139765Y622460D01*
X142435D01*
X145014Y623151D01*
X147326Y624486D01*
X149214Y626374D01*
X150549Y628686D01*
X151240Y631265D01*
Y633935D01*
X150549Y636514D01*
X149214Y638826D01*
X147326Y640714D01*
X145014Y642049D01*
X142435Y642740D01*
D02*
G37*
G36*
X125840D02*
X105560D01*
Y622460D01*
X125840D01*
Y642740D01*
D02*
G37*
G36*
X467702Y604940D02*
X465498D01*
X464529Y604539D01*
X360400D01*
X358433Y604148D01*
X356766Y603034D01*
X334871Y581139D01*
X327524D01*
X326630Y582034D01*
X324910Y583026D01*
X322993Y583540D01*
X321007D01*
X319090Y583026D01*
X317370Y582034D01*
X315966Y580630D01*
X314974Y578910D01*
X314460Y576993D01*
Y575007D01*
X314974Y573090D01*
X315966Y571370D01*
X317370Y569967D01*
X319090Y568974D01*
X321007Y568460D01*
X321773D01*
X465549Y424684D01*
X466303Y422862D01*
X467862Y421303D01*
X469898Y420460D01*
X472102D01*
X474138Y421303D01*
X475697Y422862D01*
X476540Y424898D01*
Y427102D01*
X475697Y429138D01*
X474138Y430697D01*
X474023Y430744D01*
X335079Y569688D01*
X335565Y570861D01*
X337000D01*
X338966Y571252D01*
X340634Y572366D01*
X362528Y594261D01*
X464529D01*
X465498Y593860D01*
X467702D01*
X469738Y594703D01*
X471297Y596262D01*
X472140Y598298D01*
Y600502D01*
X471297Y602538D01*
X469738Y604097D01*
X467702Y604940D01*
D02*
G37*
G36*
X115540Y598540D02*
X100460D01*
Y583460D01*
X115540D01*
Y598540D01*
D02*
G37*
G36*
X288540Y348540D02*
X271460D01*
Y331460D01*
X288540D01*
Y348540D01*
D02*
G37*
G36*
X410102Y346540D02*
X407898D01*
X405862Y345697D01*
X404303Y344138D01*
X403460Y342102D01*
Y339898D01*
X404303Y337862D01*
X405115Y337050D01*
Y160609D01*
X384416Y139910D01*
X384165Y140055D01*
X381421Y140790D01*
X378579D01*
X375835Y140055D01*
X373375Y138634D01*
X371366Y136625D01*
X369945Y134165D01*
X369210Y131420D01*
Y128580D01*
X369945Y125835D01*
X371366Y123375D01*
X373375Y121366D01*
X375835Y119945D01*
X378579Y119210D01*
X381421D01*
X384165Y119945D01*
X386625Y121366D01*
X388634Y123375D01*
X390055Y125835D01*
X390790Y128580D01*
Y131420D01*
X390055Y134165D01*
X389910Y134416D01*
X411747Y156253D01*
X412589Y157513D01*
X412885Y159000D01*
Y337050D01*
X413697Y337862D01*
X414540Y339898D01*
Y342102D01*
X413697Y344138D01*
X412138Y345697D01*
X410102Y346540D01*
D02*
G37*
G36*
X393540Y88540D02*
X376460D01*
Y71460D01*
X393540D01*
Y88540D01*
D02*
G37*
G36*
X695000Y788590D02*
X647000D01*
X646009Y788393D01*
X645169Y787831D01*
X644607Y786991D01*
X644410Y786000D01*
Y702000D01*
X644607Y701009D01*
X645169Y700169D01*
X646009Y699607D01*
X647000Y699410D01*
X722410D01*
Y587590D01*
X675540D01*
Y590046D01*
X684747Y599253D01*
X685589Y600513D01*
X685885Y602000D01*
Y604485D01*
X687155Y605011D01*
X687862Y604303D01*
X689898Y603460D01*
X692102D01*
X694138Y604303D01*
X695500Y605665D01*
X696862Y604303D01*
X698898Y603460D01*
X701102D01*
X703138Y604303D01*
X704500Y605665D01*
X705862Y604303D01*
X707898Y603460D01*
X710102D01*
X712138Y604303D01*
X713697Y605862D01*
X714540Y607898D01*
Y610102D01*
X713697Y612138D01*
X712335Y613500D01*
X713697Y614862D01*
X714540Y616898D01*
Y619102D01*
X713697Y621138D01*
X712335Y622500D01*
X713697Y623862D01*
X714540Y625898D01*
Y628102D01*
X713697Y630138D01*
X712335Y631500D01*
X713697Y632862D01*
X714540Y634898D01*
Y637102D01*
X713697Y639138D01*
X712335Y640500D01*
X713697Y641862D01*
X714540Y643898D01*
Y646102D01*
X713697Y648138D01*
X712138Y649697D01*
X710102Y650540D01*
X707898D01*
X705862Y649697D01*
X704500Y648335D01*
X703138Y649697D01*
X701102Y650540D01*
X698898D01*
X696862Y649697D01*
X695500Y648335D01*
X694138Y649697D01*
X692102Y650540D01*
X689898D01*
X687862Y649697D01*
X686500Y648335D01*
X685138Y649697D01*
X683102Y650540D01*
X680898D01*
X678862Y649697D01*
X677303Y648138D01*
X676460Y646102D01*
Y643898D01*
X677303Y641862D01*
X678665Y640500D01*
X677303Y639138D01*
X676460Y637102D01*
Y634898D01*
X677303Y632862D01*
X678665Y631500D01*
X677303Y630138D01*
X676460Y628102D01*
Y625898D01*
X677303Y623862D01*
X678665Y622500D01*
X677303Y621138D01*
X676460Y619102D01*
Y616898D01*
X677303Y614862D01*
X678665Y613500D01*
X677303Y612138D01*
X676460Y610102D01*
Y607898D01*
X677303Y605862D01*
X678115Y605050D01*
Y603609D01*
X670046Y595540D01*
X660460D01*
Y580460D01*
X670410D01*
Y510000D01*
X670607Y509009D01*
X671169Y508169D01*
X672009Y507607D01*
X673000Y507410D01*
X722410D01*
Y350000D01*
X722607Y349009D01*
X723169Y348169D01*
X724009Y347607D01*
X725000Y347410D01*
X776000D01*
X776991Y347607D01*
X777831Y348169D01*
X778393Y349009D01*
X778590Y350000D01*
Y566000D01*
Y748000D01*
X778393Y748991D01*
X777831Y749831D01*
X776991Y750393D01*
X776000Y750590D01*
X703073D01*
X697590Y756073D01*
Y786000D01*
X697393Y786991D01*
X696831Y787831D01*
X695991Y788393D01*
X695000Y788590D01*
D02*
G37*
G36*
X535040Y592540D02*
X519960D01*
Y577460D01*
X535040D01*
Y592540D01*
D02*
G37*
G36*
X816500Y576618D02*
X803500D01*
X801140Y576307D01*
X798941Y575396D01*
X797053Y573947D01*
X795604Y572059D01*
X794693Y569860D01*
X794382Y567500D01*
X794693Y565140D01*
X795604Y562941D01*
X797053Y561053D01*
X798941Y559604D01*
X801140Y558693D01*
X803500Y558382D01*
X816500D01*
X818860Y558693D01*
X821059Y559604D01*
X822947Y561053D01*
X824396Y562941D01*
X825307Y565140D01*
X825618Y567500D01*
X825307Y569860D01*
X824396Y572059D01*
X822947Y573947D01*
X821059Y575396D01*
X818860Y576307D01*
X816500Y576618D01*
D02*
G37*
G36*
X577540Y641540D02*
X562460D01*
Y631954D01*
X543253Y612747D01*
X542411Y611487D01*
X542115Y610000D01*
Y563950D01*
X541303Y563138D01*
X540460Y561102D01*
Y558898D01*
X541303Y556862D01*
X542862Y555303D01*
X544898Y554460D01*
X547102D01*
X549138Y555303D01*
X550697Y556862D01*
X551540Y558898D01*
Y561102D01*
X550697Y563138D01*
X549885Y563950D01*
Y608391D01*
X567954Y626460D01*
X577540D01*
Y641540D01*
D02*
G37*
G36*
X574540Y548540D02*
X559460D01*
Y533460D01*
X574540D01*
Y548540D01*
D02*
G37*
G36*
X710102Y481540D02*
X707898D01*
X705862Y480697D01*
X704500Y479335D01*
X703138Y480697D01*
X701102Y481540D01*
X698898D01*
X696862Y480697D01*
X695500Y479335D01*
X694138Y480697D01*
X692102Y481540D01*
X689898D01*
X687862Y480697D01*
X686500Y479335D01*
X685138Y480697D01*
X683102Y481540D01*
X680898D01*
X678862Y480697D01*
X677303Y479138D01*
X676460Y477102D01*
Y474898D01*
X677303Y472862D01*
X678665Y471500D01*
X677303Y470138D01*
X676460Y468102D01*
Y465898D01*
X677303Y463862D01*
X678665Y462500D01*
X677303Y461138D01*
X676460Y459102D01*
Y456898D01*
X677303Y454862D01*
X678665Y453500D01*
X677303Y452138D01*
X676460Y450102D01*
Y447898D01*
X677303Y445862D01*
X678665Y444500D01*
X677303Y443138D01*
X676460Y441102D01*
Y439954D01*
X667253Y430747D01*
X666411Y429487D01*
X666115Y428000D01*
Y427540D01*
X662460D01*
Y412460D01*
X677540D01*
Y427540D01*
X676693D01*
X676207Y428713D01*
X681954Y434460D01*
X683102D01*
X685138Y435303D01*
X686500Y436665D01*
X687862Y435303D01*
X689898Y434460D01*
X692102D01*
X694138Y435303D01*
X695500Y436665D01*
X696862Y435303D01*
X698898Y434460D01*
X701102D01*
X703138Y435303D01*
X704500Y436665D01*
X705862Y435303D01*
X707898Y434460D01*
X710102D01*
X712138Y435303D01*
X713697Y436862D01*
X714540Y438898D01*
Y441102D01*
X713697Y443138D01*
X712335Y444500D01*
X713697Y445862D01*
X714540Y447898D01*
Y450102D01*
X713697Y452138D01*
X712335Y453500D01*
X713697Y454862D01*
X714540Y456898D01*
Y459102D01*
X713697Y461138D01*
X712335Y462500D01*
X713697Y463862D01*
X714540Y465898D01*
Y468102D01*
X713697Y470138D01*
X712335Y471500D01*
X713697Y472862D01*
X714540Y474898D01*
Y477102D01*
X713697Y479138D01*
X712138Y480697D01*
X710102Y481540D01*
D02*
G37*
G36*
X816500Y441618D02*
X803500D01*
X801140Y441307D01*
X798941Y440396D01*
X797053Y438947D01*
X795604Y437059D01*
X794693Y434860D01*
X794382Y432500D01*
X794693Y430140D01*
X795604Y427941D01*
X797053Y426053D01*
X798941Y424604D01*
X801140Y423693D01*
X803500Y423382D01*
X816500D01*
X818860Y423693D01*
X821059Y424604D01*
X822947Y426053D01*
X824396Y427941D01*
X825307Y430140D01*
X825618Y432500D01*
X825307Y434860D01*
X824396Y437059D01*
X822947Y438947D01*
X821059Y440396D01*
X818860Y441307D01*
X816500Y441618D01*
D02*
G37*
G36*
X532540Y417540D02*
X517460D01*
Y402460D01*
X532540D01*
Y417540D01*
D02*
G37*
G36*
X710102Y404540D02*
X707898D01*
X705862Y403697D01*
X704500Y402335D01*
X703138Y403697D01*
X701102Y404540D01*
X698898D01*
X696862Y403697D01*
X695500Y402335D01*
X694138Y403697D01*
X692102Y404540D01*
X689898D01*
X687862Y403697D01*
X686500Y402335D01*
X685138Y403697D01*
X683102Y404540D01*
X680898D01*
X678862Y403697D01*
X677303Y402138D01*
X676460Y400102D01*
Y397898D01*
X677303Y395862D01*
X678665Y394500D01*
X677303Y393138D01*
X676460Y391102D01*
Y388898D01*
X677303Y386862D01*
X678665Y385500D01*
X677303Y384138D01*
X676460Y382102D01*
Y379898D01*
X677303Y377862D01*
X678665Y376500D01*
X677303Y375138D01*
X676460Y373102D01*
Y370898D01*
X677303Y368862D01*
X678665Y367500D01*
X677303Y366138D01*
X676460Y364102D01*
Y361898D01*
X677303Y359862D01*
X678862Y358303D01*
X680898Y357460D01*
X683102D01*
X685138Y358303D01*
X686500Y359665D01*
X687862Y358303D01*
X689898Y357460D01*
X692102D01*
X694138Y358303D01*
X695500Y359665D01*
X696862Y358303D01*
X698898Y357460D01*
X701102D01*
X703138Y358303D01*
X704500Y359665D01*
X705862Y358303D01*
X707898Y357460D01*
X710102D01*
X712138Y358303D01*
X713697Y359862D01*
X714540Y361898D01*
Y364102D01*
X713697Y366138D01*
X712335Y367500D01*
X713697Y368862D01*
X714540Y370898D01*
Y373102D01*
X713697Y375138D01*
X712335Y376500D01*
X713697Y377862D01*
X714540Y379898D01*
Y382102D01*
X713697Y384138D01*
X712335Y385500D01*
X713697Y386862D01*
X714540Y388898D01*
Y391102D01*
X713697Y393138D01*
X712335Y394500D01*
X713697Y395862D01*
X714540Y397898D01*
Y400102D01*
X713697Y402138D01*
X712138Y403697D01*
X710102Y404540D01*
D02*
G37*
G36*
X577540Y472540D02*
X562460D01*
Y462954D01*
X543253Y443747D01*
X542411Y442487D01*
X542115Y441000D01*
Y390950D01*
X541303Y390138D01*
X540460Y388102D01*
Y385898D01*
X541303Y383862D01*
X542862Y382303D01*
X544898Y381460D01*
X547102D01*
X549138Y382303D01*
X550697Y383862D01*
X551540Y385898D01*
Y388102D01*
X550697Y390138D01*
X549885Y390950D01*
Y439391D01*
X567954Y457460D01*
X577540D01*
Y472540D01*
D02*
G37*
G36*
Y370040D02*
X562460D01*
Y354960D01*
X577540D01*
Y370040D01*
D02*
G37*
G36*
X641625Y242847D02*
X633375D01*
X631635Y242618D01*
X630014Y241947D01*
X628621Y240879D01*
X627553Y239486D01*
X626882Y237865D01*
X626652Y236125D01*
Y227875D01*
X626882Y226135D01*
X627553Y224514D01*
X628621Y223121D01*
X630014Y222053D01*
X631635Y221381D01*
X633375Y221152D01*
X641625D01*
X643365Y221381D01*
X644986Y222053D01*
X646378Y223121D01*
X647447Y224514D01*
X648118Y226135D01*
X648347Y227875D01*
Y236125D01*
X648118Y237865D01*
X647447Y239486D01*
X646378Y240879D01*
X644986Y241947D01*
X643365Y242618D01*
X641625Y242847D01*
D02*
G37*
G36*
X774125Y205347D02*
X765875D01*
X764135Y205118D01*
X762514Y204447D01*
X761122Y203379D01*
X760053Y201986D01*
X759382Y200365D01*
X759153Y198625D01*
Y190375D01*
X759382Y188635D01*
X760053Y187014D01*
X761122Y185621D01*
X762514Y184553D01*
X764135Y183881D01*
X765875Y183652D01*
X774125D01*
X775865Y183881D01*
X777486Y184553D01*
X778878Y185621D01*
X779947Y187014D01*
X780619Y188635D01*
X780847Y190375D01*
Y198625D01*
X780619Y200365D01*
X779947Y201986D01*
X778878Y203379D01*
X777486Y204447D01*
X775865Y205118D01*
X774125Y205347D01*
D02*
G37*
G36*
X527125Y128348D02*
X518875D01*
X517135Y128118D01*
X515514Y127447D01*
X514122Y126378D01*
X513053Y124986D01*
X512382Y123365D01*
X512152Y121625D01*
Y113375D01*
X512382Y111635D01*
X513053Y110014D01*
X514122Y108622D01*
X515514Y107553D01*
X517135Y106882D01*
X518875Y106652D01*
X527125D01*
X528865Y106882D01*
X530486Y107553D01*
X531879Y108622D01*
X532947Y110014D01*
X533618Y111635D01*
X533848Y113375D01*
Y121625D01*
X533618Y123365D01*
X532947Y124986D01*
X531879Y126378D01*
X530486Y127447D01*
X528865Y128118D01*
X527125Y128348D01*
D02*
G37*
G36*
X661625Y90848D02*
X653375D01*
X651635Y90618D01*
X650014Y89947D01*
X648622Y88878D01*
X647553Y87486D01*
X646882Y85865D01*
X646653Y84125D01*
Y75875D01*
X646882Y74135D01*
X647553Y72514D01*
X648622Y71122D01*
X650014Y70053D01*
X651635Y69381D01*
X653375Y69152D01*
X661625D01*
X663365Y69381D01*
X664986Y70053D01*
X666378Y71122D01*
X667447Y72514D01*
X668119Y74135D01*
X668347Y75875D01*
Y84125D01*
X668119Y85865D01*
X667447Y87486D01*
X666378Y88878D01*
X664986Y89947D01*
X663365Y90618D01*
X661625Y90848D01*
D02*
G37*
%LPD*%
G36*
X695000Y755000D02*
X702000Y748000D01*
X776000D01*
Y566000D01*
Y350000D01*
X725000D01*
Y510000D01*
X673000D01*
Y580460D01*
X675540D01*
Y585000D01*
X725000D01*
Y702000D01*
X647000D01*
Y786000D01*
X695000D01*
Y755000D01*
D02*
G37*
%LPC*%
G36*
X752080Y557120D02*
X747920D01*
X743839Y556308D01*
X739996Y554716D01*
X736537Y552405D01*
X733595Y549463D01*
X731284Y546004D01*
X729692Y542160D01*
X728880Y538080D01*
Y533920D01*
X729692Y529840D01*
X731284Y525996D01*
X733595Y522537D01*
X736537Y519595D01*
X739996Y517284D01*
X743839Y515692D01*
X747920Y514880D01*
X752080D01*
X756161Y515692D01*
X760004Y517284D01*
X763463Y519595D01*
X766405Y522537D01*
X768716Y525996D01*
X770308Y529840D01*
X771120Y533920D01*
Y538080D01*
X770308Y542160D01*
X768716Y546004D01*
X766405Y549463D01*
X763463Y552405D01*
X760004Y554716D01*
X756161Y556308D01*
X752080Y557120D01*
D02*
G37*
G36*
Y485120D02*
X747920D01*
X743839Y484308D01*
X739996Y482716D01*
X736537Y480405D01*
X733595Y477463D01*
X731284Y474004D01*
X729692Y470160D01*
X728880Y466080D01*
Y461920D01*
X729692Y457840D01*
X731284Y453996D01*
X733595Y450537D01*
X736537Y447595D01*
X739996Y445284D01*
X743839Y443692D01*
X747920Y442880D01*
X752080D01*
X756161Y443692D01*
X760004Y445284D01*
X763463Y447595D01*
X766405Y450537D01*
X768716Y453996D01*
X770308Y457840D01*
X771120Y461920D01*
Y466080D01*
X770308Y470160D01*
X768716Y474004D01*
X766405Y477463D01*
X763463Y480405D01*
X760004Y482716D01*
X756161Y484308D01*
X752080Y485120D01*
D02*
G37*
G36*
X102080Y385120D02*
X97920D01*
X93840Y384308D01*
X89996Y382716D01*
X86537Y380405D01*
X83595Y377463D01*
X81284Y374004D01*
X79692Y370160D01*
X78880Y366080D01*
Y361920D01*
X79692Y357840D01*
X81284Y353996D01*
X83595Y350537D01*
X86537Y347595D01*
X89996Y345284D01*
X93840Y343692D01*
X97920Y342880D01*
X102080D01*
X106160Y343692D01*
X110004Y345284D01*
X113463Y347595D01*
X116405Y350537D01*
X118716Y353996D01*
X120308Y357840D01*
X121120Y361920D01*
Y366080D01*
X120308Y370160D01*
X118716Y374004D01*
X116405Y377463D01*
X113463Y380405D01*
X110004Y382716D01*
X106160Y384308D01*
X102080Y385120D01*
D02*
G37*
G36*
X43920Y240790D02*
X41080D01*
X38335Y240055D01*
X35875Y238634D01*
X33866Y236625D01*
X32445Y234165D01*
X31710Y231420D01*
Y228580D01*
X32445Y225835D01*
X33866Y223375D01*
X35875Y221366D01*
X38335Y219945D01*
X41080Y219210D01*
X43920D01*
X46665Y219945D01*
X49125Y221366D01*
X51134Y223375D01*
X52555Y225835D01*
X53290Y228580D01*
Y231420D01*
X52555Y234165D01*
X51134Y236625D01*
X49125Y238634D01*
X46665Y240055D01*
X43920Y240790D01*
D02*
G37*
%LPD*%
D94*
X299906Y623158D02*
G03*
X299939Y642019I-6406J9442D01*
G01*
X299000Y643236D02*
G03*
X299939Y642019I2386J871D01*
G01*
X193000Y465000D02*
X237000D01*
X251500Y479500D01*
X256269Y458190D02*
X312459Y402000D01*
X97000Y517000D02*
X155810Y458190D01*
X256269D01*
X176000Y745000D02*
X205890Y715110D01*
Y574479D02*
Y715110D01*
X670000Y428000D02*
X682000Y440000D01*
X670000Y420000D02*
Y428000D01*
X682000Y602000D02*
Y609000D01*
X668000Y588000D02*
X682000Y602000D01*
X409000Y159000D02*
Y341000D01*
X380000Y130000D02*
X409000Y159000D01*
X40634Y571735D02*
Y591436D01*
X36904Y595166D02*
X40634Y591436D01*
Y571735D02*
X95369Y517000D01*
X97000D01*
X312459Y402000D02*
X342000D01*
X191900Y750336D02*
X298297Y643939D01*
X299000Y643236D01*
X299000Y491000D02*
X299744Y490256D01*
X299000Y622252D02*
X299744Y622996D01*
X299744Y490256D02*
X386000Y404000D01*
X299000Y491000D02*
Y622252D01*
X299744Y622996D02*
X299906Y623158D01*
X182000Y682000D02*
X188000Y688000D01*
X182000Y661000D02*
Y682000D01*
X251500Y479500D02*
Y498500D01*
X205890Y574479D02*
X383179Y397190D01*
X396190D01*
X408000Y409000D01*
X293500Y721160D02*
Y785000D01*
Y721160D02*
X383000Y631660D01*
X381369Y650000D02*
X394000D01*
X318900Y712469D02*
X381369Y650000D01*
X318900Y712469D02*
Y785000D01*
X344300D02*
X371000Y758300D01*
Y670000D02*
Y758300D01*
X191900Y750336D02*
Y785000D01*
X546000Y560000D02*
Y610000D01*
X570000Y634000D01*
X546000Y441000D02*
X570000Y465000D01*
X546000Y387000D02*
Y441000D01*
D98*
X322000Y575500D02*
X471000Y426500D01*
Y426000D02*
Y426500D01*
X322000Y575500D02*
Y576000D01*
X337000D01*
X360400Y599400D01*
X466600D01*
X36904Y595166D02*
X102738Y661000D01*
X182000D01*
D100*
X42500Y230000D02*
D03*
Y80000D02*
D03*
X562500Y232000D02*
D03*
X523000Y42500D02*
D03*
X732500Y80000D02*
D03*
X770000Y269500D02*
D03*
X380000Y280000D02*
D03*
Y130000D02*
D03*
D101*
X637500Y232000D02*
D03*
X657500Y80000D02*
D03*
D102*
X100000Y436000D02*
D03*
Y364000D02*
D03*
X750000Y464000D02*
D03*
Y536000D02*
D03*
D103*
X40000Y467500D02*
D03*
Y332500D02*
D03*
X810000Y432500D02*
D03*
Y567500D02*
D03*
D104*
X280000Y340000D02*
D03*
X665707Y745000D02*
D03*
D105*
X330000Y340000D02*
D03*
X615708Y745000D02*
D03*
X385000Y30000D02*
D03*
D106*
X268100Y632600D02*
D03*
X166500D02*
D03*
X141100D02*
D03*
X191900D02*
D03*
X217300D02*
D03*
X242700D02*
D03*
X293500D02*
D03*
X318900D02*
D03*
X344300D02*
D03*
X268100Y785000D02*
D03*
X166500D02*
D03*
X141100D02*
D03*
X191900D02*
D03*
X217300D02*
D03*
X242700D02*
D03*
X293500D02*
D03*
X318900D02*
D03*
X344300D02*
D03*
D107*
X115700Y632600D02*
D03*
Y785000D02*
D03*
D108*
X449800Y673508D02*
D03*
D109*
X475200D02*
D03*
D110*
X523000Y117500D02*
D03*
X770000Y194500D02*
D03*
D111*
X385000Y80000D02*
D03*
D112*
X639000Y321000D02*
D03*
X566000Y320000D02*
D03*
X614000Y497000D02*
D03*
X534000Y495000D02*
D03*
X746000Y774000D02*
D03*
X833000Y354000D02*
D03*
X227000Y84000D02*
D03*
Y209000D02*
D03*
X182000Y538000D02*
D03*
X423000Y528000D02*
D03*
X547000Y721000D02*
D03*
X269000Y714000D02*
D03*
X72000Y719000D02*
D03*
X370000Y456000D02*
D03*
X680000Y679000D02*
D03*
X193000Y465000D02*
D03*
X176000Y745000D02*
D03*
X815000Y382000D02*
D03*
X254000Y551000D02*
D03*
X667000Y673000D02*
D03*
X649000D02*
D03*
X669000Y504000D02*
D03*
X653000D02*
D03*
X768000Y370000D02*
D03*
X750000D02*
D03*
X730000D02*
D03*
X768000Y388000D02*
D03*
X750000D02*
D03*
X730000D02*
D03*
X768000Y403000D02*
D03*
X750000D02*
D03*
X730000D02*
D03*
X294000Y13000D02*
D03*
X272000D02*
D03*
X294000Y29000D02*
D03*
X272000D02*
D03*
X294000Y45000D02*
D03*
X272000D02*
D03*
X294000Y61000D02*
D03*
X272000D02*
D03*
X294000Y75000D02*
D03*
X272000D02*
D03*
X409000Y341000D02*
D03*
X145000Y14000D02*
D03*
X127000D02*
D03*
X145000Y29000D02*
D03*
X127000D02*
D03*
X145000Y44000D02*
D03*
X127000D02*
D03*
X145000Y58000D02*
D03*
X127000Y59000D02*
D03*
X145000Y74000D02*
D03*
X127000D02*
D03*
X342000Y402000D02*
D03*
X280000Y477000D02*
D03*
X707000Y771000D02*
D03*
X514000Y546000D02*
D03*
Y373000D02*
D03*
X471000Y426000D02*
D03*
X466600Y599400D02*
D03*
X488000Y746000D02*
D03*
X391750Y769500D02*
D03*
X188000Y688000D02*
D03*
X182000Y661000D02*
D03*
X390250Y445000D02*
D03*
X450000Y365000D02*
D03*
X60000Y504000D02*
D03*
X39000D02*
D03*
X18000D02*
D03*
X69000Y519000D02*
D03*
X48000D02*
D03*
X27000D02*
D03*
X9000Y520000D02*
D03*
X59000Y538000D02*
D03*
X38000D02*
D03*
X18000Y539000D02*
D03*
X68000Y554000D02*
D03*
X48000D02*
D03*
X27000D02*
D03*
X10000D02*
D03*
X108000Y591000D02*
D03*
X251500Y498500D02*
D03*
X163000Y325000D02*
D03*
X171000Y306000D02*
D03*
X155000D02*
D03*
Y342000D02*
D03*
X147000Y360000D02*
D03*
Y325000D02*
D03*
Y288000D02*
D03*
X234000D02*
D03*
X219000D02*
D03*
X205000D02*
D03*
X191000D02*
D03*
X177000D02*
D03*
X164000D02*
D03*
X228000Y306000D02*
D03*
X213000D02*
D03*
X199000D02*
D03*
X185000D02*
D03*
X234000Y325000D02*
D03*
X219000D02*
D03*
X205000D02*
D03*
X191000D02*
D03*
X177000D02*
D03*
X227000Y342000D02*
D03*
X212565D02*
D03*
X198000D02*
D03*
X184000D02*
D03*
X170000D02*
D03*
X234000Y360000D02*
D03*
X219000D02*
D03*
X205000D02*
D03*
X191000D02*
D03*
X177000D02*
D03*
X163000D02*
D03*
X408000Y409000D02*
D03*
X471000Y440000D02*
D03*
X455000Y397000D02*
D03*
X470000Y614000D02*
D03*
X454000Y572000D02*
D03*
X383000Y631660D02*
D03*
X394000Y650000D02*
D03*
X371000Y670000D02*
D03*
X386000Y404000D02*
D03*
X36904Y595166D02*
D03*
X467500Y782500D02*
D03*
X435000Y727500D02*
D03*
X567000Y541000D02*
D03*
X546000Y560000D02*
D03*
X527500Y585000D02*
D03*
X570000Y634000D02*
D03*
X525000Y410000D02*
D03*
X570000Y362500D02*
D03*
Y465000D02*
D03*
X546000Y387000D02*
D03*
X682000Y645000D02*
D03*
Y627000D02*
D03*
Y609000D02*
D03*
X691000D02*
D03*
X700000D02*
D03*
X709000D02*
D03*
Y618000D02*
D03*
X700000D02*
D03*
X691000D02*
D03*
Y627000D02*
D03*
X700000D02*
D03*
X709000D02*
D03*
Y636000D02*
D03*
X700000D02*
D03*
X691000D02*
D03*
Y645000D02*
D03*
X700000D02*
D03*
X709000D02*
D03*
X682000Y636000D02*
D03*
Y618000D02*
D03*
Y568000D02*
D03*
Y550000D02*
D03*
Y532000D02*
D03*
X691000D02*
D03*
X700000D02*
D03*
X709000D02*
D03*
Y541000D02*
D03*
X700000D02*
D03*
X691000D02*
D03*
Y550000D02*
D03*
X700000D02*
D03*
X709000D02*
D03*
Y559000D02*
D03*
X700000D02*
D03*
X691000D02*
D03*
Y568000D02*
D03*
X700000D02*
D03*
X709000D02*
D03*
X682000Y559000D02*
D03*
Y541000D02*
D03*
Y476000D02*
D03*
Y458000D02*
D03*
Y440000D02*
D03*
X691000D02*
D03*
X700000D02*
D03*
X709000D02*
D03*
Y449000D02*
D03*
X700000D02*
D03*
X691000D02*
D03*
Y458000D02*
D03*
X700000D02*
D03*
X709000D02*
D03*
Y467000D02*
D03*
X700000D02*
D03*
X691000D02*
D03*
Y476000D02*
D03*
X700000D02*
D03*
X709000D02*
D03*
X682000Y467000D02*
D03*
Y449000D02*
D03*
Y399000D02*
D03*
Y381000D02*
D03*
Y363000D02*
D03*
X691000D02*
D03*
X700000D02*
D03*
X709000D02*
D03*
Y372000D02*
D03*
X700000D02*
D03*
X691000D02*
D03*
Y381000D02*
D03*
X700000D02*
D03*
X709000D02*
D03*
Y390000D02*
D03*
X700000D02*
D03*
X691000D02*
D03*
Y399000D02*
D03*
X700000D02*
D03*
X709000D02*
D03*
X682000Y390000D02*
D03*
Y372000D02*
D03*
D113*
X355000Y464000D02*
D03*
X668000Y658000D02*
D03*
X651000D02*
D03*
X669000Y492000D02*
D03*
X653000D02*
D03*
X310000Y495000D02*
D03*
X322000Y576000D02*
D03*
X303000Y399000D02*
D03*
X18000Y684000D02*
D03*
D122*
X299744Y622996D02*
D03*
D123*
X668000Y588000D02*
D03*
X670000Y420000D02*
D03*
X108000Y591000D02*
D03*
X570000Y465000D02*
D03*
X435000Y727500D02*
D03*
X570000Y634000D02*
D03*
X567000Y541000D02*
D03*
X527500Y585000D02*
D03*
X570000Y362500D02*
D03*
X525000Y410000D02*
D03*
D124*
X36904Y595166D02*
D03*
X467500Y782500D02*
D03*
M02*
