G04*
G04 #@! TF.GenerationSoftware,Altium Limited,Altium Designer,21.6.4 (81)*
G04*
G04 Layer_Color=8388736*
%FSLAX44Y44*%
%MOMM*%
G71*
G04*
G04 #@! TF.SameCoordinates,6345E517-F44B-4F0B-96C8-749CB5923BEE*
G04*
G04*
G04 #@! TF.FilePolarity,Negative*
G04*
G01*
G75*
%ADD24R,1.5562X0.9562*%
%ADD26R,0.9500X1.4500*%
%ADD29R,0.9562X1.5562*%
%ADD33R,1.4500X0.9500*%
%ADD46R,1.3561X1.8582*%
%ADD49R,0.9532X1.6532*%
%ADD50R,1.4032X8.9032*%
%ADD51R,1.4032X1.8032*%
%ADD52R,1.1032X1.5032*%
%ADD53R,1.5032X1.1032*%
%ADD54R,1.5532X1.7532*%
%ADD55R,1.1632X1.5932*%
%ADD56R,1.7032X0.8032*%
%ADD57R,1.7532X1.5532*%
%ADD58R,1.7282X0.8532*%
%ADD59R,1.4032X1.3032*%
%ADD60R,1.7032X2.7032*%
%ADD61R,7.2032X7.2032*%
%ADD62R,5.4032X3.9532*%
%ADD63R,1.3032X1.4032*%
%ADD64R,1.8032X3.7032*%
%ADD65R,2.4532X3.4032*%
%ADD66R,1.3032X2.0032*%
%ADD67R,10.3532X8.3032*%
%ADD68R,1.3532X3.8032*%
%ADD69R,1.5932X1.1632*%
%ADD70R,0.9532X1.4532*%
%ADD71R,1.4532X0.9532*%
%ADD72R,0.8500X0.5000*%
%ADD73R,1.4532X3.7232*%
%ADD74R,3.6032X7.8032*%
%ADD75C,1.8532*%
G04:AMPARAMS|DCode=76|XSize=1.8532mm|YSize=1.8532mm|CornerRadius=0.5141mm|HoleSize=0mm|Usage=FLASHONLY|Rotation=0.000|XOffset=0mm|YOffset=0mm|HoleType=Round|Shape=RoundedRectangle|*
%AMROUNDEDRECTD76*
21,1,1.8532,0.8250,0,0,0.0*
21,1,0.8250,1.8532,0,0,0.0*
1,1,1.0282,0.4125,-0.4125*
1,1,1.0282,-0.4125,-0.4125*
1,1,1.0282,-0.4125,0.4125*
1,1,1.0282,0.4125,0.4125*
%
%ADD76ROUNDEDRECTD76*%
%ADD77C,0.2000*%
%ADD78C,3.9192*%
%ADD79O,2.8032X1.5032*%
%ADD80R,1.4032X1.4032*%
%ADD81C,1.4032*%
%ADD82C,1.7232*%
%ADD83R,1.7232X1.7232*%
%ADD84C,1.8032*%
%ADD85R,1.8032X1.8032*%
G04:AMPARAMS|DCode=86|XSize=1.8532mm|YSize=1.8532mm|CornerRadius=0.5141mm|HoleSize=0mm|Usage=FLASHONLY|Rotation=90.000|XOffset=0mm|YOffset=0mm|HoleType=Round|Shape=RoundedRectangle|*
%AMROUNDEDRECTD86*
21,1,1.8532,0.8250,0,0,90.0*
21,1,0.8250,1.8532,0,0,90.0*
1,1,1.0282,0.4125,0.4125*
1,1,1.0282,0.4125,-0.4125*
1,1,1.0282,-0.4125,-0.4125*
1,1,1.0282,-0.4125,0.4125*
%
%ADD86ROUNDEDRECTD86*%
%ADD87R,1.4032X1.4032*%
%ADD88C,0.7016*%
%ADD89C,1.1016*%
%ADD90C,0.7000*%
%ADD91C,0.8032*%
G36*
X723250Y403050D02*
X677750D01*
Y358950D01*
X723250D01*
Y364950D01*
X715250D01*
Y371650D01*
X723250D01*
Y377650D01*
X715250D01*
Y384350D01*
X723250D01*
Y390350D01*
X715250D01*
Y397050D01*
X723250D01*
Y403050D01*
D02*
G37*
G36*
Y480050D02*
X677750D01*
Y435950D01*
X723250D01*
Y441950D01*
X715250D01*
Y448650D01*
X723250D01*
Y454650D01*
X715250D01*
Y461350D01*
X723250D01*
Y467350D01*
X715250D01*
Y474050D01*
X723250D01*
Y480050D01*
D02*
G37*
G36*
Y572050D02*
X677750D01*
Y527950D01*
X723250D01*
Y533950D01*
X715250D01*
Y540650D01*
X723250D01*
Y546650D01*
X715250D01*
Y553350D01*
X723250D01*
Y559350D01*
X715250D01*
Y566050D01*
X723250D01*
Y572050D01*
D02*
G37*
G36*
Y649050D02*
X677750D01*
Y604950D01*
X723250D01*
Y610950D01*
X715250D01*
Y617650D01*
X723250D01*
Y623650D01*
X715250D01*
Y630350D01*
X723250D01*
Y636350D01*
X715250D01*
Y643050D01*
X723250D01*
Y649050D01*
D02*
G37*
D24*
X91840Y530750D02*
D03*
Y554250D02*
D03*
X15000Y619664D02*
D03*
Y643164D02*
D03*
X505355Y729250D02*
D03*
Y705750D02*
D03*
X364824Y413573D02*
D03*
Y437074D02*
D03*
D26*
X487750Y407000D02*
D03*
X468250D02*
D03*
X411250Y750000D02*
D03*
X391750D02*
D03*
X37250Y665737D02*
D03*
X17750D02*
D03*
X279750Y605000D02*
D03*
X260250D02*
D03*
X468708Y581058D02*
D03*
X488208D02*
D03*
X468708Y563000D02*
D03*
X488208D02*
D03*
X468250Y385000D02*
D03*
X487750D02*
D03*
D29*
X478250Y727500D02*
D03*
X454750D02*
D03*
X316750Y665000D02*
D03*
X293250D02*
D03*
X631750Y577500D02*
D03*
X608250D02*
D03*
X611750Y407500D02*
D03*
X588250D02*
D03*
D33*
X445000Y324750D02*
D03*
Y305250D02*
D03*
X265000Y515250D02*
D03*
Y534750D02*
D03*
Y480250D02*
D03*
Y499750D02*
D03*
X430000Y429043D02*
D03*
Y409543D02*
D03*
X505000Y324750D02*
D03*
Y305250D02*
D03*
D46*
X609739Y627000D02*
D03*
X640261D02*
D03*
X609739Y605000D02*
D03*
X640261D02*
D03*
X609739Y547000D02*
D03*
X640261D02*
D03*
X609739Y525000D02*
D03*
X640261D02*
D03*
X609739Y460000D02*
D03*
X640261D02*
D03*
X609739Y435000D02*
D03*
X640261D02*
D03*
X609739Y380000D02*
D03*
X640261D02*
D03*
X609739Y355000D02*
D03*
X640261D02*
D03*
D49*
X681500Y665000D02*
D03*
X703500D02*
D03*
D50*
X452207Y221292D02*
D03*
X496208D02*
D03*
D51*
Y283792D02*
D03*
X452207D02*
D03*
D52*
X145500Y757500D02*
D03*
X164500D02*
D03*
X289500Y400000D02*
D03*
X270500D02*
D03*
X409500Y425000D02*
D03*
X390500D02*
D03*
X370500Y333208D02*
D03*
X389500D02*
D03*
X260500Y565000D02*
D03*
X279500D02*
D03*
X160500Y465000D02*
D03*
X179500Y465000D02*
D03*
X803500Y383000D02*
D03*
X784500D02*
D03*
X465000Y320000D02*
D03*
X484000D02*
D03*
D53*
X707500Y740500D02*
D03*
Y759500D02*
D03*
X450000Y345500D02*
D03*
Y364500D02*
D03*
D54*
X456750Y705000D02*
D03*
X476250D02*
D03*
X411250Y769500D02*
D03*
X391750D02*
D03*
X409750Y445000D02*
D03*
X390250D02*
D03*
D55*
X435900Y787500D02*
D03*
X452100D02*
D03*
D56*
X474000Y757500D02*
D03*
X455000Y748000D02*
D03*
Y767000D02*
D03*
D57*
X433792Y750250D02*
D03*
Y769750D02*
D03*
D58*
X375380Y353450D02*
D03*
Y366150D02*
D03*
Y378850D02*
D03*
Y391550D02*
D03*
X429620D02*
D03*
Y378850D02*
D03*
Y366150D02*
D03*
Y353450D02*
D03*
X562120Y596550D02*
D03*
Y583850D02*
D03*
Y571150D02*
D03*
Y558450D02*
D03*
X507880D02*
D03*
Y571150D02*
D03*
Y583850D02*
D03*
Y596550D02*
D03*
X562120Y424050D02*
D03*
Y411350D02*
D03*
Y398650D02*
D03*
Y385950D02*
D03*
X507880D02*
D03*
Y398650D02*
D03*
Y411350D02*
D03*
Y424050D02*
D03*
D59*
X40324Y645883D02*
D03*
Y624883D02*
D03*
D60*
X62500Y587500D02*
D03*
X16500D02*
D03*
D61*
X39500Y525000D02*
D03*
D62*
X185000Y494500D02*
D03*
Y595500D02*
D03*
D63*
X326043Y605000D02*
D03*
X305042D02*
D03*
D64*
X310000Y492000D02*
D03*
Y548000D02*
D03*
D65*
X265500Y440000D02*
D03*
X334500D02*
D03*
D66*
X295500Y275000D02*
D03*
X324500Y275000D02*
D03*
D67*
X193000Y323500D02*
D03*
D68*
X159000Y430000D02*
D03*
X176000D02*
D03*
X193000D02*
D03*
X210000D02*
D03*
X227000D02*
D03*
D69*
X486208Y615600D02*
D03*
Y599400D02*
D03*
Y440600D02*
D03*
Y424400D02*
D03*
X85000Y574123D02*
D03*
Y590324D02*
D03*
D70*
X590000Y602824D02*
D03*
Y635824D02*
D03*
Y516000D02*
D03*
Y549000D02*
D03*
Y433500D02*
D03*
Y466500D02*
D03*
Y348500D02*
D03*
Y381500D02*
D03*
D71*
X513500Y615000D02*
D03*
X546500D02*
D03*
X513500Y445000D02*
D03*
X546500D02*
D03*
D72*
X661000Y607950D02*
D03*
Y620650D02*
D03*
Y633350D02*
D03*
Y646050D02*
D03*
Y530950D02*
D03*
Y543650D02*
D03*
Y556350D02*
D03*
Y569050D02*
D03*
Y438950D02*
D03*
Y451650D02*
D03*
Y464350D02*
D03*
Y477050D02*
D03*
Y361950D02*
D03*
Y374650D02*
D03*
Y387350D02*
D03*
Y400050D02*
D03*
D73*
X794800Y721000D02*
D03*
X755200D02*
D03*
X794800Y681333D02*
D03*
X755200D02*
D03*
X794800Y641667D02*
D03*
X755200D02*
D03*
X795000Y602000D02*
D03*
X755400D02*
D03*
D74*
X283500Y223458D02*
D03*
X136500D02*
D03*
Y42457D02*
D03*
X283500D02*
D03*
D75*
X42500Y230000D02*
D03*
Y80000D02*
D03*
X562500Y232000D02*
D03*
X523000Y42500D02*
D03*
X732500Y80000D02*
D03*
X770000Y269500D02*
D03*
X380000Y280000D02*
D03*
Y130000D02*
D03*
D76*
X637500Y232000D02*
D03*
X657500Y80000D02*
D03*
D77*
X820000Y770000D02*
D03*
X30000Y30000D02*
D03*
Y770000D02*
D03*
X820000Y30000D02*
D03*
D78*
X100000Y436000D02*
D03*
Y364000D02*
D03*
X750000Y464000D02*
D03*
Y536000D02*
D03*
D79*
X40000Y467500D02*
D03*
Y332500D02*
D03*
X810000Y432500D02*
D03*
Y567500D02*
D03*
D80*
X280000Y340000D02*
D03*
X665707Y745000D02*
D03*
D81*
X330000Y340000D02*
D03*
X615708Y745000D02*
D03*
X385000Y30000D02*
D03*
D82*
X268100Y632600D02*
D03*
X166500D02*
D03*
X141100D02*
D03*
X191900D02*
D03*
X217300D02*
D03*
X242700D02*
D03*
X293500D02*
D03*
X318900D02*
D03*
X344300D02*
D03*
X268100Y785000D02*
D03*
X166500D02*
D03*
X141100D02*
D03*
X191900D02*
D03*
X217300D02*
D03*
X242700D02*
D03*
X293500D02*
D03*
X318900D02*
D03*
X344300D02*
D03*
D83*
X115700Y632600D02*
D03*
Y785000D02*
D03*
D84*
X449800Y673508D02*
D03*
D85*
X475200D02*
D03*
D86*
X523000Y117500D02*
D03*
X770000Y194500D02*
D03*
D87*
X385000Y80000D02*
D03*
D88*
X639000Y321000D02*
D03*
X566000Y320000D02*
D03*
X614000Y497000D02*
D03*
X534000Y495000D02*
D03*
X746000Y774000D02*
D03*
X833000Y354000D02*
D03*
X227000Y84000D02*
D03*
Y209000D02*
D03*
X182000Y538000D02*
D03*
X423000Y528000D02*
D03*
X547000Y721000D02*
D03*
X269000Y714000D02*
D03*
X72000Y719000D02*
D03*
X370000Y456000D02*
D03*
X680000Y679000D02*
D03*
X193000Y465000D02*
D03*
X176000Y745000D02*
D03*
X815000Y382000D02*
D03*
X254000Y551000D02*
D03*
X667000Y673000D02*
D03*
X649000D02*
D03*
X669000Y504000D02*
D03*
X653000D02*
D03*
X768000Y370000D02*
D03*
X750000D02*
D03*
X730000D02*
D03*
X768000Y388000D02*
D03*
X750000D02*
D03*
X730000D02*
D03*
X768000Y403000D02*
D03*
X750000D02*
D03*
X730000D02*
D03*
X294000Y13000D02*
D03*
X272000D02*
D03*
X294000Y29000D02*
D03*
X272000D02*
D03*
X294000Y45000D02*
D03*
X272000D02*
D03*
X294000Y61000D02*
D03*
X272000D02*
D03*
X294000Y75000D02*
D03*
X272000D02*
D03*
X409000Y341000D02*
D03*
X145000Y14000D02*
D03*
X127000D02*
D03*
X145000Y29000D02*
D03*
X127000D02*
D03*
X145000Y44000D02*
D03*
X127000D02*
D03*
X145000Y58000D02*
D03*
X127000Y59000D02*
D03*
X145000Y74000D02*
D03*
X127000D02*
D03*
X342000Y402000D02*
D03*
X280000Y477000D02*
D03*
X707000Y771000D02*
D03*
X514000Y546000D02*
D03*
Y373000D02*
D03*
X471000Y426000D02*
D03*
X466600Y599400D02*
D03*
X488000Y746000D02*
D03*
X391750Y769500D02*
D03*
X188000Y688000D02*
D03*
X182000Y661000D02*
D03*
X390250Y445000D02*
D03*
X450000Y365000D02*
D03*
X60000Y504000D02*
D03*
X39000D02*
D03*
X18000D02*
D03*
X69000Y519000D02*
D03*
X48000D02*
D03*
X27000D02*
D03*
X9000Y520000D02*
D03*
X59000Y538000D02*
D03*
X38000D02*
D03*
X18000Y539000D02*
D03*
X68000Y554000D02*
D03*
X48000D02*
D03*
X27000D02*
D03*
X10000D02*
D03*
X108000Y591000D02*
D03*
X251500Y498500D02*
D03*
X163000Y325000D02*
D03*
X171000Y306000D02*
D03*
X155000D02*
D03*
Y342000D02*
D03*
X147000Y360000D02*
D03*
Y325000D02*
D03*
Y288000D02*
D03*
X234000D02*
D03*
X219000D02*
D03*
X205000D02*
D03*
X191000D02*
D03*
X177000D02*
D03*
X164000D02*
D03*
X228000Y306000D02*
D03*
X213000D02*
D03*
X199000D02*
D03*
X185000D02*
D03*
X234000Y325000D02*
D03*
X219000D02*
D03*
X205000D02*
D03*
X191000D02*
D03*
X177000D02*
D03*
X227000Y342000D02*
D03*
X212565D02*
D03*
X198000D02*
D03*
X184000D02*
D03*
X170000D02*
D03*
X234000Y360000D02*
D03*
X219000D02*
D03*
X205000D02*
D03*
X191000D02*
D03*
X177000D02*
D03*
X163000D02*
D03*
X408000Y409000D02*
D03*
X471000Y440000D02*
D03*
X455000Y397000D02*
D03*
X470000Y614000D02*
D03*
X454000Y572000D02*
D03*
X383000Y631660D02*
D03*
X394000Y650000D02*
D03*
X371000Y670000D02*
D03*
X386000Y404000D02*
D03*
X36904Y595166D02*
D03*
X467500Y782500D02*
D03*
X435000Y727500D02*
D03*
X567000Y541000D02*
D03*
X546000Y560000D02*
D03*
X527500Y585000D02*
D03*
X570000Y634000D02*
D03*
X525000Y410000D02*
D03*
X570000Y362500D02*
D03*
Y465000D02*
D03*
X546000Y387000D02*
D03*
X682000Y627000D02*
D03*
Y609000D02*
D03*
X691000D02*
D03*
X700000D02*
D03*
X709000D02*
D03*
Y618000D02*
D03*
X700000D02*
D03*
X691000D02*
D03*
Y627000D02*
D03*
X700000D02*
D03*
X709000D02*
D03*
Y636000D02*
D03*
X700000D02*
D03*
X691000D02*
D03*
Y645000D02*
D03*
X700000D02*
D03*
X709000D02*
D03*
X682000Y618000D02*
D03*
Y550000D02*
D03*
Y532000D02*
D03*
X691000D02*
D03*
X700000D02*
D03*
X709000D02*
D03*
Y541000D02*
D03*
X700000D02*
D03*
X691000D02*
D03*
Y550000D02*
D03*
X700000D02*
D03*
X709000D02*
D03*
Y559000D02*
D03*
X700000D02*
D03*
X691000D02*
D03*
Y568000D02*
D03*
X700000D02*
D03*
X709000D02*
D03*
X682000Y541000D02*
D03*
Y458000D02*
D03*
Y440000D02*
D03*
X691000D02*
D03*
X700000D02*
D03*
X709000D02*
D03*
Y449000D02*
D03*
X700000D02*
D03*
X691000D02*
D03*
Y458000D02*
D03*
X700000D02*
D03*
X709000D02*
D03*
Y467000D02*
D03*
X700000D02*
D03*
X691000D02*
D03*
Y476000D02*
D03*
X700000D02*
D03*
X709000D02*
D03*
X682000Y449000D02*
D03*
Y381000D02*
D03*
Y363000D02*
D03*
X691000D02*
D03*
X700000D02*
D03*
X709000D02*
D03*
Y372000D02*
D03*
X700000D02*
D03*
X691000D02*
D03*
Y381000D02*
D03*
X700000D02*
D03*
X709000D02*
D03*
Y390000D02*
D03*
X700000D02*
D03*
X691000D02*
D03*
Y399000D02*
D03*
X700000D02*
D03*
X709000D02*
D03*
X682000Y372000D02*
D03*
D89*
X355000Y464000D02*
D03*
X668000Y658000D02*
D03*
X651000D02*
D03*
X669000Y492000D02*
D03*
X653000D02*
D03*
X310000Y495000D02*
D03*
X322000Y576000D02*
D03*
X303000Y399000D02*
D03*
X18000Y684000D02*
D03*
D90*
X682000Y645000D02*
D03*
Y568000D02*
D03*
Y476000D02*
D03*
Y399000D02*
D03*
D91*
Y636000D02*
D03*
Y559000D02*
D03*
Y467000D02*
D03*
Y390000D02*
D03*
M02*
