G04*
G04 #@! TF.GenerationSoftware,Altium Limited,Altium Designer,21.6.4 (81)*
G04*
G04 Layer_Color=16711935*
%FSLAX44Y44*%
%MOMM*%
G71*
G04*
G04 #@! TF.SameCoordinates,3C3A1148-CEAA-43B7-A459-4803B486FB21*
G04*
G04*
G04 #@! TF.FilePolarity,Positive*
G04*
G01*
G75*
%ADD10C,0.2000*%
%ADD13C,0.1270*%
%ADD14C,0.1000*%
G36*
X374795Y297330D02*
X371295Y292000D01*
X378295D01*
X374795Y297330D01*
D02*
G37*
G36*
X562159Y439017D02*
X562201Y439007D01*
X562315Y438965D01*
X562368Y438934D01*
X562430Y438892D01*
X562440Y438882D01*
X562451Y438861D01*
X562472Y438840D01*
X562492Y438798D01*
X562534Y438694D01*
X562555Y438632D01*
Y438528D01*
X562545Y438496D01*
Y438455D01*
X562503Y438351D01*
X562472Y438288D01*
X562430Y438236D01*
Y438226D01*
X562409Y438215D01*
X562378Y438194D01*
X562347Y438163D01*
X562295Y438132D01*
X562232Y438111D01*
X562170Y438101D01*
X562086Y438090D01*
X553651D01*
X553641D01*
X553609D01*
X553568Y438101D01*
X553516Y438111D01*
X553401Y438142D01*
X553339Y438184D01*
X553287Y438226D01*
Y438236D01*
X553266Y438246D01*
X553255Y438278D01*
X553234Y438319D01*
X553203Y438424D01*
X553182Y438559D01*
Y438590D01*
X553193Y438621D01*
Y438673D01*
X553234Y438778D01*
X553255Y438840D01*
X553297Y438892D01*
X553307Y438903D01*
X553318Y438913D01*
X553349Y438934D01*
X553380Y438955D01*
X553432Y438986D01*
X553495Y439007D01*
X553568Y439017D01*
X553651Y439027D01*
X562086D01*
X562097D01*
X562118D01*
X562159Y439017D01*
D02*
G37*
G36*
X560816Y436205D02*
X560878Y436195D01*
X560962Y436185D01*
X561139Y436143D01*
X561347Y436080D01*
X561566Y435987D01*
X561680Y435924D01*
X561795Y435851D01*
X561899Y435768D01*
X562003Y435674D01*
X562014Y435664D01*
X562024Y435653D01*
X562055Y435622D01*
X562086Y435580D01*
X562128Y435528D01*
X562180Y435466D01*
X562284Y435310D01*
X562378Y435112D01*
X562472Y434883D01*
X562534Y434633D01*
X562545Y434497D01*
X562555Y434352D01*
Y431977D01*
X562545Y431936D01*
X562534Y431894D01*
X562492Y431779D01*
X562461Y431727D01*
X562409Y431675D01*
X562399Y431665D01*
X562388Y431654D01*
X562357Y431634D01*
X562315Y431602D01*
X562211Y431561D01*
X562149Y431550D01*
X562086Y431540D01*
X562076D01*
X562055D01*
X562024Y431550D01*
X561982D01*
X561878Y431592D01*
X561826Y431613D01*
X561763Y431654D01*
X561753D01*
X561743Y431675D01*
X561722Y431707D01*
X561691Y431738D01*
X561659Y431790D01*
X561639Y431852D01*
X561628Y431925D01*
X561618Y432009D01*
Y434414D01*
X561607Y434487D01*
X561586Y434581D01*
X561555Y434685D01*
X561503Y434799D01*
X561441Y434904D01*
X561347Y435018D01*
X561337Y435028D01*
X561326Y435039D01*
X561295Y435060D01*
X561253Y435091D01*
X561160Y435154D01*
X561035Y435216D01*
X561024D01*
X561003Y435226D01*
X560972Y435237D01*
X560930Y435247D01*
X560816Y435268D01*
X560681Y435279D01*
X555057D01*
X555036D01*
X554994D01*
X554921Y435268D01*
X554828Y435247D01*
X554713Y435216D01*
X554609Y435164D01*
X554495Y435101D01*
X554380Y435018D01*
Y435008D01*
X554359Y434997D01*
X554338Y434966D01*
X554318Y434924D01*
X554245Y434831D01*
X554182Y434716D01*
Y434706D01*
X554172Y434685D01*
X554161Y434643D01*
X554151Y434591D01*
X554130Y434477D01*
X554120Y434352D01*
Y431977D01*
X554109Y431936D01*
X554099Y431894D01*
X554057Y431779D01*
X554026Y431727D01*
X553974Y431675D01*
X553963Y431665D01*
X553953Y431654D01*
X553922Y431634D01*
X553880Y431602D01*
X553776Y431561D01*
X553713Y431550D01*
X553651Y431540D01*
X553641D01*
X553620D01*
X553588Y431550D01*
X553547D01*
X553443Y431592D01*
X553391Y431613D01*
X553328Y431654D01*
X553318D01*
X553307Y431675D01*
X553287Y431707D01*
X553255Y431738D01*
X553224Y431790D01*
X553203Y431852D01*
X553193Y431925D01*
X553182Y432009D01*
Y434425D01*
X553193Y434477D01*
X553203Y434549D01*
X553214Y434622D01*
X553255Y434799D01*
X553318Y435008D01*
X553411Y435226D01*
X553474Y435341D01*
X553547Y435445D01*
X553630Y435560D01*
X553724Y435664D01*
X553734Y435674D01*
X553745Y435685D01*
X553776Y435716D01*
X553818Y435747D01*
X553870Y435789D01*
X553932Y435841D01*
X554099Y435935D01*
X554286Y436039D01*
X554515Y436132D01*
X554776Y436195D01*
X554911Y436205D01*
X555057Y436216D01*
X560681D01*
X560691D01*
X560712D01*
X560753D01*
X560816Y436205D01*
D02*
G37*
G36*
X562159Y429645D02*
X562232Y429634D01*
X562326Y429592D01*
X562409Y429540D01*
X562482Y429457D01*
X562534Y429342D01*
X562555Y429270D01*
Y425406D01*
X562545Y425375D01*
X562534Y425323D01*
X562492Y425219D01*
X562461Y425167D01*
X562409Y425114D01*
X562399Y425104D01*
X562388Y425094D01*
X562357Y425073D01*
X562315Y425042D01*
X562211Y424989D01*
X562149Y424979D01*
X562086Y424969D01*
X562076D01*
X562055D01*
X562024Y424979D01*
X561982D01*
X561878Y425021D01*
X561826Y425052D01*
X561763Y425094D01*
X561753D01*
X561743Y425114D01*
X561722Y425146D01*
X561691Y425177D01*
X561659Y425229D01*
X561639Y425291D01*
X561628Y425354D01*
X561618Y425437D01*
Y428718D01*
X558806D01*
Y427218D01*
X558796Y427156D01*
X558785Y427072D01*
X558775Y426978D01*
X558754Y426864D01*
X558723Y426749D01*
X558639Y426489D01*
X558587Y426354D01*
X558514Y426218D01*
X558442Y426073D01*
X558348Y425937D01*
X558244Y425802D01*
X558119Y425666D01*
X558108Y425656D01*
X558087Y425635D01*
X558046Y425604D01*
X557994Y425552D01*
X557931Y425500D01*
X557848Y425448D01*
X557754Y425385D01*
X557650Y425312D01*
X557535Y425250D01*
X557411Y425187D01*
X557129Y425073D01*
X556973Y425031D01*
X556817Y425000D01*
X556640Y424979D01*
X556463Y424969D01*
X555526D01*
X555515D01*
X555484D01*
X555432D01*
X555369Y424979D01*
X555286Y424989D01*
X555182Y425010D01*
X555078Y425031D01*
X554963Y425052D01*
X554703Y425135D01*
X554567Y425198D01*
X554422Y425260D01*
X554286Y425344D01*
X554141Y425437D01*
X554005Y425541D01*
X553870Y425666D01*
X553859Y425677D01*
X553839Y425698D01*
X553807Y425739D01*
X553766Y425791D01*
X553713Y425854D01*
X553651Y425937D01*
X553588Y426031D01*
X553526Y426125D01*
X553464Y426239D01*
X553401Y426375D01*
X553287Y426645D01*
X553245Y426801D01*
X553214Y426968D01*
X553193Y427135D01*
X553182Y427312D01*
Y429217D01*
X553193Y429259D01*
X553203Y429311D01*
X553234Y429426D01*
X553266Y429488D01*
X553307Y429540D01*
X553318D01*
X553339Y429561D01*
X553359Y429572D01*
X553401Y429592D01*
X553516Y429634D01*
X553578Y429645D01*
X553651Y429655D01*
X553661D01*
X553682D01*
X553713Y429645D01*
X553755D01*
X553849Y429603D01*
X553911Y429582D01*
X553963Y429540D01*
X553974Y429530D01*
X553984Y429520D01*
X554016Y429488D01*
X554047Y429447D01*
X554068Y429395D01*
X554099Y429342D01*
X554109Y429270D01*
X554120Y429186D01*
Y427260D01*
X554130Y427218D01*
X554141Y427104D01*
X554172Y426968D01*
X554213Y426822D01*
X554286Y426656D01*
X554380Y426489D01*
X554515Y426322D01*
X554536Y426302D01*
X554588Y426260D01*
X554672Y426187D01*
X554797Y426114D01*
X554942Y426041D01*
X555109Y425968D01*
X555307Y425927D01*
X555526Y425906D01*
X556463D01*
X556473D01*
X556484D01*
X556515D01*
X556557Y425916D01*
X556671Y425927D01*
X556806Y425958D01*
X556952Y426000D01*
X557119Y426073D01*
X557285Y426177D01*
X557452Y426312D01*
X557473Y426333D01*
X557515Y426385D01*
X557588Y426468D01*
X557660Y426593D01*
X557733Y426739D01*
X557806Y426906D01*
X557848Y427093D01*
X557869Y427312D01*
Y429207D01*
X557879Y429259D01*
X557890Y429332D01*
X557931Y429415D01*
X557983Y429509D01*
X558066Y429582D01*
X558181Y429634D01*
X558254Y429645D01*
X558337Y429655D01*
X562086D01*
X562097D01*
X562107D01*
X562159Y429645D01*
D02*
G37*
D10*
X195300Y400000D02*
G03*
X195300Y400000I-1000J0D01*
G01*
X220330Y209000D02*
G03*
X220330Y209000I-1000J0D01*
G01*
X310300Y400000D02*
G03*
X310300Y400000I-1000J0D01*
G01*
X121700Y209000D02*
G03*
X121700Y209000I-1000J0D01*
G01*
X781000Y267000D02*
G03*
X781000Y267000I-1000J0D01*
G01*
X101000Y383000D02*
G03*
X101000Y383000I-1000J0D01*
G01*
X266000Y120000D02*
Y136000D01*
X234000D02*
X266000D01*
X234000Y120000D02*
Y136000D01*
Y120000D02*
X266000D01*
X147000Y489000D02*
Y505000D01*
Y489000D02*
X179000D01*
Y505000D01*
X147000D02*
X179000D01*
X138000Y120000D02*
Y136000D01*
Y120000D02*
X170000D01*
Y136000D01*
X138000D02*
X170000D01*
X246000Y490000D02*
Y506000D01*
Y490000D02*
X278000D01*
Y506000D01*
X246000D02*
X278000D01*
X281000Y119000D02*
Y141000D01*
X295000D01*
Y119000D02*
Y141000D01*
X281000Y119000D02*
X295000D01*
X137207Y506000D02*
Y528000D01*
X123208Y506000D02*
X137207D01*
X123208D02*
Y528000D01*
X137207D01*
X227000Y84000D02*
Y106000D01*
X241000D01*
Y84000D02*
Y106000D01*
X227000Y84000D02*
X241000D01*
X188000Y487000D02*
Y509000D01*
X202000D01*
Y487000D02*
Y509000D01*
X188000Y487000D02*
X202000D01*
X254000Y73000D02*
X276000D01*
Y59000D02*
Y73000D01*
X254000Y59000D02*
X276000D01*
X254000D02*
Y73000D01*
X148000Y553000D02*
X170000D01*
X148000D02*
Y567000D01*
X170000D01*
Y553000D02*
Y567000D01*
X406000Y192000D02*
X428000D01*
Y178000D02*
Y192000D01*
X406000Y178000D02*
X428000D01*
X406000D02*
Y192000D01*
X199000Y81000D02*
Y103000D01*
X185000Y81000D02*
X199000D01*
X185000D02*
Y103000D01*
X199000D01*
X237000Y487000D02*
Y509000D01*
X223000Y487000D02*
X237000D01*
X223000D02*
Y509000D01*
X237000D01*
X188000Y113700D02*
Y135700D01*
X202000D01*
Y113700D02*
Y135700D01*
X188000Y113700D02*
X202000D01*
X292000Y514000D02*
Y536000D01*
X278000Y514000D02*
X292000D01*
X278000D02*
Y536000D01*
X292000D01*
X144000Y73000D02*
X166000D01*
Y59000D02*
Y73000D01*
X144000Y59000D02*
X166000D01*
X144000D02*
Y73000D01*
X245000Y553000D02*
X267000D01*
X245000D02*
Y567000D01*
X267000D01*
Y553000D02*
Y567000D01*
X645000Y263000D02*
X667000D01*
Y249000D02*
Y263000D01*
X645000Y249000D02*
X667000D01*
X645000D02*
Y263000D01*
X642000Y210000D02*
X664000D01*
Y196000D02*
Y210000D01*
X642000Y196000D02*
X664000D01*
X642000D02*
Y210000D01*
X391838Y292822D02*
X413838D01*
Y278822D02*
Y292822D01*
X391838Y278822D02*
X413838D01*
X391838D02*
Y292822D01*
X494000Y526000D02*
X516000D01*
Y512000D02*
Y526000D01*
X494000Y512000D02*
X516000D01*
X494000D02*
Y526000D01*
X856992Y194000D02*
Y216000D01*
X870993D01*
Y194000D02*
Y216000D01*
X856992Y194000D02*
X870993D01*
X155000Y238318D02*
X173000D01*
Y272318D01*
X155000D02*
X173000D01*
X155000Y238318D02*
Y272318D01*
X179543Y238318D02*
X197543D01*
Y272318D01*
X179543D02*
X197543D01*
X179543Y238318D02*
Y272318D01*
X204085Y238318D02*
X222085D01*
Y272318D01*
X204085D02*
X222085D01*
X204085Y238318D02*
Y272318D01*
X228628Y238318D02*
X246628D01*
Y272318D01*
X228628D02*
X246628D01*
X228628Y238318D02*
Y272318D01*
X642408Y574893D02*
X723708D01*
Y502493D02*
Y574893D01*
X642408Y502493D02*
X723708D01*
X642408D02*
Y574893D01*
X600807Y317600D02*
X682107D01*
X600807D02*
Y390000D01*
X682107D01*
Y317600D02*
Y390000D01*
X695000Y212000D02*
X745000D01*
X695000D02*
Y322000D01*
X745000D01*
Y212000D02*
Y322000D01*
X593000Y146250D02*
X613000D01*
Y133750D02*
Y146250D01*
X593000Y133750D02*
X613000D01*
X593000D02*
Y146250D01*
X220000Y71250D02*
X240000D01*
Y58750D02*
Y71250D01*
X220000Y58750D02*
X240000D01*
X220000D02*
Y71250D01*
X195250Y523000D02*
Y543000D01*
X182750Y523000D02*
X195250D01*
X182750D02*
Y543000D01*
X195250D01*
X387750Y110000D02*
Y130000D01*
X400250D01*
Y110000D02*
Y130000D01*
X387750Y110000D02*
X400250D01*
X391000Y204324D02*
X411000D01*
X391000D02*
Y216824D01*
X411000D01*
Y204324D02*
Y216824D01*
X130250Y80000D02*
Y100000D01*
X117750Y80000D02*
X130250D01*
X117750D02*
Y100000D01*
X130250D01*
X292250Y550000D02*
Y570000D01*
X279750Y550000D02*
X292250D01*
X279750D02*
Y570000D01*
X292250D01*
X570000Y193223D02*
X590000D01*
X570000D02*
Y205723D01*
X590000D01*
Y193223D02*
Y205723D01*
X278500Y40000D02*
Y54000D01*
X258500Y40000D02*
X278500D01*
X258500D02*
Y54000D01*
X278500D01*
X213500Y553000D02*
Y567000D01*
X193500Y553000D02*
X213500D01*
X193500D02*
Y567000D01*
X213500D01*
X480822Y356808D02*
Y445708D01*
X579822Y356808D02*
Y445708D01*
X480822Y356808D02*
X579822D01*
X480822Y445708D02*
X579822D01*
D13*
X125500Y394625D02*
Y445375D01*
X184500D01*
Y394625D02*
Y445375D01*
X125500Y394625D02*
X184500D01*
X229130Y214375D02*
X288130D01*
X229130Y163625D02*
Y214375D01*
Y163625D02*
X288130D01*
Y214375D01*
X240500Y394625D02*
Y445375D01*
X299500D01*
Y394625D02*
Y445375D01*
X240500Y394625D02*
X299500D01*
X130500Y214375D02*
X189500D01*
X130500Y163625D02*
Y214375D01*
Y163625D02*
X189500D01*
Y214375D01*
X761500Y272500D02*
X933500D01*
Y427500D01*
X761500D02*
X933500D01*
X761500Y272500D02*
Y427500D01*
X-53500Y377500D02*
X118500D01*
X-53500Y222500D02*
Y377500D01*
Y222500D02*
X118500D01*
Y377500D01*
D14*
X242500Y705500D02*
G03*
X242500Y705500I-92500J0D01*
G01*
X434500D02*
G03*
X434500Y705500I-92500J0D01*
G01*
X624500D02*
G03*
X624500Y705500I-92500J0D01*
G01*
X814500D02*
G03*
X814500Y705500I-92500J0D01*
G01*
X630000Y565000D02*
G03*
X630000Y565000I-50000J0D01*
G01*
X617000Y465750D02*
Y478250D01*
X597000Y465750D02*
Y478250D01*
Y465750D02*
X617000D01*
X597000Y478250D02*
X617000D01*
X393088Y300365D02*
Y312865D01*
X413088Y300365D02*
Y312865D01*
X393088D02*
X413088D01*
X393088Y300365D02*
X413088D01*
X630708Y230500D02*
Y269500D01*
X581707Y230500D02*
X630708D01*
X581707D02*
Y269500D01*
X630708D01*
X618008D02*
X630708Y256800D01*
X467530Y327658D02*
Y452658D01*
X342530Y327658D02*
X467530D01*
X342530D02*
Y452658D01*
X467530D01*
X513457Y541707D02*
Y600708D01*
X433957D02*
X513457D01*
X433957Y541707D02*
Y600708D01*
Y541707D02*
X513457D01*
X301750Y179000D02*
X314250D01*
Y199000D01*
X301750D02*
X314250D01*
X301750Y179000D02*
Y199000D01*
X148000Y367818D02*
X180000D01*
X148000Y322818D02*
Y367818D01*
Y322818D02*
X180000D01*
Y367818D01*
X190000D02*
X222000D01*
X190000Y322818D02*
Y367818D01*
Y322818D02*
X222000D01*
Y367818D01*
X232000D02*
X264000D01*
X232000Y322818D02*
Y367818D01*
Y322818D02*
X264000D01*
Y367818D01*
X727742Y343592D02*
Y375592D01*
X752742D01*
Y343592D02*
Y375592D01*
X727742Y343592D02*
X752742D01*
X693500D02*
Y375592D01*
X718500D01*
Y343592D02*
Y375592D01*
X693500Y343592D02*
X718500D01*
X69500Y119000D02*
Y151000D01*
X94500D01*
Y119000D02*
Y151000D01*
X69500Y119000D02*
X94500D01*
Y179408D02*
Y211408D01*
X69500Y179408D02*
X94500D01*
X69500D02*
Y211408D01*
X94500D01*
X66500Y393343D02*
Y425342D01*
X91500D01*
Y393343D02*
Y425342D01*
X66500Y393343D02*
X91500D01*
Y451000D02*
Y483000D01*
X66500Y451000D02*
X91500D01*
X66500D02*
Y483000D01*
X91500D01*
X596115Y503457D02*
X627115D01*
Y487458D02*
Y503457D01*
X596115Y487458D02*
X627115D01*
X596115D02*
Y503457D01*
X381750Y171000D02*
X396250D01*
X381750Y149000D02*
X396250D01*
Y171000D01*
X381750Y149000D02*
Y171000D01*
X404750Y144000D02*
X419250D01*
X404750Y166000D02*
X419250D01*
X404750Y144000D02*
Y166000D01*
X419250Y144000D02*
Y166000D01*
X424750D02*
X439250D01*
X424750Y144000D02*
X439250D01*
Y166000D01*
X424750Y144000D02*
Y166000D01*
X452750Y495000D02*
X467250D01*
X452750Y473000D02*
X467250D01*
Y495000D01*
X452750Y473000D02*
Y495000D01*
X822992Y195750D02*
Y210250D01*
X844993Y195750D02*
Y210250D01*
X822992D02*
X844993D01*
X822992Y195750D02*
X844993D01*
X443750Y125000D02*
Y145000D01*
X456250D01*
Y125000D02*
Y145000D01*
X443750Y125000D02*
X456250D01*
X662250Y219443D02*
Y239443D01*
X649750Y219443D02*
X662250D01*
X649750D02*
Y239443D01*
X662250D01*
X609308Y194958D02*
X629308D01*
X609308D02*
Y207458D01*
X629308D01*
Y194958D02*
Y207458D01*
X644000Y270293D02*
X664000D01*
X644000D02*
Y282793D01*
X664000D01*
Y270293D02*
Y282793D01*
X757600Y214700D02*
X808400D01*
Y189300D02*
Y214700D01*
X757600Y189300D02*
X808400D01*
X757600D02*
Y214700D01*
X694600Y442700D02*
X745400D01*
Y417300D02*
Y442700D01*
X694600Y417300D02*
X745400D01*
X694600D02*
Y442700D01*
Y412700D02*
X745400D01*
Y387300D02*
Y412700D01*
X694600Y387300D02*
X745400D01*
X694600D02*
Y412700D01*
X405300Y123958D02*
X435700D01*
X405300Y109958D02*
X435700D01*
Y123958D01*
X405300Y109958D02*
Y123958D01*
X823992Y216750D02*
X843992D01*
X823992Y229250D02*
X843992D01*
Y216750D02*
Y229250D01*
X823992Y216750D02*
Y229250D01*
X124207Y560000D02*
X136707D01*
X124207Y540000D02*
X136707D01*
Y560000D01*
X124207Y540000D02*
Y560000D01*
X223750Y540000D02*
X236250D01*
X223750Y520000D02*
X236250D01*
Y540000D01*
X223750Y520000D02*
Y540000D01*
X264000Y538000D02*
X273500Y528500D01*
X244500Y538000D02*
X273500D01*
X244500Y522000D02*
Y538000D01*
Y522000D02*
X273500D01*
Y538000D01*
X381045Y285000D02*
Y305000D01*
X368545D02*
X381045D01*
X368545Y285000D02*
Y305000D01*
Y285000D02*
X381045D01*
X840500Y455000D02*
Y605000D01*
X769500Y455000D02*
X840500D01*
X769500D02*
Y605000D01*
X840500D01*
X755000Y465000D02*
X769500D01*
X755000D02*
Y479000D01*
X769500D01*
X840500Y595000D02*
X855000D01*
Y581000D02*
Y595000D01*
X840500Y581000D02*
X855000D01*
X245500Y97500D02*
X255000Y88000D01*
X245500D02*
X274500D01*
Y104000D01*
X245500D02*
X274500D01*
X245500Y88000D02*
Y104000D01*
X281750Y85000D02*
X294250D01*
X281750Y105000D02*
X294250D01*
X281750Y85000D02*
Y105000D01*
X294250Y85000D02*
Y105000D01*
X135500Y97500D02*
X145000Y88000D01*
X135500D02*
X164500D01*
Y104000D01*
X135500D02*
X164500D01*
X135500Y88000D02*
Y104000D01*
X168750Y85000D02*
X181250D01*
X168750Y105000D02*
X181250D01*
X168750Y85000D02*
Y105000D01*
X181250Y85000D02*
Y105000D01*
X165000Y538000D02*
X174500Y528500D01*
X145500Y538000D02*
X174500D01*
X145500Y522000D02*
Y538000D01*
Y522000D02*
X174500D01*
Y538000D01*
X809500Y2500D02*
Y27500D01*
X550500D02*
X809500D01*
X550500Y2500D02*
Y27500D01*
Y2500D02*
X809500D01*
Y154900D02*
Y179900D01*
X550500D02*
X809500D01*
X550500Y154900D02*
Y179900D01*
Y154900D02*
X809500D01*
X305743Y322818D02*
Y367818D01*
X273743Y322818D02*
X305743D01*
X273743D02*
Y367818D01*
X305743D01*
X431750Y492000D02*
X444250D01*
X431750Y472000D02*
X444250D01*
Y492000D01*
X431750Y472000D02*
Y492000D01*
M02*
