G04*
G04 #@! TF.GenerationSoftware,Altium Limited,Altium Designer,21.6.4 (81)*
G04*
G04 Layer_Color=0*
%FSLAX44Y44*%
%MOMM*%
G71*
G04*
G04 #@! TF.SameCoordinates,3C3A1148-CEAA-43B7-A459-4803B486FB21*
G04*
G04*
G04 #@! TF.FilePolarity,Positive*
G04*
G01*
G75*
%ADD14C,0.1000*%
D14*
X250000Y123000D02*
Y133000D01*
X245000Y128000D02*
X255000D01*
X163000Y492000D02*
Y502000D01*
X158000Y497000D02*
X168000D01*
X154000Y123000D02*
Y133000D01*
X149000Y128000D02*
X159000D01*
X262000Y493000D02*
Y503000D01*
X257000Y498000D02*
X267000D01*
X288000Y125000D02*
Y135000D01*
X283000Y130000D02*
X293000D01*
X130208Y512000D02*
Y522000D01*
X125208Y517000D02*
X135208D01*
X234000Y90000D02*
Y100000D01*
X229000Y95000D02*
X239000D01*
X195000Y493000D02*
Y503000D01*
X190000Y498000D02*
X200000D01*
X260000Y66000D02*
X270000D01*
X265000Y61000D02*
Y71000D01*
X154000Y560000D02*
X164000D01*
X159000Y555000D02*
Y565000D01*
X412000Y185000D02*
X422000D01*
X417000Y180000D02*
Y190000D01*
X192000Y87000D02*
Y97000D01*
X187000Y92000D02*
X197000D01*
X230000Y493000D02*
Y503000D01*
X225000Y498000D02*
X235000D01*
X195000Y119700D02*
Y129700D01*
X190000Y124700D02*
X200000D01*
X285000Y520000D02*
Y530000D01*
X280000Y525000D02*
X290000D01*
X150000Y66000D02*
X160000D01*
X155000Y61000D02*
Y71000D01*
X251000Y560000D02*
X261000D01*
X256000Y555000D02*
Y565000D01*
X651000Y256000D02*
X661000D01*
X656000Y251000D02*
Y261000D01*
X648000Y203000D02*
X658000D01*
X653000Y198000D02*
Y208000D01*
X397838Y285822D02*
X407838D01*
X402838Y280822D02*
Y290822D01*
X500000Y519000D02*
X510000D01*
X505000Y514000D02*
Y524000D01*
X863993Y200000D02*
Y210000D01*
X858993Y205000D02*
X868992D01*
X159000Y255318D02*
X169000D01*
X164000Y250318D02*
Y260318D01*
X183543Y255318D02*
X193542D01*
X188542Y250318D02*
Y260318D01*
X208085Y255318D02*
X218085D01*
X213085Y250318D02*
Y260318D01*
X232628Y255318D02*
X242628D01*
X237628Y250318D02*
Y260318D01*
X598000Y140000D02*
X608000D01*
X603000Y135000D02*
Y145000D01*
X225000Y65000D02*
X235000D01*
X230000Y60000D02*
Y70000D01*
X189000Y528000D02*
Y538000D01*
X184000Y533000D02*
X194000D01*
X394000Y115000D02*
Y125000D01*
X389000Y120000D02*
X399000D01*
X396000Y210574D02*
X406000D01*
X401000Y205574D02*
Y215574D01*
X124000Y85000D02*
Y95000D01*
X119000Y90000D02*
X129000D01*
X286000Y555000D02*
Y565000D01*
X281000Y560000D02*
X291000D01*
X575000Y199473D02*
X585000D01*
X580000Y194473D02*
Y204473D01*
M02*
