G04*
G04 #@! TF.GenerationSoftware,Altium Limited,Altium Designer,21.6.4 (81)*
G04*
G04 Layer_Color=16711935*
%FSLAX44Y44*%
%MOMM*%
G71*
G04*
G04 #@! TF.SameCoordinates,3C3A1148-CEAA-43B7-A459-4803B486FB21*
G04*
G04*
G04 #@! TF.FilePolarity,Negative*
G04*
G01*
G75*
%ADD76C,1.7032*%
%ADD77R,1.7032X1.7032*%
%ADD78R,1.4032X1.4032*%
%ADD79C,1.4032*%
%ADD80O,2.8032X1.5032*%
%ADD81C,3.9192*%
%ADD82C,1.8032*%
%ADD83R,1.8032X1.8032*%
%ADD84C,0.2000*%
%ADD85C,1.7232*%
%ADD86R,1.7232X1.7232*%
%ADD87C,0.7016*%
%ADD88C,1.1016*%
%ADD118R,1.2032X1.2032*%
%ADD119R,1.2032X1.2032*%
D76*
X150000Y743000D02*
D03*
X342000D02*
D03*
X532000D02*
D03*
X722000D02*
D03*
D77*
X150000Y668000D02*
D03*
X342000D02*
D03*
X532000D02*
D03*
X722000D02*
D03*
D78*
X580000Y540000D02*
D03*
D79*
Y590000D02*
D03*
D80*
X840000Y417500D02*
D03*
Y282500D02*
D03*
X40000Y232500D02*
D03*
Y367500D02*
D03*
D81*
X780000Y386000D02*
D03*
Y314000D02*
D03*
X100000Y264000D02*
D03*
Y336000D02*
D03*
D82*
X795700Y202000D02*
D03*
X732700Y430000D02*
D03*
Y400000D02*
D03*
D83*
X770300Y202000D02*
D03*
X707300Y430000D02*
D03*
Y400000D02*
D03*
D84*
X30000Y30000D02*
D03*
Y770000D02*
D03*
X850000D02*
D03*
Y30000D02*
D03*
D85*
X641900Y15000D02*
D03*
X743500D02*
D03*
X768900D02*
D03*
X718100D02*
D03*
X692700D02*
D03*
X667300D02*
D03*
X616500D02*
D03*
X591100D02*
D03*
X565700D02*
D03*
X641900Y167400D02*
D03*
X743500D02*
D03*
X768900D02*
D03*
X718100D02*
D03*
X692700D02*
D03*
X667300D02*
D03*
X616500D02*
D03*
X591100D02*
D03*
X565700D02*
D03*
D86*
X794300Y15000D02*
D03*
Y167400D02*
D03*
D87*
X725000Y325000D02*
D03*
Y298000D02*
D03*
Y286000D02*
D03*
Y261000D02*
D03*
Y274000D02*
D03*
Y248000D02*
D03*
Y311000D02*
D03*
X713000D02*
D03*
Y274000D02*
D03*
Y248000D02*
D03*
Y261000D02*
D03*
Y286000D02*
D03*
Y298000D02*
D03*
Y325000D02*
D03*
X80000Y508000D02*
D03*
X79000Y573000D02*
D03*
X80000Y631000D02*
D03*
Y694000D02*
D03*
X24000Y691000D02*
D03*
X22000Y631000D02*
D03*
X21000Y570000D02*
D03*
X20000Y509000D02*
D03*
Y455000D02*
D03*
X21000Y397000D02*
D03*
X51000Y328000D02*
D03*
X52000Y261000D02*
D03*
Y210000D02*
D03*
X23000Y186000D02*
D03*
X24000Y147000D02*
D03*
X25000Y103000D02*
D03*
X79000Y104000D02*
D03*
X80000Y59000D02*
D03*
X79000Y12000D02*
D03*
X117000D02*
D03*
X180000D02*
D03*
X241000Y13000D02*
D03*
X303000Y14000D02*
D03*
X137707Y438250D02*
D03*
X150163D02*
D03*
X162620D02*
D03*
X125250D02*
D03*
X150163Y420000D02*
D03*
X137707D02*
D03*
X162620D02*
D03*
X125250D02*
D03*
X162620Y400950D02*
D03*
X150163D02*
D03*
X137707D02*
D03*
X125250D02*
D03*
X288380Y208050D02*
D03*
X275923D02*
D03*
X263467D02*
D03*
X251010D02*
D03*
X288380Y189000D02*
D03*
X251010D02*
D03*
X275923D02*
D03*
X263467D02*
D03*
X288380Y170750D02*
D03*
X251010D02*
D03*
X263467D02*
D03*
X275923D02*
D03*
X252707Y438250D02*
D03*
X265163D02*
D03*
X277620D02*
D03*
X240250D02*
D03*
X265163Y420000D02*
D03*
X252707D02*
D03*
X277620D02*
D03*
X240250D02*
D03*
X277620Y400950D02*
D03*
X265163D02*
D03*
X252707D02*
D03*
X240250D02*
D03*
X189750Y208050D02*
D03*
X177293D02*
D03*
X164837D02*
D03*
X152380D02*
D03*
X189750Y189000D02*
D03*
X152380D02*
D03*
X177293D02*
D03*
X164837D02*
D03*
X189750Y170750D02*
D03*
X152380D02*
D03*
X164837D02*
D03*
X177293D02*
D03*
X208000Y191000D02*
D03*
X230000Y560000D02*
D03*
X299000Y455000D02*
D03*
X184000Y453000D02*
D03*
X450000Y112000D02*
D03*
X372000Y136000D02*
D03*
X230000Y157000D02*
D03*
X131000Y156000D02*
D03*
X612000Y258000D02*
D03*
X672000Y288000D02*
D03*
X630000Y620000D02*
D03*
X629000Y675000D02*
D03*
X595000Y620000D02*
D03*
X593000Y675000D02*
D03*
X461000Y626000D02*
D03*
Y674000D02*
D03*
X400000Y625000D02*
D03*
X399000Y674000D02*
D03*
X282000Y626000D02*
D03*
X281000Y674000D02*
D03*
X211000Y627000D02*
D03*
Y673000D02*
D03*
X648057Y587493D02*
D03*
X663057D02*
D03*
X683057D02*
D03*
X703057D02*
D03*
X718057D02*
D03*
X648057Y572493D02*
D03*
X663057D02*
D03*
X683057D02*
D03*
X703057D02*
D03*
X718057D02*
D03*
X648057Y557493D02*
D03*
X663057D02*
D03*
X683057D02*
D03*
X703057D02*
D03*
X718057D02*
D03*
X648057Y542493D02*
D03*
X663057D02*
D03*
X683057D02*
D03*
X703057D02*
D03*
X718057D02*
D03*
X648057Y527493D02*
D03*
X663057D02*
D03*
X683057D02*
D03*
X703057D02*
D03*
X718057D02*
D03*
X648057Y514493D02*
D03*
X663057D02*
D03*
X683057D02*
D03*
X703057D02*
D03*
X718057D02*
D03*
X676458Y305000D02*
D03*
X661458D02*
D03*
X641458D02*
D03*
X621457D02*
D03*
X606457D02*
D03*
X676458Y320000D02*
D03*
X661458D02*
D03*
X641458D02*
D03*
X621457D02*
D03*
X606457D02*
D03*
X676458Y335000D02*
D03*
X661458D02*
D03*
X641458D02*
D03*
X621457D02*
D03*
X606457D02*
D03*
X676458Y350000D02*
D03*
X661458D02*
D03*
X641458D02*
D03*
X621457D02*
D03*
X606457D02*
D03*
X676458Y365000D02*
D03*
X661458D02*
D03*
X641458D02*
D03*
X621457D02*
D03*
X606457D02*
D03*
X676458Y378000D02*
D03*
X661458D02*
D03*
X641458D02*
D03*
X621457D02*
D03*
X606457D02*
D03*
X118000Y116000D02*
D03*
X180000Y66000D02*
D03*
X210000Y110000D02*
D03*
X93000Y164000D02*
D03*
X76000D02*
D03*
X59000D02*
D03*
Y181000D02*
D03*
X157000Y456000D02*
D03*
X140000D02*
D03*
X123000D02*
D03*
X106000Y405000D02*
D03*
Y422000D02*
D03*
Y456000D02*
D03*
Y438000D02*
D03*
X89000D02*
D03*
X73000D02*
D03*
X57000D02*
D03*
X315000Y490000D02*
D03*
Y479000D02*
D03*
Y467000D02*
D03*
Y456000D02*
D03*
Y445000D02*
D03*
Y384000D02*
D03*
Y396000D02*
D03*
Y408000D02*
D03*
Y420000D02*
D03*
Y433000D02*
D03*
X341000Y548000D02*
D03*
X295000Y585770D02*
D03*
X215000Y574000D02*
D03*
X143000Y290000D02*
D03*
X158000D02*
D03*
X174000D02*
D03*
X189000D02*
D03*
X205000D02*
D03*
X220000D02*
D03*
X235000D02*
D03*
X251000D02*
D03*
Y305000D02*
D03*
X235000D02*
D03*
X220000D02*
D03*
X205000D02*
D03*
X189000D02*
D03*
X174000D02*
D03*
X158000D02*
D03*
X143000D02*
D03*
X221000Y471000D02*
D03*
X207000D02*
D03*
X221000Y460000D02*
D03*
X207000D02*
D03*
X221000Y449000D02*
D03*
X207000D02*
D03*
X221000Y388000D02*
D03*
X207000D02*
D03*
X221000Y400000D02*
D03*
X207000D02*
D03*
X221000Y413000D02*
D03*
X207000D02*
D03*
X221000Y425000D02*
D03*
X207000D02*
D03*
X221000Y438000D02*
D03*
X207000D02*
D03*
X300250Y534750D02*
D03*
X617000Y455000D02*
D03*
X410000Y91000D02*
D03*
X447000Y176000D02*
D03*
X332000Y200000D02*
D03*
X824000Y187000D02*
D03*
X612000Y188000D02*
D03*
X542000Y186000D02*
D03*
X389000Y191000D02*
D03*
X360000Y312000D02*
D03*
X413000Y230000D02*
D03*
X576000Y341000D02*
D03*
Y359000D02*
D03*
Y376000D02*
D03*
Y395000D02*
D03*
X553000Y341000D02*
D03*
Y359000D02*
D03*
Y376000D02*
D03*
Y395000D02*
D03*
X530000Y341000D02*
D03*
Y359000D02*
D03*
X530322Y376000D02*
D03*
X530000Y395000D02*
D03*
X507000Y341000D02*
D03*
Y359000D02*
D03*
Y376000D02*
D03*
Y394000D02*
D03*
X484000Y341000D02*
D03*
Y359000D02*
D03*
Y376000D02*
D03*
Y394000D02*
D03*
X553000Y412000D02*
D03*
X576000D02*
D03*
X484000D02*
D03*
X530000D02*
D03*
X507000D02*
D03*
X521287Y458000D02*
D03*
X483000Y510000D02*
D03*
X416000Y571000D02*
D03*
X859000Y229000D02*
D03*
X674000Y474000D02*
D03*
X631000Y420000D02*
D03*
D88*
X536000Y279000D02*
D03*
X636000Y477000D02*
D03*
D118*
X214000Y420000D02*
D03*
X230000Y158000D02*
D03*
X184000Y453000D02*
D03*
X208000Y191000D02*
D03*
X372000Y136000D02*
D03*
X450000Y112000D02*
D03*
X131000Y156000D02*
D03*
X299000Y455000D02*
D03*
X180000Y65000D02*
D03*
D119*
X230000Y560000D02*
D03*
M02*
