M48
;Layer_Color=9474304
;FILE_FORMAT=4:4
METRIC,LZ
;TYPE=PLATED
T1F00S00C0.3000
T2F00S00C0.3500
T3F00S00C0.5000
T4F00S00C0.8000
T5F00S00C0.9000
T6F00S00C1.0200
T7F00S00C1.1000
T8F00S00C1.3000
T9F00S00C2.0000
;TYPE=NON_PLATED
T10F00S00C3.2000
%
T01
X0072Y002825
X007325
X007425
X00765Y003025
X007425Y003325
X007325
X0072
X0081Y003575
X008Y00417
X00682Y00398
Y00389
X00673
Y00398
X00664
Y00389
Y0038
X00655
Y00389
Y00398
Y00371
Y00362
X00664
Y00371
X00673
Y00362
X00682
Y00371
Y0038
X00673
Y00328
Y00319
X00682
Y00328
Y0031
X00673
Y00301
Y00292
X00682
Y00301
X00664
Y00292
X00655
Y00301
Y0031
X00664
Y00319
Y00328
X00655
Y00319
X006225Y003475
X0057Y003425
X00555Y003375
X005625Y0037
X005175Y003675
X00502515Y00367197
X0048Y00385
X00466012Y003575
X00495Y0033
Y00315
X005025Y00301063
X00425Y0033
X0037275Y0032975
X00337Y00327
X00339Y00414
X0039Y00385
X0042723Y0041527
X00425Y004625
X004025Y00465
X006025Y004275
X0063
X0064
X007075Y003325
X0071Y002825
X006725Y002475
Y00235
Y002225
X0027Y00414
X00181Y0042
X00194Y00494
X00204Y00538
Y00564
X0019Y00554
X00176Y00565
X00161Y00554
Y00578
X00146Y00565
X00147Y00538
X00176
X0019Y00579
X00176Y00595
X00205
X00231Y00608
X00243
X00256
X00269
X00302Y00589
X00282Y00559
X00146Y00595
X00094Y00615
X00093Y00684
X00092Y00731
X000175Y006575
X00095Y00523
X00096Y00472
X00245Y00729
X00237Y00766
X00285Y00761
X0034298Y007575
X00395
X00545Y00715
Y006975
Y0065
Y005925
X005625Y005875
X00615Y00595
X00655Y00588
Y00579
Y0057
X00664
Y00561
Y00552
X00655
Y00561
X00673
Y00552
X00682
Y00561
Y0057
X00673
Y00579
X00682
Y00588
X00673
X00664
Y00579
Y00622
Y00631
X00673
Y00622
X00682
Y00631
Y0064
X00673
X00664
X00655
Y00649
Y00658
X00664
Y00649
X00673
X00682
Y00658
X00673
X00655Y00631
Y00622
X006975Y006
X007025Y00585
Y0057
Y00555
X007Y0054
X00685Y005375
X0067
X00655
X005025
X0047Y0054
X004775Y005875
X0048Y006
X00495Y0062
X00507499Y00617499
X0043Y005175
X004375Y005075
X00352Y00567
X0066Y007225
X00675
X006925
Y00755
X0066
X00725Y0077
X008125Y007325
X008Y00504
X00867
T02
X006275Y003725
X0063Y004125
X0064
X006225Y006375
Y006525
X006275Y00675
X0064Y00669433
T03
X00334598Y00502098
X005Y0052
T04
X00418Y0003
X0054Y00045
X0068
X0075Y0017
Y0022
X00635Y002
X00585
X0054Y00095
X00418Y0008
X0068Y00095
T05
X00627661Y00743785
X00677661
T06
X001757Y006326
X002011
X002265
X002519
X002773
X003027
Y00785
X002773
X002519
X002265
X002011
X001757
X003281
X003535
X003789
X004043
Y006326
X003789
X003535
X003281
T07
X0032Y0002
Y0017
X002975Y002373
Y002627
X00297243Y00298143
Y00323543
X0004Y00239042
Y00089043
T08
X00116Y0009
Y0019
X00236
Y0009
T09
X00848043Y00420857
X00209Y00337793
X00084Y00412793
X00723043Y00495857
T10
X0003Y0003
X00785
X0003Y0077
X00785
M30
