M48
;Layer_Color=9474304
;FILE_FORMAT=4:4
METRIC,LZ
;TYPE=PLATED
T1F00S00C0.3000
T2F00S00C0.8000
T3F00S00C1.0200
T4F00S00C1.1000
T5F00S00C2.0000
;TYPE=NON_PLATED
T6F00S00C3.2000
%
T01
X00825Y001
X008225Y002325
X0074625
X0067
X006325
X006025Y002925
X0056Y002775
X0053Y002075
X0046345Y0025405
X004625Y003
X00399876Y00285124
X004475Y000925
X0067Y001
X007475
X00345Y001575
X002375Y0017
X00225
Y001825
X002375
Y001975
X00225
Y0021
X002375
Y002225
X0025
Y002125
X002625
Y002225
Y00235
X0025
X002375
X00225
Y00225
X002085Y0021475
X0020875Y0020725
X00209Y0019925
X0020025
Y00207
Y00215
X001875Y001775
X00124Y0019925
X0012375Y0020725
X001235Y0021475
X0011525Y00215
Y00207
Y0019925
X001075Y0016
X0013Y001275
X00112997Y0006377
X0016Y0006
X00271553Y00103447
X003325Y000425
X000075Y0009
Y0015
X000375Y001775
X0005
X000625
X00138419Y00257463
X-0007Y002675
Y0032
Y0038
X000075Y003225
X0013Y0033
X001425
X00155
X001675
X0018
X00195
X0021
X002225
X002375
X002525
X0027
X003325Y003225
Y00425
X002925Y004175
Y004325
Y0045
Y0047
Y004875
Y005025
Y0052
Y005425
Y0056
X00294053Y00589053
X002775Y00595
X002925Y006125
Y006375
X003325Y0065
Y005775
Y0051
X0027Y00485
X0024175Y0046775
Y0046
Y00452
X002335Y0045225
X0023325Y0045975
X00233Y0046775
X0022Y004475
X002075
Y004325
X0022
Y004175
X002075
X0019
Y004325
Y004475
X001725
Y004325
Y004175
X001525
Y004325
X0013
Y004175
X001125
Y004325
X00095
Y004175
X000925Y004625
Y004725
Y004825
X00105
Y004725
Y004625
X0008
Y004725
Y004825
X000675
Y004725
Y004625
X00055
Y004725
Y004825
X000425
Y004725
Y004625
X000075Y004775
Y00605
X001625Y00599999
X001575Y00565
X00155Y0049
X0014175Y0046775
Y0046
Y00452
X001335Y0045225
X0013325Y0045975
X00133Y0046775
X004725Y004725
X00555Y004625
X0058841Y0045341
X00590472Y004196
X00577472
Y004046
X00590472
Y003846
X00577472
X00562472
X00547472
X00532472
X00517472
Y004046
X00532472
X00547472
Y004196
X00532472
X00517472
X00562472
Y004046
Y003646
X00577472
X00590472
Y003496
X00577472
X00562472
X00547472
Y003646
X00532472
Y003496
X00517472
Y003646
X004925Y003225
X005775Y0032
X0059695Y00498734
X00616444Y00536374
X00605Y0055
X0057Y005525
X005325Y005675
X005475Y006225
X006725Y0054
X0069Y0055
X006875Y00475
X0087Y004425
Y0039
X009225Y003875
Y004425
X0083Y00705
T02
X00286872Y00704
X00429915
X00572957Y00705
X00716
Y00755
X00572957
X00429915Y00754
X00286872
T03
X003857Y0003
X004111
X004365
X004619
X004873
X005127
X005381
X005635
X005889
X006143
Y001824
X005889
X005635
X005381
X005127
X004873
X004619
X004365
X004111
X003857
T04
X0043Y005348
Y005602
Y005973
Y006227
T05
X00094Y00284
X-00031Y00359
X0075Y00426
X00875Y00351
T06
X0082Y0003
X0003
X0082Y0077
X0003
M30
