G04*
G04 #@! TF.GenerationSoftware,Altium Limited,Altium Designer,21.6.4 (81)*
G04*
G04 Layer_Color=8388736*
%FSLAX44Y44*%
%MOMM*%
G71*
G04*
G04 #@! TF.SameCoordinates,D26747ED-23D3-466A-99B4-63F3962E0784*
G04*
G04*
G04 #@! TF.FilePolarity,Negative*
G04*
G01*
G75*
%ADD20R,1.4500X0.9500*%
%ADD24R,1.5562X0.9562*%
%ADD26R,0.9562X1.5562*%
%ADD31R,0.9500X1.4500*%
%ADD37R,1.3561X1.8582*%
%ADD42R,1.4032X1.3032*%
%ADD43R,1.4032X1.8032*%
%ADD44R,1.4032X8.9032*%
%ADD45R,1.4532X0.9532*%
%ADD46R,1.5932X1.1632*%
%ADD47R,1.7532X1.5532*%
%ADD48R,3.5032X2.0032*%
%ADD49R,1.1632X1.5932*%
%ADD50R,1.3032X0.8032*%
%ADD51R,0.8532X1.7282*%
%ADD52R,7.2032X7.2032*%
%ADD53R,2.7032X1.7032*%
%ADD54R,1.5532X1.7532*%
%ADD55R,0.9532X1.4532*%
%ADD56R,1.7282X0.8532*%
%ADD57R,0.8500X0.5000*%
%ADD58R,1.5032X1.1032*%
%ADD59R,1.4532X3.7232*%
%ADD60R,1.1032X1.5032*%
%ADD61C,1.8032*%
%ADD62R,1.8032X1.8032*%
%ADD63C,3.2032*%
%ADD64R,3.2032X3.2032*%
%ADD65C,1.7232*%
%ADD66R,1.7232X1.7232*%
%ADD67C,0.2000*%
%ADD68R,1.4032X1.4032*%
%ADD69C,1.4032*%
G04:AMPARAMS|DCode=70|XSize=1.6032mm|YSize=1.6032mm|CornerRadius=0.4516mm|HoleSize=0mm|Usage=FLASHONLY|Rotation=0.000|XOffset=0mm|YOffset=0mm|HoleType=Round|Shape=RoundedRectangle|*
%AMROUNDEDRECTD70*
21,1,1.6032,0.7000,0,0,0.0*
21,1,0.7000,1.6032,0,0,0.0*
1,1,0.9032,0.3500,-0.3500*
1,1,0.9032,-0.3500,-0.3500*
1,1,0.9032,-0.3500,0.3500*
1,1,0.9032,0.3500,0.3500*
%
%ADD70ROUNDEDRECTD70*%
%ADD71C,1.6032*%
%ADD72R,2.1532X2.1532*%
%ADD73C,2.1532*%
%ADD74C,1.8532*%
%ADD75R,1.4032X1.4032*%
%ADD76C,0.7016*%
%ADD77C,1.1016*%
%ADD78C,0.7000*%
%ADD79C,0.8032*%
G36*
X696250Y332050D02*
X650750D01*
Y287950D01*
X696250D01*
Y293950D01*
X688250D01*
Y300650D01*
X696250D01*
Y306650D01*
X688250D01*
Y313350D01*
X696250D01*
Y319350D01*
X688250D01*
Y326050D01*
X696250D01*
Y332050D01*
D02*
G37*
G36*
Y402050D02*
X650750D01*
Y357950D01*
X696250D01*
Y363950D01*
X688250D01*
Y370650D01*
X696250D01*
Y376650D01*
X688250D01*
Y383350D01*
X696250D01*
Y389350D01*
X688250D01*
Y396050D01*
X696250D01*
Y402050D01*
D02*
G37*
G36*
Y592050D02*
X650750D01*
Y547950D01*
X696250D01*
Y553950D01*
X688250D01*
Y560650D01*
X696250D01*
Y566650D01*
X688250D01*
Y573350D01*
X696250D01*
Y579350D01*
X688250D01*
Y586050D01*
X696250D01*
Y592050D01*
D02*
G37*
G36*
Y662050D02*
X650750D01*
Y617950D01*
X696250D01*
Y623950D01*
X688250D01*
Y630650D01*
X696250D01*
Y636650D01*
X688250D01*
Y643350D01*
X696250D01*
Y649350D01*
X688250D01*
Y656050D01*
X696250D01*
Y662050D01*
D02*
G37*
D20*
X322000Y419750D02*
D03*
Y400250D02*
D03*
X385000Y510250D02*
D03*
Y490750D02*
D03*
X370000Y472250D02*
D03*
Y452750D02*
D03*
X374000Y438250D02*
D03*
Y418750D02*
D03*
X410000Y438250D02*
D03*
Y418750D02*
D03*
D24*
X226000Y755750D02*
D03*
Y732250D02*
D03*
X349000Y603526D02*
D03*
Y580027D02*
D03*
X601666Y608427D02*
D03*
Y584926D02*
D03*
X610000Y357750D02*
D03*
Y334250D02*
D03*
D26*
X288750Y589250D02*
D03*
X265250D02*
D03*
X584587Y694000D02*
D03*
X561087D02*
D03*
D31*
X435250Y383500D02*
D03*
X454750D02*
D03*
X435250Y365500D02*
D03*
X454750D02*
D03*
X562750Y730000D02*
D03*
X582250D02*
D03*
D37*
X576405Y658677D02*
D03*
X606927D02*
D03*
X576405Y636676D02*
D03*
X606927D02*
D03*
X576405Y563676D02*
D03*
X606927D02*
D03*
X576405Y541676D02*
D03*
X606927D02*
D03*
X615261Y412000D02*
D03*
X584739D02*
D03*
X615261Y385000D02*
D03*
X584739D02*
D03*
Y312500D02*
D03*
X615261D02*
D03*
X584739Y290000D02*
D03*
X615261D02*
D03*
D42*
X322000Y351500D02*
D03*
Y372500D02*
D03*
D43*
X478000Y251250D02*
D03*
X522000D02*
D03*
D44*
Y188750D02*
D03*
X478000D02*
D03*
D45*
X505166Y636676D02*
D03*
X538166D02*
D03*
X513500Y386000D02*
D03*
X546500D02*
D03*
D46*
X252000Y760100D02*
D03*
Y743900D02*
D03*
X268350Y542650D02*
D03*
Y558850D02*
D03*
X392000Y419400D02*
D03*
Y435600D02*
D03*
X420000Y382600D02*
D03*
Y366400D02*
D03*
X501666Y604776D02*
D03*
Y588576D02*
D03*
X505000Y360100D02*
D03*
Y343900D02*
D03*
D47*
X440443Y449707D02*
D03*
Y469207D02*
D03*
D48*
X267750Y494835D02*
D03*
X223750D02*
D03*
D49*
X418100Y509500D02*
D03*
X401900D02*
D03*
Y492500D02*
D03*
X418100D02*
D03*
X435100Y400500D02*
D03*
X418900D02*
D03*
X403100Y329500D02*
D03*
X386900D02*
D03*
X435100Y347500D02*
D03*
X418900D02*
D03*
X448100Y492500D02*
D03*
X431900D02*
D03*
D50*
X415000Y472000D02*
D03*
Y453000D02*
D03*
X391000D02*
D03*
Y462500D02*
D03*
Y472000D02*
D03*
D51*
X404050Y402120D02*
D03*
X391350D02*
D03*
X378650D02*
D03*
X365950D02*
D03*
Y347880D02*
D03*
X378650D02*
D03*
X391350D02*
D03*
X404050D02*
D03*
D52*
X175718Y566144D02*
D03*
D53*
X238218Y589144D02*
D03*
Y543144D02*
D03*
D54*
X562750Y712390D02*
D03*
X582250D02*
D03*
X516916Y563676D02*
D03*
X536416D02*
D03*
X516916Y543676D02*
D03*
X536416D02*
D03*
X525250Y296000D02*
D03*
X544750D02*
D03*
X525250Y315000D02*
D03*
X544750D02*
D03*
D55*
X556666Y668176D02*
D03*
Y635177D02*
D03*
Y535177D02*
D03*
Y568176D02*
D03*
X565000Y283500D02*
D03*
Y316500D02*
D03*
Y417500D02*
D03*
Y384500D02*
D03*
D56*
X522546Y620726D02*
D03*
Y608026D02*
D03*
Y595326D02*
D03*
Y582626D02*
D03*
X576786D02*
D03*
Y595326D02*
D03*
Y608026D02*
D03*
Y620726D02*
D03*
X530880Y369050D02*
D03*
Y356350D02*
D03*
Y343650D02*
D03*
Y330950D02*
D03*
X585120D02*
D03*
Y343650D02*
D03*
Y356350D02*
D03*
Y369050D02*
D03*
D57*
X634000Y290950D02*
D03*
Y303650D02*
D03*
Y316350D02*
D03*
Y329050D02*
D03*
Y550950D02*
D03*
Y563650D02*
D03*
Y576350D02*
D03*
Y589050D02*
D03*
Y360950D02*
D03*
Y373650D02*
D03*
Y386350D02*
D03*
Y399050D02*
D03*
Y620950D02*
D03*
Y633650D02*
D03*
Y646350D02*
D03*
Y659050D02*
D03*
D58*
X725000Y728000D02*
D03*
Y747000D02*
D03*
D59*
X732700Y682500D02*
D03*
X772300D02*
D03*
X732700Y642500D02*
D03*
X772300D02*
D03*
X732700Y602500D02*
D03*
X772300D02*
D03*
X732700Y562500D02*
D03*
X772300D02*
D03*
D60*
X745500Y320000D02*
D03*
X764500D02*
D03*
D61*
X297243Y298143D02*
D03*
X297500Y262700D02*
D03*
D62*
X297243Y323543D02*
D03*
X297500Y237300D02*
D03*
D63*
X209000Y337793D02*
D03*
X723043Y495857D02*
D03*
D64*
X84000Y412793D02*
D03*
X848043Y420857D02*
D03*
D65*
X328100Y785000D02*
D03*
X226500D02*
D03*
X201100D02*
D03*
X251900D02*
D03*
X277300D02*
D03*
X302700D02*
D03*
X353500D02*
D03*
X378900D02*
D03*
X404300D02*
D03*
X328100Y632600D02*
D03*
X226500D02*
D03*
X201100D02*
D03*
X251900D02*
D03*
X277300D02*
D03*
X302700D02*
D03*
X353500D02*
D03*
X378900D02*
D03*
X404300D02*
D03*
D66*
X175700Y785000D02*
D03*
Y632600D02*
D03*
D67*
X30000Y770000D02*
D03*
Y30000D02*
D03*
X785000Y770000D02*
D03*
Y30000D02*
D03*
D68*
X635000Y200000D02*
D03*
D69*
X585000D02*
D03*
X680000Y45000D02*
D03*
X540000D02*
D03*
X418000Y30000D02*
D03*
X750000Y220000D02*
D03*
D70*
X677661Y743785D02*
D03*
D71*
X627661D02*
D03*
D72*
X116000Y190000D02*
D03*
D73*
Y90000D02*
D03*
X236000D02*
D03*
Y190000D02*
D03*
D74*
X40000Y239042D02*
D03*
Y89043D02*
D03*
X320000Y170000D02*
D03*
Y20000D02*
D03*
D75*
X680000Y95000D02*
D03*
X540000D02*
D03*
X418000Y80000D02*
D03*
X750000Y170000D02*
D03*
D76*
X867000Y504000D02*
D03*
X161000Y578000D02*
D03*
X190000Y579000D02*
D03*
X204000Y564000D02*
D03*
X176000Y565000D02*
D03*
X146000D02*
D03*
X190000Y554000D02*
D03*
X161000D02*
D03*
X204000Y538000D02*
D03*
X176000D02*
D03*
X147000D02*
D03*
X194000Y494000D02*
D03*
X337000Y327000D02*
D03*
X339000Y414000D02*
D03*
X270000D02*
D03*
X181000Y420000D02*
D03*
X96000Y472000D02*
D03*
X95000Y523000D02*
D03*
X94000Y615000D02*
D03*
X93000Y684000D02*
D03*
X92000Y731000D02*
D03*
X502500Y537500D02*
D03*
X470000Y540000D02*
D03*
X237000Y766000D02*
D03*
X285000Y761000D02*
D03*
X245000Y729000D02*
D03*
X282000Y559000D02*
D03*
X302000Y589000D02*
D03*
X205000Y595000D02*
D03*
X176000D02*
D03*
X146000D02*
D03*
X269000Y608000D02*
D03*
X256000D02*
D03*
X243000D02*
D03*
X231000D02*
D03*
X342980Y757500D02*
D03*
X352000Y567000D02*
D03*
X800000Y417000D02*
D03*
Y504000D02*
D03*
X810000Y357500D02*
D03*
X812500Y732500D02*
D03*
X17500Y657500D02*
D03*
X507499Y617499D02*
D03*
X545000Y592500D02*
D03*
Y650000D02*
D03*
X466012Y357500D02*
D03*
X615000Y595000D02*
D03*
X622500Y347500D02*
D03*
X555000Y337500D02*
D03*
X425000Y462500D02*
D03*
Y330000D02*
D03*
X640000Y427500D02*
D03*
X630000D02*
D03*
X545000Y697500D02*
D03*
Y715000D02*
D03*
X765000Y302500D02*
D03*
X480000Y385000D02*
D03*
X725000Y770000D02*
D03*
X562500Y587500D02*
D03*
X395000Y757500D02*
D03*
X477500Y587500D02*
D03*
X602500Y427500D02*
D03*
X562500Y370000D02*
D03*
X570000Y342500D02*
D03*
X502500Y301063D02*
D03*
X495000Y330000D02*
D03*
Y315000D02*
D03*
X427230Y415270D02*
D03*
X430000Y517500D02*
D03*
X437500Y507500D02*
D03*
X372750Y329750D02*
D03*
X502515Y367197D02*
D03*
X517500Y367500D02*
D03*
X390000Y385000D02*
D03*
X480000Y600000D02*
D03*
X495000Y620000D02*
D03*
X402500Y465000D02*
D03*
X640000Y669433D02*
D03*
X627500Y372500D02*
D03*
X640000Y412500D02*
D03*
X630000D02*
D03*
X622500Y637500D02*
D03*
Y652500D02*
D03*
X627500Y675000D02*
D03*
X742500Y332500D02*
D03*
X732500D02*
D03*
X720000D02*
D03*
X707500D02*
D03*
X742500Y282500D02*
D03*
X732500D02*
D03*
X720000D02*
D03*
X710000D02*
D03*
X692500Y755000D02*
D03*
X660000D02*
D03*
X692500Y722500D02*
D03*
X675000D02*
D03*
X660000D02*
D03*
X672500Y222500D02*
D03*
Y235000D02*
D03*
Y247500D02*
D03*
X702500Y585000D02*
D03*
Y570000D02*
D03*
Y555000D02*
D03*
X655000Y537500D02*
D03*
X670000D02*
D03*
X685000D02*
D03*
X700000Y540000D02*
D03*
X697500Y600000D02*
D03*
X655000Y310000D02*
D03*
Y292000D02*
D03*
X664000D02*
D03*
X673000D02*
D03*
X682000D02*
D03*
Y301000D02*
D03*
X673000D02*
D03*
X664000D02*
D03*
Y310000D02*
D03*
X673000D02*
D03*
X682000D02*
D03*
Y319000D02*
D03*
X673000D02*
D03*
X664000D02*
D03*
Y328000D02*
D03*
X673000D02*
D03*
X682000D02*
D03*
X655000Y301000D02*
D03*
Y570000D02*
D03*
Y552000D02*
D03*
X664000D02*
D03*
X673000D02*
D03*
X682000D02*
D03*
Y561000D02*
D03*
X673000D02*
D03*
X664000D02*
D03*
Y570000D02*
D03*
X673000D02*
D03*
X682000D02*
D03*
Y579000D02*
D03*
X673000D02*
D03*
X664000D02*
D03*
Y588000D02*
D03*
X673000D02*
D03*
X682000D02*
D03*
X655000Y561000D02*
D03*
Y380000D02*
D03*
Y362000D02*
D03*
X664000D02*
D03*
X673000D02*
D03*
X682000D02*
D03*
Y371000D02*
D03*
X673000D02*
D03*
X664000D02*
D03*
Y380000D02*
D03*
X673000D02*
D03*
X682000D02*
D03*
Y389000D02*
D03*
X673000D02*
D03*
X664000D02*
D03*
Y398000D02*
D03*
X673000D02*
D03*
X682000D02*
D03*
X655000Y371000D02*
D03*
Y640000D02*
D03*
Y622000D02*
D03*
X664000D02*
D03*
X673000D02*
D03*
X682000D02*
D03*
Y631000D02*
D03*
X673000D02*
D03*
X664000D02*
D03*
Y640000D02*
D03*
X673000D02*
D03*
X682000D02*
D03*
Y649000D02*
D03*
X673000D02*
D03*
X664000D02*
D03*
Y658000D02*
D03*
X673000D02*
D03*
X682000D02*
D03*
X655000Y631000D02*
D03*
D77*
X334598Y502098D02*
D03*
X500000Y520000D02*
D03*
D78*
X655000Y328000D02*
D03*
Y588000D02*
D03*
Y398000D02*
D03*
Y658000D02*
D03*
D79*
Y319000D02*
D03*
Y579000D02*
D03*
Y389000D02*
D03*
Y649000D02*
D03*
M02*
