G04*
G04 #@! TF.GenerationSoftware,Altium Limited,Altium Designer,21.6.4 (81)*
G04*
G04 Layer_Color=255*
%FSLAX44Y44*%
%MOMM*%
G71*
G04*
G04 #@! TF.SameCoordinates,D26747ED-23D3-466A-99B4-63F3962E0784*
G04*
G04*
G04 #@! TF.FilePolarity,Positive*
G04*
G01*
G75*
%ADD19R,1.2000X1.1000*%
%ADD20R,1.4500X0.9500*%
%ADD21R,1.2000X1.6000*%
%ADD22R,1.2000X8.7000*%
%ADD23R,1.2500X0.7500*%
%ADD24R,1.5562X0.9562*%
%ADD25R,1.3900X0.9600*%
%ADD26R,0.9562X1.5562*%
%ADD27R,1.5500X1.3500*%
%ADD28R,3.3000X1.8000*%
%ADD29R,0.9600X1.3900*%
%ADD30R,1.1000X0.6000*%
%ADD31R,0.9500X1.4500*%
%ADD32R,0.6500X1.5250*%
%ADD33R,7.0000X7.0000*%
%ADD34R,2.5000X1.5000*%
%ADD35R,1.3500X1.5500*%
%ADD36R,0.7500X1.2500*%
%ADD37R,1.3561X1.8582*%
%ADD38R,1.5250X0.6500*%
%ADD39R,1.3000X0.9000*%
%ADD40R,1.2500X3.5200*%
%ADD41R,0.9000X1.3000*%
%ADD57R,0.8500X0.5000*%
%ADD80R,4.5500X4.4100*%
%ADD87C,1.6000*%
%ADD88R,1.6000X1.6000*%
%ADD89C,3.0000*%
%ADD90R,3.0000X3.0000*%
%ADD91C,1.5200*%
%ADD92R,1.5200X1.5200*%
%ADD93R,1.2000X1.2000*%
%ADD94C,1.2000*%
G04:AMPARAMS|DCode=95|XSize=1.4mm|YSize=1.4mm|CornerRadius=0.35mm|HoleSize=0mm|Usage=FLASHONLY|Rotation=0.000|XOffset=0mm|YOffset=0mm|HoleType=Round|Shape=RoundedRectangle|*
%AMROUNDEDRECTD95*
21,1,1.4000,0.7000,0,0,0.0*
21,1,0.7000,1.4000,0,0,0.0*
1,1,0.7000,0.3500,-0.3500*
1,1,0.7000,-0.3500,-0.3500*
1,1,0.7000,-0.3500,0.3500*
1,1,0.7000,0.3500,0.3500*
%
%ADD95ROUNDEDRECTD95*%
%ADD96C,1.4000*%
%ADD97R,1.9500X1.9500*%
%ADD98C,1.9500*%
%ADD99C,1.6500*%
%ADD100R,1.2000X1.2000*%
D19*
X322000Y351500D02*
D03*
Y372500D02*
D03*
D20*
Y419750D02*
D03*
Y400250D02*
D03*
X385000Y510250D02*
D03*
Y490750D02*
D03*
X370000Y472250D02*
D03*
Y452750D02*
D03*
X374000Y438250D02*
D03*
Y418750D02*
D03*
X410000Y438250D02*
D03*
Y418750D02*
D03*
D21*
X478000Y251250D02*
D03*
X522000D02*
D03*
D22*
Y188750D02*
D03*
X478000D02*
D03*
D23*
X505166Y636676D02*
D03*
X538166D02*
D03*
X513500Y386000D02*
D03*
X546500D02*
D03*
D24*
X226000Y755750D02*
D03*
Y732250D02*
D03*
X349000Y603526D02*
D03*
Y580027D02*
D03*
X601666Y608427D02*
D03*
Y584926D02*
D03*
X610000Y357750D02*
D03*
Y334250D02*
D03*
D25*
X252000Y760100D02*
D03*
Y743900D02*
D03*
X268350Y542650D02*
D03*
Y558850D02*
D03*
X392000Y419400D02*
D03*
Y435600D02*
D03*
X420000Y382600D02*
D03*
Y366400D02*
D03*
X501666Y604776D02*
D03*
Y588576D02*
D03*
X505000Y360100D02*
D03*
Y343900D02*
D03*
D26*
X288750Y589250D02*
D03*
X265250D02*
D03*
X584587Y694000D02*
D03*
X561087D02*
D03*
D27*
X440443Y449707D02*
D03*
Y469207D02*
D03*
D28*
X267750Y494835D02*
D03*
X223750D02*
D03*
D29*
X418100Y509500D02*
D03*
X401900D02*
D03*
Y492500D02*
D03*
X418100D02*
D03*
X435100Y400500D02*
D03*
X418900D02*
D03*
X403100Y329500D02*
D03*
X386900D02*
D03*
X435100Y347500D02*
D03*
X418900D02*
D03*
X448100Y492500D02*
D03*
X431900D02*
D03*
D30*
X415000Y472000D02*
D03*
Y453000D02*
D03*
X391000D02*
D03*
Y462500D02*
D03*
Y472000D02*
D03*
D31*
X435250Y383500D02*
D03*
X454750D02*
D03*
X435250Y365500D02*
D03*
X454750D02*
D03*
X562750Y730000D02*
D03*
X582250D02*
D03*
D32*
X404050Y402120D02*
D03*
X391350D02*
D03*
X378650D02*
D03*
X365950D02*
D03*
Y347880D02*
D03*
X378650D02*
D03*
X391350D02*
D03*
X404050D02*
D03*
D33*
X175718Y566144D02*
D03*
D34*
X238218Y589144D02*
D03*
Y543144D02*
D03*
D35*
X562750Y712390D02*
D03*
X582250D02*
D03*
X516916Y563676D02*
D03*
X536416D02*
D03*
X516916Y543676D02*
D03*
X536416D02*
D03*
X525250Y296000D02*
D03*
X544750D02*
D03*
X525250Y315000D02*
D03*
X544750D02*
D03*
D36*
X556666Y668176D02*
D03*
Y635177D02*
D03*
Y535177D02*
D03*
Y568176D02*
D03*
X565000Y283500D02*
D03*
Y316500D02*
D03*
Y417500D02*
D03*
Y384500D02*
D03*
D37*
X576405Y658677D02*
D03*
X606927D02*
D03*
X576405Y636676D02*
D03*
X606927D02*
D03*
X576405Y563676D02*
D03*
X606927D02*
D03*
X576405Y541676D02*
D03*
X606927D02*
D03*
X615261Y412000D02*
D03*
X584739D02*
D03*
X615261Y385000D02*
D03*
X584739D02*
D03*
Y312500D02*
D03*
X615261D02*
D03*
X584739Y290000D02*
D03*
X615261D02*
D03*
D38*
X522546Y620726D02*
D03*
Y608026D02*
D03*
Y595326D02*
D03*
Y582626D02*
D03*
X576786D02*
D03*
Y595326D02*
D03*
Y608026D02*
D03*
Y620726D02*
D03*
X530880Y369050D02*
D03*
Y356350D02*
D03*
Y343650D02*
D03*
Y330950D02*
D03*
X585120D02*
D03*
Y343650D02*
D03*
Y356350D02*
D03*
Y369050D02*
D03*
D39*
X725000Y728000D02*
D03*
Y747000D02*
D03*
D40*
X732700Y682500D02*
D03*
X772300D02*
D03*
X732700Y642500D02*
D03*
X772300D02*
D03*
X732700Y602500D02*
D03*
X772300D02*
D03*
X732700Y562500D02*
D03*
X772300D02*
D03*
D41*
X745500Y320000D02*
D03*
X764500D02*
D03*
D57*
X634000Y290950D02*
D03*
Y303650D02*
D03*
Y316350D02*
D03*
Y329050D02*
D03*
Y550950D02*
D03*
Y563650D02*
D03*
Y576350D02*
D03*
Y589050D02*
D03*
Y360950D02*
D03*
Y373650D02*
D03*
Y386350D02*
D03*
Y399050D02*
D03*
Y620950D02*
D03*
Y633650D02*
D03*
Y646350D02*
D03*
Y659050D02*
D03*
D80*
X673500Y310000D02*
D03*
Y570000D02*
D03*
Y380000D02*
D03*
Y640000D02*
D03*
D87*
X297243Y298143D02*
D03*
X297500Y262700D02*
D03*
D88*
X297243Y323543D02*
D03*
X297500Y237300D02*
D03*
D89*
X209000Y337793D02*
D03*
X723043Y495857D02*
D03*
D90*
X84000Y412793D02*
D03*
X848043Y420857D02*
D03*
D91*
X328100Y785000D02*
D03*
X226500D02*
D03*
X201100D02*
D03*
X251900D02*
D03*
X277300D02*
D03*
X302700D02*
D03*
X353500D02*
D03*
X378900D02*
D03*
X404300D02*
D03*
X328100Y632600D02*
D03*
X226500D02*
D03*
X201100D02*
D03*
X251900D02*
D03*
X277300D02*
D03*
X302700D02*
D03*
X353500D02*
D03*
X378900D02*
D03*
X404300D02*
D03*
D92*
X175700Y785000D02*
D03*
Y632600D02*
D03*
D93*
X635000Y200000D02*
D03*
D94*
X585000D02*
D03*
X680000Y45000D02*
D03*
X540000D02*
D03*
X418000Y30000D02*
D03*
X750000Y220000D02*
D03*
D95*
X677661Y743785D02*
D03*
D96*
X627661D02*
D03*
D97*
X116000Y190000D02*
D03*
D98*
Y90000D02*
D03*
X236000D02*
D03*
Y190000D02*
D03*
D99*
X40000Y239042D02*
D03*
Y89043D02*
D03*
X320000Y170000D02*
D03*
Y20000D02*
D03*
D100*
X680000Y95000D02*
D03*
X540000D02*
D03*
X418000Y80000D02*
D03*
X750000Y170000D02*
D03*
M02*
