G04*
G04 #@! TF.GenerationSoftware,Altium Limited,Altium Designer,21.6.4 (81)*
G04*
G04 Layer_Physical_Order=2*
G04 Layer_Color=32768*
%FSLAX44Y44*%
%MOMM*%
G71*
G04*
G04 #@! TF.SameCoordinates,D26747ED-23D3-466A-99B4-63F3962E0784*
G04*
G04*
G04 #@! TF.FilePolarity,Negative*
G04*
G01*
G75*
%ADD10C,0.2000*%
%ADD103C,1.0160*%
%ADD104C,2.1160*%
%ADD105C,3.0160*%
%ADD106C,2.0360*%
%ADD107C,4.2160*%
%ADD108C,1.8160*%
%ADD109C,1.9160*%
%ADD110C,2.3160*%
%ADD111C,1.5160*%
%ADD112C,1.3160*%
D10*
X402500Y50000D02*
X405000D01*
X402500Y20000D02*
X432500D01*
X405000Y50000D02*
X432500D01*
Y0D02*
Y20000D01*
X600000Y680000D02*
Y800000D01*
X535000Y680000D02*
X600000D01*
X510000Y655000D02*
X535000Y680000D01*
X510000Y525000D02*
Y655000D01*
Y525000D02*
X522500Y512500D01*
Y280000D02*
Y512500D01*
X517500Y275000D02*
X522500Y280000D01*
X432500Y275000D02*
X517500D01*
X432500Y50000D02*
Y275000D01*
D103*
X820000Y800000D02*
X820000Y540446D01*
X0Y800000D02*
X820000Y800000D01*
X0Y800000D02*
X0Y0D01*
X820000Y-0D01*
X820000Y375000D02*
X820000Y-0D01*
X820000Y375000D02*
X932500D01*
Y540000D01*
X820446D02*
X932500D01*
X820000Y540446D02*
X820446Y540000D01*
D104*
X297243Y323543D02*
D03*
X297500Y237300D02*
D03*
X40000Y239042D02*
D03*
Y89043D02*
D03*
X320000Y170000D02*
D03*
D105*
X209000Y337793D02*
D03*
X84000Y412793D02*
D03*
X723043Y495857D02*
D03*
X848043Y420857D02*
D03*
D106*
X328100Y785000D02*
D03*
X226500D02*
D03*
X201100D02*
D03*
X251900D02*
D03*
X277300D02*
D03*
X302700D02*
D03*
X353500D02*
D03*
X378900D02*
D03*
X404300D02*
D03*
X328100Y632600D02*
D03*
X226500D02*
D03*
X175700D02*
D03*
X201100D02*
D03*
X251900D02*
D03*
X277300D02*
D03*
X302700D02*
D03*
X353500D02*
D03*
X404300D02*
D03*
D107*
X30000Y770000D02*
D03*
Y30000D02*
D03*
X785000Y770000D02*
D03*
Y30000D02*
D03*
D108*
X635000Y200000D02*
D03*
X680000Y95000D02*
D03*
X540000D02*
D03*
X418000Y80000D02*
D03*
X750000Y170000D02*
D03*
D109*
X677661Y743785D02*
D03*
D110*
X116000Y190000D02*
D03*
Y90000D02*
D03*
X236000Y190000D02*
D03*
D111*
X334598Y502098D02*
D03*
X500000Y520000D02*
D03*
D112*
X502500Y537500D02*
D03*
X237000Y766000D02*
D03*
X285000Y761000D02*
D03*
X269000Y608000D02*
D03*
X256000D02*
D03*
X243000D02*
D03*
X231000D02*
D03*
X342980Y757500D02*
D03*
X507499Y617499D02*
D03*
X545000Y592500D02*
D03*
Y650000D02*
D03*
X466012Y357500D02*
D03*
X615000Y595000D02*
D03*
X622500Y347500D02*
D03*
X555000Y337500D02*
D03*
X425000Y462500D02*
D03*
X480000Y385000D02*
D03*
X562500Y587500D02*
D03*
X395000Y757500D02*
D03*
X602500Y427500D02*
D03*
X562500Y370000D02*
D03*
X570000Y342500D02*
D03*
X502500Y301063D02*
D03*
X495000Y330000D02*
D03*
X437500Y507500D02*
D03*
X372750Y329750D02*
D03*
X502515Y367197D02*
D03*
X517500Y367500D02*
D03*
X480000Y600000D02*
D03*
X495000Y620000D02*
D03*
X742500Y332500D02*
D03*
X732500D02*
D03*
X720000D02*
D03*
X707500D02*
D03*
X742500Y282500D02*
D03*
X732500D02*
D03*
X720000D02*
D03*
X710000D02*
D03*
X692500Y755000D02*
D03*
X660000D02*
D03*
X692500Y722500D02*
D03*
X675000D02*
D03*
X660000D02*
D03*
X672500Y222500D02*
D03*
Y235000D02*
D03*
Y247500D02*
D03*
X702500Y585000D02*
D03*
Y570000D02*
D03*
Y555000D02*
D03*
X655000Y537500D02*
D03*
X670000D02*
D03*
X685000D02*
D03*
X700000Y540000D02*
D03*
X697500Y600000D02*
D03*
X655000Y328000D02*
D03*
Y310000D02*
D03*
Y292000D02*
D03*
X664000D02*
D03*
X673000D02*
D03*
X682000D02*
D03*
Y301000D02*
D03*
X673000D02*
D03*
X664000D02*
D03*
Y310000D02*
D03*
X673000D02*
D03*
X682000D02*
D03*
Y319000D02*
D03*
X673000D02*
D03*
X664000D02*
D03*
Y328000D02*
D03*
X673000D02*
D03*
X682000D02*
D03*
X655000Y319000D02*
D03*
Y301000D02*
D03*
Y588000D02*
D03*
Y570000D02*
D03*
Y552000D02*
D03*
X664000D02*
D03*
X673000D02*
D03*
X682000D02*
D03*
Y561000D02*
D03*
X673000D02*
D03*
X664000D02*
D03*
Y570000D02*
D03*
X673000D02*
D03*
X682000D02*
D03*
Y579000D02*
D03*
X673000D02*
D03*
X664000D02*
D03*
Y588000D02*
D03*
X673000D02*
D03*
X682000D02*
D03*
X655000Y579000D02*
D03*
Y561000D02*
D03*
Y398000D02*
D03*
Y380000D02*
D03*
Y362000D02*
D03*
X664000D02*
D03*
X673000D02*
D03*
X682000D02*
D03*
Y371000D02*
D03*
X673000D02*
D03*
X664000D02*
D03*
Y380000D02*
D03*
X673000D02*
D03*
X682000D02*
D03*
Y389000D02*
D03*
X673000D02*
D03*
X664000D02*
D03*
Y398000D02*
D03*
X673000D02*
D03*
X682000D02*
D03*
X655000Y389000D02*
D03*
Y371000D02*
D03*
Y658000D02*
D03*
Y640000D02*
D03*
Y622000D02*
D03*
X664000D02*
D03*
X673000D02*
D03*
X682000D02*
D03*
Y631000D02*
D03*
X673000D02*
D03*
X664000D02*
D03*
Y640000D02*
D03*
X673000D02*
D03*
X682000D02*
D03*
Y649000D02*
D03*
X673000D02*
D03*
X664000D02*
D03*
Y658000D02*
D03*
X673000D02*
D03*
X682000D02*
D03*
X655000Y649000D02*
D03*
Y631000D02*
D03*
M02*
