G04*
G04 #@! TF.GenerationSoftware,Altium Limited,Altium Designer,21.6.4 (81)*
G04*
G04 Layer_Color=32768*
%FSLAX44Y44*%
%MOMM*%
G71*
G04*
G04 #@! TF.SameCoordinates,D26747ED-23D3-466A-99B4-63F3962E0784*
G04*
G04*
G04 #@! TF.FilePolarity,Positive*
G04*
G01*
G75*
%ADD13C,0.1000*%
G36*
X606595Y724345D02*
X619427Y729687D01*
X619423Y729698D01*
X618759Y731380D01*
X617688Y734835D01*
X616968Y738379D01*
X616606Y741977D01*
X616606Y745593D01*
X616968Y749191D01*
X617688Y752735D01*
X618759Y756189D01*
X619423Y757872D01*
X619423D01*
X619427Y757883D01*
X606595Y763225D01*
X605623Y760924D01*
X604150Y756150D01*
X603159Y751254D01*
X602661Y746283D01*
X602661Y741287D01*
X603159Y736316D01*
X604150Y731420D01*
X605623Y726646D01*
X606595Y724345D01*
X606595Y724345D01*
D02*
G37*
D13*
X702661Y743785D02*
G03*
X702661Y743785I-50000J0D01*
G01*
X688761D02*
G03*
X688761Y743785I-36100J0D01*
G01*
X718750Y727500D02*
Y747500D01*
X731250Y727500D02*
Y747500D01*
X718750Y727500D02*
X731250D01*
X718750Y747500D02*
X731250D01*
X745000Y326250D02*
X765000D01*
X745000Y313750D02*
X765000D01*
X745000D02*
Y326250D01*
X765000Y313750D02*
Y326250D01*
X629660Y738784D02*
X629160Y739284D01*
X628161D01*
X627661Y738784D01*
Y736785D01*
X628161Y736285D01*
X629160D01*
X629660Y736785D01*
X630660Y738784D02*
X631160Y739284D01*
X632159D01*
X632659Y738784D01*
Y738284D01*
X632159Y737785D01*
X631659D01*
X632159D01*
X632659Y737285D01*
Y736785D01*
X632159Y736285D01*
X631160D01*
X630660Y736785D01*
X723999Y743601D02*
X724499Y744100D01*
Y745100D01*
X723999Y745600D01*
X722000D01*
X721500Y745100D01*
Y744100D01*
X722000Y743601D01*
X721500Y742601D02*
Y741601D01*
Y742101D01*
X724499D01*
X723999Y742601D01*
Y740102D02*
X724499Y739602D01*
Y738602D01*
X723999Y738102D01*
X722000D01*
X721500Y738602D01*
Y739602D01*
X722000Y740102D01*
X723999D01*
X761101Y321001D02*
X761600Y320501D01*
X762600D01*
X763100Y321001D01*
Y323000D01*
X762600Y323500D01*
X761600D01*
X761101Y323000D01*
X760101D02*
X759601Y323500D01*
X758602D01*
X758102Y323000D01*
Y321001D01*
X758602Y320501D01*
X759601D01*
X760101Y321001D01*
Y321501D01*
X759601Y322001D01*
X758102D01*
M02*
