G04*
G04 #@! TF.GenerationSoftware,Altium Limited,Altium Designer,20.1.12 (249)*
G04*
G04 Layer_Physical_Order=4*
G04 Layer_Color=16711680*
%FSLAX44Y44*%
%MOMM*%
G71*
G04*
G04 #@! TF.SameCoordinates,284B2C5B-B2DB-445A-AC85-361AEC2CE434*
G04*
G04*
G04 #@! TF.FilePolarity,Positive*
G04*
G01*
G75*
%ADD13C,0.5000*%
%ADD86C,0.2540*%
%ADD89C,2.4000*%
%ADD90R,2.4000X2.4000*%
%ADD91C,1.8750*%
%ADD92R,1.8750X1.8750*%
%ADD93R,1.2000X1.2000*%
%ADD94C,1.2000*%
%ADD95C,0.6000*%
%ADD96C,1.0000*%
%ADD103R,1.0000X1.0000*%
%ADD104R,1.0000X1.0000*%
G36*
X809660Y798730D02*
X806111Y797260D01*
X802017Y794751D01*
X798367Y791633D01*
X795249Y787983D01*
X792740Y783889D01*
X790903Y779454D01*
X789782Y774786D01*
X789406Y770000D01*
X789782Y765214D01*
X790903Y760546D01*
X792740Y756111D01*
X795249Y752017D01*
X798367Y748367D01*
X802017Y745249D01*
X806111Y742740D01*
X810546Y740903D01*
X815214Y739782D01*
X820000Y739406D01*
X824786Y739782D01*
X829454Y740903D01*
X833889Y742740D01*
X837983Y745249D01*
X841633Y748367D01*
X844751Y752017D01*
X847260Y756111D01*
X848730Y759660D01*
X850000Y759407D01*
Y727500D01*
X275000D01*
Y727039D01*
X80000D01*
X79220Y726884D01*
X78558Y726442D01*
X78116Y725780D01*
X77961Y725000D01*
Y513345D01*
X76655Y512039D01*
X35000D01*
X34220Y511884D01*
X33558Y511442D01*
X33116Y510780D01*
X32961Y510000D01*
Y208345D01*
X26058Y201442D01*
X25616Y200780D01*
X25461Y200000D01*
Y155000D01*
X25616Y154220D01*
X26058Y153558D01*
X26720Y153116D01*
X27500Y152961D01*
X100500D01*
X100697Y153000D01*
X114303D01*
X114500Y152961D01*
X275000D01*
Y0D01*
X40593D01*
X40340Y1270D01*
X43889Y2740D01*
X47983Y5249D01*
X51633Y8367D01*
X54751Y12017D01*
X57260Y16111D01*
X59097Y20546D01*
X60218Y25214D01*
X60594Y30000D01*
X60218Y34786D01*
X59097Y39454D01*
X57260Y43889D01*
X54751Y47983D01*
X51633Y51633D01*
X47983Y54751D01*
X43889Y57260D01*
X39454Y59097D01*
X34786Y60218D01*
X30000Y60594D01*
X25214Y60218D01*
X20546Y59097D01*
X16111Y57260D01*
X12017Y54751D01*
X8367Y51633D01*
X5249Y47983D01*
X2740Y43889D01*
X1270Y40340D01*
X0Y40593D01*
Y759407D01*
X1270Y759660D01*
X2740Y756111D01*
X5249Y752017D01*
X8367Y748367D01*
X12017Y745249D01*
X16111Y742740D01*
X20546Y740903D01*
X25214Y739782D01*
X30000Y739406D01*
X34786Y739782D01*
X39454Y740903D01*
X43889Y742740D01*
X47983Y745249D01*
X51633Y748367D01*
X54751Y752017D01*
X57260Y756111D01*
X59097Y760546D01*
X60218Y765214D01*
X60594Y770000D01*
X60218Y774786D01*
X59097Y779454D01*
X57260Y783889D01*
X54751Y787983D01*
X51633Y791633D01*
X47983Y794751D01*
X43889Y797260D01*
X40340Y798730D01*
X40593Y800000D01*
X809407D01*
X809660Y798730D01*
D02*
G37*
G36*
X462500Y667500D02*
X300000D01*
Y665000D01*
X300000Y662500D01*
X300000D01*
Y572772D01*
X298827Y572286D01*
X288444Y582669D01*
X289253Y583656D01*
X289558Y583452D01*
X290549Y582790D01*
X292500Y582402D01*
X294451Y582790D01*
X296105Y583895D01*
X297210Y585549D01*
X297598Y587500D01*
X297210Y589451D01*
X296105Y591105D01*
X294451Y592210D01*
X292500Y592598D01*
X290549Y592210D01*
X288895Y591105D01*
X287790Y589451D01*
X287402Y587500D01*
X287790Y585549D01*
X288452Y584558D01*
X288656Y584253D01*
X287670Y583444D01*
X282088Y589025D01*
Y592867D01*
X282210Y593049D01*
X282598Y595000D01*
X282210Y596951D01*
X281105Y598605D01*
X279451Y599710D01*
X277500Y600098D01*
X275549Y599710D01*
X273895Y598605D01*
X272790Y596951D01*
X272402Y595000D01*
X272790Y593049D01*
X272912Y592867D01*
Y587124D01*
X273261Y585369D01*
X274256Y583880D01*
X291869Y566267D01*
X291451Y564889D01*
X290549Y564710D01*
X288895Y563605D01*
X287790Y561951D01*
X287402Y560000D01*
X287790Y558049D01*
X288895Y556395D01*
X290549Y555290D01*
X292500Y554902D01*
X294451Y555290D01*
X296105Y556395D01*
X297210Y558049D01*
X297389Y558951D01*
X298767Y559369D01*
X300000Y558136D01*
Y300000D01*
X287500Y287500D01*
Y155000D01*
X114500D01*
Y167000D01*
X100500D01*
Y155000D01*
X27500D01*
Y200000D01*
X35000Y207500D01*
Y510000D01*
X77500D01*
X80000Y512500D01*
Y725000D01*
X462500D01*
Y667500D01*
D02*
G37*
G36*
X655000Y662500D02*
X655000Y585000D01*
X697500Y585000D01*
Y558063D01*
X697000Y557000D01*
X696230Y557000D01*
X683000D01*
Y543000D01*
X696230D01*
X697000Y543000D01*
X697500Y541937D01*
Y310000D01*
X750421D01*
Y261383D01*
X749218Y260975D01*
X749113Y261113D01*
X746737Y262936D01*
X743969Y264082D01*
X741000Y264473D01*
X738030Y264082D01*
X735263Y262936D01*
X732887Y261113D01*
X731064Y258737D01*
X729918Y255970D01*
X729527Y253000D01*
X729918Y250030D01*
X731064Y247263D01*
X732887Y244887D01*
X735263Y243064D01*
X738030Y241918D01*
X741000Y241527D01*
X743969Y241918D01*
X746737Y243064D01*
X749113Y244887D01*
X749218Y245025D01*
X750421Y244617D01*
Y229681D01*
X750675Y228405D01*
X751397Y227324D01*
X752621Y226100D01*
X752402Y225000D01*
X752790Y223049D01*
X753895Y221395D01*
X755549Y220290D01*
X757500Y219902D01*
X759451Y220290D01*
X761105Y221395D01*
X762210Y223049D01*
X762598Y225000D01*
X762210Y226951D01*
X761105Y228605D01*
X759451Y229710D01*
X758191Y229961D01*
X757089Y231062D01*
Y244480D01*
X757890Y244752D01*
X758359Y244832D01*
X760663Y243064D01*
X763430Y241918D01*
X766400Y241527D01*
X769370Y241918D01*
X772137Y243064D01*
X774513Y244887D01*
X776336Y247263D01*
X777482Y250030D01*
X777873Y253000D01*
X777482Y255970D01*
X776336Y258737D01*
X774513Y261113D01*
X772137Y262936D01*
X769370Y264082D01*
X766400Y264473D01*
X763430Y264082D01*
X760663Y262936D01*
X758359Y261168D01*
X757890Y261248D01*
X757089Y261520D01*
Y310000D01*
X850000D01*
Y40593D01*
X848730Y40340D01*
X847260Y43889D01*
X844751Y47983D01*
X841633Y51633D01*
X837983Y54751D01*
X833889Y57260D01*
X829454Y59097D01*
X824786Y60218D01*
X820000Y60594D01*
X815214Y60218D01*
X810546Y59097D01*
X806111Y57260D01*
X802017Y54751D01*
X798367Y51633D01*
X795249Y47983D01*
X792740Y43889D01*
X790903Y39454D01*
X789782Y34786D01*
X789406Y30000D01*
X789782Y25214D01*
X790903Y20546D01*
X792740Y16111D01*
X795249Y12017D01*
X798367Y8367D01*
X802017Y5249D01*
X806111Y2740D01*
X809660Y1270D01*
X809407Y0D01*
X287500D01*
Y152961D01*
X288280Y153116D01*
X288942Y153558D01*
X289384Y154220D01*
X289539Y155000D01*
Y286655D01*
X301442Y298558D01*
X301884Y299220D01*
X302039Y300000D01*
Y554437D01*
X303213Y554923D01*
X375412Y482724D01*
Y474633D01*
X375290Y474451D01*
X374902Y472500D01*
X375290Y470549D01*
X376395Y468895D01*
X378049Y467790D01*
X380000Y467402D01*
X381951Y467790D01*
X383605Y468895D01*
X384710Y470549D01*
X385098Y472500D01*
X384710Y474451D01*
X384588Y474633D01*
Y484624D01*
X384239Y486380D01*
X383244Y487869D01*
X301315Y569799D01*
X301442Y571330D01*
X301884Y571992D01*
X302039Y572772D01*
Y662500D01*
X655000Y662500D01*
D02*
G37*
G36*
X850000Y312500D02*
X759844D01*
X759358Y313673D01*
X767628Y321943D01*
X768351Y323024D01*
X768604Y324300D01*
Y395130D01*
X768351Y396406D01*
X767628Y397487D01*
X762032Y403083D01*
X762229Y403340D01*
X763640Y406745D01*
X764121Y410400D01*
X763640Y414055D01*
X762229Y417460D01*
X759985Y420385D01*
X757061Y422629D01*
X753655Y424040D01*
X750000Y424521D01*
X746346Y424040D01*
X742940Y422629D01*
X740015Y420385D01*
X737771Y417460D01*
X736361Y414055D01*
X735879Y410400D01*
X736361Y406745D01*
X737771Y403340D01*
X740015Y400415D01*
X742940Y398171D01*
X746346Y396760D01*
X750000Y396279D01*
X753655Y396760D01*
X757061Y398171D01*
X757317Y398368D01*
X761936Y393749D01*
Y325681D01*
X751397Y315142D01*
X750675Y314061D01*
X750421Y312785D01*
Y312500D01*
X700000D01*
Y587500D01*
X657500Y587500D01*
X657500Y665000D01*
X464644Y665000D01*
X464323Y665484D01*
X464084Y666270D01*
X464384Y666720D01*
X464539Y667500D01*
Y725000D01*
X850000D01*
Y312500D01*
D02*
G37*
%LPC*%
G36*
X292500Y642598D02*
X290549Y642210D01*
X288895Y641105D01*
X287790Y639451D01*
X287402Y637500D01*
X287790Y635549D01*
X288895Y633895D01*
X290549Y632790D01*
X292500Y632402D01*
X294451Y632790D01*
X296105Y633895D01*
X297210Y635549D01*
X297598Y637500D01*
X297210Y639451D01*
X296105Y641105D01*
X294451Y642210D01*
X292500Y642598D01*
D02*
G37*
G36*
Y617598D02*
X290549Y617210D01*
X288895Y616105D01*
X287790Y614451D01*
X287402Y612500D01*
X287790Y610549D01*
X288895Y608895D01*
X290549Y607790D01*
X292500Y607402D01*
X294451Y607790D01*
X296105Y608895D01*
X297210Y610549D01*
X297598Y612500D01*
X297210Y614451D01*
X296105Y616105D01*
X294451Y617210D01*
X292500Y617598D01*
D02*
G37*
G36*
X162500Y605097D02*
X160549Y604709D01*
X158895Y603604D01*
X157790Y601950D01*
X157402Y599999D01*
X157621Y598899D01*
X155142Y596420D01*
X154420Y595339D01*
X154166Y594063D01*
Y568786D01*
X153895Y568605D01*
X152790Y566951D01*
X152402Y565000D01*
X152790Y563049D01*
X153895Y561395D01*
X155549Y560290D01*
X157500Y559902D01*
X159451Y560290D01*
X161105Y561395D01*
X162210Y563049D01*
X162598Y565000D01*
X162210Y566951D01*
X161105Y568605D01*
X160834Y568786D01*
Y592682D01*
X163190Y595038D01*
X164451Y595289D01*
X166105Y596394D01*
X167210Y598048D01*
X167598Y599999D01*
X167210Y601950D01*
X166105Y603604D01*
X164451Y604709D01*
X162500Y605097D01*
D02*
G37*
G36*
X292500Y547598D02*
X290549Y547210D01*
X288895Y546105D01*
X287790Y544451D01*
X287402Y542500D01*
X287790Y540549D01*
X288895Y538895D01*
X290549Y537790D01*
X292500Y537402D01*
X294451Y537790D01*
X296105Y538895D01*
X297210Y540549D01*
X297598Y542500D01*
X297210Y544451D01*
X296105Y546105D01*
X294451Y547210D01*
X292500Y547598D01*
D02*
G37*
G36*
X279500Y527000D02*
X265500D01*
Y513000D01*
X279500D01*
Y516666D01*
X288714D01*
X288895Y516395D01*
X290549Y515290D01*
X292500Y514902D01*
X294451Y515290D01*
X296105Y516395D01*
X297210Y518049D01*
X297598Y520000D01*
X297210Y521951D01*
X296105Y523605D01*
X294451Y524710D01*
X292500Y525098D01*
X290549Y524710D01*
X288895Y523605D01*
X288714Y523334D01*
X279500D01*
Y527000D01*
D02*
G37*
G36*
X292500Y507598D02*
X290549Y507210D01*
X288895Y506105D01*
X287790Y504451D01*
X287402Y502500D01*
X287790Y500549D01*
X288895Y498895D01*
X290549Y497790D01*
X292500Y497402D01*
X294451Y497790D01*
X296105Y498895D01*
X297210Y500549D01*
X297598Y502500D01*
X297210Y504451D01*
X296105Y506105D01*
X294451Y507210D01*
X292500Y507598D01*
D02*
G37*
G36*
X162000Y497000D02*
X148000D01*
Y483000D01*
X162000D01*
Y497000D01*
D02*
G37*
G36*
X292500Y492598D02*
X290549Y492210D01*
X288895Y491105D01*
X287790Y489451D01*
X287402Y487500D01*
X287790Y485549D01*
X288895Y483895D01*
X290549Y482790D01*
X292500Y482402D01*
X294451Y482790D01*
X296105Y483895D01*
X297210Y485549D01*
X297598Y487500D01*
X297210Y489451D01*
X296105Y491105D01*
X294451Y492210D01*
X292500Y492598D01*
D02*
G37*
G36*
X277000Y492000D02*
X263000D01*
Y478000D01*
X277000D01*
Y492000D01*
D02*
G37*
G36*
X241750Y472848D02*
X239799Y472460D01*
X238145Y471355D01*
X238010Y471152D01*
X236740D01*
X236605Y471355D01*
X234951Y472460D01*
X233000Y472848D01*
X231049Y472460D01*
X229395Y471355D01*
X228290Y469701D01*
X227902Y467750D01*
X228290Y465799D01*
X229395Y464145D01*
X229228Y462730D01*
X228540Y461701D01*
X228152Y459750D01*
X228540Y457799D01*
X229645Y456145D01*
X229247Y454884D01*
X228790Y454201D01*
X228402Y452250D01*
X228790Y450299D01*
X229895Y448645D01*
X231549Y447540D01*
X233500Y447152D01*
X235451Y447540D01*
X236653Y448343D01*
X238145Y448395D01*
X239799Y447290D01*
X241750Y446902D01*
X243701Y447290D01*
X245355Y448395D01*
X246460Y450049D01*
X246848Y452000D01*
X246460Y453951D01*
X245695Y455095D01*
X245458Y456000D01*
X245695Y456905D01*
X246460Y458049D01*
X246848Y460000D01*
X246460Y461951D01*
X245355Y463605D01*
Y464145D01*
X246460Y465799D01*
X246848Y467750D01*
X246460Y469701D01*
X245355Y471355D01*
X243701Y472460D01*
X241750Y472848D01*
D02*
G37*
G36*
X292500Y475098D02*
X290549Y474710D01*
X288895Y473605D01*
X287790Y471951D01*
X287402Y470000D01*
X287790Y468049D01*
X288895Y466395D01*
X290549Y465290D01*
X292500Y464902D01*
X294451Y465290D01*
X296105Y466395D01*
X297210Y468049D01*
X297598Y470000D01*
X297210Y471951D01*
X296105Y473605D01*
X294451Y474710D01*
X292500Y475098D01*
D02*
G37*
G36*
Y455098D02*
X290549Y454710D01*
X288895Y453605D01*
X287790Y451951D01*
X287402Y450000D01*
X287790Y448049D01*
X288895Y446395D01*
X290549Y445290D01*
X292500Y444902D01*
X294451Y445290D01*
X296105Y446395D01*
X297210Y448049D01*
X297598Y450000D01*
X297210Y451951D01*
X296105Y453605D01*
X294451Y454710D01*
X292500Y455098D01*
D02*
G37*
G36*
Y437598D02*
X290549Y437210D01*
X288895Y436105D01*
X287790Y434451D01*
X287402Y432500D01*
X287790Y430549D01*
X288895Y428895D01*
X290549Y427790D01*
X292500Y427402D01*
X294451Y427790D01*
X296105Y428895D01*
X297210Y430549D01*
X297598Y432500D01*
X297210Y434451D01*
X296105Y436105D01*
X294451Y437210D01*
X292500Y437598D01*
D02*
G37*
G36*
X130000D02*
X128049Y437210D01*
X126395Y436105D01*
X125290Y434451D01*
X124902Y432500D01*
X125290Y430549D01*
X126395Y428895D01*
X128049Y427790D01*
X130000Y427402D01*
X131951Y427790D01*
X133605Y428895D01*
X134710Y430549D01*
X135098Y432500D01*
X134710Y434451D01*
X133605Y436105D01*
X131951Y437210D01*
X130000Y437598D01*
D02*
G37*
G36*
X112500D02*
X110549Y437210D01*
X108895Y436105D01*
X107790Y434451D01*
X107402Y432500D01*
X107790Y430549D01*
X108895Y428895D01*
X110549Y427790D01*
X112500Y427402D01*
X114451Y427790D01*
X116105Y428895D01*
X117210Y430549D01*
X117598Y432500D01*
X117210Y434451D01*
X116105Y436105D01*
X114451Y437210D01*
X112500Y437598D01*
D02*
G37*
G36*
X95000D02*
X93049Y437210D01*
X91395Y436105D01*
X90290Y434451D01*
X89902Y432500D01*
X90290Y430549D01*
X91395Y428895D01*
X93049Y427790D01*
X95000Y427402D01*
X96951Y427790D01*
X98605Y428895D01*
X99710Y430549D01*
X100098Y432500D01*
X99710Y434451D01*
X98605Y436105D01*
X96951Y437210D01*
X95000Y437598D01*
D02*
G37*
G36*
X222500Y462039D02*
X150000D01*
X149220Y461884D01*
X148558Y461442D01*
X148116Y460780D01*
X147961Y460000D01*
Y434706D01*
X147790Y434451D01*
X147473Y432857D01*
X135160Y420544D01*
X133896Y420669D01*
X133605Y421105D01*
X131951Y422210D01*
X130000Y422598D01*
X128049Y422210D01*
X126395Y421105D01*
X125290Y419451D01*
X124902Y417500D01*
X125238Y415809D01*
X124554Y414539D01*
X117946D01*
X117262Y415809D01*
X117598Y417500D01*
X117210Y419451D01*
X116105Y421105D01*
X114451Y422210D01*
X112500Y422598D01*
X110549Y422210D01*
X108895Y421105D01*
X107790Y419451D01*
X107402Y417500D01*
X107738Y415809D01*
X107054Y414539D01*
X100446D01*
X99762Y415809D01*
X100098Y417500D01*
X99710Y419451D01*
X98605Y421105D01*
X96951Y422210D01*
X95000Y422598D01*
X93049Y422210D01*
X91395Y421105D01*
X90290Y419451D01*
X89902Y417500D01*
X90238Y415809D01*
X89554Y414539D01*
X75000D01*
X74220Y414384D01*
X73558Y413942D01*
X73116Y413280D01*
X72961Y412500D01*
Y295000D01*
X73116Y294220D01*
X73558Y293558D01*
X74220Y293116D01*
X75000Y292961D01*
X225000D01*
X225780Y293116D01*
X226442Y293558D01*
X226884Y294220D01*
X227039Y295000D01*
Y327794D01*
X227210Y328049D01*
X227598Y330000D01*
X227210Y331951D01*
X227039Y332206D01*
Y424754D01*
X228000Y425500D01*
X242000D01*
Y439500D01*
X228000D01*
X227039Y440246D01*
Y457500D01*
X227039Y457500D01*
X226884Y458280D01*
X226442Y458942D01*
X223942Y461442D01*
X223280Y461884D01*
X222500Y462039D01*
D02*
G37*
G36*
X292500Y422598D02*
X290549Y422210D01*
X288895Y421105D01*
X287790Y419451D01*
X287402Y417500D01*
X287790Y415549D01*
X288895Y413895D01*
X290549Y412790D01*
X292500Y412402D01*
X294451Y412790D01*
X296105Y413895D01*
X297210Y415549D01*
X297598Y417500D01*
X297210Y419451D01*
X296105Y421105D01*
X294451Y422210D01*
X292500Y422598D01*
D02*
G37*
G36*
X270000Y335098D02*
X268049Y334710D01*
X266395Y333605D01*
X265290Y331951D01*
X264902Y330000D01*
X265290Y328049D01*
X266395Y326395D01*
X268049Y325290D01*
X270000Y324902D01*
X271951Y325290D01*
X273605Y326395D01*
X274710Y328049D01*
X275098Y330000D01*
X274710Y331951D01*
X273605Y333605D01*
X271951Y334710D01*
X270000Y335098D01*
D02*
G37*
G36*
X252500D02*
X250549Y334710D01*
X248895Y333605D01*
X247790Y331951D01*
X247402Y330000D01*
X247790Y328049D01*
X248895Y326395D01*
X250549Y325290D01*
X252500Y324902D01*
X254451Y325290D01*
X256105Y326395D01*
X257210Y328049D01*
X257598Y330000D01*
X257210Y331951D01*
X256105Y333605D01*
X254451Y334710D01*
X252500Y335098D01*
D02*
G37*
G36*
X237500D02*
X235549Y334710D01*
X233895Y333605D01*
X232790Y331951D01*
X232402Y330000D01*
X232790Y328049D01*
X233895Y326395D01*
X235549Y325290D01*
X237500Y324902D01*
X239451Y325290D01*
X241105Y326395D01*
X242210Y328049D01*
X242598Y330000D01*
X242210Y331951D01*
X241105Y333605D01*
X239451Y334710D01*
X237500Y335098D01*
D02*
G37*
G36*
X145419Y264463D02*
X131419D01*
Y250463D01*
X145419D01*
Y264463D01*
D02*
G37*
G36*
X115250Y220098D02*
X113299Y219710D01*
X111645Y218605D01*
X110540Y216951D01*
X110152Y215000D01*
X110540Y213049D01*
X111305Y211905D01*
X111542Y211000D01*
X111305Y210095D01*
X110540Y208951D01*
X110152Y207000D01*
X110540Y205049D01*
X111645Y203395D01*
Y202855D01*
X110540Y201201D01*
X110152Y199250D01*
X110540Y197299D01*
X111645Y195645D01*
X113299Y194540D01*
X115250Y194152D01*
X117201Y194540D01*
X118855Y195645D01*
X118990Y195848D01*
X120260D01*
X120395Y195645D01*
X122049Y194540D01*
X124000Y194152D01*
X125951Y194540D01*
X127605Y195645D01*
X128710Y197299D01*
X129098Y199250D01*
X128710Y201201D01*
X127605Y202855D01*
X127772Y204270D01*
X128460Y205299D01*
X128848Y207250D01*
X128460Y209201D01*
X127355Y210855D01*
X127753Y212116D01*
X128210Y212799D01*
X128598Y214750D01*
X128210Y216701D01*
X127105Y218355D01*
X125451Y219460D01*
X123500Y219848D01*
X121549Y219460D01*
X120347Y218657D01*
X118855Y218605D01*
X117201Y219710D01*
X115250Y220098D01*
D02*
G37*
G36*
X194500Y184500D02*
X180500D01*
Y170500D01*
X194500D01*
Y184500D01*
D02*
G37*
%LPD*%
G36*
X225000Y457500D02*
Y295000D01*
X75000D01*
Y412500D01*
X130000D01*
X150000Y432500D01*
Y460000D01*
X222500D01*
X225000Y457500D01*
D02*
G37*
%LPC*%
G36*
X113857Y376900D02*
X85857D01*
Y348900D01*
X113857D01*
Y376900D01*
D02*
G37*
G36*
X99857Y326221D02*
X96203Y325740D01*
X92797Y324329D01*
X89872Y322085D01*
X87628Y319160D01*
X86218Y315755D01*
X85737Y312100D01*
X86218Y308445D01*
X87628Y305040D01*
X89872Y302115D01*
X92797Y299871D01*
X96203Y298460D01*
X99857Y297979D01*
X103512Y298460D01*
X106918Y299871D01*
X109842Y302115D01*
X112086Y305040D01*
X113497Y308445D01*
X113978Y312100D01*
X113497Y315755D01*
X112086Y319160D01*
X109842Y322085D01*
X106918Y324329D01*
X103512Y325740D01*
X99857Y326221D01*
D02*
G37*
G36*
X612000Y557000D02*
X598000D01*
Y543000D01*
X612000D01*
Y557000D01*
D02*
G37*
G36*
X596950Y503832D02*
X595000Y503443D01*
X593346Y502338D01*
X592241Y500685D01*
X591853Y498734D01*
X592241Y496783D01*
X593346Y495129D01*
X593616Y494948D01*
Y424860D01*
X592617Y424325D01*
X592346Y424325D01*
X590472Y424698D01*
X588522Y424310D01*
X586868Y423205D01*
X585763Y421551D01*
X585374Y419600D01*
X585763Y417649D01*
X586868Y415995D01*
X588522Y414890D01*
X590472Y414502D01*
X592346Y414875D01*
X592617Y414875D01*
X593616Y414340D01*
Y409860D01*
X592617Y409325D01*
X592346Y409325D01*
X590472Y409698D01*
X588522Y409310D01*
X586868Y408205D01*
X585763Y406551D01*
X585374Y404600D01*
X585763Y402649D01*
X586868Y400995D01*
X588522Y399890D01*
X590472Y399502D01*
X592346Y399875D01*
X592617Y399875D01*
X593616Y399340D01*
Y389860D01*
X592617Y389325D01*
X592346Y389325D01*
X590472Y389698D01*
X588522Y389310D01*
X586868Y388205D01*
X585763Y386551D01*
X585374Y384600D01*
X585763Y382649D01*
X586868Y380995D01*
X588522Y379890D01*
X590472Y379502D01*
X592346Y379875D01*
X592617Y379875D01*
X593616Y379340D01*
Y374927D01*
X593870Y373651D01*
X594593Y372570D01*
X597911Y369252D01*
Y261520D01*
X597110Y261248D01*
X596641Y261168D01*
X594337Y262936D01*
X591570Y264082D01*
X588600Y264473D01*
X585630Y264082D01*
X582863Y262936D01*
X580487Y261113D01*
X578664Y258737D01*
X577518Y255970D01*
X577127Y253000D01*
X577518Y250030D01*
X578664Y247263D01*
X580487Y244887D01*
X582863Y243064D01*
X585630Y241918D01*
X588600Y241527D01*
X591570Y241918D01*
X594337Y243064D01*
X596641Y244832D01*
X597110Y244752D01*
X597911Y244480D01*
Y230126D01*
X582819Y215034D01*
X582500Y215098D01*
X580549Y214710D01*
X578895Y213605D01*
X577790Y211951D01*
X577402Y210000D01*
X577790Y208049D01*
X578895Y206395D01*
X580549Y205290D01*
X582500Y204902D01*
X584451Y205290D01*
X586105Y206395D01*
X587210Y208049D01*
X587598Y210000D01*
X587534Y210319D01*
X603602Y226388D01*
X604325Y227469D01*
X604579Y228745D01*
Y244617D01*
X605782Y245025D01*
X605887Y244887D01*
X608263Y243064D01*
X611031Y241918D01*
X614000Y241527D01*
X616969Y241918D01*
X619737Y243064D01*
X622113Y244887D01*
X623936Y247263D01*
X625082Y250030D01*
X625473Y253000D01*
X625082Y255970D01*
X623936Y258737D01*
X622113Y261113D01*
X619737Y262936D01*
X616969Y264082D01*
X614000Y264473D01*
X611031Y264082D01*
X608263Y262936D01*
X605887Y261113D01*
X605782Y260975D01*
X604579Y261383D01*
Y370633D01*
X604325Y371908D01*
X603602Y372990D01*
X600285Y376308D01*
Y494948D01*
X600555Y495129D01*
X601660Y496783D01*
X602048Y498734D01*
X601660Y500685D01*
X600555Y502338D01*
X598901Y503443D01*
X596950Y503832D01*
D02*
G37*
G36*
X577472Y424698D02*
X575522Y424310D01*
X573868Y423205D01*
X572763Y421551D01*
X572374Y419600D01*
X572763Y417649D01*
X573868Y415995D01*
X575522Y414890D01*
X577472Y414502D01*
X579423Y414890D01*
X581077Y415995D01*
X582182Y417649D01*
X582570Y419600D01*
X582182Y421551D01*
X581077Y423205D01*
X579423Y424310D01*
X577472Y424698D01*
D02*
G37*
G36*
X562472D02*
X560522Y424310D01*
X558868Y423205D01*
X557763Y421551D01*
X557374Y419600D01*
X557763Y417649D01*
X558868Y415995D01*
X560522Y414890D01*
X562472Y414502D01*
X564423Y414890D01*
X566077Y415995D01*
X567182Y417649D01*
X567570Y419600D01*
X567182Y421551D01*
X566077Y423205D01*
X564423Y424310D01*
X562472Y424698D01*
D02*
G37*
G36*
X547472D02*
X545522Y424310D01*
X543868Y423205D01*
X542762Y421551D01*
X542374Y419600D01*
X542762Y417649D01*
X543868Y415995D01*
X545522Y414890D01*
X547472Y414502D01*
X549423Y414890D01*
X551077Y415995D01*
X552182Y417649D01*
X552570Y419600D01*
X552182Y421551D01*
X551077Y423205D01*
X549423Y424310D01*
X547472Y424698D01*
D02*
G37*
G36*
X532472D02*
X530522Y424310D01*
X528868Y423205D01*
X527762Y421551D01*
X527374Y419600D01*
X527762Y417649D01*
X528868Y415995D01*
X530522Y414890D01*
X532472Y414502D01*
X534423Y414890D01*
X536077Y415995D01*
X537182Y417649D01*
X537570Y419600D01*
X537182Y421551D01*
X536077Y423205D01*
X534423Y424310D01*
X532472Y424698D01*
D02*
G37*
G36*
X517472D02*
X515522Y424310D01*
X513868Y423205D01*
X512763Y421551D01*
X512374Y419600D01*
X512763Y417649D01*
X513868Y415995D01*
X515522Y414890D01*
X517472Y414502D01*
X519423Y414890D01*
X521077Y415995D01*
X522182Y417649D01*
X522570Y419600D01*
X522182Y421551D01*
X521077Y423205D01*
X519423Y424310D01*
X517472Y424698D01*
D02*
G37*
G36*
X577472Y409698D02*
X575522Y409310D01*
X573868Y408205D01*
X572763Y406551D01*
X572374Y404600D01*
X572763Y402649D01*
X573868Y400995D01*
X575522Y399890D01*
X577472Y399502D01*
X579423Y399890D01*
X581077Y400995D01*
X582182Y402649D01*
X582570Y404600D01*
X582182Y406551D01*
X581077Y408205D01*
X579423Y409310D01*
X577472Y409698D01*
D02*
G37*
G36*
X562472D02*
X560522Y409310D01*
X558868Y408205D01*
X557763Y406551D01*
X557374Y404600D01*
X557763Y402649D01*
X558868Y400995D01*
X560522Y399890D01*
X562472Y399502D01*
X564423Y399890D01*
X566077Y400995D01*
X567182Y402649D01*
X567570Y404600D01*
X567182Y406551D01*
X566077Y408205D01*
X564423Y409310D01*
X562472Y409698D01*
D02*
G37*
G36*
X547472D02*
X545522Y409310D01*
X543868Y408205D01*
X542762Y406551D01*
X542374Y404600D01*
X542762Y402649D01*
X543868Y400995D01*
X545522Y399890D01*
X547472Y399502D01*
X549423Y399890D01*
X551077Y400995D01*
X552182Y402649D01*
X552570Y404600D01*
X552182Y406551D01*
X551077Y408205D01*
X549423Y409310D01*
X547472Y409698D01*
D02*
G37*
G36*
X532472D02*
X530522Y409310D01*
X528868Y408205D01*
X527762Y406551D01*
X527374Y404600D01*
X527762Y402649D01*
X528868Y400995D01*
X530522Y399890D01*
X532472Y399502D01*
X534423Y399890D01*
X536077Y400995D01*
X537182Y402649D01*
X537570Y404600D01*
X537182Y406551D01*
X536077Y408205D01*
X534423Y409310D01*
X532472Y409698D01*
D02*
G37*
G36*
X517472D02*
X515522Y409310D01*
X513868Y408205D01*
X512763Y406551D01*
X512374Y404600D01*
X512763Y402649D01*
X513868Y400995D01*
X515522Y399890D01*
X517472Y399502D01*
X519423Y399890D01*
X521077Y400995D01*
X522182Y402649D01*
X522570Y404600D01*
X522182Y406551D01*
X521077Y408205D01*
X519423Y409310D01*
X517472Y409698D01*
D02*
G37*
G36*
X577472Y389698D02*
X575522Y389310D01*
X573868Y388205D01*
X572763Y386551D01*
X572374Y384600D01*
X572763Y382649D01*
X573868Y380995D01*
X575522Y379890D01*
X577472Y379502D01*
X579423Y379890D01*
X581077Y380995D01*
X582182Y382649D01*
X582570Y384600D01*
X582182Y386551D01*
X581077Y388205D01*
X579423Y389310D01*
X577472Y389698D01*
D02*
G37*
G36*
X562472D02*
X560522Y389310D01*
X558868Y388205D01*
X557763Y386551D01*
X557374Y384600D01*
X557763Y382649D01*
X558868Y380995D01*
X560522Y379890D01*
X562472Y379502D01*
X564423Y379890D01*
X566077Y380995D01*
X567182Y382649D01*
X567570Y384600D01*
X567182Y386551D01*
X566077Y388205D01*
X564423Y389310D01*
X562472Y389698D01*
D02*
G37*
G36*
X547472D02*
X545522Y389310D01*
X543868Y388205D01*
X542762Y386551D01*
X542374Y384600D01*
X542762Y382649D01*
X543868Y380995D01*
X545522Y379890D01*
X547472Y379502D01*
X549423Y379890D01*
X551077Y380995D01*
X552182Y382649D01*
X552570Y384600D01*
X552182Y386551D01*
X551077Y388205D01*
X549423Y389310D01*
X547472Y389698D01*
D02*
G37*
G36*
X532472D02*
X530522Y389310D01*
X528868Y388205D01*
X527762Y386551D01*
X527374Y384600D01*
X527762Y382649D01*
X528868Y380995D01*
X530522Y379890D01*
X532472Y379502D01*
X534423Y379890D01*
X536077Y380995D01*
X537182Y382649D01*
X537570Y384600D01*
X537182Y386551D01*
X536077Y388205D01*
X534423Y389310D01*
X532472Y389698D01*
D02*
G37*
G36*
X517472D02*
X515522Y389310D01*
X513868Y388205D01*
X512763Y386551D01*
X512374Y384600D01*
X512763Y382649D01*
X513868Y380995D01*
X515522Y379890D01*
X517472Y379502D01*
X519423Y379890D01*
X521077Y380995D01*
X522182Y382649D01*
X522570Y384600D01*
X522182Y386551D01*
X521077Y388205D01*
X519423Y389310D01*
X517472Y389698D01*
D02*
G37*
G36*
X590472Y369698D02*
X588522Y369310D01*
X586868Y368205D01*
X585763Y366551D01*
X585374Y364600D01*
X585763Y362649D01*
X586868Y360995D01*
X588522Y359890D01*
X590472Y359502D01*
X592423Y359890D01*
X594077Y360995D01*
X595182Y362649D01*
X595570Y364600D01*
X595182Y366551D01*
X594077Y368205D01*
X592423Y369310D01*
X590472Y369698D01*
D02*
G37*
G36*
X577472D02*
X575522Y369310D01*
X573868Y368205D01*
X572763Y366551D01*
X572374Y364600D01*
X572763Y362649D01*
X573868Y360995D01*
X575522Y359890D01*
X577472Y359502D01*
X579423Y359890D01*
X581077Y360995D01*
X582182Y362649D01*
X582570Y364600D01*
X582182Y366551D01*
X581077Y368205D01*
X579423Y369310D01*
X577472Y369698D01*
D02*
G37*
G36*
X562472D02*
X560522Y369310D01*
X558868Y368205D01*
X557763Y366551D01*
X557374Y364600D01*
X557763Y362649D01*
X558868Y360995D01*
X560522Y359890D01*
X562472Y359502D01*
X564423Y359890D01*
X566077Y360995D01*
X567182Y362649D01*
X567570Y364600D01*
X567182Y366551D01*
X566077Y368205D01*
X564423Y369310D01*
X562472Y369698D01*
D02*
G37*
G36*
X547472D02*
X545522Y369310D01*
X543868Y368205D01*
X542762Y366551D01*
X542374Y364600D01*
X542762Y362649D01*
X543868Y360995D01*
X545522Y359890D01*
X547472Y359502D01*
X549423Y359890D01*
X551077Y360995D01*
X552182Y362649D01*
X552570Y364600D01*
X552182Y366551D01*
X551077Y368205D01*
X549423Y369310D01*
X547472Y369698D01*
D02*
G37*
G36*
X532472D02*
X530522Y369310D01*
X528868Y368205D01*
X527762Y366551D01*
X527374Y364600D01*
X527762Y362649D01*
X528868Y360995D01*
X530522Y359890D01*
X532472Y359502D01*
X534423Y359890D01*
X536077Y360995D01*
X537182Y362649D01*
X537570Y364600D01*
X537182Y366551D01*
X536077Y368205D01*
X534423Y369310D01*
X532472Y369698D01*
D02*
G37*
G36*
X517472D02*
X515522Y369310D01*
X513868Y368205D01*
X512763Y366551D01*
X512374Y364600D01*
X512763Y362649D01*
X513868Y360995D01*
X515522Y359890D01*
X517472Y359502D01*
X519423Y359890D01*
X521077Y360995D01*
X522182Y362649D01*
X522570Y364600D01*
X522182Y366551D01*
X521077Y368205D01*
X519423Y369310D01*
X517472Y369698D01*
D02*
G37*
G36*
X590472Y354698D02*
X588522Y354310D01*
X586868Y353205D01*
X585763Y351551D01*
X585374Y349600D01*
X585763Y347649D01*
X586868Y345995D01*
X588522Y344890D01*
X590472Y344502D01*
X592423Y344890D01*
X594077Y345995D01*
X595182Y347649D01*
X595570Y349600D01*
X595182Y351551D01*
X594077Y353205D01*
X592423Y354310D01*
X590472Y354698D01*
D02*
G37*
G36*
X577472D02*
X575522Y354310D01*
X573868Y353205D01*
X572763Y351551D01*
X572374Y349600D01*
X572763Y347649D01*
X573868Y345995D01*
X575522Y344890D01*
X577472Y344502D01*
X579423Y344890D01*
X581077Y345995D01*
X582182Y347649D01*
X582570Y349600D01*
X582182Y351551D01*
X581077Y353205D01*
X579423Y354310D01*
X577472Y354698D01*
D02*
G37*
G36*
X562472D02*
X560522Y354310D01*
X558868Y353205D01*
X557763Y351551D01*
X557374Y349600D01*
X557763Y347649D01*
X558868Y345995D01*
X560522Y344890D01*
X562472Y344502D01*
X564423Y344890D01*
X566077Y345995D01*
X567182Y347649D01*
X567570Y349600D01*
X567182Y351551D01*
X566077Y353205D01*
X564423Y354310D01*
X562472Y354698D01*
D02*
G37*
G36*
X547472D02*
X545522Y354310D01*
X543868Y353205D01*
X542762Y351551D01*
X542374Y349600D01*
X542762Y347649D01*
X543868Y345995D01*
X545522Y344890D01*
X547472Y344502D01*
X549423Y344890D01*
X551077Y345995D01*
X552182Y347649D01*
X552570Y349600D01*
X552182Y351551D01*
X551077Y353205D01*
X549423Y354310D01*
X547472Y354698D01*
D02*
G37*
G36*
X532472D02*
X530522Y354310D01*
X528868Y353205D01*
X527762Y351551D01*
X527374Y349600D01*
X527762Y347649D01*
X528868Y345995D01*
X530522Y344890D01*
X532472Y344502D01*
X534423Y344890D01*
X536077Y345995D01*
X537182Y347649D01*
X537570Y349600D01*
X537182Y351551D01*
X536077Y353205D01*
X534423Y354310D01*
X532472Y354698D01*
D02*
G37*
G36*
X517472D02*
X515522Y354310D01*
X513868Y353205D01*
X512763Y351551D01*
X512374Y349600D01*
X512763Y347649D01*
X513868Y345995D01*
X515522Y344890D01*
X517472Y344502D01*
X519423Y344890D01*
X521077Y345995D01*
X522182Y347649D01*
X522570Y349600D01*
X522182Y351551D01*
X521077Y353205D01*
X519423Y354310D01*
X517472Y354698D01*
D02*
G37*
G36*
X715600Y264473D02*
X712630Y264082D01*
X709863Y262936D01*
X707487Y261113D01*
X705664Y258737D01*
X704518Y255970D01*
X704127Y253000D01*
X704518Y250030D01*
X705664Y247263D01*
X707487Y244887D01*
X709863Y243064D01*
X712630Y241918D01*
X715600Y241527D01*
X718569Y241918D01*
X721337Y243064D01*
X723713Y244887D01*
X725536Y247263D01*
X726682Y250030D01*
X727073Y253000D01*
X726682Y255970D01*
X725536Y258737D01*
X723713Y261113D01*
X721337Y262936D01*
X718569Y264082D01*
X715600Y264473D01*
D02*
G37*
G36*
X690200D02*
X687231Y264082D01*
X684463Y262936D01*
X682087Y261113D01*
X680264Y258737D01*
X679118Y255970D01*
X678727Y253000D01*
X679118Y250030D01*
X680264Y247263D01*
X682087Y244887D01*
X684463Y243064D01*
X687231Y241918D01*
X690200Y241527D01*
X693169Y241918D01*
X695937Y243064D01*
X698313Y244887D01*
X700136Y247263D01*
X701282Y250030D01*
X701673Y253000D01*
X701282Y255970D01*
X700136Y258737D01*
X698313Y261113D01*
X695937Y262936D01*
X693169Y264082D01*
X690200Y264473D01*
D02*
G37*
G36*
X664800D02*
X661831Y264082D01*
X659063Y262936D01*
X656687Y261113D01*
X654864Y258737D01*
X653718Y255970D01*
X653327Y253000D01*
X653718Y250030D01*
X654864Y247263D01*
X656687Y244887D01*
X659063Y243064D01*
X661831Y241918D01*
X664800Y241527D01*
X667769Y241918D01*
X670537Y243064D01*
X672913Y244887D01*
X674736Y247263D01*
X675882Y250030D01*
X676273Y253000D01*
X675882Y255970D01*
X674736Y258737D01*
X672913Y261113D01*
X670537Y262936D01*
X667769Y264082D01*
X664800Y264473D01*
D02*
G37*
G36*
X639400D02*
X636431Y264082D01*
X633663Y262936D01*
X631287Y261113D01*
X629464Y258737D01*
X628318Y255970D01*
X627927Y253000D01*
X628318Y250030D01*
X629464Y247263D01*
X631287Y244887D01*
X633663Y243064D01*
X636431Y241918D01*
X639400Y241527D01*
X642370Y241918D01*
X645137Y243064D01*
X647513Y244887D01*
X649336Y247263D01*
X650482Y250030D01*
X650873Y253000D01*
X650482Y255970D01*
X649336Y258737D01*
X647513Y261113D01*
X645137Y262936D01*
X642370Y264082D01*
X639400Y264473D01*
D02*
G37*
G36*
X563200D02*
X560230Y264082D01*
X557463Y262936D01*
X555087Y261113D01*
X553264Y258737D01*
X552118Y255970D01*
X551727Y253000D01*
X552118Y250030D01*
X553264Y247263D01*
X555087Y244887D01*
X557463Y243064D01*
X560230Y241918D01*
X563200Y241527D01*
X566170Y241918D01*
X568937Y243064D01*
X571313Y244887D01*
X573136Y247263D01*
X574282Y250030D01*
X574673Y253000D01*
X574282Y255970D01*
X573136Y258737D01*
X571313Y261113D01*
X568937Y262936D01*
X566170Y264082D01*
X563200Y264473D01*
D02*
G37*
G36*
X537800D02*
X534831Y264082D01*
X532063Y262936D01*
X529687Y261113D01*
X527864Y258737D01*
X526718Y255970D01*
X526327Y253000D01*
X526718Y250030D01*
X527864Y247263D01*
X529687Y244887D01*
X532063Y243064D01*
X534831Y241918D01*
X537800Y241527D01*
X540770Y241918D01*
X543537Y243064D01*
X545913Y244887D01*
X547736Y247263D01*
X548882Y250030D01*
X549273Y253000D01*
X548882Y255970D01*
X547736Y258737D01*
X545913Y261113D01*
X543537Y262936D01*
X540770Y264082D01*
X537800Y264473D01*
D02*
G37*
G36*
X512400D02*
X509431Y264082D01*
X506663Y262936D01*
X504287Y261113D01*
X502464Y258737D01*
X501318Y255970D01*
X500927Y253000D01*
X501318Y250030D01*
X502464Y247263D01*
X504287Y244887D01*
X506663Y243064D01*
X509431Y241918D01*
X512400Y241527D01*
X515369Y241918D01*
X518137Y243064D01*
X520513Y244887D01*
X522336Y247263D01*
X523482Y250030D01*
X523873Y253000D01*
X523482Y255970D01*
X522336Y258737D01*
X520513Y261113D01*
X518137Y262936D01*
X515369Y264082D01*
X512400Y264473D01*
D02*
G37*
G36*
X487000D02*
X484030Y264082D01*
X481263Y262936D01*
X478887Y261113D01*
X477064Y258737D01*
X475918Y255970D01*
X475527Y253000D01*
X475918Y250030D01*
X477064Y247263D01*
X478887Y244887D01*
X481263Y243064D01*
X484030Y241918D01*
X487000Y241527D01*
X489969Y241918D01*
X492737Y243064D01*
X495113Y244887D01*
X496936Y247263D01*
X498082Y250030D01*
X498473Y253000D01*
X498082Y255970D01*
X496936Y258737D01*
X495113Y261113D01*
X492737Y262936D01*
X489969Y264082D01*
X487000Y264473D01*
D02*
G37*
G36*
X461600D02*
X458630Y264082D01*
X455863Y262936D01*
X453487Y261113D01*
X451664Y258737D01*
X450518Y255970D01*
X450127Y253000D01*
X450518Y250030D01*
X451664Y247263D01*
X453487Y244887D01*
X455863Y243064D01*
X458630Y241918D01*
X461600Y241527D01*
X464570Y241918D01*
X467337Y243064D01*
X469713Y244887D01*
X471536Y247263D01*
X472682Y250030D01*
X473073Y253000D01*
X472682Y255970D01*
X471536Y258737D01*
X469713Y261113D01*
X467337Y262936D01*
X464570Y264082D01*
X461600Y264473D01*
D02*
G37*
G36*
X436200D02*
X433231Y264082D01*
X430463Y262936D01*
X428087Y261113D01*
X426264Y258737D01*
X425118Y255970D01*
X424727Y253000D01*
X425118Y250030D01*
X426264Y247263D01*
X428087Y244887D01*
X430463Y243064D01*
X433231Y241918D01*
X436200Y241527D01*
X439170Y241918D01*
X441937Y243064D01*
X444313Y244887D01*
X446136Y247263D01*
X447282Y250030D01*
X447673Y253000D01*
X447282Y255970D01*
X446136Y258737D01*
X444313Y261113D01*
X441937Y262936D01*
X439170Y264082D01*
X436200Y264473D01*
D02*
G37*
G36*
X410800D02*
X407831Y264082D01*
X405063Y262936D01*
X402687Y261113D01*
X400864Y258737D01*
X399718Y255970D01*
X399327Y253000D01*
X399718Y250030D01*
X400864Y247263D01*
X402687Y244887D01*
X405063Y243064D01*
X407831Y241918D01*
X410800Y241527D01*
X413769Y241918D01*
X416537Y243064D01*
X418913Y244887D01*
X420736Y247263D01*
X421882Y250030D01*
X422273Y253000D01*
X421882Y255970D01*
X420736Y258737D01*
X418913Y261113D01*
X416537Y262936D01*
X413769Y264082D01*
X410800Y264473D01*
D02*
G37*
G36*
X385400D02*
X382430Y264082D01*
X379663Y262936D01*
X377287Y261113D01*
X375464Y258737D01*
X374318Y255970D01*
X373927Y253000D01*
X374318Y250030D01*
X375464Y247263D01*
X377287Y244887D01*
X379663Y243064D01*
X382430Y241918D01*
X385400Y241527D01*
X388369Y241918D01*
X391137Y243064D01*
X393513Y244887D01*
X395336Y247263D01*
X396482Y250030D01*
X396873Y253000D01*
X396482Y255970D01*
X395336Y258737D01*
X393513Y261113D01*
X391137Y262936D01*
X388369Y264082D01*
X385400Y264473D01*
D02*
G37*
G36*
X412000Y187000D02*
X398000D01*
Y173000D01*
X412000D01*
Y187000D01*
D02*
G37*
G36*
Y137000D02*
X398000D01*
Y123000D01*
X412000D01*
Y137000D01*
D02*
G37*
G36*
X344500Y279500D02*
X330500D01*
Y265500D01*
X340908D01*
X341230Y265436D01*
X342849D01*
X348625Y259660D01*
Y248114D01*
X306756Y206244D01*
X305761Y204756D01*
X305412Y203000D01*
Y99633D01*
X305290Y99451D01*
X304902Y97500D01*
X305290Y95549D01*
X306395Y93895D01*
X308049Y92790D01*
X310000Y92402D01*
X311951Y92790D01*
X313605Y93895D01*
X314710Y95549D01*
X315098Y97500D01*
X314710Y99451D01*
X314588Y99633D01*
Y201099D01*
X355114Y241625D01*
X371375D01*
Y264375D01*
X353340D01*
X346587Y271127D01*
X345506Y271850D01*
X344500Y272050D01*
Y279500D01*
D02*
G37*
G36*
X766400Y36473D02*
X763430Y36082D01*
X760663Y34936D01*
X758287Y33113D01*
X756464Y30737D01*
X755318Y27970D01*
X754927Y25000D01*
X755318Y22030D01*
X756464Y19263D01*
X758287Y16887D01*
X760663Y15064D01*
X763430Y13918D01*
X766400Y13527D01*
X769370Y13918D01*
X772137Y15064D01*
X774513Y16887D01*
X776336Y19263D01*
X777482Y22030D01*
X777873Y25000D01*
X777482Y27970D01*
X776336Y30737D01*
X774513Y33113D01*
X772137Y34936D01*
X769370Y36082D01*
X766400Y36473D01*
D02*
G37*
G36*
X741000D02*
X738030Y36082D01*
X735263Y34936D01*
X732887Y33113D01*
X731064Y30737D01*
X729918Y27970D01*
X729527Y25000D01*
X729918Y22030D01*
X731064Y19263D01*
X732887Y16887D01*
X735263Y15064D01*
X738030Y13918D01*
X741000Y13527D01*
X743969Y13918D01*
X746737Y15064D01*
X749113Y16887D01*
X750936Y19263D01*
X752082Y22030D01*
X752473Y25000D01*
X752082Y27970D01*
X750936Y30737D01*
X749113Y33113D01*
X746737Y34936D01*
X743969Y36082D01*
X741000Y36473D01*
D02*
G37*
G36*
X715600D02*
X712630Y36082D01*
X709863Y34936D01*
X707487Y33113D01*
X705664Y30737D01*
X704518Y27970D01*
X704127Y25000D01*
X704518Y22030D01*
X705664Y19263D01*
X707487Y16887D01*
X709863Y15064D01*
X712630Y13918D01*
X715600Y13527D01*
X718569Y13918D01*
X721337Y15064D01*
X723713Y16887D01*
X725536Y19263D01*
X726682Y22030D01*
X727073Y25000D01*
X726682Y27970D01*
X725536Y30737D01*
X723713Y33113D01*
X721337Y34936D01*
X718569Y36082D01*
X715600Y36473D01*
D02*
G37*
G36*
X690200D02*
X687231Y36082D01*
X684463Y34936D01*
X682087Y33113D01*
X680264Y30737D01*
X679118Y27970D01*
X678727Y25000D01*
X679118Y22030D01*
X680264Y19263D01*
X682087Y16887D01*
X684463Y15064D01*
X687231Y13918D01*
X690200Y13527D01*
X693169Y13918D01*
X695937Y15064D01*
X698313Y16887D01*
X700136Y19263D01*
X701282Y22030D01*
X701673Y25000D01*
X701282Y27970D01*
X700136Y30737D01*
X698313Y33113D01*
X695937Y34936D01*
X693169Y36082D01*
X690200Y36473D01*
D02*
G37*
G36*
X664800D02*
X661831Y36082D01*
X659063Y34936D01*
X656687Y33113D01*
X654864Y30737D01*
X653718Y27970D01*
X653327Y25000D01*
X653718Y22030D01*
X654864Y19263D01*
X656687Y16887D01*
X659063Y15064D01*
X661831Y13918D01*
X664800Y13527D01*
X667769Y13918D01*
X670537Y15064D01*
X672913Y16887D01*
X674736Y19263D01*
X675882Y22030D01*
X676273Y25000D01*
X675882Y27970D01*
X674736Y30737D01*
X672913Y33113D01*
X670537Y34936D01*
X667769Y36082D01*
X664800Y36473D01*
D02*
G37*
G36*
X639400D02*
X636431Y36082D01*
X633663Y34936D01*
X631287Y33113D01*
X629464Y30737D01*
X628318Y27970D01*
X627927Y25000D01*
X628318Y22030D01*
X629464Y19263D01*
X631287Y16887D01*
X633663Y15064D01*
X636431Y13918D01*
X639400Y13527D01*
X642370Y13918D01*
X645137Y15064D01*
X647513Y16887D01*
X649336Y19263D01*
X650482Y22030D01*
X650873Y25000D01*
X650482Y27970D01*
X649336Y30737D01*
X647513Y33113D01*
X645137Y34936D01*
X642370Y36082D01*
X639400Y36473D01*
D02*
G37*
G36*
X614000D02*
X611031Y36082D01*
X608263Y34936D01*
X605887Y33113D01*
X604064Y30737D01*
X602918Y27970D01*
X602527Y25000D01*
X602918Y22030D01*
X604064Y19263D01*
X605887Y16887D01*
X608263Y15064D01*
X611031Y13918D01*
X614000Y13527D01*
X616969Y13918D01*
X619737Y15064D01*
X622113Y16887D01*
X623936Y19263D01*
X625082Y22030D01*
X625473Y25000D01*
X625082Y27970D01*
X623936Y30737D01*
X622113Y33113D01*
X619737Y34936D01*
X616969Y36082D01*
X614000Y36473D01*
D02*
G37*
G36*
X588600D02*
X585630Y36082D01*
X582863Y34936D01*
X580487Y33113D01*
X578664Y30737D01*
X577518Y27970D01*
X577127Y25000D01*
X577518Y22030D01*
X578664Y19263D01*
X580487Y16887D01*
X582863Y15064D01*
X585630Y13918D01*
X588600Y13527D01*
X591570Y13918D01*
X594337Y15064D01*
X596713Y16887D01*
X598536Y19263D01*
X599682Y22030D01*
X600073Y25000D01*
X599682Y27970D01*
X598536Y30737D01*
X596713Y33113D01*
X594337Y34936D01*
X591570Y36082D01*
X588600Y36473D01*
D02*
G37*
G36*
X563200D02*
X560230Y36082D01*
X557463Y34936D01*
X555087Y33113D01*
X553264Y30737D01*
X552118Y27970D01*
X551727Y25000D01*
X552118Y22030D01*
X553264Y19263D01*
X555087Y16887D01*
X557463Y15064D01*
X560230Y13918D01*
X563200Y13527D01*
X566170Y13918D01*
X568937Y15064D01*
X571313Y16887D01*
X573136Y19263D01*
X574282Y22030D01*
X574673Y25000D01*
X574282Y27970D01*
X573136Y30737D01*
X571313Y33113D01*
X568937Y34936D01*
X566170Y36082D01*
X563200Y36473D01*
D02*
G37*
G36*
X537800D02*
X534831Y36082D01*
X532063Y34936D01*
X529687Y33113D01*
X527864Y30737D01*
X526718Y27970D01*
X526327Y25000D01*
X526718Y22030D01*
X527864Y19263D01*
X529687Y16887D01*
X532063Y15064D01*
X534831Y13918D01*
X537800Y13527D01*
X540770Y13918D01*
X543537Y15064D01*
X545913Y16887D01*
X547736Y19263D01*
X548882Y22030D01*
X549273Y25000D01*
X548882Y27970D01*
X547736Y30737D01*
X545913Y33113D01*
X543537Y34936D01*
X540770Y36082D01*
X537800Y36473D01*
D02*
G37*
G36*
X512400D02*
X509431Y36082D01*
X506663Y34936D01*
X504287Y33113D01*
X502464Y30737D01*
X501318Y27970D01*
X500927Y25000D01*
X501318Y22030D01*
X502464Y19263D01*
X504287Y16887D01*
X506663Y15064D01*
X509431Y13918D01*
X512400Y13527D01*
X515369Y13918D01*
X518137Y15064D01*
X520513Y16887D01*
X522336Y19263D01*
X523482Y22030D01*
X523873Y25000D01*
X523482Y27970D01*
X522336Y30737D01*
X520513Y33113D01*
X518137Y34936D01*
X515369Y36082D01*
X512400Y36473D01*
D02*
G37*
G36*
X487000D02*
X484030Y36082D01*
X481263Y34936D01*
X478887Y33113D01*
X477064Y30737D01*
X475918Y27970D01*
X475527Y25000D01*
X475918Y22030D01*
X477064Y19263D01*
X478887Y16887D01*
X481263Y15064D01*
X484030Y13918D01*
X487000Y13527D01*
X489969Y13918D01*
X492737Y15064D01*
X495113Y16887D01*
X496936Y19263D01*
X498082Y22030D01*
X498473Y25000D01*
X498082Y27970D01*
X496936Y30737D01*
X495113Y33113D01*
X492737Y34936D01*
X489969Y36082D01*
X487000Y36473D01*
D02*
G37*
G36*
X461600D02*
X458630Y36082D01*
X455863Y34936D01*
X453487Y33113D01*
X451664Y30737D01*
X450518Y27970D01*
X450127Y25000D01*
X450518Y22030D01*
X451664Y19263D01*
X453487Y16887D01*
X455863Y15064D01*
X458630Y13918D01*
X461600Y13527D01*
X464570Y13918D01*
X467337Y15064D01*
X469713Y16887D01*
X471536Y19263D01*
X472682Y22030D01*
X473073Y25000D01*
X472682Y27970D01*
X471536Y30737D01*
X469713Y33113D01*
X467337Y34936D01*
X464570Y36082D01*
X461600Y36473D01*
D02*
G37*
G36*
X436200D02*
X433231Y36082D01*
X430463Y34936D01*
X428087Y33113D01*
X426264Y30737D01*
X425118Y27970D01*
X424727Y25000D01*
X425118Y22030D01*
X426264Y19263D01*
X428087Y16887D01*
X430463Y15064D01*
X433231Y13918D01*
X436200Y13527D01*
X439170Y13918D01*
X441937Y15064D01*
X444313Y16887D01*
X446136Y19263D01*
X447282Y22030D01*
X447673Y25000D01*
X447282Y27970D01*
X446136Y30737D01*
X444313Y33113D01*
X441937Y34936D01*
X439170Y36082D01*
X436200Y36473D01*
D02*
G37*
G36*
X410800D02*
X407831Y36082D01*
X405063Y34936D01*
X402687Y33113D01*
X400864Y30737D01*
X399718Y27970D01*
X399327Y25000D01*
X399718Y22030D01*
X400864Y19263D01*
X402687Y16887D01*
X405063Y15064D01*
X407831Y13918D01*
X410800Y13527D01*
X413769Y13918D01*
X416537Y15064D01*
X418913Y16887D01*
X420736Y19263D01*
X421882Y22030D01*
X422273Y25000D01*
X421882Y27970D01*
X420736Y30737D01*
X418913Y33113D01*
X416537Y34936D01*
X413769Y36082D01*
X410800Y36473D01*
D02*
G37*
G36*
X385400D02*
X382430Y36082D01*
X379663Y34936D01*
X377287Y33113D01*
X375464Y30737D01*
X374318Y27970D01*
X373927Y25000D01*
X374318Y22030D01*
X375464Y19263D01*
X377287Y16887D01*
X379663Y15064D01*
X382430Y13918D01*
X385400Y13527D01*
X388369Y13918D01*
X391137Y15064D01*
X393513Y16887D01*
X395336Y19263D01*
X396482Y22030D01*
X396873Y25000D01*
X396482Y27970D01*
X395336Y30737D01*
X393513Y33113D01*
X391137Y34936D01*
X388369Y36082D01*
X385400Y36473D01*
D02*
G37*
G36*
X724000Y713000D02*
X708000D01*
Y697000D01*
X724000D01*
Y713000D01*
D02*
G37*
G36*
X580957D02*
X564957D01*
Y697000D01*
X580957D01*
Y713000D01*
D02*
G37*
%LPD*%
D13*
X277500Y587124D02*
X380000Y484624D01*
X277500Y587124D02*
Y595000D01*
X380000Y472500D02*
Y484624D01*
X310000Y203000D02*
X360000Y253000D01*
X310000Y97500D02*
Y203000D01*
D86*
X225000Y432500D02*
X235000D01*
X157500Y594063D02*
X162500Y599062D01*
X157500Y565000D02*
Y594063D01*
X272500Y520000D02*
X292500D01*
X344230Y268770D02*
X360000Y253000D01*
X341230Y268770D02*
X344230D01*
X337500Y272500D02*
X341230Y268770D01*
X596950Y374927D02*
Y498734D01*
Y374927D02*
X601245Y370633D01*
Y228745D02*
Y370633D01*
X582500Y210000D02*
X601245Y228745D01*
X162500Y599062D02*
Y599999D01*
X753755Y229681D02*
X757500Y225936D01*
X753755Y312785D02*
X765270Y324300D01*
X753755Y229681D02*
Y312785D01*
X750000Y410400D02*
X765270Y395130D01*
Y324300D02*
Y395130D01*
X757500Y225000D02*
Y225936D01*
X207500Y432500D02*
X220000D01*
D89*
X99857Y312100D02*
D03*
X750000Y410400D02*
D03*
D90*
X99857Y362900D02*
D03*
X750000Y359600D02*
D03*
D91*
X766400Y253000D02*
D03*
X741000D02*
D03*
X715600D02*
D03*
X690200D02*
D03*
X664800D02*
D03*
X639400D02*
D03*
X614000D02*
D03*
X588600D02*
D03*
X563200D02*
D03*
X537800D02*
D03*
X512400D02*
D03*
X487000D02*
D03*
X461600D02*
D03*
X436200D02*
D03*
X410800D02*
D03*
X385400D02*
D03*
X766400Y25000D02*
D03*
X741000D02*
D03*
X715600D02*
D03*
X690200D02*
D03*
X664800D02*
D03*
X639400D02*
D03*
X614000D02*
D03*
X588600D02*
D03*
X563200D02*
D03*
X537800D02*
D03*
X512400D02*
D03*
X487000D02*
D03*
X461600D02*
D03*
X436200D02*
D03*
X410800D02*
D03*
X385400D02*
D03*
D92*
X360000Y253000D02*
D03*
Y25000D02*
D03*
D93*
X716000Y705000D02*
D03*
X572957D02*
D03*
X429915Y704000D02*
D03*
X286872D02*
D03*
D94*
X716000Y755000D02*
D03*
X572957D02*
D03*
X429915Y754000D02*
D03*
X286872D02*
D03*
D95*
X830000Y705000D02*
D03*
X385000Y95000D02*
D03*
X160000Y60000D02*
D03*
X277500Y595000D02*
D03*
X680000Y187500D02*
D03*
X157500Y565000D02*
D03*
X7500Y605000D02*
D03*
Y477500D02*
D03*
Y322500D02*
D03*
Y150000D02*
D03*
Y90000D02*
D03*
X187500Y177500D02*
D03*
X107500Y160000D02*
D03*
X138419Y257463D02*
D03*
X155000Y490000D02*
D03*
X270000Y485000D02*
D03*
X399876Y285124D02*
D03*
X270000Y105000D02*
D03*
X650000Y117500D02*
D03*
X682500Y75000D02*
D03*
X405000Y130000D02*
D03*
Y180000D02*
D03*
X690000Y550000D02*
D03*
X605000D02*
D03*
X350000Y650000D02*
D03*
X332500D02*
D03*
Y577500D02*
D03*
Y595000D02*
D03*
Y610000D02*
D03*
Y625000D02*
D03*
Y637500D02*
D03*
X588410Y453410D02*
D03*
X687500Y475000D02*
D03*
X672500Y540000D02*
D03*
X616444Y536374D02*
D03*
X292500Y560000D02*
D03*
X380000Y472500D02*
D03*
X292500Y587500D02*
D03*
X345000Y447500D02*
D03*
X752500Y142500D02*
D03*
X722500Y202500D02*
D03*
X582500Y210000D02*
D03*
X596950Y498734D02*
D03*
X583450Y164050D02*
D03*
X340000Y147500D02*
D03*
X327830Y175438D02*
D03*
X315000Y242500D02*
D03*
X112997Y63770D02*
D03*
X310000Y97500D02*
D03*
X130000Y127500D02*
D03*
X162500Y599999D02*
D03*
X292500Y637500D02*
D03*
Y612500D02*
D03*
Y542500D02*
D03*
Y520000D02*
D03*
Y502500D02*
D03*
Y487500D02*
D03*
Y470000D02*
D03*
Y450000D02*
D03*
Y432500D02*
D03*
Y417500D02*
D03*
X757500Y225000D02*
D03*
X105000Y462500D02*
D03*
Y472500D02*
D03*
Y482500D02*
D03*
X92500Y462500D02*
D03*
Y472500D02*
D03*
Y482500D02*
D03*
X80000Y472500D02*
D03*
X67500D02*
D03*
X55000D02*
D03*
X42500D02*
D03*
X80000Y462500D02*
D03*
X67500D02*
D03*
X55000D02*
D03*
X42500D02*
D03*
Y482500D02*
D03*
X80000D02*
D03*
X67500D02*
D03*
X55000D02*
D03*
X62500Y177500D02*
D03*
X50000D02*
D03*
X37500D02*
D03*
X262500Y212500D02*
D03*
X250000D02*
D03*
X262500Y222500D02*
D03*
X250000D02*
D03*
X262500Y235000D02*
D03*
X250000D02*
D03*
X237500Y170000D02*
D03*
X225000D02*
D03*
X237500Y182500D02*
D03*
X225000D02*
D03*
X237500Y197500D02*
D03*
X225000D02*
D03*
X237500Y210000D02*
D03*
X225000D02*
D03*
X237500Y222500D02*
D03*
X225000Y225000D02*
D03*
X237500Y235000D02*
D03*
X225000D02*
D03*
X220000Y417500D02*
D03*
Y432500D02*
D03*
Y447500D02*
D03*
X207500D02*
D03*
X190000D02*
D03*
X172500D02*
D03*
X207500Y417500D02*
D03*
Y432500D02*
D03*
X190000Y417500D02*
D03*
Y432500D02*
D03*
X172500Y417500D02*
D03*
Y432500D02*
D03*
X152500Y417500D02*
D03*
Y432500D02*
D03*
X130000Y417500D02*
D03*
Y432500D02*
D03*
X112500Y417500D02*
D03*
X95000D02*
D03*
X112500Y432500D02*
D03*
X95000D02*
D03*
X270000Y330000D02*
D03*
X252500D02*
D03*
X237500D02*
D03*
X222500D02*
D03*
X210000D02*
D03*
X195000D02*
D03*
X180000D02*
D03*
X167500D02*
D03*
X155000D02*
D03*
X142500D02*
D03*
X130000D02*
D03*
X590472Y419600D02*
D03*
Y404600D02*
D03*
Y384600D02*
D03*
Y364600D02*
D03*
Y349600D02*
D03*
X577472Y419600D02*
D03*
Y404600D02*
D03*
Y384600D02*
D03*
Y364600D02*
D03*
Y349600D02*
D03*
X562472Y419600D02*
D03*
Y404600D02*
D03*
Y384600D02*
D03*
Y364600D02*
D03*
Y349600D02*
D03*
X547472Y419600D02*
D03*
Y404600D02*
D03*
Y384600D02*
D03*
Y364600D02*
D03*
Y349600D02*
D03*
X532472Y419600D02*
D03*
Y404600D02*
D03*
Y384600D02*
D03*
Y364600D02*
D03*
Y349600D02*
D03*
X517472Y419600D02*
D03*
Y404600D02*
D03*
Y384600D02*
D03*
Y364600D02*
D03*
Y349600D02*
D03*
X523050Y566000D02*
D03*
X559050Y542000D02*
D03*
X547050D02*
D03*
X535050D02*
D03*
X523050D02*
D03*
X511050D02*
D03*
X499050D02*
D03*
X487050D02*
D03*
X559050Y554000D02*
D03*
X547050D02*
D03*
X535050D02*
D03*
X523050D02*
D03*
X511050D02*
D03*
X499050D02*
D03*
X487050D02*
D03*
X559050Y566000D02*
D03*
X547050D02*
D03*
X535050D02*
D03*
X511050D02*
D03*
X499050D02*
D03*
X487050D02*
D03*
X559050Y578000D02*
D03*
X547050D02*
D03*
X535050D02*
D03*
X523050D02*
D03*
X511050D02*
D03*
X499050D02*
D03*
X487050D02*
D03*
X124000Y199250D02*
D03*
X115250D02*
D03*
X123750Y207250D02*
D03*
X115250Y207000D02*
D03*
X123500Y214750D02*
D03*
X115250Y215000D02*
D03*
X233000Y467750D02*
D03*
X241750D02*
D03*
X233250Y459750D02*
D03*
X241750Y460000D02*
D03*
X233500Y452250D02*
D03*
X241750Y452000D02*
D03*
X209000Y199250D02*
D03*
X200250D02*
D03*
X208750Y207250D02*
D03*
X200250Y207000D02*
D03*
X208500Y214750D02*
D03*
X200250Y215000D02*
D03*
X133000Y467750D02*
D03*
X141750D02*
D03*
X133250Y459750D02*
D03*
X141750Y460000D02*
D03*
X133500Y452250D02*
D03*
X141750Y452000D02*
D03*
D96*
X432500Y452500D02*
D03*
X345000Y395000D02*
D03*
D103*
X270000Y105000D02*
D03*
X272500Y520000D02*
D03*
X107500Y160000D02*
D03*
X235000Y432500D02*
D03*
X155000Y490000D02*
D03*
X187500Y177500D02*
D03*
X270000Y485000D02*
D03*
X138419Y257463D02*
D03*
X337500Y272500D02*
D03*
X405000Y130000D02*
D03*
D104*
X690000Y550000D02*
D03*
X405000Y180000D02*
D03*
X605000Y550000D02*
D03*
M02*
