G04*
G04 #@! TF.GenerationSoftware,Altium Limited,Altium Designer,20.1.12 (249)*
G04*
G04 Layer_Physical_Order=3*
G04 Layer_Color=128*
%FSLAX44Y44*%
%MOMM*%
G71*
G04*
G04 #@! TF.SameCoordinates,284B2C5B-B2DB-445A-AC85-361AEC2CE434*
G04*
G04*
G04 #@! TF.FilePolarity,Negative*
G04*
G01*
G75*
%ADD10C,0.2000*%
%ADD97C,1.0160*%
%ADD98C,2.6160*%
%ADD99C,4.2160*%
%ADD100C,2.2660*%
%ADD101C,1.8160*%
%ADD102C,1.3160*%
D10*
X610000Y312500D02*
X850000D01*
X610000D02*
Y437500D01*
X700000D01*
Y585000D01*
X697500Y587500D02*
X700000Y585000D01*
X587500Y587500D02*
X697500D01*
X587500D02*
Y667500D01*
X287306Y194D02*
Y154806D01*
X287775Y287775D02*
X299611Y299611D01*
Y300000D01*
X287500Y155000D02*
Y287500D01*
X287111Y154612D02*
X287500Y155000D01*
X155000Y154612D02*
X287111D01*
X77500Y442500D02*
X87500D01*
X77500Y297500D02*
Y442500D01*
X75000Y295000D02*
X77500Y297500D01*
X75000Y295000D02*
X287500D01*
Y372500D01*
X210000D02*
X287500D01*
X157500D02*
X210000D01*
X155000Y375000D02*
X157500Y372500D01*
X155000Y375000D02*
Y435000D01*
X147500Y442500D02*
X155000Y435000D01*
X87500Y442500D02*
X147500D01*
X632500Y667500D02*
Y725000D01*
X300000Y667500D02*
X632500D01*
X300000Y300000D02*
Y667500D01*
X27500Y155000D02*
X155000D01*
X27500D02*
Y725000D01*
X632500D01*
D97*
X0Y800000D02*
X0Y0D01*
X0Y800000D02*
X850000D01*
Y-0D02*
Y800000D01*
X0Y0D02*
X850000Y-0D01*
D98*
X99857Y312100D02*
D03*
Y362900D02*
D03*
X750000Y410400D02*
D03*
D99*
X30000Y30000D02*
D03*
X820000D02*
D03*
X30000Y770000D02*
D03*
X820000D02*
D03*
D100*
X766400Y253000D02*
D03*
X741000D02*
D03*
X715600D02*
D03*
X690200D02*
D03*
X664800D02*
D03*
X639400D02*
D03*
X614000D02*
D03*
X588600D02*
D03*
X563200D02*
D03*
X537800D02*
D03*
X512400D02*
D03*
X487000D02*
D03*
X461600D02*
D03*
X436200D02*
D03*
X410800D02*
D03*
X385400D02*
D03*
X360000D02*
D03*
X766400Y25000D02*
D03*
X741000D02*
D03*
X715600D02*
D03*
X690200D02*
D03*
X664800D02*
D03*
X639400D02*
D03*
X614000D02*
D03*
X588600D02*
D03*
X563200D02*
D03*
X537800D02*
D03*
X512400D02*
D03*
X487000D02*
D03*
X461600D02*
D03*
X436200D02*
D03*
X410800D02*
D03*
X385400D02*
D03*
D101*
X716000Y705000D02*
D03*
D102*
X277500Y595000D02*
D03*
X157500Y565000D02*
D03*
X187500Y177500D02*
D03*
X107500Y160000D02*
D03*
X138419Y257463D02*
D03*
X155000Y490000D02*
D03*
X270000Y485000D02*
D03*
X405000Y130000D02*
D03*
Y180000D02*
D03*
X690000Y550000D02*
D03*
X605000D02*
D03*
X292500Y560000D02*
D03*
X380000Y472500D02*
D03*
X292500Y587500D02*
D03*
X582500Y210000D02*
D03*
X596950Y498734D02*
D03*
X310000Y97500D02*
D03*
X162500Y599999D02*
D03*
X292500Y637500D02*
D03*
Y612500D02*
D03*
Y542500D02*
D03*
Y520000D02*
D03*
Y502500D02*
D03*
Y487500D02*
D03*
Y470000D02*
D03*
Y450000D02*
D03*
Y432500D02*
D03*
Y417500D02*
D03*
X757500Y225000D02*
D03*
X220000Y417500D02*
D03*
Y432500D02*
D03*
Y447500D02*
D03*
X207500D02*
D03*
X190000D02*
D03*
X172500D02*
D03*
X207500Y417500D02*
D03*
Y432500D02*
D03*
X190000Y417500D02*
D03*
Y432500D02*
D03*
X172500Y417500D02*
D03*
Y432500D02*
D03*
X152500Y417500D02*
D03*
Y432500D02*
D03*
X590472Y419600D02*
D03*
Y404600D02*
D03*
Y384600D02*
D03*
Y364600D02*
D03*
Y349600D02*
D03*
X577472Y419600D02*
D03*
Y404600D02*
D03*
Y384600D02*
D03*
Y364600D02*
D03*
Y349600D02*
D03*
X562472Y419600D02*
D03*
Y404600D02*
D03*
Y384600D02*
D03*
Y364600D02*
D03*
Y349600D02*
D03*
X547472Y419600D02*
D03*
Y404600D02*
D03*
Y384600D02*
D03*
Y364600D02*
D03*
Y349600D02*
D03*
X532472Y419600D02*
D03*
Y404600D02*
D03*
Y384600D02*
D03*
Y364600D02*
D03*
Y349600D02*
D03*
X517472Y419600D02*
D03*
Y404600D02*
D03*
Y384600D02*
D03*
Y364600D02*
D03*
Y349600D02*
D03*
X124000Y199250D02*
D03*
X115250D02*
D03*
X123750Y207250D02*
D03*
X115250Y207000D02*
D03*
X123500Y214750D02*
D03*
X115250Y215000D02*
D03*
X233000Y467750D02*
D03*
X241750D02*
D03*
X233250Y459750D02*
D03*
X241750Y460000D02*
D03*
X233500Y452250D02*
D03*
X241750Y452000D02*
D03*
M02*
