G04*
G04 #@! TF.GenerationSoftware,Altium Limited,Altium Designer,20.1.12 (249)*
G04*
G04 Layer_Color=16711935*
%FSLAX44Y44*%
%MOMM*%
G71*
G04*
G04 #@! TF.SameCoordinates,284B2C5B-B2DB-445A-AC85-361AEC2CE434*
G04*
G04*
G04 #@! TF.FilePolarity,Negative*
G04*
G01*
G75*
%ADD75C,2.6032*%
%ADD76R,2.6032X2.6032*%
%ADD77C,0.2000*%
%ADD78C,2.0782*%
%ADD79R,2.0782X2.0782*%
%ADD80R,1.4032X1.4032*%
%ADD81C,1.4032*%
%ADD82C,0.7016*%
%ADD83C,1.1016*%
%ADD105R,1.2032X1.2032*%
%ADD106R,1.2032X1.2032*%
%ADD107C,0.8032*%
D75*
X99857Y312100D02*
D03*
X750000Y410400D02*
D03*
D76*
X99857Y362900D02*
D03*
X750000Y359600D02*
D03*
D77*
X30000Y30000D02*
D03*
X820000D02*
D03*
X30000Y770000D02*
D03*
X820000D02*
D03*
D78*
X766400Y253000D02*
D03*
X741000D02*
D03*
X715600D02*
D03*
X690200D02*
D03*
X664800D02*
D03*
X639400D02*
D03*
X614000D02*
D03*
X588600D02*
D03*
X563200D02*
D03*
X537800D02*
D03*
X512400D02*
D03*
X487000D02*
D03*
X461600D02*
D03*
X436200D02*
D03*
X410800D02*
D03*
X385400D02*
D03*
X766400Y25000D02*
D03*
X741000D02*
D03*
X715600D02*
D03*
X690200D02*
D03*
X664800D02*
D03*
X639400D02*
D03*
X614000D02*
D03*
X588600D02*
D03*
X563200D02*
D03*
X537800D02*
D03*
X512400D02*
D03*
X487000D02*
D03*
X461600D02*
D03*
X436200D02*
D03*
X410800D02*
D03*
X385400D02*
D03*
D79*
X360000Y253000D02*
D03*
Y25000D02*
D03*
D80*
X716000Y705000D02*
D03*
X572957D02*
D03*
X429915Y704000D02*
D03*
X286872D02*
D03*
D81*
X716000Y755000D02*
D03*
X572957D02*
D03*
X429915Y754000D02*
D03*
X286872D02*
D03*
D82*
X830000Y705000D02*
D03*
X385000Y95000D02*
D03*
X160000Y60000D02*
D03*
X277500Y595000D02*
D03*
X680000Y187500D02*
D03*
X157500Y565000D02*
D03*
X7500Y605000D02*
D03*
Y477500D02*
D03*
Y322500D02*
D03*
Y150000D02*
D03*
Y90000D02*
D03*
X187500Y177500D02*
D03*
X107500Y160000D02*
D03*
X138419Y257463D02*
D03*
X155000Y490000D02*
D03*
X270000Y485000D02*
D03*
X399876Y285124D02*
D03*
X270000Y105000D02*
D03*
X650000Y117500D02*
D03*
X682500Y75000D02*
D03*
X405000Y130000D02*
D03*
Y180000D02*
D03*
X690000Y550000D02*
D03*
X605000D02*
D03*
X350000Y650000D02*
D03*
X332500D02*
D03*
Y577500D02*
D03*
Y595000D02*
D03*
Y610000D02*
D03*
Y625000D02*
D03*
Y637500D02*
D03*
X588410Y453410D02*
D03*
X687500Y475000D02*
D03*
X672500Y540000D02*
D03*
X616444Y536374D02*
D03*
X292500Y560000D02*
D03*
X380000Y472500D02*
D03*
X292500Y587500D02*
D03*
X345000Y447500D02*
D03*
X752500Y142500D02*
D03*
X722500Y202500D02*
D03*
X582500Y210000D02*
D03*
X596950Y498734D02*
D03*
X583450Y164050D02*
D03*
X340000Y147500D02*
D03*
X327830Y175438D02*
D03*
X315000Y242500D02*
D03*
X112997Y63770D02*
D03*
X310000Y97500D02*
D03*
X130000Y127500D02*
D03*
X162500Y599999D02*
D03*
X292500Y637500D02*
D03*
Y612500D02*
D03*
Y542500D02*
D03*
Y520000D02*
D03*
Y502500D02*
D03*
Y487500D02*
D03*
Y470000D02*
D03*
Y450000D02*
D03*
Y432500D02*
D03*
Y417500D02*
D03*
X757500Y225000D02*
D03*
X105000Y462500D02*
D03*
Y472500D02*
D03*
Y482500D02*
D03*
X92500Y462500D02*
D03*
Y472500D02*
D03*
Y482500D02*
D03*
X80000Y472500D02*
D03*
X67500D02*
D03*
X55000D02*
D03*
X42500D02*
D03*
X80000Y462500D02*
D03*
X67500D02*
D03*
X55000D02*
D03*
X42500D02*
D03*
Y482500D02*
D03*
X80000D02*
D03*
X67500D02*
D03*
X55000D02*
D03*
X62500Y177500D02*
D03*
X50000D02*
D03*
X37500D02*
D03*
X262500Y212500D02*
D03*
X250000D02*
D03*
X262500Y222500D02*
D03*
X250000D02*
D03*
X262500Y235000D02*
D03*
X250000D02*
D03*
X237500Y170000D02*
D03*
X225000D02*
D03*
X237500Y182500D02*
D03*
X225000D02*
D03*
X237500Y197500D02*
D03*
X225000D02*
D03*
X237500Y210000D02*
D03*
X225000D02*
D03*
X237500Y222500D02*
D03*
X225000Y225000D02*
D03*
X237500Y235000D02*
D03*
X225000D02*
D03*
X220000Y417500D02*
D03*
Y432500D02*
D03*
Y447500D02*
D03*
X207500D02*
D03*
X190000D02*
D03*
X172500D02*
D03*
X207500Y417500D02*
D03*
Y432500D02*
D03*
X190000Y417500D02*
D03*
Y432500D02*
D03*
X172500Y417500D02*
D03*
Y432500D02*
D03*
X152500Y417500D02*
D03*
Y432500D02*
D03*
X130000Y417500D02*
D03*
Y432500D02*
D03*
X112500Y417500D02*
D03*
X95000D02*
D03*
X112500Y432500D02*
D03*
X95000D02*
D03*
X270000Y330000D02*
D03*
X252500D02*
D03*
X237500D02*
D03*
X222500D02*
D03*
X210000D02*
D03*
X195000D02*
D03*
X180000D02*
D03*
X167500D02*
D03*
X155000D02*
D03*
X142500D02*
D03*
X130000D02*
D03*
X590472Y419600D02*
D03*
Y404600D02*
D03*
Y384600D02*
D03*
Y364600D02*
D03*
Y349600D02*
D03*
X577472Y419600D02*
D03*
Y404600D02*
D03*
Y384600D02*
D03*
Y364600D02*
D03*
Y349600D02*
D03*
X562472Y419600D02*
D03*
Y404600D02*
D03*
Y384600D02*
D03*
Y364600D02*
D03*
Y349600D02*
D03*
X547472Y419600D02*
D03*
Y404600D02*
D03*
Y384600D02*
D03*
Y364600D02*
D03*
Y349600D02*
D03*
X532472Y419600D02*
D03*
Y404600D02*
D03*
Y384600D02*
D03*
Y364600D02*
D03*
Y349600D02*
D03*
X517472Y419600D02*
D03*
Y404600D02*
D03*
Y384600D02*
D03*
Y364600D02*
D03*
Y349600D02*
D03*
X124000Y199250D02*
D03*
X115250D02*
D03*
X123750Y207250D02*
D03*
X115250Y207000D02*
D03*
X123500Y214750D02*
D03*
X115250Y215000D02*
D03*
X233000Y467750D02*
D03*
X241750D02*
D03*
X233250Y459750D02*
D03*
X241750Y460000D02*
D03*
X233500Y452250D02*
D03*
X241750Y452000D02*
D03*
X209000Y199250D02*
D03*
X200250D02*
D03*
X208750Y207250D02*
D03*
X200250Y207000D02*
D03*
X208500Y214750D02*
D03*
X200250Y215000D02*
D03*
X133000Y467750D02*
D03*
X141750D02*
D03*
X133250Y459750D02*
D03*
X141750Y460000D02*
D03*
X133500Y452250D02*
D03*
X141750Y452000D02*
D03*
D83*
X432500Y452500D02*
D03*
X345000Y395000D02*
D03*
D105*
X270000Y105000D02*
D03*
X272500Y520000D02*
D03*
X107500Y160000D02*
D03*
X235000Y432500D02*
D03*
X155000Y490000D02*
D03*
X187500Y177500D02*
D03*
X270000Y485000D02*
D03*
X138419Y257463D02*
D03*
X337500Y272500D02*
D03*
X405000Y130000D02*
D03*
D106*
X690000Y550000D02*
D03*
X405000Y180000D02*
D03*
X605000Y550000D02*
D03*
D107*
X523050Y566000D02*
D03*
X559050Y542000D02*
D03*
X547050D02*
D03*
X535050D02*
D03*
X523050D02*
D03*
X511050D02*
D03*
X499050D02*
D03*
X487050D02*
D03*
X559050Y554000D02*
D03*
X547050D02*
D03*
X535050D02*
D03*
X523050D02*
D03*
X511050D02*
D03*
X499050D02*
D03*
X487050D02*
D03*
X559050Y566000D02*
D03*
X547050D02*
D03*
X535050D02*
D03*
X511050D02*
D03*
X499050D02*
D03*
X487050D02*
D03*
X559050Y578000D02*
D03*
X547050D02*
D03*
X535050D02*
D03*
X523050D02*
D03*
X511050D02*
D03*
X499050D02*
D03*
X487050D02*
D03*
M02*
