G04*
G04 #@! TF.GenerationSoftware,Altium Limited,Altium Designer,20.1.12 (249)*
G04*
G04 Layer_Color=32768*
%FSLAX44Y44*%
%MOMM*%
G71*
G04*
G04 #@! TF.SameCoordinates,284B2C5B-B2DB-445A-AC85-361AEC2CE434*
G04*
G04*
G04 #@! TF.FilePolarity,Positive*
G04*
G01*
G75*
%ADD10C,0.2000*%
%ADD14C,0.1000*%
%ADD108C,0.0500*%
%ADD109C,0.0762*%
D10*
X202000Y272000D02*
X222000D01*
Y312000D01*
X202000D02*
X222000D01*
X202000Y272000D02*
Y312000D01*
X177085Y272000D02*
X197085D01*
Y312000D01*
X177085D02*
X197085D01*
X177085Y272000D02*
Y312000D01*
X152543Y272000D02*
X172543D01*
Y312000D01*
X152543D02*
X172543D01*
X152543Y272000D02*
Y312000D01*
X128000Y272000D02*
X148000D01*
Y312000D01*
X128000D02*
X148000D01*
X128000Y272000D02*
Y312000D01*
X678469Y44343D02*
Y69905D01*
Y44343D02*
X721531D01*
Y69905D01*
X678469D02*
X721531D01*
X323952Y178469D02*
X349515D01*
Y221531D01*
X323952D02*
X349515D01*
X323952Y178469D02*
Y221531D01*
X396531Y272342D02*
Y297904D01*
X353469D02*
X396531D01*
X353469Y272342D02*
Y297904D01*
Y272342D02*
X396531D01*
X728469Y146595D02*
Y172157D01*
Y146595D02*
X771531D01*
Y172157D01*
X728469D02*
X771531D01*
X157250Y86500D02*
Y117500D01*
X140750Y86500D02*
X157250D01*
X140750D02*
Y117500D01*
X157250D01*
X381750Y529500D02*
Y560500D01*
X398250D01*
Y529500D02*
Y560500D01*
X381750Y529500D02*
X398250D01*
Y496500D02*
Y527500D01*
X381750Y496500D02*
X398250D01*
X381750D02*
Y527500D01*
X398250D01*
X381690Y574500D02*
Y605500D01*
X398190D01*
Y574500D02*
Y605500D01*
X381690Y574500D02*
X398190D01*
X384500Y495250D02*
X415500D01*
Y478750D02*
Y495250D01*
X384500Y478750D02*
X415500D01*
X384500D02*
Y495250D01*
X402732Y574500D02*
Y605500D01*
X419232D01*
Y574500D02*
Y605500D01*
X402732Y574500D02*
X419232D01*
X118250Y530500D02*
Y561500D01*
X101750Y530500D02*
X118250D01*
X101750D02*
Y561500D01*
X118250D01*
X240750Y121500D02*
Y152500D01*
X257250D01*
Y121500D02*
Y152500D01*
X240750Y121500D02*
X257250D01*
X350558Y448947D02*
X381558D01*
X350558D02*
Y465448D01*
X381558D01*
Y448947D02*
Y465448D01*
X751750Y179500D02*
Y210500D01*
X768250D01*
Y179500D02*
Y210500D01*
X751750Y179500D02*
X768250D01*
X647793Y524500D02*
Y555500D01*
X664293D01*
Y524500D02*
Y555500D01*
X647793Y524500D02*
X664293D01*
X626750D02*
Y555500D01*
X643250D01*
Y524500D02*
Y555500D01*
X626750Y524500D02*
X643250D01*
X376750Y175676D02*
Y206676D01*
X393250D01*
Y175676D02*
Y206676D01*
X376750Y175676D02*
X393250D01*
X213250Y524500D02*
Y555500D01*
X196750Y524500D02*
X213250D01*
X196750D02*
Y555500D01*
X213250D01*
X696750Y129500D02*
Y160500D01*
X713250D01*
Y129500D02*
Y160500D01*
X696750Y129500D02*
X713250D01*
X610042Y195292D02*
X641042D01*
Y178792D02*
Y195292D01*
X610042Y178792D02*
X641042D01*
X610042D02*
Y195292D01*
X574500Y178792D02*
X605500D01*
X574500D02*
Y195292D01*
X605500D01*
Y178792D02*
Y195292D01*
D14*
X606000Y550750D02*
X682000D01*
X606000D02*
Y684750D01*
X682000D01*
Y550750D02*
Y684750D01*
X505223Y338950D02*
X656223D01*
Y430250D01*
X505223D02*
X656223D01*
X505223Y338950D02*
Y430250D01*
X486525Y555000D02*
Y565000D01*
X481525Y560000D02*
X491525D01*
X429525Y505500D02*
X579525D01*
X429525Y614500D02*
X579525D01*
Y505500D02*
Y614500D01*
X429525Y505500D02*
Y614500D01*
X620000Y155000D02*
X630000D01*
X625000Y150000D02*
Y160000D01*
X385000Y114177D02*
Y124177D01*
X380000Y119177D02*
X390000D01*
X305000Y205000D02*
X315000D01*
X310000Y200000D02*
Y210000D01*
X385000Y151177D02*
Y161176D01*
X380000Y156176D02*
X390000D01*
X237000Y66000D02*
Y76000D01*
X232000Y71000D02*
X242000D01*
X355000Y135176D02*
Y145176D01*
X350000Y140176D02*
X360000D01*
X620000Y121798D02*
X630000D01*
X625000Y116798D02*
Y126798D01*
X732797Y195000D02*
X742797D01*
X737797Y190000D02*
Y200000D01*
X270000Y535000D02*
Y545000D01*
X265000Y540000D02*
X275000D01*
X137000Y138000D02*
X147000D01*
X142000Y133000D02*
Y143000D01*
X245000Y600000D02*
X255000D01*
X250000Y595000D02*
Y605000D01*
X137000Y67000D02*
Y77000D01*
X132000Y72000D02*
X142000D01*
X173000Y537000D02*
Y547000D01*
X168000Y542000D02*
X178000D01*
X177000Y130000D02*
X187000D01*
X182000Y125000D02*
Y135000D01*
X135000Y600000D02*
X145000D01*
X140000Y595000D02*
Y605000D01*
X401058Y452197D02*
Y462197D01*
X396058Y457197D02*
X406058D01*
X383807Y448698D02*
X418307D01*
X383807Y465697D02*
X418307D01*
Y448698D02*
Y465697D01*
X383807Y448698D02*
Y465697D01*
X678495Y140000D02*
Y150000D01*
X673495Y145000D02*
X683495D01*
D108*
X786000Y730000D02*
G03*
X786000Y730000I-70000J0D01*
G01*
X642957D02*
G03*
X642957Y730000I-70000J0D01*
G01*
X499915Y729000D02*
G03*
X499915Y729000I-70000J0D01*
G01*
X356872D02*
G03*
X356872Y729000I-70000J0D01*
G01*
X-2142Y400300D02*
X121858D01*
X-2142Y274700D02*
Y400300D01*
Y274700D02*
X121858D01*
Y400300D01*
X59858Y332500D02*
Y342500D01*
X54858Y337500D02*
X64858D01*
X123500Y87600D02*
X140500D01*
Y116400D01*
X123500D02*
X140500D01*
X123500Y87600D02*
Y116400D01*
X88600Y64500D02*
X117400D01*
X88600D02*
Y81500D01*
X117400D01*
Y64500D02*
Y81500D01*
X419043Y530600D02*
Y559400D01*
X402043Y530600D02*
X419043D01*
X402043D02*
Y559400D01*
X419043D01*
X180500Y560600D02*
Y589400D01*
X163500Y560600D02*
X180500D01*
X163500D02*
Y589400D01*
X180500D01*
X101500Y591400D02*
X118500D01*
X101500Y562600D02*
Y591400D01*
Y562600D02*
X118500D01*
Y591400D01*
X238500Y90600D02*
X255500D01*
Y119400D01*
X238500D02*
X255500D01*
X238500Y90600D02*
Y119400D01*
X190500Y82600D02*
Y111400D01*
X173500Y82600D02*
X190500D01*
X173500D02*
Y111400D01*
X190500D01*
X419043Y500600D02*
Y529400D01*
X402043Y500600D02*
X419043D01*
X402043D02*
Y529400D01*
X419043D01*
X415400Y658550D02*
X446600D01*
X415400Y615450D02*
Y658550D01*
Y615450D02*
X446600D01*
Y658550D01*
X379400D02*
X410600D01*
X379400Y615450D02*
Y658550D01*
Y615450D02*
X410600D01*
Y658550D01*
X421600Y462550D02*
Y503450D01*
X442400D01*
Y462550D02*
Y503450D01*
X421600Y462550D02*
X442400D01*
X544400Y505550D02*
X575600D01*
X544400Y462450D02*
Y505550D01*
Y462450D02*
X575600D01*
Y505550D01*
X512400D02*
X543600D01*
X512400Y462450D02*
Y505550D01*
Y462450D02*
X543600D01*
Y505550D01*
X479400D02*
X510600D01*
X479400Y462450D02*
Y505550D01*
Y462450D02*
X510600D01*
Y505550D01*
X445400D02*
X476600D01*
X445400Y462450D02*
Y505550D01*
Y462450D02*
X476600D01*
Y505550D01*
X44400Y531550D02*
X75600D01*
X44400Y488450D02*
Y531550D01*
Y488450D02*
X75600D01*
Y531550D01*
X44400Y413450D02*
X75600D01*
Y456550D01*
X44400D02*
X75600D01*
X44400Y413450D02*
Y456550D01*
X34596Y226550D02*
X65796D01*
X34596Y183450D02*
Y226550D01*
Y183450D02*
X65796D01*
Y226550D01*
X34400Y128450D02*
X65600D01*
Y171550D01*
X34400D02*
X65600D01*
X34400Y128450D02*
Y171550D01*
X459458Y348207D02*
Y443207D01*
X349958D02*
X459458D01*
X349958Y348207D02*
Y443207D01*
Y348207D02*
X459458D01*
X245400Y400050D02*
X284600D01*
X245400Y343950D02*
Y400050D01*
Y343950D02*
X284600D01*
Y400050D01*
X205900Y399550D02*
X244100D01*
X205900Y344450D02*
Y399550D01*
Y344450D02*
X244100D01*
Y399550D01*
X165900D02*
X204100D01*
X165900Y344450D02*
Y399550D01*
Y344450D02*
X204100D01*
Y399550D01*
X124900D02*
X163100D01*
X124900Y344450D02*
Y399550D01*
Y344450D02*
X163100D01*
Y399550D01*
X586500Y455600D02*
Y484400D01*
X603500D01*
Y455600D02*
Y484400D01*
X586500Y455600D02*
X603500D01*
X626500Y505600D02*
Y534400D01*
X609500Y505600D02*
X626500D01*
X609500D02*
Y534400D01*
X626500D01*
X681500Y505600D02*
Y534400D01*
X664500Y505600D02*
X681500D01*
X664500D02*
Y534400D01*
X681500D01*
X630600Y507500D02*
X659400D01*
X630600D02*
Y524500D01*
X659400D01*
Y507500D02*
Y524500D01*
X345600Y157676D02*
X374400D01*
X345600D02*
Y174676D01*
X374400D01*
Y157676D02*
Y174676D01*
X659515Y358450D02*
X690715D01*
Y401550D01*
X659515D02*
X690715D01*
X659515Y358450D02*
Y401550D01*
X693757Y358450D02*
X724958D01*
Y401550D01*
X693757D02*
X724958D01*
X693757Y358450D02*
Y401550D01*
X196500Y584400D02*
X213500D01*
X196500Y555600D02*
Y584400D01*
Y555600D02*
X213500D01*
Y584400D01*
X89250Y81000D02*
Y123000D01*
X124750D01*
Y81000D02*
Y123000D01*
X89250Y81000D02*
X124750D01*
X194250D02*
Y123000D01*
X229750D01*
Y81000D02*
Y123000D01*
X194250Y81000D02*
X229750D01*
X648292Y133202D02*
X665293D01*
Y162003D01*
X648292D02*
X665293D01*
X648292Y133202D02*
Y162003D01*
X717042Y125803D02*
X745843D01*
X717042D02*
Y142803D01*
X745843D01*
Y125803D02*
Y142803D01*
X644835Y176500D02*
X673635D01*
X644835D02*
Y193500D01*
X673635D01*
Y176500D02*
Y193500D01*
X604458Y140600D02*
Y169400D01*
X587458Y140600D02*
X604458D01*
X587458D02*
Y169400D01*
X604458D01*
X95000Y188000D02*
Y226000D01*
Y188000D02*
X139000D01*
Y226000D01*
X95000D02*
X139000D01*
X262000Y441000D02*
Y479000D01*
X218000D02*
X262000D01*
X218000Y441000D02*
Y479000D01*
Y441000D02*
X262000D01*
X180000Y188000D02*
Y226000D01*
Y188000D02*
X224000D01*
Y226000D01*
X180000D02*
X224000D01*
X162000Y441000D02*
Y479000D01*
X118000D02*
X162000D01*
X118000Y441000D02*
Y479000D01*
Y441000D02*
X162000D01*
X344800Y237800D02*
X781950D01*
Y268550D01*
X344800D02*
X781950D01*
X344800Y237800D02*
Y268550D01*
Y9800D02*
X781950D01*
Y40550D01*
X344800D02*
X781950D01*
X344800Y9800D02*
Y40550D01*
X607500Y135000D02*
Y175000D01*
X642500Y135000D02*
Y175000D01*
X607500Y135000D02*
X642500D01*
X607500Y175000D02*
X642500D01*
X607750Y452500D02*
X682250D01*
X607750D02*
Y507500D01*
X682250D01*
Y452500D02*
Y507500D01*
X257750Y544000D02*
Y586000D01*
X222250Y544000D02*
X257750D01*
X222250D02*
Y586000D01*
X257750D01*
X116000Y507000D02*
X164000D01*
Y529000D01*
X116000D02*
X164000D01*
X116000Y507000D02*
Y529000D01*
X191000Y153000D02*
X239000D01*
X191000Y131000D02*
Y153000D01*
Y131000D02*
X239000D01*
Y153000D01*
X374840Y100126D02*
X395160D01*
X374840Y138226D02*
X395160D01*
X374840Y100126D02*
Y138226D01*
X395160Y100126D02*
Y138226D01*
X299840Y185950D02*
Y224050D01*
X320160Y185950D02*
Y224050D01*
X299840Y185950D02*
X320160D01*
X299840Y224050D02*
X320160D01*
X374840Y137126D02*
X395160D01*
X374840Y175226D02*
X395160D01*
X374840Y137126D02*
Y175226D01*
X395160Y137126D02*
Y175226D01*
X214000Y507000D02*
X262000D01*
Y529000D01*
X214000D02*
X262000D01*
X214000Y507000D02*
Y529000D01*
X80166Y131000D02*
X128166D01*
Y153000D01*
X80166D02*
X128166D01*
X80166Y131000D02*
Y153000D01*
X217950Y81160D02*
X256050D01*
X217950Y60840D02*
X256050D01*
X217950D02*
Y81160D01*
X256050Y60840D02*
Y81160D01*
X720500Y519000D02*
X849500D01*
X720500D02*
Y651000D01*
X849500D01*
Y519000D02*
Y651000D01*
X785000Y580000D02*
Y590000D01*
X780000Y585000D02*
X790000D01*
X335500Y157676D02*
X374500D01*
X335500Y122676D02*
X374500D01*
X335500D02*
Y157676D01*
X374500Y122676D02*
Y157676D01*
X250000Y172750D02*
X270000D01*
Y207250D01*
X250000D02*
X270000D01*
X250000Y172750D02*
Y207250D01*
X605950Y111637D02*
Y131958D01*
X644050Y111637D02*
Y131958D01*
X605950D02*
X644050D01*
X605950Y111637D02*
X644050D01*
X727637Y175950D02*
Y214050D01*
X747958Y175950D02*
Y214050D01*
X727637Y175950D02*
X747958D01*
X727637Y214050D02*
X747958D01*
X503400Y615450D02*
Y658550D01*
X534600D01*
Y615450D02*
Y658550D01*
X503400Y615450D02*
X534600D01*
X785000Y385000D02*
X795000D01*
X790000Y380000D02*
Y390000D01*
X728000Y322200D02*
Y447800D01*
X852000D01*
Y322200D02*
Y447800D01*
X728000Y322200D02*
X852000D01*
X157750Y544000D02*
Y586000D01*
X122250Y544000D02*
X157750D01*
X122250D02*
Y586000D01*
X157750D01*
X259840Y520950D02*
X280160D01*
X259840Y559050D02*
X280160D01*
X259840Y520950D02*
Y559050D01*
X280160Y520950D02*
Y559050D01*
X131840Y118950D02*
Y157050D01*
X152160Y118950D02*
Y157050D01*
X131840Y118950D02*
X152160D01*
X131840Y157050D02*
X152160D01*
X269050Y589840D02*
Y610160D01*
X230950Y589840D02*
Y610160D01*
Y589840D02*
X269050D01*
X230950Y610160D02*
X269050D01*
X117950Y82160D02*
X156050D01*
X117950Y61840D02*
X156050D01*
X117950D02*
Y82160D01*
X156050Y61840D02*
Y82160D01*
X162840Y561050D02*
X183160D01*
X162840Y522950D02*
X183160D01*
Y561050D01*
X162840Y522950D02*
Y561050D01*
X171840Y110950D02*
Y149050D01*
X192160Y110950D02*
Y149050D01*
X171840Y110950D02*
X192160D01*
X171840Y149050D02*
X192160D01*
X159050Y589840D02*
Y610160D01*
X120950Y589840D02*
Y610160D01*
Y589840D02*
X159050D01*
X120950Y610160D02*
X159050D01*
X261500Y559600D02*
X278500D01*
Y588400D01*
X261500D02*
X278500D01*
X261500Y559600D02*
Y588400D01*
X539400Y615450D02*
Y658550D01*
X570600D01*
Y615450D02*
Y658550D01*
X539400Y615450D02*
X570600D01*
X668335Y125950D02*
X688655D01*
X668335Y164050D02*
X688655D01*
X668335Y125950D02*
Y164050D01*
X688655Y125950D02*
Y164050D01*
D109*
X158000Y590000D02*
X201000Y589840D01*
Y590000D02*
Y610000D01*
X158000D02*
X201000D01*
X158000D02*
X158220Y589840D01*
X170000Y82000D02*
X170220Y61840D01*
X170000Y82000D02*
X213000D01*
Y62000D02*
Y82000D01*
X170000Y62000D02*
X213000Y61840D01*
M02*
