G04*
G04 #@! TF.GenerationSoftware,Altium Limited,Altium Designer,20.1.12 (249)*
G04*
G04 Layer_Color=16711935*
%FSLAX44Y44*%
%MOMM*%
G71*
G04*
G04 #@! TF.SameCoordinates,284B2C5B-B2DB-445A-AC85-361AEC2CE434*
G04*
G04*
G04 #@! TF.FilePolarity,Positive*
G04*
G01*
G75*
%ADD10C,0.2000*%
%ADD13C,0.5000*%
%ADD14C,0.1000*%
%ADD15C,0.1270*%
D10*
X93000Y220000D02*
G03*
X93000Y220000I-1000J0D01*
G01*
X266000Y447000D02*
G03*
X266000Y447000I-1000J0D01*
G01*
X178000Y220000D02*
G03*
X178000Y220000I-1000J0D01*
G01*
X166000Y447000D02*
G03*
X166000Y447000I-1000J0D01*
G01*
X619000Y562000D02*
X669000D01*
X619000D02*
Y672000D01*
X669000D01*
Y562000D02*
Y672000D01*
X530072Y343950D02*
X602472D01*
Y425250D01*
X530072D02*
X602472D01*
X530072Y343950D02*
Y425250D01*
X203000Y275000D02*
X221000D01*
Y309000D01*
X203000D02*
X221000D01*
X203000Y275000D02*
Y309000D01*
X178085Y275000D02*
X196085D01*
Y309000D01*
X178085D02*
X196085D01*
X178085Y275000D02*
Y309000D01*
X153543Y275000D02*
X171543D01*
Y309000D01*
X153543D02*
X171543D01*
X153543Y275000D02*
Y309000D01*
X129000Y275000D02*
X147000D01*
Y309000D01*
X129000D02*
X147000D01*
X129000Y275000D02*
Y309000D01*
X690000Y50874D02*
Y63374D01*
Y50874D02*
X710000D01*
Y63374D01*
X690000D02*
X710000D01*
X330484Y190000D02*
X342984D01*
Y210000D01*
X330484D02*
X342984D01*
X330484Y190000D02*
Y210000D01*
X385000Y278874D02*
Y291374D01*
X365000D02*
X385000D01*
X365000Y278874D02*
Y291374D01*
Y278874D02*
X385000D01*
X174500Y607000D02*
X194500D01*
X174500Y593000D02*
Y607000D01*
Y593000D02*
X194500D01*
Y607000D01*
X206500Y65000D02*
Y79000D01*
X186500Y65000D02*
X206500D01*
X186500D02*
Y79000D01*
X206500D01*
X740000Y153126D02*
Y165627D01*
Y153126D02*
X760000D01*
Y165627D01*
X740000D02*
X760000D01*
X156000Y91000D02*
Y113000D01*
X142000Y91000D02*
X156000D01*
X142000D02*
Y113000D01*
X156000D01*
X383000Y534000D02*
Y556000D01*
X397000D01*
Y534000D02*
Y556000D01*
X383000Y534000D02*
X397000D01*
Y501000D02*
Y523000D01*
X383000Y501000D02*
X397000D01*
X383000D02*
Y523000D01*
X397000D01*
X382940Y579000D02*
Y601000D01*
X396940D01*
Y579000D02*
Y601000D01*
X382940Y579000D02*
X396940D01*
X389000Y494000D02*
X411000D01*
Y480000D02*
Y494000D01*
X389000Y480000D02*
X411000D01*
X389000D02*
Y494000D01*
X124000Y510000D02*
Y526000D01*
Y510000D02*
X156000D01*
Y526000D01*
X124000D02*
X156000D01*
X231000Y134000D02*
Y150000D01*
X199000D02*
X231000D01*
X199000Y134000D02*
Y150000D01*
Y134000D02*
X231000D01*
X403982Y579000D02*
Y601000D01*
X417982D01*
Y579000D02*
Y601000D01*
X403982Y579000D02*
X417982D01*
X117000Y535000D02*
Y557000D01*
X103000Y535000D02*
X117000D01*
X103000D02*
Y557000D01*
X117000D01*
X242000Y126000D02*
Y148000D01*
X256000D01*
Y126000D02*
Y148000D01*
X242000Y126000D02*
X256000D01*
X355057Y450197D02*
X377057D01*
X355057D02*
Y464198D01*
X377057D01*
Y450197D02*
Y464198D01*
X753000Y184000D02*
Y206000D01*
X767000D01*
Y184000D02*
Y206000D01*
X753000Y184000D02*
X767000D01*
X649043Y529000D02*
Y551000D01*
X663043D01*
Y529000D02*
Y551000D01*
X649043Y529000D02*
X663043D01*
X628000D02*
Y551000D01*
X642000D01*
Y529000D02*
Y551000D01*
X628000Y529000D02*
X642000D01*
X378000Y180176D02*
Y202176D01*
X392000D01*
Y180176D02*
Y202176D01*
X378000Y180176D02*
X392000D01*
X222000Y510000D02*
Y526000D01*
Y510000D02*
X254000D01*
Y526000D01*
X222000D02*
X254000D01*
X88166Y134000D02*
Y150000D01*
Y134000D02*
X120166D01*
Y150000D01*
X88166D02*
X120166D01*
X212000Y529000D02*
Y551000D01*
X198000Y529000D02*
X212000D01*
X198000D02*
Y551000D01*
X212000D01*
X698000Y134000D02*
Y156000D01*
X712000D01*
Y134000D02*
Y156000D01*
X698000Y134000D02*
X712000D01*
X614543Y194042D02*
X636543D01*
Y180042D02*
Y194042D01*
X614543Y180042D02*
X636543D01*
X614543D02*
Y194042D01*
X579000Y180042D02*
X601000D01*
X579000D02*
Y194042D01*
X601000D01*
Y180042D02*
Y194042D01*
D13*
X837498Y634999D02*
G03*
X837498Y634999I-2500J0D01*
G01*
D14*
X481525Y602500D02*
G03*
X481525Y602500I-5000J0D01*
G01*
X781000Y730000D02*
G03*
X781000Y730000I-65000J0D01*
G01*
X637957D02*
G03*
X637957Y730000I-65000J0D01*
G01*
X494915Y729000D02*
G03*
X494915Y729000I-65000J0D01*
G01*
X351872D02*
G03*
X351872Y729000I-65000J0D01*
G01*
X-143Y276700D02*
X119857D01*
X-143D02*
Y398300D01*
X119857D01*
Y276700D02*
Y398300D01*
X125750Y92000D02*
X138250D01*
Y112000D01*
X125750D02*
X138250D01*
X125750Y92000D02*
Y112000D01*
X93000Y66750D02*
X113000D01*
X93000D02*
Y79250D01*
X113000D01*
Y66750D02*
Y79250D01*
X416792Y535000D02*
Y555000D01*
X404292Y535000D02*
X416792D01*
X404292D02*
Y555000D01*
X416792D01*
X178250Y565000D02*
Y585000D01*
X165750Y565000D02*
X178250D01*
X165750D02*
Y585000D01*
X178250D01*
X103750Y587000D02*
X116250D01*
X103750Y567000D02*
Y587000D01*
Y567000D02*
X116250D01*
Y587000D01*
X240750Y95000D02*
X253250D01*
Y115000D01*
X240750D02*
X253250D01*
X240750Y95000D02*
Y115000D01*
X188250Y87000D02*
Y107000D01*
X175750Y87000D02*
X188250D01*
X175750D02*
Y107000D01*
X188250D01*
X416792Y505000D02*
Y525000D01*
X404292Y505000D02*
X416792D01*
X404292D02*
Y525000D01*
X416792D01*
X418500Y653000D02*
X443500D01*
X418500Y621000D02*
Y653000D01*
Y621000D02*
X443500D01*
Y653000D01*
X382500D02*
X407500D01*
X382500Y621000D02*
Y653000D01*
Y621000D02*
X407500D01*
Y653000D01*
X424000Y467000D02*
Y499000D01*
X440000D01*
Y467000D02*
Y499000D01*
X424000Y467000D02*
X440000D01*
X547500Y500000D02*
X572500D01*
X547500Y468000D02*
Y500000D01*
Y468000D02*
X572500D01*
Y500000D01*
X515500D02*
X540500D01*
X515500Y468000D02*
Y500000D01*
Y468000D02*
X540500D01*
Y500000D01*
X482500D02*
X507500D01*
X482500Y468000D02*
Y500000D01*
Y468000D02*
X507500D01*
Y500000D01*
X448500D02*
X473500D01*
X448500Y468000D02*
Y500000D01*
Y468000D02*
X473500D01*
Y500000D01*
X47500Y526000D02*
X72500D01*
X47500Y494000D02*
Y526000D01*
Y494000D02*
X72500D01*
Y526000D01*
X47500Y419000D02*
X72500D01*
Y451000D01*
X47500D02*
X72500D01*
X47500Y419000D02*
Y451000D01*
X37696Y221000D02*
X62696D01*
X37696Y189000D02*
Y221000D01*
Y189000D02*
X62696D01*
Y221000D01*
X37500Y134000D02*
X62500D01*
Y166000D01*
X37500D02*
X62500D01*
X37500Y134000D02*
Y166000D01*
X363208Y354207D02*
Y437207D01*
X425457D01*
X446208Y416457D01*
Y374957D02*
Y416457D01*
X425457Y354207D02*
X446208Y374957D01*
X363208Y354207D02*
X425457D01*
X249000Y394500D02*
X281000D01*
X249000Y349500D02*
Y394500D01*
Y349500D02*
X281000D01*
Y394500D01*
X209000D02*
X241000D01*
X209000Y349500D02*
Y394500D01*
Y349500D02*
X241000D01*
Y394500D01*
X169000D02*
X201000D01*
X169000Y349500D02*
Y394500D01*
Y349500D02*
X201000D01*
Y394500D01*
X128000D02*
X160000D01*
X128000Y349500D02*
Y394500D01*
Y349500D02*
X160000D01*
Y394500D01*
X588750Y460000D02*
Y480000D01*
X601250D01*
Y460000D02*
Y480000D01*
X588750Y460000D02*
X601250D01*
X624250Y510000D02*
Y530000D01*
X611750Y510000D02*
X624250D01*
X611750D02*
Y530000D01*
X624250D01*
X679250Y510000D02*
Y530000D01*
X666750Y510000D02*
X679250D01*
X666750D02*
Y530000D01*
X679250D01*
X635000Y509750D02*
X655000D01*
X635000D02*
Y522250D01*
X655000D01*
Y509750D02*
Y522250D01*
X350000Y159927D02*
X370000D01*
X350000D02*
Y172426D01*
X370000D01*
Y159927D02*
Y172426D01*
X662615Y364000D02*
X687615D01*
Y396000D01*
X662615D02*
X687615D01*
X662615Y364000D02*
Y396000D01*
X696858Y364000D02*
X721858D01*
Y396000D01*
X696858D02*
X721858D01*
X696858Y364000D02*
Y396000D01*
X198750Y580000D02*
X211250D01*
X198750Y560000D02*
Y580000D01*
Y560000D02*
X211250D01*
Y580000D01*
X92500Y94000D02*
Y110000D01*
X121500D01*
Y94000D02*
Y110000D01*
X92500Y94000D02*
X121500D01*
X92500Y103500D02*
X102000Y94000D01*
X197500D02*
Y110000D01*
X226500D01*
Y94000D02*
Y110000D01*
X197500Y94000D02*
X226500D01*
X197500Y103500D02*
X207000Y94000D01*
X432525Y507950D02*
X579525D01*
X432525Y612050D02*
X579525D01*
Y507950D02*
Y612050D01*
X432525Y507950D02*
Y612050D01*
X650543Y137603D02*
X663043D01*
Y157603D01*
X650543D02*
X663043D01*
X650543Y137603D02*
Y157603D01*
X721442Y128053D02*
X741442D01*
X721442D02*
Y140553D01*
X741442D01*
Y128053D02*
Y140553D01*
X649235Y178750D02*
X669235D01*
X649235D02*
Y191250D01*
X669235D01*
Y178750D02*
Y191250D01*
X602207Y145000D02*
Y165000D01*
X589707Y145000D02*
X602207D01*
X589707D02*
Y165000D01*
X602207D01*
X347300Y240300D02*
X779100D01*
Y265700D01*
X347300D02*
X779100D01*
X347300Y240300D02*
Y265700D01*
Y12300D02*
X779100D01*
Y37700D01*
X347300D02*
X779100D01*
X347300Y12300D02*
Y37700D01*
X610000Y146500D02*
Y163500D01*
X640000Y146500D02*
Y163500D01*
X610000Y146500D02*
X640000D01*
X610000Y163500D02*
X640000D01*
X625500Y455500D02*
X664500D01*
X625500D02*
Y504500D01*
X664500D01*
Y455500D02*
Y504500D01*
X651800Y455500D02*
X664500Y468200D01*
X254500Y557000D02*
Y573000D01*
X225500Y557000D02*
X254500D01*
X225500D02*
Y573000D01*
X254500D01*
X245000D02*
X254500Y563500D01*
X377750Y108176D02*
X392250D01*
X377750Y130176D02*
X392250D01*
X377750Y108176D02*
Y130176D01*
X392250Y108176D02*
Y130176D01*
X302750Y194000D02*
Y216000D01*
X317250Y194000D02*
Y216000D01*
X302750Y194000D02*
X317250D01*
X302750Y216000D02*
X317250D01*
X377750Y145176D02*
X392250D01*
X377750Y167176D02*
X392250D01*
X377750Y145176D02*
Y167176D01*
X392250Y145176D02*
Y167176D01*
X226000Y78250D02*
X248000D01*
X226000Y63750D02*
X248000D01*
X226000D02*
Y78250D01*
X248000Y63750D02*
Y78250D01*
X725000Y525000D02*
X845000D01*
X725000D02*
Y645000D01*
X845000D01*
Y525000D02*
Y645000D01*
X348000Y155376D02*
X362000D01*
X348000Y124977D02*
X362000D01*
X348000D02*
Y155376D01*
X362000Y124977D02*
Y155376D01*
X253750Y180000D02*
X266250D01*
Y200000D01*
X253750D02*
X266250D01*
X253750Y180000D02*
Y200000D01*
X614000Y114548D02*
Y129047D01*
X636000Y114548D02*
Y129047D01*
X614000D02*
X636000D01*
X614000Y114548D02*
X636000D01*
X730547Y184000D02*
Y206000D01*
X745048Y184000D02*
Y206000D01*
X730547Y184000D02*
X745048D01*
X730547Y206000D02*
X745048D01*
X506500Y621000D02*
Y653000D01*
X531500D01*
Y621000D02*
Y653000D01*
X506500Y621000D02*
X531500D01*
X730000Y324200D02*
Y445800D01*
Y324200D02*
X850000D01*
Y445800D01*
X730000D02*
X850000D01*
X154500Y557000D02*
Y573000D01*
X125500Y557000D02*
X154500D01*
X125500D02*
Y573000D01*
X154500D01*
X145000D02*
X154500Y563500D01*
X262750Y529000D02*
X277250D01*
X262750Y551000D02*
X277250D01*
X262750Y529000D02*
Y551000D01*
X277250Y529000D02*
Y551000D01*
X134750Y127000D02*
Y149000D01*
X149250Y127000D02*
Y149000D01*
X134750Y127000D02*
X149250D01*
X134750Y149000D02*
X149250D01*
X261000Y592750D02*
Y607250D01*
X239000Y592750D02*
Y607250D01*
Y592750D02*
X261000D01*
X239000Y607250D02*
X261000D01*
X126000Y79250D02*
X148000D01*
X126000Y64750D02*
X148000D01*
X126000D02*
Y79250D01*
X148000Y64750D02*
Y79250D01*
X165750Y553000D02*
X180250D01*
X165750Y531000D02*
X180250D01*
Y553000D01*
X165750Y531000D02*
Y553000D01*
X174750Y119000D02*
Y141000D01*
X189250Y119000D02*
Y141000D01*
X174750Y119000D02*
X189250D01*
X174750Y141000D02*
X189250D01*
X151000Y592750D02*
Y607250D01*
X129000Y592750D02*
Y607250D01*
Y592750D02*
X151000D01*
X129000Y607250D02*
X151000D01*
X263750Y564000D02*
X276250D01*
Y584000D01*
X263750D02*
X276250D01*
X263750Y564000D02*
Y584000D01*
X390558Y450447D02*
X411558D01*
X390558Y463947D02*
X411558D01*
Y450447D02*
Y463947D01*
X390558Y450447D02*
Y463947D01*
X542500Y621000D02*
Y653000D01*
X567500D01*
Y621000D02*
Y653000D01*
X542500Y621000D02*
X567500D01*
X671245Y134000D02*
X685745D01*
X671245Y156000D02*
X685745D01*
X671245Y134000D02*
Y156000D01*
X685745Y134000D02*
Y156000D01*
D15*
X100500Y223500D02*
X133500D01*
Y190500D02*
Y223500D01*
X100500Y190500D02*
X133500D01*
X100500D02*
Y223500D01*
X223500Y443500D02*
X256500D01*
X223500D02*
Y476500D01*
X256500D01*
Y443500D02*
Y476500D01*
X185500Y223500D02*
X218500D01*
Y190500D02*
Y223500D01*
X185500Y190500D02*
X218500D01*
X185500D02*
Y223500D01*
X123500Y443500D02*
X156500D01*
X123500D02*
Y476500D01*
X156500D01*
Y443500D02*
Y476500D01*
M02*
