G04*
G04 #@! TF.GenerationSoftware,Altium Limited,Altium Designer,20.1.12 (249)*
G04*
G04 Layer_Color=16711935*
%FSLAX44Y44*%
%MOMM*%
G71*
G04*
G04 #@! TF.SameCoordinates,284B2C5B-B2DB-445A-AC85-361AEC2CE434*
G04*
G04*
G04 #@! TF.FilePolarity,Positive*
G04*
G01*
G75*
%ADD10C,0.2000*%
%ADD14C,0.1000*%
%ADD108C,0.0500*%
D10*
X202000Y272000D02*
X222000D01*
Y312000D01*
X202000D02*
X222000D01*
X202000Y272000D02*
Y312000D01*
X177085Y272000D02*
X197085D01*
Y312000D01*
X177085D02*
X197085D01*
X177085Y272000D02*
Y312000D01*
X152543Y272000D02*
X172543D01*
Y312000D01*
X152543D02*
X172543D01*
X152543Y272000D02*
Y312000D01*
X128000Y272000D02*
X148000D01*
Y312000D01*
X128000D02*
X148000D01*
X128000Y272000D02*
Y312000D01*
X678469Y44342D02*
Y69905D01*
Y44342D02*
X721531D01*
Y69905D01*
X678469D02*
X721531D01*
X323952Y178469D02*
X349515D01*
Y221531D01*
X323952D02*
X349515D01*
X323952Y178469D02*
Y221531D01*
X396531Y272342D02*
Y297905D01*
X353469D02*
X396531D01*
X353469Y272342D02*
Y297905D01*
Y272342D02*
X396531D01*
X728469Y146595D02*
Y172157D01*
Y146595D02*
X771531D01*
Y172157D01*
X728469D02*
X771531D01*
X157250Y86500D02*
Y117500D01*
X140750Y86500D02*
X157250D01*
X140750D02*
Y117500D01*
X157250D01*
X381750Y529500D02*
Y560500D01*
X398250D01*
Y529500D02*
Y560500D01*
X381750Y529500D02*
X398250D01*
Y496500D02*
Y527500D01*
X381750Y496500D02*
X398250D01*
X381750D02*
Y527500D01*
X398250D01*
X381690Y574500D02*
Y605500D01*
X398190D01*
Y574500D02*
Y605500D01*
X381690Y574500D02*
X398190D01*
X384500Y495250D02*
X415500D01*
Y478750D02*
Y495250D01*
X384500Y478750D02*
X415500D01*
X384500D02*
Y495250D01*
X402732Y574500D02*
Y605500D01*
X419232D01*
Y574500D02*
Y605500D01*
X402732Y574500D02*
X419232D01*
X118250Y530500D02*
Y561500D01*
X101750Y530500D02*
X118250D01*
X101750D02*
Y561500D01*
X118250D01*
X240750Y121500D02*
Y152500D01*
X257250D01*
Y121500D02*
Y152500D01*
X240750Y121500D02*
X257250D01*
X350558Y448947D02*
X381558D01*
X350558D02*
Y465448D01*
X381558D01*
Y448947D02*
Y465448D01*
X751750Y179500D02*
Y210500D01*
X768250D01*
Y179500D02*
Y210500D01*
X751750Y179500D02*
X768250D01*
X647793Y524500D02*
Y555500D01*
X664293D01*
Y524500D02*
Y555500D01*
X647793Y524500D02*
X664293D01*
X626750D02*
Y555500D01*
X643250D01*
Y524500D02*
Y555500D01*
X626750Y524500D02*
X643250D01*
X376750Y175676D02*
Y206676D01*
X393250D01*
Y175676D02*
Y206676D01*
X376750Y175676D02*
X393250D01*
X213250Y524500D02*
Y555500D01*
X196750Y524500D02*
X213250D01*
X196750D02*
Y555500D01*
X213250D01*
X696750Y129500D02*
Y160500D01*
X713250D01*
Y129500D02*
Y160500D01*
X696750Y129500D02*
X713250D01*
X610042Y195292D02*
X641042D01*
Y178792D02*
Y195292D01*
X610042Y178792D02*
X641042D01*
X610042D02*
Y195292D01*
X574500Y178792D02*
X605500D01*
X574500D02*
Y195292D01*
X605500D01*
Y178792D02*
Y195292D01*
D14*
X208501Y294999D02*
X208001Y294499D01*
Y293500D01*
X208501Y293000D01*
X210500D01*
X211000Y293500D01*
Y294499D01*
X210500Y294999D01*
Y295999D02*
X211000Y296499D01*
Y297498D01*
X210500Y297998D01*
X208501D01*
X208001Y297498D01*
Y296499D01*
X208501Y295999D01*
X209001D01*
X209501Y296499D01*
Y297998D01*
X183586Y294999D02*
X183086Y294499D01*
Y293500D01*
X183586Y293000D01*
X185585D01*
X186085Y293500D01*
Y294499D01*
X185585Y294999D01*
X183086Y295999D02*
Y297998D01*
X183586D01*
X185585Y295999D01*
X186085D01*
X159044Y294999D02*
X158544Y294499D01*
Y293500D01*
X159044Y293000D01*
X161043D01*
X161543Y293500D01*
Y294499D01*
X161043Y294999D01*
X158544Y297998D02*
Y295999D01*
X160043D01*
X159543Y296999D01*
Y297498D01*
X160043Y297998D01*
X161043D01*
X161543Y297498D01*
Y296499D01*
X161043Y295999D01*
X134501Y294999D02*
X134001Y294499D01*
Y293500D01*
X134501Y293000D01*
X136500D01*
X137000Y293500D01*
Y294499D01*
X136500Y294999D01*
X134501Y295999D02*
X134001Y296499D01*
Y297498D01*
X134501Y297998D01*
X135001D01*
X135501Y297498D01*
Y296999D01*
Y297498D01*
X136000Y297998D01*
X136500D01*
X137000Y297498D01*
Y296499D01*
X136500Y295999D01*
X702999Y60623D02*
X702499Y61122D01*
X701500D01*
X701000Y60623D01*
Y58623D01*
X701500Y58123D01*
X702499D01*
X702999Y58623D01*
X705498Y58123D02*
Y61122D01*
X703999Y59623D01*
X705998D01*
X708997Y58123D02*
X706998D01*
X708997Y60123D01*
Y60623D01*
X708497Y61122D01*
X707498D01*
X706998Y60623D01*
X333234Y202999D02*
X332735Y202499D01*
Y201500D01*
X333234Y201000D01*
X335234D01*
X335734Y201500D01*
Y202499D01*
X335234Y202999D01*
X335734Y205498D02*
X332735D01*
X334234Y203999D01*
Y205998D01*
X335734Y206998D02*
Y207998D01*
Y207498D01*
X332735D01*
X333234Y206998D01*
X372001Y281624D02*
X372501Y281125D01*
X373500D01*
X374000Y281624D01*
Y283624D01*
X373500Y284124D01*
X372501D01*
X372001Y283624D01*
X371001Y281624D02*
X370501Y281125D01*
X369502D01*
X369002Y281624D01*
Y282124D01*
X369502Y282624D01*
X370001D01*
X369502D01*
X369002Y283124D01*
Y283624D01*
X369502Y284124D01*
X370501D01*
X371001Y283624D01*
X368002Y281624D02*
X367502Y281125D01*
X366503D01*
X366003Y281624D01*
Y282124D01*
X366503Y282624D01*
X367002D01*
X366503D01*
X366003Y283124D01*
Y283624D01*
X366503Y284124D01*
X367502D01*
X368002Y283624D01*
X752999Y162875D02*
X752499Y163375D01*
X751500D01*
X751000Y162875D01*
Y160876D01*
X751500Y160376D01*
X752499D01*
X752999Y160876D01*
X755498Y160376D02*
Y163375D01*
X753999Y161876D01*
X755998D01*
X756998Y162875D02*
X757498Y163375D01*
X758497D01*
X758997Y162875D01*
Y162376D01*
X758497Y161876D01*
X758997Y161376D01*
Y160876D01*
X758497Y160376D01*
X757498D01*
X756998Y160876D01*
Y161376D01*
X757498Y161876D01*
X756998Y162376D01*
Y162875D01*
X757498Y161876D02*
X758497D01*
X150000Y101000D02*
X152999D01*
Y99501D01*
X152499Y99001D01*
X151499D01*
X150999Y99501D01*
Y101000D01*
Y100000D02*
X150000Y99001D01*
Y98001D02*
Y97001D01*
Y97501D01*
X152999D01*
X152499Y98001D01*
X152999Y93503D02*
Y95502D01*
X151499D01*
X151999Y94502D01*
Y94002D01*
X151499Y93503D01*
X150500D01*
X150000Y94002D01*
Y95002D01*
X150500Y95502D01*
X389000Y546000D02*
X386001D01*
Y547499D01*
X386501Y547999D01*
X387501D01*
X388000Y547499D01*
Y546000D01*
Y547000D02*
X389000Y547999D01*
Y548999D02*
Y549999D01*
Y549499D01*
X386001D01*
X386501Y548999D01*
X389000Y552998D02*
X386001D01*
X387501Y551498D01*
Y553497D01*
X391000Y511000D02*
X393999D01*
Y509501D01*
X393499Y509001D01*
X392499D01*
X392000Y509501D01*
Y511000D01*
Y510000D02*
X391000Y509001D01*
Y508001D02*
Y507001D01*
Y507501D01*
X393999D01*
X393499Y508001D01*
X391000Y505502D02*
Y504502D01*
Y505002D01*
X393999D01*
X393499Y505502D01*
X388940Y591000D02*
X385941D01*
Y592499D01*
X386441Y592999D01*
X387440D01*
X387940Y592499D01*
Y591000D01*
Y592000D02*
X388940Y592999D01*
X386441Y593999D02*
X385941Y594499D01*
Y595498D01*
X386441Y595998D01*
X386941D01*
X387440Y595498D01*
X387940Y595998D01*
X388440D01*
X388940Y595498D01*
Y594499D01*
X388440Y593999D01*
X387940D01*
X387440Y594499D01*
X386941Y593999D01*
X386441D01*
X387440Y594499D02*
Y595498D01*
X401000Y488000D02*
Y490999D01*
X402499D01*
X402999Y490499D01*
Y489499D01*
X402499Y488999D01*
X401000D01*
X402000D02*
X402999Y488000D01*
X403999Y490999D02*
X405998D01*
Y490499D01*
X403999Y488500D01*
Y488000D01*
X141000Y519000D02*
Y521999D01*
X142499D01*
X142999Y521499D01*
Y520499D01*
X142499Y520000D01*
X141000D01*
X142000D02*
X142999Y519000D01*
X145998Y521999D02*
X144999Y521499D01*
X143999Y520499D01*
Y519500D01*
X144499Y519000D01*
X145498D01*
X145998Y519500D01*
Y520000D01*
X145498Y520499D01*
X143999D01*
X214000Y141000D02*
Y138001D01*
X212501D01*
X212001Y138501D01*
Y139501D01*
X212501Y140000D01*
X214000D01*
X213001D02*
X212001Y141000D01*
X209002Y138001D02*
X211001D01*
Y139501D01*
X210001Y139001D01*
X209502D01*
X209002Y139501D01*
Y140500D01*
X209502Y141000D01*
X210501D01*
X211001Y140500D01*
X409982Y591000D02*
X406983D01*
Y592499D01*
X407483Y592999D01*
X408483D01*
X408983Y592499D01*
Y591000D01*
Y592000D02*
X409982Y592999D01*
Y595498D02*
X406983D01*
X408483Y593999D01*
Y595998D01*
X111000Y545000D02*
X113999D01*
Y543501D01*
X113499Y543001D01*
X112499D01*
X112000Y543501D01*
Y545000D01*
Y544001D02*
X111000Y543001D01*
X113499Y542001D02*
X113999Y541501D01*
Y540502D01*
X113499Y540002D01*
X112999D01*
X112499Y540502D01*
Y541001D01*
Y540502D01*
X112000Y540002D01*
X111500D01*
X111000Y540502D01*
Y541501D01*
X111500Y542001D01*
X248000Y138000D02*
X245001D01*
Y139499D01*
X245501Y139999D01*
X246501D01*
X247000Y139499D01*
Y138000D01*
Y139000D02*
X248000Y139999D01*
Y142998D02*
Y140999D01*
X246001Y142998D01*
X245501D01*
X245001Y142498D01*
Y141499D01*
X245501Y140999D01*
X365058Y456198D02*
Y453199D01*
X363558D01*
X363058Y453698D01*
Y454698D01*
X363558Y455198D01*
X365058D01*
X364058D02*
X363058Y456198D01*
X362059D02*
X361059D01*
X361559D01*
Y453199D01*
X362059Y453698D01*
X759000Y196000D02*
X756001D01*
Y197499D01*
X756501Y197999D01*
X757501D01*
X758000Y197499D01*
Y196000D01*
Y196999D02*
X759000Y197999D01*
X756501Y198999D02*
X756001Y199499D01*
Y200498D01*
X756501Y200998D01*
X757001D01*
X757501Y200498D01*
Y199999D01*
Y200498D01*
X758000Y200998D01*
X758500D01*
X759000Y200498D01*
Y199499D01*
X758500Y198999D01*
X756501Y201998D02*
X756001Y202498D01*
Y203497D01*
X756501Y203997D01*
X758500D01*
X759000Y203497D01*
Y202498D01*
X758500Y201998D01*
X756501D01*
X655043Y541000D02*
X652044D01*
Y542499D01*
X652543Y542999D01*
X653543D01*
X654043Y542499D01*
Y541000D01*
Y542000D02*
X655043Y542999D01*
Y545998D02*
Y543999D01*
X653043Y545998D01*
X652543D01*
X652044Y545498D01*
Y544499D01*
X652543Y543999D01*
X654543Y546998D02*
X655043Y547498D01*
Y548497D01*
X654543Y548997D01*
X652543D01*
X652044Y548497D01*
Y547498D01*
X652543Y546998D01*
X653043D01*
X653543Y547498D01*
Y548997D01*
X634000Y541000D02*
X631001D01*
Y542499D01*
X631501Y542999D01*
X632501D01*
X633000Y542499D01*
Y541000D01*
Y542000D02*
X634000Y542999D01*
Y545998D02*
Y543999D01*
X632001Y545998D01*
X631501D01*
X631001Y545498D01*
Y544499D01*
X631501Y543999D01*
Y546998D02*
X631001Y547498D01*
Y548497D01*
X631501Y548997D01*
X632001D01*
X632501Y548497D01*
X633000Y548997D01*
X633500D01*
X634000Y548497D01*
Y547498D01*
X633500Y546998D01*
X633000D01*
X632501Y547498D01*
X632001Y546998D01*
X631501D01*
X632501Y547498D02*
Y548497D01*
X384000Y192176D02*
X381001D01*
Y193676D01*
X381501Y194176D01*
X382501D01*
X383000Y193676D01*
Y192176D01*
Y193176D02*
X384000Y194176D01*
Y197175D02*
Y195175D01*
X382001Y197175D01*
X381501D01*
X381001Y196675D01*
Y195675D01*
X381501Y195175D01*
Y198174D02*
X381001Y198674D01*
Y199674D01*
X381501Y200174D01*
X382001D01*
X382501Y199674D01*
Y199174D01*
Y199674D01*
X383000Y200174D01*
X383500D01*
X384000Y199674D01*
Y198674D01*
X383500Y198174D01*
X239000Y519000D02*
Y521999D01*
X240499D01*
X240999Y521499D01*
Y520499D01*
X240499Y520000D01*
X239000D01*
X240000D02*
X240999Y519000D01*
X241999D02*
X242999D01*
X242499D01*
Y521999D01*
X241999Y521499D01*
X244498D02*
X244998Y521999D01*
X245998D01*
X246497Y521499D01*
Y520999D01*
X245998Y520499D01*
X246497Y520000D01*
Y519500D01*
X245998Y519000D01*
X244998D01*
X244498Y519500D01*
Y520000D01*
X244998Y520499D01*
X244498Y520999D01*
Y521499D01*
X244998Y520499D02*
X245998D01*
X105166Y143000D02*
Y145999D01*
X106666D01*
X107166Y145499D01*
Y144499D01*
X106666Y144000D01*
X105166D01*
X106166D02*
X107166Y143000D01*
X108165D02*
X109165D01*
X108665D01*
Y145999D01*
X108165Y145499D01*
X110665Y145999D02*
X112664D01*
Y145499D01*
X110665Y143500D01*
Y143000D01*
X206000Y539000D02*
X208999D01*
Y537501D01*
X208499Y537001D01*
X207499D01*
X206999Y537501D01*
Y539000D01*
Y538000D02*
X206000Y537001D01*
Y536001D02*
Y535001D01*
Y535501D01*
X208999D01*
X208499Y536001D01*
X208999Y531502D02*
X208499Y532502D01*
X207499Y533502D01*
X206500D01*
X206000Y533002D01*
Y532002D01*
X206500Y531502D01*
X206999D01*
X207499Y532002D01*
Y533502D01*
X704000Y146000D02*
X701001D01*
Y147499D01*
X701501Y147999D01*
X702501D01*
X703000Y147499D01*
Y146000D01*
Y147000D02*
X704000Y147999D01*
X701501Y148999D02*
X701001Y149499D01*
Y150498D01*
X701501Y150998D01*
X702001D01*
X702501Y150498D01*
Y149999D01*
Y150498D01*
X703000Y150998D01*
X703500D01*
X704000Y150498D01*
Y149499D01*
X703500Y148999D01*
X704000Y153497D02*
X701001D01*
X702501Y151998D01*
Y153997D01*
X626542Y188042D02*
Y191041D01*
X628042D01*
X628542Y190542D01*
Y189542D01*
X628042Y189042D01*
X626542D01*
X627542D02*
X628542Y188042D01*
X629541Y190542D02*
X630041Y191041D01*
X631041D01*
X631541Y190542D01*
Y190042D01*
X631041Y189542D01*
X630541D01*
X631041D01*
X631541Y189042D01*
Y188542D01*
X631041Y188042D01*
X630041D01*
X629541Y188542D01*
X632540Y190542D02*
X633040Y191041D01*
X634040D01*
X634540Y190542D01*
Y190042D01*
X634040Y189542D01*
X633540D01*
X634040D01*
X634540Y189042D01*
Y188542D01*
X634040Y188042D01*
X633040D01*
X632540Y188542D01*
X589000Y186043D02*
Y183044D01*
X587501D01*
X587001Y183543D01*
Y184543D01*
X587501Y185043D01*
X589000D01*
X588000D02*
X587001Y186043D01*
X586001Y183543D02*
X585501Y183044D01*
X584502D01*
X584002Y183543D01*
Y184043D01*
X584502Y184543D01*
X585001D01*
X584502D01*
X584002Y185043D01*
Y185543D01*
X584502Y186043D01*
X585501D01*
X586001Y185543D01*
X583002Y186043D02*
X582002D01*
X582502D01*
Y183044D01*
X583002Y183543D01*
D108*
X116000Y507000D02*
X164000D01*
X116000D02*
Y529000D01*
X164000Y507000D02*
Y529000D01*
X116000D02*
X164000D01*
X191000Y153000D02*
X239000D01*
Y131000D02*
Y153000D01*
X191000Y131000D02*
Y153000D01*
Y131000D02*
X239000D01*
X214000Y507000D02*
X262000D01*
X214000D02*
Y529000D01*
X262000Y507000D02*
Y529000D01*
X214000D02*
X262000D01*
X80166Y131000D02*
X128166D01*
X80166D02*
Y153000D01*
X128166Y131000D02*
Y153000D01*
X80166D02*
X128166D01*
M02*
