G04*
G04 #@! TF.GenerationSoftware,Altium Limited,Altium Designer,20.1.12 (249)*
G04*
G04 Layer_Color=12632256*
%FSLAX44Y44*%
%MOMM*%
G71*
G04*
G04 #@! TF.SameCoordinates,284B2C5B-B2DB-445A-AC85-361AEC2CE434*
G04*
G04*
G04 #@! TF.FilePolarity,Positive*
G04*
G01*
G75*
%ADD89C,2.4000*%
%ADD90R,2.4000X2.4000*%
%ADD91C,1.8750*%
%ADD92R,1.8750X1.8750*%
%ADD93R,1.2000X1.2000*%
%ADD94C,1.2000*%
D89*
X99857Y312100D02*
D03*
X750000Y410400D02*
D03*
D90*
X99857Y362900D02*
D03*
X750000Y359600D02*
D03*
D91*
X766400Y253000D02*
D03*
X741000D02*
D03*
X715600D02*
D03*
X690200D02*
D03*
X664800D02*
D03*
X639400D02*
D03*
X614000D02*
D03*
X588600D02*
D03*
X563200D02*
D03*
X537800D02*
D03*
X512400D02*
D03*
X487000D02*
D03*
X461600D02*
D03*
X436200D02*
D03*
X410800D02*
D03*
X385400D02*
D03*
X766400Y25000D02*
D03*
X741000D02*
D03*
X715600D02*
D03*
X690200D02*
D03*
X664800D02*
D03*
X639400D02*
D03*
X614000D02*
D03*
X588600D02*
D03*
X563200D02*
D03*
X537800D02*
D03*
X512400D02*
D03*
X487000D02*
D03*
X461600D02*
D03*
X436200D02*
D03*
X410800D02*
D03*
X385400D02*
D03*
D92*
X360000Y253000D02*
D03*
Y25000D02*
D03*
D93*
X716000Y705000D02*
D03*
X572957D02*
D03*
X429915Y704000D02*
D03*
X286872D02*
D03*
D94*
X716000Y755000D02*
D03*
X572957D02*
D03*
X429915Y754000D02*
D03*
X286872D02*
D03*
M02*
