G04*
G04 #@! TF.GenerationSoftware,Altium Limited,Altium Designer,20.1.12 (249)*
G04*
G04 Layer_Physical_Order=2*
G04 Layer_Color=32768*
%FSLAX44Y44*%
%MOMM*%
G71*
G04*
G04 #@! TF.SameCoordinates,284B2C5B-B2DB-445A-AC85-361AEC2CE434*
G04*
G04*
G04 #@! TF.FilePolarity,Negative*
G04*
G01*
G75*
%ADD10C,0.2000*%
%ADD97C,1.0160*%
%ADD98C,2.6160*%
%ADD99C,4.2160*%
%ADD100C,2.2660*%
%ADD101C,1.8160*%
%ADD102C,1.3160*%
D10*
X617500Y392500D02*
X625000D01*
X587500Y581265D02*
Y615000D01*
X195000Y162500D02*
Y250000D01*
Y162500D02*
X275000D01*
Y250000D01*
X195000D02*
X275000D01*
X300000Y0D02*
X850000D01*
X300000D02*
Y12500D01*
X312500Y300000D02*
Y662500D01*
X300000Y287500D02*
X312500Y300000D01*
X300000Y137500D02*
Y287500D01*
Y12500D02*
Y137500D01*
X850000Y0D02*
Y312500D01*
X610000D02*
X850000D01*
X610000D02*
Y375000D01*
X625000D01*
X610000Y392500D02*
X617500D01*
X610000D02*
Y437500D01*
X700000D01*
Y580000D01*
X698735Y581265D02*
X700000Y580000D01*
X588735Y581265D02*
X698735D01*
X587500Y582500D02*
X588735Y581265D01*
X587500Y582500D02*
Y662500D01*
X312500Y662500D02*
X587500Y662500D01*
X35000Y487112D02*
X35149Y486963D01*
Y457649D02*
Y486963D01*
Y457649D02*
X110149D01*
Y487859D01*
X65000Y487500D02*
X110000D01*
X35000D02*
X110000D01*
D97*
X0Y800000D02*
X850000D01*
Y-0D02*
Y800000D01*
X0Y0D02*
X850000Y-0D01*
X0Y800000D02*
X0Y0D01*
D98*
X99857Y312100D02*
D03*
Y362900D02*
D03*
X750000Y410400D02*
D03*
D99*
X30000Y30000D02*
D03*
X820000D02*
D03*
X30000Y770000D02*
D03*
X820000D02*
D03*
D100*
X766400Y253000D02*
D03*
X741000D02*
D03*
X715600D02*
D03*
X690200D02*
D03*
X664800D02*
D03*
X639400D02*
D03*
X614000D02*
D03*
X588600D02*
D03*
X563200D02*
D03*
X537800D02*
D03*
X512400D02*
D03*
X487000D02*
D03*
X461600D02*
D03*
X436200D02*
D03*
X410800D02*
D03*
X385400D02*
D03*
X360000D02*
D03*
X766400Y25000D02*
D03*
X741000D02*
D03*
X715600D02*
D03*
X690200D02*
D03*
X664800D02*
D03*
X639400D02*
D03*
X614000D02*
D03*
X588600D02*
D03*
X563200D02*
D03*
X537800D02*
D03*
X512400D02*
D03*
X487000D02*
D03*
X461600D02*
D03*
X436200D02*
D03*
X410800D02*
D03*
X385400D02*
D03*
D101*
X716000Y705000D02*
D03*
X572957D02*
D03*
X429915Y704000D02*
D03*
X286872D02*
D03*
D102*
X277500Y595000D02*
D03*
X157500Y565000D02*
D03*
X187500Y177500D02*
D03*
X107500Y160000D02*
D03*
X138419Y257463D02*
D03*
X155000Y490000D02*
D03*
X270000Y485000D02*
D03*
X405000Y130000D02*
D03*
Y180000D02*
D03*
X690000Y550000D02*
D03*
X605000D02*
D03*
X380000Y472500D02*
D03*
X582500Y210000D02*
D03*
X596950Y498734D02*
D03*
X310000Y97500D02*
D03*
X162500Y599999D02*
D03*
X757500Y225000D02*
D03*
X105000Y462500D02*
D03*
Y472500D02*
D03*
Y482500D02*
D03*
X92500Y462500D02*
D03*
Y482500D02*
D03*
X80000Y462500D02*
D03*
X67500D02*
D03*
X55000D02*
D03*
X42500D02*
D03*
Y482500D02*
D03*
X80000D02*
D03*
X67500D02*
D03*
X55000D02*
D03*
X62500Y177500D02*
D03*
X50000D02*
D03*
X37500D02*
D03*
X220000Y417500D02*
D03*
Y432500D02*
D03*
Y447500D02*
D03*
X207500D02*
D03*
X190000D02*
D03*
X172500D02*
D03*
X207500Y417500D02*
D03*
Y432500D02*
D03*
X190000Y417500D02*
D03*
Y432500D02*
D03*
X172500Y417500D02*
D03*
Y432500D02*
D03*
X152500Y417500D02*
D03*
Y432500D02*
D03*
X130000Y417500D02*
D03*
Y432500D02*
D03*
X112500Y417500D02*
D03*
X95000D02*
D03*
X112500Y432500D02*
D03*
X95000D02*
D03*
X270000Y330000D02*
D03*
X252500D02*
D03*
X237500D02*
D03*
X222500D02*
D03*
X210000D02*
D03*
X195000D02*
D03*
X180000D02*
D03*
X167500D02*
D03*
X155000D02*
D03*
X142500D02*
D03*
X130000D02*
D03*
X590472Y419600D02*
D03*
Y404600D02*
D03*
Y384600D02*
D03*
Y364600D02*
D03*
Y349600D02*
D03*
X577472Y419600D02*
D03*
Y404600D02*
D03*
Y384600D02*
D03*
Y364600D02*
D03*
Y349600D02*
D03*
X562472Y419600D02*
D03*
Y404600D02*
D03*
Y384600D02*
D03*
Y364600D02*
D03*
Y349600D02*
D03*
X547472Y419600D02*
D03*
Y404600D02*
D03*
Y384600D02*
D03*
Y364600D02*
D03*
Y349600D02*
D03*
X532472Y419600D02*
D03*
Y404600D02*
D03*
Y384600D02*
D03*
Y364600D02*
D03*
Y349600D02*
D03*
X517472Y419600D02*
D03*
Y404600D02*
D03*
Y384600D02*
D03*
Y364600D02*
D03*
Y349600D02*
D03*
X124000Y199250D02*
D03*
X115250D02*
D03*
X123750Y207250D02*
D03*
X115250Y207000D02*
D03*
X123500Y214750D02*
D03*
X115250Y215000D02*
D03*
X233000Y467750D02*
D03*
X241750D02*
D03*
X233250Y459750D02*
D03*
X241750Y460000D02*
D03*
X233500Y452250D02*
D03*
X241750Y452000D02*
D03*
X200250Y199250D02*
D03*
Y207000D02*
D03*
Y215000D02*
D03*
X133000Y467750D02*
D03*
X141750D02*
D03*
X133250Y459750D02*
D03*
X141750Y460000D02*
D03*
X133500Y452250D02*
D03*
X141750Y452000D02*
D03*
M02*
