G04*
G04 #@! TF.GenerationSoftware,Altium Limited,Altium Designer,20.1.12 (249)*
G04*
G04 Layer_Color=255*
%FSLAX44Y44*%
%MOMM*%
G71*
G04*
G04 #@! TF.SameCoordinates,A6FFBE12-9050-4AB9-A8FC-CC0259DDA12F*
G04*
G04*
G04 #@! TF.FilePolarity,Positive*
G04*
G01*
G75*
%ADD15R,1.4300X2.8200*%
%ADD16R,5.3500X8.5400*%
%ADD17R,0.8900X3.0600*%
%ADD18R,1.3000X3.4000*%
%ADD19R,0.9500X1.4500*%
%ADD20R,0.9600X1.3900*%
%ADD21R,2.0500X3.5500*%
%ADD22R,1.2000X1.1000*%
%ADD23R,1.4500X0.9500*%
%ADD24R,2.8200X1.4300*%
%ADD25R,1.7800X0.7100*%
%ADD40R,1.9500X1.9500*%
%ADD41C,1.9500*%
D15*
X380900Y158757D02*
D03*
X355100D02*
D03*
X27873Y196000D02*
D03*
X53672D02*
D03*
X27873Y161758D02*
D03*
X53672D02*
D03*
X381470Y193000D02*
D03*
X355670D02*
D03*
D16*
X196900Y280550D02*
D03*
D17*
X235000Y207500D02*
D03*
X222300D02*
D03*
X209600D02*
D03*
X196900D02*
D03*
X184200D02*
D03*
X171500D02*
D03*
X158800D02*
D03*
D18*
X95615Y191658D02*
D03*
X74615D02*
D03*
D19*
X154750Y168482D02*
D03*
X135250D02*
D03*
X241878Y147500D02*
D03*
X261378D02*
D03*
X206335D02*
D03*
X225835D02*
D03*
X190292Y147440D02*
D03*
X170793D02*
D03*
X154750D02*
D03*
X135250D02*
D03*
D20*
X213100Y168982D02*
D03*
X196900D02*
D03*
X260600Y168043D02*
D03*
X244400D02*
D03*
D21*
X226357Y98000D02*
D03*
Y34000D02*
D03*
D22*
X286793Y284500D02*
D03*
Y305500D02*
D03*
D23*
X266000Y305750D02*
D03*
Y286250D02*
D03*
D24*
X123507Y248900D02*
D03*
Y223100D02*
D03*
X89265Y248900D02*
D03*
Y223100D02*
D03*
X328378Y226900D02*
D03*
Y201100D02*
D03*
X294135Y226900D02*
D03*
Y201100D02*
D03*
D25*
X265093Y198600D02*
D03*
Y229400D02*
D03*
D40*
X310000Y97500D02*
D03*
Y47500D02*
D03*
X38207Y97500D02*
D03*
Y47500D02*
D03*
D41*
X360800Y97500D02*
D03*
Y47500D02*
D03*
X89008Y97500D02*
D03*
Y47500D02*
D03*
M02*
