G04*
G04 #@! TF.GenerationSoftware,Altium Limited,Altium Designer,20.1.12 (249)*
G04*
G04 Layer_Physical_Order=2*
G04 Layer_Color=16711680*
%FSLAX44Y44*%
%MOMM*%
G71*
G04*
G04 #@! TF.SameCoordinates,A6FFBE12-9050-4AB9-A8FC-CC0259DDA12F*
G04*
G04*
G04 #@! TF.FilePolarity,Positive*
G04*
G01*
G75*
%ADD40R,1.9500X1.9500*%
%ADD41C,1.9500*%
%ADD42C,0.6000*%
G36*
X400000Y0D02*
X0D01*
Y350000D01*
X400000D01*
Y0D01*
D02*
G37*
%LPC*%
G36*
X322290Y109790D02*
X297710D01*
Y85210D01*
X322290D01*
Y109790D01*
D02*
G37*
G36*
X50497D02*
X25917D01*
Y85210D01*
X50497D01*
Y109790D01*
D02*
G37*
G36*
X322290Y59790D02*
X297710D01*
Y35210D01*
X322290D01*
Y59790D01*
D02*
G37*
G36*
X50497D02*
X25917D01*
Y35210D01*
X50497D01*
Y59790D01*
D02*
G37*
%LPD*%
D40*
X310000Y97500D02*
D03*
Y47500D02*
D03*
X38207Y97500D02*
D03*
Y47500D02*
D03*
D41*
X360800Y97500D02*
D03*
Y47500D02*
D03*
X89008Y97500D02*
D03*
Y47500D02*
D03*
D42*
X383000Y239000D02*
D03*
X279000Y259000D02*
D03*
X262000Y257000D02*
D03*
X163000Y95000D02*
D03*
X165000Y47000D02*
D03*
X166000Y10000D02*
D03*
X7000Y144000D02*
D03*
Y180000D02*
D03*
X44000Y253000D02*
D03*
X77000Y294000D02*
D03*
X118000Y318000D02*
D03*
X351000Y330000D02*
D03*
X362000Y298000D02*
D03*
X190900Y280550D02*
D03*
X214900Y316550D02*
D03*
Y304550D02*
D03*
Y292550D02*
D03*
Y280550D02*
D03*
Y268550D02*
D03*
Y256550D02*
D03*
Y244550D02*
D03*
X202900Y316550D02*
D03*
Y304550D02*
D03*
Y292550D02*
D03*
Y280550D02*
D03*
Y268550D02*
D03*
Y256550D02*
D03*
Y244550D02*
D03*
X190900Y316550D02*
D03*
Y304550D02*
D03*
Y292550D02*
D03*
Y268550D02*
D03*
Y256550D02*
D03*
Y244550D02*
D03*
X178900Y316550D02*
D03*
Y304550D02*
D03*
Y292550D02*
D03*
Y280550D02*
D03*
Y268550D02*
D03*
Y256550D02*
D03*
Y244550D02*
D03*
M02*
