G04*
G04 #@! TF.GenerationSoftware,Altium Limited,Altium Designer,20.1.12 (249)*
G04*
G04 Layer_Color=16711935*
%FSLAX44Y44*%
%MOMM*%
G71*
G04*
G04 #@! TF.SameCoordinates,04BF7026-1835-46FC-AA2D-A1D278024C7A*
G04*
G04*
G04 #@! TF.FilePolarity,Positive*
G04*
G01*
G75*
%ADD12C,0.2000*%
%ADD42C,0.1000*%
D12*
X274628Y99958D02*
Y113958D01*
Y99958D02*
X296628D01*
Y113958D01*
X274628D02*
X296628D01*
X239085Y99958D02*
Y113958D01*
Y99958D02*
X261085D01*
Y113958D01*
X239085D02*
X261085D01*
X225543Y99000D02*
Y113000D01*
X203542D02*
X225543D01*
X203542Y99000D02*
Y113000D01*
Y99000D02*
X225543D01*
X190000Y120000D02*
Y134000D01*
X168000D02*
X190000D01*
X168000Y120000D02*
Y134000D01*
Y120000D02*
X190000D01*
Y98958D02*
Y112957D01*
X168000D02*
X190000D01*
X168000Y98958D02*
Y112957D01*
Y98958D02*
X190000D01*
X284000Y286000D02*
X298000D01*
X284000Y264000D02*
Y286000D01*
Y264000D02*
X298000D01*
Y286000D01*
D42*
X186500Y201525D02*
G03*
X186500Y201525I-5000J0D01*
G01*
X302192Y174000D02*
Y206000D01*
X286192Y174000D02*
X302192D01*
X286192D02*
Y206000D01*
X302192D01*
X335735Y173000D02*
Y205000D01*
X310735Y173000D02*
X335735D01*
X310735D02*
Y205000D01*
X335735D01*
X369977Y173000D02*
Y205000D01*
X344977Y173000D02*
X369977D01*
X344977D02*
Y205000D01*
X369977D01*
X381670Y164885D02*
X413670D01*
X381670D02*
Y189885D01*
X413670D01*
Y164885D02*
Y189885D01*
X381670Y130642D02*
X413670D01*
X381670D02*
Y155642D01*
X413670D01*
Y130642D02*
Y155642D01*
X217000Y130232D02*
Y142732D01*
Y130232D02*
X237000D01*
Y142732D01*
X217000D02*
X237000D01*
X275000Y121250D02*
Y133750D01*
Y121250D02*
X295000D01*
Y133750D01*
X275000D02*
X295000D01*
X323200Y122500D02*
X434800D01*
X323200Y-2500D02*
Y122500D01*
Y-2500D02*
X424800D01*
X434800Y117000D02*
Y122500D01*
Y117000D02*
X439800D01*
Y96000D02*
Y117000D01*
X434800Y96000D02*
X439800D01*
X424800Y-2500D02*
Y2500D01*
X434800D01*
Y8000D01*
X439800D01*
Y18500D01*
X434800D02*
X439800D01*
X434800Y96000D02*
X434800Y18500D01*
X162808Y174000D02*
Y206000D01*
X137808Y174000D02*
X162808D01*
X137808D02*
Y206000D01*
X162808D01*
X128565Y174000D02*
Y206000D01*
X103565Y174000D02*
X128565D01*
X103565D02*
Y206000D01*
X128565D01*
X16000Y155642D02*
X48000D01*
Y130642D02*
Y155642D01*
X16000Y130642D02*
X48000D01*
X16000D02*
Y155642D01*
X12200Y122500D02*
X123800D01*
X12200Y-2500D02*
Y122500D01*
Y-2500D02*
X113800D01*
X123800Y117000D02*
Y122500D01*
Y117000D02*
X128800D01*
Y96000D02*
Y117000D01*
X123800Y96000D02*
X128800D01*
X113800Y-2500D02*
Y2500D01*
X123800D01*
Y8000D01*
X128800D01*
Y18500D01*
X123800D02*
X128800D01*
X123800Y96000D02*
X123800Y18500D01*
X305042Y263500D02*
Y284500D01*
X318542Y263500D02*
Y284500D01*
X305042Y263500D02*
X318542D01*
X305042Y284500D02*
X318542D01*
X171950Y157525D02*
X276050D01*
X171950Y304525D02*
X276050D01*
X171950Y157525D02*
Y304525D01*
X276050Y157525D02*
Y304525D01*
X16000Y190885D02*
X48000D01*
Y165885D02*
Y190885D01*
X16000Y165885D02*
X48000D01*
X16000D02*
Y190885D01*
M02*
