G04*
G04 #@! TF.GenerationSoftware,Altium Limited,Altium Designer,20.1.12 (249)*
G04*
G04 Layer_Color=16711935*
%FSLAX44Y44*%
%MOMM*%
G71*
G04*
G04 #@! TF.SameCoordinates,04BF7026-1835-46FC-AA2D-A1D278024C7A*
G04*
G04*
G04 #@! TF.FilePolarity,Positive*
G04*
G01*
G75*
%ADD12C,0.2000*%
G36*
X293893Y113482D02*
X293942Y113476D01*
X294073Y113462D01*
X294219Y113434D01*
X294385Y113392D01*
X294552Y113337D01*
X294718Y113260D01*
X294725D01*
X294739Y113254D01*
X294760Y113240D01*
X294795Y113219D01*
X294871Y113170D01*
X294968Y113101D01*
X295079Y113011D01*
X295190Y112907D01*
X295301Y112789D01*
X295398Y112650D01*
Y112643D01*
X295405Y112636D01*
X295418Y112609D01*
X295432Y112581D01*
X295453Y112546D01*
X295474Y112505D01*
X295516Y112401D01*
X295557Y112276D01*
X295599Y112137D01*
X295627Y111985D01*
X295634Y111825D01*
Y111818D01*
Y111804D01*
Y111784D01*
Y111756D01*
X295620Y111673D01*
X295606Y111575D01*
X295578Y111458D01*
X295536Y111333D01*
X295481Y111201D01*
X295405Y111069D01*
Y111062D01*
X295398Y111055D01*
X295363Y111014D01*
X295315Y110951D01*
X295238Y110875D01*
X295148Y110785D01*
X295030Y110695D01*
X294898Y110612D01*
X294746Y110528D01*
X294753D01*
X294774Y110521D01*
X294801Y110515D01*
X294843Y110501D01*
X294885Y110487D01*
X294940Y110466D01*
X295072Y110411D01*
X295210Y110334D01*
X295356Y110244D01*
X295502Y110126D01*
X295627Y109981D01*
X295634Y109974D01*
X295640Y109960D01*
X295654Y109939D01*
X295675Y109904D01*
X295703Y109870D01*
X295731Y109821D01*
X295758Y109766D01*
X295786Y109696D01*
X295814Y109627D01*
X295842Y109551D01*
X295897Y109377D01*
X295932Y109176D01*
X295945Y109065D01*
Y108954D01*
Y108947D01*
Y108920D01*
X295939Y108871D01*
Y108816D01*
X295925Y108739D01*
X295911Y108656D01*
X295897Y108566D01*
X295869Y108462D01*
X295835Y108351D01*
X295793Y108240D01*
X295744Y108122D01*
X295682Y108004D01*
X295613Y107880D01*
X295529Y107762D01*
X295439Y107644D01*
X295328Y107533D01*
X295322Y107526D01*
X295301Y107505D01*
X295266Y107477D01*
X295217Y107443D01*
X295162Y107401D01*
X295086Y107353D01*
X295002Y107297D01*
X294905Y107249D01*
X294801Y107193D01*
X294683Y107138D01*
X294559Y107089D01*
X294420Y107048D01*
X294274Y107013D01*
X294122Y106985D01*
X293962Y106964D01*
X293789Y106957D01*
X293754D01*
X293706Y106964D01*
X293650D01*
X293574Y106971D01*
X293491Y106985D01*
X293401Y106999D01*
X293297Y107020D01*
X293186Y107048D01*
X293075Y107082D01*
X292957Y107117D01*
X292839Y107165D01*
X292721Y107228D01*
X292610Y107290D01*
X292492Y107367D01*
X292388Y107457D01*
X292381Y107464D01*
X292367Y107477D01*
X292340Y107505D01*
X292298Y107547D01*
X292257Y107595D01*
X292208Y107658D01*
X292160Y107727D01*
X292104Y107810D01*
X292048Y107893D01*
X291993Y107998D01*
X291938Y108102D01*
X291889Y108219D01*
X291847Y108344D01*
X291806Y108476D01*
X291778Y108615D01*
X291757Y108760D01*
X292541Y108864D01*
Y108857D01*
X292548Y108836D01*
X292555Y108802D01*
X292569Y108753D01*
X292582Y108698D01*
X292596Y108635D01*
X292645Y108490D01*
X292707Y108330D01*
X292784Y108171D01*
X292881Y108025D01*
X292936Y107963D01*
X292992Y107900D01*
X292999D01*
X293005Y107886D01*
X293026Y107873D01*
X293047Y107852D01*
X293116Y107810D01*
X293214Y107755D01*
X293331Y107699D01*
X293463Y107658D01*
X293623Y107623D01*
X293789Y107609D01*
X293845D01*
X293886Y107616D01*
X293928Y107623D01*
X293990Y107630D01*
X294115Y107658D01*
X294268Y107699D01*
X294427Y107769D01*
X294503Y107817D01*
X294580Y107866D01*
X294656Y107921D01*
X294732Y107991D01*
X294739Y107998D01*
X294746Y108011D01*
X294767Y108032D01*
X294795Y108060D01*
X294822Y108095D01*
X294850Y108143D01*
X294885Y108192D01*
X294926Y108254D01*
X294995Y108393D01*
X295051Y108552D01*
X295100Y108739D01*
X295107Y108836D01*
X295113Y108940D01*
Y108947D01*
Y108961D01*
Y108996D01*
X295107Y109031D01*
X295100Y109079D01*
X295093Y109128D01*
X295072Y109253D01*
X295023Y109398D01*
X294961Y109544D01*
X294919Y109620D01*
X294871Y109689D01*
X294815Y109759D01*
X294753Y109828D01*
X294746Y109835D01*
X294739Y109842D01*
X294718Y109863D01*
X294690Y109884D01*
X294656Y109911D01*
X294614Y109939D01*
X294510Y110008D01*
X294378Y110071D01*
X294226Y110126D01*
X294053Y110168D01*
X293955Y110175D01*
X293858Y110182D01*
X293817D01*
X293768Y110175D01*
X293706D01*
X293623Y110161D01*
X293532Y110147D01*
X293421Y110126D01*
X293304Y110098D01*
X293387Y110785D01*
X293401D01*
X293435Y110778D01*
X293477Y110771D01*
X293567D01*
X293602Y110778D01*
X293650D01*
X293699Y110785D01*
X293817Y110806D01*
X293955Y110834D01*
X294108Y110882D01*
X294268Y110944D01*
X294420Y111035D01*
X294427D01*
X294441Y111048D01*
X294455Y111062D01*
X294482Y111083D01*
X294552Y111146D01*
X294628Y111236D01*
X294697Y111347D01*
X294767Y111485D01*
X294795Y111562D01*
X294808Y111652D01*
X294822Y111742D01*
X294829Y111839D01*
Y111846D01*
Y111860D01*
Y111881D01*
X294822Y111915D01*
X294815Y111992D01*
X294795Y112096D01*
X294760Y112206D01*
X294704Y112324D01*
X294628Y112449D01*
X294586Y112505D01*
X294531Y112560D01*
X294517Y112574D01*
X294475Y112602D01*
X294413Y112650D01*
X294330Y112706D01*
X294219Y112754D01*
X294087Y112803D01*
X293942Y112831D01*
X293775Y112844D01*
X293734D01*
X293699Y112837D01*
X293657D01*
X293616Y112831D01*
X293505Y112810D01*
X293387Y112775D01*
X293255Y112720D01*
X293130Y112650D01*
X293005Y112553D01*
X292992Y112539D01*
X292957Y112498D01*
X292901Y112435D01*
X292846Y112338D01*
X292777Y112220D01*
X292714Y112068D01*
X292659Y111895D01*
X292617Y111693D01*
X291834Y111832D01*
Y111839D01*
X291840Y111867D01*
X291847Y111908D01*
X291861Y111964D01*
X291882Y112026D01*
X291903Y112102D01*
X291931Y112186D01*
X291965Y112276D01*
X292055Y112477D01*
X292104Y112574D01*
X292166Y112678D01*
X292236Y112775D01*
X292312Y112872D01*
X292395Y112969D01*
X292485Y113053D01*
X292492Y113059D01*
X292506Y113073D01*
X292541Y113094D01*
X292575Y113122D01*
X292631Y113156D01*
X292687Y113191D01*
X292756Y113233D01*
X292839Y113274D01*
X292922Y113309D01*
X293019Y113351D01*
X293123Y113385D01*
X293234Y113420D01*
X293359Y113448D01*
X293484Y113469D01*
X293616Y113482D01*
X293754Y113489D01*
X293845D01*
X293893Y113482D01*
D02*
G37*
G36*
X288678Y113462D02*
X288755D01*
X288845Y113455D01*
X288949Y113448D01*
X289157Y113427D01*
X289372Y113392D01*
X289580Y113351D01*
X289670Y113323D01*
X289760Y113295D01*
X289767D01*
X289781Y113288D01*
X289802Y113274D01*
X289837Y113260D01*
X289920Y113219D01*
X290017Y113156D01*
X290135Y113073D01*
X290253Y112962D01*
X290370Y112837D01*
X290474Y112685D01*
Y112678D01*
X290488Y112664D01*
X290502Y112643D01*
X290516Y112609D01*
X290537Y112567D01*
X290558Y112519D01*
X290585Y112463D01*
X290613Y112401D01*
X290662Y112255D01*
X290703Y112096D01*
X290731Y111915D01*
X290745Y111721D01*
Y111714D01*
Y111693D01*
Y111652D01*
X290738Y111610D01*
X290731Y111548D01*
X290724Y111478D01*
X290710Y111402D01*
X290689Y111319D01*
X290634Y111139D01*
X290599Y111042D01*
X290558Y110944D01*
X290509Y110847D01*
X290447Y110750D01*
X290377Y110660D01*
X290301Y110570D01*
X290294Y110563D01*
X290280Y110549D01*
X290253Y110528D01*
X290218Y110494D01*
X290169Y110459D01*
X290114Y110417D01*
X290044Y110369D01*
X289961Y110320D01*
X289871Y110272D01*
X289774Y110223D01*
X289663Y110175D01*
X289538Y110126D01*
X289407Y110085D01*
X289261Y110043D01*
X289102Y110008D01*
X288935Y109981D01*
X288942D01*
X288949Y109974D01*
X288990Y109953D01*
X289053Y109918D01*
X289129Y109877D01*
X289212Y109828D01*
X289296Y109780D01*
X289379Y109717D01*
X289448Y109662D01*
X289455Y109655D01*
X289462Y109648D01*
X289483Y109627D01*
X289511Y109599D01*
X289545Y109565D01*
X289587Y109523D01*
X289677Y109426D01*
X289781Y109301D01*
X289899Y109156D01*
X290024Y108989D01*
X290149Y108809D01*
X291258Y107068D01*
X290197D01*
X289351Y108400D01*
X289344Y108407D01*
X289337Y108427D01*
X289316Y108455D01*
X289289Y108497D01*
X289261Y108545D01*
X289219Y108601D01*
X289136Y108726D01*
X289039Y108871D01*
X288942Y109017D01*
X288838Y109156D01*
X288741Y109280D01*
Y109287D01*
X288727Y109294D01*
X288699Y109329D01*
X288658Y109384D01*
X288595Y109447D01*
X288533Y109516D01*
X288457Y109585D01*
X288380Y109655D01*
X288311Y109703D01*
X288304Y109710D01*
X288276Y109724D01*
X288242Y109745D01*
X288193Y109773D01*
X288131Y109800D01*
X288068Y109828D01*
X287999Y109856D01*
X287923Y109877D01*
X287916D01*
X287895Y109884D01*
X287860Y109890D01*
X287812Y109897D01*
X287742D01*
X287659Y109904D01*
X287562Y109911D01*
X286473D01*
Y107068D01*
X285627D01*
Y113469D01*
X288602D01*
X288678Y113462D01*
D02*
G37*
G36*
X260153Y112629D02*
X257595D01*
X257255Y110910D01*
X257262Y110917D01*
X257283Y110931D01*
X257310Y110944D01*
X257352Y110972D01*
X257407Y111000D01*
X257470Y111035D01*
X257539Y111076D01*
X257622Y111111D01*
X257706Y111146D01*
X257803Y111187D01*
X258004Y111250D01*
X258115Y111277D01*
X258226Y111298D01*
X258344Y111305D01*
X258461Y111312D01*
X258496D01*
X258545Y111305D01*
X258600D01*
X258669Y111291D01*
X258753Y111284D01*
X258850Y111264D01*
X258947Y111243D01*
X259058Y111208D01*
X259169Y111173D01*
X259287Y111125D01*
X259405Y111069D01*
X259522Y111000D01*
X259640Y110924D01*
X259758Y110834D01*
X259869Y110730D01*
X259876Y110723D01*
X259897Y110702D01*
X259925Y110667D01*
X259959Y110625D01*
X260008Y110570D01*
X260056Y110494D01*
X260105Y110417D01*
X260160Y110327D01*
X260216Y110223D01*
X260264Y110105D01*
X260320Y109988D01*
X260361Y109849D01*
X260396Y109710D01*
X260424Y109558D01*
X260445Y109398D01*
X260452Y109232D01*
Y109225D01*
Y109190D01*
Y109149D01*
X260445Y109086D01*
X260438Y109010D01*
X260424Y108927D01*
X260410Y108830D01*
X260389Y108719D01*
X260361Y108608D01*
X260327Y108483D01*
X260285Y108358D01*
X260237Y108233D01*
X260181Y108108D01*
X260112Y107977D01*
X260035Y107852D01*
X259945Y107734D01*
X259938Y107727D01*
X259918Y107699D01*
X259883Y107665D01*
X259834Y107616D01*
X259772Y107554D01*
X259696Y107491D01*
X259606Y107415D01*
X259502Y107346D01*
X259391Y107276D01*
X259266Y107200D01*
X259127Y107138D01*
X258975Y107082D01*
X258815Y107027D01*
X258642Y106992D01*
X258461Y106964D01*
X258267Y106957D01*
X258184D01*
X258122Y106964D01*
X258045Y106971D01*
X257962Y106985D01*
X257865Y106999D01*
X257761Y107020D01*
X257650Y107041D01*
X257532Y107075D01*
X257414Y107117D01*
X257297Y107165D01*
X257179Y107221D01*
X257061Y107283D01*
X256950Y107360D01*
X256839Y107443D01*
X256832Y107450D01*
X256818Y107464D01*
X256790Y107491D01*
X256756Y107533D01*
X256707Y107581D01*
X256658Y107637D01*
X256610Y107706D01*
X256555Y107789D01*
X256499Y107873D01*
X256444Y107970D01*
X256395Y108081D01*
X256346Y108192D01*
X256298Y108316D01*
X256263Y108448D01*
X256236Y108594D01*
X256215Y108739D01*
X257040Y108802D01*
Y108795D01*
X257047Y108774D01*
X257054Y108746D01*
X257061Y108705D01*
X257068Y108656D01*
X257089Y108594D01*
X257123Y108462D01*
X257179Y108316D01*
X257255Y108164D01*
X257345Y108025D01*
X257400Y107963D01*
X257456Y107900D01*
X257463D01*
X257470Y107886D01*
X257491Y107873D01*
X257518Y107852D01*
X257588Y107803D01*
X257685Y107755D01*
X257803Y107699D01*
X257941Y107651D01*
X258094Y107616D01*
X258177Y107609D01*
X258267Y107602D01*
X258323D01*
X258364Y107609D01*
X258413Y107616D01*
X258468Y107623D01*
X258600Y107658D01*
X258753Y107706D01*
X258829Y107741D01*
X258912Y107782D01*
X258995Y107831D01*
X259072Y107886D01*
X259148Y107949D01*
X259224Y108025D01*
X259231Y108032D01*
X259238Y108046D01*
X259259Y108067D01*
X259287Y108102D01*
X259314Y108150D01*
X259349Y108199D01*
X259384Y108261D01*
X259425Y108330D01*
X259460Y108407D01*
X259495Y108490D01*
X259529Y108587D01*
X259557Y108684D01*
X259585Y108795D01*
X259606Y108913D01*
X259613Y109031D01*
X259619Y109162D01*
Y109169D01*
Y109190D01*
Y109225D01*
X259613Y109273D01*
X259606Y109329D01*
X259599Y109398D01*
X259585Y109467D01*
X259571Y109551D01*
X259529Y109717D01*
X259460Y109897D01*
X259418Y109981D01*
X259363Y110064D01*
X259307Y110147D01*
X259238Y110223D01*
X259231Y110230D01*
X259224Y110237D01*
X259196Y110258D01*
X259169Y110286D01*
X259134Y110314D01*
X259086Y110348D01*
X259037Y110383D01*
X258975Y110424D01*
X258905Y110459D01*
X258836Y110494D01*
X258662Y110556D01*
X258572Y110584D01*
X258468Y110605D01*
X258364Y110612D01*
X258253Y110619D01*
X258191D01*
X258115Y110612D01*
X258025Y110598D01*
X257914Y110577D01*
X257796Y110542D01*
X257678Y110501D01*
X257560Y110438D01*
X257546Y110431D01*
X257511Y110411D01*
X257456Y110369D01*
X257387Y110320D01*
X257317Y110251D01*
X257234Y110175D01*
X257158Y110085D01*
X257089Y109988D01*
X256353Y110092D01*
X256971Y113378D01*
X260153D01*
Y112629D01*
D02*
G37*
G36*
X253136Y113455D02*
X253212D01*
X253302Y113448D01*
X253406Y113441D01*
X253614Y113420D01*
X253829Y113385D01*
X254037Y113344D01*
X254128Y113316D01*
X254218Y113288D01*
X254225D01*
X254238Y113281D01*
X254259Y113267D01*
X254294Y113254D01*
X254377Y113212D01*
X254474Y113150D01*
X254592Y113066D01*
X254710Y112955D01*
X254828Y112831D01*
X254932Y112678D01*
Y112671D01*
X254946Y112657D01*
X254960Y112636D01*
X254974Y112602D01*
X254994Y112560D01*
X255015Y112512D01*
X255043Y112456D01*
X255071Y112394D01*
X255119Y112248D01*
X255161Y112089D01*
X255189Y111908D01*
X255202Y111714D01*
Y111707D01*
Y111686D01*
Y111645D01*
X255195Y111603D01*
X255189Y111541D01*
X255182Y111472D01*
X255168Y111395D01*
X255147Y111312D01*
X255091Y111132D01*
X255057Y111035D01*
X255015Y110938D01*
X254967Y110841D01*
X254904Y110743D01*
X254835Y110653D01*
X254759Y110563D01*
X254752Y110556D01*
X254738Y110542D01*
X254710Y110521D01*
X254675Y110487D01*
X254627Y110452D01*
X254571Y110411D01*
X254502Y110362D01*
X254419Y110314D01*
X254329Y110265D01*
X254232Y110216D01*
X254121Y110168D01*
X253996Y110119D01*
X253864Y110078D01*
X253718Y110036D01*
X253559Y110001D01*
X253393Y109974D01*
X253400D01*
X253406Y109967D01*
X253448Y109946D01*
X253510Y109911D01*
X253587Y109870D01*
X253670Y109821D01*
X253753Y109773D01*
X253836Y109710D01*
X253906Y109655D01*
X253913Y109648D01*
X253920Y109641D01*
X253940Y109620D01*
X253968Y109592D01*
X254003Y109558D01*
X254044Y109516D01*
X254135Y109419D01*
X254238Y109294D01*
X254356Y109149D01*
X254481Y108982D01*
X254606Y108802D01*
X255716Y107061D01*
X254655D01*
X253809Y108393D01*
X253802Y108400D01*
X253795Y108420D01*
X253774Y108448D01*
X253746Y108490D01*
X253718Y108538D01*
X253677Y108594D01*
X253594Y108719D01*
X253496Y108864D01*
X253400Y109010D01*
X253295Y109149D01*
X253198Y109273D01*
Y109280D01*
X253185Y109287D01*
X253157Y109322D01*
X253115Y109377D01*
X253053Y109440D01*
X252990Y109509D01*
X252914Y109579D01*
X252838Y109648D01*
X252768Y109696D01*
X252761Y109703D01*
X252734Y109717D01*
X252699Y109738D01*
X252651Y109766D01*
X252588Y109793D01*
X252526Y109821D01*
X252456Y109849D01*
X252380Y109870D01*
X252373D01*
X252352Y109877D01*
X252318Y109884D01*
X252269Y109890D01*
X252200D01*
X252117Y109897D01*
X252020Y109904D01*
X250931D01*
Y107061D01*
X250085D01*
Y113462D01*
X253060D01*
X253136Y113455D01*
D02*
G37*
G36*
X214543Y99496D02*
X211568D01*
X211492Y99503D01*
X211415D01*
X211325Y99510D01*
X211221Y99517D01*
X211013Y99537D01*
X210798Y99572D01*
X210590Y99614D01*
X210500Y99642D01*
X210410Y99669D01*
X210403D01*
X210389Y99676D01*
X210368Y99690D01*
X210334Y99704D01*
X210250Y99746D01*
X210153Y99808D01*
X210035Y99891D01*
X209918Y100002D01*
X209800Y100127D01*
X209696Y100279D01*
Y100286D01*
X209682Y100300D01*
X209668Y100321D01*
X209654Y100356D01*
X209633Y100397D01*
X209612Y100446D01*
X209585Y100501D01*
X209557Y100564D01*
X209508Y100709D01*
X209467Y100869D01*
X209439Y101049D01*
X209425Y101243D01*
Y101250D01*
Y101271D01*
Y101313D01*
X209432Y101354D01*
X209439Y101417D01*
X209446Y101486D01*
X209460Y101562D01*
X209481Y101645D01*
X209536Y101826D01*
X209571Y101923D01*
X209612Y102020D01*
X209661Y102117D01*
X209723Y102214D01*
X209793Y102304D01*
X209869Y102394D01*
X209876Y102401D01*
X209890Y102415D01*
X209918Y102436D01*
X209952Y102471D01*
X210001Y102505D01*
X210056Y102547D01*
X210126Y102595D01*
X210209Y102644D01*
X210299Y102692D01*
X210396Y102741D01*
X210507Y102790D01*
X210632Y102838D01*
X210763Y102880D01*
X210909Y102921D01*
X211069Y102956D01*
X211235Y102984D01*
X211228D01*
X211221Y102991D01*
X211180Y103012D01*
X211117Y103046D01*
X211041Y103088D01*
X210958Y103136D01*
X210875Y103185D01*
X210791Y103247D01*
X210722Y103303D01*
X210715Y103310D01*
X210708Y103317D01*
X210687Y103337D01*
X210660Y103365D01*
X210625Y103400D01*
X210583Y103441D01*
X210493Y103539D01*
X210389Y103663D01*
X210271Y103809D01*
X210146Y103975D01*
X210022Y104156D01*
X208912Y105896D01*
X209973D01*
X210819Y104565D01*
X210826Y104558D01*
X210833Y104537D01*
X210854Y104509D01*
X210881Y104468D01*
X210909Y104419D01*
X210951Y104364D01*
X211034Y104239D01*
X211131Y104093D01*
X211228Y103948D01*
X211332Y103809D01*
X211429Y103684D01*
Y103677D01*
X211443Y103670D01*
X211471Y103636D01*
X211512Y103580D01*
X211575Y103518D01*
X211637Y103448D01*
X211714Y103379D01*
X211790Y103310D01*
X211859Y103261D01*
X211866Y103254D01*
X211894Y103240D01*
X211929Y103219D01*
X211977Y103192D01*
X212039Y103164D01*
X212102Y103136D01*
X212171Y103109D01*
X212247Y103088D01*
X212254D01*
X212275Y103081D01*
X212310Y103074D01*
X212358Y103067D01*
X212428D01*
X212511Y103060D01*
X212608Y103053D01*
X213697D01*
Y105896D01*
X214543D01*
Y99496D01*
D02*
G37*
G36*
X206333Y105993D02*
X206402Y105986D01*
X206485Y105979D01*
X206582Y105958D01*
X206686Y105938D01*
X206804Y105910D01*
X206929Y105868D01*
X207061Y105827D01*
X207192Y105764D01*
X207324Y105695D01*
X207463Y105612D01*
X207588Y105515D01*
X207719Y105404D01*
X207837Y105279D01*
X207844Y105272D01*
X207865Y105244D01*
X207893Y105203D01*
X207934Y105140D01*
X207983Y105064D01*
X208031Y104967D01*
X208087Y104849D01*
X208142Y104710D01*
X208205Y104558D01*
X208260Y104384D01*
X208309Y104190D01*
X208357Y103975D01*
X208399Y103740D01*
X208427Y103483D01*
X208447Y103206D01*
X208454Y102907D01*
Y102900D01*
Y102887D01*
Y102859D01*
Y102824D01*
Y102783D01*
X208447Y102727D01*
Y102672D01*
X208441Y102602D01*
X208434Y102450D01*
X208420Y102276D01*
X208399Y102082D01*
X208371Y101874D01*
X208330Y101652D01*
X208288Y101431D01*
X208232Y101209D01*
X208163Y100987D01*
X208087Y100772D01*
X207997Y100564D01*
X207886Y100377D01*
X207768Y100210D01*
X207761Y100203D01*
X207740Y100175D01*
X207705Y100141D01*
X207657Y100092D01*
X207602Y100037D01*
X207525Y99974D01*
X207442Y99912D01*
X207345Y99843D01*
X207234Y99773D01*
X207109Y99711D01*
X206977Y99648D01*
X206832Y99593D01*
X206679Y99544D01*
X206513Y99510D01*
X206339Y99482D01*
X206152Y99475D01*
X206076D01*
X206028Y99482D01*
X205965Y99489D01*
X205889Y99496D01*
X205806Y99510D01*
X205715Y99530D01*
X205514Y99579D01*
X205417Y99614D01*
X205306Y99655D01*
X205202Y99704D01*
X205105Y99766D01*
X205008Y99829D01*
X204911Y99905D01*
X204904Y99912D01*
X204890Y99926D01*
X204862Y99947D01*
X204835Y99981D01*
X204793Y100023D01*
X204752Y100078D01*
X204703Y100141D01*
X204655Y100210D01*
X204606Y100286D01*
X204557Y100377D01*
X204509Y100474D01*
X204460Y100578D01*
X204419Y100688D01*
X204384Y100806D01*
X204349Y100931D01*
X204329Y101070D01*
X205112Y101132D01*
Y101125D01*
X205119Y101111D01*
X205126Y101091D01*
X205133Y101056D01*
X205154Y100973D01*
X205188Y100876D01*
X205230Y100765D01*
X205285Y100654D01*
X205341Y100550D01*
X205410Y100460D01*
X205417Y100453D01*
X205424Y100446D01*
X205445Y100425D01*
X205466Y100404D01*
X205535Y100349D01*
X205632Y100286D01*
X205743Y100224D01*
X205882Y100175D01*
X206034Y100134D01*
X206118Y100127D01*
X206201Y100120D01*
X206263D01*
X206339Y100134D01*
X206430Y100148D01*
X206534Y100175D01*
X206645Y100210D01*
X206756Y100266D01*
X206866Y100335D01*
X206873D01*
X206880Y100349D01*
X206901Y100363D01*
X206929Y100383D01*
X206991Y100446D01*
X207075Y100536D01*
X207172Y100647D01*
X207269Y100786D01*
X207359Y100945D01*
X207449Y101125D01*
Y101132D01*
X207456Y101146D01*
X207470Y101181D01*
X207484Y101222D01*
X207498Y101271D01*
X207518Y101340D01*
X207539Y101417D01*
X207560Y101500D01*
X207581Y101597D01*
X207595Y101708D01*
X207615Y101833D01*
X207636Y101964D01*
X207650Y102103D01*
X207657Y102256D01*
X207664Y102422D01*
X207671Y102588D01*
X207657Y102575D01*
X207643Y102554D01*
X207622Y102526D01*
X207560Y102450D01*
X207484Y102353D01*
X207380Y102249D01*
X207262Y102145D01*
X207130Y102048D01*
X206984Y101958D01*
X206977D01*
X206964Y101951D01*
X206943Y101937D01*
X206915Y101923D01*
X206873Y101909D01*
X206832Y101888D01*
X206721Y101847D01*
X206589Y101812D01*
X206444Y101777D01*
X206284Y101749D01*
X206118Y101742D01*
X206083D01*
X206041Y101749D01*
X205986D01*
X205917Y101763D01*
X205840Y101770D01*
X205750Y101791D01*
X205653Y101812D01*
X205556Y101847D01*
X205445Y101881D01*
X205334Y101930D01*
X205223Y101985D01*
X205105Y102055D01*
X204994Y102131D01*
X204883Y102221D01*
X204779Y102325D01*
X204772Y102332D01*
X204758Y102353D01*
X204731Y102381D01*
X204689Y102429D01*
X204648Y102485D01*
X204606Y102554D01*
X204550Y102637D01*
X204502Y102727D01*
X204453Y102831D01*
X204398Y102942D01*
X204356Y103067D01*
X204308Y103199D01*
X204273Y103337D01*
X204245Y103490D01*
X204231Y103649D01*
X204225Y103816D01*
Y103823D01*
Y103844D01*
Y103871D01*
X204231Y103920D01*
Y103968D01*
X204238Y104031D01*
X204245Y104107D01*
X204259Y104183D01*
X204287Y104357D01*
X204335Y104544D01*
X204398Y104738D01*
X204488Y104939D01*
Y104946D01*
X204502Y104960D01*
X204516Y104988D01*
X204537Y105022D01*
X204564Y105064D01*
X204592Y105112D01*
X204675Y105230D01*
X204772Y105355D01*
X204897Y105487D01*
X205043Y105619D01*
X205202Y105730D01*
X205209D01*
X205223Y105744D01*
X205251Y105757D01*
X205285Y105771D01*
X205327Y105792D01*
X205376Y105813D01*
X205438Y105841D01*
X205501Y105861D01*
X205653Y105917D01*
X205833Y105958D01*
X206028Y105986D01*
X206236Y106000D01*
X206277D01*
X206333Y105993D01*
D02*
G37*
G36*
X179000Y120600D02*
X176025D01*
X175949Y120607D01*
X175873D01*
X175783Y120614D01*
X175679Y120621D01*
X175471Y120641D01*
X175256Y120676D01*
X175048Y120718D01*
X174958Y120745D01*
X174867Y120773D01*
X174860D01*
X174846Y120780D01*
X174826Y120794D01*
X174791Y120808D01*
X174708Y120850D01*
X174611Y120912D01*
X174493Y120995D01*
X174375Y121106D01*
X174257Y121231D01*
X174153Y121383D01*
Y121390D01*
X174139Y121404D01*
X174125Y121425D01*
X174111Y121460D01*
X174091Y121501D01*
X174070Y121550D01*
X174042Y121605D01*
X174014Y121668D01*
X173966Y121813D01*
X173924Y121973D01*
X173897Y122153D01*
X173883Y122347D01*
Y122354D01*
Y122375D01*
Y122417D01*
X173890Y122458D01*
X173897Y122521D01*
X173904Y122590D01*
X173917Y122666D01*
X173938Y122750D01*
X173994Y122930D01*
X174028Y123027D01*
X174070Y123124D01*
X174118Y123221D01*
X174181Y123318D01*
X174250Y123408D01*
X174326Y123498D01*
X174333Y123505D01*
X174347Y123519D01*
X174375Y123540D01*
X174410Y123575D01*
X174458Y123609D01*
X174514Y123651D01*
X174583Y123699D01*
X174666Y123748D01*
X174756Y123797D01*
X174853Y123845D01*
X174964Y123894D01*
X175089Y123942D01*
X175221Y123984D01*
X175367Y124025D01*
X175526Y124060D01*
X175693Y124088D01*
X175686D01*
X175679Y124095D01*
X175637Y124115D01*
X175575Y124150D01*
X175498Y124192D01*
X175415Y124240D01*
X175332Y124289D01*
X175249Y124351D01*
X175179Y124407D01*
X175172Y124414D01*
X175166Y124421D01*
X175145Y124441D01*
X175117Y124469D01*
X175082Y124504D01*
X175041Y124545D01*
X174951Y124642D01*
X174846Y124767D01*
X174729Y124913D01*
X174604Y125079D01*
X174479Y125260D01*
X173370Y127000D01*
X174431D01*
X175277Y125669D01*
X175283Y125662D01*
X175290Y125641D01*
X175311Y125613D01*
X175339Y125572D01*
X175367Y125523D01*
X175408Y125468D01*
X175491Y125343D01*
X175588Y125197D01*
X175686Y125052D01*
X175790Y124913D01*
X175887Y124788D01*
Y124781D01*
X175900Y124774D01*
X175928Y124740D01*
X175970Y124684D01*
X176032Y124622D01*
X176095Y124552D01*
X176171Y124483D01*
X176247Y124414D01*
X176317Y124365D01*
X176324Y124358D01*
X176351Y124344D01*
X176386Y124324D01*
X176434Y124296D01*
X176497Y124268D01*
X176559Y124240D01*
X176629Y124213D01*
X176705Y124192D01*
X176712D01*
X176733Y124185D01*
X176767Y124178D01*
X176816Y124171D01*
X176885D01*
X176968Y124164D01*
X177066Y124157D01*
X178154D01*
Y127000D01*
X179000D01*
Y120600D01*
D02*
G37*
G36*
X172981Y126986D02*
Y126952D01*
Y126896D01*
X172974Y126827D01*
X172967Y126744D01*
X172947Y126653D01*
X172926Y126556D01*
X172891Y126459D01*
Y126452D01*
X172884Y126439D01*
X172877Y126418D01*
X172863Y126383D01*
X172843Y126348D01*
X172822Y126300D01*
X172766Y126189D01*
X172697Y126057D01*
X172607Y125912D01*
X172503Y125759D01*
X172378Y125606D01*
X172371Y125599D01*
X172364Y125586D01*
X172343Y125565D01*
X172309Y125530D01*
X172274Y125495D01*
X172225Y125447D01*
X172177Y125391D01*
X172115Y125329D01*
X172045Y125260D01*
X171969Y125190D01*
X171886Y125107D01*
X171789Y125024D01*
X171691Y124934D01*
X171581Y124844D01*
X171470Y124747D01*
X171345Y124642D01*
X171331Y124636D01*
X171296Y124601D01*
X171248Y124559D01*
X171178Y124497D01*
X171095Y124427D01*
X170998Y124344D01*
X170887Y124254D01*
X170776Y124150D01*
X170540Y123935D01*
X170312Y123706D01*
X170201Y123595D01*
X170097Y123484D01*
X170007Y123380D01*
X169930Y123283D01*
X169923Y123277D01*
X169916Y123263D01*
X169895Y123235D01*
X169875Y123200D01*
X169840Y123152D01*
X169812Y123103D01*
X169743Y122978D01*
X169674Y122833D01*
X169611Y122673D01*
X169570Y122507D01*
X169563Y122424D01*
X169556Y122340D01*
Y122333D01*
Y122319D01*
Y122292D01*
X169563Y122264D01*
Y122222D01*
X169576Y122174D01*
X169597Y122070D01*
X169639Y121945D01*
X169701Y121813D01*
X169736Y121744D01*
X169785Y121682D01*
X169833Y121619D01*
X169895Y121557D01*
X169902Y121550D01*
X169909Y121543D01*
X169930Y121529D01*
X169958Y121508D01*
X169993Y121481D01*
X170034Y121453D01*
X170131Y121390D01*
X170263Y121335D01*
X170409Y121279D01*
X170582Y121245D01*
X170679Y121231D01*
X170832D01*
X170873Y121238D01*
X170922D01*
X170977Y121252D01*
X171102Y121272D01*
X171248Y121314D01*
X171400Y121376D01*
X171476Y121418D01*
X171553Y121460D01*
X171622Y121515D01*
X171691Y121578D01*
X171698Y121585D01*
X171705Y121592D01*
X171719Y121612D01*
X171747Y121640D01*
X171768Y121675D01*
X171796Y121716D01*
X171830Y121765D01*
X171858Y121820D01*
X171893Y121883D01*
X171920Y121952D01*
X171976Y122119D01*
X172017Y122299D01*
X172024Y122403D01*
X172031Y122514D01*
X172836Y122430D01*
Y122417D01*
X172829Y122389D01*
X172822Y122347D01*
X172815Y122285D01*
X172801Y122209D01*
X172780Y122119D01*
X172759Y122021D01*
X172725Y121917D01*
X172690Y121813D01*
X172648Y121695D01*
X172593Y121585D01*
X172537Y121474D01*
X172468Y121356D01*
X172392Y121252D01*
X172309Y121148D01*
X172211Y121058D01*
X172205Y121051D01*
X172184Y121037D01*
X172156Y121016D01*
X172115Y120981D01*
X172059Y120947D01*
X171990Y120905D01*
X171913Y120863D01*
X171823Y120815D01*
X171726Y120773D01*
X171615Y120732D01*
X171497Y120690D01*
X171366Y120655D01*
X171227Y120621D01*
X171081Y120600D01*
X170922Y120586D01*
X170755Y120579D01*
X170665D01*
X170603Y120586D01*
X170527Y120593D01*
X170436Y120607D01*
X170332Y120621D01*
X170228Y120641D01*
X170110Y120669D01*
X169993Y120704D01*
X169868Y120745D01*
X169750Y120794D01*
X169625Y120856D01*
X169507Y120926D01*
X169396Y121002D01*
X169292Y121092D01*
X169285Y121099D01*
X169271Y121113D01*
X169244Y121148D01*
X169209Y121182D01*
X169167Y121231D01*
X169119Y121293D01*
X169070Y121363D01*
X169022Y121446D01*
X168973Y121529D01*
X168925Y121626D01*
X168876Y121730D01*
X168835Y121841D01*
X168800Y121966D01*
X168772Y122091D01*
X168758Y122222D01*
X168751Y122361D01*
Y122368D01*
Y122375D01*
Y122396D01*
Y122424D01*
X168758Y122500D01*
X168772Y122597D01*
X168793Y122715D01*
X168821Y122840D01*
X168855Y122978D01*
X168911Y123117D01*
Y123124D01*
X168918Y123131D01*
X168925Y123152D01*
X168939Y123179D01*
X168980Y123256D01*
X169036Y123353D01*
X169112Y123471D01*
X169202Y123602D01*
X169306Y123741D01*
X169438Y123894D01*
X169445Y123900D01*
X169452Y123914D01*
X169480Y123935D01*
X169507Y123970D01*
X169549Y124011D01*
X169597Y124060D01*
X169653Y124122D01*
X169722Y124185D01*
X169805Y124261D01*
X169895Y124344D01*
X169993Y124441D01*
X170103Y124538D01*
X170221Y124649D01*
X170353Y124760D01*
X170499Y124885D01*
X170651Y125017D01*
X170658Y125024D01*
X170679Y125045D01*
X170721Y125072D01*
X170762Y125114D01*
X170825Y125163D01*
X170887Y125218D01*
X171033Y125343D01*
X171185Y125475D01*
X171331Y125613D01*
X171400Y125676D01*
X171463Y125731D01*
X171518Y125787D01*
X171560Y125828D01*
X171567Y125835D01*
X171594Y125863D01*
X171629Y125905D01*
X171678Y125960D01*
X171733Y126022D01*
X171789Y126092D01*
X171900Y126244D01*
X168744D01*
Y127000D01*
X172981D01*
Y126986D01*
D02*
G37*
G36*
X179000Y99557D02*
X176025D01*
X175949Y99564D01*
X175873D01*
X175783Y99571D01*
X175679Y99578D01*
X175471Y99599D01*
X175256Y99634D01*
X175048Y99675D01*
X174958Y99703D01*
X174867Y99731D01*
X174860D01*
X174846Y99738D01*
X174826Y99752D01*
X174791Y99765D01*
X174708Y99807D01*
X174611Y99869D01*
X174493Y99953D01*
X174375Y100063D01*
X174257Y100188D01*
X174153Y100341D01*
Y100348D01*
X174139Y100362D01*
X174125Y100382D01*
X174111Y100417D01*
X174091Y100459D01*
X174070Y100507D01*
X174042Y100563D01*
X174014Y100625D01*
X173966Y100771D01*
X173924Y100930D01*
X173897Y101111D01*
X173883Y101305D01*
Y101312D01*
Y101333D01*
Y101374D01*
X173890Y101416D01*
X173897Y101478D01*
X173904Y101547D01*
X173917Y101624D01*
X173938Y101707D01*
X173994Y101887D01*
X174028Y101984D01*
X174070Y102081D01*
X174118Y102178D01*
X174181Y102275D01*
X174250Y102366D01*
X174326Y102456D01*
X174333Y102463D01*
X174347Y102477D01*
X174375Y102497D01*
X174410Y102532D01*
X174458Y102567D01*
X174514Y102608D01*
X174583Y102657D01*
X174666Y102705D01*
X174756Y102754D01*
X174853Y102802D01*
X174964Y102851D01*
X175089Y102900D01*
X175221Y102941D01*
X175367Y102983D01*
X175526Y103018D01*
X175693Y103045D01*
X175686D01*
X175679Y103052D01*
X175637Y103073D01*
X175575Y103108D01*
X175498Y103149D01*
X175415Y103198D01*
X175332Y103246D01*
X175249Y103309D01*
X175179Y103364D01*
X175172Y103371D01*
X175166Y103378D01*
X175145Y103399D01*
X175117Y103427D01*
X175082Y103461D01*
X175041Y103503D01*
X174951Y103600D01*
X174846Y103725D01*
X174729Y103870D01*
X174604Y104037D01*
X174479Y104217D01*
X173370Y105958D01*
X174431D01*
X175277Y104626D01*
X175283Y104619D01*
X175290Y104599D01*
X175311Y104571D01*
X175339Y104529D01*
X175367Y104481D01*
X175408Y104425D01*
X175491Y104300D01*
X175588Y104155D01*
X175686Y104009D01*
X175790Y103870D01*
X175887Y103746D01*
Y103739D01*
X175900Y103732D01*
X175928Y103697D01*
X175970Y103642D01*
X176032Y103579D01*
X176095Y103510D01*
X176171Y103441D01*
X176247Y103371D01*
X176317Y103323D01*
X176324Y103316D01*
X176351Y103302D01*
X176386Y103281D01*
X176434Y103253D01*
X176497Y103225D01*
X176559Y103198D01*
X176629Y103170D01*
X176705Y103149D01*
X176712D01*
X176733Y103142D01*
X176767Y103135D01*
X176816Y103128D01*
X176885D01*
X176968Y103122D01*
X177066Y103115D01*
X178154D01*
Y105958D01*
X179000D01*
Y99557D01*
D02*
G37*
G36*
X170353Y104425D02*
X173141D01*
Y103704D01*
X170215Y99557D01*
X169570D01*
Y103704D01*
X168703D01*
Y104425D01*
X169570D01*
Y105958D01*
X170353D01*
Y104425D01*
D02*
G37*
G36*
X297400Y272025D02*
X297393Y271949D01*
Y271873D01*
X297386Y271783D01*
X297379Y271679D01*
X297359Y271471D01*
X297324Y271256D01*
X297282Y271048D01*
X297255Y270958D01*
X297227Y270867D01*
Y270860D01*
X297220Y270847D01*
X297206Y270826D01*
X297192Y270791D01*
X297150Y270708D01*
X297088Y270611D01*
X297005Y270493D01*
X296894Y270375D01*
X296769Y270257D01*
X296617Y270153D01*
X296610D01*
X296596Y270139D01*
X296575Y270125D01*
X296540Y270112D01*
X296499Y270091D01*
X296450Y270070D01*
X296395Y270042D01*
X296332Y270014D01*
X296187Y269966D01*
X296027Y269924D01*
X295847Y269897D01*
X295653Y269883D01*
X295646D01*
X295625D01*
X295583D01*
X295542Y269890D01*
X295479Y269897D01*
X295410Y269904D01*
X295334Y269917D01*
X295251Y269938D01*
X295070Y269994D01*
X294973Y270028D01*
X294876Y270070D01*
X294779Y270118D01*
X294682Y270181D01*
X294592Y270250D01*
X294502Y270326D01*
X294495Y270333D01*
X294481Y270347D01*
X294460Y270375D01*
X294425Y270410D01*
X294391Y270458D01*
X294349Y270514D01*
X294301Y270583D01*
X294252Y270666D01*
X294203Y270756D01*
X294155Y270854D01*
X294106Y270964D01*
X294058Y271089D01*
X294016Y271221D01*
X293975Y271367D01*
X293940Y271526D01*
X293912Y271693D01*
Y271686D01*
X293905Y271679D01*
X293885Y271637D01*
X293850Y271575D01*
X293808Y271498D01*
X293760Y271415D01*
X293711Y271332D01*
X293649Y271249D01*
X293593Y271179D01*
X293586Y271172D01*
X293579Y271166D01*
X293559Y271145D01*
X293531Y271117D01*
X293496Y271082D01*
X293455Y271041D01*
X293358Y270951D01*
X293233Y270847D01*
X293087Y270729D01*
X292921Y270604D01*
X292740Y270479D01*
X291000Y269370D01*
Y270431D01*
X292331Y271276D01*
X292338Y271283D01*
X292359Y271290D01*
X292387Y271311D01*
X292428Y271339D01*
X292477Y271367D01*
X292532Y271408D01*
X292657Y271491D01*
X292803Y271588D01*
X292948Y271686D01*
X293087Y271790D01*
X293212Y271887D01*
X293219D01*
X293226Y271901D01*
X293260Y271928D01*
X293316Y271970D01*
X293378Y272032D01*
X293448Y272095D01*
X293517Y272171D01*
X293586Y272247D01*
X293635Y272317D01*
X293642Y272323D01*
X293656Y272351D01*
X293676Y272386D01*
X293704Y272435D01*
X293732Y272497D01*
X293760Y272559D01*
X293787Y272629D01*
X293808Y272705D01*
Y272712D01*
X293815Y272733D01*
X293822Y272767D01*
X293829Y272816D01*
Y272885D01*
X293836Y272968D01*
X293843Y273065D01*
Y274154D01*
X291000D01*
Y275000D01*
X297400D01*
Y272025D01*
D02*
G37*
G36*
X295819Y268267D02*
X295826Y268246D01*
X295847Y268211D01*
X295868Y268163D01*
X295895Y268107D01*
X295937Y268038D01*
X295979Y267962D01*
X296020Y267886D01*
X296131Y267705D01*
X296263Y267511D01*
X296402Y267310D01*
X296561Y267123D01*
X296568Y267116D01*
X296582Y267102D01*
X296603Y267074D01*
X296637Y267040D01*
X296679Y267005D01*
X296721Y266956D01*
X296838Y266852D01*
X296963Y266735D01*
X297109Y266617D01*
X297262Y266513D01*
X297421Y266423D01*
Y265916D01*
X291000D01*
Y266700D01*
X296000D01*
X295986Y266714D01*
X295951Y266748D01*
X295902Y266811D01*
X295833Y266901D01*
X295750Y267005D01*
X295660Y267137D01*
X295563Y267282D01*
X295459Y267449D01*
Y267456D01*
X295445Y267470D01*
X295431Y267490D01*
X295417Y267525D01*
X295389Y267567D01*
X295368Y267615D01*
X295306Y267726D01*
X295244Y267851D01*
X295174Y267990D01*
X295112Y268135D01*
X295056Y268274D01*
X295812D01*
X295819Y268267D01*
D02*
G37*
%LPC*%
G36*
X288630Y112761D02*
X286473D01*
Y110646D01*
X288387D01*
X288436Y110653D01*
X288491D01*
X288623Y110660D01*
X288769Y110674D01*
X288921Y110695D01*
X289067Y110723D01*
X289199Y110764D01*
X289205D01*
X289212Y110771D01*
X289254Y110785D01*
X289310Y110813D01*
X289386Y110854D01*
X289462Y110910D01*
X289545Y110972D01*
X289629Y111055D01*
X289698Y111146D01*
X289705Y111159D01*
X289726Y111194D01*
X289753Y111243D01*
X289788Y111319D01*
X289816Y111402D01*
X289843Y111499D01*
X289864Y111610D01*
X289871Y111721D01*
Y111728D01*
Y111742D01*
Y111763D01*
X289864Y111797D01*
Y111832D01*
X289857Y111881D01*
X289830Y111985D01*
X289788Y112102D01*
X289732Y112227D01*
X289649Y112345D01*
X289594Y112408D01*
X289538Y112463D01*
X289531Y112470D01*
X289524Y112477D01*
X289504Y112491D01*
X289476Y112512D01*
X289441Y112532D01*
X289393Y112560D01*
X289344Y112588D01*
X289282Y112616D01*
X289212Y112643D01*
X289136Y112664D01*
X289053Y112692D01*
X288963Y112713D01*
X288859Y112733D01*
X288748Y112747D01*
X288630Y112761D01*
D02*
G37*
G36*
X253087Y112754D02*
X250931D01*
Y110639D01*
X252845D01*
X252893Y110646D01*
X252949D01*
X253081Y110653D01*
X253226Y110667D01*
X253379Y110688D01*
X253524Y110716D01*
X253656Y110757D01*
X253663D01*
X253670Y110764D01*
X253711Y110778D01*
X253767Y110806D01*
X253843Y110847D01*
X253920Y110903D01*
X254003Y110965D01*
X254086Y111048D01*
X254155Y111139D01*
X254162Y111152D01*
X254183Y111187D01*
X254211Y111236D01*
X254245Y111312D01*
X254273Y111395D01*
X254301Y111492D01*
X254322Y111603D01*
X254329Y111714D01*
Y111721D01*
Y111735D01*
Y111756D01*
X254322Y111791D01*
Y111825D01*
X254315Y111874D01*
X254287Y111978D01*
X254245Y112096D01*
X254190Y112220D01*
X254107Y112338D01*
X254051Y112401D01*
X253996Y112456D01*
X253989Y112463D01*
X253982Y112470D01*
X253961Y112484D01*
X253933Y112505D01*
X253899Y112526D01*
X253850Y112553D01*
X253802Y112581D01*
X253739Y112609D01*
X253670Y112636D01*
X253594Y112657D01*
X253510Y112685D01*
X253420Y112706D01*
X253316Y112727D01*
X253205Y112740D01*
X253087Y112754D01*
D02*
G37*
G36*
X213697Y102318D02*
X211783D01*
X211734Y102311D01*
X211679D01*
X211547Y102304D01*
X211402Y102290D01*
X211249Y102269D01*
X211103Y102242D01*
X210972Y102200D01*
X210965D01*
X210958Y102193D01*
X210916Y102179D01*
X210861Y102152D01*
X210784Y102110D01*
X210708Y102055D01*
X210625Y101992D01*
X210542Y101909D01*
X210472Y101819D01*
X210465Y101805D01*
X210445Y101770D01*
X210417Y101722D01*
X210382Y101645D01*
X210354Y101562D01*
X210327Y101465D01*
X210306Y101354D01*
X210299Y101243D01*
Y101236D01*
Y101222D01*
Y101202D01*
X210306Y101167D01*
Y101132D01*
X210313Y101084D01*
X210340Y100980D01*
X210382Y100862D01*
X210438Y100737D01*
X210521Y100619D01*
X210576Y100557D01*
X210632Y100501D01*
X210639Y100494D01*
X210646Y100487D01*
X210666Y100474D01*
X210694Y100453D01*
X210729Y100432D01*
X210777Y100404D01*
X210826Y100377D01*
X210888Y100349D01*
X210958Y100321D01*
X211034Y100300D01*
X211117Y100273D01*
X211207Y100252D01*
X211311Y100231D01*
X211422Y100217D01*
X211540Y100203D01*
X213697D01*
Y102318D01*
D02*
G37*
G36*
X207671Y102595D02*
X207671Y102588D01*
X207671Y102589D01*
Y102595D01*
D02*
G37*
G36*
X206249Y105355D02*
X206201D01*
X206166Y105348D01*
X206118Y105341D01*
X206069Y105334D01*
X205951Y105307D01*
X205819Y105258D01*
X205743Y105224D01*
X205674Y105189D01*
X205597Y105140D01*
X205528Y105092D01*
X205459Y105029D01*
X205389Y104960D01*
X205383Y104953D01*
X205376Y104939D01*
X205355Y104918D01*
X205334Y104884D01*
X205306Y104842D01*
X205279Y104794D01*
X205244Y104738D01*
X205209Y104669D01*
X205175Y104599D01*
X205140Y104516D01*
X205112Y104426D01*
X205084Y104329D01*
X205064Y104225D01*
X205043Y104107D01*
X205036Y103989D01*
X205029Y103864D01*
Y103857D01*
Y103837D01*
Y103802D01*
X205036Y103753D01*
X205043Y103698D01*
X205050Y103636D01*
X205057Y103566D01*
X205070Y103490D01*
X205112Y103323D01*
X205175Y103150D01*
X205216Y103060D01*
X205265Y102977D01*
X205320Y102900D01*
X205383Y102824D01*
X205389Y102817D01*
X205396Y102810D01*
X205417Y102790D01*
X205445Y102762D01*
X205480Y102734D01*
X205521Y102699D01*
X205625Y102630D01*
X205757Y102561D01*
X205910Y102498D01*
X206083Y102450D01*
X206180Y102443D01*
X206277Y102436D01*
X206326D01*
X206367Y102443D01*
X206409Y102450D01*
X206464Y102457D01*
X206589Y102485D01*
X206735Y102533D01*
X206887Y102602D01*
X206964Y102644D01*
X207040Y102692D01*
X207116Y102755D01*
X207185Y102824D01*
X207192Y102831D01*
X207199Y102845D01*
X207220Y102866D01*
X207241Y102894D01*
X207269Y102928D01*
X207303Y102977D01*
X207338Y103032D01*
X207366Y103095D01*
X207400Y103157D01*
X207435Y103233D01*
X207498Y103407D01*
X207539Y103601D01*
X207546Y103712D01*
X207553Y103823D01*
Y103830D01*
Y103844D01*
Y103864D01*
Y103892D01*
X207546Y103927D01*
Y103968D01*
X207532Y104072D01*
X207511Y104190D01*
X207484Y104322D01*
X207442Y104461D01*
X207387Y104599D01*
Y104606D01*
X207380Y104613D01*
X207366Y104634D01*
X207352Y104662D01*
X207317Y104724D01*
X207262Y104807D01*
X207192Y104898D01*
X207109Y104988D01*
X207019Y105078D01*
X206908Y105161D01*
X206901D01*
X206894Y105168D01*
X206853Y105189D01*
X206790Y105224D01*
X206707Y105258D01*
X206610Y105293D01*
X206499Y105328D01*
X206374Y105348D01*
X206249Y105355D01*
D02*
G37*
G36*
X178154Y123422D02*
X176240D01*
X176192Y123415D01*
X176136D01*
X176005Y123408D01*
X175859Y123394D01*
X175706Y123373D01*
X175561Y123346D01*
X175429Y123304D01*
X175422D01*
X175415Y123297D01*
X175373Y123283D01*
X175318Y123256D01*
X175242Y123214D01*
X175166Y123159D01*
X175082Y123096D01*
X174999Y123013D01*
X174930Y122923D01*
X174923Y122909D01*
X174902Y122874D01*
X174874Y122826D01*
X174840Y122750D01*
X174812Y122666D01*
X174784Y122569D01*
X174763Y122458D01*
X174756Y122347D01*
Y122340D01*
Y122326D01*
Y122306D01*
X174763Y122271D01*
Y122236D01*
X174770Y122188D01*
X174798Y122084D01*
X174840Y121966D01*
X174895Y121841D01*
X174978Y121723D01*
X175034Y121661D01*
X175089Y121605D01*
X175096Y121598D01*
X175103Y121592D01*
X175124Y121578D01*
X175152Y121557D01*
X175186Y121536D01*
X175235Y121508D01*
X175283Y121481D01*
X175346Y121453D01*
X175415Y121425D01*
X175491Y121404D01*
X175575Y121376D01*
X175665Y121356D01*
X175769Y121335D01*
X175880Y121321D01*
X175998Y121307D01*
X178154D01*
Y123422D01*
D02*
G37*
G36*
Y102380D02*
X176240D01*
X176192Y102373D01*
X176136D01*
X176005Y102366D01*
X175859Y102352D01*
X175706Y102331D01*
X175561Y102303D01*
X175429Y102262D01*
X175422D01*
X175415Y102255D01*
X175373Y102241D01*
X175318Y102213D01*
X175242Y102171D01*
X175166Y102116D01*
X175082Y102054D01*
X174999Y101970D01*
X174930Y101880D01*
X174923Y101866D01*
X174902Y101832D01*
X174874Y101783D01*
X174840Y101707D01*
X174812Y101624D01*
X174784Y101527D01*
X174763Y101416D01*
X174756Y101305D01*
Y101298D01*
Y101284D01*
Y101263D01*
X174763Y101229D01*
Y101194D01*
X174770Y101145D01*
X174798Y101041D01*
X174840Y100923D01*
X174895Y100799D01*
X174978Y100681D01*
X175034Y100618D01*
X175089Y100563D01*
X175096Y100556D01*
X175103Y100549D01*
X175124Y100535D01*
X175152Y100514D01*
X175186Y100493D01*
X175235Y100466D01*
X175283Y100438D01*
X175346Y100410D01*
X175415Y100382D01*
X175491Y100362D01*
X175575Y100334D01*
X175665Y100313D01*
X175769Y100292D01*
X175880Y100279D01*
X175998Y100265D01*
X178154D01*
Y102380D01*
D02*
G37*
G36*
X172371Y103704D02*
X170353D01*
Y100819D01*
X172371Y103704D01*
D02*
G37*
G36*
X296693Y274154D02*
X294578D01*
Y272240D01*
X294585Y272192D01*
Y272136D01*
X294592Y272005D01*
X294606Y271859D01*
X294627Y271706D01*
X294654Y271561D01*
X294696Y271429D01*
Y271422D01*
X294703Y271415D01*
X294717Y271374D01*
X294744Y271318D01*
X294786Y271242D01*
X294841Y271166D01*
X294904Y271082D01*
X294987Y270999D01*
X295077Y270930D01*
X295091Y270923D01*
X295126Y270902D01*
X295174Y270874D01*
X295251Y270840D01*
X295334Y270812D01*
X295431Y270784D01*
X295542Y270763D01*
X295653Y270756D01*
X295660D01*
X295674D01*
X295694D01*
X295729Y270763D01*
X295764D01*
X295812Y270770D01*
X295916Y270798D01*
X296034Y270840D01*
X296159Y270895D01*
X296277Y270978D01*
X296339Y271034D01*
X296395Y271089D01*
X296402Y271096D01*
X296409Y271103D01*
X296422Y271124D01*
X296443Y271152D01*
X296464Y271186D01*
X296492Y271235D01*
X296520Y271283D01*
X296547Y271346D01*
X296575Y271415D01*
X296596Y271491D01*
X296623Y271575D01*
X296644Y271665D01*
X296665Y271769D01*
X296679Y271880D01*
X296693Y271998D01*
Y274154D01*
D02*
G37*
%LPD*%
D12*
X270128Y98708D02*
Y115208D01*
Y98708D02*
X301128D01*
Y115208D01*
X270128D02*
X301128D01*
X234585Y98708D02*
Y115208D01*
Y98708D02*
X265585D01*
Y115208D01*
X234585D02*
X265585D01*
X230042Y97750D02*
Y114250D01*
X199042D02*
X230042D01*
X199042Y97750D02*
Y114250D01*
Y97750D02*
X230042D01*
X194500Y118750D02*
Y135250D01*
X163500D02*
X194500D01*
X163500Y118750D02*
Y135250D01*
Y118750D02*
X194500D01*
Y97708D02*
Y114207D01*
X163500D02*
X194500D01*
X163500Y97708D02*
Y114207D01*
Y97708D02*
X194500D01*
X282750Y290500D02*
X299250D01*
X282750Y259500D02*
Y290500D01*
Y259500D02*
X299250D01*
Y290500D01*
M02*
